<?xml version="1.0" encoding="utf-8"?>
<!-- Generator: Adobe Illustrator 23.0.2, SVG Export Plug-In . SVG Version: 6.00 Build 0)  -->
<svg version="1.1" id="symbol-logo" xmlns="http://www.w3.org/2000/svg" xmlns:xlink="http://www.w3.org/1999/xlink" x="0px"
	 y="0px" viewBox="0 0 601.2 626.71" style="enable-background:new 0 0 601.2 626.71;" xml:space="preserve">
<style type="text/css">
	.st0{fill:#0B4892;}
</style>
<path class="st0" d="M574.04,456.66l-43.08-44.51V303.81l43.08-43.93l20.08,19.86v156.49L574.04,456.66z M530.96,191.87V83.53
	l43.08-44.54l20.08,20.46v156.49l-20.08,19.85L530.96,191.87z M393.42,71.48l-43.67-44.52l20.06-19.87h172.96l19.46,19.87
	l-43.08,44.52H393.42z M381.63,191.87l-43.68,43.92l-19.48-19.85V59.45l19.48-20.46l43.68,44.54V191.87z M328.52,550.11l3.82,1.75
	l1.77,3.85l-1.77,12.15l1.77,9.9l-1.77,1.12l2.89,20.47l1.11,1.27l1.59-1.27l12.27,6.69l1.43,1.62l-1.43,6.71l-10.99,2.71
	l-12.29-2.71h-3.81l-6.71-3.99l-17.69,6.7l-11-3.99l-2.71-2.71l-1.59,1.28l-2.39-3.97l1.28-20.48l-1.28-8.31l1.28-11.02l-1.12-6.4
	l-1.91-2.54l-5.09,0.95h-2.72l-1.91-2.57l-1.43-0.3l-1.6-1.59l-1.27-2.57l4.14-3.19l8.93-0.65l12.11,2.87l1.12,3.85l-2.71,16.47
	l1.59,1.27l-1.59,8.33l2.71,17.57v1.27l8.28,2.73l8.29-1.29l8.28-9.42v-4.32l4.96-6.55l2.87-17.92l1.59-1.41v-2.42l-4.46-2.71
	h-12.13l-1.11-4.46l8.28-3.85l7.83,2.88L328.52,550.11z M224.03,191.87V83.53l43.07-44.54l20.08,20.47v156.49L267.1,235.8
	L224.03,191.87z M86.62,71.7L42.77,27.33L62.74,7.39l173.09-0.31l19.48,19.87l-43.08,44.52L86.62,71.7z M74.69,412.14l-43.67,44.52
	l-19.47-20.46V279.73l19.47-19.86l43.67,43.93V412.14z M24.62,603.5l1.28-23.36l1.11-1.1l-2.4-4.34l1.28-9.42v-2.72l-2.7-2.71H17.6
	l-5.43-3.99v-2.89l5.43-4.31l12.12,4.31l2.7,2.89h4.47l3.83-5.61l6.69-1.59l5.59,4.31l4.3,4.01l6.7-1.12l3.83-4.31h7.02l1.28-1.3
	l8.28,4l2.7,11.01l-2.7,18.87l2.7,20.48v1.59l3.98,1.12h4.3v7.03l-30.3,1.27l-1.11-1.27l-13.71,1.27h-5.57l-2.39-3.98l7.98-5.43
	l2.7-2.73l-1.28-8.32l1.28-1.12l-1.28-9.9l1.28-1.29l-1.28-11.02l3.98-3.84l-3.98-5.45l-9.4-1.27L35.29,568l-2.87,8.33l-0.96,1.1
	l2.7,24.29v2.9l3.83,2.71l1.59,1.59v5.44L27,617.07l-19.91-2.71l2.23-7.03l12.6-1.12L24.62,603.5z M58.58,596.77l2.7,7.85
	l-1.27,1.59h5.09l4.3,1.12l6.71-2.71l-1.28-7.85l2.87-4.31l-1.57-10.69l2.7-2.72V568l-6.7-6.71l-4.31-1.44L62.4,568l-3.83,12.14
	l2.7,4L58.58,596.77z M123.63,601.9l1.12,1.6h5.57l2.7-2.72l-1.11-4.5l-1.6-0.94h1.6l2.7-13.91l-1.59-10.53l1.59-11.04l-2.7-2.72
	l-4.47,3.84l-5.43-2.39l-1.12-1.45l-2.7,1.45h-5.57l-1.28-11.04l23.28,2.9l1.11-1.59h3.99l4.3,5.59l1.28,25.88l-2.88,5.44
	l1.59,10.54v4.5l2.7,2.72l14.99-1.6h5.59l2.7,2.72l1.12,7.03l-2.7,3.99l-5.59,1.27l-9.41-1.27l-1.11,1.27h-2.87l-1.44-1.27
	l-1.28,1.27l-4.3-1.27l-13.23,2.89l-7.17-1.62l-1.11-1.27l-1.27,1.27l-7.02-1.27h-3.99l-4.3-5.46l1.6-5.58L123.63,601.9z
	 M144.04,527.25l1.28,6.55l-2.88,4.47l-4.94,2.72l-10.04-2.72l-0.96-7.17l2.7-3.85l6.54-3.98L144.04,527.25z M42.83,247.83
	l31.87-31.89h149.34l31.28,31.89l-31.28,31.9H74.69L42.83,247.83z M235.83,488.57H62.89l-20.06-19.84l43.67-44.57h125.73
	l43.08,44.57L235.83,488.57z M190.91,606.21l7.81-1.59l2.7-2.9l1.59-11.98l-1.59-20.61v-3.84l-10.53-6.7l-2.7-4.31v-4.01l3.83-2.72
	l9.4,2.72l5.59-3.84l5.42,5.13h1.11l4.46,4.31l16.11-8.33l11,1.12l9.25,9.92l1.75,16.12l-1.75,31.52l8.93,5.25l-4.47,4.16
	l-8.29-1.27l-11.01,1.27h-5.42l-2.87-2.72v-3.99l13.87-2.72h1.43l1.28-1.59l-1.28-7.85v-5.58l1.28-1.43l-2.71-24.46l-9.57-5.44
	l-8.29,4.16l-11,15.03l-3.83,9.42l1.11,9.59l-1.11,3.66v1.77l3.83,3.85l9.88-0.97l-2.7,6.56v1.44l-2.71,2.72l-4.47-1.44l-3.83,1.44
	l-1.12-1.44l-5.58,1.44l-7.01-1.44l-9.58,1.44l-2.7-2.72h-1.12l1.12-4.32L190.91,606.21z M227.26,606.21l-1.11,0.15l0.17-0.15
	H227.26z M418.6,576.63h1.89v2.42h-1.89V576.63z M381.76,550.26l2.72-24.45h8.28l3.84,6.88l-2.4,2.71l1.28,11.01l-1.28,1.13v1.12
	l5.1,2.89l12.76-1.3l7.8,1.3l1.43,4.31l-2.7,3.99h-6.55l-1.76-1.29l-13.7,2.71v2.73l-3.84,3.98l2.72,14.86l1.12,1.29l-3.84,4.33
	l6.56,3.98l-2.72,2.71v4.32l4.46,2.26h0.95l2.88-6.57h1.6l1.12,1.59l11.01-11.01h2.7l2.72,5.45l-1.43,3.97v4.32l-5.58,6.73v2.71
	h-1.12l-2.87,5.44l-6.56,2.72v1.28l-1.59,1.27l-9.4-1.27h-3.98l-7.02-8.3l-2.72-6.55l1.42-4.01l-1.42-7.03l2.72-31.16l-7.82-1.44
	l-11,1.44l-4.3-2.71v-5.61l5.42-4.31L381.76,550.26z M454.96,561.29l6.68-4.16l4.3-3.98l3.98-1.59l21.53,1.59l11.17,12.14l4.13,8.31
	v5.43l-1.43,1.11l1.43,1.3l-1.43,4.32l-6.69-1.6l-7.17,2.88l-3.83-2.88l-6.69,1.6l-2.72,2.73v-1.45l-8.28-1.27l-10.99,1.27
	l-1.27,1.45l2.87,9.59l8.14,6.56l10.68,4.31l5.44-1.59l1.59,1.59l13.39-12.16h4.31l1.27,4.01l-2.7,5.44l-9.58,8.15l-14.83,3.99
	l-4.47-2.72h-7.8l-9.72-9.42v-2.71l-5.11-5.44l-2.7-15.04l-1.76-1.59l4.46-12.31L454.96,561.29z M478.21,565.29l3.83,3.84v1.77
	l-3.83,6.53l9.4-1.1v-11.04l-3.97-3.99h-4.3l-7.8-1.44l-1.59,1.44l1.59,1.27l-1.59,1.13v4.49l1.59,0.95h1.12L478.21,565.29z
	 M467.23,579.04l4.31-2.71v-2.72h-7.03L467.23,579.04z M318.45,436.22V279.73l19.49-19.86l43.67,43.93v108.35l-43.67,44.51
	L318.45,436.22z M519.16,424.16l43.08,44.57l-19.46,19.84H369.81l-20.06-19.84l43.69-44.57H519.16z M532.6,588.47h2.7l5.6,6.7
	l5.59,2.89h0.95v1.42l-0.95,1.29l3.81,2.72l5.44-1.77l1.27,1.77v1.14l-1.27,1.59l1.27,1.12l5.43-2.71l1.59,1.59h3.98l1.12-1.59
	l5.42-2.91v-3.66l4.46-4l-2.71-4.31l-4.46-3.98l-7.8-2.9l-9.88,1.31l-7.67-2.4l-11.17-5.45l-2.69-5.43l1.27-12.31l5.42-5.61
	l7.17-2.72h17.55l9.4,5.61l5.58-4.31l1.12-1.3l3.98,4l1.44,4.31l-2.7,5.45l1.27,6.88v0.94h-2.4l-7.17-9.29l-8.14-6.69l-16.1-1.59
	l-5.6,4.31l-3.82,3.98l-1.59,5.45l2.72,5.59L553,576.3l10.99,1.1l13.23,2.71l5.58,2.73l6.7,9.59l-1.12,7.03v4l-12.11,10.88
	l-14.99,3.97l-13.87-3.97l-12.11,1.28h-2.72l-2.72-2.72l1.3-23.18L532.6,588.47z"/>
</svg>
