<svg version="1.2" xmlns="http://www.w3.org/2000/svg" viewBox="0 0 709 709" width="709" height="709">
	<title>BFMBUSINESS-CMJN-CONTOUR-ai</title>
	<style>
		.s0 { fill: #1b1955 } 
		.s1 { fill: #fefefe } 
		.s2 { fill: #ed9320 } 
	</style>
	<g id="Calque 1">
		<g id="&lt;Group&gt;">
			<path id="&lt;Path&gt;" class="s0" d="m6.7 6.7h695.6v695.6h-695.6z"/>
			<path id="&lt;Compound Path&gt;" fill-rule="evenodd" class="s1" d="m0.4 0.4h708.2v708.2h-708.2zm6.3 702h695.6v-695.7h-695.6z"/>
			<path id="&lt;Compound Path&gt;" fill-rule="evenodd" class="s1" d="m16.3 354.9h37q14 0.1 25.6 4c7.6 2.6 13.8 7 18.5 13.4q7 9.2 7 24.7 0 11.7-4.6 20.4-4.6 8.9-12.5 13.1v0.6q4.5 2.3 8.4 6.1 3.8 3.7 6.7 8.9 2.7 5 4.4 11.2 1.4 6.3 1.4 13.3 0 20.1-11.7 32.4-11.7 12.3-35.6 12.3h-44.6zm32.4 31.4v32.4h8.2c5 0 8.8-1.5 11.3-4.4q3.9-4.2 3.8-12.2 0-8.5-4.8-12.2-4.8-3.6-11.5-3.6zm0 63.9v33.5h8.7q18.5 0 18.5-16.4 0-10.3-5-13.7-4.9-3.4-14-3.4z"/>
			<path id="&lt;Path&gt;" class="s1" d="m216.1 355.1v104.6q0 18.2-6.9 31.6-6.9 13.6-19.1 20.6c-8.1 4.7-17.5 7.1-28 7.1-9.9 0-18.5-2-25.9-6.1-7.5-4.1-13.2-10.3-17.3-18.8-4.2-8.4-6.2-18.9-6.2-31.6v-107.6l30.9 0.2v96.1c0 6.2 0.6 11.7 1.7 16.2 1.2 4.7 3.2 8.4 6.1 11.1q4.1 4.1 11.5 4.1c9.2 0 15.2-3.4 18.1-10.3q4.3-10.3 4.3-29.7v-87.7z"/>
			<path id="&lt;Path&gt;" class="s1" d="m284.4 397.4q-5.5-6.7-9.6-9.4-4.5-3-10.3-3-4.4 0-8.2 3.5-4 3.5-4 9.3 0 8.1 8.7 12.8 8.9 4.9 18.2 9.4c6.3 3.2 11.7 8.2 16.3 15 4.6 7 6.8 17.1 6.8 30.6q0 25.7-12.1 39.5-12.1 13.9-30.8 13.9-10.8 0-20.9-4.8c-6.8-3.1-12.8-7.8-17.9-14.2l16.6-30.3q8 12.9 21.1 12.9 5.2 0 10-3.7 4.7-3.6 4.7-10.6 0-8.3-8.8-13.1c-2.6-1.5-5.6-3.1-9.1-4.9l-4.6-2.3-4.7-2.6q-9.4-4.9-16.2-15-6.7-9.9-6.7-29.7 0-15.1 5.8-26.4c3.8-7.4 8.9-13.2 15.2-17.2q9.2-5.9 19.8-5.9 9.7 0 19.1 4.8c6.4 3.3 12 7.9 16.8 13.8z"/>
			<path id="&lt;Path&gt;" class="s1" d="m306.8 368.9l30.9-17.2v163.6l-30.9-0.1z"/>
			<path id="&lt;Path&gt;" class="s1" d="m449.1 515.4l-70.7-76.5 0.1 76h-31.1v-162.2l70.8 76.3v-73.9h30.9z"/>
			<path id="&lt;Path&gt;" class="s1" d="m520.4 515.3h-62.8v-160.4h69v34.1h-38.1v27.8h31.9v33.7h-31.9v31h31.9z"/>
			<path id="&lt;Path&gt;" class="s1" d="m592.6 397.4q-5.6-6.7-9.7-9.4-4.4-3-10.3-3-4.3 0-8.2 3.5-4 3.5-4 9.3 0 8.1 8.7 12.8 8.9 4.9 18.2 9.4c6.3 3.2 11.7 8.2 16.3 15 4.6 7 6.9 17.1 6.9 30.6q0 25.7-12.2 39.5-12.1 13.9-30.8 13.9c-7.2 0-14.2-1.6-20.9-4.8-6.8-3.1-12.8-7.8-17.9-14.2l16.7-30.3q7.9 12.9 21 12.9 5.2 0 10-3.7c3.2-2.4 4.7-6 4.7-10.6q0-8.3-8.8-13.1-3.9-2.2-9-4.9l-4.7-2.3-4.6-2.6q-9.5-4.9-16.3-15-6.7-9.9-6.7-29.7c0-10.1 1.9-18.9 5.8-26.4q5.7-11.2 15.2-17.2 9.2-5.9 19.8-5.9c6.5 0 12.9 1.6 19.1 4.8q9.7 5 16.8 13.8z"/>
			<path id="&lt;Path&gt;" class="s1" d="m673.4 397.4q-5.5-6.7-9.7-9.4-4.4-3-10.3-3-4.3 0-8.1 3.5c-2.7 2.4-4.1 5.4-4.1 9.3 0 5.4 3 9.7 8.8 12.8q8.8 4.9 18.1 9.4c6.3 3.2 11.7 8.2 16.4 15 4.5 7 6.8 17.1 6.8 30.6q0 25.7-12.2 39.5-12 13.9-30.7 13.9-10.9 0-21-4.8-10.2-4.7-17.9-14.2l16.7-30.3q8 12.9 21 12.9c3.5 0 6.8-1.2 10-3.7q4.7-3.6 4.7-10.6c0-5.5-2.9-9.9-8.8-13.1-2.6-1.5-5.6-3.1-9-4.9l-4.6-2.3-4.7-2.6q-9.5-4.9-16.2-15c-4.6-6.6-6.8-16.5-6.8-29.7q0-15.1 5.8-26.4 5.7-11.2 15.2-17.2 9.3-5.9 19.8-5.9 9.8 0 19.2 4.8 9.6 5 16.7 13.8z"/>
			<path id="&lt;Path&gt;" class="s2" d="m633.1 530.1l-121.5 101-91.4-58.9-99.9 68.1-85.6-35.9-167.9 98h-60.2v-1.9l223.5-132.8 86.6 34.1 103.6-70.3 90.1 58.1c0 0 92.4-75.8 92.7-75.8 8 7.8 11.1 10.7 30 16.3z"/>
			<path id="&lt;Compound Path&gt;" fill-rule="evenodd" class="s1" d="m691.8 85.8v242.4h-70.1v-155.5h-0.7l-41.8 155.5h-55.3l-41.7-155.5h-0.7v155.5h-70.1v-184.7h-104.2v36.7h67.8v55.7h-67.7v92.3h-74.1v-48.6c-11.7 31.9-45.2 48.6-79.5 48.6h-136.5v-242.4h131.8c63.3 0 76.8 36 76.8 60.8 0 24.5-11.8 37.7-29.6 47.5 15.3 5.3 29.9 15.8 37 34.2v-142.5h283.7l34.4 142.6h0.6l34.4-142.6zm-600.6 94.4h39.3c15.5 0 25.3-4.4 25.3-20 0-12.3-10.1-16.7-25.3-16.7h-39.3zm72.6 67.3c0-14.3-8.4-22.1-25.9-22.1h-46.5v45.1h43.4c15.6 0 29-4.4 29-23z"/>
		</g>
	</g>
</svg>