<?xml version="1.0" encoding="utf-8"?>
<!-- Generator: Adobe Illustrator 23.0.2, SVG Export Plug-In . SVG Version: 6.00 Build 0)  -->
<svg version="1.1" id="Layer_1" xmlns="http://www.w3.org/2000/svg" xmlns:xlink="http://www.w3.org/1999/xlink" x="0px" y="0px"
	 viewBox="0 0 112.6 56.6" style="enable-background:new 0 0 112.6 56.6;" xml:space="preserve">
<style type="text/css">
	.st0{fill:#FFFFFF;}
	.st1{fill:#FF671D;}
	.st2{fill:#1A171B;}
</style>
<path class="st0" d="M29.2,37.1c-5,0-9.1-4-9.1-8.9c0-4.9,4-8.9,8.9-8.9h54.5c4.9,0,8.9,4,8.9,8.9c0,4.9-4,8.9-8.8,8.9"/>
<path class="st1" d="M28.3,55.7c-15.1,0-27.4-12.3-27.4-27.4c0-15.1,12.3-27.4,27.4-27.4h56c15.1,0,27.4,12.3,27.4,27.4
	c0,15.1-12.3,27.4-27.4,27.4 M29,19.3c-4.9,0-8.9,4-8.9,8.9c0,4.9,4.1,8.9,9.1,8.9h54.5c4.9,0,8.8-4,8.8-8.9c0-4.9-4-8.9-8.9-8.9H29
	z"/>
<path class="st2" d="M29.6,30.6h-1.1V29h1.1c0.6,0,0.9,0.2,0.9,0.8S30.2,30.6,29.6,30.6 M40,28.2c0,1.3-0.8,2.4-2.2,2.4
	c-1.4,0-2.2-1.1-2.2-2.4c0-1.3,0.8-2.4,2.2-2.4C39.1,25.8,40,26.9,40,28.2 M28.5,25.8h0.9c0.5,0,0.8,0.2,0.8,0.7
	c0,0.5-0.3,0.7-0.8,0.7h-0.9V25.8z M70.2,32.8c2.2,0,3.4-1.2,3.4-3.6v-5.4h-2.2v5.6c0,0.9-0.4,1.4-1.2,1.4c-0.7,0-1.2-0.5-1.2-1.4
	v-5.6h-2.2v5.4C66.8,31.5,67.9,32.8,70.2,32.8 M57.9,23.8h-2.4L54,27.1l-1.4-3.3h-2.4l2.7,5.8v3h2.2v-3L57.9,23.8z M46.3,32.8
	c2.2,0,3.4-1.2,3.4-3.6v-5.4h-2.2v5.6c0,0.9-0.4,1.4-1.2,1.4c-0.7,0-1.2-0.5-1.2-1.4v-5.6h-2.2v5.4C42.9,31.5,44.1,32.8,46.3,32.8
	 M74.4,32.6h5.3v-2h-3.1v-1.5h2.9v-1.9h-2.9v-1.4h3.1v-2h-5.2V32.6z M32.8,29.9c0-0.8-0.5-1.6-1.4-2c0.7-0.4,1.1-1,1.1-1.8
	c0-1.3-0.9-2.3-2.5-2.3h-3.7v8.8h3.3C31.8,32.6,32.8,31.4,32.8,29.9 M66,28.2v-0.5h-4.7v1.9h2.2c-0.2,0.8-1.1,1.2-2,1.2
	c-1.4,0-2.3-1.1-2.3-2.5c0-1.4,0.8-2.5,2.3-2.5c0.9,0,1.5,0.4,1.9,1h2.4c-0.5-1.7-2-3.1-4.3-3.1c-2.9,0-4.5,2.2-4.5,4.6
	c0,2.4,1.6,4.6,4.5,4.6C64.4,32.8,66,30.7,66,28.2 M86.2,26.4c0-1.6-1-2.8-2.9-2.8c-1.8,0-2.9,1.2-2.9,2.6c0,3.3,3.7,2.4,3.7,3.9
	c0,0.4-0.2,0.7-0.8,0.7c-0.5,0-0.9-0.3-0.9-1h-2.1c0,1.7,0.9,2.9,3,2.9c2,0,3-1.3,3-2.6c0-3.3-3.7-2.5-3.7-4c0-0.4,0.3-0.7,0.7-0.7
	c0.4,0,0.8,0.3,0.8,0.9H86.2z M33.2,28.2c0,2.4,1.6,4.6,4.5,4.6c2.9,0,4.5-2.2,4.5-4.6c0-2.4-1.6-4.6-4.5-4.6
	C34.9,23.7,33.2,25.9,33.2,28.2 M83.5,19.5c4.8,0,8.7,3.9,8.7,8.7c0,4.8-3.8,8.7-8.6,8.7H29.2c-4.9,0-8.9-3.9-8.9-8.7
	c0-4.8,3.9-8.7,8.7-8.7H83.5z M92.7,28.2c0-5.1-4.1-9.2-9.2-9.2H29c-5,0-9.2,4.1-9.2,9.2c0,5,4.2,9.1,9.3,9.1h54.5
	C88.6,37.4,92.7,33.3,92.7,28.2 M84.3,1.1c15,0,27.2,12.2,27.2,27.1c0,15-12.2,27.1-27.2,27.1h-56c-15,0-27.1-12.2-27.1-27.1
	c0-15,12.2-27.1,27.1-27.1H84.3z M111.9,28.3c0-15.2-12.4-27.6-27.6-27.6h-56C13.1,0.7,0.7,13.1,0.7,28.3s12.4,27.6,27.6,27.6h56
	C99.5,55.9,111.9,43.5,111.9,28.3"/>
</svg>
