<?xml version="1.0" encoding="utf-8"?>
<!-- Generator: Adobe Illustrator 19.2.1, SVG Export Plug-In . SVG Version: 6.00 Build 0)  -->
<svg version="1.1" id="Calque_1" xmlns="http://www.w3.org/2000/svg" xmlns:xlink="http://www.w3.org/1999/xlink" x="0px" y="0px"
	 viewBox="0 0 469 119" style="enable-background:new 0 0 469 119;" xml:space="preserve">
<style type="text/css">
	.st0{fill:#1D1D1B;}
	.st1{fill:#D8000C;}
</style>
<path class="st0" d="M63.1,81.9c-0.1-5.7-1.5-6.9-4.2-5.7c-5.1,2.2-10.7,9.4-24.2,9.4C16.1,85.5,0,67.5,0,43.1
	C0,20.5,16.1,2.4,34.6,2.4c13.4,0,18.3,8.1,22.3,8.1c3.1,0,4.1-0.8,4-4.1c0-1.3,1.8-1.1,1.8,0c-0.6,7.5-0.7,14.5,0,23.1
	c0.1,1.6-1.7,1.6-1.7,0C61,16.8,50.4,4.2,34.6,4.2c-19.5,0-22.2,24.4-22.2,39c0,16.1,2.6,40.6,22,40.6c16.1,0,26.7-11.3,28.6-26.4
	c0.2-1.5,1.8-1.4,1.7,0c-0.5,8.2-0.5,15.8,0,24.6C64.9,83.1,63.2,83.1,63.1,81.9"/>
<path class="st0" d="M103.6,84.5c-1.7,0-1.7-2.1,0-1.7c2.3,0.2,4.1,0.1,6.1-0.1c1.4-0.1,1.4-0.5,1.4-1V48.7c0-6.3-2.3-8.2-5.8-8.2
	c-9.1,0.1-12.7,8-16.6,13v27.9c0,0.7,0.3,1.1,1.3,1.3c2.2,0.2,3.8,0.2,5.6,0c1.8-0.2,1.7,1.8,0,1.8c-7.9-0.2-15.1-0.2-23.2,0
	c-1.7,0-1.7-2.1,0-1.8c2.2,0.2,3.9,0.2,5.8,0c1.3-0.1,1.3-0.5,1.3-1V8.2c0-1.1-0.3-1.9-1.8-2.1c-1.5-0.1-2.7-0.1-4.2,0
	c-2.2,0.1-2.2-1.9,0-1.8c2.3,0.1,4.5,0.2,6.5,0.1c1.9-0.1,4.9-0.9,7-2.6c1.6-1.4,1.8-1.6,1.8,0.1v48.2c0,0.7,0.1,0.2,0.5-0.2
	c3.9-5.6,9.1-11.3,18-11.2c11.8,0.1,13,6.1,13,12.8v29.9c0,0.7,0.3,1.1,1.3,1.3c2.2,0.2,4.3,0.2,6.3,0c1.7-0.2,1.6,1.8,0,1.8
	C119.8,84.3,111.8,84.3,103.6,84.5"/>
<path class="st0" d="M159.3,61.7c0-0.6-0.3-0.8-1.8-0.7c-5.4,0.3-14.7,1.7-14.7,11.4c0,6.1,1,10.5,8,10.5c4.1,0,7.8-5.1,8.6-6.3
	V61.7 M169.2,85.6c-5.3,0-8.8-2.7-9.6-6.7c0-0.2-0.2-0.2-0.3,0c-2.2,3.8-6.6,6.7-12.6,6.7c-8.6,0-13.7-4.1-13.7-11.5
	c0-10.9,15.3-14.5,24.3-14.7c1.7,0,2.1-0.2,2.1-0.7V45.8c0-4-2.1-5.9-5.5-5.9c-4.9,0-10.6,1.1-10.6,4.6c0,2.5,3.7,0.1,3.7,5
	c0,2.5-2.3,4.2-5.1,4.6c-2.7,0.3-5-2.5-4.8-6.1c0.3-4.9,7.9-9.6,17.5-9.8c7.9-0.1,14.2,4.7,14.2,12.2v28.1c0,2.2,0.3,4.7,3.3,4.7
	c1.5,0,2.7-0.3,3.4-1.4c1-1.4,2.3-0.2,1.1,1C174.6,84.3,172.5,85.6,169.2,85.6z"/>
<path class="st0" d="M178.8,84.6c-1.8,0-1.8-2.1,0-1.8c2.2,0.2,3.8,0.2,5.8,0c1.3-0.1,1.3-0.5,1.3-1V8c0-1.1-0.5-1.9-1.9-2.1
	c-1.6-0.1-2.7-0.1-4.3,0c-2.1,0.1-2.1-1.9,0-1.8c2.4,0.1,4.6,0.2,6.5,0.1c1.9-0.1,4.9-0.9,7-2.6c1.7-1.4,1.9-1.6,1.9-0.3v80.3
	c0,0.7,0.5,1.1,1.3,1.3c2.2,0.2,3.9,0.2,5.7,0c1.8-0.2,1.7,1.8,0,1.8C194.1,84.4,186.9,84.4,178.8,84.6"/>
<path class="st0" d="M206.5,84.6c-1.8,0-1.8-2.1,0-1.8c2.2,0.2,3.8,0.2,5.8,0c1.3-0.1,1.3-0.5,1.3-1V8c0-1.1-0.5-1.9-1.9-2.1
	c-1.6-0.1-2.7-0.1-4.3,0c-2.1,0.1-2.1-1.9,0-1.8c2.4,0.1,4.6,0.2,6.5,0.1c1.9-0.1,4.9-0.9,7-2.6c1.7-1.4,1.9-1.6,1.9-0.3v80.3
	c0,0.7,0.5,1.1,1.3,1.3c2.2,0.2,3.9,0.2,5.7,0c1.8-0.2,1.7,1.8,0,1.8C221.8,84.4,214.6,84.4,206.5,84.6"/>
<path class="st0" d="M264.9,54.5c0-6.9-0.9-15-9.1-14.7c-7.7,0.2-9.9,7.9-9.9,14.7v2.2c0,0.5,0.1,0.9,0.7,0.9h17
	c1,0,1.4-1.1,1.4-1.5V54.5 M257.1,85.6c-12.9,0-21.9-9.7-21.9-23.9c0-10.4,8.6-23.5,20.6-23.8c17.8-0.5,19.6,15.5,19.6,20
	c0,0.7-0.9,1.3-2.1,1.3h-27c-0.3,0-0.6,0.2-0.6,0.6v7.9c0,7.7,0.9,16.2,11.3,16.2c9.1,0,16.4-5.9,18.5-14.1c0.1-1.1,1.9-1.3,1.7,0
	C274.6,79,267.2,85.6,257.1,85.6z"/>
<path class="st0" d="M311.3,84.6c-1.8,0-1.8-2.1,0-1.8c2.2,0.2,3.8,0.2,5.8,0c1.3-0.1,1.3-0.5,1.3-1V48.9c0-5.6-1.7-8.5-5.3-8.5
	c-7.8,0-13.9,6.9-15.9,10.7v30.4c0,0.7,0.2,1.1,1.1,1.3c2.2,0.2,3.8,0.2,5.6,0c1.8-0.2,1.7,1.8,0,1.8c-7.9-0.2-15.1-0.2-23.2,0
	c-1.7,0-1.7-2.1,0-1.8c2.2,0.2,3.9,0.2,5.8,0c1.3-0.1,1.3-0.5,1.3-1V45.1c0-1.3-0.5-2.1-1.9-2.2c-1.5-0.1-2.7-0.1-4.2,0
	c-2.2,0.1-2.2-1.9,0-1.8c2.3,0.1,3.9,0.1,5.8,0c2.1-0.1,4.9-1,7.1-2.5c1.5-1,1.7-1.1,1.9,0.3c0.6,3.4,0.7,6.7,0.6,10.4l0.3-1.1
	c2.9-4.5,9.1-9.6,16.1-9.6c11.8,0,14.1,6.3,14.1,13v30c0,0.7,0.3,1,1.1,1.1c2.3,0.2,3.9,0.2,5.7,0c1.8-0.2,1.7,1.8,0,1.8
	C326.6,84.4,319.4,84.4,311.3,84.6"/>
<path class="st0" d="M361.5,40.8c-9.4,0.3-9,9.8-8.8,16.1c0.2,7.5,0.6,15.6,9.9,15.3c9.4-0.3,9-7.7,8.8-16
	C371.1,46.8,370.8,40.4,361.5,40.8 M373.1,90.9c-6.3-0.3-11.9-0.6-18.4,0c-5.9,0.6-9.9,5.4-9.9,12.9c0,9.6,7.9,13.3,16.4,13.3
	c11.2,0,23-8.7,23.6-19C385.3,92.3,378.7,91.2,373.1,90.9z M385.5,48.3c-2.2,0-3.8-1.7-3.8-3.5c0-2.5,0.7-3.2,1.4-3.9
	c-2.3,0.1-5,2.1-6.6,4.3c2.5,2.7,4.6,7.3,4.6,11.8c0,9.7-10.1,17.2-19,17.2c-4.9,0-7.3-1.6-8.6-2.2c-5.5-0.2-10.1,1.1-10.3,5.5
	c-0.1,2.9,2.3,4.5,4.9,4.6c9,0.5,17,0.3,25.6,0c7.7-0.3,12.6,4.6,12.8,14.6c0.2,13.1-12.7,22.3-25.9,22.3
	c-10.1,0-21.1-3.8-21.1-14.6c0-6.3,5.6-12,11-13.1V91c-6.1,0-9.1-4.3-8.9-10.5c0.2-6.9,3.5-9.9,10.2-9.6v-0.2
	c-5.1-3.3-8.6-7.1-8.6-13.4c0-10.4,8.8-18.4,19-18.4c5.4,0,10.2,1.7,13.4,5.1c2.1-2.4,4.9-5.1,8.7-5.1c3.3,0,5.8,1.9,5.8,5.4
	C390,47.1,387.8,48.3,385.5,48.3z"/>
<path class="st0" d="M421.4,54.5c0-6.9-0.9-15-9.1-14.7c-7.7,0.2-9.9,7.9-9.9,14.7v2.2c0,0.5,0.1,0.9,0.7,0.9h17
	c1,0,1.4-1.1,1.4-1.5V54.5 M413.6,85.6c-12.9,0-21.9-9.7-21.9-23.9c0-10.4,8.6-23.5,20.6-23.8c17.8-0.5,19.6,15.5,19.6,20
	c0,0.7-0.9,1.3-2.1,1.3h-27c-0.3,0-0.6,0.2-0.6,0.6v7.9c0,7.7,0.9,16.2,11.3,16.2c9.1,0,16.5-5.9,18.5-14.1c0.1-1.1,1.9-1.3,1.7,0
	C431.1,79,423.7,85.6,413.6,85.6z"/>
<path class="st1" d="M465.8,35.8c-2.5,0.9-4.3-0.7-5-2.6c-0.8-2.4,0.2-4,0.9-5.3c-0.2-0.9-0.8-1.6-3.4-1.6c-3.2,0-6.3,1.6-6.3,7.5
	c0,7.8,11.7,7.9,11.7,19.8c0,5.7-6.2,12.2-13.9,12.4c-6.9,0.2-10.5-3.9-11.6-7.3c-1-2.7-0.1-6,2.5-7c2.4-0.9,4.6,0.8,5.3,2.6
	c1.4,4.3-2.7,4.6-1.9,7.1c0.4,1.1,3.7,2.7,6.6,2c2.9-0.7,6.8-1.9,6.8-6.7c0-7.8-10.7-9.7-10.7-19.4c0-5,3.9-13.4,11.9-13.4
	c5.8,0,8.3,1.9,9.8,6.1C469.6,32.7,468.1,34.9,465.8,35.8"/>
</svg>
