<?xml version="1.0" encoding="UTF-8" standalone="no"?>
<!-- Generator: Adobe Illustrator 16.0.0, SVG Export Plug-In . SVG Version: 6.00 Build 0)  -->

<svg
   xmlns:dc="http://purl.org/dc/elements/1.1/"
   xmlns:cc="http://creativecommons.org/ns#"
   xmlns:rdf="http://www.w3.org/1999/02/22-rdf-syntax-ns#"
   xmlns:svg="http://www.w3.org/2000/svg"
   xmlns="http://www.w3.org/2000/svg"
   xmlns:sodipodi="http://sodipodi.sourceforge.net/DTD/sodipodi-0.dtd"
   xmlns:inkscape="http://www.inkscape.org/namespaces/inkscape"
   version="1.2"
   id="Layer_1"
   x="0px"
   y="0px"
   width="605px"
   height="400px"
   viewBox="0 0 605 400"
   xml:space="preserve"
   inkscape:version="0.48.2 r9819"
   sodipodi:docname="Logo_Chérie_25.svg"><metadata
   id="metadata33"><rdf:RDF><cc:Work
       rdf:about=""><dc:format>image/svg+xml</dc:format><dc:type
         rdf:resource="http://purl.org/dc/dcmitype/StillImage" /></cc:Work></rdf:RDF></metadata><defs
   id="defs31">
	
	
	

		
	</defs><sodipodi:namedview
   pagecolor="#ffffff"
   bordercolor="#666666"
   borderopacity="1"
   objecttolerance="10"
   gridtolerance="10"
   guidetolerance="10"
   inkscape:pageopacity="0"
   inkscape:pageshadow="2"
   inkscape:window-width="1366"
   inkscape:window-height="706"
   id="namedview29"
   showgrid="false"
   inkscape:zoom="0.61880859"
   inkscape:cx="302.5"
   inkscape:cy="200"
   inkscape:window-x="-8"
   inkscape:window-y="-8"
   inkscape:window-maximized="1"
   inkscape:current-layer="Layer_1" />


<g
   id="g3078"><path
     sodipodi:nodetypes="cccccc"
     style="fill:#e4212f"
     inkscape:connector-curvature="0"
     id="path23"
     d="M 0.5,0.283 C 4.48,-0.259 8.51,0.042 12.51,10e-4 210.18,-0.029 407.84,0.042 605.5,-0.039 l 0,400.039 -605,0 z" /><g
     style="fill:#ffffff"
     transform="translate(-3.2320217,4.126133e-8)"
     id="g3055"><path
       sodipodi:nodetypes="sssscsssssssssscssssscssssssssscssssccsscsscsssscscssscssscscsssssscssssssscsssssssssssssssssssssssssssscssssssssssscsssccsssssscsssscsccs"
       inkscape:connector-curvature="0"
       id="path3067"
       d="m 60.746198,295.86694 c 80.184722,-34.97891 174.494452,-58.58772 268.869782,-67.30689 36.88375,-3.40763 50.8946,-4.00207 95,-4.03061 46.369,-0.03 64.3248,0.8002 96.9516,4.48263 9.0483,1.02125 16.8108,1.63476 17.25,1.36336 0.4391,-0.27141 0.7984,-1.76066 0.7984,-3.30945 0,-3.26514 1.6842,-2.76047 -23.5,-7.04177 -42.3954,-7.2072 -73.5477,-9.53376 -127,-9.48478 -43.04279,0.0394 -55.01443,0.61288 -94.5,4.52652 -76.30654,7.5632 -174.75948,28.45302 -228.810322,48.54915 -13.7124,5.09828 -15.58218,6.73725 -18.60597,16.30926 -2.79332,8.8424 -4.14747,17.16411 -3.19637,19.64265 0.88313,2.30139 5.1437,1.35984 16.74288,-3.70007 z m 50.369782,-53.91616 c 19.10663,-5.85409 39.60888,-19.29995 60.73331,-39.83033 l 13.76669,-13.37956 0,5.16168 c 0,5.6961 2.07537,11.6743 4.76061,13.71314 2.36657,1.79689 6.87465,1.71345 10.0851,-0.18665 1.45986,-0.86402 6.79478,-7.06979 11.85538,-13.7906 C 223.89181,178.26645 229.56028,171.82662 240.16588,162 l 3.77746,-3.5 -2.08354,3.5 c -10.79515,18.13407 -13.64465,25.66361 -13.01792,34.39865 0.36627,5.10492 0.85264,6.28233 3.61444,8.75 5.53112,4.94205 10.22588,3.85315 33.44222,-7.75663 5.9304,-2.96561 10.98532,-5.39202 11.23315,-5.39202 0.24783,0 1.56769,2.20447 2.93302,4.89882 10.15307,20.03612 34.42852,16.34394 61.41621,-9.3411 6.62844,-6.3085 20.01714,-22.37854 23.9359,-28.72952 1.99139,-3.22737 3.37247,-4.04302 11.41026,-6.73876 5.0296,-1.68683 9.3654,-2.84628 9.6351,-2.57654 0.2698,0.26973 -0.9509,2.49741 -2.7125,4.9504 -4.4357,6.1767 -8.9455,16.13593 -10.35968,22.87817 -2.5973,12.3827 5.11788,24.65853 15.49748,24.65853 4.5944,0 13.0601,-5.38935 22.2176,-14.14402 l 9.2564,-8.84914 0.6219,3.74658 c 0.342,2.06062 1.7612,6.17945 3.1537,9.15295 7.5931,16.21417 20.6304,16.15784 44.3938,-0.19181 3.1119,-2.14104 4.5947,-2.68573 4.8911,-1.79665 0.9301,2.79027 6.8978,8.49642 10.6854,10.21711 16.032,7.28317 39.8986,-5.69051 62.3293,-33.88172 4.899,-6.15714 4.9536,-6.30314 3.8078,-10.18363 -0.6393,-2.16531 -1.4591,-4.23359 -1.8217,-4.59618 -0.3626,-0.36258 -4.1799,2.89564 -8.483,7.2405 -13.5405,13.67197 -26.8123,21.21721 -37.3995,21.26227 -4.7456,0.0202 -5.9366,-0.36574 -8,-2.59238 l -2.4243,-2.61612 2.9217,-2.13388 c 26.7346,-19.52565 41.703,-35.2651 44.0322,-46.3002 1.0294,-4.87751 -1.0407,-11.07405 -4.2406,-12.69335 -16.1279,-8.16145 -45.709,7.41562 -58.9709,31.05337 -4.4165,7.87184 -7.2424,17.33554 -7.2424,24.25394 l 0,5.73697 -8.0261,3.76644 c -12.0832,5.6703 -18.9739,5.03933 -18.9739,-1.73741 0,-1.9265 4.4249,-11.63122 12.0704,-26.47288 6.6387,-12.88727 11.8279,-24.0635 11.5314,-24.83608 C 464.80238,124.32208 462.27568,124 454.19828,124 l -10.4805,0 -2.4082,3.25 c -1.3245,1.7875 -5.475,9.89386 -9.2234,18.01414 -7.2264,15.65466 -10.8012,20.32472 -20.475,26.74773 -6.8419,4.54274 -10.5424,5.51486 -13.5332,3.55518 -5.7254,-3.75144 -1.491,-15.1876 10.3922,-28.06705 7.1619,-7.76229 8.1458,-9.50632 8.1458,-14.43908 0,-3.46261 -0.7696,-5.88293 -2.978,-9.36514 -2.8411,-4.48001 -3.1889,-4.69578 -7.5688,-4.69578 -3.715,0 -17.7391,2.94857 -26.7032,5.61435 -1.3852,0.41194 -1.75,-0.0867 -1.75,-2.39197 0,-3.71571 -3.12088,-6.66531 -6.20971,-5.86891 -3.05474,0.78761 -10.48611,7.00014 -15.08317,12.60934 -5.21627,6.36474 -7.96775,12.59579 -8.49041,19.22755 -0.41198,5.22738 -0.22057,5.90156 2.35257,8.28627 l 2.80104,2.59592 -6.43516,6.55144 c -17.00918,17.31653 -33.86551,25.56611 -42.79936,20.94623 -4.05714,-2.09802 -6.06599,-6.60245 -3.5991,-8.07022 14.54903,-8.65653 32.41251,-22.2875 37.73631,-28.79522 C 351.09225,133.56535 348.46862,119 332.3582,119 c -5.3708,0 -14.65316,2.36071 -21.24222,5.40237 -16.77591,7.74413 -30.89072,26.35707 -34.97231,46.1173 -0.90003,4.35732 -1.73091,8.01688 -1.84641,8.13238 -1.16553,1.16553 -13.69494,6.34656 -15.34949,6.34716 -8.15691,0.003 -7.2757,-3.0669 7.59068,-26.4435 4.21677,-6.63064 8.19879,-13.29143 8.84895,-14.80175 2.37612,-5.51978 -1.18101,-9.31748 -11.05637,-11.80413 -4.14866,-1.04464 -5.10252,-0.91905 -9.98014,1.31399 -6.52962,2.98936 -15.65523,10.47742 -29.98491,24.60425 -5.9125,5.8288 -10.75,10.26247 -10.75,9.8526 0,-0.40987 4.23896,-8.9522 9.4199,-18.98294 41.82587,-80.97841 43.63478,-84.836577 41.98086,-89.539478 -1.58142,-4.496738 -12.9953,-5.527765 -20.16277,-1.821321 -4.56652,2.36144 -7.60212,7.737807 -19.32477,34.226255 -21.7824,49.219424 -33.19328,70.348634 -44.41322,82.238694 -17.89363,18.96235 -49.92831,40.49116 -66.6094,44.76466 -13.07763,3.35033 -22.773202,-1.7374 -26.365942,-13.83546 -4.47616,-15.07287 2.08296,-40.78433 16.006352,-62.74419 23.00238,-36.27916 54.32263,-66.901068 71.1846,-69.597406 9.70092,-1.551239 7.41201,7.24531 -7.85917,30.203796 -8.07415,12.13857 -23.84257,28.63084 -37.66652,39.39562 -8.95204,6.97099 -14.18992,13.65053 -14.18992,18.09549 0,10.04722 10.14323,13.84962 21.29563,7.98311 29.85877,-15.70662 65.58629,-65.3741 65.68959,-91.319988 0.008,-2.041868 -0.88413,-6.115035 -1.98279,-9.051482 C 190.44531,40.545984 152.55482,54.579674 104.98632,103.15577 86.621798,121.90929 75.063978,137.88006 64.572648,159 c -18.15921,36.55606 -14.37941,69.30481 9.34597,80.97487 3.40855,1.67659 8.22236,3.47302 10.69736,3.99205 6.50783,1.36476 18.424442,0.45814 26.500002,-2.01614 z m 189.07664,-81.16801 c 2.50675,-7.10488 6.02196,-12.17796 12.89011,-18.60278 9.5332,-8.91784 15.55023,-9.76382 11.52089,-1.6198 C 321.48449,146.86452 302.6562,165 299.23016,165 c -0.289,0 0.1441,-1.89776 0.96246,-4.21723 z m 193.85636,-9.20111 c 2.9331,-7.79247 7.0227,-14.01856 12.1856,-18.55164 3.5198,-3.09042 9.0525,-6.03002 11.3493,-6.03002 2.2036,0 0.8631,4.82241 -2.654,9.54768 -3.4796,4.67477 -20.1455,20.55621 -22.3463,21.29433 -0.5608,0.18811 0.099,-2.62905 1.4654,-6.26035 z m -181.433,-38.0523 c 10.69922,-3.72411 23.93103,-6.81919 34.23424,-8.00781 3.15383,-0.36384 5.93385,-0.98451 6.17783,-1.37928 0.84608,-1.36898 -2.92461,-16.083386 -4.53389,-17.692665 -1.48996,-1.48996 -2.15987,-1.403527 -8.49783,1.096402 -3.78419,1.49263 -15.09285,6.67223 -25.13035,11.510224 -17.30074,8.338819 -18.24929,8.943229 -18.23635,11.620059 0.008,1.55304 0.29557,3.87662 0.64012,5.1635 0.74267,2.77385 0.73671,2.77474 15.34623,-2.31043 z m 162.7173,-4.4395 c 4.2054,-3.04642 7.7334,-9.129993 8.7509,-15.08986 0.4353,-2.549655 0.05,-4.382463 -1.4206,-6.75 -1.7694,-2.849263 -2.5441,-3.247972 -6.2829,-3.23355 -8.763,0.0338 -17.6851,8.100247 -18.5153,16.73961 -0.4004,4.16723 -0.092,5.27728 2.2319,8.03937 3.6852,4.37963 9.4429,4.4909 15.236,0.29443 z"
       style="fill:#ffffff" /></g><path
     d="m 513.55,253.432 c -11.65,2.262 -23.5,3.046 -35.24,4.583 -2.74,5.529 -4.41,11.53 -7.28,16.998 -2.14,4.956 -5.67,9.107 -7.83,14.042 0.59,0.101 1.77,0.302 2.36,0.402 -0.6,0.061 -1.79,0.171 -2.39,0.231 2.22,6.042 6.62,11.439 12.35,14.404 5.38,-3.658 10.92,-7.066 16.79,-9.9 6.95,-2.564 16.1,-7.027 22.61,-1.197 3.16,4.774 2.02,10.927 -0.48,15.721 -3.99,7.881 -11.83,13.098 -20.01,15.782 -7.88,1.396 -16.49,1.638 -23.94,-1.739 -6.81,-2.744 -12.02,-8.474 -15.82,-14.626 -0.8,-0.101 -1.6,-0.211 -2.39,-0.312 -2.92,4.734 -4.7,9.992 -6.16,15.329 -17.82,-0.754 -35.6,1.368 -52.99,5.217 5.01,-2.222 9.42,-5.528 14.34,-7.931 13.77,-8.132 28.12,-16.013 39.16,-27.844 3.88,-3.98 6.8,-8.886 8.08,-14.334 0.45,-4.503 -0.65,-9.158 -3.33,-12.816 -3.24,-4.805 -8.6,-7.449 -13.85,-9.429 -6.75,-2.191 -13.99,-1.648 -20.95,-1.166 -11.09,2.02 -22.88,6.403 -29.61,15.992 -2.39,3.056 -2.47,7.127 -2.1,10.816 2.18,4.965 5.58,11.861 12.09,10.595 4.62,-9.72 11.43,-19.049 21.52,-23.472 5.11,-2.814 12.16,-3.056 16.34,1.448 1.35,7.388 -5,12.404 -9.81,16.756 -7.28,6.534 -15.87,11.369 -23.48,17.491 -9.75,7.539 -19.99,14.726 -27.85,24.366 -3.57,5.619 -1.62,12.696 1.34,18.124 1.55,2.413 4.29,4.634 7.33,3.991 7.23,-1.91 14.01,-5.177 21.15,-7.368 12.57,-4.554 25.69,-7.368 38.89,-9.358 2.87,-0.07 6.32,-1.257 8.79,0.733 4.38,3.76 9.95,5.669 15.47,6.996 21.29,4.454 45.38,-4.372 57.33,-22.979 5.04,-7.77 6.92,-17.913 3.94,-26.789 -2.63,-8.071 -11.45,-12.233 -19.43,-12.253 -8.16,0.07 -16.03,2.684 -23.73,5.126 2.54,-4.966 5.18,-9.892 7.63,-14.907 12.42,-4.272 25.78,-5.077 38.72,-3.408 2.17,-4.473 5.02,-9.962 2.89,-14.947 -0.6,-0.241 -1.8,-0.714 -2.4,-0.955 -6.12,-0.027 -12.08,1.441 -18.05,2.587 z"
     id="path3076"
     inkscape:connector-curvature="0"
     style="fill:#ffffff"
     sodipodi:nodetypes="ccccccccccccccccccccccccccccccccccccccccccccc" /></g></svg>