<?xml version="1.0" encoding="UTF-8" standalone="no"?>
<!-- Created with Inkscape (http://www.inkscape.org/) -->
<svg
   xmlns:svg="http://www.w3.org/2000/svg"
   xmlns="http://www.w3.org/2000/svg"
   version="1.0"
   width="600.23486"
   height="128.28265"
   id="svg2986">
  <defs
     id="defs2988">
    <clipPath
       id="clipPath2442">
      <path
         d="M 596.998,538.729 L 623.272,538.729 L 623.272,661.617 L 596.998,661.617 L 596.998,538.729 z"
         id="path2444" />
    </clipPath>
    <clipPath
       id="clipPath2480">
      <path
         d="M 596.998,538.729 L 623.272,538.729 L 623.272,661.617 L 596.998,661.617 L 596.998,538.729 z"
         id="path2482" />
    </clipPath>
  </defs>
  <g
     transform="translate(-91.531592,-246.21506)"
     id="layer1">
    <g
       transform="matrix(0.9829486,0,0,0.9829486,6.6781766,5.2920079)"
       id="g3045">
      <g
         transform="matrix(0,4.8824946,4.8824946,0,-2538.575,-2668.6245)"
         clip-path="url(#clipPath2442)"
         id="g2440">
        <path
           d="M 611.96,573.591 L 610.996,573.591 C 612.386,572.565 612.358,570.992 611.993,569.748 C 611.661,568.62 610.712,567.797 609.624,567.35 C 607.134,566.326 603.794,566.934 602.619,569.586 C 602.07,570.824 602.29,572.623 603.423,573.566 C 603.423,573.566 599.487,573.578 599.292,573.568 L 599.292,576.094 L 611.959,576.1 L 611.96,573.591 M 609.475,569.842 C 610.294,570.368 610.552,571.437 610.193,572.161 C 609.182,574.202 605.782,574.024 604.59,572.571 C 603.753,571.551 604.448,569.898 606.123,569.395 C 607.077,569.108 608.483,569.206 609.475,569.842"
           id="path2446"
           style="fill:#344a98;fill-opacity:1;fill-rule:nonzero;stroke:none" />
        <path
           d="M 609.993,544.32 C 610.398,546.032 609.457,547.445 608.04,547.766 L 608.04,550.341 C 609.83,550.044 611.185,548.902 611.815,547.328 C 612.847,544.747 612.157,541.739 609.728,540.027 C 607.545,538.49 604.836,538.406 602.417,539.313 C 599.322,540.474 597.644,544.035 598.862,547.126 C 599.502,548.749 600.757,549.756 602.794,550.341 C 602.794,550.346 602.792,547.746 602.792,547.746 C 601.561,547.346 600.556,546.366 600.597,544.921 C 600.623,543.987 600.985,543.109 602.009,542.333 C 604.482,540.456 609.19,540.916 609.993,544.32"
           id="path2448"
           style="fill:#344a98;fill-opacity:1;fill-rule:nonzero;stroke:none" />
      </g>
      <path
         d="M 165.67763,273.71327 L 166.13659,278.68853 C 169.11003,274.07945 175.51098,272.3364 179.98334,273.04925 L 179.97846,282.84353 C 175.83811,282.28204 166.70784,284.31804 166.36118,293.56061 L 166.35142,308.36433 L 166.37095,319.34994 L 154.24283,319.34994 L 154.23307,273.71815 L 165.67763,273.71327"
         id="path2450"
         style="fill:#344a98;fill-opacity:1;fill-rule:nonzero;stroke:none" />
      <path
         d="M 313.15338,319.306 C 309.65264,319.306 303.3591,318.33438 303.3591,304.58528 L 303.33957,281.9598 L 297.2218,281.9598 L 297.21204,273.61562 L 303.33469,273.6205 L 303.33469,258.6703 L 315.89246,258.6703 L 315.87782,273.6205 L 323.79234,273.61562 L 323.79234,282.01351 L 315.78017,282.00862 L 315.79481,304.38998 C 315.79481,310.71281 318.29953,310.56634 324.73466,310.47845 L 324.72978,319.32553 L 313.15338,319.306"
         id="path2452"
         style="fill:#344a98;fill-opacity:1;fill-rule:nonzero;stroke:none" />
      <path
         d="M 531.29348,315.51718 C 531.22512,315.49277 530.10703,316.63528 529.65784,316.96729 C 519.99539,324.16408 507.89168,320.38503 504.96219,311.20594 C 504.13704,308.62798 503.29725,304.45833 503.47791,300.38633 L 503.45838,273.65468 L 515.50837,273.65468 L 515.50349,299.36101 C 515.50349,309.27247 520.37134,310.91787 524.42381,309.98044 C 527.45584,309.27736 531.30324,308.17391 531.30324,300.88435 L 531.31301,273.64491 L 543.32395,273.65468 L 543.32395,319.32553 L 531.63037,319.30112 C 531.55225,319.28647 531.34719,315.54648 531.29348,315.51718"
         id="path2454"
         style="fill:#344a98;fill-opacity:1;fill-rule:nonzero;stroke:none" />
      <path
         d="M 406.76545,278.22957 C 407.05352,279.42578 407.23906,280.65617 407.23906,281.94027 C 407.23906,289.63996 401.79507,296.00674 394.55433,297.54472 C 390.51651,289.28842 383.34901,286.31987 377.17754,286.32475 C 377.13848,286.20757 377.1043,286.10015 377.06036,285.97809 C 376.15221,283.4929 374.90229,279.9238 376.83088,274.9583 C 379.43325,269.61685 384.86258,265.90127 391.20494,265.90127 C 395.34042,265.90127 399.08529,267.5125 401.9269,270.09045 L 387.72861,246.21506 L 365.97709,246.21506 L 351.59326,270.1344 C 354.43976,267.53203 358.20416,265.90127 362.37381,265.90127 C 367.62249,265.90127 372.2218,268.46947 375.13665,272.38034 C 371.85073,279.1133 373.59867,284.10321 374.60934,286.87159 C 374.7607,287.30125 374.90229,287.66744 374.99994,287.98968 L 375.14154,288.46328 C 372.29504,294.72264 365.74762,297.99391 360.00092,297.71073 C 359.91304,297.69608 359.82027,297.69608 359.73238,297.68143 C 359.41014,297.65702 359.10254,297.58378 358.78518,297.53496 C 351.65674,295.90909 346.32993,289.56184 346.32993,281.94027 C 346.32993,280.54876 346.56429,279.2256 346.8963,277.94151 L 333.12767,300.82576 L 344.35741,319.34018 L 372.31457,319.34018 C 365.74273,317.33347 360.92859,311.29871 360.92859,304.06773 C 360.92859,302.74458 361.14342,301.47513 361.45102,300.23986 C 367.9545,299.93226 374.88765,296.0165 377.79761,288.90271 C 381.27395,289.0443 387.81161,290.39675 391.82014,297.91091 C 391.80549,297.91579 391.79084,297.92067 391.77131,297.92067 C 392.56228,299.81508 393.00658,301.89014 393.00658,304.06773 C 393.00658,311.29871 388.19244,317.33347 381.62061,319.34018 L 408.97722,319.34018 L 420.20696,300.82576 L 406.76545,278.22957"
         id="path2456"
         style="fill:#de0029;fill-opacity:1;fill-rule:nonzero;stroke:none" />
      <path
         d="M 281.44646,273.65468 L 281.44646,319.26694 L 293.44275,319.26694 L 293.44275,273.65468 L 281.44646,273.65468 z"
         id="path2458"
         style="fill:#344a98;fill-opacity:1;fill-rule:nonzero;stroke:none" />
      <path
         d="M 281.55388,257.37156 L 281.55388,267.9031 L 293.19863,267.9031 L 293.19863,257.37156 L 281.55388,257.37156 z"
         id="path2460"
         style="fill:#344a98;fill-opacity:1;fill-rule:nonzero;stroke:none" />
      <path
         d="M 675.89344,257.03466 L 675.89344,319.3353 L 687.86532,319.3353 L 687.86532,257.03466 L 675.89344,257.03466 z"
         id="path2462"
         style="fill:#344a98;fill-opacity:1;fill-rule:nonzero;stroke:none" />
      <path
         d="M 206.94448,267.99098 L 215.04454,256.54641 L 201.36867,256.54641 L 197.38455,267.99098 L 206.94448,267.99098"
         id="path2464"
         style="fill:#344a98;fill-opacity:1;fill-rule:nonzero;stroke:none" />
      <path
         d="M 637.08249,299.80532 C 637.08249,312.46563 655.31861,313.15894 657.44249,305.31765 L 669.5462,305.29324 C 668.51599,311.33289 664.40005,315.31212 659.50779,318.2172 C 653.55114,321.75213 644.39647,321.18088 638.07852,318.2172 C 631.6971,315.22424 627.21497,309.80467 625.3108,302.75434 C 622.29341,291.56367 626.74625,280.88077 636.99461,274.92901 C 643.81057,270.97419 650.25058,272.15087 654.1224,273.34708 C 663.51143,276.2424 671.31366,286.33451 670.05398,299.80043 L 637.08249,299.80532 z M 642.92684,290.91918 L 658.16022,290.91918 C 658.14557,290.89965 658.06745,287.5112 656.07051,285.41661 C 654.30305,283.56614 653.25331,282.89236 651.17337,282.34552 C 643.90822,280.4267 638.87925,284.37175 637.39497,288.89294 C 637.1069,289.76691 636.74072,290.94359 636.78466,290.93871 L 642.92684,290.91918"
         id="path2466"
         style="fill:#344a98;fill-opacity:1;fill-rule:nonzero;stroke:none" />
      <path
         d="M 563.55212,319.306 C 560.04649,319.306 553.75784,318.33438 553.75784,304.58528 L 553.73831,281.9598 L 547.61566,281.9598 L 547.61566,273.61562 L 553.73342,273.6205 L 553.73342,258.6703 L 566.2912,258.6703 L 566.27655,273.6205 L 574.18619,273.61562 L 574.18619,282.01351 L 566.1789,282.00862 L 566.19355,304.38998 C 566.19355,310.71281 568.69339,310.56634 575.1334,310.47845 L 575.12363,319.32553 L 563.55212,319.306"
         id="path2468"
         style="fill:#344a98;fill-opacity:1;fill-rule:nonzero;stroke:none" />
      <path
         d="M 469.5348,319.223 L 482.55154,273.65468 L 482.55154,319.26206 L 494.54782,319.26206 L 494.54782,257.31297 L 475.89181,257.31297 L 463.52445,300.96247 L 451.15709,257.31297 L 432.50108,257.31297 L 432.50108,319.26206 L 444.50225,319.26206 L 444.50225,273.65468 L 457.51899,319.223 L 469.5348,319.223"
         id="path2470"
         style="fill:#344a98;fill-opacity:1;fill-rule:nonzero;stroke:none" />
      <path
         d="M 606.81102,315.51718 C 606.74267,315.49277 605.62458,316.63528 605.17539,316.96729 C 595.51293,324.16408 583.39946,320.38503 580.47973,311.20594 C 579.64971,308.62798 578.80992,304.45833 578.99545,300.38633 L 578.97104,273.65468 L 591.0308,273.65468 L 591.02104,299.36101 C 591.02104,309.27247 595.884,310.91787 599.93647,309.98044 C 602.97338,309.27736 606.82079,308.17391 606.82079,300.88435 L 606.82567,273.64491 L 618.83661,273.65468 L 618.83661,319.32553 L 607.14303,319.30112 C 607.0698,319.28647 606.86473,315.54648 606.81102,315.51718"
         id="path2472"
         style="fill:#344a98;fill-opacity:1;fill-rule:nonzero;stroke:none" />
      <path
         d="M 192.06263,299.80532 C 192.06263,312.46563 210.29875,313.15894 212.42752,305.31765 L 224.52634,305.29324 C 223.50102,311.33289 219.38019,315.31212 214.48793,318.2172 C 208.53617,321.75213 199.38149,321.18088 193.05378,318.2172 C 186.67724,315.22424 182.2,309.80467 180.29582,302.75434 C 177.27356,291.56367 181.72639,280.88077 191.97475,274.92901 C 198.79559,270.97419 205.23561,272.15087 209.10254,273.34708 C 218.4867,276.2424 226.2938,286.33451 225.03412,299.80043 L 192.06263,299.80532 z M 197.9021,291.26095 L 213.14036,291.26095 C 213.12572,291.2463 213.05248,287.85297 211.05554,285.75838 C 209.28319,283.90791 208.23834,283.23901 206.1584,282.68729 C 198.89324,280.77335 193.85939,284.71353 192.37511,289.23472 C 192.08705,290.11357 191.72086,291.29025 191.76968,291.28048 L 197.9021,291.26095"
         id="path2474"
         style="fill:#344a98;fill-opacity:1;fill-rule:nonzero;stroke:none" />
      <g
         transform="matrix(0,4.8824946,4.8824946,0,-2538.575,-2668.6245)"
         clip-path="url(#clipPath2480)"
         id="g2478">
        <path
           d="M 615.123,661.617 L 615.123,541.822 L 614.314,542.374 L 614.314,661.419 L 615.123,661.617"
           id="path2484"
           style="fill:#de0029;fill-opacity:1;fill-rule:nonzero;stroke:none" />
        <path
           d="M 621.216,553.022 C 622.207,552.792 623.01,551.802 623.01,550.811 L 623.01,540.107 C 623.01,539.116 622.207,538.499 621.216,538.729 L 616.106,539.666 C 615.114,539.896 614.311,540.886 614.311,541.877 L 614.311,552.58 C 614.311,553.572 615.114,554.188 616.106,553.958 L 621.216,553.022"
           id="path2486"
           style="fill:#de0029;fill-opacity:1;fill-rule:nonzero;stroke:none" />
      </g>
      <path
         d="M 175.25709,366.94938 C 175.68675,365.76294 176.11641,364.14683 176.55095,362.27684 L 181.51156,339.99313 L 187.87345,339.99313 L 185.53474,350.48561 L 185.60798,350.48561 C 187.22408,348.76209 189.20149,347.79047 191.64762,347.79047 C 196.24693,347.79047 198.61982,351.31564 198.61982,355.51946 C 198.61982,361.66652 195.52921,367.38393 188.77183,367.38393 C 185.5738,367.38393 183.41574,366.08518 182.26347,363.4291 L 182.19511,363.4291 L 181.25767,366.94938 L 175.25709,366.94938 z M 187.04831,362.42331 C 190.09987,362.42331 191.93569,359.50846 191.93569,356.59849 C 191.93569,354.29884 190.89084,352.75109 188.84507,352.75109 C 185.78863,352.75109 183.95281,356.12978 183.95281,358.61008 C 183.95281,360.51426 184.89025,362.42331 187.04831,362.42331"
         id="path2488"
         style="fill:#344a98;fill-opacity:1;fill-rule:nonzero;stroke:none" />
      <path
         d="M 220.86935,364.32748 L 220.79612,364.25425 L 220.79612,364.32748 C 219.4339,366.48066 217.02195,367.38393 214.50746,367.38393 C 210.48429,367.38393 208.25299,365.58228 208.25299,361.95459 C 208.25299,357.3504 212.85718,355.0898 218.5697,355.0898 C 219.86356,355.0898 221.15742,355.19722 222.0558,355.27046 C 222.12904,355.01657 222.12904,354.76268 222.12904,354.51367 C 222.12904,353.18563 220.79612,352.1066 218.67711,352.1066 C 216.34328,352.1066 214.76135,352.46302 212.60329,353.57623 L 213.24778,348.86951 C 215.15683,348.22502 217.2026,347.79047 220.11745,347.79047 C 224.57517,347.79047 228.24192,349.55305 228.24192,354.15236 C 228.24192,357.10139 226.58675,361.30522 225.86903,366.94938 L 220.58129,366.94938 L 220.86935,364.32748 z M 216.55811,363.0678 C 219.32648,363.0678 220.97677,361.16363 221.44549,358.64426 C 220.90841,358.53685 220.11745,358.53685 219.72197,358.53685 C 216.62647,358.42943 214.36587,359.54752 214.36587,361.1978 C 214.36587,362.06201 215.19101,363.0678 216.55811,363.0678"
         id="path2490"
         style="fill:#344a98;fill-opacity:1;fill-rule:nonzero;stroke:none" />
      <path
         d="M 240.71181,353.11239 C 241.03406,351.49141 241.32212,349.91436 241.50278,348.22502 L 247.50824,348.22502 L 247.00046,351.27658 L 247.0737,351.27658 C 248.9437,349.19175 250.88693,347.79047 254.29979,347.79047 C 258.07396,347.79047 260.12461,350.59303 260.12461,354.25978 C 260.12461,355.51946 260.01719,356.23719 259.62171,358.2146 L 257.89331,366.94938 L 251.20917,366.94938 L 253.00593,358.18042 C 253.18658,357.24298 253.43559,356.31043 253.43559,355.33881 C 253.43559,354.2256 252.71787,353.11239 250.92111,353.18563 C 248.18691,353.18563 246.5708,355.55364 246.10209,358.32202 L 244.27115,366.94938 L 237.80184,366.94938 L 240.71181,353.11239"
         id="path2492"
         style="fill:#344a98;fill-opacity:1;fill-rule:nonzero;stroke:none" />
      <path
         d="M 283.668,364.72297 L 283.59476,364.72297 C 281.97866,366.41231 280.00125,367.38393 277.55512,367.38393 C 273.53194,367.38393 270.58291,363.85876 270.58291,359.65494 C 270.58291,353.50788 273.67353,347.79047 280.07448,347.79047 C 283.62894,347.79047 285.71865,349.23081 286.86603,352.17495 L 286.93927,352.17495 L 287.94506,348.22502 L 293.94565,348.22502 C 293.58923,349.19175 293.15469,350.66626 292.79826,352.39467 L 288.15989,374.49772 L 281.61735,374.49772 L 283.668,364.72297 z M 285.24993,356.55943 C 285.24993,354.69432 284.31249,352.75109 282.15931,352.75109 C 279.10287,352.75109 277.26705,355.66106 277.26705,358.57591 C 277.26705,360.87556 278.3119,362.42331 280.36255,362.42331 C 283.41411,362.42331 285.24993,359.03974 285.24993,356.55943"
         id="path2494"
         style="fill:#344a98;fill-opacity:1;fill-rule:nonzero;stroke:none" />
      <path
         d="M 322.12741,362.06201 C 321.80516,363.67811 321.5171,365.26004 321.33644,366.94938 L 315.33586,366.94938 L 315.83876,363.89294 L 315.76552,363.89294 C 313.89552,365.97777 311.95717,367.38393 308.53943,367.38393 C 304.76526,367.38393 302.71949,364.57649 302.71949,360.90974 C 302.71949,359.65494 302.82691,358.93233 303.22239,356.95492 L 304.94591,348.22502 L 311.63005,348.22502 L 309.83329,356.99398 C 309.65264,357.92653 309.40363,358.86397 309.40363,359.83071 C 309.40363,360.9488 310.12135,362.06201 311.91811,361.98877 C 314.65231,361.98877 316.26842,359.61588 316.73714,356.8475 L 318.56807,348.22502 L 325.04226,348.22502 L 322.12741,362.06201"
         id="path2496"
         style="fill:#344a98;fill-opacity:1;fill-rule:nonzero;stroke:none" />
      <path
         d="M 350.524,366.33907 C 348.25852,367.02262 345.85145,367.38393 343.98146,367.38393 C 337.72698,367.38393 334.34829,363.53652 334.34829,358.82491 C 334.34829,354.47949 337.22408,347.79047 345.56338,347.79047 C 350.48982,347.79047 354.19075,350.27078 354.19075,355.95401 C 354.19075,356.70591 353.97592,358.36108 353.72203,359.47428 L 340.46118,359.47428 C 340.53441,361.48587 341.54021,363.0678 345.49503,363.0678 C 347.21855,363.0678 349.55238,362.63814 351.34914,361.77394 L 350.524,366.33907 z M 348.80048,355.80753 C 348.80048,353.79106 348.00951,352.1066 345.63662,352.1066 C 342.83407,352.1066 341.3205,354.01077 340.85666,355.80753 L 348.80048,355.80753"
         id="path2498"
         style="fill:#344a98;fill-opacity:1;fill-rule:nonzero;stroke:none" />
      <path
         d="M 395.16953,364.32748 L 395.09629,364.25425 L 395.09629,364.32748 C 393.72919,366.48066 391.32212,367.38393 388.80764,367.38393 C 384.77958,367.38393 382.55316,365.58228 382.55316,361.95459 C 382.55316,357.3504 387.15247,355.0898 392.86987,355.0898 C 394.16373,355.0898 395.4576,355.19722 396.35597,355.27046 C 396.42433,355.01657 396.42433,354.76268 396.42433,354.51367 C 396.42433,353.18563 395.09629,352.1066 392.97729,352.1066 C 390.63857,352.1066 389.05665,352.46302 386.90347,353.57623 L 387.54795,348.86951 C 389.45213,348.22502 391.50278,347.79047 394.41762,347.79047 C 398.87046,347.79047 402.53721,349.55305 402.53721,354.15236 C 402.53721,357.10139 400.88205,361.30522 400.16432,366.94938 L 394.88146,366.94938 L 395.16953,364.32748 z M 390.8534,363.0678 C 393.62178,363.0678 395.27694,361.16363 395.74566,358.64426 C 395.20859,358.53685 394.41762,358.53685 394.01726,358.53685 C 390.92664,358.42943 388.66116,359.54752 388.66116,361.1978 C 388.66116,362.06201 389.49119,363.0678 390.8534,363.0678 z M 389.37889,341.536 L 389.37889,340.74503 L 396.10209,340.74503 L 399.55401,345.49082 L 399.55401,345.92048 L 395.316,345.92048 L 389.37889,341.536"
         id="path2500"
         style="fill:#344a98;fill-opacity:1;fill-rule:nonzero;stroke:none" />
      <path
         d="M 444.98562,364.72297 L 444.91727,364.72297 C 443.30116,366.41231 441.32375,367.38393 438.87762,367.38393 C 434.84956,367.38393 431.90542,363.85876 431.90542,359.65494 C 431.90542,353.50788 434.99604,347.79047 441.39699,347.79047 C 444.95144,347.79047 447.04115,349.23081 448.18854,352.17495 L 448.26178,352.17495 L 449.26757,348.22502 L 455.26816,348.22502 C 454.90685,349.19175 454.47719,350.66626 454.12077,352.39467 L 449.4824,374.49772 L 442.93986,374.49772 L 444.98562,364.72297 z M 446.57243,356.55943 C 446.57243,354.69432 445.63499,352.75109 443.47693,352.75109 C 440.42537,352.75109 438.58955,355.66106 438.58955,358.57591 C 438.58955,360.87556 439.63441,362.42331 441.68017,362.42331 C 444.73661,362.42331 446.57243,359.03974 446.57243,356.55943"
         id="path2502"
         style="fill:#344a98;fill-opacity:1;fill-rule:nonzero;stroke:none" />
      <path
         d="M 483.44991,362.06201 C 483.12767,363.67811 482.8396,365.26004 482.65895,366.94938 L 476.65836,366.94938 L 477.16126,363.89294 L 477.08802,363.89294 C 475.21803,365.97777 473.2748,367.38393 469.86193,367.38393 C 466.09265,367.38393 464.03712,364.57649 464.03712,360.90974 C 464.03712,359.65494 464.14453,358.93233 464.54489,356.95492 L 466.26842,348.22502 L 472.95255,348.22502 L 471.16068,356.99398 C 470.97514,357.92653 470.72613,358.86397 470.72613,359.83071 C 470.72613,360.9488 471.44386,362.06201 473.24062,361.98877 C 475.97481,361.98877 477.59092,359.61588 478.05964,356.8475 L 479.89058,348.22502 L 486.36476,348.22502 L 483.44991,362.06201"
         id="path2504"
         style="fill:#344a98;fill-opacity:1;fill-rule:nonzero;stroke:none" />
      <path
         d="M 499.33755,348.22502 L 505.88009,348.22502 L 501.99851,366.94938 L 495.45597,366.94938 L 499.33755,348.22502 z M 500.99272,340.42279 L 507.53526,340.42279 L 506.52458,345.16857 L 499.98692,345.16857 L 500.99272,340.42279"
         id="path2506"
         style="fill:#344a98;fill-opacity:1;fill-rule:nonzero;stroke:none" />
      <path
         d="M 536.54216,351.02269 C 536.79605,349.91436 536.86441,348.97692 536.93764,348.22502 L 542.86499,348.22502 L 542.36698,351.20822 L 542.43533,351.20822 C 544.41274,348.79627 546.81981,347.79047 549.15853,347.79047 C 553.75784,347.79047 556.13073,351.31564 556.13073,355.51946 C 556.13073,361.66652 553.04011,367.38393 546.28274,367.38393 C 543.44113,367.38393 541.61019,366.15842 540.24309,363.82459 L 537.8702,374.49772 L 531.32766,374.49772 L 536.54216,351.02269 z M 544.55922,362.42331 C 547.61078,362.42331 549.44659,359.50846 549.44659,356.59849 C 549.44659,354.29884 548.40174,352.75109 546.35597,352.75109 C 543.29953,352.75109 541.46372,356.12978 541.46372,358.61008 C 541.46372,360.51426 542.40115,362.42331 544.55922,362.42331"
         id="path2508"
         style="fill:#344a98;fill-opacity:1;fill-rule:nonzero;stroke:none" />
      <path
         d="M 578.38026,364.32748 L 578.30702,364.25425 L 578.30702,364.32748 C 576.9448,366.48066 574.53773,367.38393 572.01837,367.38393 C 567.99031,367.38393 565.76389,365.58228 565.76389,361.95459 C 565.76389,357.3504 570.36808,355.0898 576.0806,355.0898 C 577.37446,355.0898 578.66832,355.19722 579.5667,355.27046 C 579.63994,355.01657 579.63994,354.76268 579.63994,354.51367 C 579.63994,353.18563 578.30702,352.1066 576.1929,352.1066 C 573.85418,352.1066 572.26737,352.46302 570.11419,353.57623 L 570.75868,348.86951 C 572.66774,348.22502 574.7135,347.79047 577.62835,347.79047 C 582.08607,347.79047 585.75282,349.55305 585.75282,354.15236 C 585.75282,357.10139 584.09766,361.30522 583.37505,366.94938 L 578.09219,366.94938 L 578.38026,364.32748 z M 574.06901,363.0678 C 576.83739,363.0678 578.49255,361.16363 578.95639,358.64426 C 578.41932,358.53685 577.62835,358.53685 577.23287,358.53685 C 574.13737,358.42943 571.87677,359.54752 571.87677,361.1978 C 571.87677,362.06201 572.70192,363.0678 574.06901,363.0678"
         id="path2510"
         style="fill:#344a98;fill-opacity:1;fill-rule:nonzero;stroke:none" />
      <path
         d="M 605.01915,348.22502 L 604.29654,352.06754 L 604.36978,352.06754 C 605.40975,349.8753 607.49457,347.79047 610.15553,347.79047 C 611.01973,347.79047 612.02553,347.89789 612.88973,348.25919 L 611.41522,353.97171 C 610.59007,353.32722 609.65264,353.18563 608.43201,353.18563 C 605.7027,353.18563 604.08171,355.55364 603.61787,358.32202 L 601.78205,366.94938 L 595.31275,366.94938 L 598.22272,353.11239 C 598.54984,351.49141 598.83303,349.91436 599.01368,348.22502 L 605.01915,348.22502"
         id="path2512"
         style="fill:#344a98;fill-opacity:1;fill-rule:nonzero;stroke:none" />
      <path
         d="M 625.46704,339.99313 L 632.01446,339.99313 L 626.40447,366.94938 L 619.86193,366.94938 L 625.46704,339.99313"
         id="path2514"
         style="fill:#344a98;fill-opacity:1;fill-rule:nonzero;stroke:none" />
      <path
         d="M 656.1291,366.33907 C 653.86362,367.02262 651.45655,367.38393 649.58656,367.38393 C 643.33697,367.38393 639.9534,363.53652 639.9534,358.82491 C 639.9534,354.47949 642.82919,347.79047 651.16849,347.79047 C 656.09492,347.79047 659.79586,350.27078 659.79586,355.95401 C 659.79586,356.70591 659.58103,358.36108 659.32714,359.47428 L 646.06628,359.47428 C 646.13952,361.48587 647.14531,363.0678 651.09525,363.0678 C 652.82365,363.0678 655.15749,362.63814 656.95913,361.77394 L 656.1291,366.33907 z M 654.40558,355.80753 C 654.40558,353.79106 653.61462,352.1066 651.24172,352.1066 C 648.43917,352.1066 646.93048,354.01077 646.46176,355.80753 L 654.40558,355.80753"
         id="path2516"
         style="fill:#344a98;fill-opacity:1;fill-rule:nonzero;stroke:none" />
      <path
         d="M 678.63252,348.22502 L 677.91479,352.06754 L 677.98803,352.06754 C 679.028,349.8753 681.11283,347.79047 683.77379,347.79047 C 684.63799,347.79047 685.6389,347.89789 686.5031,348.25919 L 685.03347,353.97171 C 684.20345,353.32722 683.27089,353.18563 682.04538,353.18563 C 679.31607,353.18563 677.69996,355.55364 677.23124,358.32202 L 675.39543,366.94938 L 668.92612,366.94938 L 671.84097,353.11239 C 672.16321,351.49141 672.45128,349.91436 672.63193,348.22502 L 678.63252,348.22502"
         id="path2518"
         style="fill:#344a98;fill-opacity:1;fill-rule:nonzero;stroke:none" />
      <path
         d="M 109.22135,341.60435 L 116.42791,341.60435 L 112.90275,358.19507 L 126.07084,358.19507 L 125.00157,363.21916 L 104.62692,363.21916 L 109.22135,341.60435"
         id="path2520"
         style="fill:#ffffff;fill-opacity:1;fill-rule:nonzero;stroke:none" />
      <path
         d="M 138.58467,341.60435 L 147.39269,341.60435 L 152.09453,363.21916 L 144.37531,363.21916 L 143.81871,359.70864 L 134.37596,359.70864 L 132.32531,363.21916 L 124.60609,363.21916 L 138.58467,341.60435 z M 141.81688,347.05322 L 141.75341,347.05322 L 137.02227,355.22651 L 143.07657,355.22651 L 141.81688,347.05322"
         id="path2522"
         style="fill:#ffffff;fill-opacity:1;fill-rule:nonzero;stroke:none" />
    </g>
  </g>
</svg>
