<?xml version="1.0" encoding="utf-8"?>
<!-- Generator: Adobe Illustrator 22.0.1, SVG Export Plug-In . SVG Version: 6.00 Build 0)  -->
<svg version="1.1" id="Calque_1" xmlns="http://www.w3.org/2000/svg" xmlns:xlink="http://www.w3.org/1999/xlink" x="0px" y="0px"
	 viewBox="0 0 968.1 274.1" style="enable-background:new 0 0 968.1 274.1;" xml:space="preserve">
<style type="text/css">
	.st0{fill:url(#FOND_1_);}
	.st1{opacity:0.2;fill:url(#OMBRE_PORTEE_1_);enable-background:new    ;}
	.st2{fill:url(#EXTRUSION_1_);}
	.st3{fill:url(#VOLUME_EXTRUSION_1_);}
	.st4{fill:url(#NOIR_1_);}
	.st5{opacity:0.5;fill:url(#REFLET_2_1_);enable-background:new    ;}
	.st6{opacity:0.5;fill:url(#REFLET_1_1_);enable-background:new    ;}
	.st7{opacity:0.8;fill:url(#SVGID_1_);enable-background:new    ;}
</style>
<title>Sans titre - 1</title>
<linearGradient id="FOND_1_" gradientUnits="userSpaceOnUse" x1="505.1968" y1="91.5156" x2="505.1968" y2="-151.6909" gradientTransform="matrix(1 0 0 -1 0 108.2)">
	<stop  offset="0" style="stop-color:#EDEDED"/>
	<stop  offset="1" style="stop-color:#C9C9C9"/>
</linearGradient>
<path id="FOND" class="st0" d="M216.3,65.1l-6.4,35.8c0,0.9-0.9,1.8-0.9,1.8s0,0-3.7-1.8c-13.8-9.2-30.3-13.8-46.8-13.8
	c-22,0-42.2,14.7-48.6,36.7c-6.4,18.3-0.9,39.4,13.8,53.2c11,8.3,24.8,11.9,38.5,11c10.1-0.9,19.3-3.7,28.4-7.3l0,0h1.8
	c3.7-1.8,3.7-1.8,3.7-1.8s0.9,0.9,0,2.8l-7.3,38.5c0,0.9-0.9,2.8-0.9,3.7c-0.9,0.9-1.8,0.9-2.8,0.9c-15.6,5.5-32.1,8.3-48.6,6.4
	c-36.7-1.8-66.9-27.5-76.1-63.3c-8.3-32.1-1.8-66,18.3-91.7c15.6-17.4,36.7-29.3,59.6-33c19.3-2.8,39.4-0.9,58.7,5.5
	c5.5,1.8,11.9,4.6,16.5,8.3c3.7,2.8,3.7,3.7,3.7,3.7S217.3,61.4,216.3,65.1z M953.4,260.3H274.1V13.8h679.3V260.3z"/>
<linearGradient id="OMBRE_PORTEE_1_" gradientUnits="userSpaceOnUse" x1="491.3339" y1="73.8404" x2="480.7916" y2="-106.8457" gradientTransform="matrix(1 0 0 -1 0 108.2)">
	<stop  offset="0" style="stop-color:#5F5F5F"/>
	<stop  offset="1" style="stop-color:#252525"/>
</linearGradient>
<path id="OMBRE_PORTEE" class="st1" d="M689.4,195.3h-3.7l11,30.3l6.4,0.9l-2.8-0.9L689.4,195.3z M629.8,48.6L562,225.5l4.6,0.9
	l-0.9-0.9l67.8-176l1.8-0.9L629.8,48.6z M485.9,226.4h3.7V88h-3.7V226.4z M385.9,82.5h-1.8c7.3,0,14.7,2.8,21.1,7.3
	c1.8,0.9,3.7,2.8,6.4,4.6l0.9,0.9h3.7l-6.4-4.6C401.5,85.3,394.2,82.5,385.9,82.5z M657.3,111.8l15.6,47.7h3.7l-17.4-53.2
	L657.3,111.8z M451.9,47.7h-3.7v39.4V88h3.7v-0.9V47.7z M363.9,154c-20.2-5.5-27.5-9.2-33.9-14.7c-10.1-9.2-15.6-22-13.8-35.8
	c-1.8-31.2,22.9-58.7,54.1-60.5c1.8,0,2.8,0,4.6,0h-1.8c-32.1-1.8-58.7,22-60.5,54.1c0,1.8,0,4.6,0,6.4
	c-0.9,13.8,4.6,26.6,13.8,35.8c6.4,5.5,13.8,8.3,33.9,14.7c22,6.4,27.5,11,27.5,20.2c0,6.4-3.7,11.9-8.3,13.8
	c-3.7,1.8-7.3,2.8-11,2.8h1.8c4.6,0,8.3-0.9,12.8-2.8c5.5-2.8,9.2-8.3,9.2-13.8C392.4,165,385.9,160.4,363.9,154z M327.3,176
	l2.8-2.8h-5.5l0.9,0.9L327.3,176z M847.1,106.3c0,6.4-3.7,12.8-9.2,17.4c-4.6,2.8-10.1,4.6-15.6,4.6h3.7c5.5,0,11-1.8,15.6-4.6
	c5.5-3.7,9.2-10.1,9.2-17.4c0-6.4-3.7-12.8-9.2-17.4c-5.5-3.7-12.8-5.5-19.3-4.6h-3.7c6.4-0.9,13.8,0.9,19.3,4.6
	C843.4,93.5,846.1,99.9,847.1,106.3L847.1,106.3z M327.3,176l-2.8-1.8l-19.3,36.7c18.3,12.8,39.4,19.3,61.4,20.2h1.8
	c-21.1-0.9-42.2-7.3-59.6-20.2L327.3,176z M145.8,231.9L145.8,231.9c10.1,0,20.2-0.9,29.3-3.7C165,231,154.9,231.9,145.8,231.9z
	 M156.8,187.9c-11.9,0-22.9-3.7-33-11c-14.7-13.8-20.2-33.9-13.8-53.2c6.4-22,25.7-36.7,48.6-36.7h0.9c-2.8,0-4.6,0-4.6,0
	c-22,0-42.2,14.7-48.6,36.7c-6.4,18.3-0.9,39.4,13.8,53.2C130.2,184.3,143,188.8,156.8,187.9L156.8,187.9z M196.2,179.7
	C196.2,178.8,196.2,178.8,196.2,179.7C196.2,178.8,196.2,178.8,196.2,179.7L196.2,179.7z M817.7,164.1v6.4l35.8,55l8.3,0.9l-4.6-0.9
	L817.7,164.1z M212.7,57.8c-5.5-3.7-11-6.4-16.5-8.3l-2.8-0.9c-11.9-3.7-23.8-4.6-35.8-4.6c11,0,21.1,1.8,32.1,4.6l2.8,0.9
	c5.5,1.8,11.9,4.6,16.5,8.3c3.7,2.8,3.7,3.7,3.7,3.7s0,0-0.9,4.6l-6.4,34.8l1.8,0.9c0.9,0,0.9,0.9,1.8,0.9c0.9-0.9,0.9-0.9,0.9-1.8
	l6.4-34.8c0.9-3.7,0.9-4.6,0.9-4.6S217.3,59.6,212.7,57.8L212.7,57.8z M771,48.6l-7.3,0.9v176l7.3,0.9l-3.7-0.9v-176L771,48.6z
	 M195.3,179.7h-0.9l-1.8,0.9v0.9l-7.3,38.5c0,0.9-0.9,2.8-0.9,3.7c-0.9,0.9-1.8,0.9-2.8,0.9l-5.5,1.8c-8.3,1.8-17.4,3.7-26.6,3.7
	c4.6,0,10.1,0,14.7-0.9l6.4-0.9l-6.4,0.9c5.5-0.9,10.1-1.8,15.6-2.8l5.5-1.8c0.9,0,1.8-0.9,2.8-0.9c0.9-0.9,0.9-1.8,0.9-3.7
	l6.4-38.5C196.2,180.6,196.2,179.7,195.3,179.7L195.3,179.7z M193.4,179.7L193.4,179.7z M144.8,231L144.8,231h-5.5H144.8z"/>
<linearGradient id="EXTRUSION_1_" gradientUnits="userSpaceOnUse" x1="505.6552" y1="93.8074" x2="505.6552" y2="-151.7825" gradientTransform="matrix(1 0 0 -1 0 108.2)">
	<stop  offset="0" style="stop-color:#333333"/>
	<stop  offset="1" style="stop-color:#4D4D4D"/>
</linearGradient>
<path id="EXTRUSION" class="st2" d="M175.1,88c11,1.8,21.1,6.4,29.3,12.8c3.7,1.8,3.7,1.8,3.7,1.8l0.9-0.9v-0.9
	C198.9,94.4,187,89.8,175.1,88z M191.6,179.7h-1.8c-6.4,2.8-12.8,4.6-20.2,6.4c8.3-0.9,16.5-3.7,23.8-6.4l0,0h0.9h0.9c0,0,0,0,0-0.9
	C196.2,178.8,195.3,178.8,191.6,179.7L191.6,179.7z M369.4,191.6c4.6,0,10.1-0.9,13.8-3.7c-3.7,1.8-8.3,2.8-12.8,2.8
	c-15.6-0.9-29.3-7.3-40.3-18.3h-1.8l1.8,1.8C341,184.3,354.8,190.7,369.4,191.6z M862.6,226.4l-44-68.8v6.4l39.4,61.4L862.6,226.4z
	 M275,13.8v246.6h679.3V13.8H275z M948.8,259.4h-672V15.6h671L948.8,259.4z M771.9,48.6l-3.7,0.9v176l3.7,0.9V48.6z M141.2,230.1
	c-35.8-1.8-66.9-27.5-75.2-62.3c-8.3-31.2-0.9-65.1,18.3-90.8c15.6-17.4,35.8-29.3,58.7-32.1c17.4-2.8,34.8-0.9,51.3,3.7
	c-18.3-5.5-37.6-7.3-55.9-4.6c-22.9,3.7-44,14.7-59.6,33c-20.2,25.7-26.6,59.6-18.3,91.7c9.2,35.8,40.3,60.5,76.1,63.3
	c14.7,0.9,29.3,0,43.1-4.6C166.8,230.1,154,231,141.2,230.1z M190.7,180.6L190.7,180.6z M841.6,88.9c5.5,3.7,9.2,10.1,9.2,17.4
	c0,6.4-3.7,12.8-9.2,17.4c-4.6,2.8-10.1,4.6-15.6,4.6l0,0c7.3,0.9,13.8-0.9,20.2-4.6c5.5-4.6,9.2-10.1,9.2-17.4
	c0-7.3-3.7-12.8-9.2-17.4c-5.5-3.7-12.8-5.5-20.2-4.6h-8.3v0.9h4.6C828.7,83.4,836.1,85.3,841.6,88.9z M433.6,58.7L433.6,58.7
	l-19.3,34.8l0.9,0.9L433.6,58.7z M489.5,88L489.5,88l-37.6-0.9V88H489.5z M368.5,106.3c4.6,4.6,7.3,5.5,27.5,11
	c31.2,9.2,44,23.8,44,49.5c0.9,13.8-3.7,27.5-11.9,39.4c8.3-11,12.8-25.7,11.9-39.4c0-26.6-12.8-40.3-43.1-49.5
	C376.8,110.9,374,110,368.5,106.3c-1.8-1.8-3.7-5.5-3.7-9.2c0-9.2,8.3-15.6,19.3-15.6c8.3,0,16.5,2.8,23.8,7.3
	c-6.4-4.6-14.7-6.4-23.8-6.4c-11,0-20.2,6.4-20.2,15.6C364.9,101.8,365.8,104.5,368.5,106.3L368.5,106.3z M566.5,226.4l68.8-178.8
	l-1.8,0.9l-67.8,176L566.5,226.4z M660,102.7l-0.9,3.7l17.4,53.2h-35.8l0,0h38.5L660,102.7z M574.8,87.1h-38.5V88h37.6L574.8,87.1z
	 M703.1,226.4l-11-31.2h-1.8l11,30.3L703.1,226.4z"/>
<linearGradient id="VOLUME_EXTRUSION_1_" gradientUnits="userSpaceOnUse" x1="275.5667" y1="-29.3084" x2="951.8329" y2="-29.3084" gradientTransform="matrix(1 0 0 -1 0 108.2)">
	<stop  offset="0" style="stop-color:#000000;stop-opacity:0.6"/>
	<stop  offset="3.000000e-02" style="stop-color:#000000;stop-opacity:0.3"/>
	<stop  offset="0.1" style="stop-color:#000000;stop-opacity:0.14"/>
	<stop  offset="0.5" style="stop-color:#000000;stop-opacity:0"/>
	<stop  offset="0.9" style="stop-color:#000000;stop-opacity:0.14"/>
	<stop  offset="0.97" style="stop-color:#000000;stop-opacity:0.3"/>
	<stop  offset="1" style="stop-color:#000000;stop-opacity:0.6"/>
</linearGradient>
<path id="VOLUME_EXTRUSION" class="st3" d="M954.3,13.8H275l2.8,1.8h671L954.3,13.8z M947.9,259.4h-671l-2.8,1.8h679.3L947.9,259.4z
	"/>
<linearGradient id="NOIR_1_" gradientUnits="userSpaceOnUse" x1="493.3694" y1="131.9384" x2="477.6018" y2="-139.5029" gradientTransform="matrix(1 0 0 -1 0 108.2)">
	<stop  offset="0" style="stop-color:#5F5F5F"/>
	<stop  offset="0.5" style="stop-color:#1E1E1E"/>
	<stop  offset="1" style="stop-color:#252525"/>
</linearGradient>
<path id="NOIR" class="st4" d="M369.4,191.6c-15.6-0.9-30.3-7.3-41.3-18.3l-19.3,37.6c18.3,12.8,39.4,20.2,61.4,20.2
	c18.3,0.9,36.7-5.5,51.3-16.5c12.8-11.9,19.3-28.4,18.3-45.8c0-26.6-12.8-41.3-44-49.5c-21.1-6.4-22.9-7.3-27.5-11
	c-2.8-1.8-4.6-5.5-4.6-9.2c0-9.2,8.3-15.6,20.2-15.6c11,0,22,4.6,30.3,11.9l18.3-35.8c-17.4-9.2-36.7-14.7-56.8-14.7
	c-32.1-1.8-58.7,22-60.5,54.1c0,1.8,0,4.6,0,6.4c-0.9,12.8,3.7,26.6,13.8,34.8c6.4,5.5,13.8,8.3,33.9,14.7c22,6.4,27.5,11,27.5,20.2
	S383.2,191.6,369.4,191.6z M489.5,226.4h45.8V87.1h38.5V47.7H451.9v39.4h37.6L489.5,226.4z M616,226.4l11.9-31.2h64.2l11,31.2h49.5
	L685.7,47.7h-50.4l-68.8,178.8H616z M660,102.7l19.3,56.8h-38.5L660,102.7z M817.7,157.7l44,68.8h57.8l-55.9-73.3
	c8.3-1.8,16.5-5.5,22.9-11c11-10.1,16.5-24.8,16.5-39.4s-5.5-28.4-14.7-38.5c-11.9-11.9-27.5-17.4-44-16.5h-71.5v178.8h45.8
	L817.7,157.7z M817.7,83.4h8.3c7.3-0.9,13.8,0.9,20.2,4.6c5.5,4.6,9.2,10.1,9.2,17.4c0,7.3-3.7,12.8-9.2,17.4
	c-5.5,3.7-12.8,5.5-20.2,4.6h-8.3V83.4z M0,0v274.1h968.1V0H0z M216.3,65.1l-6.4,34.8c0,0.9-0.9,1.8-0.9,1.8s0,0-3.7-1.8
	c-13.8-9.2-30.3-13.8-46.8-13.8c-22,0-42.2,14.7-48.6,36.7c-6.4,18.3-0.9,39.4,13.8,53.2c11,8.3,24.8,11.9,38.5,11
	c10.1-0.9,19.3-3.7,28.4-7.3l0,0h1.8c3.7-1.8,3.7-1.8,3.7-1.8s0.9,0.9,0,2.8l-7.3,39.4c0,0.9-0.9,2.8-0.9,3.7
	c-0.9,0.9-1.8,0.9-2.8,0.9c-15.6,5.5-32.1,8.3-48.6,6.4c-36.7-1.8-66.9-27.5-76.1-63.3c-8.3-32.1-1.8-66,18.3-91.7
	c15.6-17.4,36.7-29.3,59.6-33c19.3-2.8,39.4-0.9,58.7,5.5c5.5,1.8,11.9,4.6,16.5,8.3c3.7,2.8,3.7,3.7,3.7,3.7S218.2,61.4,216.3,65.1
	z M954.3,260.3H275V13.8h679.3V260.3z"/>
<linearGradient id="REFLET_2_1_" gradientUnits="userSpaceOnUse" x1="638.8645" y1="208.1476" x2="475.9629" y2="-239.3046" gradientTransform="matrix(1 0 0 -1 0 108.2)">
	<stop  offset="0.27" style="stop-color:#FFFFFF"/>
	<stop  offset="0.48" style="stop-color:#FFFFFF;stop-opacity:0"/>
	<stop  offset="0.77" style="stop-color:#FFFFFF"/>
	<stop  offset="1" style="stop-color:#FFFFFF;stop-opacity:0"/>
</linearGradient>
<path id="REFLET_2" class="st5" d="M451.9,87.1L451.9,87.1l0.9-39.4h-0.9V87.1z M692.1,195.3l11,31.2h0.9L692.1,195.3L692.1,195.3z
	 M566.5,226.4L566.5,226.4l69.7-178.8h-0.9L566.5,226.4z M489.5,226.4L489.5,226.4l0.9-139.3h-0.9V226.4z M660,102.7l19.3,56.8h0.9
	L660,102.7L660,102.7z M329.1,174.2L329.1,174.2l-20.2,36.7c18.3,12.8,39.4,20.2,61.4,20.2l0,0c-22-0.9-43.1-7.3-61.4-20.2
	L329.1,174.2z M385,82.5c11,0,22,4.6,30.3,11.9l0,0C407,87.1,396,82.5,385,82.5z M365.8,154c-20.2-5.5-27.5-9.2-33.9-14.7
	c-10.1-9.2-15.6-22-13.8-35.8c-1.8-32.1,22.9-58.7,54.1-60.5c1.8,0,3.7,0,5.5,0l0,0c-32.1-1.8-58.7,22-60.5,54.1c0,1.8,0,4.6,0,6.4
	c-0.9,12.8,3.7,25.7,12.8,34.8c6.4,5.5,13.8,8.3,33.9,14.7c22,6.4,27.5,11,27.5,20.2c0,9.2-8.3,17.4-22,17.4l0,0
	c13.8,0,22.9-7.3,22.9-17.4C392.4,163.2,386.9,160.4,365.8,154L365.8,154z M124.7,176.9c-14.7-13.8-20.2-33.9-13.8-53.2
	c6.4-22,25.7-36.7,48.6-36.7h-0.9c-22,0-42.2,14.7-48.6,36.7C103.6,143,109.1,163.2,124.7,176.9c9.2,8.3,22,11.9,34.8,11
	C146.7,187.9,134.8,184.3,124.7,176.9z M196.2,178.8c0,0.9,0,1.8,0,2.8l-7.3,38.5c0,0.9-0.9,2.8-0.9,3.7c-0.9,0.9-1.8,0.9-2.8,0.9
	c-11.9,4.6-24.8,7.3-37.6,6.4c12.8,0,25.7-1.8,38.5-6.4c0.9,0,1.8-0.9,2.8-0.9c0.9-0.9,0.9-1.8,0.9-3.7l6.4-38.5
	C197.1,179.7,197.1,178.8,196.2,178.8L196.2,178.8z M847.1,122.8c-6.4,3.7-12.8,5.5-20.2,5.5h0.9
	C834.2,128.3,841.6,126.5,847.1,122.8c6.4-4.6,10.1-10.1,10.1-17.4c0-7.3-3.7-12.8-9.2-17.4c-5.5-3.7-12.8-5.5-20.2-4.6h-0.9
	c7.3-0.9,13.8,0.9,20.2,4.6c5.5,4.6,9.2,10.1,9.2,17.4C855.3,112.8,851.6,119.2,847.1,122.8L847.1,122.8z M214.5,57.8
	c-5.5-3.7-11-6.4-16.5-8.3c-12.8-4.6-26.6-6.4-41.3-6.4c13.8,0,27.5,2.8,40.3,6.4C202.6,51.3,208.1,54.1,214.5,57.8
	c2.8,2.8,3.7,3.7,3.7,3.7s0,0-0.9,4.6l-6.4,34.8c0,0.9-0.9,1.8-0.9,1.8h0.9c0.9-0.9,0.9-0.9,0.9-1.8l6.4-34.8
	c0.9-3.7,0.9-4.6,0.9-4.6S218.2,59.6,214.5,57.8L214.5,57.8z M817.7,158.6l44,68.8h0.9l-44.9-69.7V158.6z M954.3,13.8v246.6h0.9
	L954.3,13.8L954.3,13.8z M771.9,226.4L771.9,226.4l0.9-178.8h-0.9V226.4z"/>
<linearGradient id="REFLET_1_1_" gradientUnits="userSpaceOnUse" x1="506.8747" y1="-128.032" x2="499.9993" y2="66.5881" gradientTransform="matrix(1 0 0 -1 0 108.2)">
	<stop  offset="0" style="stop-color:#FFFFFF;stop-opacity:0.1"/>
	<stop  offset="0.27" style="stop-color:#FFFFFF"/>
	<stop  offset="0.5" style="stop-color:#FFFFFF;stop-opacity:0.5"/>
	<stop  offset="0.77" style="stop-color:#FFFFFF"/>
	<stop  offset="1" style="stop-color:#FFFFFF;stop-opacity:0"/>
</linearGradient>
<path id="REFLET_1" class="st6" d="M574.8,47.7L574.8,47.7l-0.9,39.4h0.9V47.7z M660,102.7v-0.9l-20.2,57.8h0.9L660,102.7z
	 M628,195.3L628,195.3l-12.8,31.2h0.9L628,195.3z M752.6,226.4L685.7,47.7h-0.9L752.6,226.4L752.6,226.4z M817.7,83.4L817.7,83.4
	v44.9h0.9L817.7,83.4L817.7,83.4z M536.3,87.1L536.3,87.1l-0.9,139.3h0.9V87.1z M817.7,157.7l-0.9-0.9v69.7h0.9V157.7z M902.1,102.7
	c0,14.7-5.5,29.3-16.5,39.4c-6.4,5.5-14.7,9.2-22.9,11l55.9,73.3h0.9l-55.9-73.3c8.3-1.8,16.5-5.5,22.9-11
	C897.5,132,903,118.3,902.1,102.7c0.9-14.7-4.6-28.4-14.7-38.5c-11.9-11.9-27.5-17.4-44-16.5l0,0c16.5-0.9,32.1,4.6,43.1,16.5
	C896.6,75.2,902.1,88.9,902.1,102.7L902.1,102.7z M190.7,179.7h-1.8c-9.2,3.7-18.3,6.4-28.4,7.3h0.9
	C171.4,186.1,181.5,184.3,190.7,179.7L190.7,179.7L190.7,179.7c1.8-0.9,2.8-0.9,4.6-0.9l0,0C195.3,178.8,194.3,178.8,190.7,179.7
	L190.7,179.7z M189.8,179.7L189.8,179.7z M160.4,87.1c15.6,0,31.2,4.6,44,13.8c3.7,1.8,3.7,1.8,3.7,1.8l0,0
	c-0.9-0.9-1.8-0.9-2.8-1.8C191.6,91.7,176.9,87.1,160.4,87.1z M368.5,106.3c4.6,4.6,7.3,5.5,27.5,11c31.2,9.2,44,23.8,44,50.4
	c0.9,17.4-5.5,33.9-18.3,45.8c-14.7,11.9-33,17.4-51.3,16.5l0,0c18.3,0.9,36.7-5.5,51.3-16.5c12.8-11.9,19.3-28.4,18.3-45.8
	c0-26.6-12.8-41.3-44-49.5C374.9,111.8,373.1,110.9,368.5,106.3c-1.8-1.8-3.7-5.5-3.7-9.2c0-9.2,8.3-15.6,19.3-15.6l0,0
	c-11,0-20.2,6.4-20.2,15.6C363.9,100.8,364.9,104.5,368.5,106.3L368.5,106.3z M414.4,93.5L414.4,93.5l19.3-35.8
	c-17.4-9.2-36.7-14.7-56.8-14.7l0,0c19.3,0,38.5,5.5,55.9,14.7L414.4,93.5z M138.4,44c5.5-0.9,11.9-0.9,17.4-0.9
	c-6.4,0-11.9,0-18.3,0.9c-22.9,3.7-44,14.7-59.6,33c-20.2,25.7-26.6,59.6-18.3,91.7c9.2,35.8,40.3,60.5,76.1,63.3
	c3.7,0,7.3,0.9,11,0.9c-3.7,0-6.4,0-10.1-0.9c-36.7-1.8-66.9-27.5-76.1-63.3c-8.3-32.1-1.8-66,18.3-91.7
	C93.5,58.7,115.5,47.7,138.4,44z M369.4,191.6c-15.6-0.9-30.3-7.3-40.3-18.3l0,0C339.2,184.3,353.9,190.7,369.4,191.6L369.4,191.6z
	 M275,260.3V13.8h-0.9L275,260.3L275,260.3L275,260.3l680.2,0.9v-0.9H275z"/>
<radialGradient id="SVGID_1_" cx="-508.4894" cy="-452.4107" r="135.9719" fx="-539.1191" fy="-454.588" gradientTransform="matrix(-1.0978 0.8384 -0.9487 -0.7246 -99.3419 152.9348)" gradientUnits="userSpaceOnUse">
	<stop  offset="0.1095" style="stop-color:#FFFFFF"/>
	<stop  offset="0.7396" style="stop-color:#FFFFFF;stop-opacity:0"/>
</radialGradient>
<rect x="574.8" class="st7" width="393.3" height="274.1"/>
</svg>
