<svg xmlns="http://www.w3.org/2000/svg" viewBox="0 0 125.26 40.26"><path d="M16.36,29.45V40.26H0v-.35H2.89V.36H0V0H16.06V10.75H15.7C15.7,1.39,12.1.65,7.62.65v18.7c4.22,0,4.63-3.09,4.63-7.4h.36V27h-.36c0-4.31-.41-7.26-4.63-7.26V39.59c4.48,0,8.4-1,8.4-10.14Z" transform="translate(0 0)" fill="#202020"/><path d="M43.91,39.91c4.47,0,8.4-1.29,8.4-10.46h.35V40.26H36.28v-.35h2.89V.36H36.28V0h10.5V.36H43.91V39.91Z" transform="translate(0 0)" fill="#202020"/><path d="M80.21,39.91c4.47,0,8.4-1.29,8.4-10.46H89V40.26H72.58v-.35h2.89V.36H72.58V0h10.5V.36h-2.9V39.91Z" transform="translate(0 0)" fill="#202020"/><path d="M125.26,29.45V40.26H108.88v-.35h2.9V.36h-2.9V0H125V10.75h-.37c0-9.36-3.59-10.1-8.08-10.1v18.7c4.22,0,4.64-3.09,4.64-7.4h.36V27h-.36c0-4.31-.42-7.26-4.64-7.26V39.59c4.48,0,8.4-1,8.4-10.14Z" transform="translate(0 0)" fill="#202020"/></svg>