<?xml version="1.0" encoding="utf-8"?>
<!-- Generator: Adobe Illustrator 15.0.0, SVG Export Plug-In . SVG Version: 6.00 Build 0)  -->
<!DOCTYPE svg PUBLIC "-//W3C//DTD SVG 1.1//EN" "http://www.w3.org/Graphics/SVG/1.1/DTD/svg11.dtd">
<svg version="1.1"
	 id="svg2" sodipodi:docname="B.svg" inkscape:version="0.48.5 r10040" xmlns:dc="http://purl.org/dc/elements/1.1/" xmlns:cc="http://creativecommons.org/ns#" xmlns:rdf="http://www.w3.org/1999/02/22-rdf-syntax-ns#" xmlns:svg="http://www.w3.org/2000/svg" xmlns:sodipodi="http://sodipodi.sourceforge.net/DTD/sodipodi-0.dtd" xmlns:inkscape="http://www.inkscape.org/namespaces/inkscape"
	 xmlns="http://www.w3.org/2000/svg" xmlns:xlink="http://www.w3.org/1999/xlink" x="0px" y="0px" width="1000px"
	 height="853.895px" viewBox="0 0 1000 853.895" enable-background="new 0 0 1000 853.895" xml:space="preserve">
<sodipodi:namedview  id="base" fit-margin-left="0" fit-margin-top="0" showgrid="false" inkscape:cy="254.64039" inkscape:cx="543.21076" inkscape:zoom="0.4036171" borderopacity="1.0" bordercolor="#666666" pagecolor="#ffffff" inkscape:window-maximized="0" inkscape:window-y="-15" inkscape:window-x="889" inkscape:window-height="1032" inkscape:window-width="1022" fit-margin-bottom="0" fit-margin-right="0" inkscape:current-layer="layer1" inkscape:document-units="px" inkscape:pageshadow="2" inkscape:pageopacity="0.0">
	
		<inkscape:grid  type="xygrid" originy="-1428.5389px" originx="-915.1226px" enabled="true" visible="true" id="grid4316" empspacing="5" snapvisiblegridlinesonly="true">
		</inkscape:grid>
</sodipodi:namedview>
<g id="layer1" transform="translate(-915.1226,1230.071)" inkscape:label="Layer 1" inkscape:groupmode="layer">
	
		<path id="path4325" sodipodi:type="arc" sodipodi:cx="436.63754" sodipodi:cy="751.52789" sodipodi:rx="6.8521008" sodipodi:ry="6.8521008" sodipodi:start="0" sodipodi:end="6.2831852" sodipodi:open="true" fill="#0082FC" d="
		M1237.374-679.248c0,88.987-72.138,161.126-161.125,161.126c-88.987,0-161.125-72.139-161.125-161.126
		c0-88.986,72.138-161.125,161.125-161.125C1165.235-840.373,1237.374-768.234,1237.374-679.248"/>
	<g id="flowRoot4423" transform="matrix(30.068362,0,0,30.068362,-46028.997,-27371.458)">
		<path id="path4432" inkscape:connector-curvature="0" fill="#131313" d="M1574.778,893.441l3.887-3.242
			c0.586,0.82,1.331,1.494,2.236,2.021c0.905,0.527,1.891,0.791,2.959,0.791c0.664,0,1.312-0.127,1.943-0.381
			c0.632-0.254,1.192-0.602,1.68-1.045s0.879-0.977,1.172-1.602c0.293-0.625,0.439-1.309,0.439-2.051c0-0.716-0.14-1.39-0.42-2.021
			c-0.28-0.631-0.664-1.182-1.152-1.65s-1.074-0.83-1.758-1.084s-1.41-0.381-2.178-0.381c-1.172,0-2.292,0.267-3.359,0.801v-3.184
			l5.234-6.211h-9.355v-4.805h16.992v3.203l-5.078,6.25c1.914,0.742,3.473,1.908,4.678,3.496c1.204,1.589,1.807,3.451,1.807,5.586
			c0,1.497-0.274,2.852-0.82,4.062c-0.547,1.211-1.286,2.243-2.217,3.096c-0.931,0.853-2.038,1.517-3.32,1.992
			c-1.282,0.475-2.646,0.713-4.092,0.713c-1.758,0-3.431-0.371-5.02-1.113C1577.447,895.941,1576.027,894.861,1574.778,893.441
			L1574.778,893.441z"/>
	</g>
</g>
</svg>
