<svg width="531" height="92" viewBox="0 0 531 92" fill="none" xmlns="http://www.w3.org/2000/svg">
<path fill-rule="evenodd" clip-rule="evenodd" d="M43.25 14.3741C44.896 14.3891 46.534 14.6011 48.13 15.0041L50.63 1.12405C47.483 0.330303 44.2452 -0.0459262 41 0.00505288C32.75 0.00505288 26.39 2.99505 22.13 7.12505C17.87 11.2551 15.62 17.1251 15.62 26.8851V29.3851H0V43.1351H15.62V90.0151H31.88V43.1351H50.63V29.3851H31.88V27.5051C31.88 21.8751 32.75 19.6251 34.13 17.8751C36.13 15.5051 39.25 14.3751 43.25 14.3751V14.3741ZM160.65 90.0141H145.03V85.1441C140.337 89.1726 134.334 91.3489 128.15 91.2641C123.828 91.2753 119.552 90.3672 115.607 88.6001C111.663 86.8329 108.139 84.247 105.27 81.0141C100.226 75.0828 97.4766 67.5397 97.52 59.7541C97.52 41.8741 110.77 28.1241 127.27 28.1241C133.72 28.0449 139.998 30.2081 145.03 34.2441V29.3841H160.65V90.0141ZM144.4 50.6341C142.659 48.2998 140.395 46.4057 137.79 45.1033C135.186 43.801 132.312 43.1266 129.4 43.1341C119.9 43.1341 113.77 51.0141 113.77 59.7641C113.77 69.2641 120.65 76.2641 129.77 76.2641C132.633 76.2863 135.458 75.6158 138.006 74.3099C140.553 73.0039 142.747 71.1012 144.4 68.7641V50.6341V50.6341ZM173.869 29.3841V90.0141H190.129V50.6341C191.881 48.372 194.112 46.5262 196.663 45.2294C199.213 43.9325 202.019 43.217 204.879 43.1341C208.249 43.012 211.531 44.2269 214.009 46.5141C216.259 48.7641 217.629 51.8841 217.629 57.8841V90.0141H233.889V59.1341C233.889 48.7641 231.629 42.6341 227.629 37.8841C225.057 34.8199 221.842 32.3583 218.213 30.6735C214.585 28.9887 210.63 28.1218 206.629 28.1341C200.38 28.1112 194.319 30.2764 189.499 34.2541V29.3841H173.869V29.3841ZM338.699 91.2641C348.079 91.2641 357.699 87.3941 363.579 80.3941L354.379 71.1341C351.499 74.2541 345.999 78.1341 339.129 78.1341C330.499 78.1341 323.619 72.2541 322.749 63.7541H364.749C364.993 62.2265 365.103 60.6807 365.079 59.1341C365.079 42.2541 353.199 28.1341 336.449 28.1341C318.449 28.1341 306.939 42.8841 306.939 59.7641C306.939 78.7641 320.569 91.2641 338.699 91.2641V91.2641ZM344.465 44.2941C346.675 46.2525 348.093 48.9524 348.449 51.8841H323.449C324.199 46.3841 329.699 41.2541 336.449 41.2541C339.403 41.2541 342.254 42.3361 344.465 44.2941ZM275.721 91.2641C287.091 91.2641 296.101 87.1441 303.221 77.6441L290.721 68.2541C289.134 70.6636 286.985 72.6509 284.459 74.0446C281.933 75.4383 279.106 76.1966 276.221 76.2541C266.341 76.2541 259.461 69.2541 259.461 59.7541C259.389 56.4774 260.309 53.2554 262.1 50.5105C263.891 47.7655 266.469 45.6256 269.497 44.3711C271.508 43.5387 273.665 43.1184 275.841 43.1351C278.578 43.1684 281.27 43.8413 283.701 45.1001C286.131 46.359 288.234 48.1688 289.841 50.3851L301.351 40.2551C298.291 36.4385 294.406 33.3651 289.988 31.2659C285.569 29.1667 280.733 28.0962 275.841 28.1351C257.341 28.1351 243.211 42.2651 243.211 59.7651C243.211 77.2651 256.961 91.2651 275.721 91.2651V91.2641ZM95.021 43.7541C93.096 43.2942 91.1196 43.0858 89.141 43.1341C82.011 43.1341 76.391 48.2641 74.391 51.8841V90.0141H58.13V29.3841H73.75V35.5041C77.38 31.0041 84.01 28.1341 91.38 28.1341C93.2241 28.147 95.0638 28.3143 96.88 28.6341L95.02 43.7541H95.021Z" fill="black"/>
<path d="M530.41 29.384H513.53L496.9 66.384L480.27 29.384H449.75V12.504H433.46V29.384H417.84V43.134H433.46V64.384C433.46 73.014 434.84 78.384 437.96 82.514C442.09 88.014 449.22 91.264 458.96 91.264C462.376 91.281 465.78 90.861 469.09 90.014L466.59 76.264C464.402 76.6593 462.184 76.8701 459.96 76.894C455.96 76.894 453.33 75.764 451.71 73.894C450.33 72.264 449.71 70.014 449.71 66.264V43.134H469.71L491.27 90.014H502.52L530.41 29.384V29.384Z" fill="url(#paint0_radial_24_2)"/>
<path d="M396.999 76.264C406.145 76.264 413.559 68.85 413.559 59.704C413.559 50.559 406.145 43.144 396.999 43.144C387.854 43.144 380.439 50.559 380.439 59.704C380.439 68.85 387.854 76.264 396.999 76.264Z" fill="url(#paint1_radial_24_2)"/>
<path d="M480.27 29.384H449.75V12.504H433.46V29.384H417.84V43.134H433.46V64.384C433.46 73.014 434.84 78.384 437.96 82.514C442.09 88.014 449.22 91.264 458.96 91.264C462.376 91.281 465.78 90.861 469.09 90.014L466.59 76.264C464.402 76.6593 462.184 76.8701 459.96 76.894C455.96 76.894 453.33 75.764 451.71 73.894C450.33 72.264 449.71 70.014 449.71 66.264V43.134H469.71L491.27 90.014H492.43C494.866 82.3435 496.36 74.4052 496.88 66.374L480.27 29.384V29.384Z" fill="url(#paint2_radial_24_2)"/>
<path d="M433.46 29.384H417.84V43.134H433.46V64.384C433.46 73.014 434.84 78.384 437.96 82.514L438.32 82.954C443.035 74.5845 445.095 64.9797 444.227 55.4126C443.359 45.8456 439.604 36.7683 433.46 29.384V29.384Z" fill="url(#paint3_radial_24_2)"/>
<defs>
<radialGradient id="paint0_radial_24_2" cx="0" cy="0" r="1" gradientUnits="userSpaceOnUse" gradientTransform="translate(396.99 59.694) rotate(180) scale(139.41)">
<stop stop-color="#64C8D7"/>
<stop offset="0.28" stop-color="#60C4D6"/>
<stop offset="0.57" stop-color="#53B9D2"/>
<stop offset="0.86" stop-color="#3FA7CC"/>
<stop offset="1" stop-color="#329BC8"/>
</radialGradient>
<radialGradient id="paint1_radial_24_2" cx="0" cy="0" r="1" gradientUnits="userSpaceOnUse" gradientTransform="translate(396.999 59.705) scale(47.42)">
<stop stop-color="#FF503C"/>
<stop offset="0.46" stop-color="#FF5447"/>
<stop offset="1" stop-color="#FF5A5A"/>
</radialGradient>
<radialGradient id="paint2_radial_24_2" cx="0" cy="0" r="1" gradientUnits="userSpaceOnUse" gradientTransform="translate(396.99 59.694) rotate(180) scale(100.12)">
<stop offset="0.6" stop-color="#FFAA46"/>
<stop offset="0.75" stop-color="#FDAB48"/>
<stop offset="0.81" stop-color="#F6B04F"/>
<stop offset="0.86" stop-color="#E9B85B"/>
<stop offset="0.9" stop-color="#D8C36C"/>
<stop offset="0.93" stop-color="#C1D182"/>
<stop offset="0.96" stop-color="#A4E39D"/>
<stop offset="0.99" stop-color="#83F8BD"/>
<stop offset="1" stop-color="#78FFC8"/>
</radialGradient>
<radialGradient id="paint3_radial_24_2" cx="0" cy="0" r="1" gradientUnits="userSpaceOnUse" gradientTransform="translate(12731.4 6776.53) scale(1260.46 2540.29)">
<stop stop-color="#FF503C"/>
<stop offset="0.46" stop-color="#FF5447"/>
<stop offset="1" stop-color="#FF5A5A"/>
</radialGradient>
</defs>
</svg>
