<?xml version="1.0" encoding="utf-8"?>
<!-- Generator: Adobe Illustrator 15.0.0, SVG Export Plug-In . SVG Version: 6.00 Build 0)  -->
<!DOCTYPE svg PUBLIC "-//W3C//DTD SVG 1.1//EN" "http://www.w3.org/Graphics/SVG/1.1/DTD/svg11.dtd">
<svg version="1.1"
	 id="svg2" sodipodi:docname="New document 1" inkscape:version="0.48.5 r10040" xmlns:dc="http://purl.org/dc/elements/1.1/" xmlns:cc="http://creativecommons.org/ns#" xmlns:rdf="http://www.w3.org/1999/02/22-rdf-syntax-ns#" xmlns:svg="http://www.w3.org/2000/svg" xmlns:sodipodi="http://sodipodi.sourceforge.net/DTD/sodipodi-0.dtd" xmlns:inkscape="http://www.inkscape.org/namespaces/inkscape"
	 xmlns="http://www.w3.org/2000/svg" xmlns:xlink="http://www.w3.org/1999/xlink" x="0px" y="0px" width="1000px"
	 height="866.895px" viewBox="0 0 1000 866.895" enable-background="new 0 0 1000 866.895" xml:space="preserve">
<sodipodi:namedview  id="base" fit-margin-left="0" fit-margin-top="0" showgrid="false" inkscape:cy="253.91108" inkscape:cx="714.9694" inkscape:zoom="0.4036171" borderopacity="1.0" bordercolor="#666666" pagecolor="#ffffff" inkscape:window-maximized="0" inkscape:window-y="-15" inkscape:window-x="889" inkscape:window-height="1032" inkscape:window-width="1022" fit-margin-bottom="0" fit-margin-right="0" inkscape:current-layer="layer1" inkscape:document-units="px" inkscape:pageshadow="2" inkscape:pageopacity="0.0">
	
		<inkscape:grid  type="xygrid" originy="-309.39494px" originx="-384.11259px" enabled="true" visible="true" id="grid4316" empspacing="5" snapvisiblegridlinesonly="true">
		</inkscape:grid>
</sodipodi:namedview>
<g id="g4383" transform="matrix(24.105672,0,0,24.105672,-9959.3569,-17672.598)">
	<g id="text4318">
		<path id="path4323" inkscape:connector-curvature="0" sodipodi:nodetypes="ccccccccccccccccccccsccccc" fill="#131313" d="
			M431.094,769.093v-5.042l12.466-13.137c1.385-1.55,2.313-2.869,2.783-3.957s0.705-2.086,0.705-2.993c0-0.61-0.12-1.2-0.359-1.768
			c-0.239-0.569-0.561-1.076-0.965-1.521c-0.404-0.445-0.882-0.8-1.435-1.064c-0.552-0.264-1.167-0.396-1.843-0.396
			c-1.187,0-2.193,0.371-3.017,1.113c-0.824,0.742-1.525,1.974-1.525,4.176h-6.834c0-3.104,1.203-5.499,1.928-6.513
			s1.579-1.876,2.56-2.585c0.981-0.709,2.061-1.266,3.24-1.669c1.179-0.404,2.428-0.606,3.747-0.606c1.517,0,2.96,0.268,4.328,0.804
			c1.369,0.536,2.576,1.286,3.623,2.251s1.876,2.123,2.486,3.475c0.61,1.352,0.915,2.82,0.915,4.403c0,2.16-0.466,4.06-1.397,5.701
			c-0.932,1.641-1.991,3.137-3.178,4.489l-8.474,8.756h13.79v6.084L431.094,769.093z"/>
	</g>
	
		<path id="path4325" sodipodi:type="arc" sodipodi:cx="436.63754" sodipodi:cy="751.52789" sodipodi:rx="6.8521008" sodipodi:ry="6.8521008" sodipodi:start="0" sodipodi:end="6.2831852" sodipodi:open="true" fill="#EB0032" d="
		M426.858,756.785c0,3.784-3.068,6.852-6.852,6.852s-6.852-3.068-6.852-6.852c0-3.784,3.068-6.852,6.852-6.852
		C423.791,749.933,426.858,753.001,426.858,756.785"/>
</g>
</svg>
