<?xml version="1.0" encoding="UTF-8" standalone="no"?>
<!-- Created with Inkscape (http://www.inkscape.org/) -->

<svg
   version="1.1"
   id="svg2"
   xml:space="preserve"
   width="500"
   height="500"
   viewBox="0 0 499.99999 500"
   sodipodi:docname="france-bleu.svg"
   inkscape:version="1.1.1 (1:1.1+202109281954+c3084ef5ed)"
   xmlns:inkscape="http://www.inkscape.org/namespaces/inkscape"
   xmlns:sodipodi="http://sodipodi.sourceforge.net/DTD/sodipodi-0.dtd"
   xmlns="http://www.w3.org/2000/svg"
   xmlns:svg="http://www.w3.org/2000/svg"><defs
     id="defs6"><clipPath
       clipPathUnits="userSpaceOnUse"
       id="clipPath18"><path
         d="M 0,720 H 1280 V 0 H 0 Z"
         id="path16" /></clipPath><clipPath
       clipPathUnits="userSpaceOnUse"
       id="clipPath40"><path
         d="m 687.732,461.852 h 54.12 v -61.248 h -54.12 z"
         id="path38" /></clipPath></defs><sodipodi:namedview
     id="namedview4"
     pagecolor="#ffffff"
     bordercolor="#666666"
     borderopacity="1.0"
     inkscape:pageshadow="2"
     inkscape:pageopacity="0.0"
     inkscape:pagecheckerboard="0"
     showgrid="false"
     inkscape:zoom="1.2537334"
     inkscape:cx="240.48175"
     inkscape:cy="263.61266"
     inkscape:window-width="2560"
     inkscape:window-height="1376"
     inkscape:window-x="0"
     inkscape:window-y="27"
     inkscape:window-maximized="1"
     inkscape:current-layer="g8" /><g
     id="g8"
     inkscape:groupmode="layer"
     inkscape:label="Chaine Radio France RVB_France Bleu Couleurs"
     transform="matrix(1.3333333,0,0,-1.3333333,-694.10665,639.22665)"><path
       d="M 895.58001,104.41999 H 520.58 V 479.42 h 375.00001 z"
       style="fill:#0077d7;fill-opacity:1;fill-rule:nonzero;stroke:none;stroke-width:1.57009"
       id="path10" /><path
       id="path46"
       style="opacity:1;fill:#bfddf5;fill-opacity:1;fill-rule:nonzero;stroke:none;stroke-width:1.57009"
       d="m 832.34924,378.60146 c -2.12904,-0.75364 -4.43236,-1.16815 -6.83931,-1.16815 -10.7975,0 -19.55075,8.3042 -19.55075,18.54903 0,2.85599 0.68142,5.56283 1.89824,7.97919 h -23.99881 c -0.54639,-2.57965 -0.83528,-5.24723 -0.83528,-7.97919 0,-22.26229 19.02162,-40.31046 42.4866,-40.31046 2.32844,0 4.61292,0.18056 6.83931,0.52284 z m -6.83915,35.92975 c 10.7975,0 19.55074,-8.3042 19.55074,-18.54903 0,-3.14645 -0.82743,-6.10921 -2.28448,-8.70457 h 24.22333 c 0.65002,2.80418 0.99701,5.71512 0.99701,8.70457 0,17.16892 -11.31406,31.82884 -27.2536,37.63817 v 18.21617 h -21.03605 v -38.13588 c 1.83386,0.54011 3.78234,0.83057 5.80305,0.83057" /><path
       id="path76"
       style="fill:#ffffff;fill-opacity:1;fill-rule:nonzero;stroke:none;stroke-width:1.57009"
       d="m 778.07032,258.75297 c 0,-3.66616 -0.59349,-7.11878 -5.50159,-7.11878 -2.80418,0 -4.04455,1.72552 -4.04455,3.72111 0,2.69584 1.72553,4.15288 6.41853,4.15288 h 3.12761 z m 7.55056,-4.74638 v 11.70344 c 0,6.68701 -4.0995,9.59952 -11.54172,9.65291 -7.6636,0 -10.9184,-3.2281 -11.77096,-7.48776 l 7.13292,-1.46489 c 0.32343,2.04897 1.07865,3.39767 4.3146,3.39767 3.61277,0 4.3146,-1.94063 4.3146,-3.93621 v -1.67214 h -3.99116 c -8.19744,0 -13.26568,-2.9659 -13.26568,-9.32947 0,-4.31461 2.80418,-8.73598 9.54457,-8.73598 4.96148,0 6.84873,1.83387 7.87399,3.39768 0,-0.70183 0.16172,-2.21226 0.37839,-2.7508 h 7.38727 c -0.16172,0.64688 -0.37682,4.52971 -0.37682,7.22555 m 74.60984,9.81557 c -0.0534,3.23595 -1.34871,5.98675 -5.1232,5.98675 -3.66773,0 -5.17816,-2.5357 -5.50159,-5.98675 z m -10.78651,-4.74481 c 0,-3.50601 1.78048,-6.90368 5.60992,-6.90368 3.23439,0 4.15132,1.29375 4.90653,2.9659 h 7.71228 c -0.97189,-3.39768 -4.04455,-9.00603 -12.78053,-9.00603 -9.2227,0 -13.21386,6.84872 -13.21386,14.18261 0,8.79093 4.47632,15.04616 13.48235,15.04616 9.54614,0 12.83548,-6.95549 12.83548,-13.91256 0,-0.97031 0,-1.56381 -0.10834,-2.3724 z m -8.40281,-3.29044 c -0.91693,-4.63804 -4.20626,-9.6529 -12.51203,-9.6529 -8.68102,0 -13.15735,5.98675 -13.15735,14.39928 0,8.25082 5.01487,14.82949 13.53574,14.82949 9.38285,0 12.02531,-6.79534 12.13364,-9.92296 h -7.4956 c -0.48516,2.26564 -1.78048,3.82945 -4.79976,3.82945 -3.55939,0 -5.55497,-3.07424 -5.55497,-8.46749 0,-5.98518 2.1573,-8.68102 5.50002,-8.68102 2.69741,0 4.0995,1.5638 4.79976,3.66615 z m -52.31002,11.86454 c 0,2.3724 0,4.96148 -0.0534,7.06383 h 7.49561 c 0.16171,-0.75365 0.26848,-2.69585 0.32343,-3.55782 0.91694,1.72552 3.18257,4.20469 8.0891,4.20469 5.60836,0 9.22113,-3.82787 9.22113,-10.83832 v -17.742 h -7.7107 v 16.87845 c 0,3.18257 -1.02527,5.44664 -4.47633,5.44664 -3.28933,0 -5.1232,-1.83386 -5.1232,-6.79378 v -15.53131 h -7.76566 z m -43.62758,-0.53933 c 0,2.80418 0,5.23154 -0.0534,7.60394 h 7.60394 c 0.10677,-0.64688 0.21511,-3.39767 0.21511,-4.9081 1.24037,3.18257 4.20626,5.50159 8.95264,5.55498 v -7.38884 c -5.60835,0.16329 -8.95264,-1.34714 -8.95264,-9.00446 v -12.1886 h -7.76566 z m -12.85636,-20.33108 v 22.11156 h -2.27192 v 5.82346 h 2.27192 v 2.42579 c 0,5.77164 2.85756,9.54614 8.89769,9.54614 1.24037,0 2.85913,-0.10834 3.55939,-0.32344 v -6.09351 c -0.43177,0.0534 -1.02369,0.10676 -1.61719,0.10676 -2.26564,0 -3.12761,-0.80859 -3.12761,-3.82787 v -1.83387 h 3.93935 v -5.82346 h -3.93935 v -22.11156 z m 135.56335,-84.78841 c 0,-9.06883 0,-19.25242 0.18527,-27.76702 h -25.91902 c -0.36898,2.59222 -0.55425,7.77508 -0.73952,11.10524 -5.73867,-9.62621 -14.06956,-13.32691 -26.47326,-13.32691 -19.43613,0 -31.83983,11.84789 -31.83983,35.54367 v 62.57275 h 26.47169 v -57.20462 c 0,-10.55256 3.3333,-19.254 14.80908,-19.254 12.03316,0 17.03232,6.47976 17.03232,25.36322 v 51.0954 h 26.47327 z m -119.32251,30.7301 c -0.18527,11.10995 -4.62862,20.54932 -17.58656,20.54932 -12.58898,0 -17.77184,-8.70143 -18.88189,-20.54932 z m -37.02426,-16.28967 c 0,-12.03159 6.10921,-23.69578 19.25243,-23.69578 11.10837,0 14.25483,4.44178 16.84705,10.18045 h 26.4717 c -3.3333,-11.66105 -13.8843,-30.91348 -43.87457,-30.91348 -31.65613,0 -45.35358,23.51208 -45.35358,48.68689 0,30.17553 15.36489,51.64964 46.27994,51.64964 32.76618,0 44.05826,-23.88262 44.05826,-47.7621 0,-3.3333 0,-5.36814 -0.36897,-8.14562 z m -34.53615,-42.20807 h -27.58332 v 127.55087 h 27.58332 z m -82.66878,76.8257 c -15.17962,0 -20.54776,-9.80992 -20.54776,-29.43446 0,-16.10597 4.8139,-28.5081 20.17879,-28.5081 13.51218,0 20.73302,12.03159 20.73302,30.17554 0,16.10597 -6.10922,27.76702 -20.36405,27.76702 m -45.9094,58.31467 h 26.65854 v -49.42954 c 3.88597,6.10922 11.84789,12.40527 27.39648,12.40527 26.10115,0 39.06067,-21.66094 39.06067,-48.50318 0,-27.39648 -14.06957,-51.83334 -41.65132,-51.83334 -14.25484,0 -20.54932,4.25808 -25.17794,11.29208 0,-3.1496 -0.55582,-6.6666 -1.11006,-9.07198 h -25.36164 c 0.18527,10.36887 0.18527,20.91987 0.18527,31.28559 z" /></g></svg>
