<?xml version="1.0" encoding="UTF-8" standalone="no"?>
<!-- Created with Inkscape (http://www.inkscape.org/) -->

<svg
   version="1.1"
   id="svg2"
   xml:space="preserve"
   width="500"
   height="500"
   viewBox="0 0 499.99999 500"
   sodipodi:docname="france-inter.svg"
   inkscape:version="1.1.1 (1:1.1+202109281954+c3084ef5ed)"
   inkscape:export-filename="/home/gub/OneDrive/Logo Radio France 2021/logos Radio France + chaines 2021/France Inter/Chaine Radio France RVB_France Inter Couleurs/france-inter.png"
   inkscape:export-xdpi="192"
   inkscape:export-ydpi="192"
   xmlns:inkscape="http://www.inkscape.org/namespaces/inkscape"
   xmlns:sodipodi="http://sodipodi.sourceforge.net/DTD/sodipodi-0.dtd"
   xmlns="http://www.w3.org/2000/svg"
   xmlns:svg="http://www.w3.org/2000/svg"><defs
     id="defs6" /><sodipodi:namedview
     id="namedview4"
     pagecolor="#ffffff"
     bordercolor="#666666"
     borderopacity="1.0"
     inkscape:pageshadow="2"
     inkscape:pageopacity="0.0"
     inkscape:pagecheckerboard="0"
     showgrid="false"
     inkscape:zoom="1.1153504"
     inkscape:cx="225.04138"
     inkscape:cy="264.93916"
     inkscape:window-width="2560"
     inkscape:window-height="1376"
     inkscape:window-x="0"
     inkscape:window-y="27"
     inkscape:window-maximized="1"
     inkscape:current-layer="g8" /><g
     id="g8"
     inkscape:groupmode="layer"
     inkscape:label="ink_ext_XXXXXX"
     transform="matrix(1.3333333,0,0,-1.3333333,-694.10665,639.22665)"><path
       d="M 520.58,104.41999 H 895.58001 V 479.42 H 520.58 Z"
       style="fill:#e20134;fill-opacity:1;fill-rule:nonzero;stroke:none;stroke-width:0.157009"
       id="path12" /><path
       id="path34"
       style="fill:#ffffff;fill-opacity:1;fill-rule:nonzero;stroke:none;stroke-width:0.157009"
       d="m 778.06985,251.56558 c 0,-3.66616 -0.59349,-7.11879 -5.50002,-7.11879 -2.80418,0 -4.04455,1.7271 -4.04455,3.72111 0,2.69742 1.72553,4.15289 6.41695,4.15289 h 3.12762 z m 7.55056,-4.74481 v 11.70187 c 0,6.68701 -4.09793,9.59952 -11.54016,9.65291 -7.6636,0 -10.91996,-3.22811 -11.77252,-7.48776 l 7.13448,-1.46332 c 0.32344,2.04896 1.07865,3.3961 4.31304,3.3961 3.61434,0 4.3146,-1.94063 4.3146,-3.93621 v -1.67215 h -3.9896 c -8.19743,0 -13.26725,-2.96589 -13.26725,-9.32946 0,-4.31461 2.80418,-8.73598 9.54614,-8.73598 4.96148,0 6.84873,1.83387 7.87243,3.39767 0,-0.70183 0.16172,-2.21068 0.37839,-2.75079 h 7.38727 c -0.16172,0.64688 -0.37682,4.5297 -0.37682,7.22712 m 74.61062,9.81462 c -0.055,3.23596 -1.34871,5.98518 -5.1232,5.98518 -3.66773,0 -5.17816,-2.53412 -5.50159,-5.98518 z m -10.78651,-4.74638 c 0,-3.50443 1.78048,-6.90211 5.60835,-6.90211 3.23596,0 4.15289,1.29376 4.9081,2.9659 h 7.71228 c -0.97189,-3.39767 -4.04455,-9.00603 -12.78209,-9.00603 -9.22114,0 -13.2123,6.84873 -13.2123,14.18261 0,8.79093 4.47632,15.04617 13.48235,15.04617 9.54614,0 12.83548,-6.95707 12.83548,-13.91413 0,-0.97032 0,-1.56381 -0.10834,-2.37241 h -18.44383 m -8.40312,-3.28933 c -0.91693,-4.63804 -4.20627,-9.65291 -12.51047,-9.65291 -8.68259,0 -13.15891,5.98675 -13.15891,14.39929 0,8.25081 5.01486,14.82949 13.53574,14.82949 9.38285,0 12.02531,-6.79535 12.13364,-9.92297 h -7.4956 c -0.48516,2.26564 -1.78048,3.82945 -4.79976,3.82945 -3.55939,0 -5.55498,-3.07423 -5.55498,-8.46749 0,-5.98518 2.1573,-8.68102 5.50002,-8.68102 2.69742,0 4.09951,1.56381 4.79976,3.66616 h 7.55056 m -52.31065,11.86516 c 0,2.3724 0,4.95991 -0.0534,7.06383 h 7.4956 c 0.16172,-0.75521 0.27006,-2.69584 0.32344,-3.55939 0.91693,1.72552 3.18257,4.20627 8.0891,4.20627 5.60993,0 9.2227,-3.82788 9.2227,-10.8399 v -17.742 h -7.71227 v 16.88002 c 0,3.181 -1.0237,5.44664 -4.47476,5.44664 -3.2909,0 -5.12477,-1.83386 -5.12477,-6.79534 v -15.53132 h -7.76566 v 20.87119 m -43.62646,-0.54011 c 0,2.80418 0,5.23153 -0.055,7.60394 h 7.60394 c 0.10834,-0.64688 0.21668,-3.39767 0.21668,-4.9081 1.24037,3.18257 4.20626,5.50159 8.95107,5.55498 v -7.38727 c -5.60836,0.16172 -8.95107,-1.34871 -8.95107,-9.00603 v -12.1886 h -7.76566 v 20.33108 m -12.85742,-20.33108 v 22.11156 h -2.27035 v 5.82346 h 2.27035 v 2.42736 c 0,5.77007 2.85913,9.54457 8.89926,9.54457 1.24037,0 2.85756,-0.10834 3.55939,-0.32344 v -6.09352 c -0.43177,0.0534 -1.02526,0.10834 -1.61876,0.10834 -2.26407,0 -3.12762,-0.81017 -3.12762,-3.82945 v -1.83386 h 3.93936 v -5.82346 h -3.93936 v -22.11156 h -7.71227 m 82.47205,-40.73596 c 0,8.94009 0,16.67121 -0.17114,24.23433 h 24.23118 c 0.34385,-2.0631 0.6877,-10.82577 0.6877,-15.64123 3.95192,10.1412 13.40542,17.53161 28.53009,17.70432 v -23.54662 c -17.87546,0.51656 -28.53009,-4.29419 -28.53009,-28.70122 v -38.84086 h -24.74774 v 64.79128 m -32.44117,-10.48348 c -0.17114,10.31392 -4.29733,19.07658 -16.32736,19.07658 -11.68774,0 -16.50006,-8.07654 -17.53004,-19.07658 z M 747.9053,173.25269 c 0,-11.17276 5.67117,-21.99852 17.87233,-21.99852 10.31234,0 13.23427,4.12306 15.64122,9.45194 h 24.57503 c -3.09308,-10.82891 -12.88886,-28.7028 -40.73124,-28.7028 -29.38736,0 -42.10508,21.82581 -42.10508,45.20129 0,28.01509 14.26426,47.95051 42.96548,47.95051 30.41891,0 40.90239,-22.17122 40.90239,-44.34402 0,-3.08993 0,-4.98346 -0.34228,-7.5584 H 747.9053 m -79.90495,49.83933 h 13.74926 v 24.06161 h 24.5766 v -24.06161 h 17.53004 V 204.53043 H 706.32621 V 160.5334 c 0,-6.70428 2.0631,-9.27923 9.45194,-9.27923 1.3754,0 3.78077,0 5.50002,0.16957 v -16.84077 c -4.81232,-1.72082 -11.51503,-1.72082 -16.50006,-1.72082 -17.35734,0 -23.0285,9.28237 -23.0285,24.92359 v 46.74469 h -13.74926 v 18.56159 m -82.7641,-22.51351 c 0,7.56155 0,15.80923 -0.17114,22.51351 h 23.88891 c 0.51498,-2.40538 0.8604,-8.5931 1.03154,-11.34233 2.92194,5.50002 10.14121,13.40542 25.77929,13.40542 17.87546,0 29.38892,-12.2043 29.38892,-34.54509 v -56.54361 h -24.5766 v 53.79281 c 0,10.13964 -3.26578,17.36047 -14.26425,17.36047 -10.48349,0 -16.32736,-5.84544 -16.32736,-21.65623 v -49.49705 h -24.74931 v 66.5121 m -37.07293,22.51351 h 24.74931 v -89.02561 h -24.74931 z m 0,14.43539 v 21.99852 h 24.74931 v -21.99852 h -24.74931" /><path
       id="path38"
       style="fill:#f8a7c4;fill-opacity:1;fill-rule:nonzero;stroke:none;stroke-width:0.157009"
       d="m 825.51008,355.67188 c -23.46497,0 -42.4866,18.04817 -42.4866,40.31046 0,2.73196 0.2889,5.39954 0.83529,7.97919 h 23.99881 c -1.21682,-2.41636 -1.89824,-5.12162 -1.89824,-7.97919 0,-10.24483 8.75324,-18.54903 19.55074,-18.54903 2.40538,0 4.71027,0.41294 6.83931,1.16815 v -22.40674 c -2.22639,-0.34228 -4.51086,-0.52284 -6.83931,-0.52284 m 41.4896,31.60589 h -24.22333 c 1.45704,2.59536 2.28448,5.55812 2.28448,8.70457 0,10.24483 -8.75325,18.54903 -19.55075,18.54903 -2.0207,0 -3.96918,-0.29046 -5.80304,-0.83057 v 38.13588 h 21.03605 v -18.21617 c 15.93797,-5.80933 27.2536,-20.46925 27.2536,-37.63817 0,-2.98945 -0.34699,-5.90039 -0.99701,-8.70457" /></g></svg>
