<?xml version="1.0" encoding="UTF-8" standalone="no"?>
<svg
	aria-labelledby="svg-title"
	viewBox="0 0 1079.97 648.01"
	preserveAspectRatio="xMinYmin meet"
	class="logo-svg-content"
	xmlns:inkscape="http://www.inkscape.org/namespaces/inkscape"
	xmlns:sodipodi="http://sodipodi.sourceforge.net/DTD/sodipodi-0.dtd"
	xmlns="http://www.w3.org/2000/svg"
	xmlns:svg="http://www.w3.org/2000/svg">
    <title id="svg-title">Logo Fun Radio (2021)</title>
    <g>
        <g>
            <path fill="#ff0078" d="M646,510.7l-.37-418.45L836.76,51.63c37.73,74,73.91,151.93,98.75,207.29l3.42-.72c-5.39-31-6.29-105.08-6.78-174.53l.17-52.36L1079.64,0V418.53L898,457.14C870,398.28,817.41,282.24,790.34,222l-2.84.6c5.93,47.49,6.17,124.13,6.13,196.67l.26,60Z"></path>
            <path fill="#ff0078" d="M408.07,142.75,408,411.41c-.16,24.41,8,45.87,35.84,39.94,31.85-6.77,31.08-32.76,32.42-54.45l.08-268.67,150.73-32-.28,242.56c-.72,119.65-31.66,183.89-175.57,214.48-135.94,28.89-193-21.4-193.13-136.71l.39-242Z"></path>
            <path fill="#ff0078" d="M0,229.49l239.82-51V289.56L134,312v54l105.78-22.5,0,98.91L134,465V619.52L0,648Z"></path>
            <path fill="#05f" d="M678.27,575.36l.15,29.33-32.23,6.85L646,529.22,694,519c19.59-4.17,31,2.88,33.6,15,2.38,11.19-3.15,19.85-13.41,25,6.1,1.74,12.35,6.38,12.3,21,0,4.92.22,10.37,1.27,14.24l-31.22,6.63c-1.54-2.83-2.31-8.63-2.23-17.07.13-8.21-1.06-11.59-8.78-10Zm0-18.36,9.07-1.93c6-1.28,8.35-5.28,7.42-9.65-.83-3.91-3.52-5.56-8-4.61l-8.5,1.81Z"></path>
            <path fill="#05f" d="M772.05,572.39l-3.3,13.1-33.69,7.16,26-87.88,43.43-9.23,28.39,76.32-32.58,6.92-3.52-11.65Zm18.46-25.45c-1.9-6.15-5.11-18-7.13-25.27l-.78.16c-1.06,7.71-3.4,19.79-5.08,27.87Z"></path>
            <path fill="#05f" d="M840.65,487.85l41.19-8.75c27.31-5.81,44,8.2,47.76,26,6.28,29.55-12.77,48.92-42.2,55.18l-46.68,9.92Zm33,54.63,8.62-1.83c12.54-2.66,14.88-16.38,12.31-28.47-2-9.63-5.64-13.89-14.82-11.94l-6.26,1.33Z"></path>
            <path fill="#05f" d="M973.73,459.56l.08,82.34-32.91,7-.07-82.34Z"></path>
            <path fill="#05f" d="M1078.7,472.35c5.71,26.86-7.65,51-42.79,58.46-32.35,6.88-46.62-8-50.43-25.9-5-23.28,4.5-50.91,41.66-58.8C1059,439.33,1074.94,454.66,1078.7,472.35Zm-58.08,26.73c1.45,6.83,4.76,13,12.37,11.41,13.1-2.78,12.55-24.07,10.27-34.82-1.58-7.39-5.33-11.85-12.5-10.33C1018.56,467.93,1018.51,489.12,1020.62,499.08Z"></path>
        </g>
    </g>
</svg>