<?xml version="1.0" encoding="utf-8"?>
<!-- Generator: Adobe Illustrator 21.1.0, SVG Export Plug-In . SVG Version: 6.00 Build 0)  -->
<svg version="1.1" id="Layer_1" xmlns="http://www.w3.org/2000/svg" xmlns:xlink="http://www.w3.org/1999/xlink" x="0px" y="0px"
	 width="799.6px" height="233.8px" viewBox="0 0 799.6 233.8" style="enable-background:new 0 0 799.6 233.8;" xml:space="preserve"
	>
<style type="text/css">
	.st0{fill:#3A3B3D;}
	.st1{fill:#8C9093;}
</style>
<title>Groupe Rossel</title>
<path class="st0" d="M24,52.7C11,53,0.3,42.8,0,29.9c0-1.1,0-2.3,0.2-3.4C-1.3,13.5,8,1.8,20.9,0.3c0.8-0.1,1.7-0.1,2.6-0.2
	c5.3-0.2,10.6,1.4,15,4.4l-0.9,5.6c-3.9-3.4-9-5.3-14.2-5.4c-11.2,0-18,8.6-18,21.7S12.2,48.1,24,48.1c4.1,0.1,8.1-1,11.6-3.2V30.2
	H23.4l-0.7-5h17.5v22.4c-4.9,3.3-10.7,5.1-16.6,5.1"/>
<path class="st0" d="M86.5,51.2l-5.1,1.1L64.9,29.4h-6.5v22.4h-5V1.2h12.9c10,0,16.2,5,16.2,13.8c0.1,7.1-5.3,13-12.3,13.7 M66,5.6
	h-7.6v19.5h6.8c7.5,0,12.2-3.4,12.2-10S73.4,5.6,66,5.6z"/>
<path class="st0" d="M114.7,52.7c-13-0.4-23.2-11.2-22.8-24.1c0-0.7,0.1-1.4,0.1-2.1c-1.9-12.6,6.8-24.4,19.5-26.2
	s24.4,6.8,26.2,19.5c0.3,2.2,0.3,4.5,0,6.8c1.4,13-7.9,24.7-20.9,26.2c-0.7,0.1-1.4,0.1-2.1,0.1 M114.7,4.8
	c-10.5,0-17.5,8.8-17.5,21.6s7,21.8,17.7,21.8s17.6-8.8,17.6-21.7S125.4,4.8,114.7,4.8L114.7,4.8z"/>
<path class="st0" d="M167,52.6c-9.9,0.6-18.4-7-19-17c-0.1-1,0-2,0.1-3V1.2h5.1v31c0,9.4,4.6,15.9,13.9,15.9s14-5.9,14-15.6V1.2h5.1
	v31.3c1,10.1-6.4,19-16.5,19.9c-0.9,0.1-1.7,0.1-2.6,0.1"/>
<path class="st0" d="M210.2,30.2h-6.3v21.6h-5.1V1.2h12.5c10,0,16.6,5.1,16.6,14.2S220.2,30.2,210.2,30.2 M211,5.6h-7.1v20h6.3
	c7.7,0,12.4-3.4,12.4-10S218.7,5.6,211,5.6z"/>
<polyline class="st0" points="237.9,51.8 237.9,1.2 264.3,1.2 264.3,5.7 243,5.7 243,23 259.8,23 260.6,27.6 243,27.6 243,47.2 
	265.1,47.2 265.1,51.8 "/>
<path class="st1" d="M123.6,214c0.1,8.6-6.7,15.6-15.3,15.7c0,0-0.1,0-0.1,0c-4.8-0.5-9.3-2.9-12.3-6.7l-64-72.1v78.7H0.7V88.8
	C0.6,80.2,7.4,73.2,16,73.1c0,0,0.1,0,0.1,0h54.1c29.8,0.5,53.7,25,53.4,54.9c0,15.4-6.3,30.1-17.6,40.6l-8.9,9.4l21.7,24.6
	C121.8,205.6,123.5,209.6,123.6,214 M76.5,154.9c0,0,3.5-3.2,10-10c4.1-4.5,6.3-10.4,5.9-16.5c0.3-12.8-9.7-23.4-22.5-23.7
	c-0.2,0-0.5,0-0.7,0H31.5L76.5,154.9z"/>
<path class="st0" d="M203.5,68.2c-28.1-0.2-54.2,14.2-69.2,37.9v90.6c25.2,38.1,76.6,48.6,114.7,23.3s48.6-76.6,23.3-114.7
	C257.1,82.2,231.2,68.2,203.5,68.2 M203.5,201c-27.6,0-50-22.4-50-50s22.4-50,50-50s50,22.4,50,50C253.5,178.6,231.1,201,203.5,201
	c0,0-0.1,0-0.1,0H203.5z"/>
<path class="st1" d="M378.9,137c-4.2-0.8-8.4-1.3-12.7-1.4h-28.7c-8.6,0-15.6-7-15.6-15.7s7-15.7,15.6-15.7h60
	c8.6,0,15.6-7,15.6-15.6s-7-15.6-15.6-15.6h-60.9c-25.5,0.5-45.8,21.6-45.3,47.1c0,0,0,0,0,0c-0.3,21.3,13.8,40,34.3,45.7
	c3.9,0.7,7.8,1.1,11.7,1.2h28.8c8.6,0,15.6,7,15.6,15.6c0,8.6-7,15.6-15.6,15.6h-74.9v31.2h72.1h4.6c25.5-0.5,45.8-21.6,45.3-47.1
	c0,0,0,0,0,0c0.3-21.3-13.8-40-34.3-45.7"/>
<path class="st1" d="M507,137c-4.2-0.8-8.4-1.3-12.7-1.4h-28.7c-8.6,0-15.6-7-15.6-15.7s7-15.7,15.6-15.7h60c8.6,0,15.6-7,15.6-15.6
	s-7-15.6-15.6-15.6h-60.9c-25.5,0.5-45.8,21.6-45.3,47.1c0,0,0,0,0,0c-0.3,21.3,13.8,40,34.3,45.7c3.9,0.7,7.8,1.1,11.7,1.2h28.8
	c8.6,0,15.6,7,15.6,15.6c0,8.6-7,15.6-15.6,15.6l0,0h-74.9v31.2h72.1h4.6c25.5-0.5,45.8-21.6,45.3-47.1c0,0,0,0,0,0
	c0.3-21.3-13.8-40-34.3-45.7"/>
<path class="st1" d="M799.6,198.2h-84.9V86.8l0,0c-0.7-8.6-8.3-15.1-16.9-14.4c-7.7,0.6-13.8,6.7-14.4,14.4l0,0v127.7l0,0
	c0.2,8.4,7.2,15,15.6,14.8c0,0,0,0,0,0h100"/>
<path class="st1" d="M553.9,88.4L553.9,88.4v125.5l0,0c0.3,8.7,7.6,15.6,16.3,15.4h101.1v-30.9h-84.8V167h41c8.7-0.1,15.7-7,16-15.7
	c-0.2-8.8-7.5-15.7-16.3-15.5c0,0,0,0,0,0h-40.8v-31.6h68.8c8.6,0.7,16.2-5.8,16.9-14.4s-5.8-16.2-14.4-16.9c-0.8-0.1-1.7-0.1-2.5,0
	h-85C561.4,72.7,554.1,79.6,553.9,88.4C553.9,88.4,553.9,88.4,553.9,88.4"/>
</svg>
