<?xml version="1.0" encoding="UTF-8" standalone="no"?>
<!-- Created with Inkscape (http://www.inkscape.org/) -->
<svg
   xmlns:svg="http://www.w3.org/2000/svg"
   xmlns="http://www.w3.org/2000/svg"
   version="1.0"
   width="779.49213"
   height="467.11417"
   id="svg2299">
  <defs
     id="defs2301" />
  <g
     transform="translate(-30.54726,-347.9925)"
     id="layer1">
    <path
       d="M 419.43748,499.94939 L 620.23045,499.94939 M 519.99855,401.03422 L 519.99855,599.88512"
       style="fill:#6cbb00;fill-opacity:1;fill-rule:nonzero;stroke:#6cbb00;stroke-width:7.24171352;stroke-linecap:butt;stroke-linejoin:miter;stroke-miterlimit:3.86400008;stroke-dasharray:none;stroke-opacity:1"
       id="path56" />
    <path
       d="M 248.59886,574.91755 C 316.57222,580.89209 327.10563,580.52995 327.10563,598.17335 C 327.10563,598.1075 327.10563,598.17335 327.10563,598.17335 L 327.10563,712.5595 C 327.10563,737.06618 329.40981,798.57141 235.26753,801.18825 C 105.2623,804.80905 116.83259,593.5815 116.83259,593.5815 C 116.83259,593.5815 115.51591,357.5839 236.25503,356.92561 C 346.03283,356.43179 400.51026,506.86192 400.51026,546.52683 L 400.51026,358.4068 C 400.51026,358.4068 369.23923,424.73432 358.37666,424.73432 C 351.95787,424.73432 312.62219,357.09021 236.25503,357.09021 C 160.00308,357.09021 39.477921,434.93858 39.477921,593.5815 C 39.477921,753.01439 150.06218,799.27908 233.95085,801.18825 C 311.4701,802.94927 328.75146,741.24664 367.4288,741.24664 C 404.46029,741.24664 407.42281,802.35682 407.42281,806.17515 L 407.42281,598.17335 C 407.42281,598.17335 407.42281,598.20627 407.42281,598.27211 C 407.42281,580.7604 419.1083,580.72748 485.10664,574.91755 L 248.59886,574.91755 z "
       style="fill:#6cbb00;fill-opacity:1;fill-rule:nonzero;stroke:#6cbb00;stroke-width:7.24171352;stroke-linecap:butt;stroke-linejoin:miter;stroke-miterlimit:3.86400008;stroke-dasharray:none;stroke-opacity:1"
       id="path58" />
    <path
       d="M 537.125,353.46875 L 536.875,360.71875 L 537.125,360.71875 L 600.09375,364.65625 L 600.1875,364.65625 L 600.28125,364.65625 C 618.08359,364.81306 625.11495,370.94952 628.46875,376.71875 C 631.82255,382.48798 631.28125,388.15625 631.28125,388.15625 L 631.25,388.34375 L 631.25,388.53125 L 631.4375,725.84375 C 631.4375,725.84375 631.1621,744.07476 623.875,762.15625 C 620.23145,771.19699 614.87896,780.09862 607.09375,786.65625 C 599.43887,793.1041 589.42292,797.35694 575.78125,797.5 C 575.51453,797.50106 575.23464,797.53125 574.96875,797.53125 C 573.93718,797.53125 572.82182,797.40172 571.75,797.34375 C 570.42396,797.28229 569.10629,797.22411 567.8125,797.09375 C 563.10847,796.55307 558.12295,795.51937 553,793.96875 C 551.20982,793.4269 549.37681,792.75693 547.5625,792.09375 C 534.29538,786.57888 523.46785,777.45288 515.28125,767.28125 C 508.63747,759.02653 503.77982,750.10528 500.9375,742.09375 C 499.04424,736.75729 498.1707,731.8885 498.03125,727.9375 C 503.75823,732.61283 513.82119,738.56249 530.6875,738.5625 C 545.56057,738.5625 558.30793,733.54913 567.25,724.625 C 576.19207,715.70087 581.21875,702.95464 581.21875,688.0625 C 581.21875,658.07954 558.46461,637.09378 530.375,637.09375 C 515.82502,637.09375 501.40794,641.49711 490.65625,652 C 479.90456,662.50289 473.09374,678.93259 473.09375,701.9375 L 473.09375,710.0625 L 473.71875,709.5 C 475.96915,738.86375 490.61679,762.13812 509.4375,778.15625 C 522.55861,789.3235 537.57557,797.07008 551.9375,801.21875 C 554.1706,801.90801 556.46965,802.47351 558.8125,802.96875 C 559.11704,803.03306 559.41524,803.09539 559.71875,803.15625 C 562.02135,803.61448 564.34498,803.99618 566.75,804.25 C 568.7467,804.4787 570.67307,804.58969 572.59375,804.65625 C 573.45067,804.68349 574.25626,804.8125 575.125,804.8125 C 575.35638,804.8125 575.5514,804.75223 575.78125,804.75 C 605.07383,804.6406 639.02574,798.54509 666.15625,782.78125 C 693.534,766.87375 713.875,740.62038 713.875,701.875 L 713.875,388.6875 L 713.875,388.53125 L 713.875,388.375 C 713.875,388.375 713.41865,382.85543 716.84375,377.1875 C 720.26885,371.51957 727.38508,365.46938 745.03125,365.3125 L 745.15625,365.3125 L 745.28125,365.3125 L 801.03125,360.71875 L 801.09375,360.71875 L 801.40625,360.6875 L 801.09375,353.46875 L 800.8125,353.46875 L 537.34375,353.46875 L 537.125,353.46875 z "
       style="fill:#6cbb00;fill-opacity:1;fill-rule:nonzero;stroke:none;stroke-width:7.24171352;stroke-linecap:butt;stroke-linejoin:miter;stroke-miterlimit:3.86400008;stroke-dasharray:none;stroke-opacity:1"
       id="path60" />
  </g>
</svg>
