<?xml version="1.0" encoding="UTF-8" standalone="no"?>
<!-- Generator: Adobe Illustrator 24.3.0, SVG Export Plug-In . SVG Version: 6.00 Build 0)  -->

<svg
   version="1.1"
   id="Calque_1"
   x="0px"
   y="0px"
   viewBox="0 0 599.99999 111.03896"
   xml:space="preserve"
   sodipodi:docname="Logo L'Alsace - 2022.svg"
   width="600"
   height="111.03896"
   inkscape:version="1.2 (dc2aeda, 2022-05-15)"
   xmlns:inkscape="http://www.inkscape.org/namespaces/inkscape"
   xmlns:sodipodi="http://sodipodi.sourceforge.net/DTD/sodipodi-0.dtd"
   xmlns="http://www.w3.org/2000/svg"
   xmlns:svg="http://www.w3.org/2000/svg"><defs
   id="defs225" /><sodipodi:namedview
   id="namedview223"
   pagecolor="#ffffff"
   bordercolor="#666666"
   borderopacity="1.0"
   inkscape:showpageshadow="2"
   inkscape:pageopacity="0.0"
   inkscape:pagecheckerboard="0"
   inkscape:deskcolor="#d1d1d1"
   showgrid="false"
   inkscape:zoom="1.4638351"
   inkscape:cx="260.27522"
   inkscape:cy="30.058031"
   inkscape:window-width="1920"
   inkscape:window-height="1080"
   inkscape:window-x="0"
   inkscape:window-y="0"
   inkscape:window-maximized="0"
   inkscape:current-layer="Calque_1" />
<style
   type="text/css"
   id="style182">
	.st0{fill:#e2000b;}
</style>
<path
   class="st0"
   d="M 90.779221,2.9220779 81.428571,44.61039 H 62.532468 L 67.207792,2.9220779 Z"
   id="path184"
   style="stroke-width:1.94805" /><path
   class="st0"
   d="M 209.61039,2.9220779 V 84.545455 h 43.05195 L 250.32468,108.7013 H 183.50649 V 2.9220779 Z"
   id="path186"
   style="stroke-width:1.94805" /><path
   class="st0"
   d="m 285.38961,84.74026 c 2.72727,2.337662 7.01299,3.701298 12.46753,3.701298 4.67533,0 8.18182,-0.974026 10.32468,-2.727272 2.33766,-1.753247 3.50649,-4.285715 3.50649,-7.597403 0,-2.532467 -0.77922,-4.480519 -2.33766,-6.233766 -1.55844,-1.558442 -4.28571,-2.922078 -8.37662,-3.701299 l -12.85715,-2.727273 c -10.71428,-2.142857 -18.7013,-5.844155 -23.96104,-10.90909 -5.25974,-5.064936 -7.7922,-12.272728 -7.7922,-21.233767 0,-10.909091 3.50649,-19.285714 10.32467,-24.7402594 7.01299,-5.6493507 16.55844,-8.37662341 28.63637,-8.37662341 7.01298,0 13.05194,0.97402601 18.11688,2.72727271 5.06493,1.7532468 9.15584,4.0909091 12.27273,7.012987 3.11688,2.9220781 5.64935,6.4285711 7.20779,10.3246751 1.55844,3.896104 2.72727,7.987013 3.11688,12.272728 l -25.32467,2.727272 c -0.77923,-4.285714 -2.33767,-7.402597 -4.67533,-9.545454 -2.33766,-2.142857 -5.84415,-3.116883 -10.90909,-3.116883 -4.48052,0 -7.79221,0.77922 -9.93506,2.532467 -2.14286,1.753247 -3.11689,3.896104 -3.11689,6.623377 0,2.532467 0.77922,4.480519 2.53247,5.844156 1.75325,1.558441 4.48052,2.532467 8.37662,3.311688 l 13.24676,2.727273 c 11.4935,2.532467 19.48052,6.428571 24.35065,11.883117 4.87013,5.454545 7.20779,12.467532 7.20779,20.844155 0,5.259741 -0.77922,9.935065 -2.53247,14.22078 -1.55844,4.285714 -4.09091,7.792207 -7.4026,10.909094 -3.31169,3.11688 -7.5974,5.25974 -12.85714,7.01298 -5.25974,1.75325 -11.2987,2.53247 -18.31169,2.53247 -26.88312,-0.1948 -41.10389,-12.662337 -42.46753,-37.402596 h 26.1039 c 0.58441,5.064935 2.14285,8.766233 5.06493,11.103896 z"
   id="path188"
   style="stroke-width:1.94805" /><path
   class="st0"
   d="m 517.4026,86.103896 c -1.94805,5.064935 -4.67533,9.350649 -8.18182,13.051948 -3.50649,3.701296 -7.98701,6.623376 -13.24675,8.766236 -5.25974,2.14286 -11.29871,3.11688 -18.31169,3.11688 -7.98702,0 -14.8052,-1.36364 -20.64935,-4.09091 -5.84416,-2.72727 -10.71429,-6.42857 -14.41559,-11.298699 -3.8961,-4.87013 -6.62337,-10.714286 -8.57143,-17.337663 -1.94805,-6.818182 -2.92207,-14.220779 -2.92207,-22.207792 0,-8.376623 0.97402,-15.779221 2.92207,-22.792208 1.94806,-6.818182 4.87013,-12.662337 8.76624,-17.727272 3.8961,-5.064935 8.76623,-8.7662342 14.80519,-11.4935069 C 463.44156,1.3636364 470.25974,0 478.24675,0 c 12.07793,0 21.42857,3.3116883 28.05195,9.7402597 6.62338,6.4285713 11.1039,15.5844153 12.85714,27.6623373 l -26.10389,3.311689 c -0.38961,-2.337663 -0.97403,-4.48052 -1.75325,-6.428572 -0.77922,-1.948052 -1.75325,-3.701298 -2.92208,-5.064935 -1.16883,-1.363636 -2.72727,-2.532467 -4.48052,-3.311688 -1.75324,-0.779221 -4.09091,-1.168831 -6.62337,-1.168831 -12.46754,0 -18.7013,10.324675 -18.7013,30.974026 0,5.64935 0.38961,10.51948 1.36363,14.610389 0.97403,4.090909 2.14286,7.207793 3.89611,9.74026 1.75325,2.532468 3.7013,4.285714 6.03896,5.25974 2.33766,1.168831 4.87013,1.558442 7.5974,1.558442 9.54546,0 15,-5.649351 16.36364,-16.948052 h 26.68831 c -0.1948,5.844156 -1.36364,11.298701 -3.11688,16.168831 z"
   id="path190"
   style="stroke-width:1.94805" /><path
   class="st0"
   d="M 597.27273,2.9220779 V 26.298701 h -44.22078 v 16.753247 h 41.4935 v 23.376623 h -41.4935 V 85.12987 H 600 l -2.14286,23.37662 H 527.53247 V 2.9220779 Z"
   id="path192"
   style="stroke-width:1.94805" /><polygon
   class="st0"
   points="74,1.4 58.7,1.4 41.4,55.6 54.9,55.6 57.7,45.2 68.2,45.2 65,33.6 61,33.6 66.1,14.9 66.3,15.4 74.5,45.2 77.4,55.6 91.3,55.6 "
   id="polygon196"
   transform="matrix(1.9480519,0,0,1.9480519,0,0.19480519)" /><polygon
   class="st0"
   points="206.2,45.2 207.4,49.7 209.1,55.6 223,55.6 205.6,1.4 190.4,1.4 173.1,55.6 186.5,55.6 189.3,45.2 199.9,45.2 196.6,33.6 192.6,33.6 197.8,14.9 "
   id="polygon198"
   transform="matrix(1.9480519,0,0,1.9480519,0,0.19480519)" /><rect
   y="2.9220779"
   class="st0"
   width="26.103895"
   height="65.454544"
   id="rect206"
   x="0"
   style="stroke-width:1.94805" /><polygon
   class="st0"
   points="35.5,43.2 13.4,43.2 0,43.2 0,55.6 34.3,55.6 "
   id="polygon208"
   transform="matrix(1.9480519,0,0,1.9480519,0,0.19480519)" />
</svg>
