<?xml version="1.0" encoding="UTF-8" standalone="no"?>
<!-- Generator: Adobe Illustrator 24.3.0, SVG Export Plug-In . SVG Version: 6.00 Build 0)  -->

<svg
   version="1.1"
   id="Calque_1"
   x="0px"
   y="0px"
   viewBox="0 0 700.00001 343.68229"
   xml:space="preserve"
   sodipodi:docname="LER.svg"
   width="700"
   height="343.68228"
   inkscape:version="1.2 (dc2aeda, 2022-05-15)"
   xmlns:inkscape="http://www.inkscape.org/namespaces/inkscape"
   xmlns:sodipodi="http://sodipodi.sourceforge.net/DTD/sodipodi-0.dtd"
   xmlns="http://www.w3.org/2000/svg"
   xmlns:svg="http://www.w3.org/2000/svg"><defs
   id="defs245" /><sodipodi:namedview
   id="namedview243"
   pagecolor="#ffffff"
   bordercolor="#666666"
   borderopacity="1.0"
   inkscape:showpageshadow="2"
   inkscape:pageopacity="0.0"
   inkscape:pagecheckerboard="0"
   inkscape:deskcolor="#d1d1d1"
   showgrid="false"
   inkscape:zoom="0.69330201"
   inkscape:cx="92.311863"
   inkscape:cy="49.040677"
   inkscape:window-width="1920"
   inkscape:window-height="1080"
   inkscape:window-x="0"
   inkscape:window-y="0"
   inkscape:window-maximized="0"
   inkscape:current-layer="Calque_1" />
<style
   type="text/css"
   id="style182">
	.st0{fill:#FFFFFF;}
</style>
<rect
   style="fill:#e2000b;fill-opacity:1;stroke-width:8.14654;stroke-linejoin:bevel"
   id="rect470"
   width="700"
   height="343.68228"
   x="0"
   y="0" /><g
   id="g1291"
   transform="matrix(3.5040536,0,0,3.5040536,18.516525,22.743664)"><g
     id="g1269"><path
       class="st0"
       d="m 70.7,64.6 h 6.1 c 1.9,0 3.5,0.5 4.5,1.5 1.1,1 1.6,2.3 1.6,3.8 0,1.4 -0.3,2.6 -1,3.9 -0.7,1.2 -1.8,2.2 -3.2,3 l 2.4,4.7 h -3.8 l -1.8,-3.9 c -0.5,0 -1.3,0.1 -2.3,0.1 h -1.4 l -0.7,3.8 h -3.4 z m 4.6,9.9 c 1.2,0 2.2,-0.4 2.9,-1.2 0.7,-0.8 1.2,-1.8 1.2,-2.9 0,-0.8 -0.2,-1.4 -0.7,-1.9 -0.5,-0.5 -1.2,-0.7 -2,-0.7 h -3.1 l -1.2,6.8 h 2.9 z"
       id="path206" /><path
       class="st0"
       d="m 85,70.3 c 1.2,-1.4 2.7,-2.1 4.6,-2.1 1.8,0 3.2,0.6 4.2,1.7 1,1.1 1.5,2.7 1.5,4.5 0,0.7 -0.1,1.2 -0.2,1.7 h -8.7 c 0.1,0.6 0.3,1.1 0.7,1.5 0.4,0.4 0.8,0.7 1.2,0.8 0.4,0.1 0.8,0.2 1.2,0.2 1,0 1.9,-0.3 2.5,-0.9 l 1.9,2.2 c -1.3,1.1 -2.8,1.7 -4.6,1.7 -1.8,0 -3.3,-0.6 -4.4,-1.8 -1.2,-1.2 -1.7,-2.6 -1.7,-4.4 0,-1.9 0.6,-3.7 1.8,-5.1 z m 7.3,3.4 C 92.2,73 92,72.4 91.5,71.9 91,71.5 90.4,71.2 89.7,71.2 c -0.6,0 -1.3,0.2 -1.8,0.7 -0.5,0.5 -1,1 -1.2,1.8 z M 91.5,62.6 h 3.2 L 91,66.7 h -2.6 z"
       id="path208" /><path
       class="st0"
       d="m 97.9,68.5 h 3.1 l -0.4,1.9 c 0.8,-1.4 2,-2.1 3.6,-2.1 1.4,0 2.6,0.6 3.5,1.7 0.9,1.1 1.4,2.6 1.4,4.2 0,2 -0.6,3.8 -1.7,5.3 -1.1,1.5 -2.6,2.3 -4.5,2.3 -1.8,0 -3,-0.7 -3.7,-2.1 l -1,5.4 H 95 Z m 2.8,8.9 c 0.5,0.6 1.1,0.9 2,0.9 0.9,0 1.6,-0.3 2.2,-1.1 0.6,-0.7 0.9,-1.6 0.9,-2.7 0,-0.9 -0.3,-1.6 -0.8,-2.2 -0.5,-0.6 -1.1,-0.8 -1.9,-0.8 -1,0 -1.7,0.4 -2.3,1.1 -0.6,0.7 -0.8,1.6 -0.8,2.5 -0.1,1 0.2,1.7 0.7,2.3 z"
       id="path210" /><path
       class="st0"
       d="m 111.5,68.5 h 3.2 l -1.2,6.8 c -0.1,0.6 -0.2,1.1 -0.2,1.5 0,1.1 0.6,1.7 1.8,1.7 0.8,0 1.5,-0.3 2,-0.9 0.5,-0.6 0.9,-1.4 1.1,-2.5 l 1.2,-6.5 h 3.2 l -2.3,13 h -3.2 l 0.3,-1.7 c -1.1,1.3 -2.4,1.9 -3.8,1.9 -2.4,0 -3.6,-1.3 -3.6,-3.8 0,-0.6 0.1,-1.4 0.3,-2.3 z"
       id="path212" /><path
       class="st0"
       d="m 125.2,64.4 h 3.2 l -1.3,6 c 0.8,-1.4 2,-2.1 3.6,-2.1 1.4,0 2.6,0.6 3.5,1.7 0.9,1.1 1.4,2.6 1.4,4.2 0,2 -0.6,3.8 -1.7,5.3 -1.1,1.5 -2.6,2.3 -4.5,2.3 -1.8,0 -3,-0.7 -3.7,-2.1 l -0.4,1.8 h -3.2 z m 2.2,8.3 c -0.6,0.7 -0.8,1.6 -0.8,2.6 0,0.8 0.2,1.6 0.7,2.2 0.5,0.6 1.1,0.9 2,0.9 0.9,0 1.6,-0.3 2.2,-1.1 0.6,-0.7 0.9,-1.6 0.9,-2.7 0,-0.9 -0.3,-1.6 -0.8,-2.2 -0.5,-0.6 -1.1,-0.8 -1.8,-0.8 -1,0 -1.8,0.4 -2.4,1.1 z"
       id="path214" /><path
       class="st0"
       d="m 138.8,64.4 h 3.2 l -3,17.1 h -3.2 z"
       id="path216" /><path
       class="st0"
       d="m 143.3,68.5 h 3.2 l -2.3,13 H 141 Z m 0.9,-4.8 c 0.4,-0.4 0.8,-0.6 1.3,-0.6 0.5,0 1,0.2 1.4,0.6 0.4,0.4 0.6,0.9 0.6,1.5 0,0.6 -0.2,1.1 -0.6,1.5 -0.4,0.4 -0.8,0.6 -1.4,0.6 -0.5,0 -1,-0.2 -1.3,-0.6 -0.3,-0.4 -0.6,-0.9 -0.6,-1.5 0,-0.6 0.2,-1.1 0.6,-1.5 z"
       id="path218" /><path
       class="st0"
       d="m 148.6,70.4 c 1.3,-1.4 2.8,-2.1 4.7,-2.1 1.9,0 3.5,0.6 4.8,1.9 l -2.5,2.4 c -0.5,-0.6 -1.3,-0.9 -2.3,-0.9 -0.9,0 -1.7,0.4 -2.3,1.1 -0.6,0.7 -0.9,1.6 -0.9,2.6 0,0.9 0.3,1.6 0.8,2.2 0.6,0.6 1.3,0.9 2.2,0.9 0.9,0 1.7,-0.3 2.3,-0.9 l 2.1,2.4 c -1.1,1.3 -2.7,1.9 -4.6,1.9 -1.9,0 -3.4,-0.6 -4.5,-1.7 -1.1,-1.1 -1.7,-2.6 -1.7,-4.5 0,-2.2 0.6,-3.9 1.9,-5.3 z"
       id="path220" /><path
       class="st0"
       d="m 159.5,70.5 c 1.1,-1.5 2.5,-2.3 4.3,-2.3 0.8,0 1.6,0.2 2.3,0.6 0.7,0.4 1.3,1 1.7,1.8 l 0.4,-2.1 h 3.2 l -2.3,13 h -3 l 0.3,-1.5 c -0.9,1.2 -2.1,1.8 -3.7,1.8 -1.4,0 -2.6,-0.6 -3.5,-1.7 -0.9,-1.1 -1.4,-2.6 -1.4,-4.3 0.1,-2 0.6,-3.8 1.7,-5.3 z m 2.4,7.1 c 0.5,0.5 1.1,0.8 1.8,0.8 1,0 1.8,-0.4 2.4,-1.1 0.6,-0.7 0.9,-1.6 0.9,-2.5 0,-0.8 -0.3,-1.5 -0.8,-2.2 -0.5,-0.6 -1.2,-0.9 -2.1,-0.9 -0.9,0 -1.6,0.4 -2.2,1.1 -0.6,0.7 -0.9,1.6 -0.9,2.7 0.2,0.8 0.4,1.5 0.9,2.1 z"
       id="path222" /><path
       class="st0"
       d="m 173.4,68.5 h 3.2 l -2.3,13 h -3.2 z m 0.9,-4.8 c 0.4,-0.4 0.8,-0.6 1.3,-0.6 0.5,0 1,0.2 1.4,0.6 0.4,0.4 0.6,0.9 0.6,1.5 0,0.6 -0.2,1.1 -0.6,1.5 -0.4,0.4 -0.8,0.6 -1.4,0.6 -0.5,0 -1,-0.2 -1.3,-0.6 -0.3,-0.4 -0.6,-0.9 -0.6,-1.5 0,-0.6 0.2,-1.1 0.6,-1.5 z"
       id="path224" /><path
       class="st0"
       d="m 178.6,68.5 h 3.2 l -0.3,1.7 c 1.1,-1.3 2.5,-1.9 4,-1.9 2.4,0 3.6,1.3 3.6,3.8 0,0.5 -0.1,1.3 -0.3,2.3 l -1.3,7.2 h -3.2 l 1.2,-6.8 c 0.1,-0.5 0.2,-1 0.2,-1.4 0,-1.1 -0.6,-1.7 -1.8,-1.7 -0.8,0 -1.5,0.3 -2.2,0.9 -0.6,0.6 -1,1.4 -1.2,2.4 l -1.1,6.5 h -3.2 z"
       id="path226" /></g><g
     id="g1256"><path
       class="st0"
       d="M 50.7,1.4 45.5,22.8 H 35 L 37.6,1.4 Z"
       id="path184" /><path
       class="st0"
       d="m 93.8,1.4 v 12 H 69.2 V 22 H 92.3 V 34 H 69.2 v 9.6 h 26.2 l -1.2,12 H 54.9 V 1.4 Z"
       id="path186" /><path
       class="st0"
       d="m 113.6,43.4 c 1.6,1.2 3.9,1.9 6.9,1.9 2.6,0 4.5,-0.5 5.8,-1.4 1.3,-0.9 1.9,-2.2 1.9,-3.9 0,-1.3 -0.4,-2.3 -1.3,-3.2 -0.9,-0.8 -2.4,-1.5 -4.7,-1.9 L 115,33.5 c -6,-1.1 -10.5,-3 -13.4,-5.6 -2.9,-2.6 -4.3,-6.3 -4.3,-10.9 0,-5.6 1.9,-9.9 5.8,-12.7 3.9,-2.9 9.2,-4.3 16,-4.3 3.9,0 7.3,0.5 10.1,1.4 2.8,0.9 5.1,2.1 6.8,3.6 1.7,1.5 3.1,3.3 4,5.3 0.9,2 1.5,4.1 1.7,6.3 l -14,1.4 c -0.5,-2.2 -1.3,-3.8 -2.6,-4.9 -1.3,-1.1 -3.3,-1.6 -6,-1.6 -2.5,0 -4.3,0.4 -5.5,1.3 -1.2,0.9 -1.8,2 -1.8,3.4 0,1.3 0.5,2.3 1.4,3 1,0.8 2.5,1.3 4.6,1.8 l 7.4,1.4 c 6.4,1.3 10.9,3.3 13.6,6.1 2.7,2.8 4,6.4 4,10.7 0,2.7 -0.5,5.1 -1.4,7.3 -0.9,2.2 -2.3,4 -4.2,5.6 -1.9,1.5 -4.3,2.7 -7.1,3.6 -2.9,0.9 -6.3,1.3 -10.2,1.3 C 104.9,56.9 97,50.5 96.2,37.8 h 14.5 c 0.4,2.5 1.3,4.4 2.9,5.6 z"
       id="path188" /><rect
       y="1.4"
       class="st0"
       width="14.6"
       height="33.599998"
       id="rect192"
       x="0" /><polygon
       class="st0"
       points="38.6,43.2 14.6,43.2 0,43.2 0,55.6 37.3,55.6 "
       id="polygon194" /><polygon
       class="st0"
       points="189.2,13.8 189.2,1.4 143.3,1.4 143.3,13.8 158.9,13.8 173.5,13.8 "
       id="polygon234" /><rect
       x="158.89999"
       y="22.1"
       class="st0"
       width="14.6"
       height="33.599998"
       id="rect236" /></g></g>
</svg>
