<?xml version="1.0" encoding="UTF-8" standalone="no"?>
<svg
   xmlns:dc="http://purl.org/dc/elements/1.1/"
   xmlns:cc="http://creativecommons.org/ns#"
   xmlns:rdf="http://www.w3.org/1999/02/22-rdf-syntax-ns#"
   xmlns:svg="http://www.w3.org/2000/svg"
   xmlns="http://www.w3.org/2000/svg"
   version="1.1"
   id="svg6072"
   viewBox="0 0 520.68897 109.04396"
   height="30.774628mm"
   width="146.95mm">
  <defs
     id="defs6074">
    <clipPath
       id="clipPath4323"
       clipPathUnits="userSpaceOnUse">
      <path
         style="clip-rule:evenodd"
         id="path4325"
         d="m 666.142,1093.38 -637.795,0 0,113.386 637.795,0 0,-113.386 z" />
    </clipPath>
    <clipPath
       id="clipPath4329"
       clipPathUnits="userSpaceOnUse">
      <path
         id="path4331"
         d="m 0.059998,1303.98 878.760002,0 0,-1303.92 -878.760002,0 0,1303.92 z" />
    </clipPath>
    <clipPath
       id="clipPath4299"
       clipPathUnits="userSpaceOnUse">
      <path
         id="path4301"
         d="m 26.292,1209.823 637.759,0 0,-119.466 -637.759,0 0,119.466 z" />
    </clipPath>
    <clipPath
       id="clipPath4305"
       clipPathUnits="userSpaceOnUse">
      <path
         style="clip-rule:evenodd"
         id="path4307"
         d="m 666.142,1093.38 -637.795,0 0,113.386 637.795,0 0,-113.386 z" />
    </clipPath>
    <clipPath
       id="clipPath4311"
       clipPathUnits="userSpaceOnUse">
      <path
         id="path4313"
         d="m 0.059998,1303.98 878.760002,0 0,-1303.92 -878.760002,0 0,1303.92 z" />
    </clipPath>
  </defs>
  <metadata
     id="metadata6077">
    <rdf:RDF>
      <cc:Work
         rdf:about="">
        <dc:format>image/svg+xml</dc:format>
        <dc:type
           rdf:resource="http://purl.org/dc/dcmitype/StillImage" />
        <dc:title></dc:title>
      </cc:Work>
    </rdf:RDF>
  </metadata>
    <rect
       y="0"
       x="0"
       height="100%"
       width="100%"
       id="rect7026"
       style="color:#000000;clip-rule:nonzero;display:inline;overflow:visible;visibility:visible;opacity:1;isolation:auto;mix-blend-mode:normal;color-interpolation:sRGB;color-interpolation-filters:linearRGB;solid-color:#000000;solid-opacity:1;fill:#e3001b;fill-opacity:1;fill-rule:nonzero;stroke:none;stroke-width:2;stroke-linecap:butt;stroke-linejoin:bevel;stroke-miterlimit:4;stroke-dasharray:none;stroke-dashoffset:0;stroke-opacity:1;color-rendering:auto;image-rendering:auto;shape-rendering:auto;text-rendering:auto;enable-background:accumulate" />
  <g
     transform="translate(-32.44183,-407.37482)"
     id="layer1">
    <path
       id="path4335"
       style="fill:#ffffff;fill-opacity:1;fill-rule:nonzero;stroke:none"
       d="m 196.22006,421.54805 -3.6725,17.59375 -5.12375,0 0.55625,-3.00625 c 0.89125,-4.90125 -1.0025,-8.12875 -10.02125,-8.12875 l -19.81875,0 -5.01375,23.83 12.02625,0 c 11.58,0 13.2525,-0.44875 14.25375,-7.7925 l 5.23375,0 -4.79,22.825 -5.1225,0 0.335,-1.6725 c 1.00375,-4.8975 0.33625,-6.90375 -10.13375,-6.90375 l -13.1375,0 -5.4575,25.27625 14.0325,0 c 16.0325,0 18.3725,-1.11375 22.38,-10.8 l 5.23375,0 -3.6725,17.25875 -66.81125,0 1.00125,-5.12125 2.67375,0 c 6.67875,0 8.90625,-1.2225 10.90875,-10.46375 l 8.46375,-39.53 c 1.45,-6.57 -0.66625,-8.2425 -6.56875,-8.2425 l -3.8975,0 1.00375,-5.1225 65.13875,0" />
    <path
       id="path4339"
       style="fill:#ffffff;fill-opacity:1;fill-rule:nonzero;stroke:none"
       d="m 245.41631,475.56805 c 5.30375,9.1575 7.71375,10.02625 10.70375,10.02625 l 2.21625,0 -0.8675,4.43625 -32.78,0 0.9675,-4.43625 2.6025,0 c 3.3725,0 4.145,-2.025 4.145,-3.18125 0,-2.12125 -0.7725,-3.6625 -2.31375,-6.36125 l -5.8825,-10.2225 -13.01375,13.20875 c -1.8325,1.8325 -2.2175,2.79875 -2.2175,3.5675 0,2.7 3.3725,2.98875 5.88,2.98875 l 2.69875,0 -0.96375,4.43625 -26.125,0 0.865,-4.43625 2.02375,0 c 3.57,0 4.72625,-1.34875 11.76375,-8.38625 l 16.195,-16.38875 -8.77125,-15.42625 c -4.33875,-7.615 -7.42375,-10.21875 -11.8575,-10.21875 l -2.41,0 0.96375,-4.4375 35.28375,0 -0.9625,4.4375 -2.60375,0 c -3.1825,0 -5.5925,1.2525 -5.5925,2.9875 0,0.9625 0.0975,2.5075 1.06125,4.24125 l 7.135,12.4375 12.72625,-13.1125 c 1.83125,-1.83 2.2175,-2.795 2.2175,-3.6625 0,-1.83375 -2.02625,-2.89125 -5.88125,-2.89125 l -2.6025,0 0.965,-4.4375 26.12375,0 -0.96375,4.4375 -2.02375,0 c -3.7625,0 -5.205,1.6375 -11.76375,8.38875 l -16.00125,16.29125 9.06,15.71375" />
    <path
       id="path4343"
       style="fill:#ffffff;fill-opacity:1;fill-rule:nonzero;stroke:none"
       d="m 289.75256,485.5968 4.05,0 -0.96375,4.43375 -33.745,0 0.96375,-4.43375 2.3125,0 c 6.36375,0 7.90625,-1.545 9.45125,-9.0625 l 7.325,-34.705 c 1.06125,-5.01375 -0.48125,-6.655 -5.59125,-6.655 l -3.5675,0 0.965,-4.4325 31.13625,0 c 19.7675,0 23.24125,7.22875 23.24125,14.0725 0,12.92125 -9.64625,18.605 -24.87625,18.605 l -12.63125,0 -3.2775,15.62125 c -1.1575,5.3025 0.77125,6.55625 5.2075,6.55625 m -0.77375,-27.77 5.49625,0 c 7.61375,0 15.715,-2.2125 15.715,-13.58875 0,-5.20625 -2.315,-7.905 -11.4725,-7.905 l -4.915,0 -4.82375,21.49375" />
    <path
       id="path4347"
       style="fill:#ffffff;fill-opacity:1;fill-rule:nonzero;stroke:none"
       d="m 441.27631,430.74055 -3.18125,15.22875 -4.435,0 0.4825,-2.6 c 0.77125,-4.24375 -0.86625,-7.03625 -8.6775,-7.03625 l -17.16125,0 -4.33875,20.63125 10.41125,0 c 10.03,0 11.47125,-0.3875 12.3425,-6.7475 l 4.5275,0 -4.14625,19.76 -4.43125,0 0.29125,-1.445 c 0.865,-4.2425 0.285,-5.97875 -8.77625,-5.97875 l -11.375,0 -4.72375,21.88625 12.1475,0 c 13.88375,0 15.90625,-0.96625 19.3775,-9.3525 l 4.5325,0 -3.18125,14.94125 -57.845,0 0.86625,-4.43375 2.31625,0 c 5.78125,0 7.71,-1.06125 9.4475,-9.06 l 7.3225,-34.22625 c 1.2575,-5.6875 -0.57625,-7.1325 -5.685,-7.1325 l -3.375,0 0.8675,-4.435 56.4,0" />
    <path
       id="path4351"
       style="fill:#ffffff;fill-opacity:1;fill-rule:nonzero;stroke:none"
       d="m 443.46506,472.0018 c 0,6.07125 1.06,13.59125 14.4625,13.59125 6.65,0 13.30375,-1.445 13.30375,-8.77125 0,-1.6375 -0.19625,-4.92 -6.9425,-9.4475 l -10.31625,-6.94375 c -7.81,-5.3 -9.4475,-10.0225 -9.4475,-14.46 0,-6.4575 4.33625,-16.39 22.8475,-16.39 10.51,0 18.995,2.41375 22.17625,3.47 l -3.28,15.715 -3.955,0 c 0,-5.8825 -1.1525,-13.59125 -14.36125,-13.59125 -8.38625,0 -10.89375,3.56625 -10.89375,7.325 0,3.375 1.06,4.72625 7.4225,8.96875 l 11.86,7.9025 c 5.6875,3.85875 7.4225,8.48375 7.4225,13.49875 0,7.80875 -5.205,18.31625 -25.2625,18.31625 -7.9025,0 -17.255,-1.445 -22.265,-3.46875 l 3.275,-15.715 3.95375,0" />
    <path
       id="path4355"
       style="fill:#ffffff;fill-opacity:1;fill-rule:nonzero;stroke:none"
       d="m 492.87631,472.0018 c 0,6.07125 1.06,13.59125 14.4625,13.59125 6.6475,0 13.30375,-1.445 13.30375,-8.77125 0,-1.6375 -0.19125,-4.92 -6.94125,-9.4475 l -10.315,-6.94375 c -7.80875,-5.3 -9.45,-10.0225 -9.45,-14.46 0,-6.4575 4.33875,-16.39 22.8475,-16.39 10.51125,0 18.99125,2.41375 22.17375,3.47 l -3.275,15.715 -3.95375,0 c 0,-5.8825 -1.15625,-13.59125 -14.36375,-13.59125 -8.3875,0 -10.8975,3.56625 -10.8975,7.325 0,3.375 1.0625,4.72625 7.42625,8.96875 l 11.855,7.9025 c 5.6925,3.85875 7.42625,8.48375 7.42625,13.49875 0,7.80875 -5.2075,18.31625 -25.2575,18.31625 -7.9075,0 -17.25875,-1.445 -22.27,-3.46875 l 3.2775,-15.715 3.95125,0" />
    <path
       id="path4359"
       style="fill:#ffffff;fill-opacity:1;fill-rule:nonzero;stroke:none"
       d="m 91.830058,435.1768 -2.31375,0 c -6.84375,0 -7.615,1.6375 -9.64125,10.7975 l -8.29,38.465 8.965,0 c 14.27,0 18.32,-0.965 20.342502,-6.365 l 1.15875,-2.9875 4.625,0 -3.275,14.94375 -56.786252,0 0.87125,-4.43375 2.3125,0 c 6.36125,0 7.90625,-1.545 9.44625,-9.0625 l 6.7475,-31.6225 c 0.86875,-4.34 0.96625,-4.82 0.96625,-6.17 0,-2.98875 -3.0875,-3.565 -5.88125,-3.565 l -3.56875,0 0.8675,-4.43625 34.41875,0 -0.965,4.43625" />
    <path
       id="path4363"
       style="fill:#ffffff;fill-opacity:1;fill-rule:nonzero;stroke:none"
       d="m 109.94256,454.38555 -1.72625,0 0.195,-14.34125 c 0.025,-3.7525 0.855,-6.46125 2.485,-8.12625 1.62875,-1.66125 3.43375,-2.49625 5.41125,-2.49625 1.0275,10e-4 1.9675,0.30875 2.82,0.92125 0.85125,0.615 1.27875,1.6725 1.275,3.17375 0,1.25 -0.845,3.41375 -2.5375,6.4925 l -7.9225,14.37625" />
    <path
       id="path4367"
       style="fill:#ffffff;fill-opacity:1;fill-rule:nonzero;stroke:none"
       d="m 363.85881,464.0993 c 1.2525,-0.34 2.435,-0.71375 3.51625,-1.13125 6.72125,-2.66375 12.9075,-7.30125 14.57,-15.11875 1.46375,-6.87375 -1.37125,-11.51 -5.74125,-13.915 -4.73625,-2.66375 -11.57375,-3.43625 -19.74125,-3.43625 l -31.4025,0 -0.64,3.0075 c 8.09625,0.345 8.6775,0.60125 7.7075,5.1525 l -9.17125,43.11875 c -0.9725,4.555 -1.66125,4.81375 -9.90625,5.15875 l -0.6375,3.005 33.95,0 0.63875,-3.005 c -9.795,-0.345 -10.375,-0.60375 -9.405,-5.15875 l 3.34375,-15.715 6.0475,0 m 0.28375,-0.01 c 5.37875,7.3425 13.1525,21.17 19.43375,27.43125 5.9025,5.8875 12.63125,8.7625 22.6525,8.7625 3.01875,0 5.62625,-0.1375 9.61125,-0.685 l 0.96375,-0.13875 0,-3.69375 c -12.39875,0.0825 -15.105,-2.37 -20.32,-7.5725 -0.085,-0.0875 -0.165,-0.18125 -0.2475,-0.27 l -2.49,-3.0175 c -4.73875,-6.60875 -8.13375,-16.21375 -13.01625,-22.76875 m -15.785,-1.64625 c -5.0925,0 -6.2925,-0.34625 -5.59875,-3.60625 l 4.58625,-21.5625 c 0.51125,-2.405 1.63125,-3.1775 7.5725,-3.1775 8.4875,0 13.83125,4.295 11.76875,14.00125 -1.7225,8.07125 -7.935,14.345 -18.32875,14.345" />
  </g>
</svg>
