<svg xmlns="http://www.w3.org/2000/svg" width="575.4" height="174.7" viewBox="5 5 575.4 174.7" enable-background="new 5 5 575.4 174.7"><path fill="#E0001B" d="M569.3 35.6c0-17.9-20.5-27.6-45-27.6-30.6 0-60 15.4-60 43.3 0 47.7 95.7 42.6 95.7 85.9 0 22-20.6 37.4-45.5 37.4-6.8 0-15.4-.6-24.1-4.7 2.4-4.9 4.5-11.4 4.5-16.1 0-10.5-5.9-19.1-17.1-19.1-5.9 0-12.5 4.6-12.5 13.5 0 17.6 21.6 29.4 49.3 29.4 32.5 0 65.8-14.9 65.8-49.4 0-53.3-94-49.4-94-84.9 0-20.8 21.6-31.8 38-31.8 10.8 0 14.9 1.2 20.7 3.4-2.4 4.9-3.4 10-3.4 14.9 0 10.3 5.4 18.8 16.2 18.8 5.8-.1 11.4-4.5 11.4-13zm-162 54.4c23.9-2.1 47.3-15.1 47.3-37.8 0-31.2-28.1-42.3-62.2-42.3h-75v.7c11.3 4.7 20.3 4.6 19.9 29.6v104.8c.1 26.5-8.5 24.8-19.9 29.5v.8h79.9c38.3 0 63.1-11.8 63.1-43.5 0-27.9-29.3-40.9-53.1-41.8zm-17.5-.8h-26.9v-75.1h26.9c24.3 0 41.3 14.2 41.3 38 0 23.9-17 37.1-41.3 37.1zm46.5 42.6c0 25.5-15.3 40.2-42.5 40.2h-30.9v-78.5h30.9c27.2 0 42.5 12.7 42.5 38.3zm-112.7-38c0-53.1-41.1-88.8-88.2-88.8-47 0-88.2 35.7-88.2 88.8 0 53.1 41.1 85.9 88.2 85.9s88.2-32.8 88.2-85.9zm-29.9 0c0 48.5-16 82.2-58.2 82.7-47.4.6-58.2-34.2-58.2-82.7s16.1-85.6 58.2-85.6c43.2 0 58.2 37.1 58.2 85.6zm-163.3 81.4l12.9-54.2h-2.5c-12.5 25-31.2 49.9-57.6 49.9h-34.7v-130.8c0-15.6 4.3-24.3 15.6-29v-1.2h-59.1v.9c11.3 4.7 18.6 13.8 18.6 29.3v104.9c0 15.6-6.5 24.4-17.8 29.1v1.1h124.6zm1.2-144.7c0-12.5-5.9-20.6-16.4-20.6-8.7 0-15.7 7.3-15.7 16.4 0 6.3 3.1 10.8 7 13.6 7 4.9 10.1 11.2 10.1 17.1 0 6.3-9 15.9-11.6 18-2.8 2.2-7.3 4.6-10.8 6h5.6c16.1-3.4 31.8-34.8 31.8-50.5z"/></svg>