<?xml version="1.0" encoding="utf-8"?>
<!-- Generator: Adobe Illustrator 23.0.2, SVG Export Plug-In . SVG Version: 6.00 Build 0)  -->
<svg version="1.1"
	 id="svg416" xmlns:cc="http://creativecommons.org/ns#" xmlns:dc="http://purl.org/dc/elements/1.1/" xmlns:inkscape="http://www.inkscape.org/namespaces/inkscape" xmlns:rdf="http://www.w3.org/1999/02/22-rdf-syntax-ns#" xmlns:sodipodi="http://sodipodi.sourceforge.net/DTD/sodipodi-0.dtd" xmlns:svg="http://www.w3.org/2000/svg"
	 xmlns="http://www.w3.org/2000/svg" xmlns:xlink="http://www.w3.org/1999/xlink" x="0px" y="0px" viewBox="0 0 130.3 25.9"
	 style="enable-background:new 0 0 130.3 25.9;" xml:space="preserve">
<style type="text/css">
	.st0{fill:#EF7D00;}
</style>
<path id="path400" inkscape:connector-curvature="0" class="st0" d="M55.9,16.8l0.6,0.1l-0.4,6.2c-2.3,1.4-5,2.1-8.8,2.1
	c-8.2-0.2-12.6-4.9-12.6-11.7c0-7.8,5.3-12.7,12.8-12.7c3.7,0,6.6,0.8,8.7,2.1l0,6.3l-0.6,0c-1.1-3.5-3.8-6.9-6.5-6.9
	c-4.5,0-5.5,6.5-5.5,10.7c0,5.5,1.8,10.4,6,10.4C52.2,23.4,54.8,21,55.9,16.8"/>
<path id="path402" inkscape:connector-curvature="0" class="st0" d="M106.8,24.5l-0.1-8.9l0-6.3c0-1.7,0.2-2,1.4-2.8V6.1h-7.9
	l0.1,9.3l-0.1,6c0,1.7-0.4,2.1-1.4,2.8v0.4L106.8,24.5L106.8,24.5z"/>
<path id="path404" inkscape:connector-curvature="0" class="st0" d="M78,22.4c-0.6-0.9-1.4-2.2-1.9-3.1c-1.1-2.1-2.4-3.3-5.3-3.4
	c3.4-0.1,6.1-1.8,6.1-4.8c0-3.4-2.8-5-6.9-5H59.3l0,9.3l-0.1,6.1c0,1.7-0.4,2.1-1.4,2.8v0.4h8l0-8.2h0.6c1.7,0,2.3,0.4,2.6,1.7
	l1.1,3.7c0.3,1.1,0.8,2,1.4,2.8h8.2v-0.5C79.1,23.7,78.5,23.1,78,22.4 M66.8,15.1h-1l0-7.9h1c2.3,0,3.5,1.4,3.5,3.8
	C70.3,13.5,69.1,15.1,66.8,15.1"/>
<path id="path406" inkscape:connector-curvature="0" class="st0" d="M97.7,14.9c0,6.2-4.2,10.2-9.8,10.2c-6,0-9.3-4.4-9.3-9.4
	c0-6.2,4.2-10.2,9.7-10.2C94.4,5.5,97.7,9.9,97.7,14.9 M91.3,15.7c0-5.1-1-8.8-3.2-8.8c-1.9,0-2.7,3.6-2.7,8.1c0,5.1,1,8.8,3.2,8.8
	C90.5,23.7,91.3,20.2,91.3,15.7"/>
<path id="path408" inkscape:connector-curvature="0" class="st0" d="M31.1,21.7c-1.5-2.6-8-15.9-8-15.9l-0.5,0
	c0,0-6.8,14.3-7.3,15.3c-0.2,0.3-0.5,0.8-0.8,1.2c-0.7,0.6-1.8,1.1-3.5,1.1H8.7v-7.8l0.1-6.2c0-1.7,0.4-2.1,1.4-2.8V6.1H2.1
	c0,0,0,14.6,0,15.5c0,1.7-0.7,2.1-1.4,2.6v0.4h14.6l2.4-5h5.4l2.5,5h7.8v-0.4C32.6,23.5,31.9,23,31.1,21.7 M22.5,18.4h-4.5l2.2-4.8
	L22.5,18.4z"/>
<path id="path410" inkscape:connector-curvature="0" class="st0" d="M126.6,21.2c-2.1-3.2-3.7-5.8-4.8-7.6c1.1-1.5,2.7-3.6,3.6-4.6
	c1.3-1.4,3-2.2,3.8-2.5V6.1h-4.3c-0.2,0.6-0.5,1.5-1.4,2.8c-0.3,0.5-1.6,2.3-2.5,3.4l-3.7-6.3h-8v0.4c0.9,0.4,1.9,1.3,2.7,2.5
	c1,1.6,2.4,3.8,4.5,7.4c-0.7,0.9-2.5,3.4-3.8,5c-1.4,1.8-3.4,2.4-4.4,2.7v0.5h5.3c0.1-0.7,0.5-2,1.1-2.9c0.3-0.4,1.6-2.4,2.6-4
	c0.6,0.9,0.8,1.3,1.1,1.8c1.4,2.3,3,5,3,5h8.3v-0.4C128.7,23.6,127.6,22.8,126.6,21.2"/>
</svg>
