<?xml version="1.0" encoding="UTF-8"?>
<!-- Generator: Adobe Illustrator 25.0.0, SVG Export Plug-In . SVG Version: 6.00 Build 0)  -->
<svg version="1.1" id="Calque_1" xmlns="http://www.w3.org/2000/svg" xmlns:xlink="http://www.w3.org/1999/xlink" x="0px" y="0px" viewBox="0 0 227.9 130.9" style="enable-background:new 0 0 227.9 130.9;" xml:space="preserve">
<style type="text/css">
	.st0{fill:#1A171B;}
	.st1{fill:#008C00;}
</style>
<path class="st0" d="M0.4,69l2.7-0.8c1.5-0.4,1.8-1.1,1.8-3.6V26.7c0-2.7-0.5-2.8-2-3.7L0,21.6v-1.8l11.6-1.2l0.8,0.5  c0,0-0.5,3.4-0.5,7.9v37.3c0,2.8,0.4,3.3,1.7,3.6l2.7,0.8v2H0.5L0.4,69L0.4,69z"/>
<path class="st0" d="M18.4,62.8c0-5.6,4-8.4,11.9-10.3l7.9-1.7v-6.4c0-4.7-0.8-6.6-6.5-6.6c-3,0-3.6,0.8-3.8,2.7  c-0.2,2.6-1.1,4.7-4.1,4.7c-2.7,0-3.7-1.5-3.7-3.4c0-4.6,7.2-6.5,12.9-6.5c8.2,0,11.9,3,11.9,8.9v20.3c0,1.7,0.5,2.8,1.7,3.6  c0.8,0.4,1.7,0.5,3.3,0.7v1.8c-1.2,0.8-3.7,1.5-6,1.5c-3.6,0-5.3-1.7-5.8-3.9l0,0c-1.5,2.3-5.3,4-9.5,4  C22.5,71.9,18.4,68.8,18.4,62.8z M38.4,64.9V54.4l-5.2,0.5c-4.9,0.5-7.8,2.3-7.8,7.5c0,3.9,2.4,5.8,6.4,5.8  C35,68.1,37.3,66.5,38.4,64.9z"/>
<path class="st0" d="M61.8,69l2.7-0.8c1.4-0.2,1.7-0.9,1.7-3.6V26.7c0-2.7-0.5-2.8-2-3.7l-2.8-1.4v-1.8L73,18.6l0.8,0.5  c0,0-0.5,3.4-0.5,7.9v37.3c0,2.8,0.4,3.3,1.7,3.6l2.7,0.8v2H61.8V69L61.8,69z"/>
<path class="st0" d="M80.3,53.2c0-11,7.9-18,17-18c8.7,0,13.9,4.7,13.9,17.4H87.6c0.2,10.4,4.9,14.9,11.9,14.9c5.2,0,8.4-1.5,11-2.8  v2.7c-1.7,1.5-6.8,4.6-13.3,4.6C85.7,71.9,80.3,64.3,80.3,53.2z M87.6,49.7l15.8-0.8c0-7.9-1.3-11-6.5-11  C91.8,38.1,88.1,41.7,87.6,49.7z"/>
<path class="st0" d="M116.6,64.9V40h-4.9v-2c4.9-1.3,7.2-4.6,8.9-10.1h2.7v8.4h10l-0.9,3.7h-8.9v24c0,2.8,1.5,4.3,4.7,4.3  c2,0,4-0.5,5.3-1.1v2.3c-1.3,1.3-4.4,2.7-8.9,2.7C120.1,71.9,116.6,70,116.6,64.9z"/>
<path class="st0" d="M138.6,64.9V40h-4.9v-2c4.9-1.3,7.2-4.6,8.9-10.1h2.7v8.4h10l-0.9,3.7h-8.9v24c0,2.8,1.5,4.3,4.7,4.3  c2,0,4-0.5,5.3-1.1v2.3c-1.3,1.3-4.4,2.7-8.9,2.7C142,71.9,138.6,70,138.6,64.9z"/>
<path class="st0" d="M157,69l2.7-0.8c1.4-0.2,1.7-0.9,1.7-3.6V43.3c0-2.7-0.2-2.8-2-3.8l-2.6-1.3v-1.7l10.9-1.4l0.8,0.5l-0.2,3.9  h0.2c2.4-2.4,6.6-4.7,10.1-4.7c2.7,0,4.6,1.5,4.6,4.1c0,2.5-1.7,3.8-3.8,3.8c-2.5,0-3.3-0.8-3.9-2.3c-0.4-1.1-0.9-1.3-1.5-1.3  c-1.4,0-4.1,1.5-5.3,3V64c0,2.8,0.4,3.3,1.7,3.6l3.6,0.8v2h-16.6v-1.5L157,69L157,69z"/>
<path class="st0" d="M181.2,53.2c0-11,7.9-18,17-18c8.7,0,14,4.9,14,17.5h-23.8c0.2,10.4,4.9,14.9,11.9,14.9c5.2,0,8.4-1.5,11-2.8  v2.7c-1.7,1.5-6.8,4.6-13.3,4.6C186.6,71.9,181.2,64.3,181.2,53.2z M188.4,49.7l16-0.8c0-7.9-1.3-11-6.5-11  C192.8,38.1,189,41.7,188.4,49.7z"/>
<path class="st0" d="M0,90.8c0-6,4.3-8.9,8.8-8.9c1.3,0,2.3,0.2,2.8,0.4c0,0-0.1-1.3-0.1-2.4v-1.8c0-1.3-0.2-1.3-0.9-1.5l-1.3-0.7  V75l5.2-0.5l0.2,0.2c0,0-0.2,1.3-0.2,3.7v16.5c0,1.4,0.2,1.5,0.9,1.8l1.2,0.5V98l-4.9,0.8l-0.2-0.2l0.4-1.8h-0.1  c-1.3,1.1-3.3,1.7-5.3,1.7C3.3,98.6,0,96.9,0,90.8z M11.6,95.6v-11c-0.8-0.8-1.5-1.3-3.1-1.3c-3.3,0-5.3,1.7-5.3,6.9  c0,4.6,1.7,6.4,4.9,6.4C10,96.6,11,95.8,11.6,95.6z"/>
<path class="st0" d="M18,90.3c0-5,3.7-8.2,7.8-8.2c3.9,0,6.4,2.1,6.4,7.9H21.3c0.1,4.9,2.3,6.9,5.3,6.9c2.4,0,3.8-0.8,5-1.3V97  c-0.8,0.8-3,2-6,2C20.6,98.6,18,95.3,18,90.3z M21.3,88.6l7.4-0.4c0-3.7-0.7-4.9-3-4.9C23.2,83.2,21.6,84.9,21.3,88.6z"/>
<path class="st0" d="M37.9,97.2l1.4-0.2c0.8-0.1,1.1-0.2,1.1-1.8V79.8c0-1.5-0.2-1.7-1.1-1.8l-1.4-0.4v-1.1h8.3v0.9l-1.5,0.4  c-0.8,0.2-1.1,0.2-1.1,1.7v14.1c0,2.8,0.1,3,3.4,3c2.7,0,3.4-0.2,4.3-1.5c0.5-0.8,1.3-1.8,1.8-3.9h1.4l-0.4,6.9H37.8L37.9,97.2  L37.9,97.2z"/>
<path class="st0" d="M52.5,83.7c2-1.1,3-2.3,3-3.8c-0.1,0.1-0.4,0.2-0.8,0.2c-1.1,0-1.7-0.8-1.7-1.8c0-0.9,0.9-1.8,2.1-1.8  c1.3,0,2.5,1.2,2.5,2.7c0,2.5-1.7,4.7-4.9,5.3L52.5,83.7z"/>
<path class="st0" d="M60.8,97.2l1.4-0.2c0.8-0.1,1.1-0.2,1.1-1.8V79.8c0-1.5-0.2-1.7-1.1-1.8l-1.4-0.2v-1.1H77l0.4,5.5h-1.2  c-0.8-1.5-1.2-2.4-1.5-2.8C73.6,78,73.2,78,70.3,78c-2.3,0-3.3,0.1-3.8,0.2v8.1H68c2.4,0,3.3-0.1,3.8-1.1c0.2-0.8,0.5-1.3,0.8-2.1  h1.2v7.7h-1.3c-0.2-0.9-0.4-1.3-0.8-2.1c-0.4-1.1-1.1-1.2-3.8-1.2h-1.5v5.8c0,3.3,0.1,3.3,4.1,3.3c2.8,0,3.4-0.1,4.3-1.2  c0.5-0.8,1.3-2.3,1.8-4h1.2l-0.5,6.5H60.7L60.8,97.2L60.8,97.2L60.8,97.2z"/>
<path class="st0" d="M79,97.2l0.9-0.2c1.2-0.2,1.7-0.8,2.7-2.3l2.8-4.3l-3.7-4.9c-1.3-1.7-1.5-2.1-2.5-2.3l-0.5-0.1v-0.9h7.5v0.9  l-0.8,0.4c-0.5,0.1-0.8,0.4-0.8,0.8c0,0.2,0.2,0.9,0.8,1.5l2.1,2.8h0.1l1.5-2.5c0.7-1.2,0.9-1.5,0.9-2c0-0.2-0.2-0.7-0.8-0.8  l-1.1-0.2V82h6.2v0.9l-0.9,0.2c-1.3,0.2-1.5,0.8-2.7,2.3l-2.6,3.8l3.8,5.2c1.2,1.5,1.5,2.1,2.6,2.4l0.4,0.1v0.9h-7.2V97l0.8-0.2  c0.7-0.1,0.8-0.4,0.8-0.8s-0.5-1.1-0.9-1.5l-2.4-3l0,0l-1.7,3c-0.7,1.1-1.1,1.5-1.1,2c0,0.2,0.2,0.5,1.2,0.8l0.7,0.1v0.8H79V97.2  L79,97.2z"/>
<path class="st0" d="M95.6,104.2l1.3-0.2c0.8-0.2,0.8-0.4,0.8-1.5V85.8c0-1.3-0.2-1.3-0.9-1.7l-1.3-0.7v-0.8l4.9-0.8l0.2,0.2  l-0.1,1.5h0.1c1.3-1.1,3.3-1.7,5.3-1.7c3,0,6.3,1.7,6.3,7.7s-3.6,9-8.9,9c-0.8,0-1.8-0.2-2.7-0.4c0,0,0.1,0.9,0.1,2v2  c0,1.3,0.2,1.5,0.8,1.5l1.7,0.2v0.9h-7.8C95.6,105.1,95.6,104.2,95.6,104.2z M109.2,90.3c0-4.3-1.7-6.4-4.9-6.4  c-1.7,0-2.7,0.8-3.6,1.2v11.1c0.8,0.8,1.7,1.2,3,1.2C107.4,97.2,109.2,95.4,109.2,90.3z"/>
<path class="st0" d="M113.9,94.5c0-2.5,1.7-3.8,5.3-4.9l3.7-0.8V86c0-2.1-0.2-3-2.8-3c-1.4,0-1.5,0.2-1.7,1.3  c-0.2,1.3-0.5,2.1-1.8,2.1s-1.7-0.8-1.7-1.5c0-2,3.3-3,5.9-3c3.8,0,5.3,1.4,5.3,4V95c0,0.8,0.2,1.3,0.8,1.5c0.2,0.2,0.8,0.2,1.5,0.2  v0.9c-0.5,0.2-1.5,0.8-2.7,0.8c-1.5,0-2.4-0.8-2.6-1.7l0,0c-0.8,1.1-2.5,1.7-4.3,1.7C115.8,98.8,113.9,97.2,113.9,94.5z M123,95.4  v-4.9l-2.4,0.2c-2.3,0.2-3.6,1.2-3.6,3.4c0,1.7,1.2,2.6,2.8,2.6C121.5,97,122.7,96.4,123,95.4z"/>
<path class="st0" d="M129.2,97.2l1.3-0.2c0.7-0.2,0.8-0.4,0.8-1.5v-9.7c0-1.3-0.2-1.3-0.9-1.7l-1.3-0.7v-0.8l4.9-0.7l0.2,0.2  l-0.2,1.7h0.1c1.5-1.1,3.9-2,5.9-2c3.1,0,4.3,1.3,4.3,4.1v9.2c0,1.3,0.2,1.5,0.8,1.5l1.3,0.2v0.9H139v-0.9l1.3-0.2  c0.7-0.2,0.8-0.2,0.8-1.5v-8.4c0-2.3-0.8-2.8-2.7-2.8c-1.5,0-3.3,0.7-4.3,1.1v10.4c0,1.3,0.2,1.5,0.8,1.5l1.3,0.2V98h-7.5  L129.2,97.2L129.2,97.2z"/>
<path class="st0" d="M148.1,97.9l-0.2-4.7h1.1c0.5,1.3,0.8,1.8,1.5,2.7c0.7,0.8,1.3,1.3,2.7,1.3c1.8,0,3.3-0.9,3.3-2.5  c0-1.7-1.2-2.3-3.8-3.3c-2.7-1.2-4.7-2.4-4.7-4.9c0-2.8,2.6-4.9,5.9-4.9c1.7,0,3,0.2,4.1,0.7l0.1,4.3h-0.9c-0.5-1.2-1.1-1.7-1.5-2.6  c-0.5-0.7-0.9-0.8-2-0.8c-2,0-2.8,0.9-2.8,2.5c0,1.3,1.1,2,3.7,3c2.8,1.2,4.9,2.3,4.9,4.9c0,2.8-2.4,5.1-6.4,5.1  C151.1,98.6,149.3,98.4,148.1,97.9z"/>
<path class="st0" d="M160.4,97.2l1.3-0.2c0.7-0.2,0.8-0.4,0.8-1.5v-9.7c0-1.3-0.2-1.3-0.9-1.7l-1.3-0.7v-0.8l5.1-0.8l0.2,0.2  c0,0-0.2,1.3-0.2,3.6v9.8c0,1.3,0.2,1.5,0.8,1.5l1.3,0.2V98H160L160.4,97.2L160.4,97.2z M161.8,77.1c0-1.2,0.9-2,2.1-2  c1.2,0,2.1,0.9,2.1,2s-0.9,2-2.1,2C162.8,79.1,161.8,78,161.8,77.1z"/>
<path class="st0" d="M168.8,90.3c0-5.3,3.8-8.4,7.9-8.4c4.4,0,7.9,2.7,7.9,8.2c0,5.3-3.8,8.5-7.9,8.5  C172.3,98.8,168.8,95.8,168.8,90.3z M181.2,90.7c0-5.3-1.5-7.5-4.6-7.5c-2.7,0-4.3,2-4.3,6.6c0,5.3,1.5,7.5,4.7,7.5  C179.7,97.2,181.2,95.3,181.2,90.7z"/>
<path class="st0" d="M185.4,97.2l1.3-0.2c0.7-0.2,0.8-0.4,0.8-1.5v-9.7c0-1.3-0.2-1.3-0.9-1.7l-1.3-0.7v-0.8l4.9-0.8l0.2,0.2  l-0.2,1.7h0.1c1.5-1.1,3.9-2,5.9-2c3.1,0,4.3,1.3,4.3,4.1V95c0,1.3,0.2,1.5,0.8,1.5l1.3,0.2v0.9h-5.2c0,0,0-1.5,0-2.8v-8.5  c0-2.3-0.8-2.8-2.7-2.8c-1.5,0-3.3,0.7-4.3,1.1V95c0,1.3,0.2,1.5,0.8,1.5l1.3,0.2v0.9H185L185.4,97.2L185.4,97.2z"/>
<polygon class="st1" points="201.7,130.9 191.4,130.9 217.6,0 227.9,0 "/>
</svg>