<?xml version="1.0" encoding="utf-8"?>
<!-- Generator: Adobe Illustrator 23.0.2, SVG Export Plug-In . SVG Version: 6.00 Build 0)  -->
<svg version="1.1" id="Layer_1" xmlns="http://www.w3.org/2000/svg" xmlns:xlink="http://www.w3.org/1999/xlink" x="0px" y="0px"
	 viewBox="0 0 730.2 86.6" style="enable-background:new 0 0 730.2 86.6;" xml:space="preserve">
<style type="text/css">
	.st0{fill:#0081BE;}
	.st1{fill:none;}
</style>
<path class="st0" d="M360.3,20.1c-0.6,0-3.1,0-4.7,0.1v46c1.6,0.1,4.4,0.2,4.8,0.2c10.9,0,14.9-7.5,14.9-23.5
	C375.3,27.5,371.9,20.1,360.3,20.1 M358.7,81.3c-9.5,0-15.9-0.1-21.9-0.2V5.6c7.6-0.1,15.6-0.2,23.3-0.2c24.3,0,34.8,8.6,34.8,37.4
	C394.9,68.4,383.8,81.3,358.7,81.3"/>
<path class="st0" d="M426.8,81.5c-19.4,0-27.9-8.6-27.9-26.1V5.1h18.9v49.3c0,8.8,2.2,12.2,9.7,12.2c7.7,0,9.5-4.1,9.5-12.1V5.1H456
	v47.7C456,70.1,447.8,81.5,426.8,81.5"/>
<polyline class="st0" points="518.2,81 498.5,38.8 498.5,81 481.5,81 481.5,5.6 502.5,5.6 521.4,45.4 521.4,5.6 538.4,5.6 538.4,81 
	518.2,81 "/>
<path class="st0" d="M574.6,19.6c-9.2,0-12.4,6.7-12.4,23.7c0,16,2.7,23.6,12.3,23.6c9.1,0,12.4-6.8,12.4-23.7
	C586.9,27.1,584.2,19.6,574.6,19.6 M574.7,82.4h-0.8c-25.5,0-31.6-14.2-31.6-38.7c0-28.5,12.4-39.4,31.9-39.4h0.9
	c25.4,0,31.6,14.3,31.6,38.8C606.7,71.6,594.3,82.4,574.7,82.4"/>
<path class="st0" d="M634.1,20c-1.6,0-3.2,0.1-4.9,0.2v16.3h4.9c8.1,0,9.8-4,9.8-8.4C643.9,23.3,642.5,20,634.1,20 M644.3,81.1
	l-10.2-30.3h-4.9v30.3h-18.6V5.8c6.7-0.2,17-0.2,25.1-0.2c19.1,0,27.6,7.9,27.6,21.6c0,9-3.8,16.1-10.9,19.2l13.3,34.7H644.3z"/>
<path class="st0" d="M691.4,20.1c-0.6,0-3.1,0-4.7,0.1v46c1.6,0.1,4.4,0.2,4.8,0.2c10.9,0,14.9-7.5,14.9-23.5
	C706.4,27.5,703,20.1,691.4,20.1 M689.8,81.3c-9.5,0-15.9-0.1-21.9-0.2V5.6c7.6-0.1,15.6-0.2,23.3-0.2c24.3,0,34.8,8.6,34.8,37.4
	C726,68.4,714.9,81.3,689.8,81.3"/>
<polyline class="st0" points="4.3,81 4.3,5.6 23.3,5.6 23.3,65.7 40.1,65.7 40.1,81 4.3,81 "/>
<path class="st0" d="M66.2,22.4h-0.3l-6.5,32h13.4L66.2,22.4 M77.4,81l-2.5-12H57.3l-2.5,12H36.4L52.8,5.6h27.9L96.9,81H77.4z"/>
<polyline class="st0" points="154.5,81 128.2,81 111.8,5.6 131.1,5.6 140.6,52.6 142,63 143.3,52.6 152.4,5.6 171.4,5.6 154.5,81 
	"/>
<path class="st0" d="M199.7,19.6c-9.2,0-12.4,6.7-12.4,23.7c0,16,2.7,23.6,12.3,23.6c9.1,0,12.4-6.8,12.4-23.7
	C212,27.1,209.3,19.6,199.7,19.6 M199.8,82.4h-0.8c-25.5,0-31.6-14.2-31.6-38.7c0-28.5,12.4-39.4,31.9-39.4h0.9
	c25.4,0,31.6,14.3,31.6,38.8C231.8,71.6,219.4,82.4,199.8,82.4"/>
<path class="st0" d="M235.8,81h19V22.6h-19V81z M254.8,5.6h-19v13.9h19V5.6z"/>
<polyline class="st0" points="298.6,41.2 316.7,81 294.9,81 287.1,62.3 285.1,55.8 285,55.8 283.1,62.1 275.7,81 255.3,81 
	272.8,41.7 257,5.6 278.5,5.6 284.5,22.2 286.2,27.9 286.3,27.9 288.2,21.9 294.4,5.6 315,5.6 298.6,41.2 "/>
<rect x="4.3" y="4.3" class="st1" width="721.7" height="78.1"/>
</svg>
