<?xml version="1.0" encoding="UTF-8" standalone="no"?>
<!-- Created with Inkscape (http://www.inkscape.org/) -->
<svg
   xmlns:svg="http://www.w3.org/2000/svg"
   xmlns="http://www.w3.org/2000/svg"
   version="1.0"
   width="602.36218"
   height="178.29921"
   id="svg2407">
  <defs
     id="defs2409" />
  <g
     transform="translate(-395.49647,-179.14181)"
     id="layer1">
    <g
       id="g2451">
      <path
         d="M 817.01601,187.99314 C 817.01601,187.99314 830.97016,211.89081 850.47068,218.01051 L 836.25452,187.99314 L 817.01601,187.99314 z"
         id="path3"
         style="fill:#e20177" />
      <path
         d="M 792.65268,187.99314 L 784.62691,225.77102 L 770.68314,225.77102 C 756.5007,225.85923 744.35082,232.24093 735.82372,243.60608 C 728.03337,253.94392 722.93384,269.73021 722.93384,282.92426 C 722.93384,302.96696 735.65055,314.37881 756.00975,314.37881 C 756.48708,314.37881 785.19439,314.37881 785.19439,314.37881 L 811.8659,187.99314 L 792.65268,187.99314 z M 418.76512,203.39614 L 405.4699,266.3863 C 405.2883,267.12565 395.97906,314.37881 434.49239,314.37881 L 454.11095,314.37881 L 456.94835,300.92145 L 425.16952,300.92145 C 423.54037,300.83066 418.85267,300.0297 419.98115,293.54423 L 439.11329,203.39614 L 418.76512,203.39614 z M 505.10299,225.77102 C 503.74872,225.74648 502.67029,225.81513 502.10346,225.85209 C 493.65678,226.61738 486.502,228.68171 481.34994,230.63513 L 479.4043,239.87693 L 511.10205,239.87693 C 511.10205,239.87693 519.24002,239.91714 517.58753,247.82164 L 515.56081,256.65809 C 488.93924,259.19781 465.80621,265.77862 461.00177,288.35585 C 457.58263,304.47095 466.64024,313.90407 488.72717,314.37881 L 521.47881,314.37881 L 531.93664,265.08921 C 539.82686,229.62405 514.58287,225.94283 505.10299,225.77102 z M 586.09034,225.77102 C 568.92977,225.77102 555.83885,232.58272 547.09643,244.49783 C 539.46951,254.82789 534.20655,271.43135 534.20655,284.46456 C 534.20655,302.90147 545.08399,314.37881 562.09409,314.37881 C 568.93238,314.37881 574.32569,313.21402 577.9835,311.46035 L 577.01068,315.83804 C 574.62403,326.48459 567.16573,334.72698 553.3387,334.72698 C 545.53019,334.72698 538.16204,332.865 533.80121,330.59249 L 530.80168,344.77947 C 536.91618,347.10386 545.20527,348.56893 553.90618,348.58968 C 563.55656,348.36918 589.60223,344.43574 597.03458,310.24432 L 613.24826,231.60795 C 608.00282,228.41969 598.16889,225.77102 586.09034,225.77102 z M 650.78294,225.77102 C 649.42859,225.74648 648.43131,225.81513 647.86448,225.85209 C 639.42038,226.61738 632.26302,228.68171 627.11096,230.63513 L 625.08425,239.87693 L 656.78201,239.87693 C 656.782,239.87693 664.91998,239.91714 663.26748,247.82164 L 661.32184,256.65809 C 634.70285,259.19781 611.56204,265.77862 606.76279,288.35585 C 603.34105,304.47095 612.3176,313.90407 634.40712,314.37881 L 667.15876,314.37881 L 677.69766,265.08921 C 685.58335,229.62177 660.26339,225.94286 650.78294,225.77102 z M 730.55427,225.77102 C 720.39651,225.91411 692.46314,230.32593 683.53458,273.19605 L 674.69813,314.37881 L 692.85745,314.37881 L 706.63909,247.41629 C 708.11777,240.96714 712.96112,240.06695 714.42165,239.958 L 731.28389,239.958 L 734.28342,225.93316 C 734.28342,225.93316 732.89835,225.738 730.55427,225.77102 z M 846.15784,225.77102 C 831.84826,225.77102 819.72564,232.49646 811.46055,244.41676 C 804.30581,254.75461 799.70563,269.88068 799.70563,282.59999 C 799.70563,303.42874 812.41716,314.37881 832.45728,314.37881 C 841.15819,314.37881 849.0108,312.85018 855.15643,310.73073 L 858.23703,296.13841 C 853.34956,298.44724 845.20058,301.08359 836.42963,301.08359 C 820.84374,301.08359 817.07762,290.04466 818.35137,277.00627 L 872.26187,269.54797 C 873.53302,263.98344 874.12644,258.92217 874.12644,254.30711 C 874.12647,235.70418 863.64786,225.77102 846.15784,225.77102 z M 924.22673,225.77102 C 914.06897,225.91411 886.21666,230.32593 877.28811,273.19605 L 868.45166,314.37881 L 886.61098,314.37881 L 900.39261,247.41629 C 901.8739,240.96714 906.71465,240.06695 908.17518,239.958 L 925.03741,239.958 L 928.03695,225.93316 C 928.03695,225.93316 926.57084,225.738 924.22673,225.77102 z M 961.03179,225.77102 C 946.72227,225.77102 934.68326,232.49646 926.41558,244.41676 C 919.2608,254.75461 914.66066,269.88068 914.66066,282.59999 C 914.66066,303.42874 927.37478,314.37881 947.4123,314.37881 C 956.11321,314.37881 963.88735,312.85018 970.03039,310.73073 L 973.19206,296.13841 C 968.3046,298.44724 960.15561,301.08359 951.38465,301.08359 C 935.79619,301.08359 931.95158,290.04466 933.22532,277.00627 L 987.13582,269.54797 C 988.407,263.98344 989.0004,258.92217 989.0004,254.30711 C 989.00042,235.70418 978.52701,225.77102 961.03179,225.77102 z M 773.3584,236.95847 C 773.54002,236.95847 782.27592,236.95847 782.27592,236.95847 L 768.41322,302.21855 L 757.38792,302.21855 C 746.69207,301.86055 742.14705,294.40225 742.14705,283.0864 C 742.14705,272.90679 745.50004,259.40534 750.74031,250.82117 C 755.83532,242.39005 763.17361,236.95847 773.3584,236.95847 z M 844.13113,236.95847 C 852.24057,236.95847 856.7778,242.0995 856.7778,252.11826 C 856.77783,254.98225 856.43926,258.59012 855.64284,262.08968 L 818.83778,267.19699 C 820.10893,260.99688 821.95989,255.76569 824.1883,251.46971 C 829.11985,242.24737 836.34078,236.95847 844.13113,236.95847 z M 959.00508,236.95847 C 967.11454,236.95847 971.73282,242.0995 971.73282,252.11826 C 971.73285,254.98225 971.39428,258.27103 970.59787,261.7654 L 933.71173,267.19699 C 934.98808,260.99688 936.91232,255.76569 939.14332,251.46971 C 944.06968,242.24737 951.21473,236.95847 959.00508,236.95847 z M 583.49615,237.03954 C 588.41993,237.03954 591.31374,237.79509 593.06223,238.74197 L 580.33448,300.35397 C 577.31225,301.9468 573.19333,303.1103 568.7417,303.1103 C 557.9343,303.1103 553.17656,296.88295 553.17656,285.76166 C 553.17656,275.74549 556.67223,261.02541 561.44554,252.2804 C 566.84664,242.42507 573.95991,237.03954 583.49615,237.03954 z M 513.61517,265.89989 L 505.91367,302.21855 L 492.78059,302.21855 C 482.53095,301.78791 477.14995,298.31494 479.4043,287.7073 C 482.71449,272.124 494.85918,268.1283 513.61517,265.89989 z M 659.3762,265.89989 L 651.6747,302.21855 L 640.00084,302.21855 C 639.48459,302.21854 638.46054,302.21855 638.46054,302.21855 C 628.21089,301.78791 622.91097,298.31494 625.16532,287.7073 C 628.47291,272.124 640.61761,268.1283 659.3762,265.89989 z"
         id="path5"
         style="fill:#012b5b" />
    </g>
  </g>
</svg>
