<svg width="750" height="106.68" inkscape:version="1.2 (dc2aeda, 2022-05-15)" sodipodi:docname="Logo Journal Le Bien Public - 2022.svg" version="1.1" viewBox="0 0 750 106.68" xml:space="preserve" xmlns="http://www.w3.org/2000/svg" xmlns:inkscape="http://www.inkscape.org/namespaces/inkscape" xmlns:sodipodi="http://sodipodi.sourceforge.net/DTD/sodipodi-0.dtd"><sodipodi:namedview bordercolor="#666666" borderopacity="1.0" inkscape:current-layer="Calque_1" inkscape:cx="227.44561" inkscape:cy="33.695646" inkscape:deskcolor="#d1d1d1" inkscape:pagecheckerboard="0" inkscape:pageopacity="0.0" inkscape:showpageshadow="2" inkscape:window-height="1080" inkscape:window-maximized="0" inkscape:window-width="1920" inkscape:window-x="0" inkscape:window-y="0" inkscape:zoom="0.71225819" pagecolor="#ffffff" showgrid="false"/>
<style type="text/css">
	.st0{fill:#FFFFFF;}
</style>
<rect width="750" height="106.68" fill="#0068b1" stroke-width="2.0925"/><g transform="matrix(1.535 0 0 1.535 9.8909 9.5152)"><path class="st0" d="m71.6 1.4v12h-21.7v8.6h20.4v12h-20.4v9.6h23.2l-1.1 12h-34.7v-54.2z"/><path class="st0" d="m108.3 1.4c3.4 0 6.1 0.4 8.4 1.1 2.2 0.7 4 1.7 5.3 3s2.2 2.8 2.8 4.5 0.8 3.5 0.8 5.4c0 2.4-0.4 4.6-1.3 6.5s-2.4 3.5-4.6 4.9c2.6 1.5 4.5 3.3 5.6 5.4s1.6 4.6 1.6 7.4c0 2.1-0.3 4.2-0.9 6.1s-1.7 3.7-3.1 5.1-3.3 2.6-5.7 3.5-5.2 1.3-8.6 1.3h-20.4v-54.2zm-0.9 20.8c2.2 0 3.8-0.4 4.6-1.3 0.8-0.8 1.2-2.1 1.2-3.7 0-1.7-0.5-3-1.4-3.8s-2.6-1.2-5-1.2h-6.3v9.9h6.9zm0 22.5c2.7 0 4.6-0.5 5.6-1.6s1.5-2.6 1.5-4.4c0-1.9-0.5-3.3-1.4-4.3-1-1-2.7-1.5-5.2-1.5h-7.5v11.9h7z"/><path class="st0" d="m143.4 1.4v54.3h-12.9v-54.3z"/><path class="st0" d="m183.9 1.4v12h-21.8v8.6h20.4v12h-20.4v9.6h23.2l-1.1 12h-34.6v-54.2z"/><path class="st0" d="m200.3 1.4 17.3 31.1v-31.1h12.2v54.3h-11.1l-17.4-31v31h-12.3v-54.3z"/><path class="st0" d="m300 55.6c-2.5-0.9-4.6-2.3-6.3-4.3-1.7-1.9-3-4.4-3.9-7.4s-1.3-6.6-1.3-10.8v-31.7h12.9v32.3c0 3.6 0.6 6.4 1.7 8.1s3 2.7 5.7 2.7 4.6-0.9 5.7-2.7 1.7-4.5 1.7-8.1v-32.3h12.9v31.8c0 4.2-0.5 7.8-1.4 10.8s-2.3 5.5-4 7.4-3.9 3.3-6.4 4.3c-2.5 0.9-5.4 1.4-8.6 1.4s-6.2-0.6-8.7-1.5z"/><path class="st0" d="m354.6 1.4c3.4 0 6.1 0.4 8.4 1.1 2.2 0.7 4 1.7 5.3 3s2.2 2.8 2.8 4.5 0.8 3.5 0.8 5.4c0 2.4-0.4 4.6-1.3 6.5s-2.4 3.5-4.6 4.9c2.6 1.5 4.5 3.3 5.6 5.4s1.6 4.6 1.6 7.4c0 2.1-0.3 4.2-0.9 6.1s-1.7 3.7-3.1 5.1-3.3 2.6-5.7 3.5-5.2 1.3-8.6 1.3h-20.3v-54.2zm-1 20.8c2.2 0 3.8-0.4 4.6-1.3 0.8-0.8 1.2-2.1 1.2-3.7 0-1.7-0.5-3-1.4-3.8s-2.6-1.2-5-1.2h-6.3v9.9h6.9zm0.1 22.5c2.7 0 4.6-0.5 5.6-1.6s1.5-2.6 1.5-4.4c0-1.9-0.5-3.3-1.4-4.3-1-1-2.7-1.5-5.2-1.5h-7.5v11.9h7z"/><path class="st0" d="m389.6 1.4v41.9h21.2l-1.1 12.4h-33v-54.3z"/><path class="st0" d="m426.9 1.4v54.3h-12.9v-54.3z"/><path class="st0" d="m473.9 44.1c-0.9 2.6-2.3 4.8-4 6.7s-3.9 3.4-6.5 4.5-5.6 1.6-9.1 1.6c-3.9 0-7.3-0.7-10.1-2.1s-5.2-3.3-7.1-5.8-3.3-5.5-4.2-8.9c-0.9-3.5-1.4-7.3-1.4-11.4 0-4.3 0.5-8.1 1.4-11.7 1-3.5 2.4-6.5 4.4-9.1s4.4-4.5 7.3-5.9 6.1-2 10-2c5.9 0 10.5 1.7 13.9 5s5.4 8 6.3 14.2l-12.8 1.6c-0.2-1.2-0.5-2.3-0.9-3.3s-0.8-1.9-1.4-2.6-1.4-1.3-2.3-1.7-2-0.6-3.2-0.6c-6.1 0-9.2 5.3-9.2 15.9 0 2.9 0.2 5.4 0.7 7.5 0.4 2.1 1.1 3.7 1.9 5s1.8 2.2 3 2.7 2.4 0.8 3.8 0.8c4.7 0 7.4-2.9 8.1-8.7h13.2c-0.3 3-0.9 5.8-1.8 8.3z"/><rect class="st0" y="1.4" width="12.9" height="33.6"/><polygon class="st0" points="33 55.6 34.1 43.2 12.9 43.2 0 43.2 0 55.6"/><path class="st0" d="m284 12.5c-0.6-2.2-1.6-4.1-3.1-5.7s-3.4-3-5.9-3.9c-2.5-1-5.6-1.4-9.4-1.4h-17.9v11.6h17.9c2.7 0 4.6 0.5 5.6 1.6s1.6 2.7 1.6 5-0.5 4-1.6 5.1-2.9 1.7-5.6 1.7h-5.5v-5.2h-12.5v34.4h12.5v-17.7h5.6c3.7 0 6.7-0.5 9.2-1.4s4.4-2.3 5.9-4 2.5-3.7 3.1-5.9c0.6-2.3 0.9-4.6 0.9-7.2 0-2.5-0.2-4.9-0.8-7z"/></g>
</svg>
