<?xml version="1.0" encoding="UTF-8" standalone="no"?>
<!-- Generator: Adobe Illustrator 26.3.1, SVG Export Plug-In . SVG Version: 6.00 Build 0)  -->

<svg
   version="1.1"
   id="Calque_1"
   x="0px"
   y="0px"
   viewBox="0 0 599.99999 105.62771"
   xml:space="preserve"
   sodipodi:docname="Logo Journal Le Dauphiné Libéré - 2022.svg"
   width="600"
   height="105.6277"
   inkscape:version="1.2 (dc2aeda, 2022-05-15)"
   xmlns:inkscape="http://www.inkscape.org/namespaces/inkscape"
   xmlns:sodipodi="http://sodipodi.sourceforge.net/DTD/sodipodi-0.dtd"
   xmlns="http://www.w3.org/2000/svg"
   xmlns:svg="http://www.w3.org/2000/svg"><defs
   id="defs243" /><sodipodi:namedview
   id="namedview241"
   pagecolor="#ffffff"
   bordercolor="#666666"
   borderopacity="1.0"
   inkscape:showpageshadow="2"
   inkscape:pageopacity="0.0"
   inkscape:pagecheckerboard="0"
   inkscape:deskcolor="#d1d1d1"
   showgrid="false"
   inkscape:zoom="1.0234241"
   inkscape:cx="225.71287"
   inkscape:cy="41.038704"
   inkscape:window-width="1920"
   inkscape:window-height="1080"
   inkscape:window-x="0"
   inkscape:window-y="0"
   inkscape:window-maximized="0"
   inkscape:current-layer="Calque_1" />
<style
   type="text/css"
   id="style182">
	.st0{fill:#E2000B;}
</style>
<rect
   style="fill:#e2000b;fill-opacity:1;stroke-width:3.21286;stroke-linejoin:bevel"
   id="rect522"
   width="600"
   height="105.6277"
   x="0"
   y="0" /><g
   id="g925"
   transform="matrix(1.2531084,0,0,1.2531084,6.7099734,5.6343195)"><g
     id="g891"><path
       class="st0"
       d="m 284.5,57.9 h 3.2 l -3,17.1 h -3.2 z"
       id="path184"
       style="fill:#ffffff" /><path
       class="st0"
       d="m 288.9,62 h 3.2 l -2.3,13 h -3.2 z m 0.9,-4.9 c 0.4,-0.4 0.8,-0.6 1.3,-0.6 0.5,0 1,0.2 1.4,0.6 0.4,0.4 0.6,0.9 0.6,1.5 0,0.6 -0.2,1.1 -0.6,1.5 -0.4,0.4 -0.8,0.6 -1.4,0.6 -0.5,0 -1,-0.2 -1.3,-0.6 -0.3,-0.4 -0.6,-0.9 -0.6,-1.5 0,-0.6 0.2,-1 0.6,-1.5 z"
       id="path186"
       style="fill:#ffffff" /><path
       class="st0"
       d="m 294.8,57.9 h 3.2 l -1.3,6 c 0.8,-1.4 2,-2.1 3.6,-2.1 1.4,0 2.6,0.6 3.5,1.7 0.9,1.1 1.4,2.6 1.4,4.2 0,2 -0.6,3.8 -1.7,5.3 -1.1,1.5 -2.6,2.3 -4.5,2.3 -1.8,0 -3,-0.7 -3.7,-2.1 L 295,75 h -3.2 z m 2.2,8.3 c -0.6,0.7 -0.8,1.6 -0.8,2.6 0,0.8 0.2,1.6 0.7,2.2 0.5,0.6 1.1,0.9 2,0.9 0.9,0 1.6,-0.3 2.2,-1.1 0.6,-0.7 0.9,-1.6 0.9,-2.7 0,-0.9 -0.3,-1.6 -0.8,-2.2 -0.5,-0.6 -1.1,-0.8 -1.8,-0.8 -1,0 -1.8,0.4 -2.4,1.1 z"
       id="path188"
       style="fill:#ffffff" /><path
       class="st0"
       d="m 307.7,63.8 c 1.2,-1.4 2.7,-2.1 4.6,-2.1 1.8,0 3.2,0.6 4.2,1.7 1,1.1 1.5,2.7 1.5,4.5 0,0.7 -0.1,1.2 -0.2,1.7 h -8.7 c 0.1,0.6 0.3,1.1 0.7,1.5 0.4,0.4 0.8,0.7 1.2,0.8 0.4,0.1 0.8,0.2 1.2,0.2 1,0 1.9,-0.3 2.5,-0.9 l 1.9,2.2 c -1.3,1.1 -2.8,1.7 -4.6,1.7 -1.8,0 -3.3,-0.6 -4.4,-1.8 -1.2,-1.2 -1.7,-2.6 -1.7,-4.4 0,-1.9 0.6,-3.7 1.8,-5.1 z m 7.3,3.3 c -0.1,-0.7 -0.3,-1.3 -0.8,-1.8 -0.5,-0.4 -1.1,-0.7 -1.8,-0.7 -0.6,0 -1.3,0.2 -1.8,0.7 -0.5,0.5 -1,1 -1.2,1.8 z m -0.8,-11 h 3.2 l -3.7,4.1 h -2.6 z"
       id="path190"
       style="fill:#ffffff" /><path
       class="st0"
       d="m 320.6,62 h 3.2 l -0.4,2.4 c 0.3,-0.7 0.9,-1.3 1.7,-1.8 0.8,-0.6 1.8,-0.8 3,-0.8 l -0.7,3.8 c -2.8,0 -4.5,1.5 -5,4.5 l -0.9,5 h -3.2 z"
       id="path192"
       style="fill:#ffffff" /><path
       class="st0"
       d="m 329.3,63.8 c 1.2,-1.4 2.7,-2.1 4.6,-2.1 1.8,0 3.2,0.6 4.2,1.7 1,1.1 1.5,2.7 1.5,4.5 0,0.7 -0.1,1.2 -0.2,1.7 h -8.7 c 0.1,0.6 0.3,1.1 0.7,1.5 0.4,0.4 0.8,0.7 1.2,0.8 0.4,0.1 0.8,0.2 1.2,0.2 1,0 1.9,-0.3 2.5,-0.9 l 1.9,2.2 c -1.3,1.1 -2.8,1.7 -4.6,1.7 -1.8,0 -3.3,-0.6 -4.4,-1.8 -1.2,-1.2 -1.7,-2.6 -1.7,-4.4 0,-1.9 0.6,-3.7 1.8,-5.1 z m 7.3,3.3 c -0.1,-0.7 -0.3,-1.3 -0.8,-1.8 -0.5,-0.4 -1.1,-0.7 -1.8,-0.7 -0.6,0 -1.3,0.2 -1.8,0.7 -0.5,0.5 -1,1 -1.2,1.8 z m -0.8,-11 h 3.2 l -3.7,4.1 h -2.6 z"
       id="path194"
       style="fill:#ffffff" /></g><g
     id="g904"><path
       class="st0"
       d="M 81.1,4 V 16 H 56.5 v 8.7 h 23.1 v 12 H 56.5 v 9.6 h 26.2 l -1.2,12 H 42.3 V 4 Z"
       id="path198"
       style="fill:#ffffff" /><path
       class="st0"
       d="m 213.7,58.3 c -2.8,-0.9 -5.2,-2.3 -7.2,-4.3 -2,-1.9 -3.4,-4.4 -4.4,-7.4 -1,-3 -1.5,-6.6 -1.5,-10.8 V 4 h 14.6 v 32.3 c 0,3.6 0.6,6.4 1.9,8.1 1.3,1.8 3.4,2.7 6.5,2.7 3,0 5.2,-0.9 6.5,-2.7 1.3,-1.8 1.9,-4.5 1.9,-8.1 V 4 h 14.6 v 31.8 c 0,4.2 -0.5,7.8 -1.6,10.8 -1.1,3 -2.6,5.5 -4.6,7.4 -2,1.9 -4.4,3.3 -7.3,4.3 -2.9,0.9 -6.1,1.4 -9.7,1.4 -3.6,-0.1 -6.9,-0.5 -9.7,-1.4 z"
       id="path200"
       style="fill:#ffffff" /><path
       class="st0"
       d="m 273.1,4 c 4.3,0 7.8,0.5 10.6,1.4 2.8,1 5,2.3 6.7,3.9 1.7,1.6 2.8,3.6 3.5,5.7 0.7,2.2 1,4.5 1,7 0,2.5 -0.3,4.9 -1,7.2 -0.7,2.3 -1.9,4.2 -3.5,5.9 -1.6,1.7 -3.9,3 -6.7,4 -2.8,1 -6.2,1.4 -10.4,1.4 H 267 V 58.1 H 252.9 V 4 Z m 0,25 c 3,0 5.2,-0.6 6.3,-1.7 1.2,-1.1 1.8,-2.8 1.8,-5.1 0,-2.3 -0.6,-4 -1.8,-5 -1.2,-1.1 -3.3,-1.6 -6.4,-1.6 h -6.2 V 29 Z"
       id="path202"
       style="fill:#ffffff" /><path
       class="st0"
       d="M 367.6,4 V 58.3 H 353 V 4 Z"
       id="path204"
       style="fill:#ffffff" /><path
       class="st0"
       d="m 387.4,4 19.5,31.1 V 4 h 13.8 v 54.3 h -12.6 l -19.7,-31 v 31 H 374.6 V 4 Z"
       id="path206"
       style="fill:#ffffff" /><polygon
       class="st0"
       points="454.8,4 456.7,0 439.7,0 437.8,4 427.7,4 427.7,58.3 466.9,58.3 468.1,46.3 441.9,46.3 441.9,36.7 465,36.7 465,24.7 441.9,24.7 441.9,16 466.6,16 466.6,4 "
       id="polygon208"
       style="fill:#ffffff" /><polygon
       class="st0"
       points="14.6,45.8 0,45.8 0,58.3 37.3,58.3 38.6,45.9 14.6,45.9 "
       id="polygon212"
       style="fill:#ffffff" /><rect
       y="4"
       class="st0"
       width="14.6"
       height="33.5"
       id="rect214"
       style="fill:#ffffff"
       x="0" /><path
       class="st0"
       d="M 141.7,10.8 C 137.1,6.3 130.2,4 121.2,4 H 99.9 v 33.6 h 14.6 V 16.3 h 6.9 c 4.3,0 7.3,1.3 9.3,3.8 1.9,2.5 2.9,6.1 2.9,10.9 0,4.8 -1,8.4 -3.1,11.1 -2.1,2.6 -5.3,3.9 -9.8,3.9 h -6.2 v 0 H 99.9 v 12.3 h 20.5 c 9.1,0 16,-2.4 20.9,-7.2 4.9,-4.8 7.3,-11.6 7.3,-20.6 0,-8.6 -2.3,-15.2 -6.9,-19.7 z"
       id="path224"
       style="fill:#ffffff" /><polygon
       class="st0"
       points="182.8,47.9 186,58.3 201.1,58.3 182.2,4 165.7,4 146.8,58.3 161.5,58.3 164.5,47.9 176.1,47.9 172.6,36.2 168.1,36.2 173.7,17.5 173.9,18.1 182.8,47.9 "
       id="polygon228"
       style="fill:#ffffff" /><polygon
       class="st0"
       points="299.2,4 299.2,50.5 313.8,50.5 313.8,36.8 331.4,36.8 331.4,50.5 346,50.5 346,4 331.4,4 331.4,23.7 313.8,23.7 313.8,4 "
       id="polygon234"
       style="fill:#ffffff" /></g></g>
</svg>
