<?xml version="1.0" encoding="utf-8"?>
<!-- Generator: Adobe Illustrator 23.0.2, SVG Export Plug-In . SVG Version: 6.00 Build 0)  -->
<svg version="1.1" id="Calque_1" xmlns="http://www.w3.org/2000/svg" xmlns:xlink="http://www.w3.org/1999/xlink" x="0px" y="0px"
	 viewBox="0 0 814.9 188.7" style="enable-background:new 0 0 814.9 188.7;" xml:space="preserve">
<style type="text/css">
	.st0{fill:#E30613;}
</style>
<title>logo-jdd</title>
<path class="st0" d="M1.4,90.6v-3.4h9.2V6.7H1.4V3.3h56.9v3.4H47.6v80.6h5.6c18.3,0,23.9-15.5,27.5-31.3h3.5v34.7H1.4z"/>
<path class="st0" d="M119,64.8v5.3c0,10.1,1.8,18,13.1,18c9,0,17.1-5.9,22.1-13.2l2.3,1.6c-7.3,11-17.4,16-30.5,16
	c-7,0-13.3-0.5-19.8-3.4c-10.3-4.5-17.7-13.4-17.7-28.2c0-20.2,16-31.6,34.2-31.6c20.9,0,35.5,13.2,35.2,35.5L119,64.8z M129.4,61.8
	V44.4c0-4.4,1-12.1-5.4-12.1c-5.6,0-5,8.2-5,12.1v17.4L129.4,61.8z"/>
<path class="st0" d="M236,49.3c0,15.3,0.7,27.5-12.6,37.8c-3,2.4-10.4,5.4-21.4,5.4c-12.7,0-30.6-4.8-30.6-21.2
	c0-8.1,4.4-14.9,12.7-14.9c6.8,0,12.7,4.4,12.7,11.9c0,7.2-4.6,11.2-10.4,12.5c-1.8,0.4-2.4,1-2.4,2.9c0,2.3,3.5,2.8,5.1,2.8
	c14.1-0.2,11.5-24.1,11.7-29.6V6.7h-12.7V3.3h56.6v3.4H236L236,49.3z"/>
<path class="st0" d="M301.7,36.4c7.4,5.6,11.9,14.4,12.1,23.7c0,9.3-3.9,18.2-10.9,24.3c-6.9,6-17.1,8.1-26.7,8.1s-19.9-2-26.8-8.1
	c-7-6.2-10.9-15-10.9-24.3c0.2-9.3,4.7-18.1,12.1-23.7c6.9-5,16.3-7.2,25.5-7.2S294.8,31.4,301.7,36.4z M270.1,79.6
	c0,5-0.1,9.8,6.1,9.8c6.6,0,5.7-4.8,5.7-9.8V41.9c0-4.4,0-9.6-5.7-9.6s-6.1,5.2-6.1,9.6V79.6z"/>
<path class="st0" d="M394.2,90.6c-11.6,0-23.2,1.3-34.9,1.7V80.4c-4.7,7.7-13.1,12.3-22.1,12.1c-12.8,0-19.7-4.8-19.7-24.2V34h-6.4
	v-3c11.9,0,23.7-1.1,35.6-1.5v49.6c0,2.8,1.3,5,4.4,5c5.9,0,7.4-8.7,7.4-13.4V34H352v-3c11.8,0,23.6-1.1,35.5-1.5v58.1h6.8
	L394.2,90.6z"/>
<path class="st0" d="M396.8,34v-3c11.6,0,23.4-1.1,35-1.5v12.7h0.2c4-7.7,10.9-12.5,19.5-12.5c8,0,15.6,4.9,15.6,14
	c0,8.7-5.8,14.8-14.2,14.8c-8,0-13.5-5.4-13.5-13.9c0-2,0.2-4,0.7-5.9c-1.8-3.2-5.4,4-5.8,5.3c-1.7,4.9-1.3,9.4-1.3,14.6v29h8.6v3
	h-44.8v-3h6.4V34H396.8z"/>
<path class="st0" d="M502.9,41.4c4.5-7.4,12.5-12,21.2-12.1c11.4,0,19.6,5,19.6,23.3v35.1h6.5v3h-39.8v-3h4.2V49.5
	c0-3.9,1.1-11.1-4.4-11.1c-5.2,0-7.4,7.9-7.4,12v37.2h4.2v3h-40.1v-3h6.7V34h-6.4v-3c11.9,0,23.7-1.1,35.6-1.5V41.4z"/>
<path class="st0" d="M591.6,40.3c0-5.7-1.3-7.7-6.9-7.7c-2.2,0-4.8,0.3-4.8,1.4c0,1.6,4.5,3.2,4.5,8.8c0,8.7-9.7,10.1-16.1,10.1
	c-5.9,0-13.3-2.5-13.3-10c0-5.5,3-13.7,30.1-13.7c6.1,0,16,0.9,21.8,2.4c8,1.9,13.1,5.5,13.1,15v33.8c0,1.4,0.5,3,2,3
	c2.3,0,3.5-1.8,5-3.3v4.5c-4.6,5.6-12.1,7.9-18.9,7.9s-12.4-1.6-15.5-8.7c-6,6.9-14.9,8.7-23.5,8.7c-9.2,0-18.9-4.2-18.9-15.4
	c0-8.3,4.2-16.9,21.2-19.3c4.7-0.7,9.5-1,14.3-1h5.9L591.6,40.3z M591.6,59.9h-4.4c-7.5,0-6.5,9-6.5,14.8c0,3.7-0.2,10.5,4.6,10.5
	c6.7,0,6.3-7.9,6.3-12.6V59.9z"/>
<path class="st0" d="M627.2,90.6v-3h6.8V6.3h-7v-3c12.1,0,24.2-1.5,36.3-1.9v86.2h6.8v3H627.2z"/>
<path class="st0" d="M80.8,181.5v3c-11.3,0-22.5,1.3-33.9,1.6v-11.4c-4.5,8.1-9.6,11.7-18.6,11.7c-16.5,0-24.8-15.8-24.8-31.3
	c0-15.9,8-32,25-32c7.1,0,12.7,3.4,16.9,9.3v-32.3h-9.8v-3c13,0,25.8-1.5,38.7-1.9v86.2L80.8,181.5z M45.5,144.4
	c0-8.6-2.7-13.6-6.8-13.6c-4.6,0-4.3,5.8-4.3,13.6v19.7c0,11.9,1.5,14.9,4.5,14.9c3.9,0,6.7-5.6,6.7-14.9L45.5,144.4z"/>
<path class="st0" d="M161.3,185.4c-11.6,0-23.2,1.3-34.9,1.6v-11.8c-4.7,7.7-13.1,12.3-22.1,12.1c-12.8,0-19.7-4.8-19.7-24.2v-34.3
	h-6.4v-3c11.9,0,23.7-1.1,35.6-1.5v49.6c0,2.8,1.3,5,4.4,5c5.9,0,7.4-8.7,7.4-13.4v-36.7h-6.4v-3c11.9,0,23.6-1.1,35.5-1.5v58.1h6.8
	L161.3,185.4z"/>
<path class="st0" d="M232.8,97.2c26.1,0,44.4,15.3,44.4,43.6c0,21.3-9.8,39-34,43c-6.9,1.1-14,0.8-20.9,0.8H180v-3.4h9v-80.6h-8.7
	v-3.4H232.8z M225.4,181.2h5.3c5.6,0,7.8-2,7.8-17.9v-49.6c0-11.4-5.1-13.1-9.3-13.1h-3.8V181.2z"/>
<path class="st0" d="M279.5,184.2v-3h6.6v-53.5h-6.4v-3c12.1,0,24.1-1.1,36.2-1.5v58.1h6.4v3L279.5,184.2z M317,106.2
	c0,9.3-8.7,12.4-16.2,12.4s-16.2-3-16.2-12.4c0-10,8.4-12.5,16.2-12.5S317,96.2,317,106.2L317,106.2z"/>
<path class="st0" d="M324.6,127.9v-3c11,0,22.2-1.1,33.2-1.5v13c5.1-7.4,12.2-13.2,21.3-13.2c7.9,0,15.3,3.9,17.1,12.6
	c4.2-6.9,12.8-12.6,20.7-12.6c14,0,18.8,7.1,18.8,25.2v33.2h6.7v3h-38.4v-3h3.6v-37.1c0-3.4,1.1-11.9-4-11.9c-3.8,0-6,6.3-6,12.1
	v36.8h3.6v3h-35.3v-3h3.6v-37.6c0-6.3,0.3-11.4-3.8-11.4s-6.3,6.1-6.3,11.1v37.8h3.3v3h-38v-3h6.7v-53.5H324.6z"/>
<path class="st0" d="M481.8,134.2c0-5.7-1.3-7.7-6.9-7.7c-2.2,0-4.8,0.3-4.8,1.4c0,1.6,4.5,3.1,4.5,8.8c0,8.7-9.7,10.1-16.1,10.1
	c-5.9,0-13.3-2.5-13.3-10c0-5.5,3-13.7,30.1-13.7c6,0,16,0.9,21.8,2.4c8,1.9,13.1,5.5,13.1,15v33.8c0,1.4,0.5,3,2.1,3
	c2.3,0,3.5-1.8,5-3.3v4.4c-4.6,5.5-12.1,7.9-18.9,7.9s-12.3-1.6-15.5-8.7c-6.1,6.9-14.9,8.7-23.5,8.7c-9.2,0-18.9-4.2-18.9-15.4
	c0-8.3,4.2-16.9,21.2-19.3c4.7-0.7,9.5-1,14.3-1h5.9L481.8,134.2z M481.8,153.8h-4.4c-7.5,0-6.5,9-6.5,14.7c0,3.7-0.2,10.5,4.6,10.5
	c6.7,0,6.3-7.9,6.3-12.6V153.8z"/>
<path class="st0" d="M553,135.2c4.5-7.4,12.5-12,21.2-12.1c11.4,0,19.6,5,19.6,23.3v35.1h6.5v3h-39.8v-3h4.2v-38.1
	c0-3.9,1.1-11.1-4.3-11.1c-5.2,0-7.4,7.9-7.4,12v37.2h4.2v3h-40.1v-3h6.7v-53.6h-6.4v-3c11.9,0,23.7-1.1,35.6-1.5V135.2z"/>
<path class="st0" d="M666.3,167.6c-5.9,14.1-18,18.8-32.1,18.8c-21.9,0-36.9-11.9-36.9-31.4c0-21.8,19.6-31.9,38.2-31.9
	c23.5,0,30.4,10.5,30.4,20.4c0,8.4-5.7,14-13.7,14c-7.1,0.1-12.8-5.5-12.9-12.6c0-0.1,0-0.2,0-0.3c0-6.9,3.5-10.2,9-13
	c0.5-0.3,1.9-0.9,1.9-1.6c0-2.5-6-3.4-7.6-3.4c-10.2,0-15,2.5-13.4,34.2c0.5,10,1.4,20.7,13.8,20.7c9.8,0,16.6-6.6,20.6-15.4
	L666.3,167.6z"/>
<path class="st0" d="M699.4,181.5h4.2v3h-40.1v-3h6.7v-81.3h-6.4v-3c11.9,0,23.7-1.5,35.6-1.9v40c4.5-7.4,12.5-12,21.2-12.1
	c14.4,0,19.7,9.3,19.7,22.4v35.9h6.4v3h-39.8v-3h4.2v-36.6c0-3.9,0.6-12.6-4.3-12.6c-2.3,0-7.4,1.5-7.4,22.4V181.5z"/>
<path class="st0" d="M774.5,158.6v5.3c0,10.1,1.8,18,13.1,18c9,0,17.1-5.9,22.2-13.2l2.3,1.6c-7.3,11-17.4,16-30.5,16
	c-7,0-13.3-0.5-19.8-3.4c-10.3-4.5-17.7-13.4-17.7-28.2c0-20.2,16-31.6,34.3-31.6c20.9,0,35.5,13.2,35.2,35.5L774.5,158.6z
	 M784.9,155.6v-17.4c0-4.4,1-12.1-5.5-12.1c-5.6,0-5,8.2-5,12.1v17.4H784.9z"/>
</svg>
