<svg width="750" height="154.53" inkscape:version="1.2 (dc2aeda, 2022-05-15)" sodipodi:docname="Logo Le Journal de Saône-et-Loire - 2022.svg" version="1.1" viewBox="0 0 750 154.53" xml:space="preserve" xmlns="http://www.w3.org/2000/svg" xmlns:inkscape="http://www.inkscape.org/namespaces/inkscape" xmlns:sodipodi="http://sodipodi.sourceforge.net/DTD/sodipodi-0.dtd"><sodipodi:namedview bordercolor="#666666" borderopacity="1.0" inkscape:current-layer="Calque_1" inkscape:cx="219.69688" inkscape:cy="46.251975" inkscape:deskcolor="#d1d1d1" inkscape:pagecheckerboard="0" inkscape:pageopacity="0.0" inkscape:showpageshadow="2" inkscape:window-height="1080" inkscape:window-maximized="0" inkscape:window-width="1920" inkscape:window-x="0" inkscape:window-y="0" inkscape:zoom="0.51889676" pagecolor="#ffffff" showgrid="false"/>
<style type="text/css">
	.st0{fill:#FFFFFF;}
</style>
<rect width="750" height="154.53" fill="#e2000b"/><g transform="matrix(1.6199 0 0 1.6199 11.016 12.064)"><g><path class="st0" d="m262.4 69.2c1.1-1.5 2.5-2.3 4.3-2.3 0.8 0 1.5 0.2 2.3 0.6s1.3 1 1.6 1.8l1.1-6.2h3.2l-3.1 17.1h-3l0.3-1.6c-0.9 1.2-2.1 1.8-3.6 1.8-1.4 0-2.6-0.6-3.5-1.7s-1.4-2.6-1.4-4.3c0.1-2 0.6-3.7 1.8-5.2zm2.4 7c0.5 0.5 1.1 0.8 1.8 0.8 1 0 1.7-0.4 2.3-1.1s0.9-1.6 0.9-2.5c0-0.8-0.2-1.6-0.7-2.2s-1.2-0.9-2-0.9c-0.9 0-1.6 0.4-2.2 1.1s-0.9 1.6-0.9 2.7c0 0.9 0.2 1.6 0.8 2.1z"/><path class="st0" d="m276.1 69c1.2-1.4 2.7-2.1 4.6-2.1 1.8 0 3.2 0.6 4.2 1.7s1.5 2.7 1.5 4.5c0 0.7-0.1 1.2-0.2 1.7h-8.7c0.1 0.6 0.3 1.1 0.7 1.5s0.8 0.7 1.2 0.8 0.8 0.2 1.2 0.2c1 0 1.9-0.3 2.5-0.9l1.9 2.2c-1.3 1.1-2.8 1.7-4.6 1.7s-3.3-0.6-4.4-1.8c-1.2-1.2-1.7-2.6-1.7-4.4 0-2 0.6-3.7 1.8-5.1zm7.3 3.3c-0.1-0.7-0.3-1.3-0.8-1.8s-1.1-0.7-1.8-0.7c-0.6 0-1.3 0.2-1.8 0.7s-1 1-1.2 1.8z"/><path class="st0" d="m293.9 75.5c1.2 1.1 2.7 1.6 4.4 1.6 0.3 0 0.7 0 1-0.1 0.4-0.1 0.7-0.2 1.1-0.3s0.7-0.4 0.9-0.7 0.4-0.7 0.4-1.1c0-0.8-0.8-1.5-2.5-1.9-0.7-0.2-1.3-0.4-1.8-0.6s-1-0.5-1.6-0.8c-0.5-0.3-0.9-0.8-1.2-1.3s-0.4-1.2-0.4-1.9c0-1.7 0.6-3 1.8-4s2.7-1.4 4.5-1.4c1.9 0 3.7 0.6 5.4 1.8l-1.7 2.9c-1-0.9-2.3-1.4-3.8-1.4-0.6 0-1.2 0.1-1.8 0.4s-0.9 0.7-0.9 1.4c0 0.4 0.2 0.7 0.5 0.9s0.9 0.4 1.7 0.7c1.7 0.5 3 1.1 4 1.9 0.9 0.8 1.4 1.8 1.4 3.1 0 1-0.2 1.9-0.6 2.6-0.4 0.8-1 1.4-1.6 1.8-0.7 0.4-1.4 0.8-2.2 1s-1.6 0.3-2.5 0.3c-2.6 0-4.5-0.7-5.9-2.1z"/><path class="st0" d="m308 69.2c1.1-1.5 2.5-2.3 4.3-2.3 0.8 0 1.6 0.2 2.3 0.6s1.3 1 1.7 1.8l0.4-2.1h3.2l-2.3 13h-3l0.3-1.5c-0.9 1.2-2.1 1.8-3.7 1.8-1.4 0-2.6-0.6-3.5-1.7s-1.4-2.6-1.4-4.3c0-2.1 0.6-3.8 1.7-5.3zm2.4 7c0.5 0.5 1.1 0.8 1.8 0.8 1 0 1.8-0.4 2.4-1.1s0.9-1.6 0.9-2.5c0-0.8-0.3-1.5-0.8-2.2-0.5-0.6-1.2-0.9-2.1-0.9s-1.6 0.4-2.2 1.1-0.9 1.6-0.9 2.7c0.1 0.9 0.4 1.6 0.9 2.1z"/><path class="st0" d="m322 69c1.3-1.4 2.8-2.1 4.7-2.1s3.4 0.6 4.6 1.7c1.2 1.2 1.8 2.7 1.8 4.5 0 2-0.6 3.8-1.9 5.2s-2.9 2.1-4.7 2.1-3.3-0.6-4.5-1.8-1.8-2.6-1.8-4.4c-0.1-2 0.5-3.8 1.8-5.2zm2.3 7.2c0.6 0.6 1.3 0.9 2.2 0.9s1.7-0.3 2.3-1.1c0.6-0.7 0.9-1.6 0.9-2.6 0-0.9-0.3-1.6-0.8-2.2-0.6-0.6-1.3-0.9-2.1-0.9-0.9 0-1.7 0.4-2.3 1.1s-0.9 1.6-0.9 2.6c-0.1 0.8 0.2 1.6 0.7 2.2zm2.7-14.9h3l1.7 4.1h-2.2l-1.3-2.4-2.4 2.4h-2.2z"/><path class="st0" d="m335.5 67.1h3.2l-0.3 1.7c1.1-1.3 2.5-1.9 4-1.9 2.4 0 3.6 1.3 3.6 3.8 0 0.5-0.1 1.3-0.3 2.3l-1.3 7.2h-3.2l1.2-6.8c0.1-0.5 0.2-1 0.2-1.4 0-1.1-0.6-1.7-1.8-1.7-0.8 0-1.5 0.3-2.2 0.9-0.6 0.6-1 1.4-1.2 2.4l-1.1 6.5h-3.2z"/><path class="st0" d="m348.6 69c1.2-1.4 2.7-2.1 4.6-2.1 1.8 0 3.2 0.6 4.2 1.7s1.5 2.7 1.5 4.5c0 0.7-0.1 1.2-0.2 1.7h-8.7c0.1 0.6 0.3 1.1 0.7 1.5s0.8 0.7 1.2 0.8 0.8 0.2 1.2 0.2c1 0 1.9-0.3 2.5-0.9l1.9 2.2c-1.3 1.1-2.8 1.7-4.6 1.7s-3.3-0.6-4.4-1.8c-1.2-1.2-1.7-2.6-1.7-4.4 0-2 0.6-3.7 1.8-5.1zm7.2 3.3c-0.1-0.7-0.3-1.3-0.8-1.8s-1.1-0.7-1.8-0.7c-0.6 0-1.3 0.2-1.8 0.7s-1 1-1.2 1.8z"/><path class="st0" d="m360.8 72.3h4.4l-0.2 2.8h-4.4z"/><path class="st0" d="m368.8 69c1.2-1.4 2.7-2.1 4.6-2.1 1.8 0 3.2 0.6 4.2 1.7s1.5 2.7 1.5 4.5c0 0.7-0.1 1.2-0.2 1.7h-8.7c0.1 0.6 0.3 1.1 0.7 1.5s0.8 0.7 1.2 0.8 0.8 0.2 1.2 0.2c1 0 1.9-0.3 2.5-0.9l1.9 2.2c-1.3 1.1-2.8 1.7-4.6 1.7s-3.3-0.6-4.4-1.8c-1.2-1.2-1.7-2.6-1.7-4.4 0-2 0.6-3.7 1.8-5.1zm7.2 3.3c-0.1-0.7-0.3-1.3-0.8-1.8s-1.1-0.7-1.8-0.7c-0.6 0-1.3 0.2-1.8 0.7s-1 1-1.2 1.8z"/><path class="st0" d="m381.8 70h-1.9l0.5-2.8h1.9l0.4-2.4 3.4-0.8-0.6 3.1h3.3l-0.5 2.8h-3.3l-1 5.6c-0.1 0.7-0.1 1.1-0.1 1.1 0 0.5 0.3 0.7 0.8 0.7 0.3 0 0.5 0 0.8-0.1s0.5-0.2 0.7-0.3l0.2-0.2 0.4 2.6c-0.9 0.6-1.9 1-3.1 1-2.1 0-3.1-1-3.1-3 0-0.4 0.1-0.9 0.2-1.5z"/><path class="st0" d="m388.4 72.3h4.4l-0.2 2.8h-4.4z"/><path class="st0" d="m396.7 63.3h3.4l-2.4 13.7h9l-0.6 3.1h-12.4z"/><path class="st0" d="m409 69c1.3-1.4 2.8-2.1 4.7-2.1s3.4 0.6 4.6 1.7c1.2 1.2 1.8 2.7 1.8 4.5 0 2-0.6 3.8-1.9 5.2s-2.9 2.1-4.7 2.1-3.3-0.6-4.5-1.8-1.8-2.6-1.8-4.4c-0.1-2 0.5-3.8 1.8-5.2zm2.3 7.2c0.6 0.6 1.3 0.9 2.2 0.9s1.7-0.3 2.3-1.1c0.6-0.7 0.9-1.6 0.9-2.6 0-0.9-0.3-1.6-0.8-2.2-0.6-0.6-1.3-0.9-2.1-0.9-0.9 0-1.7 0.4-2.3 1.1s-0.9 1.6-0.9 2.6c-0.1 0.8 0.1 1.6 0.7 2.2z"/><path class="st0" d="m422.5 67.1h3.2l-2.3 13h-3.2zm0.9-4.8c0.4-0.4 0.8-0.6 1.3-0.6s1 0.2 1.4 0.6 0.6 0.9 0.6 1.5-0.2 1.1-0.6 1.5-0.8 0.6-1.4 0.6c-0.5 0-1-0.2-1.3-0.6s-0.6-0.9-0.6-1.5 0.2-1.1 0.6-1.5z"/><path class="st0" d="m427.7 67.1h3.2l-0.4 2.4c0.3-0.7 0.9-1.3 1.7-1.8 0.8-0.6 1.8-0.8 3-0.8l-0.7 3.8c-2.8 0-4.5 1.5-5 4.5l-0.9 5h-3.2z"/><path class="st0" d="m436.4 69c1.2-1.4 2.7-2.1 4.6-2.1 1.8 0 3.2 0.6 4.2 1.7s1.5 2.7 1.5 4.5c0 0.7-0.1 1.2-0.2 1.7h-8.7c0.1 0.6 0.3 1.1 0.7 1.5s0.8 0.7 1.2 0.8 0.8 0.2 1.2 0.2c1 0 1.9-0.3 2.5-0.9l1.9 2.2c-1.3 1.1-2.8 1.7-4.6 1.7s-3.3-0.6-4.4-1.8c-1.2-1.2-1.7-2.6-1.7-4.4 0-2 0.6-3.7 1.8-5.1zm7.3 3.3c-0.1-0.7-0.3-1.3-0.8-1.8-0.5-0.4-1.1-0.7-1.8-0.7-0.6 0-1.3 0.2-1.8 0.7s-1 1-1.2 1.8z"/></g><g><path class="st0" d="m81.1 1.4v12h-24.6v8.6h23.1v12h-23.1v9.6h26.2l-1.2 12h-39.2v-54.2z"/><path class="st0" d="m113.4 42.2c1.1 1.5 2.9 2.3 5.4 2.3 2.6 0 4.5-0.8 5.7-2.3s1.8-3.6 1.8-6.4v-34.4h14.6v34.3c0 7-1.9 12.3-5.8 15.9s-9.3 5.4-16.2 5.4c-7 0-12.4-1.8-16-5.5s-5.6-9-5.9-16h14.6c0.1 2.9 0.7 5.2 1.8 6.7z"/><path class="st0" d="m183.5 2c3.3 1.3 6.1 3.2 8.3 5.6s4 5.4 5.1 8.9c1.2 3.5 1.7 7.4 1.7 11.8s-0.6 8.4-1.8 11.9-2.9 6.6-5.2 9c-2.3 2.5-5.1 4.4-8.4 5.7s-7.2 2-11.5 2-8-0.7-11.3-2-6.1-3.2-8.3-5.6-4-5.4-5.1-8.9c-1.2-3.5-1.7-7.4-1.7-11.8s0.6-8.4 1.8-11.9 2.9-6.6 5.2-9 5.1-4.4 8.4-5.7 7.2-2 11.5-2 8 0.7 11.3 2zm-20.2 38.4c1.9 2.7 4.8 4.1 8.7 4.1s6.8-1.4 8.7-4.1 2.8-6.7 2.8-11.9-1-9.2-2.8-11.9c-1.9-2.7-4.8-4.1-8.7-4.1s-6.8 1.4-8.7 4.1-2.9 6.7-2.9 11.9 1 9.2 2.9 11.9z"/><path class="st0" d="m216.4 55.6c-2.8-0.9-5.2-2.3-7.2-4.3-2-1.9-3.4-4.4-4.4-7.4s-1.5-6.6-1.5-10.8v-31.7h14.6v32.3c0 3.6 0.6 6.4 1.9 8.1 1.3 1.8 3.4 2.7 6.5 2.7 3 0 5.2-0.9 6.5-2.7s1.9-4.5 1.9-8.1v-32.3h14.6v31.8c0 4.2-0.5 7.8-1.6 10.8s-2.6 5.5-4.6 7.4-4.4 3.3-7.3 4.3c-2.9 0.9-6.1 1.4-9.7 1.4-3.7-0.1-6.9-0.6-9.7-1.5z"/><path class="st0" d="m296.5 27.6c-1.3 2.6-3.3 4.7-6.1 6.3l11.1 21.7h-15.4l-8.9-18.7h-7.9v18.7h-13.9v-54.2h21.4c4.2 0 7.7 0.5 10.5 1.4 2.8 1 5 2.2 6.7 3.8s2.8 3.4 3.5 5.5 1 4.2 1 6.4c0 3.5-0.6 6.5-2 9.1zm-20-2c2.9 0 5-0.6 6.2-1.7s1.8-2.8 1.8-4.9c0-2-0.6-3.6-1.9-4.7s-3.4-1.7-6.5-1.7h-6.7v13z"/><path class="st0" d="m316.9 1.4 19.5 31.1v-31.1h13.8v54.3h-12.6l-19.7-31v31h-13.8v-54.3z"/><path class="st0" d="m425.4 1.4v41.9h24l-1.3 12.4h-37.3v-54.3z"/><polygon class="st0" points="0 43.2 0 55.6 37.3 55.6 38.6 43.2 14.6 43.2"/><rect class="st0" y="1.4" width="14.6" height="33.6"/><polygon class="st0" points="380.3 14.9 380.3 14.9 380.3 14.9 381.1 17.5 389.4 45.2 389.4 45.2 392.5 55.6 407.7 55.6 388.8 1.4 372.2 1.4 353.4 55.6 368.1 55.6 371.1 45.2 382.7 45.2 379.2 33.6 374.7 33.6"/></g></g>
</svg>
