<?xml version="1.0" encoding="utf-8"?>
<!-- Generator: Adobe Illustrator 23.0.2, SVG Export Plug-In . SVG Version: 6.00 Build 0)  -->
<svg version="1.1" id="Layer_1" xmlns="http://www.w3.org/2000/svg" xmlns:xlink="http://www.w3.org/1999/xlink" x="0px" y="0px"
	 viewBox="0 0 530 143" style="enable-background:new 0 0 530 143;" xml:space="preserve">
<path d="M171.2,14h-0.1v29c0,5.7,0,7.4,6.4,7.4v1.3h-15.7v-1.3c6.4,0,6.4-1.7,6.4-7.4V15.3c0-5.4-0.7-7.3-6.4-7.3V6.8h12.7l16.3,35
	l16-35h12.8V8c-6.4,0-6.4,1.7-6.4,7.4V43c0,5.7,0,7.4,6.4,7.4v1.3h-19.2v-1.3c6.4,0,6.4-1.7,6.4-7.4V14h-0.1l-17.2,37.7h-1L171.2,14
	z M223,33.8c0-10,6.9-18.8,17.5-18.8c10.7,0,17.6,8.8,17.6,18.8s-6.9,18.8-17.6,18.8C229.9,52.6,223,43.8,223,33.8z M252,33.8
	c0-8-2.6-16.8-11.5-16.8S229,25.6,229,33.7s2.6,16.8,11.5,16.8C249.5,50.5,252,41.8,252,33.8L252,33.8z M269,44.8c0,4.6,0,6,5,6v1
	h-12.5v-1c5,0,5-1.4,5-6V20.6c-1.9-2.5-3.4-3.8-7-3.8v-1h9.7L291,42.6h0.1v-20c0-4.5,0-5.9-5.1-5.9v-1h12.5v1c-5,0-5,1.4-5,6v29.5
	h-1l-23.6-28.8v21.4L269,44.8z M305.4,22.8c0-4.6,0-6-5-6v-1H314c5,0,10.8,0.2,15,3c5,3.3,7.2,9,7.2,14.8c0,9.9-6.4,18.2-19.4,18.2
	h-16.7v-1c5.1,0,5.1-1.4,5.1-6v-22H305.4z M310.5,49.1c1.9,0.4,3.8,0.7,5.7,0.7c9.2,0,14.2-7.3,14.2-16c0-8.9-5-16-14.5-16
	c-1.8,0-3.6,0.3-5.4,0.8L310.5,49.1L310.5,49.1z M349.7,32.1h7.2c4.3,0,6-0.5,6.3-5.4h1v12.6h-1c-0.5-4.8-2-5.3-6.3-5.3h-7.2v13
	c0,2.3,0.6,2.8,2.9,2.8h7.4c4.8,0,6.5-2.2,9.3-7h1l-3,9h-27.8v-1c5,0,5-1.4,5-6v-22c0-4.6,0-6-5-6v-1H367l0.5,8h-1
	c-1-5.6-2.6-6-7.7-6h-9.1L349.7,32.1L349.7,32.1z"/>
<path d="M185.3,11.6c0,0.8,0,1.4,0.7,1.4h2.2c1.3,0,2-0.5,2.7-2.3h0.2l-0.9,3h-7.8v-0.3c1.4,0,1.4-0.4,1.4-1.8V4.8
	c0-1.4,0-1.8-1.4-1.8V2.7h4.6V3c-1.7,0-1.7,0.5-1.7,2V11.6z M194.6,7.6h2c1.3,0,1.7,0,1.8-1.6h0.3v4h-0.3c0-1.5-0.5-1.6-1.7-1.6h-2
	v4c0,0.7,0.1,0.8,0.8,0.8h2c1.4,0,1.9-0.7,2.7-2.1h0.3l-0.9,2.7h-7.8v-0.3c1.4,0,1.4-0.4,1.4-1.8V4.8c0-1.4,0-1.8-1.4-1.8V2.7h7.7
	l0.2,2.4h-0.3c-0.3-1.7-0.7-1.8-2.2-1.8h-2.6v4.4V7.6z M38,105.5c-0.1,0.8-1,3.8-1,4.7c0,0.7,0.4,1.7,1.3,1.7c2.1,0,6-5.1,7.3-6.6
	l1.6,1c-3,4-8.6,11.2-14,11.2c-2.8,0-4-2.2-4-4.7c0-3.1,1.5-7.7,3.5-13.6L32.5,99c-4.2,6.8-12.1,18.5-21,18.5
	c-6.6,0-9.4-7.3-9.4-12.9C2.1,90,18.1,71,31,71c3.7,0,6.4,1.9,8.3,4.8l4.3-15.1c1.5-5.1,2.2-7,2.2-8.4c0-2.4-2.5-2.8-4.3-2.8
	c-1,0-2,0.2-3.1,0.4v-2l16.3-2.7h1l-17.5,60.3H38z M30.6,73.5c-9.7,0-20.2,19.5-20.2,30.2c0,3.4,1.5,7.9,5.5,7.9
	c8.3,0,21.2-21.3,21.2-30.8C37.1,76.8,34.7,73.5,30.6,73.5z M63.6,107.3c-0.3,1-0.7,2.3-0.7,3.3c0,0.9,0.5,1.3,1.4,1.3
	c2.4,0,6.3-5,7.7-7l1.7,1.2c-2.7,4.2-9,11.4-14.3,11.4c-2.9,0-4.8-1.7-4.8-4.7c0-1.6,1.2-5.4,1.6-7l5.4-19.3c1.5-5.1,2.2-7,2.2-8.4
	c0-2.3-2.5-2.8-4.3-2.8c-1,0-2,0.2-3,0.5v-2L72.6,71h1L63.6,107.3L63.6,107.3z M72.9,51.2c2.8,0,5,2.2,5,5s-2.2,5-5,5s-5-2.2-5-5
	S70.1,51.2,72.9,51.2z M96.9,82.4l0.3,0.2c4.5-5.8,10.4-11.6,18.4-11.6c6.5,0,10.4,6.2,10.4,12.7c0,13.2-12.5,33.8-29.8,33.8
	c-3,0-6-0.8-8.5-2.5l-3.3,11.7c-0.5,1.7-1.5,4.5-1.5,6.2c0,3.4,4.6,3.4,7.6,3.4L90,138H66.5l0.5-1.8c5.7,0,7.3-1.2,9.4-8.2l12-41.6
	c1.4-5.1,2.1-7,2.1-8.4c0-2.3-2.4-2.8-4.3-2.8c-1,0-2,0.2-3,0.5v-2L99.4,71h1L96.9,82.4L96.9,82.4z M88.8,111.1
	c2.2,2.5,5.3,3.8,8.6,3.7c9.5,0,20.3-17.1,20.3-30.9c0-4-1.6-8.5-6.4-8.5c-5.2,0-13.8,5.7-19,23.3C92.3,98.7,88.8,111.1,88.8,111.1z
	 M137.4,107.3c-0.3,1-0.7,2.3-0.7,3.3c0,0.9,0.5,1.3,1.5,1.3c2.3,0,6.2-5,7.6-7l1.8,1.2c-2.8,4.2-9,11.4-14.4,11.4
	c-2.8,0-4.8-1.7-4.8-4.7c0-1.6,1.3-5.4,1.7-7l12.8-45.1c1.4-5.1,2.1-7,2.1-8.4c0-2.4-2.4-2.8-4.3-2.8c-1,0-2,0.2-3,0.4v-2l16.2-2.7
	h1L137.4,107.3L137.4,107.3z M154.6,101.8c0-15,14.2-30.8,29.5-30.8c9.3,0,15,7.1,15,16c0,14.8-13.3,30.5-28.6,30.5
	C161.1,117.5,154.6,111.2,154.6,101.8z M190.8,83c0-5-2.7-9.5-8.2-9.5c-11.2,0-19.7,20.3-19.7,31.6c0,5.6,3,10,8.8,10
	C181.3,115.1,190.8,97.3,190.8,83L190.8,83z M217.2,93l0.2,0.2C221.1,86,230,71,239.4,71c3.4,0,5.7,2.6,5.7,5.9
	c0,2.2-0.8,5.4-1.4,7.5l-3.2,10.8l0.2,0.2c3.9-7.2,13.5-24.4,23-24.4c3.5,0,5.8,2.8,5.8,6c0,4-0.7,6-4.8,19.9
	c-1.7,5.3-4,12.6-4,13.5c0,0.7,0.6,1.5,1.4,1.5c2,0,6-5,7.2-6.7l1.6,0.9c-2.7,4.5-8.9,11.4-13.7,11.4c-2.3,0.1-4.2-1.6-4.3-3.9
	c0-0.1,0-0.3,0-0.4c0-2.2,1.2-6.5,4.6-18c3.3-11.4,4-13.8,4-15.7c0-1.5-0.6-2.5-2.4-2.5c-6.4,0-18.5,20.6-21.9,31.1l-2.7,8.2h-7.4
	l8.2-29c0.5-2,1.7-5.7,1.7-7.7c0-1.3-0.4-2.6-2.6-2.6c-5.3,0-17.7,17.3-22.3,34l-1.4,5.3h-7.5l8.4-29.8c1.4-5.1,2.1-7,2.1-8.4
	c0-2.3-2.4-2.8-4.3-2.8c-1,0-2,0.2-3,0.5v-2l16.3-2.8h1L217.2,93L217.2,93z M313.1,106.8c-0.3,1.3-0.8,2.9-0.8,4.2
	c0,0.7,0.4,1.5,1.2,1.5c2.3,0,5.4-4.5,7.2-6.8l1.6,1.2c-3,4.3-8,10.6-13.8,10.6c-2.6,0-4.3-1.4-4.3-4c0-2.3,1.4-8.8,2-10l-0.2-0.2
	c-4.5,6-11.2,14.2-19.6,14.2c-6.2,0-9.1-6.3-9.1-11.5c0-16.7,16.3-35,28-35c4.5,0,7.3,2.7,8.2,6.8h0.2l1.7-5.5l7.8-1.3L313.1,106.8
	L313.1,106.8z M305.3,73.5c-8.8,0-19.8,19-19.8,30.7c0,3.3,1.9,7.4,5.8,7.4c6.2,0,20.3-13.4,20.3-30
	C311.6,77.3,310.2,73.5,305.3,73.5z M348.7,72.3h8l-0.9,3.2H348l-8.2,28.2c-0.5,1.8-1.7,5.5-1.7,7.4c0,0.7,0.3,1.7,1.3,1.7
	c3.1,0,7-5.8,8.4-7.9l1.8,1.2c-2.8,4.2-9,11.4-14.4,11.4c-2.8,0-4.8-1.7-4.8-4.7c0-1.6,1-5.5,1.3-7l8.6-30.3h-7.5l0.5-2
	c8.4-2,12-6.5,17.3-14.9h2.1L348.7,72.3L348.7,72.3z M368.8,107.3c-0.3,1-0.7,2.3-0.7,3.3c0,0.9,0.5,1.3,1.4,1.3c2.4,0,6.3-5,7.7-7
	l1.8,1.2c-2.8,4.2-9,11.4-14.4,11.4c-2.8,0-4.8-1.7-4.8-4.7c0-1.6,1.2-5.4,1.7-7l5.4-19.3c1.4-5.1,2.1-7,2.1-8.4
	c0-2.3-2.4-2.8-4.3-2.8c-1,0-2,0.2-3,0.5v-2l16.2-2.8h1l-10,36.3H368.8z M378.1,51.2c2.8,0,5,2.2,5,5s-2.2,5-5,5s-5-2.2-5-5
	S375.3,51.2,378.1,51.2z M416.2,126.7c-0.5,1.7-1.4,4.5-1.4,6.2c0,3.4,4.5,3.4,6.6,3.4l-0.5,1.8h-23.6l0.5-1.8
	c6.8,0,8.4-1.2,10.5-8.2l7.7-26.6l-0.2-0.2c-4,6.1-11.6,16.2-20.4,16.2c-6.6,0-9.4-7.3-9.4-12.9C386,90,402,71,414.8,71
	c3.8,0,6.8,2.4,8.1,7.3h0.2l1.5-6l7.7-1.3l-16,55.7L416.2,126.7z M421,80.7c0-3.8-2.8-7.2-6.5-7.2c-9.7,0-20.2,19.5-20.2,30.2
	c0,3.4,1.5,7.9,5.5,7.9C407.3,111.6,421,94,421,80.7L421,80.7z M472.8,100.8c-0.6,2.1-2.4,7.8-2.4,9.6c0,0.8,0.2,1.5,1.3,1.5
	c2,0,3.7-1.7,7-6.6l1.6,1c-2.6,4.3-8,11.2-13.4,11.2c-2.4,0-4.1-1.3-4.1-4c0-4,1.5-9.7,5-20l-0.2-0.1c-4.3,7.1-14.6,24.1-24.5,24.1
	c-3.5,0-5.5-2.6-5.5-6c0-3.5,1.5-8.8,2.5-12.4c4.5-15.7,5.5-18.2,5.5-20.9c0-0.7-0.3-1.5-1.3-1.5c-2.6,0-5.2,4.3-6.8,6.1l-1.6-1
	c2.6-4.2,8.5-10.8,13.7-10.8c2.7,0,4.3,1.7,4.3,4.3c0,2.3-0.4,4-5,20.5c-1.7,5.8-3.6,10.5-3.6,13.5c0,1.5,1,2.3,2.3,2.3
	c5.1,0,19-14,24.7-34.8l1.2-4.5l8.1-1.3L472.8,100.8L472.8,100.8z M524.4,105.8c-6,6-13.8,11.7-22.7,11.7c-12,0-14.6-11-14.6-15
	c0-15,14.9-31.5,30.2-31.5c4.8,0,10.7,1.6,10.7,7.4c0,10.9-16.2,17.6-31.9,19.2c-0.2,1.2-0.4,2.6-0.4,4c0,6.3,5.2,10.7,11.2,10.7
	s10.7-3.5,16.5-8L524.4,105.8z M520.8,78.3c0-3-2-4.8-5-4.8c-9.8,0-17.6,12.8-19.2,21.5C514.1,93,520.8,83.7,520.8,78.3z"/>
</svg>
