<?xml version="1.0" encoding="utf-8"?>
<!-- Generator: Adobe Illustrator 23.0.2, SVG Export Plug-In . SVG Version: 6.00 Build 0)  -->
<svg version="1.1" id="Layer_1" xmlns="http://www.w3.org/2000/svg" xmlns:xlink="http://www.w3.org/1999/xlink" x="0px" y="0px"
	 viewBox="0 0 141.9 49.5" style="enable-background:new 0 0 141.9 49.5;" xml:space="preserve">
<style type="text/css">
	.st0{fill:#E2001A;}
</style>
<path class="st0" d="M127.4,7.7V21H112v-2h13.4V7c-11-3.1-22.3,3.3-25.4,14.3c-2.8,10,2.3,20.6,12,24.6V32.7h15.4v2H114v11.9
	c10.9,3.2,22.4-3,25.6-13.9C142.6,22.5,137.3,11.6,127.4,7.7L127.4,7.7z M22.9,6.8c6.3,0,9.1,4.3,9.1,9.6s-3.1,9.8-9.1,9.8
	c-6.9,0-9.3-4.8-9.3-9.8C13.6,10.4,17,6.8,22.9,6.8z M22.9,23.1c3.9,0,5.2-4.4,5.2-6.6c0-1.9-1.1-6.5-5.2-6.5
	c-3.9,0-5.5,3.3-5.5,6.5C17.3,18.8,18.4,23.1,22.9,23.1L22.9,23.1z M45.9,25.9v-2.5h-0.1c-1.2,1.9-3.3,3-5.6,2.9
	c-3.9,0-6.9-2-6.9-6.8V7.4h4.2v12c0,3,1.8,3.9,3.8,3.9c4.3,0,4.4-4.1,4.4-5.9V7.4h4v18.5L45.9,25.9z M68.7,18.8
	c-0.5,3.8-3,7.1-8.5,7.1s-8.8-3.9-8.8-9.1s2.7-10,8.8-10c5.7,0,8.8,4,8.8,10.4H55.3c0,2.6,1.1,5.7,5,5.7c2.4,0.1,4.5-1.7,4.7-4.1
	L68.7,18.8z M64.9,14.7c-0.2-2.5-1.7-4.9-4.7-4.9c-2.7,0-4.9,2.1-4.9,4.8c0,0,0,0,0,0v0.2H64.9z M95,40.7c-0.5,3.8-3,7.1-8.5,7.1
	c-5.5,0-8.8-3.8-8.8-9.1s2.7-10,8.8-10c5.7,0,8.8,4,8.8,10.4H81.5c0,2.6,1.1,5.7,5,5.7c2.4,0.1,4.5-1.7,4.7-4.1H95z M91.1,36.5
	c-0.2-2.5-1.7-4.9-4.7-4.9c-2.7-0.1-4.9,2.1-4.9,4.8c0,0,0,0,0,0v0.2H91.1z M80.7,12c0-0.8-0.9-2.4-3.7-2.4c-1.1,0-3.7-0.1-3.7,2.1
	c0,2,2,2.2,5.2,2.7c3.8,0.7,6.9,1.6,6.9,5.6c0,3.8-3.5,5.9-7.9,5.9c-8.5,0-8-4.9-8.1-7H73c0.1,1.4-0.3,4.1,4.4,4.1
	c2.4,0,4-0.5,4-2.5s-1.7-2.4-4.9-2.9c-4.7-0.7-6.9-2.2-6.9-5.7c0-4,3.9-5.1,7.8-5.1c6.9,0,7.4,5.1,7.4,5.4L80.7,12z M91.6,10.1v11.2
	c0,1.4,1,1.4,1.7,1.4h1.8v2.8h-4.7c-1,0-2.6-1.2-2.6-3.4v-12h-3V7.4h3V1.4h3.8v5.9h3.5v2.7L91.6,10.1z M8.3,32.4v15.1H4.5V32.4h-3
	v-3.1h3v-2.9c0-2.2,1.8-4,4-3.9c0,0,0,0,0,0h3.6v3.3h-2c-1.3,0-1.8,0.5-1.8,1.9v1.7h3.8v3.1L8.3,32.4z M17.6,47.5h-3.5V29.3h3.5v3.2
	c1-2.1,3.1-3.5,5.5-3.6h1.7v3.5h-1.6c-2.9-0.1-5.4,2.1-5.6,5L17.6,47.5z"/>
<path class="st0" d="M24.5,34.9c0.2-4.4,3.4-6.2,8.3-6.2c2.5,0,7.3,0.7,7.3,5.4v13.4h-3.5v-1.9c-1.7,1.6-4,2.5-6.3,2.5
	c-4.6,0-6.3-2.7-6.3-5.4c0-1.5,0.2-4.9,5.6-5.5l5.1-0.8c1-0.1,1.8-0.9,1.7-1.9v0c0-1.7-1.1-2.3-3.8-2.3c-2.9,0-4,1-4,2.8L24.5,34.9z
	 M36.5,38.4c-0.5,0.4-1.3,0.7-5.4,1.1c-1.6,0.2-3.2,0.5-3.2,2.8c0,1.8,1.4,2.5,3.2,2.5c2.4,0,5.3-1.3,5.3-3.4L36.5,38.4z M58,47.5
	h-4v-11c0-3.4-1.2-4.8-3.9-4.8c-1.9,0-4.5,1.3-4.5,5.4v10.4h-3.9V29.3h3.9v2.4c1.1-1.5,3-3.3,5.6-3.3c1.7,0,6.7,1,6.7,6.8V47.5z
	 M72.8,35.1c-0.3-2-2.1-3.5-4.2-3.4c-4.1,0-5.2,3.3-5.2,6.5c0,2.8,0.8,6.5,5.2,6.5c2.4,0,3.7-1.8,4.2-4.2h4
	c-0.3,2.9-2.4,7.3-8.2,7.3c-5.9,0-9-3.8-9-9.6c0-6.7,4.2-9.8,9.1-9.8c4.4,0,7.7,2.9,8,6.6L72.8,35.1z"/>
</svg>
