<?xml version="1.0" encoding="UTF-8" standalone="no"?>
<svg xmlns:svg="http://www.w3.org/2000/svg" xmlns="http://www.w3.org/2000/svg" version="1.1"
	width="213px" height="128px" viewBox="0 0 213 128">
	<defs />
	<rect x="1.147" y="1.019" width="210.46" height="125.52" style="fill:#e2001a" />
	<g style="fill:#ffffff">
		<path d="M 212.63,127.56 H 0.138 V 0 H 212.63 V 127.56 z M 2.191,125.51 H 210.58 V 2.051 H 2.191 V 125.51 z" />
		<polygon points="48.964,109.19 48.964,74.082 40.12,104.28 31.424,74.115 31.424,109.19 18.749,109.19 18.749,18.457 28.9,18.457 40.205,55.612 40.314,55.612 52.652,18.457 61.649,18.457 61.649,109.22 " />
		<path d="M 87.001,104.28 H 77.51 L 76.238,109.19 H 64.094 L 76.336,42.184 H 88.088 L 100.44,109.19 H 88.088 L 87.001,104.28 z M 84.993,91.289 82.095,70.231 79.266,91.289 H 84.993 z" id="path11" />
		<polygon points="104.39,109.19 104.39,54.344 95.735,54.344 95.735,42.184 124.91,42.184 124.91,54.344 116.41,54.344 116.41,109.19 " />
		<polygon points="182.05,109.19 182.05,54.344 171.79,54.344 171.79,109.19 159.7,109.19 159.7,18.457 171.79,18.457 171.79,42.184 182.05,42.184 182.05,18.457 194.12,18.457 194.12,109.19 " />
		<path d="M 126.65,54.732 C 127.42,47.824 132.94,41.566 141.9,41.566 150.87,41.566 156.67,49.025 156.67,55.237 V 65.61 H 144.49 V 57.965 C 144.49,54.455 143.12,53.863 141.66,53.863 140.17,53.863 138.82,54.454 138.82,57.965 V 93.208 C 138.82,96.665 139.92,97.322 141.66,97.322 143.37,97.322 144.49,96.665 144.49,93.208 V 87.232 H 156.67 V 96.211 C 156.25,102.64 150.87,109.62 141.9,109.62 132.94,109.62 127.42,103.24 126.65,96.329 V 54.732 z" />
	</g>
	<g style="fill:#000000">
		<path d="M 74.269,32.312 C 73.531,32.312 72.765,32.252 72.029,32.226 V 38.904 H 68.193 V 18.614 C 70.198,18.404 72.058,18.279 73.895,18.279 80.067,18.279 83.215,21.355 83.215,25.187 83.214,29.354 79.997,32.312 74.269,32.312 M 74.539,21.5 C 73.685,21.5 72.823,21.56 72.029,21.658 V 29.151 C 72.798,29.217 73.498,29.27 74.165,29.27 77.635,29.27 79.238,27.62 79.238,25.306 79.237,23.288 77.671,21.5 74.539,21.5" />
		<path d="M 101.06,38.904 98.874,34.212 H 89.982 L 87.815,38.904 H 83.858 L 94.21,18.147 H 94.769 L 105.1,38.904 H 101.06 z M 94.424,24.596 91.239,31.451 H 97.621 L 94.424,24.596 z" />
		<path d="M 121.2,38.904 116.29,31.529 115.1,31.555 C 114.37,31.555 113.6,31.529 112.84,31.509 V 38.904 H 109.02 V 18.621 C 110.81,18.417 112.67,18.286 114.95,18.286 121.32,18.286 124.15,21.112 124.15,24.741 124.15,27.396 122.56,29.546 119.76,30.657 L 125.64,38.906 H 121.2 z M 115.43,21.414 C 114.51,21.414 113.63,21.441 112.85,21.579 V 28.572 C 113.57,28.651 114.34,28.671 115.07,28.671 118.41,28.671 120.09,27.245 120.09,24.912 120.09,22.833 118.38,21.414 115.43,21.414" />
		<rect x="130.1" y="18.417" width="3.832" height="20.487" />
		<path d="M 145.88,39.24 C 143.34,39.24 140.78,38.405 138.83,37.235 L 140.15,34.099 C 141.92,35.262 144.07,35.999 146,35.999 148.37,35.999 149.4,34.743 149.4,33.317 149.4,31.89 148.73,30.996 145.17,29.629 141.25,28.117 139.84,26.277 139.84,23.812 139.84,20.861 142.54,18.087 147.22,18.087 149.4,18.087 151.55,18.757 152.86,19.573 L 151.64,22.649 C 150.46,21.887 148.67,21.203 147.13,21.203 144.78,21.203 143.67,22.36 143.67,23.727 143.67,25.101 144.77,25.91 147.56,27.033 152,28.788 153.29,30.445 153.29,33.133 153.29,36.419 150.5,39.24 145.88,39.24" />
	</g>
	<g style="fill:#E2001A">
		<path d="M 72.416,39.278 H 67.818 V 18.273 L 68.147,18.233 C 70.175,18.016 72.058,17.898 73.895,17.898 79.798,17.898 83.609,20.751 83.609,25.181 83.609,29.743 79.946,32.707 74.265,32.707 L 72.751,32.648 72.415,32.635 V 39.278 z M 68.57,38.522 H 71.646 V 31.832 L 72.045,31.838 72.784,31.884 74.265,31.93 C 79.55,31.93 82.827,29.341 82.827,25.18 82.827,21.223 79.321,18.667 73.895,18.667 72.193,18.667 70.452,18.765 68.571,18.969 V 38.522 z M 74.165,29.65 C 73.546,29.65 72.893,29.604 72.212,29.558 L 71.647,29.512 V 21.329 L 71.98,21.284 C 72.785,21.178 73.639,21.113 74.542,21.113 78.048,21.113 79.623,23.217 79.623,25.306 79.623,28.026 77.578,29.65 74.165,29.65 M 72.416,28.795 C 73.027,28.835 73.625,28.874 74.165,28.874 77.188,28.874 78.837,27.613 78.837,25.305 78.837,23.727 77.733,21.888 74.542,21.888 73.823,21.888 73.096,21.933 72.416,22.013 V 28.795 z" />
		<path d="M 105.72,39.286 H 100.83 L 98.648,34.593 H 90.227 L 88.062,39.286 H 83.234 L 93.977,17.753 H 95.013 L 105.72,39.286 z M 101.3,38.517 H 104.48 L 94.536,18.53 H 94.447 L 84.473,38.517 H 87.57 L 89.751,33.824 H 99.114 L 101.3,38.517 z M 98.231,31.826 H 90.651 L 94.421,23.682 98.231,31.826 z M 91.851,31.07 H 97.015 L 94.422,25.522 91.851,31.07 z" />
		<path d="M 126.4,39.278 H 121 L 116.09,31.937 115.1,31.943 C 114.49,31.943 113.86,31.916 113.25,31.903 V 39.278 H 108.64 V 18.273 L 108.98,18.233 C 111.12,17.997 112.95,17.898 114.95,17.898 120.95,17.898 124.54,20.462 124.54,24.747 124.54,27.415 123.02,29.604 120.35,30.82 L 126.4,39.278 z M 121.4,38.522 H 124.9 L 119.17,30.484 119.62,30.307 C 122.25,29.256 123.76,27.224 123.76,24.746 123.76,20.881 120.55,18.673 114.95,18.673 113.09,18.673 111.37,18.764 109.4,18.968 V 38.521 H 112.48 V 31.101 L 112.89,31.114 C 113.64,31.134 114.38,31.167 115.1,31.167 L 116.29,31.134 116.49,31.121 121.4,38.522 z M 115.07,29.071 C 114.2,29.071 113.45,29.025 112.82,28.953 L 112.48,28.907 V 21.256 L 112.8,21.21 C 113.64,21.052 114.59,21.02 115.43,21.02 118.5,21.02 120.5,22.558 120.5,24.904 120.5,27.56 118.51,29.071 115.07,29.071 M 113.25,28.224 C 113.78,28.263 114.4,28.289 115.07,28.289 117.18,28.289 119.71,27.711 119.71,24.904 119.71,22.991 118.07,21.801 115.43,21.801 114.74,21.801 113.96,21.814 113.25,21.906 V 28.224 z" />
		<path d="M 134.32,39.286 H 129.72 V 18.042 H 134.32 V 39.286 z M 130.47,38.517 H 133.54 V 18.805 H 130.47 V 38.517 z" />
		<path d="M 145.88,39.628 C 143.47,39.628 140.82,38.878 138.63,37.557 L 138.35,37.392 139.98,33.521 140.35,33.783 C 142.13,34.94 144.18,35.617 146,35.617 147.9,35.617 149.02,34.757 149.02,33.317 149.02,32.238 148.75,31.417 145.04,29.991 141.17,28.499 139.46,26.606 139.46,23.819 139.46,20.776 142.13,17.7 147.22,17.7 149.69,17.7 151.87,18.495 153.07,19.238 L 153.36,19.415 151.83,23.208 151.44,22.965 C 150.42,22.334 148.68,21.578 147.13,21.578 145.24,21.578 144.05,22.399 144.05,23.727 144.05,24.858 144.96,25.561 147.71,26.679 152.12,28.434 153.69,30.103 153.69,33.133 153.69,36.354 151,39.628 145.88,39.628 M 139.32,37.063 C 141.33,38.214 143.71,38.857 145.88,38.857 150.49,38.857 152.91,35.972 152.91,33.132 152.91,30.812 152.03,29.208 147.42,27.387 144.74,26.31 143.29,25.409 143.29,23.726 143.29,22.386 144.3,20.815 147.14,20.815 148.66,20.815 150.3,21.426 151.45,22.076 L 152.38,19.737 C 150.99,18.974 149.01,18.482 147.22,18.482 142.63,18.482 140.23,21.151 140.23,23.819 140.23,26.271 141.75,27.901 145.32,29.275 148.75,30.589 149.79,31.543 149.79,33.317 149.79,34.723 148.81,36.399 146,36.399 144.17,36.399 142.14,35.755 140.32,34.664 L 139.32,37.063 z" />
	</g>
</svg>