<svg version="1.2" xmlns="http://www.w3.org/2000/svg" viewBox="0 0 730 310" width="730" height="310">
	<title>LOGO RMC avec contour</title>
	<style>
		.s0 { fill: #e30613 } 
		.s1 { fill: #141414 } 
		.s2 { fill: #ffffff } 
	</style>
	<g id="Calque 1">
	</g>
	<g id="Calque 2">
		<g id="&lt;Group&gt;">
			<path id="&lt;Path&gt;" class="s0" d="m4.3 225.9v-221.5h721.4v221.5z"/>
			<path id="&lt;Path&gt;" class="s1" d="m4.3 306.5v-82.2h721.4v82.2z"/>
			<g id="&lt;Group&gt;">
				<path id="&lt;Compound Path&gt;" fill-rule="evenodd" class="s2" d="m249.4 133.9l17.2 62.1h-46.8l-12.1-51.3q-0.9-3.8-5.4-3.8-4.4 0-5.4 4.8l-3.8 50.6h-48.4l18.6-160.8q73.4 0.1 76.9 0.1c3.5 0 35.9 0 35.9 44.2q0 44.3-26.7 54.1zm-34.4-65.5q-2.5 0-11.1 0l-3.5 42.3h13.7q14.6-1.3 15.6-19.4c0.9-18.2-10.8-22.9-14.7-22.9z"/>
				<path id="&lt;Path&gt;" class="s2" d="m306.1 36.5h40.1l23.5 77.1 39.8-76.8h41.4l-15 159.2h-42.6l4.1-60.5-28.3 60.5h-14.3l-18.2-57-6.3 57h-42.1z"/>
				<path id="&lt;Path&gt;" class="s2" d="m544.5 77.6q-30 0-33.5 42c-1.9 38.2 28.7 39.1 34.4 34.1 3.8-1.6 11.2-9 13.1-11.2q1.9-2.2 4.1-2.2h7.6q11.8 22.3 13.1 24.5c1.3 2.2 1.3 2.9 0 6.7-4.2 10.5-31.8 35.9-70.4 26.4-38.5-9.6-51.8-49.7-45.8-90.7 7.1-48.5 42.7-75.8 75.1-75.8 32.5 0 45.2 17.2 49.7 21.7q4.4 4.4 2.8 8.9l-19.4 32.1h-7.6q-12.4-18.7-23.2-16.5z"/>
			</g>
			<path id="&lt;Compound Path&gt;" class="s2" d="m21.5 245.3h15.9v40.4h-15.9z"/>
			<path id="&lt;Compound Path&gt;" class="s2" d="m45.4 245.3h18.2l16.3 22.4h0.1v-22.4h15.3v40.4h-17.5l-17-22.6h-0.1v22.6h-15.3z"/>
			<path id="&lt;Compound Path&gt;" class="s2" d="m103.2 245.3h40.9v9.9h-25v6.1h23v9.9h-23v14.5h-15.9z"/>
			<path id="&lt;Compound Path&gt;" fill-rule="evenodd" class="s2" d="m173.8 244c9.6 0 27.6 0.6 27.6 21.5 0 20.9-18 21.6-27.6 21.6-9.7 0-27.7-0.7-27.7-21.6 0-20.9 18-21.5 27.7-21.5zm0 32.9c6.5 0 10.6-3.2 10.6-11.4 0-8.1-4.1-11.3-10.6-11.3-6.5 0-10.7 3.2-10.7 11.3 0 8.2 4.2 11.4 10.7 11.4z"/>
			<path id="&lt;Compound Path&gt;" class="s2" d="m240.9 255.5h-14.8v-10.2h45.5v10.2h-14.8v30.2h-15.9z"/>
			<path id="&lt;Compound Path&gt;" fill-rule="evenodd" class="s2" d="m284.7 245.3h19.6l17.2 40.4h-17l-1.7-4.6h-16.6l-1.7 4.6h-17zm9.8 12.3h-0.1l-4.7 13.7h9.6z"/>
			<path id="&lt;Compound Path&gt;" class="s2" d="m324.8 245.3h16v29.5h24.7v10.9h-40.7z"/>
			<path id="&lt;Compound Path&gt;" class="s2" d="m391.1 270.2l-5.2 4.7v10.8h-16v-40.4h16v14.3l14.8-14.3h21.2l-18.1 15.6 19.6 24.8h-21.2z"/>
			<path id="&lt;Compound Path&gt;" class="s2" d="m456.4 268.6c-7.8-1.2-11.1-5.7-11.1-11.3 0-10.5 10.3-13.3 23.4-13.3 18.1 0 25.5 4.7 26 13.2h-18.5c0-1.6-1-2.6-2.5-3.2-1.4-0.7-3.2-0.9-5-0.9-4.7 0-6.4 1.2-6.4 2.9 0 1.1 0.5 1.8 2.1 2.1l19.1 2.8c8.1 1.2 13.1 4.9 13.1 11.7 0 9.8-8.1 14.5-26 14.5-12.3 0-25.8-1.7-25.8-13.6h19.2c0.1 1.4 0.6 2.3 1.7 2.9 1.2 0.6 3 0.8 5.5 0.8 5 0 6.3-1.3 6.3-3.2 0-1.2-0.7-2.4-2.9-2.7z"/>
			<path id="&lt;Compound Path&gt;" fill-rule="evenodd" class="s2" d="m501.8 245.3h33c11.3 0 15.5 5.1 15.5 14.1 0 7.8-4.1 13.8-15.4 13.8h-17.1v12.5h-16zm16 18h10.3c4 0 5.5-1.2 5.5-4.1 0-3.1-1.5-4.3-5.5-4.3h-10.3z"/>
			<path id="&lt;Compound Path&gt;" fill-rule="evenodd" class="s2" d="m582.1 244c9.6 0 27.6 0.6 27.6 21.5 0 20.9-18 21.6-27.6 21.6-9.7 0-27.7-0.7-27.7-21.6 0-20.9 18-21.5 27.7-21.5zm0 32.9c6.5 0 10.6-3.2 10.6-11.4 0-8.1-4.1-11.3-10.6-11.3-6.5 0-10.7 3.2-10.7 11.3 0 8.2 4.2 11.4 10.7 11.4z"/>
			<path id="&lt;Compound Path&gt;" fill-rule="evenodd" class="s2" d="m614.1 245.3h33.7c4.6 0 7.4 0.4 9.6 1.5 3 1.5 5.5 5.4 5.5 9.8 0 3.8-1.6 7.9-6.3 9.2v0.2c2.4 0.6 4.3 2.7 4.6 6.1l0.7 8.9c0.2 1.8 1 3.5 2 4.7h-17.5c-0.5-1.2-0.5-2.9-0.8-7.6-0.2-3-1.2-4.9-4.2-4.9h-11.3v12.5h-16zm16 17.8h11.3c3.2 0 4.5-1.3 4.5-3.8 0-3-2-3.8-4.7-3.8h-11.1z"/>
			<path id="&lt;Compound Path&gt;" class="s2" d="m681.7 255.5h-14.7v-10.2h45.5v10.2h-14.8v30.2h-16z"/>
			<path id="&lt;Compound Path&gt;" fill-rule="evenodd" class="s2" d="m730 310h-730v-310h730zm-725.4-4.6h720.8v-300.8h-720.8z"/>
		</g>
	</g>
</svg>