<?xml version="1.0" encoding="utf-8"?>
<!-- Generator: Adobe Illustrator 14.0.0, SVG Export Plug-In . SVG Version: 6.00 Build 43363)  -->
<!DOCTYPE svg PUBLIC "-//W3C//DTD SVG 1.1//EN" "http://www.w3.org/Graphics/SVG/1.1/DTD/svg11.dtd">
<svg version="1.1" id="Calque_1" xmlns="http://www.w3.org/2000/svg" xmlns:xlink="http://www.w3.org/1999/xlink" x="0px" y="0px"
	 width="115px" height="76px" viewBox="0 0 115 76" enable-background="new 0 0 115 76" xml:space="preserve">
<g>
	<g>
		<g>
			<polyline fill="#E0051D" points="83.69,75.883 114.582,75.883 114.582,62.882 100.046,62.882 100.051,0.002 83.68,0 			"/>
			<path fill="#E0051D" d="M41.725,13.816c0.529,1.963,0.671,3.582,0.671,5.279c0,10.153-6.057,17.056-10.698,17.256
				c4.641,0,10.901,5.882,10.901,14.413c0,0.205,0,16.859,0,16.859c0.2,2.835,0.606,4.669,3.431,8.325H30.082
				c-1.817-1.432-3.23-4.063-3.23-7.521c0-3.448,0-20.092,0-20.092c0-5.286-4.446-7.72-9.893-6.91v34.522H0V0.011h25.437
				c7.077,0.114,11.367,3.615,13.938,8.172l-0.003-8.172h42.788v13.807H69.444v62.131H52.693l-0.029-62.133H41.725z M17.163,23.156
				v7.108c6.46,0.201,9.69-2.505,9.69-9.342c0-6.702-3.43-8.729-9.69-8.729v18.071"/>
		</g>
	</g>
</g>
</svg>
