<?xml version="1.0" encoding="UTF-8" standalone="no"?>
<svg xmlns="http://www.w3.org/2000/svg" viewBox="0 0 154 19.904499">
  <path transform="translate(-1 -1.1)" fill="#00abe9" d="M36.6 1.4L28.5 20.6 22.1 20.6 16.7 7.4 12.7 7.4 12.7 20.6 5.5 20.6 5.5 7.5 1 7.5 1 1.4 22.1 1.4 25.3 12.3 28.5 1.4 36.6 1.4"/>
  <path d="m 41.7,5.7 h 8.9 V 0.3 h -14 l -1.9,11.5 c 0,0 2.3,-0.6 4.6,-0.8 2.5,-0.1 5,0.4 4.9,2.1 -0.1,1.4 -3.1,2.1 -5.5,1.6 -2.3,-0.5 -4.3,-1.4 -4.3,-1.4 l -0.9,5.1 c 0,0 4.6,1.6 7.9,1.5 3.3,-0.1 9.9,-0.9 10.3,-6.8 0.2,-4 -4,-6 -6.4,-6 -3,0 -4.1,0.7 -4.1,0.7 l 0.5,-2.1" fill="#00abe9"/>
  <path transform="translate(-1 -1.1)" fill="#00abe9" d="M56.1 1.4L63.3 1.4 66 11.5 68.8 1.4 75.9 1.4 79.1 20.6 72.3 20.6 71.4 10.1 68.1 20.6 64 20.6 60.7 10.1 59.7 20.6 53 20.6 56.1 1.4"/>
  <path d="m 99.2,10 c 0,6.2 -4.8,9.9 -10.6,9.9 C 82.7,19.9 78,16.2 78,10 78,4 82.8,0 88.6,0 94.4,0 99.2,3.9 99.2,10 M 85,10.1 c 0,2.2 1.5,3.7 3.6,3.7 2.1,0 3.6,-1.5 3.6,-3.7 0,-2 -1.4,-3.8 -3.6,-3.8 C 86.4,6.3 85,8 85,10.1 Z" fill="#00abe9"/>
  <path transform="translate(-1 -1.1)" fill="#00abe9" d="M101.4 1.4L108.2 1.4 114.1 12 114.1 1.4 120.7 1.4 120.7 20.6 114.1 20.6 108.1 10.5 108.1 20.6 101.4 20.6 101.4 1.4"/>
  <path d="m 121.2,0.3 h 7.1 c 6.5,0 11.4,2.8 11.4,9.9 0,5.7 -4,9.4 -9.7,9.4 h -8.9 V 0.3 m 7.1,13.5 h 0.4 c 2.3,0 4.1,-1.1 4.1,-3.6 0,-2.7 -1.6,-3.9 -4.1,-3.9 h -0.4 z" fill="#00abe9"/>
  <path transform="translate(-1 -1.1)" fill="#00abe9" d="M141.9 1.4L154.8 1.4 154.8 6.6 148.9 6.6 148.9 8.5 154.3 8.5 154.3 13.5 148.9 13.5 148.9 15.4 155 15.4 155 20.6 141.9 20.6 141.9 1.4"/>
</svg>
