<?xml version="1.0" encoding="UTF-8" standalone="no"?>
<svg
   width="313.86pt"
   height="313.17pt"
   viewBox="0 0 313.86 313.17"
   version="1.2"
   id="svg81136"
   sodipodi:docname="vmg.svg"
   inkscape:version="1.2.2 (1:1.2.2+202212051550+b0a8486541)"
   xmlns:inkscape="http://www.inkscape.org/namespaces/inkscape"
   xmlns:sodipodi="http://sodipodi.sourceforge.net/DTD/sodipodi-0.dtd"
   xmlns="http://www.w3.org/2000/svg"
   xmlns:svg="http://www.w3.org/2000/svg">
  <sodipodi:namedview
     id="namedview81138"
     pagecolor="#ffffff"
     bordercolor="#666666"
     borderopacity="1.0"
     inkscape:showpageshadow="2"
     inkscape:pageopacity="0.0"
     inkscape:pagecheckerboard="0"
     inkscape:deskcolor="#d1d1d1"
     inkscape:document-units="pt"
     showgrid="false"
     inkscape:zoom="1.0273972"
     inkscape:cx="351.86001"
     inkscape:cy="124.10001"
     inkscape:window-width="1920"
     inkscape:window-height="1029"
     inkscape:window-x="0"
     inkscape:window-y="0"
     inkscape:window-maximized="1"
     inkscape:current-layer="svg81136" />
  <defs
     id="defs81101">
    <clipPath
       id="clip1">
      <path
         d="M 143 252 L 185 252 L 185 313.171875 L 143 313.171875 Z M 143 252 "
         id="path81095" />
    </clipPath>
    <clipPath
       id="clip2">
      <path
         d="M 254 140 L 313.859375 140 L 313.859375 177 L 254 177 Z M 254 140 "
         id="path81098" />
    </clipPath>
  </defs>
  <g
     id="surface1747760"
     style="fill:#000000">
    <path
       style="stroke:none;fill-rule:nonzero;fill:#000000;fill-opacity:1"
       d="M 32.207031 187.257812 C 48.410156 180.164062 63.605469 182.105469 69.265625 195.035156 C 73.140625 203.882812 70.148438 214.046875 58.929688 220.375 L 54.082031 209.300781 C 61.269531 205.089844 61.449219 202.265625 60.3125 199.664062 C 57.675781 193.644531 48.929688 193.488281 37.039062 198.695312 C 25.21875 203.867188 20.046875 209.851562 22.878906 216.320312 C 24.179688 219.292969 26.710938 221.636719 37.675781 218.164062 L 34.847656 211.699219 L 43.839844 207.761719 L 51 224.113281 L 22.234375 236.703125 L 18.980469 229.273438 L 25.183594 225.230469 C 18.878906 225.597656 15.261719 224.613281 12.296875 217.851562 C 7.09375 205.957031 16.972656 193.929688 32.207031 187.257812 "
       id="path81103" />
    <path
       style="stroke:none;fill-rule:nonzero;fill:#000000;fill-opacity:1"
       d="M 73.019531 245.863281 C 76.441406 249.09375 79.597656 249.058594 83.550781 244.871094 C 86.835938 241.390625 87.25 237.875 84.359375 235.148438 L 78.046875 229.1875 L 67.355469 240.519531 Z M 76.277344 213.6875 L 92.976562 229.445312 C 99.585938 235.683594 100.363281 244.785156 93.238281 252.339844 C 88.613281 257.234375 83.257812 258.539062 77.164062 256.246094 C 79.722656 263.347656 78.078125 266.035156 72.011719 272.464844 C 68.445312 276.242188 66.507812 278.652344 66.128906 279.523438 C 65.8125 280.453125 65.957031 281.480469 66.324219 282.273438 L 65.265625 283.394531 L 55.472656 274.152344 C 56.605469 271.648438 58.925781 268.597656 62.324219 265 C 68.003906 258.980469 70.175781 256.679688 65.042969 251.835938 L 60.617188 247.65625 L 44.96875 264.238281 L 36.296875 256.054688 L 76.277344 213.6875 "
       id="path81105" />
    <path
       style="stroke:none;fill-rule:nonzero;fill:#000000;fill-opacity:1"
       d="M 105.652344 293.578125 C 111.574219 295.816406 117.691406 287.890625 121.503906 277.796875 C 125.371094 267.550781 125.96875 257.714844 119.894531 255.421875 C 113.671875 253.070312 107.839844 260.929688 103.972656 271.175781 C 100.042969 281.574219 99.355469 291.199219 105.652344 293.578125 Z M 123.460938 245.753906 C 136.210938 250.570312 139.289062 264.917969 132.8125 282.070312 C 126.417969 298.992188 114.6875 308.003906 101.9375 303.1875 C 89.1875 298.371094 86.097656 284.28125 92.664062 266.902344 C 99.085938 249.902344 110.40625 240.824219 123.460938 245.753906 "
       id="path81107" />
    <g
       clip-path="url(#clip1)"
       clip-rule="nonzero"
       id="g81111"
       style="fill:#000000">
      <path
         style="stroke:none;fill-rule:nonzero;fill:#000000;fill-opacity:1"
         d="M 184.023438 290.226562 C 184.765625 304.488281 178.433594 312.453125 165.308594 313.132812 C 153.886719 313.726562 145.988281 307.148438 145.25 292.890625 L 143.25 254.40625 L 155.648438 253.761719 L 157.605469 291.515625 C 158.003906 299.132812 160.5625 303.0625 165.019531 302.832031 C 169.476562 302.597656 172.039062 298.8125 171.652344 291.355469 L 169.664062 253.035156 L 182.0625 252.390625 L 184.023438 290.226562 "
         id="path81109" />
    </g>
    <path
       style="stroke:none;fill-rule:nonzero;fill:#000000;fill-opacity:1"
       d="M 219.449219 264.566406 C 223.375 262.441406 223.988281 258.972656 221.089844 253.625 C 218.230469 248.34375 214.9375 247.542969 210.515625 249.9375 L 204.234375 253.339844 L 212.386719 268.390625 Z M 227.183594 295.714844 L 216.480469 301.511719 L 188.746094 250.285156 L 209.289062 239.160156 C 217.851562 234.523438 226.613281 238.269531 231.945312 248.113281 C 237.082031 257.601562 235.085938 267.542969 226.59375 272.136719 L 217.175781 277.238281 L 227.183594 295.714844 "
       id="path81113" />
    <path
       style="stroke:none;fill-rule:nonzero;fill:#000000;fill-opacity:1"
       d="M 3.265625 129.492188 L 4.5 116.894531 L 60.777344 139.851562 L 59.644531 151.398438 L 0 162.835938 L 1.273438 149.835938 L 44.558594 143.96875 L 44.578125 143.808594 L 3.265625 129.492188 "
       id="path81115" />
    <path
       style="stroke:none;fill-rule:nonzero;fill:#000000;fill-opacity:1"
       d="M 52.746094 123.554688 L 57.574219 113.542969 L 23.667969 97.1875 L 18.835938 107.195312 L 9.558594 102.71875 L 24.503906 71.734375 L 33.785156 76.210938 L 28.957031 86.222656 L 62.863281 102.582031 L 67.691406 92.570312 L 76.972656 97.046875 L 62.023438 128.03125 L 52.746094 123.554688 "
       id="path81117" />
    <path
       style="stroke:none;fill-rule:nonzero;fill:#000000;fill-opacity:1"
       d="M 56.746094 75.222656 C 45.3125 62.597656 41.523438 47.53125 52.347656 37.730469 C 60.164062 30.65625 71.65625 30.535156 81.210938 39.394531 L 72.191406 47.5625 C 67.003906 43.285156 62.671875 42.609375 59.484375 45.496094 C 54.195312 50.285156 59.25 59.496094 66.058594 67.015625 C 72.699219 74.351562 81.261719 80.058594 86.492188 75.324219 C 89.621094 72.492188 89.152344 67.988281 85.09375 61.816406 L 94.117188 53.648438 C 101.632812 64.242188 101.449219 76.007812 93.390625 83.304688 C 82.566406 93.105469 68.453125 88.152344 56.746094 75.222656 "
       id="path81119" />
    <path
       style="stroke:none;fill-rule:nonzero;fill:#000000;fill-opacity:1"
       d="M 89.976562 13.195312 L 125.964844 1.105469 L 129.246094 10.871094 L 104.558594 19.164062 L 108.460938 30.773438 L 130.761719 23.28125 L 134.042969 33.050781 L 111.742188 40.539062 L 116.546875 54.84375 L 142.539062 46.113281 L 145.816406 55.878906 L 108.523438 68.40625 L 89.976562 13.195312 "
       id="path81121" />
    <path
       style="stroke:none;fill-rule:nonzero;fill:#000000;fill-opacity:1"
       d="M 185.015625 -0.00390625 L 200.367188 4.992188 L 192.558594 47.332031 L 192.792969 47.40625 L 211.167969 8.511719 L 226.445312 13.480469 L 208.414062 68.875 L 198.308594 65.585938 L 208.476562 34.339844 L 211.519531 25.519531 L 211.210938 25.417969 L 193.21875 63.929688 L 181.875 60.234375 L 190.226562 18.585938 L 189.996094 18.511719 L 187.1875 27.410156 L 177.015625 58.652344 L 166.984375 55.390625 L 185.015625 -0.00390625 "
       id="path81123" />
    <path
       style="stroke:none;fill-rule:nonzero;fill:#000000;fill-opacity:1"
       d="M 253.410156 30.617188 L 280.476562 57.246094 L 273.25 64.59375 L 254.683594 46.328125 L 246.09375 55.058594 L 262.863281 71.5625 L 255.636719 78.90625 L 238.867188 62.402344 L 228.28125 73.160156 L 247.828125 92.394531 L 240.601562 99.738281 L 212.554688 72.140625 L 253.410156 30.617188 "
       id="path81125" />
    <path
       style="stroke:none;fill-rule:nonzero;fill:#000000;fill-opacity:1"
       d="M 258.042969 116.304688 C 260.867188 124.082031 271.257812 122.984375 280.105469 119.769531 C 291.925781 115.480469 296.375 110.148438 293.964844 103.515625 L 292.332031 99.015625 L 256.492188 112.035156 Z M 297.714844 84.375 L 304.003906 101.683594 C 309.042969 115.558594 299.746094 125.84375 285.179688 131.132812 C 270.160156 136.589844 254.292969 135.445312 249.085938 121.109375 L 242.964844 104.261719 L 297.714844 84.375 "
       id="path81127" />
    <g
       clip-path="url(#clip2)"
       clip-rule="nonzero"
       id="g81131"
       style="fill:#000000">
      <path
         style="stroke:none;fill-rule:nonzero;fill:#000000;fill-opacity:1"
         d="M 265.925781 140.8125 L 265.617188 151.925781 L 303.25 152.976562 L 303.558594 141.863281 L 313.859375 142.152344 L 312.898438 176.539062 L 302.597656 176.25 L 302.910156 165.140625 L 265.277344 164.089844 L 264.964844 175.199219 L 254.667969 174.914062 L 255.628906 140.523438 L 265.925781 140.8125 "
         id="path81129" />
    </g>
    <path
       style="stroke:none;fill-rule:nonzero;fill:#000000;fill-opacity:1"
       d="M 259.753906 217.597656 L 282.652344 223.753906 L 282.730469 223.609375 L 265.328125 207.417969 Z M 297.53125 223.945312 L 290.789062 236.257812 L 231.394531 223.433594 L 237.75 211.835938 L 249.722656 214.96875 L 257.75 200.3125 L 248.699219 191.839844 L 254.855469 180.597656 L 297.53125 223.945312 "
       id="path81133" />
  </g>
</svg>
