<?xml version="1.0" encoding="UTF-8" standalone="no"?>
<!-- Created with Inkscape (http://www.inkscape.org/) -->
<svg
   xmlns:svg="http://www.w3.org/2000/svg"
   xmlns="http://www.w3.org/2000/svg"
   version="1.0"
   width="800"
   height="169"
   viewBox="0 0 492.679 103.759"
   id="svg2"
   xml:space="preserve">
 <defs
   id="defs4">
  <style
   type="text/css"
   id="style6" />
 
  
  
 
   
   
   
   
   
   
   
   
   
  </defs>
 <g
   id="g2193"><polygon
     points="91.6335,102.475 109.755,102.475 109.755,41.7032 91.6335,41.7032 91.6335,102.475 "
     style="fill:#7a1f5e;fill-rule:nonzero"
     id="_81106576" /><polygon
     points="91.6527,33.1824 109.742,33.1824 109.742,16.5999 91.6527,16.5999 91.6527,33.1824 "
     style="fill:#7a1f5e;fill-rule:nonzero"
     id="_81170032" /><polygon
     points="474.554,102.475 492.679,102.475 492.679,41.7032 474.554,41.7032 474.554,102.475 "
     style="fill:#7a1f5e;fill-rule:nonzero"
     id="_81170248" /><polygon
     points="474.566,33.1824 492.666,33.1824 492.666,16.5999 474.566,16.5999 474.566,33.1824 "
     style="fill:#7a1f5e;fill-rule:nonzero"
     id="_81170416" /><path
     d="M 332.548,39.8512 C 318.8427,40.110016 308.6025,43.88799 302.1047,51.0982 C 295.86203,58.03501 295.1871,65.7748 295.1871,68.7717 L 295.1871,102.522 L 313.1899,102.522 L 313.1899,69.3268 C 313.1899,60.93495 321.15282,55.0599 332.5608,55.0599 C 344.0722,55.0599 352.1055,60.93492 352.1055,69.3268 L 352.1055,102.522 L 370.1211,102.522 L 370.1211,68.7717 C 370.1211,65.77474 369.44068,58.0222 363.18521,51.0982 C 356.64166,43.88794 346.34021,40.11 332.54801,39.8512 L 332.548,39.8512 z "
     style="fill:#7a1f5e;fill-rule:nonzero"
     id="_39072232" /><polygon
     points="63.4903,41.7032 42.4384,86.0009 20.6421,41.7032 0,41.7032 31.3405,102.522 53.434,102.522 83.9322,41.7032 63.4903,41.7032 "
     style="fill:#7a1f5e;fill-rule:nonzero"
     id="_40372040" /><polygon
     points="181.434,41.7032 160.38,86.0009 138.593,41.7032 117.947,41.7032 149.284,102.522 171.384,102.522 201.87,41.7032 181.434,41.7032 "
     style="fill:#7a1f5e;fill-rule:nonzero"
     id="_40531472" /><path
     d="M 262.017,61.471 C 262.07827,61.597207 262.17887,61.777372 262.17887,61.777372 L 214.84857,70.827692 L 221.8558,83.580992 L 283.924,71.317892 L 283.90114,70.317382 C 283.69811,67.442972 282.66559,63.474772 282.62078,63.303752 C 281.52333,59.245012 274.45483,39.067452 241.87518,39.874052 C 229.58278,40.171278 219.11038,43.787382 212.40308,50.027352 C 206.16681,55.844762 202.72447,63.897352 202.72447,72.692452 C 202.72447,81.351342 207.00544,89.265752 214.78087,94.986252 C 221.70487,100.09672 231.82517,102.58702 245.69517,102.58702 L 278.83267,102.52209 L 278.83267,87.572089 L 246.27947,87.572089 C 244.55281,87.565688 237.48431,87.726647 234.03187,87.004158 C 231.858,86.542314 220.96857,83.645038 220.21677,72.378758 C 219.95247,68.243198 221.17521,65.067898 223.9664,62.119458 C 228.47327,57.319018 234.8001,54.392488 243.5852,54.392488 C 255.8099,54.392488 260.849,59.483748 262.0169,61.471048 L 262.017,61.471 z "
     style="fill:#7a1f5e;fill-rule:nonzero"
     id="_40408360" /><path
     d="M 443.023,0 L 443.023,39.8512 L 423.4746,39.774378 C 417.09932,39.774378 401.1259,40.870918 390.6215,50.865978 C 384.9367,56.276418 382.04949,63.455578 382.04949,72.188578 C 382.02663,79.693318 384.77208,86.503878 389.95388,91.930778 C 397.36442,99.657748 408.02438,103.75858 420.79048,103.75858 C 434.12538,103.75858 444.95268,100.30618 452.09528,93.360178 C 458.40654,87.197078 461.2965,78.589378 461.2965,68.620878 L 461.2965,-2.16e-005 L 443.023,-2.16e-005 L 443.023,0 z M 443.023,68.898 C 443.023,78.35071 438.63868,87.8784 421.181,87.8784 C 413.7604,87.8784 407.7857,86.06486 403.7141,81.49032 C 401.47164,78.93783 400.2425,76.12195 400.2425,73.10213 C 400.2425,66.97835 402.10085,63.75825 405.50478,60.75763 C 409.75649,57.01532 416.30648,54.89267 423.46178,54.95394 C 423.46178,54.95394 439.60618,54.960342 443.02298,54.973145 L 443.02298,68.897945 L 443.023,68.898 z "
     style="fill:#7a1f5e;fill-rule:nonzero"
     id="_40474960" /></g>
</svg>