<svg id="layer" width="700" height="308.29" inkscape:version="1.2 (dc2aeda, 2022-05-15)" sodipodi:docname="Logo Vosges Matin.svg" version="1.1" viewBox="0 0 700 308.29" xml:space="preserve" xmlns="http://www.w3.org/2000/svg" xmlns:inkscape="http://www.inkscape.org/namespaces/inkscape" xmlns:sodipodi="http://sodipodi.sourceforge.net/DTD/sodipodi-0.dtd"><sodipodi:namedview bordercolor="#666666" borderopacity="1.0" inkscape:current-layer="layer" inkscape:cx="72.100922" inkscape:cy="33.749368" inkscape:deskcolor="#d1d1d1" inkscape:pagecheckerboard="0" inkscape:pageopacity="0.0" inkscape:showpageshadow="2" inkscape:window-height="1080" inkscape:window-maximized="0" inkscape:window-width="1920" inkscape:window-x="0" inkscape:window-y="0" inkscape:zoom="0.65186406" pagecolor="#ffffff" showgrid="false"/>
<style type="text/css">
	.st0{fill-rule:evenodd;clip-rule:evenodd;fill:#FFFFFF;}
</style>
<rect width="700" height="308.29" fill="#e30613" stroke-width="45.293"/><g transform="matrix(4.4581 0 0 4.4581 -221.11 11.444)" fill="#fff"><g><path d="m94.1 11.6c-7.7 0-12.6 4.8004-12.6 12.4s4.7996 12.4 12.6 12.5c7.6 0 12.6-5.0996 12.6-12.6 0-7.5-4.8996-12.301-12.6-12.301zm0 5.5996c3.2 0 5.2012 2.5008 5.2012 6.8008s-1.9012 6.6992-5.2012 6.6992c-3.3 0-5.2988-2.5988-5.2988-6.7988-0.1-4.2 1.8988-6.7012 5.2988-6.7012z"/><path d="m114 27.8c0.4 2 1.7 2.8 4.2 2.8 2.3 0 3.6-0.6 3.6-1.8 0-0.6-0.3-1.1-0.8-1.3-0.5-0.3-1-0.5-3.1-0.9-1.9-0.3-3.8-0.8-5.6-1.4-1.8-0.7-3.1-1.6-3.8-2.7-0.6-1.1-1-2.3-0.9-3.6 0-4.6 3.8-7.3 10.2-7.3 3.6 0 6.3 0.8 8.1 2.4 1.3 1.1 1.9 2.2 2.5 4.3l-7.3 0.8c-0.2-1.6-1.1-2.2-3.2-2.2-2 0-3.2 0.6-3.2 1.6s0.8 1.4 4.6 2.2 4.9 1.1 6.2 1.8c2.5 1.2 3.7 3.1 3.7 5.8 0.1 1.9-0.7 3.7-2 5-1.8 1.8-4.9 2.8-9 2.8-4.8 0-8.2-1.3-10-3.8-0.8-1.1-1.1-2-1.5-3.8z"/><path d="m186.5 27.8c0.4 2 1.7 2.8 4.2 2.8 2.3 0 3.6-0.6 3.6-1.8 0-0.6-0.3-1.1-0.8-1.3-0.5-0.3-1-0.5-3.1-0.9-1.9-0.3-3.8-0.8-5.6-1.4-1.8-0.7-3.1-1.6-3.8-2.7-0.6-1.1-1-2.3-0.9-3.6 0-4.6 3.8-7.3 10.2-7.3 3.6 0 6.3 0.8 8.1 2.4 1.3 1.1 1.9 2.2 2.5 4.3l-7.3 0.8c-0.2-1.6-1.1-2.2-3.2-2.2s-3.2 0.6-3.2 1.6 0.8 1.4 4.6 2.2 4.9 1.1 6.2 1.8c2.5 1.2 3.7 3.1 3.7 5.8 0.1 1.9-0.6 3.7-2 5-1.8 1.8-4.9 2.8-9 2.8-4.8 0-8.2-1.3-10-3.8-0.8-1.1-1.1-2-1.5-3.8z"/><path d="m166.9 11.5c-7.3 0-12.1 5-12.1 12.5 0 3.8 1.2 7.0008 3.5 9.3008 2.1 2.1 4.9988 3.1992 8.7988 3.1992s6.8-1.0992 9-3.1992c1-1.1 1.6-1.9004 2.5-3.9004l-6.5996-1.9004c-0.1 0.7-0.49961 1.4004-1.0996 1.9004-1 0.9-2.4008 1.4004-3.8008 1.4004-2.9675 0-4.7599-1.5673-5.1856-4.6016h16.986v-0.79883c-0.1-1.7-0.29961-3.4-0.59961-5-1.3-5.7-5.5004-8.9004-11.4-8.9004zm0.09961 5.6992c2.6 0 4.3008 1.3012 4.8008 3.7012h-9.8008c0.7-2.5 2.4-3.7012 5-3.7012z"/><path d="m69.9 26.3 0.7 2.6 0.7-2.6 5.5-18.2c0.4-1.3 0.7-2.7 0.9-4.1h8.9c-0.5 1.1-0.9 2-1.8 4.6l-8.1 22.8c-0.5 1.3-0.9 2.7-1.2 4.1h-9.9c-0.3-1.4-0.7-2.8-1.2-4.1l-8.1-22.8c-0.8-2.2-1.1-3.2-1.8-4.6h8.9c0.2 1.4 0.5 2.8 0.9 4.1z"/><path d="m139.8 11.801c-6.5 0-10.801 4.3992-10.801 11.199 0 6.9 4.2008 11.199 10.801 11.199 2.9 0 4.8984-0.8 6.8984-2.5-0.1 2-0.39922 3.2016-1.1992 4.1016-0.9 1.1-2.4996 1.6992-4.5996 1.6992-2.5 0-4.5008-0.89961-5.8008-2.5996l-5.5 3.5996c2.7 2.9 6.1008 4.1992 11.301 4.1992 3.8 0 6.9-0.69922 9-2.1992 2.7-1.9 4-4.9 4-9.5v-13.301c0-1.8 0.0988-3.4988 0.29883-5.2988h-7.5v1.5996c-2-1.6-4.0984-2.1992-6.8984-2.1992zm1.3984 5.3984c3.1 0 5.4004 2.4008 5.4004 5.8008s-2.3004 5.8008-5.4004 5.8008c-3 0-5-2.1012-5-5.7012 0-3.6 1.9-5.9004 5-5.9004z"/></g><g><path d="m160.6 45.301c-1.4 0-2.8 0.29844-4 0.89844-1.2 0.6-1.9004 1.6016-1.9004 2.6016 0 0.6 0.40078 0.79883 1.3008 0.79883 0.4 0 0.7 7.81e-4 1-0.19922 0.2-0.1 0.30078-0.30039 0.30078-0.90039 0.1-1.7 1.0984-2.5 2.8984-2.5 1.2 0 1.9008 0.39961 2.3008 1.0996 0.3 0.8 0.50039 1.6 0.40039 2.5v1.7012c-1.7 0.1-3.3004 0.29922-4.9004 0.69922-2.6 0.6-4 1.9992-4 4.1992 0 1.1 0.39922 2.1004 1.1992 2.9004 0.8 0.7 1.8008 1.0004 2.8008 0.90039 1.3 0 2.5996-0.39922 3.5996-1.1992 0.5-0.4 0.90078-0.70117 1.3008-1.2012 0.2 1.9 0.39922 2.3008 1.1992 2.3008 0.9-0.1 1.9008-0.20078 2.8008-0.30078l-0.09961-0.59961c-1 0-1.3-7.82e-4 -1.5-0.30078-0.2-0.3-0.30078-1.1984-0.30078-2.3984v-3.9004c0.1-2.7 0.0996-2.7008 0.0996-2.8008 0-1.5-0.19883-2.3996-0.79883-3.0996-0.7-0.8-1.9012-1.1992-3.7012-1.1992zm2.3008 6.6992v1.3008c0 1.8-0.19961 2.8992-0.59961 3.6992-0.7 1.2-2.1 2-3.5 2s-2.3008-1.2004-2.3008-2.9004c-0.1-1.3 0.60078-2.4996 1.8008-3.0996 1.1-0.6 2.1996-0.8 4.5996-1z"/><path d="m190.3 48.4c1.2-2.1 2.6-2.9 4.8-2.9 1.7 0 2.9 0.5 3.6 1.7 0.5 0.8 0.7 1.8 0.7 3.4v5.7c0 2.6 0.1 2.8 2 2.8v0.6h-6.2v-0.6c0.9 0 1.4-0.1 1.6-0.4s0.3-0.6 0.3-0.9c0-0.5 0.1-1 0.1-1.5v-5.5c0.1-1-0.1-2-0.4-2.9-0.4-0.9-1.4-1.5-2.4-1.5-1.3 0-2.5 0.7-3.1 1.8-0.6 1-0.9 2.2-0.9 3.3v4.7c0 2.6 0.1 2.8 2 2.8v0.6h-6.4v-0.6c1.8-0.1 2-0.3 2-2.8v-7.3c0-2.1-0.3-2.4-1.9-2.4v-0.6l4.1-0.3z"/><path d="m181.1 39.699c-0.9 0-1.5996 0.7-1.5996 1.5 0 0.9 0.6 1.6016 1.5 1.6016s1.5996-0.6 1.5996-1.5-0.6-1.6016-1.5-1.6016zm1.3008 5.8008-4.4004 0.40039v0.59961c0.9 0 1.3996-7.81e-4 1.5996 0.19922 0.3 0.2 0.40039 0.80117 0.40039 2.2012v7.2988c0 2.5-0.1 2.7008-2 2.8008v0.59961h6.1992v-0.59961c-1.9 0-2-0.30078-2-2.8008v-5.5996c0-1.1 0.10117-3.4996 0.20117-5.0996z"/><path d="m172.9 55.8c0 1.6 0.1 2.3 0.4 2.7s0.8 0.6 1.3 0.6c0.6 0 1.2-0.2 1.7-0.5l0.2 0.7c-0.9 0.5-1.8 0.7-2.8 0.7-1.4 0-2.4-0.5-2.8-1.3-0.3-0.5-0.4-1.2-0.4-3.2v-8.9h-1.7v-0.6c1.6-0.1 2.4-1.2 2.9-3.8l1.3-0.4-0.1 4h3.3v0.7h-3.3z"/><path d="m133.2 48.4c1-2 2.6-2.9 4.6-2.9s3.3 1.1 3.7 3.2c1.2-2.2 2.6-3.2 4.7-3.2 1.2-0.1 2.3 0.4 3.1 1.3 0.6 0.8 0.9 1.8 0.9 3.6v5.9c0 2.5 0.1 2.8 2 2.8v0.6h-6.3v-0.6c1.9-0.1 2-0.3 2-2.8v-5.5c0-1.8-0.1-2.6-0.5-3.3s-1-1-2.1-1c-1 0-1.8 0.5-2.6 1.6-0.7 1-1.1 2.1-1 3.3v4.8c0 2.5 0.1 2.8 2 2.8v0.6h-6.2v-0.6c1.8-0.1 2-0.3 2-2.8v-5.8c0-2.7-0.8-4-2.5-4-1.1 0-2.1 0.6-2.7 1.6-0.7 0.8-1 1.9-1 2.9v5.3c0 2.6 0.1 2.8 2 2.8v0.6h-6.3v-0.6c1.9-0.1 2-0.2 2-2.8v-7.3c0-2.1-0.3-2.4-1.9-2.4v-0.6l4.1-0.3z"/></g></g>
</svg>
