<?xml version="1.0" encoding="UTF-8" standalone="no"?>
<!DOCTYPE svg PUBLIC "-//W3C//DTD SVG 1.1//EN"
 "http://www.w3.org/Graphics/SVG/1.1/DTD/svg11.dtd">
<!-- Generated by graphviz version 7.1.0 (20230121.1956)
 -->
<!-- Pages: 1 -->
<svg width="1762pt" height="152pt"
 viewBox="0.00 0.00 1762.21 152.00" xmlns="http://www.w3.org/2000/svg" xmlns:xlink="http://www.w3.org/1999/xlink">
<g id="graph0" class="graph" transform="scale(1 1) rotate(0) translate(4 148)">
<polygon fill="white" stroke="none" points="-4,4 -4,-148 1758.21,-148 1758.21,4 -4,4"/>
<g id="clust2" class="cluster">
<title>clusterLeaves</title>
<polygon fill="none" stroke="black" points="1627.52,-75 1627.52,-127 1746.21,-127 1746.21,-75 1627.52,-75"/>
</g>
<!-- famille&#45;hutin&#45;170 -->
<g id="node1" class="node">
<title>famille&#45;hutin&#45;170</title>
<polygon fill="none" stroke="black" points="107,-144 0,-144 0,-108 107,-108 107,-144"/>
<text text-anchor="middle" x="53.5" y="-122.3" font-family="Times,serif" font-size="14.00">🧑‍💼Famille Hutin</text>
</g>
<!-- association&#45;pour&#45;le&#45;soutien&#45;des&#45;principes&#45;de&#45;la&#45;democratie&#45;humaniste&#45;173 -->
<g id="node6" class="node">
<title>association&#45;pour&#45;le&#45;soutien&#45;des&#45;principes&#45;de&#45;la&#45;democratie&#45;humaniste&#45;173</title>
<polygon fill="none" stroke="black" points="858.5,-131.56 541.33,-144 224.17,-131.56 224.46,-111.44 858.2,-111.44 858.5,-131.56"/>
<text text-anchor="middle" x="541.33" y="-122.3" font-family="Times,serif" font-size="14.00">Association pour le soutien des principes de la démocratie humaniste</text>
</g>
<!-- famille&#45;hutin&#45;170&#45;&gt;association&#45;pour&#45;le&#45;soutien&#45;des&#45;principes&#45;de&#45;la&#45;democratie&#45;humaniste&#45;173 -->
<g id="edge4" class="edge">
<title>famille&#45;hutin&#45;170&#45;&gt;association&#45;pour&#45;le&#45;soutien&#45;des&#45;principes&#45;de&#45;la&#45;democratie&#45;humaniste&#45;173</title>
<path fill="none" stroke="black" d="M107.42,-126C135.29,-126 172.04,-126 212.37,-126"/>
<polygon fill="black" stroke="black" points="212.32,-129.5 222.32,-126 212.32,-122.5 212.32,-129.5"/>
<text text-anchor="middle" x="165.5" y="-129.8" font-family="Times,serif" font-size="14.00">contrôle 100%</text>
</g>
<!-- credit&#45;agricole&#45;nord&#45;de&#45;france&#45;172 -->
<g id="node2" class="node">
<title>credit&#45;agricole&#45;nord&#45;de&#45;france&#45;172</title>
<polygon fill="none" stroke="black" points="1176.21,-90 987.21,-90 987.21,-54 1176.21,-54 1176.21,-90"/>
<text text-anchor="middle" x="1081.71" y="-68.3" font-family="Times,serif" font-size="14.00">Crédit Agricole Nord de France</text>
</g>
<!-- groupe&#45;rossel&#45;la&#45;voix&#45;184 -->
<g id="node7" class="node">
<title>groupe&#45;rossel&#45;la&#45;voix&#45;184</title>
<polygon fill="none" stroke="black" points="1526.4,-77.56 1411.64,-90 1296.87,-77.56 1296.98,-57.44 1526.3,-57.44 1526.4,-77.56"/>
<text text-anchor="middle" x="1411.64" y="-68.3" font-family="Times,serif" font-size="14.00">Groupe Rossel La Voix</text>
</g>
<!-- credit&#45;agricole&#45;nord&#45;de&#45;france&#45;172&#45;&gt;groupe&#45;rossel&#45;la&#45;voix&#45;184 -->
<g id="edge6" class="edge">
<title>credit&#45;agricole&#45;nord&#45;de&#45;france&#45;172&#45;&gt;groupe&#45;rossel&#45;la&#45;voix&#45;184</title>
<path fill="none" stroke="black" d="M1176.68,-72C1210.56,-72 1249.34,-72 1285.46,-72"/>
<polygon fill="black" stroke="black" points="1285.06,-75.5 1295.06,-72 1285.06,-68.5 1285.06,-75.5"/>
<text text-anchor="middle" x="1242.26" y="-75.8" font-family="Times,serif" font-size="14.00">possède 25%</text>
</g>
<!-- famille&#45;hurbain&#45;171 -->
<g id="node3" class="node">
<title>famille&#45;hurbain&#45;171</title>
<polygon fill="none" stroke="black" points="601.83,-36 480.83,-36 480.83,0 601.83,0 601.83,-36"/>
<text text-anchor="middle" x="541.33" y="-14.3" font-family="Times,serif" font-size="14.00">🧑‍💼Famille Hurbain</text>
</g>
<!-- groupe&#45;rossel&#45;183 -->
<g id="node8" class="node">
<title>groupe&#45;rossel&#45;183</title>
<polygon fill="none" stroke="black" points="1159.56,-23.56 1081.71,-36 1003.86,-23.56 1003.93,-3.44 1159.49,-3.44 1159.56,-23.56"/>
<text text-anchor="middle" x="1081.71" y="-14.3" font-family="Times,serif" font-size="14.00">Groupe Rossel</text>
</g>
<!-- famille&#45;hurbain&#45;171&#45;&gt;groupe&#45;rossel&#45;183 -->
<g id="edge8" class="edge">
<title>famille&#45;hurbain&#45;171&#45;&gt;groupe&#45;rossel&#45;183</title>
<path fill="none" stroke="black" d="M602.26,-18C697.03,-18 882,-18 992.12,-18"/>
<polygon fill="black" stroke="black" points="992.01,-21.5 1002.01,-18 992.01,-14.5 992.01,-21.5"/>
<text text-anchor="middle" x="917.16" y="-21.8" font-family="Times,serif" font-size="14.00">contrôle 100%</text>
</g>
<!-- sofiouest&#45;181 -->
<g id="node4" class="node">
<title>sofiouest&#45;181</title>
<polygon fill="none" stroke="black" points="1466.4,-131.56 1411.64,-144 1356.88,-131.56 1356.93,-111.44 1466.35,-111.44 1466.4,-131.56"/>
<text text-anchor="middle" x="1411.64" y="-122.3" font-family="Times,serif" font-size="14.00">Sofiouest</text>
</g>
<!-- 20&#45;minutes&#45;182 -->
<g id="node9" class="node">
<title>20&#45;minutes&#45;182</title>
<ellipse fill="none" stroke="black" cx="1686.87" cy="-101" rx="51.19" ry="18"/>
<text text-anchor="middle" x="1686.87" y="-97.3" font-family="Times,serif" font-size="14.00">20 Minutes</text>
</g>
<!-- sofiouest&#45;181&#45;&gt;20&#45;minutes&#45;182 -->
<g id="edge1" class="edge">
<title>sofiouest&#45;181&#45;&gt;20&#45;minutes&#45;182</title>
<path fill="none" stroke="black" d="M1466.62,-121.06C1512.45,-116.87 1578.16,-110.85 1625.68,-106.51"/>
<polygon fill="black" stroke="black" points="1625.89,-110 1635.53,-105.61 1625.26,-103.03 1625.89,-110"/>
<text text-anchor="middle" x="1581.02" y="-116.8" font-family="Times,serif" font-size="14.00">possède 50%</text>
</g>
<!-- groupe&#45;sipa&#45;ouest&#45;174 -->
<g id="node5" class="node">
<title>groupe&#45;sipa&#45;ouest&#45;174</title>
<polygon fill="none" stroke="black" points="1187.8,-131.56 1081.71,-144 975.62,-131.56 975.72,-111.44 1187.7,-111.44 1187.8,-131.56"/>
<text text-anchor="middle" x="1081.71" y="-122.3" font-family="Times,serif" font-size="14.00">Groupe SIPA &#45; Ouest</text>
</g>
<!-- groupe&#45;sipa&#45;ouest&#45;174&#45;&gt;sofiouest&#45;181 -->
<g id="edge2" class="edge">
<title>groupe&#45;sipa&#45;ouest&#45;174&#45;&gt;sofiouest&#45;181</title>
<path fill="none" stroke="black" d="M1187.82,-126C1239.52,-126 1300.22,-126 1345.2,-126"/>
<polygon fill="black" stroke="black" points="1345.06,-129.5 1355.06,-126 1345.06,-122.5 1345.06,-129.5"/>
<text text-anchor="middle" x="1242.26" y="-129.8" font-family="Times,serif" font-size="14.00">possède 40%</text>
</g>
<!-- association&#45;pour&#45;le&#45;soutien&#45;des&#45;principes&#45;de&#45;la&#45;democratie&#45;humaniste&#45;173&#45;&gt;groupe&#45;sipa&#45;ouest&#45;174 -->
<g id="edge3" class="edge">
<title>association&#45;pour&#45;le&#45;soutien&#45;des&#45;principes&#45;de&#45;la&#45;democratie&#45;humaniste&#45;173&#45;&gt;groupe&#45;sipa&#45;ouest&#45;174</title>
<path fill="none" stroke="black" d="M858.62,-126C896.09,-126 932.3,-126 964.23,-126"/>
<polygon fill="black" stroke="black" points="963.83,-129.5 973.83,-126 963.83,-122.5 963.83,-129.5"/>
<text text-anchor="middle" x="917.16" y="-129.8" font-family="Times,serif" font-size="14.00">possède 100%</text>
</g>
<!-- groupe&#45;rossel&#45;la&#45;voix&#45;184&#45;&gt;20&#45;minutes&#45;182 -->
<g id="edge5" class="edge">
<title>groupe&#45;rossel&#45;la&#45;voix&#45;184&#45;&gt;20&#45;minutes&#45;182</title>
<path fill="none" stroke="black" d="M1523.19,-78.39C1553.81,-80.77 1587.02,-83.92 1617.52,-88 1621.91,-88.59 1626.44,-89.27 1630.98,-90.01"/>
<polygon fill="black" stroke="black" points="1630.29,-93.45 1640.74,-91.7 1631.48,-86.55 1630.29,-93.45"/>
<text text-anchor="middle" x="1581.02" y="-91.8" font-family="Times,serif" font-size="14.00">possède 49%</text>
</g>
<!-- groupe&#45;rossel&#45;183&#45;&gt;groupe&#45;rossel&#45;la&#45;voix&#45;184 -->
<g id="edge7" class="edge">
<title>groupe&#45;rossel&#45;183&#45;&gt;groupe&#45;rossel&#45;la&#45;voix&#45;184</title>
<path fill="none" stroke="black" d="M1139.08,-27.28C1185.52,-34.93 1252.58,-45.97 1308.43,-55.17"/>
<polygon fill="black" stroke="black" points="1307.52,-58.57 1317.95,-56.74 1308.65,-51.66 1307.52,-58.57"/>
<text text-anchor="middle" x="1242.26" y="-53.8" font-family="Times,serif" font-size="14.00">possède 73%</text>
</g>
</g>
</svg>
