<?xml version="1.0" encoding="UTF-8" standalone="no"?>
<!DOCTYPE svg PUBLIC "-//W3C//DTD SVG 1.1//EN"
 "http://www.w3.org/Graphics/SVG/1.1/DTD/svg11.dtd">
<!-- Generated by graphviz version 8.1.0 (20230707.0739)
 -->
<!-- Pages: 1 -->
<svg width="1813pt" height="152pt"
 viewBox="0.00 0.00 1813.39 152.00" xmlns="http://www.w3.org/2000/svg" xmlns:xlink="http://www.w3.org/1999/xlink">
<g id="graph0" class="graph" transform="scale(1 1) rotate(0) translate(4 148)">
<polygon fill="white" stroke="none" points="-4,4 -4,-148 1809.39,-148 1809.39,4 -4,4"/>
<g id="clust2" class="cluster">
<title>clusterLeaves</title>
<polygon fill="none" stroke="black" points="1674.6,-75 1674.6,-127 1797.39,-127 1797.39,-75 1674.6,-75"/>
</g>
<!-- famille&#45;hutin&#45;170 -->
<g id="node1" class="node">
<title>famille&#45;hutin&#45;170</title>
<polygon fill="none" stroke="black" points="106.75,-144 0,-144 0,-108 106.75,-108 106.75,-144"/>
<text text-anchor="middle" x="53.38" y="-122.08" font-family="Times,serif" font-size="14.00">🧑‍💼Famille Hutin</text>
</g>
<!-- association&#45;pour&#45;le&#45;soutien&#45;des&#45;principes&#45;de&#45;la&#45;democratie&#45;humaniste&#45;173 -->
<g id="node6" class="node">
<title>association&#45;pour&#45;le&#45;soutien&#45;des&#45;principes&#45;de&#45;la&#45;democratie&#45;humaniste&#45;173</title>
<polygon fill="none" stroke="black" points="887.68,-131.56 555.34,-144 223,-131.56 223.31,-111.44 887.37,-111.44 887.68,-131.56"/>
<text text-anchor="middle" x="555.34" y="-120.95" font-family="Times,serif" font-size="14.00">Association pour le soutien des principes de la démocratie humaniste</text>
</g>
<!-- famille&#45;hutin&#45;170&#45;&gt;association&#45;pour&#45;le&#45;soutien&#45;des&#45;principes&#45;de&#45;la&#45;democratie&#45;humaniste&#45;173 -->
<g id="edge4" class="edge">
<title>famille&#45;hutin&#45;170&#45;&gt;association&#45;pour&#45;le&#45;soutien&#45;des&#45;principes&#45;de&#45;la&#45;democratie&#45;humaniste&#45;173</title>
<path fill="none" stroke="black" d="M106.94,-126C134.67,-126 171.3,-126 211.69,-126"/>
<polygon fill="black" stroke="black" points="211.61,-129.5 221.61,-126 211.61,-122.5 211.61,-129.5"/>
<text text-anchor="middle" x="164.88" y="-129.2" font-family="Times,serif" font-size="14.00">contrôle 100%</text>
</g>
<!-- credit&#45;agricole&#45;nord&#45;de&#45;france&#45;172 -->
<g id="node2" class="node">
<title>credit&#45;agricole&#45;nord&#45;de&#45;france&#45;172</title>
<polygon fill="none" stroke="black" points="1209.1,-90 1020.6,-90 1020.6,-54 1209.1,-54 1209.1,-90"/>
<text text-anchor="middle" x="1114.85" y="-66.95" font-family="Times,serif" font-size="14.00">Crédit Agricole Nord de France</text>
</g>
<!-- groupe&#45;rossel&#45;la&#45;voix&#45;184 -->
<g id="node7" class="node">
<title>groupe&#45;rossel&#45;la&#45;voix&#45;184</title>
<polygon fill="none" stroke="black" points="1574.6,-77.56 1454.19,-90 1333.77,-77.56 1333.89,-57.44 1574.48,-57.44 1574.6,-77.56"/>
<text text-anchor="middle" x="1454.19" y="-66.95" font-family="Times,serif" font-size="14.00">Groupe Rossel La Voix</text>
</g>
<!-- credit&#45;agricole&#45;nord&#45;de&#45;france&#45;172&#45;&gt;groupe&#45;rossel&#45;la&#45;voix&#45;184 -->
<g id="edge6" class="edge">
<title>credit&#45;agricole&#45;nord&#45;de&#45;france&#45;172&#45;&gt;groupe&#45;rossel&#45;la&#45;voix&#45;184</title>
<path fill="none" stroke="black" d="M1209.37,-72C1244.48,-72 1285.05,-72 1322.9,-72"/>
<polygon fill="black" stroke="black" points="1322.5,-75.5 1332.5,-72 1322.5,-68.5 1322.5,-75.5"/>
<text text-anchor="middle" x="1279.77" y="-75.2" font-family="Times,serif" font-size="14.00">possède 25%</text>
</g>
<!-- famille&#45;hurbain&#45;171 -->
<g id="node3" class="node">
<title>famille&#45;hurbain&#45;171</title>
<polygon fill="none" stroke="black" points="615.47,-36 495.22,-36 495.22,0 615.47,0 615.47,-36"/>
<text text-anchor="middle" x="555.34" y="-14.07" font-family="Times,serif" font-size="14.00">🧑‍💼Famille Hurbain</text>
</g>
<!-- groupe&#45;rossel&#45;183 -->
<g id="node8" class="node">
<title>groupe&#45;rossel&#45;183</title>
<polygon fill="none" stroke="black" points="1196.04,-23.56 1114.85,-36 1033.67,-23.56 1033.74,-3.44 1195.97,-3.44 1196.04,-23.56"/>
<text text-anchor="middle" x="1114.85" y="-12.95" font-family="Times,serif" font-size="14.00">Groupe Rossel</text>
</g>
<!-- famille&#45;hurbain&#45;171&#45;&gt;groupe&#45;rossel&#45;183 -->
<g id="edge8" class="edge">
<title>famille&#45;hurbain&#45;171&#45;&gt;groupe&#45;rossel&#45;183</title>
<path fill="none" stroke="black" d="M615.74,-18C713.18,-18 907.62,-18 1022.63,-18"/>
<polygon fill="black" stroke="black" points="1022.51,-21.5 1032.51,-18 1022.51,-14.5 1022.51,-21.5"/>
<text text-anchor="middle" x="945.81" y="-21.2" font-family="Times,serif" font-size="14.00">contrôle 100%</text>
</g>
<!-- sofiouest&#45;181 -->
<g id="node4" class="node">
<title>sofiouest&#45;181</title>
<polygon fill="none" stroke="black" points="1510.7,-131.56 1454.19,-144 1397.67,-131.56 1397.72,-111.44 1510.65,-111.44 1510.7,-131.56"/>
<text text-anchor="middle" x="1454.19" y="-120.95" font-family="Times,serif" font-size="14.00">Sofiouest</text>
</g>
<!-- 20&#45;minutes&#45;182 -->
<g id="node9" class="node">
<title>20&#45;minutes&#45;182</title>
<ellipse fill="none" stroke="black" cx="1735.99" cy="-101" rx="53.4" ry="18"/>
<text text-anchor="middle" x="1735.99" y="-95.95" font-family="Times,serif" font-size="14.00">20 Minutes</text>
</g>
<!-- sofiouest&#45;181&#45;&gt;20&#45;minutes&#45;182 -->
<g id="edge1" class="edge">
<title>sofiouest&#45;181&#45;&gt;20&#45;minutes&#45;182</title>
<path fill="none" stroke="black" d="M1511.14,-121C1557.99,-116.81 1624.78,-110.85 1673.2,-106.52"/>
<polygon fill="black" stroke="black" points="1673.2,-109.95 1682.85,-105.57 1672.58,-102.97 1673.2,-109.95"/>
<text text-anchor="middle" x="1628.6" y="-116.2" font-family="Times,serif" font-size="14.00">possède 50%</text>
</g>
<!-- groupe&#45;sipa&#45;ouest&#45;174 -->
<g id="node5" class="node">
<title>groupe&#45;sipa&#45;ouest&#45;174</title>
<polygon fill="none" stroke="black" points="1225.77,-131.56 1114.85,-144 1003.93,-131.56 1004.04,-111.44 1225.67,-111.44 1225.77,-131.56"/>
<text text-anchor="middle" x="1114.85" y="-120.95" font-family="Times,serif" font-size="14.00">Groupe SIPA &#45; Ouest</text>
</g>
<!-- groupe&#45;sipa&#45;ouest&#45;174&#45;&gt;sofiouest&#45;181 -->
<g id="edge2" class="edge">
<title>groupe&#45;sipa&#45;ouest&#45;174&#45;&gt;sofiouest&#45;181</title>
<path fill="none" stroke="black" d="M1225.84,-126C1278.77,-126 1340.51,-126 1386.28,-126"/>
<polygon fill="black" stroke="black" points="1386.26,-129.5 1396.26,-126 1386.26,-122.5 1386.26,-129.5"/>
<text text-anchor="middle" x="1279.77" y="-129.2" font-family="Times,serif" font-size="14.00">possède 40%</text>
</g>
<!-- association&#45;pour&#45;le&#45;soutien&#45;des&#45;principes&#45;de&#45;la&#45;democratie&#45;humaniste&#45;173&#45;&gt;groupe&#45;sipa&#45;ouest&#45;174 -->
<g id="edge3" class="edge">
<title>association&#45;pour&#45;le&#45;soutien&#45;des&#45;principes&#45;de&#45;la&#45;democratie&#45;humaniste&#45;173&#45;&gt;groupe&#45;sipa&#45;ouest&#45;174</title>
<path fill="none" stroke="black" d="M887.9,-126C925.19,-126 961.17,-126 993.04,-126"/>
<polygon fill="black" stroke="black" points="992.68,-129.5 1002.68,-126 992.68,-122.5 992.68,-129.5"/>
<text text-anchor="middle" x="945.81" y="-129.2" font-family="Times,serif" font-size="14.00">possède 100%</text>
</g>
<!-- groupe&#45;rossel&#45;la&#45;voix&#45;184&#45;&gt;20&#45;minutes&#45;182 -->
<g id="edge5" class="edge">
<title>groupe&#45;rossel&#45;la&#45;voix&#45;184&#45;&gt;20&#45;minutes&#45;182</title>
<path fill="none" stroke="black" d="M1575.07,-77.53C1604.43,-79.64 1635.71,-82.54 1664.6,-86.5 1669.66,-87.19 1674.91,-88.04 1680.15,-88.96"/>
<polygon fill="black" stroke="black" points="1679.36,-92.56 1689.84,-90.96 1680.65,-85.68 1679.36,-92.56"/>
<text text-anchor="middle" x="1628.6" y="-89.2" font-family="Times,serif" font-size="14.00">possède 49%</text>
</g>
<!-- groupe&#45;rossel&#45;183&#45;&gt;groupe&#45;rossel&#45;la&#45;voix&#45;184 -->
<g id="edge7" class="edge">
<title>groupe&#45;rossel&#45;183&#45;&gt;groupe&#45;rossel&#45;la&#45;voix&#45;184</title>
<path fill="none" stroke="black" d="M1174.23,-27.34C1222.16,-35.02 1291.25,-46.08 1348.68,-55.27"/>
<polygon fill="black" stroke="black" points="1347.83,-58.84 1358.26,-56.96 1348.94,-51.93 1347.83,-58.84"/>
<text text-anchor="middle" x="1279.77" y="-53.2" font-family="Times,serif" font-size="14.00">possède 73%</text>
</g>
</g>
</svg>
