<?xml version="1.0" encoding="UTF-8" standalone="no"?>
<!DOCTYPE svg PUBLIC "-//W3C//DTD SVG 1.1//EN"
 "http://www.w3.org/Graphics/SVG/1.1/DTD/svg11.dtd">
<!-- Generated by graphviz version 7.1.0 (20230121.1956)
 -->
<!-- Pages: 1 -->
<svg width="1334pt" height="346pt"
 viewBox="0.00 0.00 1334.37 346.00" xmlns="http://www.w3.org/2000/svg" xmlns:xlink="http://www.w3.org/1999/xlink">
<g id="graph0" class="graph" transform="scale(1 1) rotate(0) translate(4 342)">
<polygon fill="white" stroke="none" points="-4,4 -4,-342 1330.37,-342 1330.37,4 -4,4"/>
<g id="clust2" class="cluster">
<title>clusterLeaves</title>
<polygon fill="none" stroke="black" points="1155.48,-8 1155.48,-330 1318.37,-330 1318.37,-8 1155.48,-8"/>
</g>
<!-- patrick&#45;drahi&#45;56 -->
<g id="node1" class="node">
<title>patrick&#45;drahi&#45;56</title>
<polygon fill="none" stroke="black" points="104,-160 0,-160 0,-124 104,-124 104,-160"/>
<text text-anchor="middle" x="52" y="-138.3" font-family="Times,serif" font-size="14.00">🧑‍💼Patrick Drahi</text>
</g>
<!-- altice&#45;57 -->
<g id="node4" class="node">
<title>altice&#45;57</title>
<polygon fill="none" stroke="black" points="293.51,-147.56 253.17,-160 212.83,-147.56 212.87,-127.44 293.47,-127.44 293.51,-147.56"/>
<text text-anchor="middle" x="253.17" y="-138.3" font-family="Times,serif" font-size="14.00">Altice</text>
</g>
<!-- patrick&#45;drahi&#45;56&#45;&gt;altice&#45;57 -->
<g id="edge3" class="edge">
<title>patrick&#45;drahi&#45;56&#45;&gt;altice&#45;57</title>
<path fill="none" stroke="black" d="M104.29,-142C134,-142 171.28,-142 200.98,-142"/>
<polygon fill="black" stroke="black" points="200.85,-145.5 210.85,-142 200.85,-138.5 200.85,-145.5"/>
<text text-anchor="middle" x="158.5" y="-145.8" font-family="Times,serif" font-size="14.00">possède 61%</text>
</g>
<!-- altice&#45;france&#45;58 -->
<g id="node2" class="node">
<title>altice&#45;france&#45;58</title>
<polygon fill="none" stroke="black" points="546.75,-147.56 474.64,-160 402.53,-147.56 402.6,-127.44 546.68,-127.44 546.75,-147.56"/>
<text text-anchor="middle" x="474.64" y="-138.3" font-family="Times,serif" font-size="14.00">Altice France</text>
</g>
<!-- altice&#45;media&#45;61 -->
<g id="node3" class="node">
<title>altice&#45;media&#45;61</title>
<polygon fill="none" stroke="black" points="804.94,-147.56 733.44,-160 661.94,-147.56 662.01,-127.44 804.88,-127.44 804.94,-147.56"/>
<text text-anchor="middle" x="733.44" y="-138.3" font-family="Times,serif" font-size="14.00">Altice Média</text>
</g>
<!-- altice&#45;france&#45;58&#45;&gt;altice&#45;media&#45;61 -->
<g id="edge1" class="edge">
<title>altice&#45;france&#45;58&#45;&gt;altice&#45;media&#45;61</title>
<path fill="none" stroke="black" d="M547.18,-142C579.17,-142 617.07,-142 650.23,-142"/>
<polygon fill="black" stroke="black" points="650.22,-145.5 660.22,-142 650.22,-138.5 650.22,-145.5"/>
<text text-anchor="middle" x="604.44" y="-145.8" font-family="Times,serif" font-size="14.00">possède 100%</text>
</g>
<!-- rmc&#45;story&#45;327 -->
<g id="node5" class="node">
<title>rmc&#45;story&#45;327</title>
<polygon fill="none" stroke="black" points="1048.26,-255.56 984.21,-268 920.17,-255.56 920.23,-235.44 1048.2,-235.44 1048.26,-255.56"/>
<text text-anchor="middle" x="984.21" y="-246.3" font-family="Times,serif" font-size="14.00">RMC Story</text>
</g>
<!-- altice&#45;media&#45;61&#45;&gt;rmc&#45;story&#45;327 -->
<g id="edge6" class="edge">
<title>altice&#45;media&#45;61&#45;&gt;rmc&#45;story&#45;327</title>
<path fill="none" stroke="black" d="M750.42,-157.27C767.2,-172.5 795,-195.53 822.94,-209 849.78,-221.94 881.18,-231.12 909.04,-237.47"/>
<polygon fill="black" stroke="black" points="907.94,-240.81 918.46,-239.53 909.43,-233.97 907.94,-240.81"/>
<text text-anchor="middle" x="862.44" y="-238.8" font-family="Times,serif" font-size="14.00">possède 100%</text>
</g>
<!-- bfm&#45;business&#45;65 -->
<g id="node6" class="node">
<title>bfm&#45;business&#45;65</title>
<ellipse fill="none" stroke="black" cx="1236.93" cy="-196" rx="63.89" ry="18"/>
<text text-anchor="middle" x="1236.93" y="-192.3" font-family="Times,serif" font-size="14.00">BFM Business</text>
</g>
<!-- altice&#45;media&#45;61&#45;&gt;bfm&#45;business&#45;65 -->
<g id="edge4" class="edge">
<title>altice&#45;media&#45;61&#45;&gt;bfm&#45;business&#45;65</title>
<path fill="none" stroke="black" d="M787.72,-150.96C799.31,-152.76 811.53,-154.55 822.94,-156 942.03,-171.17 1081.1,-183.54 1163.66,-190.33"/>
<polygon fill="black" stroke="black" points="1163.16,-193.8 1173.41,-191.13 1163.73,-186.82 1163.16,-193.8"/>
<text text-anchor="middle" x="984.21" y="-183.8" font-family="Times,serif" font-size="14.00">possède 100%</text>
</g>
<!-- bfm&#45;tv&#45;62 -->
<g id="node7" class="node">
<title>bfm&#45;tv&#45;62</title>
<ellipse fill="none" stroke="black" cx="1236.93" cy="-142" rx="43.59" ry="18"/>
<text text-anchor="middle" x="1236.93" y="-138.3" font-family="Times,serif" font-size="14.00">BFM TV</text>
</g>
<!-- altice&#45;media&#45;61&#45;&gt;bfm&#45;tv&#45;62 -->
<g id="edge5" class="edge">
<title>altice&#45;media&#45;61&#45;&gt;bfm&#45;tv&#45;62</title>
<path fill="none" stroke="black" d="M805.23,-142C906.49,-142 1090.52,-142 1181.71,-142"/>
<polygon fill="black" stroke="black" points="1181.64,-145.5 1191.64,-142 1181.64,-138.5 1181.64,-145.5"/>
<text text-anchor="middle" x="984.21" y="-145.8" font-family="Times,serif" font-size="14.00">possède 100%</text>
</g>
<!-- rmc&#45;64 -->
<g id="node10" class="node">
<title>rmc&#45;64</title>
<ellipse fill="none" stroke="black" cx="1236.93" cy="-88" rx="30.59" ry="18"/>
<text text-anchor="middle" x="1236.93" y="-84.3" font-family="Times,serif" font-size="14.00">RMC</text>
</g>
<!-- altice&#45;media&#45;61&#45;&gt;rmc&#45;64 -->
<g id="edge9" class="edge">
<title>altice&#45;media&#45;61&#45;&gt;rmc&#45;64</title>
<path fill="none" stroke="black" d="M805.23,-134.38C911.73,-122.91 1109.76,-101.59 1195.08,-92.4"/>
<polygon fill="black" stroke="black" points="1195.28,-95.9 1204.85,-91.35 1194.53,-88.94 1195.28,-95.9"/>
<text text-anchor="middle" x="984.21" y="-125.8" font-family="Times,serif" font-size="14.00">possède 100%</text>
</g>
<!-- rmc&#45;decouverte&#45;63 -->
<g id="node11" class="node">
<title>rmc&#45;decouverte&#45;63</title>
<ellipse fill="none" stroke="black" cx="1236.93" cy="-34" rx="73.39" ry="18"/>
<text text-anchor="middle" x="1236.93" y="-30.3" font-family="Times,serif" font-size="14.00">RMC Découverte</text>
</g>
<!-- altice&#45;media&#45;61&#45;&gt;rmc&#45;decouverte&#45;63 -->
<g id="edge10" class="edge">
<title>altice&#45;media&#45;61&#45;&gt;rmc&#45;decouverte&#45;63</title>
<path fill="none" stroke="black" d="M782.93,-127C820.17,-115.83 872.99,-100.72 919.94,-90 1002.19,-71.23 1097.68,-55.08 1161.98,-45.01"/>
<polygon fill="black" stroke="black" points="1162.37,-48.49 1171.72,-43.49 1161.3,-41.57 1162.37,-48.49"/>
<text text-anchor="middle" x="984.21" y="-93.8" font-family="Times,serif" font-size="14.00">possède 100%</text>
</g>
<!-- altice&#45;57&#45;&gt;altice&#45;france&#45;58 -->
<g id="edge2" class="edge">
<title>altice&#45;57&#45;&gt;altice&#45;france&#45;58</title>
<path fill="none" stroke="black" d="M293.91,-142C320.99,-142 357.83,-142 391.11,-142"/>
<polygon fill="black" stroke="black" points="390.72,-145.5 400.72,-142 390.72,-138.5 390.72,-145.5"/>
<text text-anchor="middle" x="347.84" y="-145.8" font-family="Times,serif" font-size="14.00">possède 78%</text>
</g>
<!-- nice&#45;matin&#45;281 -->
<g id="node8" class="node">
<title>nice&#45;matin&#45;281</title>
<ellipse fill="none" stroke="black" cx="1236.93" cy="-304" rx="51.99" ry="18"/>
<text text-anchor="middle" x="1236.93" y="-300.3" font-family="Times,serif" font-size="14.00">Nice&#45;Matin</text>
</g>
<!-- rmc&#45;story&#45;327&#45;&gt;nice&#45;matin&#45;281 -->
<g id="edge7" class="edge">
<title>rmc&#45;story&#45;327&#45;&gt;nice&#45;matin&#45;281</title>
<path fill="none" stroke="black" d="M1027.35,-260.07C1039.92,-263.02 1053.75,-266.2 1066.48,-269 1104.27,-277.32 1146.93,-286.13 1180,-292.83"/>
<polygon fill="black" stroke="black" points="1179.29,-296.25 1189.78,-294.8 1180.67,-289.39 1179.29,-296.25"/>
<text text-anchor="middle" x="1105.98" y="-288.8" font-family="Times,serif" font-size="14.00">possède 100%</text>
</g>
<!-- paris&#45;turf&#45;341 -->
<g id="node9" class="node">
<title>paris&#45;turf&#45;341</title>
<ellipse fill="none" stroke="black" cx="1236.93" cy="-250" rx="46.59" ry="18"/>
<text text-anchor="middle" x="1236.93" y="-246.3" font-family="Times,serif" font-size="14.00">Paris&#45;Turf</text>
</g>
<!-- rmc&#45;story&#45;327&#45;&gt;paris&#45;turf&#45;341 -->
<g id="edge8" class="edge">
<title>rmc&#45;story&#45;327&#45;&gt;paris&#45;turf&#45;341</title>
<path fill="none" stroke="black" d="M1048.48,-250C1088.62,-250 1140.12,-250 1178.97,-250"/>
<polygon fill="black" stroke="black" points="1178.58,-253.5 1188.58,-250 1178.58,-246.5 1178.58,-253.5"/>
<text text-anchor="middle" x="1105.98" y="-253.8" font-family="Times,serif" font-size="14.00">possède 100%</text>
</g>
</g>
</svg>
