<?xml version="1.0" encoding="UTF-8" standalone="no"?>
<!DOCTYPE svg PUBLIC "-//W3C//DTD SVG 1.1//EN"
 "http://www.w3.org/Graphics/SVG/1.1/DTD/svg11.dtd">
<!-- Generated by graphviz version 7.1.0 (20230121.1956)
 -->
<!-- Pages: 1 -->
<svg width="1334pt" height="454pt"
 viewBox="0.00 0.00 1334.37 454.00" xmlns="http://www.w3.org/2000/svg" xmlns:xlink="http://www.w3.org/1999/xlink">
<g id="graph0" class="graph" transform="scale(1 1) rotate(0) translate(4 450)">
<polygon fill="white" stroke="none" points="-4,4 -4,-450 1330.37,-450 1330.37,4 -4,4"/>
<g id="clust2" class="cluster">
<title>clusterLeaves</title>
<polygon fill="none" stroke="black" points="1155.48,-8 1155.48,-438 1318.37,-438 1318.37,-8 1155.48,-8"/>
</g>
<!-- patrick&#45;drahi&#45;56 -->
<g id="node1" class="node">
<title>patrick&#45;drahi&#45;56</title>
<polygon fill="none" stroke="black" points="104,-106 0,-106 0,-70 104,-70 104,-106"/>
<text text-anchor="middle" x="52" y="-84.3" font-family="Times,serif" font-size="14.00">🧑‍💼Patrick Drahi</text>
</g>
<!-- altice&#45;57 -->
<g id="node2" class="node">
<title>altice&#45;57</title>
<polygon fill="none" stroke="black" points="293.51,-93.56 253.17,-106 212.83,-93.56 212.87,-73.44 293.47,-73.44 293.51,-93.56"/>
<text text-anchor="middle" x="253.17" y="-84.3" font-family="Times,serif" font-size="14.00">Altice</text>
</g>
<!-- patrick&#45;drahi&#45;56&#45;&gt;altice&#45;57 -->
<g id="edge2" class="edge">
<title>patrick&#45;drahi&#45;56&#45;&gt;altice&#45;57</title>
<path fill="none" stroke="black" d="M104.29,-88C134,-88 171.28,-88 200.98,-88"/>
<polygon fill="black" stroke="black" points="200.85,-91.5 210.85,-88 200.85,-84.5 200.85,-91.5"/>
<text text-anchor="middle" x="158.5" y="-91.8" font-family="Times,serif" font-size="14.00">possède 61%</text>
</g>
<!-- altice&#45;france&#45;58 -->
<g id="node3" class="node">
<title>altice&#45;france&#45;58</title>
<polygon fill="none" stroke="black" points="546.75,-93.56 474.64,-106 402.53,-93.56 402.6,-73.44 546.68,-73.44 546.75,-93.56"/>
<text text-anchor="middle" x="474.64" y="-84.3" font-family="Times,serif" font-size="14.00">Altice France</text>
</g>
<!-- altice&#45;57&#45;&gt;altice&#45;france&#45;58 -->
<g id="edge1" class="edge">
<title>altice&#45;57&#45;&gt;altice&#45;france&#45;58</title>
<path fill="none" stroke="black" d="M293.91,-88C320.99,-88 357.83,-88 391.11,-88"/>
<polygon fill="black" stroke="black" points="390.72,-91.5 400.72,-88 390.72,-84.5 390.72,-91.5"/>
<text text-anchor="middle" x="347.84" y="-91.8" font-family="Times,serif" font-size="14.00">possède 78%</text>
</g>
<!-- altice&#45;media&#45;61 -->
<g id="node4" class="node">
<title>altice&#45;media&#45;61</title>
<polygon fill="none" stroke="black" points="804.94,-228.56 733.44,-241 661.94,-228.56 662.01,-208.44 804.88,-208.44 804.94,-228.56"/>
<text text-anchor="middle" x="733.44" y="-219.3" font-family="Times,serif" font-size="14.00">Altice Média</text>
</g>
<!-- altice&#45;france&#45;58&#45;&gt;altice&#45;media&#45;61 -->
<g id="edge5" class="edge">
<title>altice&#45;france&#45;58&#45;&gt;altice&#45;media&#45;61</title>
<path fill="none" stroke="black" d="M501.68,-101.69C547.1,-125.57 641.04,-174.95 693.98,-202.78"/>
<polygon fill="black" stroke="black" points="692.18,-205.79 702.66,-207.34 695.44,-199.59 692.18,-205.79"/>
<text text-anchor="middle" x="604.44" y="-179.8" font-family="Times,serif" font-size="14.00">possède 100%</text>
</g>
<!-- l&#45;express&#45;59 -->
<g id="node6" class="node">
<title>l&#45;express&#45;59</title>
<ellipse fill="none" stroke="black" cx="1236.93" cy="-88" rx="46.29" ry="18"/>
<text text-anchor="middle" x="1236.93" y="-84.3" font-family="Times,serif" font-size="14.00">L’Express</text>
</g>
<!-- altice&#45;france&#45;58&#45;&gt;l&#45;express&#45;59 -->
<g id="edge3" class="edge">
<title>altice&#45;france&#45;58&#45;&gt;l&#45;express&#45;59</title>
<path fill="none" stroke="black" d="M547.17,-88C697.31,-88 1042.68,-88 1179.05,-88"/>
<polygon fill="black" stroke="black" points="1178.92,-91.5 1188.92,-88 1178.92,-84.5 1178.92,-91.5"/>
<text text-anchor="middle" x="862.44" y="-91.8" font-family="Times,serif" font-size="14.00">possède 49%</text>
</g>
<!-- liberation&#45;60 -->
<g id="node7" class="node">
<title>liberation&#45;60</title>
<ellipse fill="none" stroke="black" cx="1236.93" cy="-34" rx="47.39" ry="18"/>
<text text-anchor="middle" x="1236.93" y="-30.3" font-family="Times,serif" font-size="14.00">Libération</text>
</g>
<!-- altice&#45;france&#45;58&#45;&gt;liberation&#45;60 -->
<g id="edge4" class="edge">
<title>altice&#45;france&#45;58&#45;&gt;liberation&#45;60</title>
<path fill="none" stroke="black" d="M547.17,-82.92C697.13,-72.27 1041.85,-47.78 1178.56,-38.07"/>
<polygon fill="black" stroke="black" points="1178.73,-41.57 1188.46,-37.37 1178.24,-34.59 1178.73,-41.57"/>
<text text-anchor="middle" x="862.44" y="-66.8" font-family="Times,serif" font-size="14.00">possède 100%</text>
</g>
<!-- rmc&#45;story&#45;327 -->
<g id="node5" class="node">
<title>rmc&#45;story&#45;327</title>
<polygon fill="none" stroke="black" points="1048.26,-363.56 984.21,-376 920.17,-363.56 920.23,-343.44 1048.2,-343.44 1048.26,-363.56"/>
<text text-anchor="middle" x="984.21" y="-354.3" font-family="Times,serif" font-size="14.00">RMC Story</text>
</g>
<!-- altice&#45;media&#45;61&#45;&gt;rmc&#45;story&#45;327 -->
<g id="edge8" class="edge">
<title>altice&#45;media&#45;61&#45;&gt;rmc&#45;story&#45;327</title>
<path fill="none" stroke="black" d="M745.33,-239.08C760.33,-259.99 789.36,-296.17 822.94,-316 848.97,-331.36 880.62,-341.19 908.9,-347.43"/>
<polygon fill="black" stroke="black" points="907.98,-350.82 918.49,-349.43 909.41,-343.96 907.98,-350.82"/>
<text text-anchor="middle" x="862.44" y="-347.8" font-family="Times,serif" font-size="14.00">possède 100%</text>
</g>
<!-- bfm&#45;business&#45;65 -->
<g id="node8" class="node">
<title>bfm&#45;business&#45;65</title>
<ellipse fill="none" stroke="black" cx="1236.93" cy="-304" rx="63.89" ry="18"/>
<text text-anchor="middle" x="1236.93" y="-300.3" font-family="Times,serif" font-size="14.00">BFM Business</text>
</g>
<!-- altice&#45;media&#45;61&#45;&gt;bfm&#45;business&#45;65 -->
<g id="edge6" class="edge">
<title>altice&#45;media&#45;61&#45;&gt;bfm&#45;business&#45;65</title>
<path fill="none" stroke="black" d="M778.44,-233.57C792.6,-236.8 808.4,-240.23 822.94,-243 942.97,-265.81 1084,-285.03 1166.32,-295.5"/>
<polygon fill="black" stroke="black" points="1165.68,-298.94 1176.04,-296.73 1166.56,-292 1165.68,-298.94"/>
<text text-anchor="middle" x="984.21" y="-282.8" font-family="Times,serif" font-size="14.00">possède 100%</text>
</g>
<!-- bfm&#45;tv&#45;62 -->
<g id="node9" class="node">
<title>bfm&#45;tv&#45;62</title>
<ellipse fill="none" stroke="black" cx="1236.93" cy="-250" rx="43.59" ry="18"/>
<text text-anchor="middle" x="1236.93" y="-246.3" font-family="Times,serif" font-size="14.00">BFM TV</text>
</g>
<!-- altice&#45;media&#45;61&#45;&gt;bfm&#45;tv&#45;62 -->
<g id="edge7" class="edge">
<title>altice&#45;media&#45;61&#45;&gt;bfm&#45;tv&#45;62</title>
<path fill="none" stroke="black" d="M805.23,-226.81C906.62,-232.27 1090.99,-242.2 1182.06,-247.1"/>
<polygon fill="black" stroke="black" points="1181.8,-250.59 1191.97,-247.63 1182.17,-243.6 1181.8,-250.59"/>
<text text-anchor="middle" x="984.21" y="-242.8" font-family="Times,serif" font-size="14.00">possède 100%</text>
</g>
<!-- rmc&#45;64 -->
<g id="node12" class="node">
<title>rmc&#45;64</title>
<ellipse fill="none" stroke="black" cx="1236.93" cy="-196" rx="30.59" ry="18"/>
<text text-anchor="middle" x="1236.93" y="-192.3" font-family="Times,serif" font-size="14.00">RMC</text>
</g>
<!-- altice&#45;media&#45;61&#45;&gt;rmc&#45;64 -->
<g id="edge11" class="edge">
<title>altice&#45;media&#45;61&#45;&gt;rmc&#45;64</title>
<path fill="none" stroke="black" d="M805.23,-219.19C911.6,-213.46 1109.28,-202.82 1194.77,-198.22"/>
<polygon fill="black" stroke="black" points="1194.76,-201.72 1204.56,-197.69 1194.39,-194.73 1194.76,-201.72"/>
<text text-anchor="middle" x="984.21" y="-215.8" font-family="Times,serif" font-size="14.00">possède 100%</text>
</g>
<!-- rmc&#45;decouverte&#45;63 -->
<g id="node13" class="node">
<title>rmc&#45;decouverte&#45;63</title>
<ellipse fill="none" stroke="black" cx="1236.93" cy="-142" rx="73.39" ry="18"/>
<text text-anchor="middle" x="1236.93" y="-138.3" font-family="Times,serif" font-size="14.00">RMC Découverte</text>
</g>
<!-- altice&#45;media&#45;61&#45;&gt;rmc&#45;decouverte&#45;63 -->
<g id="edge12" class="edge">
<title>altice&#45;media&#45;61&#45;&gt;rmc&#45;decouverte&#45;63</title>
<path fill="none" stroke="black" d="M805.2,-208.4C839.73,-201.5 881.93,-193.39 919.94,-187 1001.65,-173.26 1095.71,-160.22 1159.81,-151.75"/>
<polygon fill="black" stroke="black" points="1160.07,-155.25 1169.53,-150.47 1159.16,-148.31 1160.07,-155.25"/>
<text text-anchor="middle" x="984.21" y="-190.8" font-family="Times,serif" font-size="14.00">possède 100%</text>
</g>
<!-- nice&#45;matin&#45;281 -->
<g id="node10" class="node">
<title>nice&#45;matin&#45;281</title>
<ellipse fill="none" stroke="black" cx="1236.93" cy="-412" rx="51.99" ry="18"/>
<text text-anchor="middle" x="1236.93" y="-408.3" font-family="Times,serif" font-size="14.00">Nice&#45;Matin</text>
</g>
<!-- rmc&#45;story&#45;327&#45;&gt;nice&#45;matin&#45;281 -->
<g id="edge9" class="edge">
<title>rmc&#45;story&#45;327&#45;&gt;nice&#45;matin&#45;281</title>
<path fill="none" stroke="black" d="M1027.35,-368.07C1039.92,-371.02 1053.75,-374.2 1066.48,-377 1104.27,-385.32 1146.93,-394.13 1180,-400.83"/>
<polygon fill="black" stroke="black" points="1179.29,-404.25 1189.78,-402.8 1180.67,-397.39 1179.29,-404.25"/>
<text text-anchor="middle" x="1105.98" y="-396.8" font-family="Times,serif" font-size="14.00">possède 100%</text>
</g>
<!-- paris&#45;turf&#45;341 -->
<g id="node11" class="node">
<title>paris&#45;turf&#45;341</title>
<ellipse fill="none" stroke="black" cx="1236.93" cy="-358" rx="46.59" ry="18"/>
<text text-anchor="middle" x="1236.93" y="-354.3" font-family="Times,serif" font-size="14.00">Paris&#45;Turf</text>
</g>
<!-- rmc&#45;story&#45;327&#45;&gt;paris&#45;turf&#45;341 -->
<g id="edge10" class="edge">
<title>rmc&#45;story&#45;327&#45;&gt;paris&#45;turf&#45;341</title>
<path fill="none" stroke="black" d="M1048.48,-358C1088.62,-358 1140.12,-358 1178.97,-358"/>
<polygon fill="black" stroke="black" points="1178.58,-361.5 1188.58,-358 1178.58,-354.5 1178.58,-361.5"/>
<text text-anchor="middle" x="1105.98" y="-361.8" font-family="Times,serif" font-size="14.00">possède 100%</text>
</g>
</g>
</svg>
