<?xml version="1.0" encoding="UTF-8" standalone="no"?>
<!DOCTYPE svg PUBLIC "-//W3C//DTD SVG 1.1//EN"
 "http://www.w3.org/Graphics/SVG/1.1/DTD/svg11.dtd">
<!-- Generated by graphviz version 7.1.0 (20230121.1956)
 -->
<!-- Pages: 1 -->
<svg width="973pt" height="292pt"
 viewBox="0.00 0.00 972.82 292.00" xmlns="http://www.w3.org/2000/svg" xmlns:xlink="http://www.w3.org/1999/xlink">
<g id="graph0" class="graph" transform="scale(1 1) rotate(0) translate(4 288)">
<polygon fill="white" stroke="none" points="-4,4 -4,-288 968.82,-288 968.82,4 -4,4"/>
<g id="clust2" class="cluster">
<title>clusterLeaves</title>
<polygon fill="none" stroke="black" points="747.14,-8 747.14,-276 956.82,-276 956.82,-8 747.14,-8"/>
</g>
<!-- amber&#45;capital&#45;330 -->
<g id="node1" class="node">
<title>amber&#45;capital&#45;330</title>
<polygon fill="none" stroke="black" points="98,-160 0,-160 0,-124 98,-124 98,-160"/>
<text text-anchor="middle" x="49" y="-138.3" font-family="Times,serif" font-size="14.00">Amber Capital</text>
</g>
<!-- lagardere&#45;sa&#45;69 -->
<g id="node2" class="node">
<title>lagardere&#45;sa&#45;69</title>
<polygon fill="none" stroke="black" points="354.73,-147.56 280.91,-160 207.09,-147.56 207.16,-127.44 354.66,-127.44 354.73,-147.56"/>
<text text-anchor="middle" x="280.91" y="-138.3" font-family="Times,serif" font-size="14.00">Lagardère SA</text>
</g>
<!-- amber&#45;capital&#45;330&#45;&gt;lagardere&#45;sa&#45;69 -->
<g id="edge1" class="edge">
<title>amber&#45;capital&#45;330&#45;&gt;lagardere&#45;sa&#45;69</title>
<path fill="none" stroke="black" d="M98.48,-142C126.64,-142 162.92,-142 195.63,-142"/>
<polygon fill="black" stroke="black" points="195.51,-145.5 205.51,-142 195.51,-138.5 195.51,-145.5"/>
<text text-anchor="middle" x="152.5" y="-145.8" font-family="Times,serif" font-size="14.00">possède 20%</text>
</g>
<!-- lagardere&#45;news&#45;70 -->
<g id="node3" class="node">
<title>lagardere&#45;news&#45;70</title>
<polygon fill="none" stroke="black" points="640.29,-147.56 554.98,-160 469.66,-147.56 469.74,-127.44 640.21,-127.44 640.29,-147.56"/>
<text text-anchor="middle" x="554.98" y="-138.3" font-family="Times,serif" font-size="14.00">Lagardère News</text>
</g>
<!-- lagardere&#45;sa&#45;69&#45;&gt;lagardere&#45;news&#45;70 -->
<g id="edge2" class="edge">
<title>lagardere&#45;sa&#45;69&#45;&gt;lagardere&#45;news&#45;70</title>
<path fill="none" stroke="black" d="M355.18,-142C386.85,-142 424.34,-142 458.18,-142"/>
<polygon fill="black" stroke="black" points="457.99,-145.5 467.99,-142 457.99,-138.5 457.99,-145.5"/>
<text text-anchor="middle" x="412.32" y="-145.8" font-family="Times,serif" font-size="14.00">possède 100%</text>
</g>
<!-- europe&#45;1&#45;74 -->
<g id="node4" class="node">
<title>europe&#45;1&#45;74</title>
<ellipse fill="none" stroke="black" cx="851.98" cy="-250" rx="42.79" ry="18"/>
<text text-anchor="middle" x="851.98" y="-246.3" font-family="Times,serif" font-size="14.00">Europe 1</text>
</g>
<!-- lagardere&#45;news&#45;70&#45;&gt;europe&#45;1&#45;74 -->
<g id="edge3" class="edge">
<title>lagardere&#45;news&#45;70&#45;&gt;europe&#45;1&#45;74</title>
<path fill="none" stroke="black" d="M582.39,-156.45C602.75,-167.27 631.78,-182.04 658.14,-193 696.68,-209.03 707.13,-211.07 747.14,-223 765.38,-228.44 785.61,-233.84 803.33,-238.36"/>
<polygon fill="black" stroke="black" points="802.26,-241.7 812.81,-240.76 803.97,-234.92 802.26,-241.7"/>
<text text-anchor="middle" x="697.64" y="-222.8" font-family="Times,serif" font-size="14.00">possède 100%</text>
</g>
<!-- le&#45;journal&#45;du&#45;dimanche&#45;71 -->
<g id="node5" class="node">
<title>le&#45;journal&#45;du&#45;dimanche&#45;71</title>
<ellipse fill="none" stroke="black" cx="851.98" cy="-196" rx="96.68" ry="18"/>
<text text-anchor="middle" x="851.98" y="-192.3" font-family="Times,serif" font-size="14.00">Le Journal du dimanche</text>
</g>
<!-- lagardere&#45;news&#45;70&#45;&gt;le&#45;journal&#45;du&#45;dimanche&#45;71 -->
<g id="edge4" class="edge">
<title>lagardere&#45;news&#45;70&#45;&gt;le&#45;journal&#45;du&#45;dimanche&#45;71</title>
<path fill="none" stroke="black" d="M611.11,-152.3C626.34,-155.13 642.88,-158.2 658.14,-161 694.98,-167.77 735.79,-175.19 770.35,-181.45"/>
<polygon fill="black" stroke="black" points="769.39,-184.83 779.85,-183.17 770.64,-177.94 769.39,-184.83"/>
<text text-anchor="middle" x="697.64" y="-177.8" font-family="Times,serif" font-size="14.00">possède 100%</text>
</g>
<!-- paris&#45;match&#45;72 -->
<g id="node6" class="node">
<title>paris&#45;match&#45;72</title>
<ellipse fill="none" stroke="black" cx="851.98" cy="-142" rx="53.89" ry="18"/>
<text text-anchor="middle" x="851.98" y="-138.3" font-family="Times,serif" font-size="14.00">Paris Match</text>
</g>
<!-- lagardere&#45;news&#45;70&#45;&gt;paris&#45;match&#45;72 -->
<g id="edge5" class="edge">
<title>lagardere&#45;news&#45;70&#45;&gt;paris&#45;match&#45;72</title>
<path fill="none" stroke="black" d="M640.51,-142C686.99,-142 743.73,-142 786.58,-142"/>
<polygon fill="black" stroke="black" points="786.49,-145.5 796.49,-142 786.49,-138.5 786.49,-145.5"/>
<text text-anchor="middle" x="697.64" y="-145.8" font-family="Times,serif" font-size="14.00">possède 100%</text>
</g>
<!-- rfm&#45;75 -->
<g id="node7" class="node">
<title>rfm&#45;75</title>
<ellipse fill="none" stroke="black" cx="851.98" cy="-88" rx="29.8" ry="18"/>
<text text-anchor="middle" x="851.98" y="-84.3" font-family="Times,serif" font-size="14.00">RFM</text>
</g>
<!-- lagardere&#45;news&#45;70&#45;&gt;rfm&#45;75 -->
<g id="edge6" class="edge">
<title>lagardere&#45;news&#45;70&#45;&gt;rfm&#45;75</title>
<path fill="none" stroke="black" d="M636.55,-126.98C643.85,-125.63 651.13,-124.29 658.14,-123 711.33,-113.23 772.8,-102.1 811.77,-95.06"/>
<polygon fill="black" stroke="black" points="812.16,-98.55 821.38,-93.33 810.91,-91.66 812.16,-98.55"/>
<text text-anchor="middle" x="697.64" y="-126.8" font-family="Times,serif" font-size="14.00">possède 100%</text>
</g>
<!-- virgin&#45;radio&#45;76 -->
<g id="node8" class="node">
<title>virgin&#45;radio&#45;76</title>
<ellipse fill="none" stroke="black" cx="851.98" cy="-34" rx="57.39" ry="18"/>
<text text-anchor="middle" x="851.98" y="-30.3" font-family="Times,serif" font-size="14.00">Virgin Radio</text>
</g>
<!-- lagardere&#45;news&#45;70&#45;&gt;virgin&#45;radio&#45;76 -->
<g id="edge7" class="edge">
<title>lagardere&#45;news&#45;70&#45;&gt;virgin&#45;radio&#45;76</title>
<path fill="none" stroke="black" d="M582.33,-127.15C602.65,-116.05 631.66,-100.97 658.14,-90 696.57,-74.07 707.21,-72.68 747.14,-61 762.53,-56.5 779.31,-51.97 794.81,-47.94"/>
<polygon fill="black" stroke="black" points="795.56,-51.36 804.37,-45.48 793.81,-44.58 795.56,-51.36"/>
<text text-anchor="middle" x="697.64" y="-93.8" font-family="Times,serif" font-size="14.00">possède 100%</text>
</g>
</g>
</svg>
