<?xml version="1.0" encoding="UTF-8" standalone="no"?>
<!DOCTYPE svg PUBLIC "-//W3C//DTD SVG 1.1//EN"
 "http://www.w3.org/Graphics/SVG/1.1/DTD/svg11.dtd">
<!-- Generated by graphviz version 8.1.0 (20230707.0739)
 -->
<!-- Pages: 1 -->
<svg width="563pt" height="76pt"
 viewBox="0.00 0.00 562.88 76.00" xmlns="http://www.w3.org/2000/svg" xmlns:xlink="http://www.w3.org/1999/xlink">
<g id="graph0" class="graph" transform="scale(1 1) rotate(0) translate(4 72)">
<polygon fill="white" stroke="none" points="-4,4 -4,-72 558.88,-72 558.88,4 -4,4"/>
<g id="clust2" class="cluster">
<title>clusterLeaves</title>
<polygon fill="none" stroke="black" points="442.51,-8 442.51,-60 546.88,-60 546.88,-8 442.51,-8"/>
</g>
<!-- aol&#45;27 -->
<g id="node1" class="node">
<title>aol&#45;27</title>
<polygon fill="none" stroke="black" points="54,-52 0,-52 0,-16 54,-16 54,-52"/>
<text text-anchor="middle" x="27" y="-28.95" font-family="Times,serif" font-size="14.00">AOL</text>
</g>
<!-- huffington&#45;post&#45;28 -->
<g id="node2" class="node">
<title>huffington&#45;post&#45;28</title>
<polygon fill="none" stroke="black" points="342.51,-39.56 255.63,-52 168.75,-39.56 168.83,-19.44 342.43,-19.44 342.51,-39.56"/>
<text text-anchor="middle" x="255.63" y="-28.95" font-family="Times,serif" font-size="14.00">Huffington Post</text>
</g>
<!-- aol&#45;27&#45;&gt;huffington&#45;post&#45;28 -->
<g id="edge1" class="edge">
<title>aol&#45;27&#45;&gt;huffington&#45;post&#45;28</title>
<path fill="none" stroke="black" d="M54.44,-34C79.95,-34 120.14,-34 157.83,-34"/>
<polygon fill="black" stroke="black" points="157.38,-37.5 167.38,-34 157.38,-30.5 157.38,-37.5"/>
<text text-anchor="middle" x="111.37" y="-37.2" font-family="Times,serif" font-size="14.00">possède 100%</text>
</g>
<!-- huffpost&#45;26 -->
<g id="node3" class="node">
<title>huffpost&#45;26</title>
<ellipse fill="none" stroke="black" cx="494.7" cy="-34" rx="44.19" ry="18"/>
<text text-anchor="middle" x="494.7" y="-28.95" font-family="Times,serif" font-size="14.00">HuffPost</text>
</g>
<!-- huffington&#45;post&#45;28&#45;&gt;huffpost&#45;26 -->
<g id="edge2" class="edge">
<title>huffington&#45;post&#45;28&#45;&gt;huffpost&#45;26</title>
<path fill="none" stroke="black" d="M342.89,-34C375.03,-34 410.6,-34 439.12,-34"/>
<polygon fill="black" stroke="black" points="439.08,-37.5 449.08,-34 439.08,-30.5 439.08,-37.5"/>
<text text-anchor="middle" x="396.51" y="-37.2" font-family="Times,serif" font-size="14.00">possède 51%</text>
</g>
</g>
</svg>
