<?xml version="1.0" encoding="UTF-8" standalone="no"?>
<!DOCTYPE svg PUBLIC "-//W3C//DTD SVG 1.1//EN"
 "http://www.w3.org/Graphics/SVG/1.1/DTD/svg11.dtd">
<!-- Generated by graphviz version 8.1.0 (20230707.0739)
 -->
<!-- Pages: 1 -->
<svg width="1047pt" height="98pt"
 viewBox="0.00 0.00 1046.59 98.00" xmlns="http://www.w3.org/2000/svg" xmlns:xlink="http://www.w3.org/1999/xlink">
<g id="graph0" class="graph" transform="scale(1 1) rotate(0) translate(4 94)">
<polygon fill="white" stroke="none" points="-4,4 -4,-94 1042.59,-94 1042.59,4 -4,4"/>
<g id="clust2" class="cluster">
<title>clusterLeaves</title>
<polygon fill="none" stroke="black" points="960,-21 960,-73 1030.59,-73 1030.59,-21 960,-21"/>
</g>
<!-- republique&#45;francaise&#45;128 -->
<g id="node1" class="node">
<title>republique&#45;francaise&#45;128</title>
<polygon fill="none" stroke="black" points="450.66,-90 319.91,-90 319.91,-54 450.66,-54 450.66,-90"/>
<text text-anchor="middle" x="385.28" y="-66.95" font-family="Times,serif" font-size="14.00">République française</text>
</g>
<!-- arte&#45;france&#45;136 -->
<g id="node3" class="node">
<title>arte&#45;france&#45;136</title>
<polygon fill="none" stroke="black" points="782.19,-77.56 714.29,-90 646.38,-77.56 646.45,-57.44 782.12,-57.44 782.19,-77.56"/>
<text text-anchor="middle" x="714.29" y="-66.95" font-family="Times,serif" font-size="14.00">Arte France</text>
</g>
<!-- republique&#45;francaise&#45;128&#45;&gt;arte&#45;france&#45;136 -->
<g id="edge2" class="edge">
<title>republique&#45;francaise&#45;128&#45;&gt;arte&#45;france&#45;136</title>
<path fill="none" stroke="black" d="M450.89,-72C503.76,-72 578.74,-72 635.01,-72"/>
<polygon fill="black" stroke="black" points="635,-75.5 645,-72 635,-68.5 635,-75.5"/>
<text text-anchor="middle" x="511.19" y="-75.2" font-family="Times,serif" font-size="14.00">possède 100%</text>
</g>
<!-- republique&#45;federale&#45;d&#45;allemagne&#45;129 -->
<g id="node2" class="node">
<title>republique&#45;federale&#45;d&#45;allemagne&#45;129</title>
<polygon fill="none" stroke="black" points="200.5,-36 0,-36 0,0 200.5,0 200.5,-36"/>
<text text-anchor="middle" x="100.25" y="-12.95" font-family="Times,serif" font-size="14.00">République fédérale d’Allemagne</text>
</g>
<!-- ard&#45;zdf&#45;155 -->
<g id="node5" class="node">
<title>ard&#45;zdf&#45;155</title>
<polygon fill="none" stroke="black" points="453.82,-23.56 385.28,-36 316.75,-23.56 316.81,-3.44 453.76,-3.44 453.82,-23.56"/>
<text text-anchor="middle" x="385.28" y="-12.95" font-family="Times,serif" font-size="14.00">ARD / ZDF</text>
</g>
<!-- republique&#45;federale&#45;d&#45;allemagne&#45;129&#45;&gt;ard&#45;zdf&#45;155 -->
<g id="edge5" class="edge">
<title>republique&#45;federale&#45;d&#45;allemagne&#45;129&#45;&gt;ard&#45;zdf&#45;155</title>
<path fill="none" stroke="black" d="M200.64,-18C235.13,-18 273.29,-18 305.85,-18"/>
<polygon fill="black" stroke="black" points="305.66,-21.5 315.66,-18 305.66,-14.5 305.66,-21.5"/>
<text text-anchor="middle" x="258.62" y="-21.2" font-family="Times,serif" font-size="14.00">contrôle 100%</text>
</g>
<!-- arte&#45;154 -->
<g id="node6" class="node">
<title>arte&#45;154</title>
<ellipse fill="none" stroke="black" cx="995.3" cy="-47" rx="27.3" ry="18"/>
<text text-anchor="middle" x="995.3" y="-41.95" font-family="Times,serif" font-size="14.00">Arte</text>
</g>
<!-- arte&#45;france&#45;136&#45;&gt;arte&#45;154 -->
<g id="edge1" class="edge">
<title>arte&#45;france&#45;136&#45;&gt;arte&#45;154</title>
<path fill="none" stroke="black" d="M782.47,-65.98C837.21,-61.08 912.47,-54.33 956.99,-50.34"/>
<polygon fill="black" stroke="black" points="957.23,-53.75 966.88,-49.37 956.61,-46.77 957.23,-53.75"/>
<text text-anchor="middle" x="914" y="-60.2" font-family="Times,serif" font-size="14.00">possède 50%</text>
</g>
<!-- arte&#45;deutschland&#45;tv&#45;gmbh&#45;156 -->
<g id="node4" class="node">
<title>arte&#45;deutschland&#45;tv&#45;gmbh&#45;156</title>
<polygon fill="none" stroke="black" points="860,-23.56 714.29,-36 568.57,-23.56 568.71,-3.44 859.87,-3.44 860,-23.56"/>
<text text-anchor="middle" x="714.29" y="-12.95" font-family="Times,serif" font-size="14.00">Arte Deutschland TV GmbH</text>
</g>
<!-- arte&#45;deutschland&#45;tv&#45;gmbh&#45;156&#45;&gt;arte&#45;154 -->
<g id="edge3" class="edge">
<title>arte&#45;deutschland&#45;tv&#45;gmbh&#45;156&#45;&gt;arte&#45;154</title>
<path fill="none" stroke="black" d="M860.16,-18.83C890.08,-20.92 921.23,-24.52 950,-30.5 953.93,-31.32 957.97,-32.42 961.94,-33.68"/>
<polygon fill="black" stroke="black" points="960.56,-37.25 971.15,-37.25 962.87,-30.64 960.56,-37.25"/>
<text text-anchor="middle" x="914" y="-33.2" font-family="Times,serif" font-size="14.00">possède 50%</text>
</g>
<!-- ard&#45;zdf&#45;155&#45;&gt;arte&#45;deutschland&#45;tv&#45;gmbh&#45;156 -->
<g id="edge4" class="edge">
<title>ard&#45;zdf&#45;155&#45;&gt;arte&#45;deutschland&#45;tv&#45;gmbh&#45;156</title>
<path fill="none" stroke="black" d="M454.04,-18C484.26,-18 521.22,-18 557.66,-18"/>
<polygon fill="black" stroke="black" points="557.43,-21.5 567.43,-18 557.43,-14.5 557.43,-21.5"/>
<text text-anchor="middle" x="511.19" y="-21.2" font-family="Times,serif" font-size="14.00">possède 100%</text>
</g>
</g>
</svg>
