<?xml version="1.0" encoding="UTF-8" standalone="no"?>
<!DOCTYPE svg PUBLIC "-//W3C//DTD SVG 1.1//EN"
 "http://www.w3.org/Graphics/SVG/1.1/DTD/svg11.dtd">
<!-- Generated by graphviz version 7.1.0 (20230121.1956)
 -->
<!-- Pages: 1 -->
<svg width="1030pt" height="98pt"
 viewBox="0.00 0.00 1029.72 98.00" xmlns="http://www.w3.org/2000/svg" xmlns:xlink="http://www.w3.org/1999/xlink">
<g id="graph0" class="graph" transform="scale(1 1) rotate(0) translate(4 94)">
<polygon fill="white" stroke="none" points="-4,4 -4,-94 1025.72,-94 1025.72,4 -4,4"/>
<g id="clust2" class="cluster">
<title>clusterLeaves</title>
<polygon fill="none" stroke="black" points="943.72,-21 943.72,-73 1013.72,-73 1013.72,-21 943.72,-21"/>
</g>
<!-- republique&#45;francaise&#45;128 -->
<g id="node1" class="node">
<title>republique&#45;francaise&#45;128</title>
<polygon fill="none" stroke="black" points="449.38,-90 318.38,-90 318.38,-54 449.38,-54 449.38,-90"/>
<text text-anchor="middle" x="383.88" y="-68.3" font-family="Times,serif" font-size="14.00">République française</text>
</g>
<!-- arte&#45;france&#45;136 -->
<g id="node3" class="node">
<title>arte&#45;france&#45;136</title>
<polygon fill="none" stroke="black" points="768.88,-77.56 703.74,-90 638.59,-77.56 638.65,-57.44 768.82,-57.44 768.88,-77.56"/>
<text text-anchor="middle" x="703.74" y="-68.3" font-family="Times,serif" font-size="14.00">Arte France</text>
</g>
<!-- republique&#45;francaise&#45;128&#45;&gt;arte&#45;france&#45;136 -->
<g id="edge2" class="edge">
<title>republique&#45;francaise&#45;128&#45;&gt;arte&#45;france&#45;136</title>
<path fill="none" stroke="black" d="M449.58,-72C500.93,-72 572.82,-72 626.87,-72"/>
<polygon fill="black" stroke="black" points="626.61,-75.5 636.61,-72 626.61,-68.5 626.61,-75.5"/>
<text text-anchor="middle" x="507.25" y="-75.8" font-family="Times,serif" font-size="14.00">possède 100%</text>
</g>
<!-- republique&#45;federale&#45;d&#45;allemagne&#45;129 -->
<g id="node2" class="node">
<title>republique&#45;federale&#45;d&#45;allemagne&#45;129</title>
<polygon fill="none" stroke="black" points="201,-36 0,-36 0,0 201,0 201,-36"/>
<text text-anchor="middle" x="100.5" y="-14.3" font-family="Times,serif" font-size="14.00">République fédérale d’Allemagne</text>
</g>
<!-- ard&#45;zdf&#45;155 -->
<g id="node5" class="node">
<title>ard&#45;zdf&#45;155</title>
<polygon fill="none" stroke="black" points="449.63,-23.56 383.88,-36 318.12,-23.56 318.18,-3.44 449.57,-3.44 449.63,-23.56"/>
<text text-anchor="middle" x="383.88" y="-14.3" font-family="Times,serif" font-size="14.00">ARD / ZDF</text>
</g>
<!-- republique&#45;federale&#45;d&#45;allemagne&#45;129&#45;&gt;ard&#45;zdf&#45;155 -->
<g id="edge5" class="edge">
<title>republique&#45;federale&#45;d&#45;allemagne&#45;129&#45;&gt;ard&#45;zdf&#45;155</title>
<path fill="none" stroke="black" d="M201.5,-18C236.11,-18 274.33,-18 306.72,-18"/>
<polygon fill="black" stroke="black" points="306.4,-21.5 316.4,-18 306.4,-14.5 306.4,-21.5"/>
<text text-anchor="middle" x="259.5" y="-21.8" font-family="Times,serif" font-size="14.00">contrôle 100%</text>
</g>
<!-- arte&#45;154 -->
<g id="node6" class="node">
<title>arte&#45;154</title>
<ellipse fill="none" stroke="black" cx="978.72" cy="-47" rx="27" ry="18"/>
<text text-anchor="middle" x="978.72" y="-43.3" font-family="Times,serif" font-size="14.00">Arte</text>
</g>
<!-- arte&#45;france&#45;136&#45;&gt;arte&#45;154 -->
<g id="edge1" class="edge">
<title>arte&#45;france&#45;136&#45;&gt;arte&#45;154</title>
<path fill="none" stroke="black" d="M769.08,-66.11C822.36,-61.23 896.23,-54.46 940.27,-50.43"/>
<polygon fill="black" stroke="black" points="940.45,-53.93 950.09,-49.53 939.81,-46.96 940.45,-53.93"/>
<text text-anchor="middle" x="897.22" y="-60.8" font-family="Times,serif" font-size="14.00">possède 50%</text>
</g>
<!-- arte&#45;deutschland&#45;tv&#45;gmbh&#45;156 -->
<g id="node4" class="node">
<title>arte&#45;deutschland&#45;tv&#45;gmbh&#45;156</title>
<polygon fill="none" stroke="black" points="842.7,-23.56 703.74,-36 564.77,-23.56 564.9,-3.44 842.57,-3.44 842.7,-23.56"/>
<text text-anchor="middle" x="703.74" y="-14.3" font-family="Times,serif" font-size="14.00">Arte Deutschland TV GmbH</text>
</g>
<!-- arte&#45;deutschland&#45;tv&#45;gmbh&#45;156&#45;&gt;arte&#45;154 -->
<g id="edge3" class="edge">
<title>arte&#45;deutschland&#45;tv&#45;gmbh&#45;156&#45;&gt;arte&#45;154</title>
<path fill="none" stroke="black" d="M842.93,-20.47C873.05,-22.67 904.61,-26.26 933.72,-32 937.17,-32.68 940.72,-33.57 944.24,-34.56"/>
<polygon fill="black" stroke="black" points="943.17,-37.89 953.76,-37.58 945.28,-31.22 943.17,-37.89"/>
<text text-anchor="middle" x="897.22" y="-35.8" font-family="Times,serif" font-size="14.00">possède 50%</text>
</g>
<!-- ard&#45;zdf&#45;155&#45;&gt;arte&#45;deutschland&#45;tv&#45;gmbh&#45;156 -->
<g id="edge4" class="edge">
<title>ard&#45;zdf&#45;155&#45;&gt;arte&#45;deutschland&#45;tv&#45;gmbh&#45;156</title>
<path fill="none" stroke="black" d="M449.97,-18C480.01,-18 517.02,-18 553.36,-18"/>
<polygon fill="black" stroke="black" points="553.09,-21.5 563.09,-18 553.09,-14.5 553.09,-21.5"/>
<text text-anchor="middle" x="507.25" y="-21.8" font-family="Times,serif" font-size="14.00">possède 100%</text>
</g>
</g>
</svg>
