<?xml version="1.0" encoding="UTF-8" standalone="no"?>
<!DOCTYPE svg PUBLIC "-//W3C//DTD SVG 1.1//EN"
 "http://www.w3.org/Graphics/SVG/1.1/DTD/svg11.dtd">
<!-- Generated by graphviz version 7.1.0 (20230121.1956)
 -->
<!-- Pages: 1 -->
<svg width="563pt" height="76pt"
 viewBox="0.00 0.00 563.15 76.00" xmlns="http://www.w3.org/2000/svg" xmlns:xlink="http://www.w3.org/1999/xlink">
<g id="graph0" class="graph" transform="scale(1 1) rotate(0) translate(4 72)">
<polygon fill="white" stroke="none" points="-4,4 -4,-72 559.15,-72 559.15,4 -4,4"/>
<g id="clust2" class="cluster">
<title>clusterLeaves</title>
<polygon fill="none" stroke="black" points="477.15,-8 477.15,-60 547.15,-60 547.15,-8 477.15,-8"/>
</g>
<!-- republique&#45;francaise&#45;128 -->
<g id="node1" class="node">
<title>republique&#45;francaise&#45;128</title>
<polygon fill="none" stroke="black" points="131,-52 0,-52 0,-16 131,-16 131,-52"/>
<text text-anchor="middle" x="65.5" y="-30.3" font-family="Times,serif" font-size="14.00">République française</text>
</g>
<!-- arte&#45;france&#45;136 -->
<g id="node2" class="node">
<title>arte&#45;france&#45;136</title>
<polygon fill="none" stroke="black" points="376.22,-39.56 311.07,-52 245.93,-39.56 245.99,-19.44 376.16,-19.44 376.22,-39.56"/>
<text text-anchor="middle" x="311.07" y="-30.3" font-family="Times,serif" font-size="14.00">Arte France</text>
</g>
<!-- republique&#45;francaise&#45;128&#45;&gt;arte&#45;france&#45;136 -->
<g id="edge1" class="edge">
<title>republique&#45;francaise&#45;128&#45;&gt;arte&#45;france&#45;136</title>
<path fill="none" stroke="black" d="M131.45,-34C163.1,-34 201.34,-34 234.3,-34"/>
<polygon fill="black" stroke="black" points="234.21,-37.5 244.21,-34 234.21,-30.5 234.21,-37.5"/>
<text text-anchor="middle" x="188.5" y="-37.8" font-family="Times,serif" font-size="14.00">possède 100%</text>
</g>
<!-- arte&#45;154 -->
<g id="node3" class="node">
<title>arte&#45;154</title>
<ellipse fill="none" stroke="black" cx="512.15" cy="-34" rx="27" ry="18"/>
<text text-anchor="middle" x="512.15" y="-30.3" font-family="Times,serif" font-size="14.00">Arte</text>
</g>
<!-- arte&#45;france&#45;136&#45;&gt;arte&#45;154 -->
<g id="edge2" class="edge">
<title>arte&#45;france&#45;136&#45;&gt;arte&#45;154</title>
<path fill="none" stroke="black" d="M376.43,-34C408.49,-34 446.14,-34 473.48,-34"/>
<polygon fill="black" stroke="black" points="473.37,-37.5 483.37,-34 473.37,-30.5 473.37,-37.5"/>
<text text-anchor="middle" x="430.65" y="-37.8" font-family="Times,serif" font-size="14.00">possède 50%</text>
</g>
</g>
</svg>
