<?xml version="1.0" encoding="UTF-8" standalone="no"?>
<!DOCTYPE svg PUBLIC "-//W3C//DTD SVG 1.1//EN"
 "http://www.w3.org/Graphics/SVG/1.1/DTD/svg11.dtd">
<!-- Generated by graphviz version 8.1.0 (20230707.0739)
 -->
<!-- Pages: 1 -->
<svg width="518pt" height="130pt"
 viewBox="0.00 0.00 517.52 130.00" xmlns="http://www.w3.org/2000/svg" xmlns:xlink="http://www.w3.org/1999/xlink">
<g id="graph0" class="graph" transform="scale(1 1) rotate(0) translate(4 126)">
<polygon fill="white" stroke="none" points="-4,4 -4,-126 513.52,-126 513.52,4 -4,4"/>
<g id="clust2" class="cluster">
<title>clusterLeaves</title>
<polygon fill="none" stroke="black" points="282.5,-8 282.5,-114 501.52,-114 501.52,-8 282.5,-8"/>
</g>
<!-- association&#45;guenter&#45;holzmann&#45;34 -->
<g id="node1" class="node">
<title>association&#45;guenter&#45;holzmann&#45;34</title>
<polygon fill="none" stroke="black" points="182.5,-79 0,-79 0,-43 182.5,-43 182.5,-79"/>
<text text-anchor="middle" x="91.25" y="-55.95" font-family="Times,serif" font-size="14.00">Association Günter&#45;Holzmann</text>
</g>
<!-- le&#45;monde&#45;diplomatique&#45;24 -->
<g id="node2" class="node">
<title>le&#45;monde&#45;diplomatique&#45;24</title>
<ellipse fill="none" stroke="black" cx="392.01" cy="-88" rx="101.51" ry="18"/>
<text text-anchor="middle" x="392.01" y="-82.95" font-family="Times,serif" font-size="14.00">Le Monde diplomatique</text>
</g>
<!-- association&#45;guenter&#45;holzmann&#45;34&#45;&gt;le&#45;monde&#45;diplomatique&#45;24 -->
<g id="edge1" class="edge">
<title>association&#45;guenter&#45;holzmann&#45;34&#45;&gt;le&#45;monde&#45;diplomatique&#45;24</title>
<path fill="none" stroke="black" d="M182.7,-69.17C216.55,-72.23 255.21,-75.73 289.96,-78.87"/>
<polygon fill="black" stroke="black" points="289.34,-82.42 299.61,-79.83 289.97,-75.44 289.34,-82.42"/>
<text text-anchor="middle" x="236.5" y="-79.2" font-family="Times,serif" font-size="14.00">possède 24%</text>
</g>
<!-- maniere&#45;de&#45;voir&#45;25 -->
<g id="node3" class="node">
<title>maniere&#45;de&#45;voir&#45;25</title>
<ellipse fill="none" stroke="black" cx="392.01" cy="-34" rx="70.8" ry="18"/>
<text text-anchor="middle" x="392.01" y="-28.95" font-family="Times,serif" font-size="14.00">Manière de voir</text>
</g>
<!-- association&#45;guenter&#45;holzmann&#45;34&#45;&gt;maniere&#45;de&#45;voir&#45;25 -->
<g id="edge2" class="edge">
<title>association&#45;guenter&#45;holzmann&#45;34&#45;&gt;maniere&#45;de&#45;voir&#45;25</title>
<path fill="none" stroke="black" d="M182.91,-52.14C188.86,-51.58 194.77,-51.03 200.5,-50.5 237.8,-47.08 279.23,-43.46 313.9,-40.5"/>
<polygon fill="black" stroke="black" points="313.76,-43.94 323.43,-39.6 313.17,-36.96 313.76,-43.94"/>
<text text-anchor="middle" x="236.5" y="-53.2" font-family="Times,serif" font-size="14.00">possède 24%</text>
</g>
</g>
</svg>
