<?xml version="1.0" encoding="UTF-8" standalone="no"?>
<!DOCTYPE svg PUBLIC "-//W3C//DTD SVG 1.1//EN"
 "http://www.w3.org/Graphics/SVG/1.1/DTD/svg11.dtd">
<!-- Generated by graphviz version 7.1.0 (20230121.1956)
 -->
<!-- Pages: 1 -->
<svg width="510pt" height="130pt"
 viewBox="0.00 0.00 509.68 130.00" xmlns="http://www.w3.org/2000/svg" xmlns:xlink="http://www.w3.org/1999/xlink">
<g id="graph0" class="graph" transform="scale(1 1) rotate(0) translate(4 126)">
<polygon fill="white" stroke="none" points="-4,4 -4,-126 505.68,-126 505.68,4 -4,4"/>
<g id="clust2" class="cluster">
<title>clusterLeaves</title>
<polygon fill="none" stroke="black" points="284,-8 284,-114 493.68,-114 493.68,-8 284,-8"/>
</g>
<!-- association&#45;guenter&#45;holzmann&#45;34 -->
<g id="node1" class="node">
<title>association&#45;guenter&#45;holzmann&#45;34</title>
<polygon fill="none" stroke="black" points="183,-79 0,-79 0,-43 183,-43 183,-79"/>
<text text-anchor="middle" x="91.5" y="-57.3" font-family="Times,serif" font-size="14.00">Association Günter&#45;Holzmann</text>
</g>
<!-- le&#45;monde&#45;diplomatique&#45;24 -->
<g id="node2" class="node">
<title>le&#45;monde&#45;diplomatique&#45;24</title>
<ellipse fill="none" stroke="black" cx="388.84" cy="-88" rx="96.68" ry="18"/>
<text text-anchor="middle" x="388.84" y="-84.3" font-family="Times,serif" font-size="14.00">Le Monde diplomatique</text>
</g>
<!-- association&#45;guenter&#45;holzmann&#45;34&#45;&gt;le&#45;monde&#45;diplomatique&#45;24 -->
<g id="edge1" class="edge">
<title>association&#45;guenter&#45;holzmann&#45;34&#45;&gt;le&#45;monde&#45;diplomatique&#45;24</title>
<path fill="none" stroke="black" d="M183.12,-69.28C217.01,-72.38 255.64,-75.91 290.14,-79.07"/>
<polygon fill="black" stroke="black" points="289.4,-82.52 299.68,-79.94 290.04,-75.54 289.4,-82.52"/>
<text text-anchor="middle" x="237.5" y="-79.8" font-family="Times,serif" font-size="14.00">possède 24%</text>
</g>
<!-- maniere&#45;de&#45;voir&#45;25 -->
<g id="node3" class="node">
<title>maniere&#45;de&#45;voir&#45;25</title>
<ellipse fill="none" stroke="black" cx="388.84" cy="-34" rx="67.69" ry="18"/>
<text text-anchor="middle" x="388.84" y="-30.3" font-family="Times,serif" font-size="14.00">Manière de voir</text>
</g>
<!-- association&#45;guenter&#45;holzmann&#45;34&#45;&gt;maniere&#45;de&#45;voir&#45;25 -->
<g id="edge2" class="edge">
<title>association&#45;guenter&#45;holzmann&#45;34&#45;&gt;maniere&#45;de&#45;voir&#45;25</title>
<path fill="none" stroke="black" d="M183.12,-52.72C224.79,-48.91 273.62,-44.44 313.14,-40.83"/>
<polygon fill="black" stroke="black" points="313.41,-44.32 323.05,-39.92 312.77,-37.35 313.41,-44.32"/>
<text text-anchor="middle" x="237.5" y="-53.8" font-family="Times,serif" font-size="14.00">possède 24%</text>
</g>
</g>
</svg>
