<?xml version="1.0" encoding="UTF-8" standalone="no"?>
<!DOCTYPE svg PUBLIC "-//W3C//DTD SVG 1.1//EN"
 "http://www.w3.org/Graphics/SVG/1.1/DTD/svg11.dtd">
<!-- Generated by graphviz version 8.1.0 (20230707.0739)
 -->
<!-- Pages: 1 -->
<svg width="768pt" height="130pt"
 viewBox="0.00 0.00 767.77 130.00" xmlns="http://www.w3.org/2000/svg" xmlns:xlink="http://www.w3.org/1999/xlink">
<g id="graph0" class="graph" transform="scale(1 1) rotate(0) translate(4 126)">
<polygon fill="white" stroke="none" points="-4,4 -4,-126 763.77,-126 763.77,4 -4,4"/>
<g id="clust2" class="cluster">
<title>clusterLeaves</title>
<polygon fill="none" stroke="black" points="620.78,-8 620.78,-114 751.77,-114 751.77,-8 620.78,-8"/>
</g>
<!-- ayant&#45;droit&#45;de&#45;bernard&#45;tapie&#45;276 -->
<g id="node1" class="node">
<title>ayant&#45;droit&#45;de&#45;bernard&#45;tapie&#45;276</title>
<polygon fill="none" stroke="black" points="189.25,-79 0,-79 0,-43 189.25,-43 189.25,-79"/>
<text text-anchor="middle" x="94.62" y="-57.08" font-family="Times,serif" font-size="14.00">🧑‍💼Ayant droit de Bernard Tapie</text>
</g>
<!-- groupe&#45;la&#45;provence&#45;280 -->
<g id="node2" class="node">
<title>groupe&#45;la&#45;provence&#45;280</title>
<polygon fill="none" stroke="black" points="514.03,-66.56 405.64,-79 297.25,-66.56 297.35,-46.44 513.93,-46.44 514.03,-66.56"/>
<text text-anchor="middle" x="405.64" y="-55.95" font-family="Times,serif" font-size="14.00">Groupe La Provence</text>
</g>
<!-- ayant&#45;droit&#45;de&#45;bernard&#45;tapie&#45;276&#45;&gt;groupe&#45;la&#45;provence&#45;280 -->
<g id="edge1" class="edge">
<title>ayant&#45;droit&#45;de&#45;bernard&#45;tapie&#45;276&#45;&gt;groupe&#45;la&#45;provence&#45;280</title>
<path fill="none" stroke="black" d="M189.6,-61C220.07,-61 254.27,-61 286.28,-61"/>
<polygon fill="black" stroke="black" points="286.04,-64.5 296.04,-61 286.04,-57.5 286.04,-64.5"/>
<text text-anchor="middle" x="243.25" y="-64.2" font-family="Times,serif" font-size="14.00">possède 89%</text>
</g>
<!-- corse&#45;matin&#45;282 -->
<g id="node3" class="node">
<title>corse&#45;matin&#45;282</title>
<ellipse fill="none" stroke="black" cx="686.27" cy="-88" rx="57.49" ry="18"/>
<text text-anchor="middle" x="686.27" y="-82.95" font-family="Times,serif" font-size="14.00">Corse Matin</text>
</g>
<!-- groupe&#45;la&#45;provence&#45;280&#45;&gt;corse&#45;matin&#45;282 -->
<g id="edge2" class="edge">
<title>groupe&#45;la&#45;provence&#45;280&#45;&gt;corse&#45;matin&#45;282</title>
<path fill="none" stroke="black" d="M493.27,-69.39C534.13,-73.35 582.08,-78 619.84,-81.66"/>
<polygon fill="black" stroke="black" points="619.41,-85.23 629.71,-82.71 620.09,-78.26 619.41,-85.23"/>
<text text-anchor="middle" x="571.41" y="-83.2" font-family="Times,serif" font-size="14.00">possède 65%</text>
</g>
<!-- la&#45;provence&#45;283 -->
<g id="node4" class="node">
<title>la&#45;provence&#45;283</title>
<ellipse fill="none" stroke="black" cx="686.27" cy="-34" rx="57.49" ry="18"/>
<text text-anchor="middle" x="686.27" y="-28.95" font-family="Times,serif" font-size="14.00">La Provence</text>
</g>
<!-- groupe&#45;la&#45;provence&#45;280&#45;&gt;la&#45;provence&#45;283 -->
<g id="edge3" class="edge">
<title>groupe&#45;la&#45;provence&#45;280&#45;&gt;la&#45;provence&#45;283</title>
<path fill="none" stroke="black" d="M514.37,-50.56C549.98,-47.11 588.51,-43.38 619.95,-40.33"/>
<polygon fill="black" stroke="black" points="620.14,-43.73 629.76,-39.28 619.47,-36.76 620.14,-43.73"/>
<text text-anchor="middle" x="571.41" y="-51.2" font-family="Times,serif" font-size="14.00">possède 100%</text>
</g>
</g>
</svg>
