<?xml version="1.0" encoding="UTF-8" standalone="no"?>
<!DOCTYPE svg PUBLIC "-//W3C//DTD SVG 1.1//EN"
 "http://www.w3.org/Graphics/SVG/1.1/DTD/svg11.dtd">
<!-- Generated by graphviz version 7.1.0 (20230121.1956)
 -->
<!-- Pages: 1 -->
<svg width="756pt" height="130pt"
 viewBox="0.00 0.00 755.76 130.00" xmlns="http://www.w3.org/2000/svg" xmlns:xlink="http://www.w3.org/1999/xlink">
<g id="graph0" class="graph" transform="scale(1 1) rotate(0) translate(4 126)">
<polygon fill="white" stroke="none" points="-4,4 -4,-126 751.76,-126 751.76,4 -4,4"/>
<g id="clust2" class="cluster">
<title>clusterLeaves</title>
<polygon fill="none" stroke="black" points="613.27,-8 613.27,-114 739.76,-114 739.76,-8 613.27,-8"/>
</g>
<!-- ayant&#45;droit&#45;de&#45;bernard&#45;tapie&#45;276 -->
<g id="node1" class="node">
<title>ayant&#45;droit&#45;de&#45;bernard&#45;tapie&#45;276</title>
<polygon fill="none" stroke="black" points="190,-79 0,-79 0,-43 190,-43 190,-79"/>
<text text-anchor="middle" x="95" y="-57.3" font-family="Times,serif" font-size="14.00">🧑‍💼Ayant droit de Bernard Tapie</text>
</g>
<!-- groupe&#45;la&#45;provence&#45;280 -->
<g id="node2" class="node">
<title>groupe&#45;la&#45;provence&#45;280</title>
<polygon fill="none" stroke="black" points="506.41,-66.56 402.64,-79 298.86,-66.56 298.96,-46.44 506.31,-46.44 506.41,-66.56"/>
<text text-anchor="middle" x="402.64" y="-57.3" font-family="Times,serif" font-size="14.00">Groupe La Provence</text>
</g>
<!-- ayant&#45;droit&#45;de&#45;bernard&#45;tapie&#45;276&#45;&gt;groupe&#45;la&#45;provence&#45;280 -->
<g id="edge1" class="edge">
<title>ayant&#45;droit&#45;de&#45;bernard&#45;tapie&#45;276&#45;&gt;groupe&#45;la&#45;provence&#45;280</title>
<path fill="none" stroke="black" d="M190.19,-61C220.87,-61 255.26,-61 287.24,-61"/>
<polygon fill="black" stroke="black" points="286.93,-64.5 296.93,-61 286.93,-57.5 286.93,-64.5"/>
<text text-anchor="middle" x="244.5" y="-64.8" font-family="Times,serif" font-size="14.00">possède 89%</text>
</g>
<!-- corse&#45;matin&#45;282 -->
<g id="node3" class="node">
<title>corse&#45;matin&#45;282</title>
<ellipse fill="none" stroke="black" cx="676.52" cy="-88" rx="55.49" ry="18"/>
<text text-anchor="middle" x="676.52" y="-84.3" font-family="Times,serif" font-size="14.00">Corse Matin</text>
</g>
<!-- groupe&#45;la&#45;provence&#45;280&#45;&gt;corse&#45;matin&#45;282 -->
<g id="edge2" class="edge">
<title>groupe&#45;la&#45;provence&#45;280&#45;&gt;corse&#45;matin&#45;282</title>
<path fill="none" stroke="black" d="M487.43,-69.32C527.58,-73.31 574.9,-78.01 612.02,-81.69"/>
<polygon fill="black" stroke="black" points="611.4,-85.15 621.69,-82.66 612.09,-78.18 611.4,-85.15"/>
<text text-anchor="middle" x="563.77" y="-83.8" font-family="Times,serif" font-size="14.00">possède 65%</text>
</g>
<!-- la&#45;provence&#45;283 -->
<g id="node4" class="node">
<title>la&#45;provence&#45;283</title>
<ellipse fill="none" stroke="black" cx="676.52" cy="-34" rx="55.49" ry="18"/>
<text text-anchor="middle" x="676.52" y="-30.3" font-family="Times,serif" font-size="14.00">La Provence</text>
</g>
<!-- groupe&#45;la&#45;provence&#45;280&#45;&gt;la&#45;provence&#45;283 -->
<g id="edge3" class="edge">
<title>groupe&#45;la&#45;provence&#45;280&#45;&gt;la&#45;provence&#45;283</title>
<path fill="none" stroke="black" d="M506.81,-50.75C542.13,-47.25 580.59,-43.43 611.85,-40.32"/>
<polygon fill="black" stroke="black" points="611.92,-43.83 621.52,-39.36 611.23,-36.87 611.92,-43.83"/>
<text text-anchor="middle" x="563.77" y="-51.8" font-family="Times,serif" font-size="14.00">possède 100%</text>
</g>
</g>
</svg>
