<?xml version="1.0" encoding="UTF-8" standalone="no"?>
<!DOCTYPE svg PUBLIC "-//W3C//DTD SVG 1.1//EN"
 "http://www.w3.org/Graphics/SVG/1.1/DTD/svg11.dtd">
<!-- Generated by graphviz version 8.1.0 (20230707.0739)
 -->
<!-- Pages: 1 -->
<svg width="1301pt" height="994pt"
 viewBox="0.00 0.00 1300.76 994.00" xmlns="http://www.w3.org/2000/svg" xmlns:xlink="http://www.w3.org/1999/xlink">
<g id="graph0" class="graph" transform="scale(1 1) rotate(0) translate(4 990)">
<polygon fill="white" stroke="none" points="-4,4 -4,-990 1296.76,-990 1296.76,4 -4,4"/>
<g id="clust2" class="cluster">
<title>clusterLeaves</title>
<polygon fill="none" stroke="black" points="1066.76,-8 1066.76,-978 1284.76,-978 1284.76,-8 1066.76,-8"/>
</g>
<!-- bernard&#45;arnault&#45;42 -->
<g id="node1" class="node">
<title>bernard&#45;arnault&#45;42</title>
<polygon fill="none" stroke="black" points="118,-360 0,-360 0,-324 118,-324 118,-360"/>
<text text-anchor="middle" x="59" y="-338.07" font-family="Times,serif" font-size="14.00">🧑‍💼Bernard Arnault</text>
</g>
<!-- agache&#45;sca&#45;348 -->
<g id="node2" class="node">
<title>agache&#45;sca&#45;348</title>
<polygon fill="none" stroke="black" points="381.44,-347.56 307.85,-360 234.25,-347.56 234.32,-327.44 381.37,-327.44 381.44,-347.56"/>
<text text-anchor="middle" x="307.85" y="-336.95" font-family="Times,serif" font-size="14.00">Agache SCA</text>
</g>
<!-- bernard&#45;arnault&#45;42&#45;&gt;agache&#45;sca&#45;348 -->
<g id="edge1" class="edge">
<title>bernard&#45;arnault&#45;42&#45;&gt;agache&#45;sca&#45;348</title>
<path fill="none" stroke="black" d="M118.5,-342C149.76,-342 188.79,-342 223.2,-342"/>
<polygon fill="black" stroke="black" points="223.19,-345.5 233.19,-342 223.19,-338.5 223.19,-345.5"/>
<text text-anchor="middle" x="176.12" y="-345.2" font-family="Times,serif" font-size="14.00">contrôle 100%</text>
</g>
<!-- lvmh&#45;43 -->
<g id="node3" class="node">
<title>lvmh&#45;43</title>
<polygon fill="none" stroke="black" points="614.49,-443.56 566.83,-456 519.18,-443.56 519.22,-423.44 614.45,-423.44 614.49,-443.56"/>
<text text-anchor="middle" x="566.83" y="-432.95" font-family="Times,serif" font-size="14.00">LVMH</text>
</g>
<!-- agache&#45;sca&#45;348&#45;&gt;lvmh&#45;43 -->
<g id="edge2" class="edge">
<title>agache&#45;sca&#45;348&#45;&gt;lvmh&#45;43</title>
<path fill="none" stroke="black" d="M342.44,-354.55C386.61,-371.05 464.58,-400.17 515.73,-419.28"/>
<polygon fill="black" stroke="black" points="514.3,-422.86 524.9,-423.08 516.75,-416.3 514.3,-422.86"/>
<text text-anchor="middle" x="435.44" y="-404.2" font-family="Times,serif" font-size="14.00">possède 48%</text>
</g>
<!-- lagardere&#45;sa&#45;69 -->
<g id="node7" class="node">
<title>lagardere&#45;sa&#45;69</title>
<polygon fill="none" stroke="black" points="644.23,-320.56 566.83,-333 489.44,-320.56 489.51,-300.44 644.15,-300.44 644.23,-320.56"/>
<text text-anchor="middle" x="566.83" y="-309.95" font-family="Times,serif" font-size="14.00">Lagardère SA</text>
</g>
<!-- agache&#45;sca&#45;348&#45;&gt;lagardere&#45;sa&#45;69 -->
<g id="edge19" class="edge">
<title>agache&#45;sca&#45;348&#45;&gt;lagardere&#45;sa&#45;69</title>
<path fill="none" stroke="black" d="M381.44,-328.92C387.52,-328.03 393.58,-327.2 399.44,-326.5 424.98,-323.44 452.82,-321.12 478.3,-319.39"/>
<polygon fill="black" stroke="black" points="478.31,-322.84 488.06,-318.69 477.85,-315.85 478.31,-322.84"/>
<text text-anchor="middle" x="435.44" y="-329.2" font-family="Times,serif" font-size="14.00">possède 7%</text>
</g>
<!-- groupe&#45;perdriel&#45;3 -->
<g id="node4" class="node">
<title>groupe&#45;perdriel&#45;3</title>
<polygon fill="none" stroke="black" points="948.62,-903.56 861.74,-916 774.86,-903.56 774.94,-883.44 948.54,-883.44 948.62,-903.56"/>
<text text-anchor="middle" x="861.74" y="-892.95" font-family="Times,serif" font-size="14.00">Groupe Perdriel</text>
</g>
<!-- lvmh&#45;43&#45;&gt;groupe&#45;perdriel&#45;3 -->
<g id="edge3" class="edge">
<title>lvmh&#45;43&#45;&gt;groupe&#45;perdriel&#45;3</title>
<path fill="none" stroke="black" d="M575.23,-453.8C590.32,-485.6 626.27,-559.33 662.23,-618 722.8,-716.83 805.95,-827.14 842.38,-874.42"/>
<polygon fill="black" stroke="black" points="840.14,-876.24 849.02,-882.01 845.68,-871.96 840.14,-876.24"/>
<text text-anchor="middle" x="703.85" y="-738.2" font-family="Times,serif" font-size="14.00">possède 40%</text>
</g>
<!-- groupe&#45;les&#45;echos&#45;48 -->
<g id="node5" class="node">
<title>groupe&#45;les&#45;echos&#45;48</title>
<polygon fill="none" stroke="black" points="960.01,-713.56 861.74,-726 763.48,-713.56 763.57,-693.44 959.92,-693.44 960.01,-713.56"/>
<text text-anchor="middle" x="861.74" y="-702.95" font-family="Times,serif" font-size="14.00">Groupe Les Échos</text>
</g>
<!-- lvmh&#45;43&#45;&gt;groupe&#45;les&#45;echos&#45;48 -->
<g id="edge7" class="edge">
<title>lvmh&#45;43&#45;&gt;groupe&#45;les&#45;echos&#45;48</title>
<path fill="none" stroke="black" d="M583.17,-452.14C631.08,-496.3 778.21,-631.92 836.55,-685.7"/>
<polygon fill="black" stroke="black" points="833.76,-687.81 843.49,-692.02 838.51,-682.67 833.76,-687.81"/>
<text text-anchor="middle" x="703.85" y="-600.2" font-family="Times,serif" font-size="14.00">possède 100%</text>
</g>
<!-- groupe&#45;l&#45;opinion&#45;325 -->
<g id="node6" class="node">
<title>groupe&#45;l&#45;opinion&#45;325</title>
<polygon fill="none" stroke="black" points="960.01,-525.56 861.74,-538 763.48,-525.56 763.57,-505.44 959.92,-505.44 960.01,-525.56"/>
<text text-anchor="middle" x="861.74" y="-514.95" font-family="Times,serif" font-size="14.00">Groupe L’Opinion</text>
</g>
<!-- lvmh&#45;43&#45;&gt;groupe&#45;l&#45;opinion&#45;325 -->
<g id="edge13" class="edge">
<title>lvmh&#45;43&#45;&gt;groupe&#45;l&#45;opinion&#45;325</title>
<path fill="none" stroke="black" d="M591.37,-449.84C610.15,-458.9 637.36,-471.12 662.23,-479 692.82,-488.69 726.81,-496.68 757.89,-502.95"/>
<polygon fill="black" stroke="black" points="756.82,-506.5 767.31,-505.01 758.18,-499.64 756.82,-506.5"/>
<text text-anchor="middle" x="703.85" y="-502.2" font-family="Times,serif" font-size="14.00">participe 100%</text>
</g>
<!-- aujourd&#45;hui&#45;en&#45;france&#45;47 -->
<g id="node11" class="node">
<title>aujourd&#45;hui&#45;en&#45;france&#45;47</title>
<ellipse fill="none" stroke="black" cx="1175.76" cy="-466" rx="95.37" ry="18"/>
<text text-anchor="middle" x="1175.76" y="-460.95" font-family="Times,serif" font-size="14.00">Aujourd’hui en France</text>
</g>
<!-- lvmh&#45;43&#45;&gt;aujourd&#45;hui&#45;en&#45;france&#45;47 -->
<g id="edge6" class="edge">
<title>lvmh&#45;43&#45;&gt;aujourd&#45;hui&#45;en&#45;france&#45;47</title>
<path fill="none" stroke="black" d="M614.88,-440.57C630,-441.37 646.82,-442.25 662.23,-443 804,-449.94 967.88,-457.15 1071.4,-461.61"/>
<polygon fill="black" stroke="black" points="1071.02,-465.14 1081.16,-462.07 1071.32,-458.14 1071.02,-465.14"/>
<text text-anchor="middle" x="861.74" y="-459.2" font-family="Times,serif" font-size="14.00">possède 100%</text>
</g>
<!-- le&#45;parisien&#45;44 -->
<g id="node19" class="node">
<title>le&#45;parisien&#45;44</title>
<ellipse fill="none" stroke="black" cx="1175.76" cy="-412" rx="52.89" ry="18"/>
<text text-anchor="middle" x="1175.76" y="-406.95" font-family="Times,serif" font-size="14.00">Le Parisien</text>
</g>
<!-- lvmh&#45;43&#45;&gt;le&#45;parisien&#45;44 -->
<g id="edge16" class="edge">
<title>lvmh&#45;43&#45;&gt;le&#45;parisien&#45;44</title>
<path fill="none" stroke="black" d="M614.86,-434.93C654.48,-432.41 712.67,-428.89 763.48,-426.5 886.85,-420.7 1031.14,-416.12 1111.85,-413.76"/>
<polygon fill="black" stroke="black" points="1111.91,-417.23 1121.8,-413.44 1111.71,-410.23 1111.91,-417.23"/>
<text text-anchor="middle" x="861.74" y="-429.2" font-family="Times,serif" font-size="14.00">possède 100%</text>
</g>
<!-- le&#45;parisien&#45;economie&#45;46 -->
<g id="node20" class="node">
<title>le&#45;parisien&#45;economie&#45;46</title>
<ellipse fill="none" stroke="black" cx="1175.76" cy="-358" rx="91.78" ry="18"/>
<text text-anchor="middle" x="1175.76" y="-352.95" font-family="Times,serif" font-size="14.00">Le Parisien économie</text>
</g>
<!-- lvmh&#45;43&#45;&gt;le&#45;parisien&#45;economie&#45;46 -->
<g id="edge17" class="edge">
<title>lvmh&#45;43&#45;&gt;le&#45;parisien&#45;economie&#45;46</title>
<path fill="none" stroke="black" d="M614.62,-426.83C654.09,-417.76 712.2,-405.25 763.48,-397.5 870.32,-381.36 993.84,-370.54 1077.41,-364.36"/>
<polygon fill="black" stroke="black" points="1077.45,-367.8 1087.17,-363.58 1076.94,-360.81 1077.45,-367.8"/>
<text text-anchor="middle" x="861.74" y="-400.2" font-family="Times,serif" font-size="14.00">possède 100%</text>
</g>
<!-- le&#45;parisien&#45;week&#45;end&#45;45 -->
<g id="node21" class="node">
<title>le&#45;parisien&#45;week&#45;end&#45;45</title>
<ellipse fill="none" stroke="black" cx="1175.76" cy="-304" rx="94.34" ry="18"/>
<text text-anchor="middle" x="1175.76" y="-298.95" font-family="Times,serif" font-size="14.00">Le Parisien Week&#45;End</text>
</g>
<!-- lvmh&#45;43&#45;&gt;le&#45;parisien&#45;week&#45;end&#45;45 -->
<g id="edge18" class="edge">
<title>lvmh&#45;43&#45;&gt;le&#45;parisien&#45;week&#45;end&#45;45</title>
<path fill="none" stroke="black" d="M600.96,-423.06C619.03,-414.96 641.81,-404.83 662.23,-396 707.02,-376.63 716.29,-365.98 763.48,-353.5 866.55,-326.23 988.17,-313.95 1072.29,-308.43"/>
<polygon fill="black" stroke="black" points="1072.38,-311.87 1082.13,-307.75 1071.93,-304.89 1072.38,-311.87"/>
<text text-anchor="middle" x="861.74" y="-356.2" font-family="Times,serif" font-size="14.00">possède 100%</text>
</g>
<!-- challenges&#45;6 -->
<g id="node9" class="node">
<title>challenges&#45;6</title>
<ellipse fill="none" stroke="black" cx="1175.76" cy="-952" rx="51.86" ry="18"/>
<text text-anchor="middle" x="1175.76" y="-946.95" font-family="Times,serif" font-size="14.00">Challenges</text>
</g>
<!-- groupe&#45;perdriel&#45;3&#45;&gt;challenges&#45;6 -->
<g id="edge4" class="edge">
<title>groupe&#45;perdriel&#45;3&#45;&gt;challenges&#45;6</title>
<path fill="none" stroke="black" d="M918.41,-908.3C937.32,-911.76 958.58,-915.6 978.01,-919 1024.94,-927.21 1078.25,-936.13 1117.53,-942.62"/>
<polygon fill="black" stroke="black" points="1116.78,-946.21 1127.22,-944.38 1117.92,-939.3 1116.78,-946.21"/>
<text text-anchor="middle" x="1017.39" y="-934.2" font-family="Times,serif" font-size="14.00">possède 100%</text>
</g>
<!-- sciences&#45;and&#45;avenir&#45;7 -->
<g id="node10" class="node">
<title>sciences&#45;and&#45;avenir&#45;7</title>
<ellipse fill="none" stroke="black" cx="1175.76" cy="-898" rx="80.52" ry="18"/>
<text text-anchor="middle" x="1175.76" y="-892.95" font-family="Times,serif" font-size="14.00">Sciences &amp; Avenir</text>
</g>
<!-- groupe&#45;perdriel&#45;3&#45;&gt;sciences&#45;and&#45;avenir&#45;7 -->
<g id="edge5" class="edge">
<title>groupe&#45;perdriel&#45;3&#45;&gt;sciences&#45;and&#45;avenir&#45;7</title>
<path fill="none" stroke="black" d="M948.83,-898C990.81,-898 1041.31,-898 1083.91,-898"/>
<polygon fill="black" stroke="black" points="1083.84,-901.5 1093.84,-898 1083.84,-894.5 1083.84,-901.5"/>
<text text-anchor="middle" x="1017.39" y="-901.2" font-family="Times,serif" font-size="14.00">possède 100%</text>
</g>
<!-- investir&#45;50 -->
<g id="node12" class="node">
<title>investir&#45;50</title>
<ellipse fill="none" stroke="black" cx="1175.76" cy="-844" rx="39.07" ry="18"/>
<text text-anchor="middle" x="1175.76" y="-838.95" font-family="Times,serif" font-size="14.00">Investir</text>
</g>
<!-- groupe&#45;les&#45;echos&#45;48&#45;&gt;investir&#45;50 -->
<g id="edge8" class="edge">
<title>groupe&#45;les&#45;echos&#45;48&#45;&gt;investir&#45;50</title>
<path fill="none" stroke="black" d="M883.05,-723.79C905.38,-740.62 942.78,-767.21 978.01,-785 1015.44,-803.9 1026.65,-804.79 1066.76,-817 1087.1,-823.19 1109.91,-829.05 1129.3,-833.72"/>
<polygon fill="black" stroke="black" points="1128.44,-837.35 1138.98,-836.25 1130.06,-830.54 1128.44,-837.35"/>
<text text-anchor="middle" x="1017.39" y="-816.2" font-family="Times,serif" font-size="14.00">possède 100%</text>
</g>
<!-- investir&#45;magazine&#45;51 -->
<g id="node13" class="node">
<title>investir&#45;magazine&#45;51</title>
<ellipse fill="none" stroke="black" cx="1175.76" cy="-790" rx="78.48" ry="18"/>
<text text-anchor="middle" x="1175.76" y="-784.95" font-family="Times,serif" font-size="14.00">Investir Magazine</text>
</g>
<!-- groupe&#45;les&#45;echos&#45;48&#45;&gt;investir&#45;magazine&#45;51 -->
<g id="edge9" class="edge">
<title>groupe&#45;les&#45;echos&#45;48&#45;&gt;investir&#45;magazine&#45;51</title>
<path fill="none" stroke="black" d="M900.62,-721.53C922.97,-729.25 951.91,-738.8 978.01,-746 1019.65,-757.49 1066.86,-768.12 1104.59,-776.06"/>
<polygon fill="black" stroke="black" points="1103.47,-779.61 1113.97,-778.23 1104.9,-772.76 1103.47,-779.61"/>
<text text-anchor="middle" x="1017.39" y="-767.2" font-family="Times,serif" font-size="14.00">possède 100%</text>
</g>
<!-- les&#45;echos&#45;49 -->
<g id="node14" class="node">
<title>les&#45;echos&#45;49</title>
<ellipse fill="none" stroke="black" cx="1175.76" cy="-736" rx="49.3" ry="18"/>
<text text-anchor="middle" x="1175.76" y="-730.95" font-family="Times,serif" font-size="14.00">Les Échos</text>
</g>
<!-- groupe&#45;les&#45;echos&#45;48&#45;&gt;les&#45;echos&#45;49 -->
<g id="edge10" class="edge">
<title>groupe&#45;les&#45;echos&#45;48&#45;&gt;les&#45;echos&#45;49</title>
<path fill="none" stroke="black" d="M947.59,-715.61C1001.33,-720.44 1069.41,-726.55 1116.97,-730.81"/>
<polygon fill="black" stroke="black" points="1116.42,-734.37 1126.69,-731.78 1117.04,-727.4 1116.42,-734.37"/>
<text text-anchor="middle" x="1017.39" y="-728.2" font-family="Times,serif" font-size="14.00">possède 100%</text>
</g>
<!-- les&#45;echos&#45;week&#45;end&#45;52 -->
<g id="node15" class="node">
<title>les&#45;echos&#45;week&#45;end&#45;52</title>
<ellipse fill="none" stroke="black" cx="1175.76" cy="-682" rx="90.76" ry="18"/>
<text text-anchor="middle" x="1175.76" y="-676.95" font-family="Times,serif" font-size="14.00">Les Échos Week&#45;End</text>
</g>
<!-- groupe&#45;les&#45;echos&#45;48&#45;&gt;les&#45;echos&#45;week&#45;end&#45;52 -->
<g id="edge11" class="edge">
<title>groupe&#45;les&#45;echos&#45;48&#45;&gt;les&#45;echos&#45;week&#45;end&#45;52</title>
<path fill="none" stroke="black" d="M956.06,-692.96C963.48,-692.03 970.86,-691.2 978.01,-690.5 1009.21,-687.47 1043.3,-685.52 1074.21,-684.26"/>
<polygon fill="black" stroke="black" points="1074.14,-687.73 1084,-683.85 1073.87,-680.73 1074.14,-687.73"/>
<text text-anchor="middle" x="1017.39" y="-693.2" font-family="Times,serif" font-size="14.00">possède 100%</text>
</g>
<!-- radio&#45;classique&#45;53 -->
<g id="node16" class="node">
<title>radio&#45;classique&#45;53</title>
<ellipse fill="none" stroke="black" cx="1175.76" cy="-628" rx="71.31" ry="18"/>
<text text-anchor="middle" x="1175.76" y="-622.95" font-family="Times,serif" font-size="14.00">Radio Classique</text>
</g>
<!-- groupe&#45;les&#45;echos&#45;48&#45;&gt;radio&#45;classique&#45;53 -->
<g id="edge12" class="edge">
<title>groupe&#45;les&#45;echos&#45;48&#45;&gt;radio&#45;classique&#45;53</title>
<path fill="none" stroke="black" d="M897.52,-693.03C920.12,-683.76 950.41,-672.2 978.01,-664.5 1018.37,-653.24 1064.36,-644.49 1101.73,-638.38"/>
<polygon fill="black" stroke="black" points="1102.21,-641.69 1111.53,-636.65 1101.1,-634.78 1102.21,-641.69"/>
<text text-anchor="middle" x="1017.39" y="-667.2" font-family="Times,serif" font-size="14.00">possède 100%</text>
</g>
<!-- l&#45;agefi&#45;hebdo&#45;101 -->
<g id="node17" class="node">
<title>l&#45;agefi&#45;hebdo&#45;101</title>
<ellipse fill="none" stroke="black" cx="1175.76" cy="-574" rx="65.17" ry="18"/>
<text text-anchor="middle" x="1175.76" y="-568.95" font-family="Times,serif" font-size="14.00">L’Agefi hebdo</text>
</g>
<!-- groupe&#45;l&#45;opinion&#45;325&#45;&gt;l&#45;agefi&#45;hebdo&#45;101 -->
<g id="edge14" class="edge">
<title>groupe&#45;l&#45;opinion&#45;325&#45;&gt;l&#45;agefi&#45;hebdo&#45;101</title>
<path fill="none" stroke="black" d="M921.65,-530.9C939.72,-534.2 959.68,-537.79 978.01,-541 1021.36,-548.58 1070.14,-556.77 1108.29,-563.09"/>
<polygon fill="black" stroke="black" points="1107.31,-566.64 1117.75,-564.82 1108.46,-559.73 1107.31,-566.64"/>
<text text-anchor="middle" x="1017.39" y="-556.2" font-family="Times,serif" font-size="14.00">possède 100%</text>
</g>
<!-- l&#45;opinion&#45;8 -->
<g id="node18" class="node">
<title>l&#45;opinion&#45;8</title>
<ellipse fill="none" stroke="black" cx="1175.76" cy="-520" rx="49.3" ry="18"/>
<text text-anchor="middle" x="1175.76" y="-514.95" font-family="Times,serif" font-size="14.00">L’Opinion</text>
</g>
<!-- groupe&#45;l&#45;opinion&#45;325&#45;&gt;l&#45;opinion&#45;8 -->
<g id="edge15" class="edge">
<title>groupe&#45;l&#45;opinion&#45;325&#45;&gt;l&#45;opinion&#45;8</title>
<path fill="none" stroke="black" d="M960.18,-520C1011.12,-520 1071.8,-520 1115.61,-520"/>
<polygon fill="black" stroke="black" points="1115.37,-523.5 1125.37,-520 1115.37,-516.5 1115.37,-523.5"/>
<text text-anchor="middle" x="1017.39" y="-523.2" font-family="Times,serif" font-size="14.00">possède 100%</text>
</g>
<!-- lagardere&#45;news&#45;70 -->
<g id="node8" class="node">
<title>lagardere&#45;news&#45;70</title>
<polygon fill="none" stroke="black" points="950.52,-171.56 861.74,-184 772.96,-171.56 773.05,-151.44 950.44,-151.44 950.52,-171.56"/>
<text text-anchor="middle" x="861.74" y="-160.95" font-family="Times,serif" font-size="14.00">Lagardère News</text>
</g>
<!-- lagardere&#45;sa&#45;69&#45;&gt;lagardere&#45;news&#45;70 -->
<g id="edge20" class="edge">
<title>lagardere&#45;sa&#45;69&#45;&gt;lagardere&#45;news&#45;70</title>
<path fill="none" stroke="black" d="M597.26,-300.03C650.74,-272.82 763.82,-215.3 822.93,-185.23"/>
<polygon fill="black" stroke="black" points="824.3,-187.95 831.63,-180.3 821.13,-181.72 824.3,-187.95"/>
<text text-anchor="middle" x="703.85" y="-269.2" font-family="Times,serif" font-size="14.00">possède 100%</text>
</g>
<!-- europe&#45;1&#45;74 -->
<g id="node22" class="node">
<title>europe&#45;1&#45;74</title>
<ellipse fill="none" stroke="black" cx="1175.76" cy="-250" rx="44.7" ry="18"/>
<text text-anchor="middle" x="1175.76" y="-244.95" font-family="Times,serif" font-size="14.00">Europe 1</text>
</g>
<!-- lagardere&#45;news&#45;70&#45;&gt;europe&#45;1&#45;74 -->
<g id="edge21" class="edge">
<title>lagardere&#45;news&#45;70&#45;&gt;europe&#45;1&#45;74</title>
<path fill="none" stroke="black" d="M898.79,-179.25C921.37,-187.28 951.18,-197.41 978.01,-205 1027.28,-218.93 1084.39,-231.62 1124.35,-239.94"/>
<polygon fill="black" stroke="black" points="1123.39,-243.52 1133.89,-242.12 1124.81,-236.67 1123.39,-243.52"/>
<text text-anchor="middle" x="1017.39" y="-227.2" font-family="Times,serif" font-size="14.00">possède 100%</text>
</g>
<!-- le&#45;journal&#45;du&#45;dimanche&#45;71 -->
<g id="node23" class="node">
<title>le&#45;journal&#45;du&#45;dimanche&#45;71</title>
<ellipse fill="none" stroke="black" cx="1175.76" cy="-196" rx="101" ry="18"/>
<text text-anchor="middle" x="1175.76" y="-190.95" font-family="Times,serif" font-size="14.00">Le Journal du dimanche</text>
</g>
<!-- lagardere&#45;news&#45;70&#45;&gt;le&#45;journal&#45;du&#45;dimanche&#45;71 -->
<g id="edge22" class="edge">
<title>lagardere&#45;news&#45;70&#45;&gt;le&#45;journal&#45;du&#45;dimanche&#45;71</title>
<path fill="none" stroke="black" d="M940.27,-173.45C981.04,-177.37 1031.47,-182.22 1075.1,-186.42"/>
<polygon fill="black" stroke="black" points="1074.75,-190 1085.04,-187.47 1075.42,-183.03 1074.75,-190"/>
<text text-anchor="middle" x="1017.39" y="-187.2" font-family="Times,serif" font-size="14.00">possède 100%</text>
</g>
<!-- paris&#45;match&#45;72 -->
<g id="node24" class="node">
<title>paris&#45;match&#45;72</title>
<ellipse fill="none" stroke="black" cx="1175.76" cy="-142" rx="55.96" ry="18"/>
<text text-anchor="middle" x="1175.76" y="-136.95" font-family="Times,serif" font-size="14.00">Paris Match</text>
</g>
<!-- lagardere&#45;news&#45;70&#45;&gt;paris&#45;match&#45;72 -->
<g id="edge23" class="edge">
<title>lagardere&#45;news&#45;70&#45;&gt;paris&#45;match&#45;72</title>
<path fill="none" stroke="black" d="M950.76,-153.33C959.95,-152.26 969.16,-151.28 978.01,-150.5 1021.41,-146.65 1070.35,-144.53 1108.56,-143.37"/>
<polygon fill="black" stroke="black" points="1108.65,-146.84 1118.55,-143.05 1108.45,-139.84 1108.65,-146.84"/>
<text text-anchor="middle" x="1017.39" y="-153.2" font-family="Times,serif" font-size="14.00">possède 100%</text>
</g>
<!-- rfm&#45;75 -->
<g id="node25" class="node">
<title>rfm&#45;75</title>
<ellipse fill="none" stroke="black" cx="1175.76" cy="-88" rx="30.88" ry="18"/>
<text text-anchor="middle" x="1175.76" y="-82.95" font-family="Times,serif" font-size="14.00">RFM</text>
</g>
<!-- lagardere&#45;news&#45;70&#45;&gt;rfm&#45;75 -->
<g id="edge24" class="edge">
<title>lagardere&#45;news&#45;70&#45;&gt;rfm&#45;75</title>
<path fill="none" stroke="black" d="M899.63,-150.99C922.02,-142.32 951.32,-131.73 978.01,-124.5 1031.5,-110.01 1094.71,-99.41 1134.77,-93.47"/>
<polygon fill="black" stroke="black" points="1135.03,-96.83 1144.42,-91.92 1134.03,-89.9 1135.03,-96.83"/>
<text text-anchor="middle" x="1017.39" y="-127.2" font-family="Times,serif" font-size="14.00">possède 100%</text>
</g>
<!-- virgin&#45;radio&#45;76 -->
<g id="node26" class="node">
<title>virgin&#45;radio&#45;76</title>
<ellipse fill="none" stroke="black" cx="1175.76" cy="-34" rx="59.54" ry="18"/>
<text text-anchor="middle" x="1175.76" y="-28.95" font-family="Times,serif" font-size="14.00">Virgin Radio</text>
</g>
<!-- lagardere&#45;news&#45;70&#45;&gt;virgin&#45;radio&#45;76 -->
<g id="edge25" class="edge">
<title>lagardere&#45;news&#45;70&#45;&gt;virgin&#45;radio&#45;76</title>
<path fill="none" stroke="black" d="M880.38,-151.09C902.08,-133.43 940.65,-104.17 978.01,-86.5 1020.75,-66.29 1072.53,-52.86 1112.24,-44.65"/>
<polygon fill="black" stroke="black" points="1112.73,-47.93 1121.84,-42.53 1111.35,-41.06 1112.73,-47.93"/>
<text text-anchor="middle" x="1017.39" y="-89.2" font-family="Times,serif" font-size="14.00">possède 100%</text>
</g>
</g>
</svg>
