<?xml version="1.0" encoding="UTF-8" standalone="no"?>
<!DOCTYPE svg PUBLIC "-//W3C//DTD SVG 1.1//EN"
 "http://www.w3.org/Graphics/SVG/1.1/DTD/svg11.dtd">
<!-- Generated by graphviz version 7.1.0 (20230121.1956)
 -->
<!-- Pages: 1 -->
<svg width="1033pt" height="778pt"
 viewBox="0.00 0.00 1033.05 778.00" xmlns="http://www.w3.org/2000/svg" xmlns:xlink="http://www.w3.org/1999/xlink">
<g id="graph0" class="graph" transform="scale(1 1) rotate(0) translate(4 774)">
<polygon fill="white" stroke="none" points="-4,4 -4,-774 1029.05,-774 1029.05,4 -4,4"/>
<g id="clust2" class="cluster">
<title>clusterLeaves</title>
<polygon fill="none" stroke="black" points="734.57,-8 734.57,-762 1017.05,-762 1017.05,-8 734.57,-8"/>
</g>
<!-- bernard&#45;arnault&#45;42 -->
<g id="node1" class="node">
<title>bernard&#45;arnault&#45;42</title>
<polygon fill="none" stroke="black" points="119,-72 0,-72 0,-36 119,-36 119,-72"/>
<text text-anchor="middle" x="59.5" y="-50.3" font-family="Times,serif" font-size="14.00">🧑‍💼Bernard Arnault</text>
</g>
<!-- lvmh&#45;43 -->
<g id="node2" class="node">
<title>lvmh&#45;43</title>
<polygon fill="none" stroke="black" points="319.38,-228.56 273.79,-241 228.21,-228.56 228.25,-208.44 319.34,-208.44 319.38,-228.56"/>
<text text-anchor="middle" x="273.79" y="-219.3" font-family="Times,serif" font-size="14.00">LVMH</text>
</g>
<!-- bernard&#45;arnault&#45;42&#45;&gt;lvmh&#45;43 -->
<g id="edge1" class="edge">
<title>bernard&#45;arnault&#45;42&#45;&gt;lvmh&#45;43</title>
<path fill="none" stroke="black" d="M83.62,-72.41C122.99,-103.74 202.85,-167.32 245.12,-200.97"/>
<polygon fill="black" stroke="black" points="242.84,-203.63 252.84,-207.12 247.2,-198.15 242.84,-203.63"/>
<text text-anchor="middle" x="173.5" y="-172.8" font-family="Times,serif" font-size="14.00">possède 46%</text>
</g>
<!-- lagardere&#45;capital&#45;and&#45;management&#45;331 -->
<g id="node19" class="node">
<title>lagardere&#45;capital&#45;and&#45;management&#45;331</title>
<ellipse fill="none" stroke="black" cx="875.81" cy="-34" rx="133.48" ry="18"/>
<text text-anchor="middle" x="875.81" y="-30.3" font-family="Times,serif" font-size="14.00">Lagardère Capital &amp; Management</text>
</g>
<!-- bernard&#45;arnault&#45;42&#45;&gt;lagardere&#45;capital&#45;and&#45;management&#45;331 -->
<g id="edge18" class="edge">
<title>bernard&#45;arnault&#45;42&#45;&gt;lagardere&#45;capital&#45;and&#45;management&#45;331</title>
<path fill="none" stroke="black" d="M119.39,-52.55C246.9,-49.42 551.59,-41.94 732.66,-37.49"/>
<polygon fill="black" stroke="black" points="732.71,-40.99 742.62,-37.25 732.54,-33.99 732.71,-40.99"/>
<text text-anchor="middle" x="379.58" y="-51.8" font-family="Times,serif" font-size="14.00">possède 27%</text>
</g>
<!-- groupe&#45;perdriel&#45;3 -->
<g id="node3" class="node">
<title>groupe&#45;perdriel&#45;3</title>
<polygon fill="none" stroke="black" points="617.18,-687.56 533.58,-700 449.98,-687.56 450.06,-667.44 617.1,-667.44 617.18,-687.56"/>
<text text-anchor="middle" x="533.58" y="-678.3" font-family="Times,serif" font-size="14.00">Groupe Perdriel</text>
</g>
<!-- lvmh&#45;43&#45;&gt;groupe&#45;perdriel&#45;3 -->
<g id="edge2" class="edge">
<title>lvmh&#45;43&#45;&gt;groupe&#45;perdriel&#45;3</title>
<path fill="none" stroke="black" d="M278.78,-239.99C287.01,-273.38 307.62,-349.42 337.58,-408 388.83,-508.18 473.43,-612.81 512.12,-658.42"/>
<polygon fill="black" stroke="black" points="509.3,-660.5 518.46,-665.83 514.62,-655.95 509.3,-660.5"/>
<text text-anchor="middle" x="379.58" y="-543.8" font-family="Times,serif" font-size="14.00">possède 40%</text>
</g>
<!-- groupe&#45;les&#45;echos&#45;48 -->
<g id="node4" class="node">
<title>groupe&#45;les&#45;echos&#45;48</title>
<polygon fill="none" stroke="black" points="627.57,-494.56 533.58,-507 439.59,-494.56 439.68,-474.44 627.48,-474.44 627.57,-494.56"/>
<text text-anchor="middle" x="533.58" y="-485.3" font-family="Times,serif" font-size="14.00">Groupe Les Échos</text>
</g>
<!-- lvmh&#45;43&#45;&gt;groupe&#45;les&#45;echos&#45;48 -->
<g id="edge6" class="edge">
<title>lvmh&#45;43&#45;&gt;groupe&#45;les&#45;echos&#45;48</title>
<path fill="none" stroke="black" d="M285.18,-238.29C297.08,-255.42 317.53,-283.7 337.58,-306 393.48,-368.16 467.22,-433.41 506.04,-466.66"/>
<polygon fill="black" stroke="black" points="503.65,-469.21 513.53,-473.03 508.19,-463.88 503.65,-469.21"/>
<text text-anchor="middle" x="379.58" y="-392.8" font-family="Times,serif" font-size="14.00">possède 100%</text>
</g>
<!-- groupe&#45;l&#45;opinion&#45;325 -->
<g id="node5" class="node">
<title>groupe&#45;l&#45;opinion&#45;325</title>
<polygon fill="none" stroke="black" points="627.57,-309.56 533.58,-322 439.59,-309.56 439.68,-289.44 627.48,-289.44 627.57,-309.56"/>
<text text-anchor="middle" x="533.58" y="-300.3" font-family="Times,serif" font-size="14.00">Groupe L’Opinion</text>
</g>
<!-- lvmh&#45;43&#45;&gt;groupe&#45;l&#45;opinion&#45;325 -->
<g id="edge12" class="edge">
<title>lvmh&#45;43&#45;&gt;groupe&#45;l&#45;opinion&#45;325</title>
<path fill="none" stroke="black" d="M291.99,-236.37C304.11,-245.17 321.07,-256.26 337.58,-263 366.11,-274.63 398.39,-283.14 428.36,-289.28"/>
<polygon fill="black" stroke="black" points="427.31,-292.64 437.8,-291.14 428.67,-285.77 427.31,-292.64"/>
<text text-anchor="middle" x="379.58" y="-290.8" font-family="Times,serif" font-size="14.00">participe 100%</text>
</g>
<!-- aujourd&#45;hui&#45;en&#45;france&#45;47 -->
<g id="node8" class="node">
<title>aujourd&#45;hui&#45;en&#45;france&#45;47</title>
<ellipse fill="none" stroke="black" cx="875.81" cy="-250" rx="90.98" ry="18"/>
<text text-anchor="middle" x="875.81" y="-246.3" font-family="Times,serif" font-size="14.00">Aujourd’hui en France</text>
</g>
<!-- lvmh&#45;43&#45;&gt;aujourd&#45;hui&#45;en&#45;france&#45;47 -->
<g id="edge5" class="edge">
<title>lvmh&#45;43&#45;&gt;aujourd&#45;hui&#45;en&#45;france&#45;47</title>
<path fill="none" stroke="black" d="M319.4,-225.01C415.33,-229.32 643.22,-239.58 775.36,-245.52"/>
<polygon fill="black" stroke="black" points="775,-249.01 785.15,-245.97 775.32,-242.02 775,-249.01"/>
<text text-anchor="middle" x="533.58" y="-241.8" font-family="Times,serif" font-size="14.00">possède 100%</text>
</g>
<!-- le&#45;parisien&#45;44 -->
<g id="node16" class="node">
<title>le&#45;parisien&#45;44</title>
<ellipse fill="none" stroke="black" cx="875.81" cy="-196" rx="50.89" ry="18"/>
<text text-anchor="middle" x="875.81" y="-192.3" font-family="Times,serif" font-size="14.00">Le Parisien</text>
</g>
<!-- lvmh&#45;43&#45;&gt;le&#45;parisien&#45;44 -->
<g id="edge15" class="edge">
<title>lvmh&#45;43&#45;&gt;le&#45;parisien&#45;44</title>
<path fill="none" stroke="black" d="M319.53,-219.28C352.66,-216.63 398.91,-213.18 439.58,-211 572.62,-203.87 728.72,-199.45 813.1,-197.38"/>
<polygon fill="black" stroke="black" points="813.1,-200.89 823.01,-197.15 812.93,-193.89 813.1,-200.89"/>
<text text-anchor="middle" x="533.58" y="-214.8" font-family="Times,serif" font-size="14.00">possède 100%</text>
</g>
<!-- le&#45;parisien&#45;economie&#45;46 -->
<g id="node17" class="node">
<title>le&#45;parisien&#45;economie&#45;46</title>
<ellipse fill="none" stroke="black" cx="875.81" cy="-142" rx="87.99" ry="18"/>
<text text-anchor="middle" x="875.81" y="-138.3" font-family="Times,serif" font-size="14.00">Le Parisien économie</text>
</g>
<!-- lvmh&#45;43&#45;&gt;le&#45;parisien&#45;economie&#45;46 -->
<g id="edge16" class="edge">
<title>lvmh&#45;43&#45;&gt;le&#45;parisien&#45;economie&#45;46</title>
<path fill="none" stroke="black" d="M319.54,-210.28C352.49,-201.38 398.5,-189.88 439.58,-183 555.39,-163.59 690.19,-152.67 778.73,-147.06"/>
<polygon fill="black" stroke="black" points="778.82,-150.56 788.58,-146.45 778.39,-143.58 778.82,-150.56"/>
<text text-anchor="middle" x="533.58" y="-186.8" font-family="Times,serif" font-size="14.00">possède 100%</text>
</g>
<!-- le&#45;parisien&#45;week&#45;end&#45;45 -->
<g id="node18" class="node">
<title>le&#45;parisien&#45;week&#45;end&#45;45</title>
<ellipse fill="none" stroke="black" cx="875.81" cy="-88" rx="90.18" ry="18"/>
<text text-anchor="middle" x="875.81" y="-84.3" font-family="Times,serif" font-size="14.00">Le Parisien Week&#45;End</text>
</g>
<!-- lvmh&#45;43&#45;&gt;le&#45;parisien&#45;week&#45;end&#45;45 -->
<g id="edge17" class="edge">
<title>lvmh&#45;43&#45;&gt;le&#45;parisien&#45;week&#45;end&#45;45</title>
<path fill="none" stroke="black" d="M295.39,-208.08C307.35,-199.79 322.92,-189.64 337.58,-182 380.91,-159.42 392.27,-153.17 439.58,-141 552.76,-111.9 686.72,-98.64 775.83,-92.69"/>
<polygon fill="black" stroke="black" points="776.02,-96.18 785.77,-92.05 775.56,-89.2 776.02,-96.18"/>
<text text-anchor="middle" x="533.58" y="-144.8" font-family="Times,serif" font-size="14.00">possède 100%</text>
</g>
<!-- challenges&#45;6 -->
<g id="node6" class="node">
<title>challenges&#45;6</title>
<ellipse fill="none" stroke="black" cx="875.81" cy="-736" rx="50.09" ry="18"/>
<text text-anchor="middle" x="875.81" y="-732.3" font-family="Times,serif" font-size="14.00">Challenges</text>
</g>
<!-- groupe&#45;perdriel&#45;3&#45;&gt;challenges&#45;6 -->
<g id="edge3" class="edge">
<title>groupe&#45;perdriel&#45;3&#45;&gt;challenges&#45;6</title>
<path fill="none" stroke="black" d="M591.3,-691.91C608.7,-694.9 627.92,-698.14 645.57,-701 704.19,-710.49 771.36,-720.66 817.77,-727.58"/>
<polygon fill="black" stroke="black" points="817.2,-731.04 827.61,-729.05 818.23,-724.11 817.2,-731.04"/>
<text text-anchor="middle" x="685.07" y="-715.8" font-family="Times,serif" font-size="14.00">possède 100%</text>
</g>
<!-- sciences&#45;and&#45;avenir&#45;7 -->
<g id="node7" class="node">
<title>sciences&#45;and&#45;avenir&#45;7</title>
<ellipse fill="none" stroke="black" cx="875.81" cy="-682" rx="77.19" ry="18"/>
<text text-anchor="middle" x="875.81" y="-678.3" font-family="Times,serif" font-size="14.00">Sciences &amp; Avenir</text>
</g>
<!-- groupe&#45;perdriel&#45;3&#45;&gt;sciences&#45;and&#45;avenir&#45;7 -->
<g id="edge4" class="edge">
<title>groupe&#45;perdriel&#45;3&#45;&gt;sciences&#45;and&#45;avenir&#45;7</title>
<path fill="none" stroke="black" d="M617.37,-682C668.78,-682 734.77,-682 787.07,-682"/>
<polygon fill="black" stroke="black" points="786.84,-685.5 796.84,-682 786.84,-678.5 786.84,-685.5"/>
<text text-anchor="middle" x="685.07" y="-685.8" font-family="Times,serif" font-size="14.00">possède 100%</text>
</g>
<!-- investir&#45;50 -->
<g id="node9" class="node">
<title>investir&#45;50</title>
<ellipse fill="none" stroke="black" cx="875.81" cy="-628" rx="37.89" ry="18"/>
<text text-anchor="middle" x="875.81" y="-624.3" font-family="Times,serif" font-size="14.00">Investir</text>
</g>
<!-- groupe&#45;les&#45;echos&#45;48&#45;&gt;investir&#45;50 -->
<g id="edge7" class="edge">
<title>groupe&#45;les&#45;echos&#45;48&#45;&gt;investir&#45;50</title>
<path fill="none" stroke="black" d="M555.14,-504.39C576.89,-520.26 612.57,-545.15 645.57,-563 683.41,-583.46 693.44,-588.42 734.57,-601 764.97,-610.3 800.08,-617.05 827.57,-621.48"/>
<polygon fill="black" stroke="black" points="826.94,-624.93 837.36,-623.01 828.02,-618.01 826.94,-624.93"/>
<text text-anchor="middle" x="685.07" y="-600.8" font-family="Times,serif" font-size="14.00">possède 100%</text>
</g>
<!-- investir&#45;magazine&#45;51 -->
<g id="node10" class="node">
<title>investir&#45;magazine&#45;51</title>
<ellipse fill="none" stroke="black" cx="875.81" cy="-574" rx="75.29" ry="18"/>
<text text-anchor="middle" x="875.81" y="-570.3" font-family="Times,serif" font-size="14.00">Investir Magazine</text>
</g>
<!-- groupe&#45;les&#45;echos&#45;48&#45;&gt;investir&#45;magazine&#45;51 -->
<g id="edge8" class="edge">
<title>groupe&#45;les&#45;echos&#45;48&#45;&gt;investir&#45;magazine&#45;51</title>
<path fill="none" stroke="black" d="M574.24,-502.06C595.34,-508.87 621.78,-517.18 645.57,-524 684.85,-535.26 694.72,-538.02 734.57,-547 756.92,-552.03 781.4,-556.95 803.57,-561.18"/>
<polygon fill="black" stroke="black" points="802.62,-564.56 813.1,-562.98 803.92,-557.68 802.62,-564.56"/>
<text text-anchor="middle" x="685.07" y="-547.8" font-family="Times,serif" font-size="14.00">possède 100%</text>
</g>
<!-- les&#45;echos&#45;49 -->
<g id="node11" class="node">
<title>les&#45;echos&#45;49</title>
<ellipse fill="none" stroke="black" cx="875.81" cy="-520" rx="47.39" ry="18"/>
<text text-anchor="middle" x="875.81" y="-516.3" font-family="Times,serif" font-size="14.00">Les Échos</text>
</g>
<!-- groupe&#45;les&#45;echos&#45;48&#45;&gt;les&#45;echos&#45;49 -->
<g id="edge9" class="edge">
<title>groupe&#45;les&#45;echos&#45;48&#45;&gt;les&#45;echos&#45;49</title>
<path fill="none" stroke="black" d="M616.51,-496.46C678.92,-502.15 763.23,-509.83 818.29,-514.85"/>
<polygon fill="black" stroke="black" points="817.8,-518.32 828.07,-515.74 818.43,-511.35 817.8,-518.32"/>
<text text-anchor="middle" x="685.07" y="-508.8" font-family="Times,serif" font-size="14.00">possède 100%</text>
</g>
<!-- les&#45;echos&#45;week&#45;end&#45;52 -->
<g id="node12" class="node">
<title>les&#45;echos&#45;week&#45;end&#45;52</title>
<ellipse fill="none" stroke="black" cx="875.81" cy="-466" rx="87.18" ry="18"/>
<text text-anchor="middle" x="875.81" y="-462.3" font-family="Times,serif" font-size="14.00">Les Échos Week&#45;End</text>
</g>
<!-- groupe&#45;les&#45;echos&#45;48&#45;&gt;les&#45;echos&#45;week&#45;end&#45;52 -->
<g id="edge10" class="edge">
<title>groupe&#45;les&#45;echos&#45;48&#45;&gt;les&#45;echos&#45;week&#45;end&#45;52</title>
<path fill="none" stroke="black" d="M627.78,-476.65C633.8,-476.04 639.77,-475.48 645.57,-475 688.75,-471.44 736.62,-469.28 777.4,-467.97"/>
<polygon fill="black" stroke="black" points="777.31,-471.47 787.2,-467.67 777.09,-464.48 777.31,-471.47"/>
<text text-anchor="middle" x="685.07" y="-478.8" font-family="Times,serif" font-size="14.00">possède 100%</text>
</g>
<!-- radio&#45;classique&#45;53 -->
<g id="node13" class="node">
<title>radio&#45;classique&#45;53</title>
<ellipse fill="none" stroke="black" cx="875.81" cy="-412" rx="68.49" ry="18"/>
<text text-anchor="middle" x="875.81" y="-408.3" font-family="Times,serif" font-size="14.00">Radio Classique</text>
</g>
<!-- groupe&#45;les&#45;echos&#45;48&#45;&gt;radio&#45;classique&#45;53 -->
<g id="edge11" class="edge">
<title>groupe&#45;les&#45;echos&#45;48&#45;&gt;radio&#45;classique&#45;53</title>
<path fill="none" stroke="black" d="M573.41,-473.98C594.51,-466.27 621.2,-457.2 645.57,-451 697.33,-437.83 756.81,-427.86 802.21,-421.29"/>
<polygon fill="black" stroke="black" points="802.53,-424.78 811.94,-419.91 801.55,-417.85 802.53,-424.78"/>
<text text-anchor="middle" x="685.07" y="-454.8" font-family="Times,serif" font-size="14.00">possède 100%</text>
</g>
<!-- l&#45;agefi&#45;hebdo&#45;101 -->
<g id="node14" class="node">
<title>l&#45;agefi&#45;hebdo&#45;101</title>
<ellipse fill="none" stroke="black" cx="875.81" cy="-358" rx="62.29" ry="18"/>
<text text-anchor="middle" x="875.81" y="-354.3" font-family="Times,serif" font-size="14.00">L’Agefi hebdo</text>
</g>
<!-- groupe&#45;l&#45;opinion&#45;325&#45;&gt;l&#45;agefi&#45;hebdo&#45;101 -->
<g id="edge13" class="edge">
<title>groupe&#45;l&#45;opinion&#45;325&#45;&gt;l&#45;agefi&#45;hebdo&#45;101</title>
<path fill="none" stroke="black" d="M594.17,-314.4C610.8,-317.25 628.88,-320.3 645.57,-323 700.35,-331.87 762.58,-341.33 808.38,-348.18"/>
<polygon fill="black" stroke="black" points="807.74,-351.62 818.15,-349.64 808.78,-344.7 807.74,-351.62"/>
<text text-anchor="middle" x="685.07" y="-337.8" font-family="Times,serif" font-size="14.00">possède 100%</text>
</g>
<!-- l&#45;opinion&#45;8 -->
<g id="node15" class="node">
<title>l&#45;opinion&#45;8</title>
<ellipse fill="none" stroke="black" cx="875.81" cy="-304" rx="47.39" ry="18"/>
<text text-anchor="middle" x="875.81" y="-300.3" font-family="Times,serif" font-size="14.00">L’Opinion</text>
</g>
<!-- groupe&#45;l&#45;opinion&#45;325&#45;&gt;l&#45;opinion&#45;8 -->
<g id="edge14" class="edge">
<title>groupe&#45;l&#45;opinion&#45;325&#45;&gt;l&#45;opinion&#45;8</title>
<path fill="none" stroke="black" d="M628,-304C688.35,-304 765,-304 816.74,-304"/>
<polygon fill="black" stroke="black" points="816.52,-307.5 826.52,-304 816.52,-300.5 816.52,-307.5"/>
<text text-anchor="middle" x="685.07" y="-307.8" font-family="Times,serif" font-size="14.00">possède 100%</text>
</g>
</g>
</svg>
