<?xml version="1.0" encoding="UTF-8" standalone="no"?>
<!DOCTYPE svg PUBLIC "-//W3C//DTD SVG 1.1//EN"
 "http://www.w3.org/Graphics/SVG/1.1/DTD/svg11.dtd">
<!-- Generated by graphviz version 7.1.0 (20230121.1956)
 -->
<!-- Pages: 1 -->
<svg width="1071pt" height="76pt"
 viewBox="0.00 0.00 1071.33 76.00" xmlns="http://www.w3.org/2000/svg" xmlns:xlink="http://www.w3.org/1999/xlink">
<g id="graph0" class="graph" transform="scale(1 1) rotate(0) translate(4 72)">
<polygon fill="white" stroke="none" points="-4,4 -4,-72 1067.33,-72 1067.33,4 -4,4"/>
<g id="clust2" class="cluster">
<title>clusterLeaves</title>
<polygon fill="none" stroke="black" points="911.94,-8 911.94,-60 1055.33,-60 1055.33,-8 911.94,-8"/>
</g>
<!-- patrick&#45;drahi&#45;56 -->
<g id="node1" class="node">
<title>patrick&#45;drahi&#45;56</title>
<polygon fill="none" stroke="black" points="104,-52 0,-52 0,-16 104,-16 104,-52"/>
<text text-anchor="middle" x="52" y="-30.3" font-family="Times,serif" font-size="14.00">🧑‍💼Patrick Drahi</text>
</g>
<!-- altice&#45;57 -->
<g id="node4" class="node">
<title>altice&#45;57</title>
<polygon fill="none" stroke="black" points="293.51,-39.56 253.17,-52 212.83,-39.56 212.87,-19.44 293.47,-19.44 293.51,-39.56"/>
<text text-anchor="middle" x="253.17" y="-30.3" font-family="Times,serif" font-size="14.00">Altice</text>
</g>
<!-- patrick&#45;drahi&#45;56&#45;&gt;altice&#45;57 -->
<g id="edge4" class="edge">
<title>patrick&#45;drahi&#45;56&#45;&gt;altice&#45;57</title>
<path fill="none" stroke="black" d="M104.29,-34C134,-34 171.28,-34 200.98,-34"/>
<polygon fill="black" stroke="black" points="200.85,-37.5 210.85,-34 200.85,-30.5 200.85,-37.5"/>
<text text-anchor="middle" x="158.5" y="-37.8" font-family="Times,serif" font-size="14.00">possède 61%</text>
</g>
<!-- altice&#45;media&#45;61 -->
<g id="node2" class="node">
<title>altice&#45;media&#45;61</title>
<polygon fill="none" stroke="black" points="804.94,-39.56 733.44,-52 661.94,-39.56 662.01,-19.44 804.88,-19.44 804.94,-39.56"/>
<text text-anchor="middle" x="733.44" y="-30.3" font-family="Times,serif" font-size="14.00">Altice Média</text>
</g>
<!-- bfm&#45;business&#45;65 -->
<g id="node5" class="node">
<title>bfm&#45;business&#45;65</title>
<ellipse fill="none" stroke="black" cx="983.64" cy="-34" rx="63.89" ry="18"/>
<text text-anchor="middle" x="983.64" y="-30.3" font-family="Times,serif" font-size="14.00">BFM Business</text>
</g>
<!-- altice&#45;media&#45;61&#45;&gt;bfm&#45;business&#45;65 -->
<g id="edge1" class="edge">
<title>altice&#45;media&#45;61&#45;&gt;bfm&#45;business&#45;65</title>
<path fill="none" stroke="black" d="M805.24,-34C837.41,-34 875.48,-34 908.09,-34"/>
<polygon fill="black" stroke="black" points="907.86,-37.5 917.86,-34 907.86,-30.5 907.86,-37.5"/>
<text text-anchor="middle" x="862.44" y="-37.8" font-family="Times,serif" font-size="14.00">possède 100%</text>
</g>
<!-- altice&#45;france&#45;58 -->
<g id="node3" class="node">
<title>altice&#45;france&#45;58</title>
<polygon fill="none" stroke="black" points="546.75,-39.56 474.64,-52 402.53,-39.56 402.6,-19.44 546.68,-19.44 546.75,-39.56"/>
<text text-anchor="middle" x="474.64" y="-30.3" font-family="Times,serif" font-size="14.00">Altice France</text>
</g>
<!-- altice&#45;france&#45;58&#45;&gt;altice&#45;media&#45;61 -->
<g id="edge2" class="edge">
<title>altice&#45;france&#45;58&#45;&gt;altice&#45;media&#45;61</title>
<path fill="none" stroke="black" d="M547.18,-34C579.17,-34 617.07,-34 650.23,-34"/>
<polygon fill="black" stroke="black" points="650.22,-37.5 660.22,-34 650.22,-30.5 650.22,-37.5"/>
<text text-anchor="middle" x="604.44" y="-37.8" font-family="Times,serif" font-size="14.00">possède 100%</text>
</g>
<!-- altice&#45;57&#45;&gt;altice&#45;france&#45;58 -->
<g id="edge3" class="edge">
<title>altice&#45;57&#45;&gt;altice&#45;france&#45;58</title>
<path fill="none" stroke="black" d="M293.91,-34C320.99,-34 357.83,-34 391.11,-34"/>
<polygon fill="black" stroke="black" points="390.72,-37.5 400.72,-34 390.72,-30.5 390.72,-37.5"/>
<text text-anchor="middle" x="347.84" y="-37.8" font-family="Times,serif" font-size="14.00">possède 78%</text>
</g>
</g>
</svg>
