<?xml version="1.0" encoding="UTF-8" standalone="no"?>
<!DOCTYPE svg PUBLIC "-//W3C//DTD SVG 1.1//EN"
 "http://www.w3.org/Graphics/SVG/1.1/DTD/svg11.dtd">
<!-- Generated by graphviz version 7.1.0 (20230121.1956)
 -->
<!-- Pages: 1 -->
<svg width="1050pt" height="76pt"
 viewBox="0.00 0.00 1050.45 76.00" xmlns="http://www.w3.org/2000/svg" xmlns:xlink="http://www.w3.org/1999/xlink">
<g id="graph0" class="graph" transform="scale(1 1) rotate(0) translate(4 72)">
<polygon fill="white" stroke="none" points="-4,4 -4,-72 1046.45,-72 1046.45,4 -4,4"/>
<g id="clust2" class="cluster">
<title>clusterLeaves</title>
<polygon fill="none" stroke="black" points="945.65,-8 945.65,-60 1034.45,-60 1034.45,-8 945.65,-8"/>
</g>
<!-- vincent&#45;bollore&#45;77 -->
<g id="node1" class="node">
<title>vincent&#45;bollore&#45;77</title>
<polygon fill="none" stroke="black" points="118,-52 0,-52 0,-16 118,-16 118,-52"/>
<text text-anchor="middle" x="59" y="-30.3" font-family="Times,serif" font-size="14.00">🧑‍💼Vincent Bolloré</text>
</g>
<!-- financiere&#45;de&#45;l&#45;odet&#45;78 -->
<g id="node4" class="node">
<title>financiere&#45;de&#45;l&#45;odet&#45;78</title>
<polygon fill="none" stroke="black" points="432.5,-39.56 329.83,-52 227.17,-39.56 227.26,-19.44 432.4,-19.44 432.5,-39.56"/>
<text text-anchor="middle" x="329.83" y="-30.3" font-family="Times,serif" font-size="14.00">Financière de l’Odet</text>
</g>
<!-- vincent&#45;bollore&#45;77&#45;&gt;financiere&#45;de&#45;l&#45;odet&#45;78 -->
<g id="edge4" class="edge">
<title>vincent&#45;bollore&#45;77&#45;&gt;financiere&#45;de&#45;l&#45;odet&#45;78</title>
<path fill="none" stroke="black" d="M118.33,-34C146.84,-34 182.16,-34 215.68,-34"/>
<polygon fill="black" stroke="black" points="215.45,-37.5 225.45,-34 215.45,-30.5 215.45,-37.5"/>
<text text-anchor="middle" x="172.5" y="-37.8" font-family="Times,serif" font-size="14.00">possède 49%</text>
</g>
<!-- vivendi&#45;81 -->
<g id="node2" class="node">
<title>vivendi&#45;81</title>
<polygon fill="none" stroke="black" points="838.86,-39.56 790.45,-52 742.04,-39.56 742.09,-19.44 838.81,-19.44 838.86,-39.56"/>
<text text-anchor="middle" x="790.45" y="-30.3" font-family="Times,serif" font-size="14.00">Vivendi</text>
</g>
<!-- cnews&#45;84 -->
<g id="node5" class="node">
<title>cnews&#45;84</title>
<ellipse fill="none" stroke="black" cx="990.05" cy="-34" rx="36.29" ry="18"/>
<text text-anchor="middle" x="990.05" y="-30.3" font-family="Times,serif" font-size="14.00">CNews</text>
</g>
<!-- vivendi&#45;81&#45;&gt;cnews&#45;84 -->
<g id="edge1" class="edge">
<title>vivendi&#45;81&#45;&gt;cnews&#45;84</title>
<path fill="none" stroke="black" d="M839.28,-34C870.48,-34 911.01,-34 942.04,-34"/>
<polygon fill="black" stroke="black" points="941.91,-37.5 951.91,-34 941.91,-30.5 941.91,-37.5"/>
<text text-anchor="middle" x="896.15" y="-37.8" font-family="Times,serif" font-size="14.00">possède 100%</text>
</g>
<!-- bollore&#45;79 -->
<g id="node3" class="node">
<title>bollore&#45;79</title>
<polygon fill="none" stroke="black" points="633.04,-39.56 587.46,-52 541.87,-39.56 541.91,-19.44 633,-19.44 633.04,-39.56"/>
<text text-anchor="middle" x="587.46" y="-30.3" font-family="Times,serif" font-size="14.00">Bolloré</text>
</g>
<!-- bollore&#45;79&#45;&gt;vivendi&#45;81 -->
<g id="edge2" class="edge">
<title>bollore&#45;79&#45;&gt;vivendi&#45;81</title>
<path fill="none" stroke="black" d="M633.31,-34C661.96,-34 699.41,-34 730.46,-34"/>
<polygon fill="black" stroke="black" points="730.06,-37.5 740.06,-34 730.06,-30.5 730.06,-37.5"/>
<text text-anchor="middle" x="687.75" y="-37.8" font-family="Times,serif" font-size="14.00">possède 27%</text>
</g>
<!-- financiere&#45;de&#45;l&#45;odet&#45;78&#45;&gt;bollore&#45;79 -->
<g id="edge3" class="edge">
<title>financiere&#45;de&#45;l&#45;odet&#45;78&#45;&gt;bollore&#45;79</title>
<path fill="none" stroke="black" d="M432.96,-34C466.09,-34 501.61,-34 530.13,-34"/>
<polygon fill="black" stroke="black" points="529.98,-37.5 539.98,-34 529.98,-30.5 529.98,-37.5"/>
<text text-anchor="middle" x="487.16" y="-37.8" font-family="Times,serif" font-size="14.00">possède 64%</text>
</g>
</g>
</svg>
