<?xml version="1.0" encoding="UTF-8" standalone="no"?>
<!DOCTYPE svg PUBLIC "-//W3C//DTD SVG 1.1//EN"
 "http://www.w3.org/Graphics/SVG/1.1/DTD/svg11.dtd">
<!-- Generated by graphviz version 8.1.0 (20230707.0739)
 -->
<!-- Pages: 1 -->
<svg width="1297pt" height="1318pt"
 viewBox="0.00 0.00 1297.02 1318.00" xmlns="http://www.w3.org/2000/svg" xmlns:xlink="http://www.w3.org/1999/xlink">
<g id="graph0" class="graph" transform="scale(1 1) rotate(0) translate(4 1314)">
<polygon fill="white" stroke="none" points="-4,4 -4,-1314 1293.02,-1314 1293.02,4 -4,4"/>
<g id="clust2" class="cluster">
<title>clusterLeaves</title>
<polygon fill="none" stroke="black" points="968.85,-8 968.85,-1302 1281.02,-1302 1281.02,-8 968.85,-8"/>
</g>
<!-- credit&#45;agricole&#45;nord&#45;de&#45;france&#45;172 -->
<g id="node1" class="node">
<title>credit&#45;agricole&#45;nord&#45;de&#45;france&#45;172</title>
<polygon fill="none" stroke="black" points="188.5,-133 0,-133 0,-97 188.5,-97 188.5,-133"/>
<text text-anchor="middle" x="94.25" y="-109.95" font-family="Times,serif" font-size="14.00">Crédit Agricole Nord de France</text>
</g>
<!-- groupe&#45;rossel&#45;la&#45;voix&#45;184 -->
<g id="node2" class="node">
<title>groupe&#45;rossel&#45;la&#45;voix&#45;184</title>
<polygon fill="none" stroke="black" points="537.32,-120.56 416.91,-133 296.5,-120.56 296.61,-100.44 537.21,-100.44 537.32,-120.56"/>
<text text-anchor="middle" x="416.91" y="-109.95" font-family="Times,serif" font-size="14.00">Groupe Rossel La Voix</text>
</g>
<!-- credit&#45;agricole&#45;nord&#45;de&#45;france&#45;172&#45;&gt;groupe&#45;rossel&#45;la&#45;voix&#45;184 -->
<g id="edge1" class="edge">
<title>credit&#45;agricole&#45;nord&#45;de&#45;france&#45;172&#45;&gt;groupe&#45;rossel&#45;la&#45;voix&#45;184</title>
<path fill="none" stroke="black" d="M188.86,-115C219,-115 252.98,-115 285.28,-115"/>
<polygon fill="black" stroke="black" points="285.17,-118.5 295.17,-115 285.17,-111.5 285.17,-118.5"/>
<text text-anchor="middle" x="242.5" y="-118.2" font-family="Times,serif" font-size="14.00">possède 25%</text>
</g>
<!-- la&#45;voix&#45;du&#45;nord&#45;sa&#45;185 -->
<g id="node3" class="node">
<title>la&#45;voix&#45;du&#45;nord&#45;sa&#45;185</title>
<polygon fill="none" stroke="black" points="862.1,-713.56 753.71,-726 645.32,-713.56 645.42,-693.44 862,-693.44 862.1,-713.56"/>
<text text-anchor="middle" x="753.71" y="-702.95" font-family="Times,serif" font-size="14.00">La Voix du Nord SA</text>
</g>
<!-- groupe&#45;rossel&#45;la&#45;voix&#45;184&#45;&gt;la&#45;voix&#45;du&#45;nord&#45;sa&#45;185 -->
<g id="edge3" class="edge">
<title>groupe&#45;rossel&#45;la&#45;voix&#45;184&#45;&gt;la&#45;voix&#45;du&#45;nord&#45;sa&#45;185</title>
<path fill="none" stroke="black" d="M427.57,-132.11C475,-216.11 683.17,-584.82 738.93,-683.59"/>
<polygon fill="black" stroke="black" points="736.3,-685.05 744.26,-692.04 742.39,-681.61 736.3,-685.05"/>
<text text-anchor="middle" x="591.32" y="-485.2" font-family="Times,serif" font-size="14.00">possède 96%</text>
</g>
<!-- 20&#45;minutes&#45;182 -->
<g id="node4" class="node">
<title>20&#45;minutes&#45;182</title>
<ellipse fill="none" stroke="black" cx="1124.94" cy="-142" rx="53.4" ry="18"/>
<text text-anchor="middle" x="1124.94" y="-136.95" font-family="Times,serif" font-size="14.00">20 Minutes</text>
</g>
<!-- groupe&#45;rossel&#45;la&#45;voix&#45;184&#45;&gt;20&#45;minutes&#45;182 -->
<g id="edge2" class="edge">
<title>groupe&#45;rossel&#45;la&#45;voix&#45;184&#45;&gt;20&#45;minutes&#45;182</title>
<path fill="none" stroke="black" d="M537.68,-119.58C688.79,-125.36 943.13,-135.09 1060.76,-139.58"/>
<polygon fill="black" stroke="black" points="1060.58,-143.12 1070.71,-140 1060.85,-136.12 1060.58,-143.12"/>
<text text-anchor="middle" x="753.71" y="-134.2" font-family="Times,serif" font-size="14.00">possède 49%</text>
</g>
<!-- normandie&#45;dimanche&#45;291 -->
<g id="node26" class="node">
<title>normandie&#45;dimanche&#45;291</title>
<ellipse fill="none" stroke="black" cx="1124.94" cy="-88" rx="93.83" ry="18"/>
<text text-anchor="middle" x="1124.94" y="-82.95" font-family="Times,serif" font-size="14.00">Normandie Dimanche</text>
</g>
<!-- groupe&#45;rossel&#45;la&#45;voix&#45;184&#45;&gt;normandie&#45;dimanche&#45;291 -->
<g id="edge25" class="edge">
<title>groupe&#45;rossel&#45;la&#45;voix&#45;184&#45;&gt;normandie&#45;dimanche&#45;291</title>
<path fill="none" stroke="black" d="M537.68,-108.53C572.4,-106.77 610.37,-104.95 645.32,-103.5 774.69,-98.13 923.8,-93.56 1020.74,-90.8"/>
<polygon fill="black" stroke="black" points="1020.82,-94.27 1030.72,-90.49 1020.62,-87.27 1020.82,-94.27"/>
<text text-anchor="middle" x="753.71" y="-107.2" font-family="Times,serif" font-size="14.00">possède 100%</text>
</g>
<!-- paris&#45;normandie&#45;286 -->
<g id="node27" class="node">
<title>paris&#45;normandie&#45;286</title>
<ellipse fill="none" stroke="black" cx="1124.94" cy="-34" rx="74.38" ry="18"/>
<text text-anchor="middle" x="1124.94" y="-28.95" font-family="Times,serif" font-size="14.00">Paris&#45;Normandie</text>
</g>
<!-- groupe&#45;rossel&#45;la&#45;voix&#45;184&#45;&gt;paris&#45;normandie&#45;286 -->
<g id="edge26" class="edge">
<title>groupe&#45;rossel&#45;la&#45;voix&#45;184&#45;&gt;paris&#45;normandie&#45;286</title>
<path fill="none" stroke="black" d="M494.76,-99.97C538.71,-91.79 594.95,-82.05 645.32,-75.5 783.89,-57.49 946.09,-45.28 1041.63,-38.99"/>
<polygon fill="black" stroke="black" points="1041.62,-42.43 1051.37,-38.29 1041.17,-35.45 1041.62,-42.43"/>
<text text-anchor="middle" x="753.71" y="-79.2" font-family="Times,serif" font-size="14.00">possède 100%</text>
</g>
<!-- courrier&#45;picard&#45;189 -->
<g id="node5" class="node">
<title>courrier&#45;picard&#45;189</title>
<ellipse fill="none" stroke="black" cx="1124.94" cy="-1276" rx="67.73" ry="18"/>
<text text-anchor="middle" x="1124.94" y="-1270.95" font-family="Times,serif" font-size="14.00">Courrier picard</text>
</g>
<!-- la&#45;voix&#45;du&#45;nord&#45;sa&#45;185&#45;&gt;courrier&#45;picard&#45;189 -->
<g id="edge4" class="edge">
<title>la&#45;voix&#45;du&#45;nord&#45;sa&#45;185&#45;&gt;courrier&#45;picard&#45;189</title>
<path fill="none" stroke="black" d="M756.26,-726.18C763.92,-811.45 800.58,-1170.75 880.1,-1243 926.76,-1285.4 1000.66,-1289.88 1054.88,-1286.07"/>
<polygon fill="black" stroke="black" points="1055.12,-1289.48 1064.8,-1285.17 1054.54,-1282.5 1055.12,-1289.48"/>
<text text-anchor="middle" x="919.48" y="-1282.2" font-family="Times,serif" font-size="14.00">possède 100%</text>
</g>
<!-- l&#45;aisne&#45;nouvelle&#45;190 -->
<g id="node6" class="node">
<title>l&#45;aisne&#45;nouvelle&#45;190</title>
<ellipse fill="none" stroke="black" cx="1124.94" cy="-1222" rx="74.38" ry="18"/>
<text text-anchor="middle" x="1124.94" y="-1216.95" font-family="Times,serif" font-size="14.00">L’aisne Nouvelle</text>
</g>
<!-- la&#45;voix&#45;du&#45;nord&#45;sa&#45;185&#45;&gt;l&#45;aisne&#45;nouvelle&#45;190 -->
<g id="edge5" class="edge">
<title>la&#45;voix&#45;du&#45;nord&#45;sa&#45;185&#45;&gt;l&#45;aisne&#45;nouvelle&#45;190</title>
<path fill="none" stroke="black" d="M756.8,-726.11C766.33,-805.66 808.43,-1123.03 880.1,-1187 925.32,-1227.36 995.21,-1233.76 1048.6,-1231.43"/>
<polygon fill="black" stroke="black" points="1048.59,-1234.88 1058.38,-1230.83 1048.2,-1227.89 1048.59,-1234.88"/>
<text text-anchor="middle" x="919.48" y="-1227.2" font-family="Times,serif" font-size="14.00">possède 100%</text>
</g>
<!-- l&#45;avenir&#45;de&#45;l&#45;artois&#45;193 -->
<g id="node7" class="node">
<title>l&#45;avenir&#45;de&#45;l&#45;artois&#45;193</title>
<ellipse fill="none" stroke="black" cx="1124.94" cy="-1168" rx="87.18" ry="18"/>
<text text-anchor="middle" x="1124.94" y="-1162.95" font-family="Times,serif" font-size="14.00">L’Avenir de l’Artois</text>
</g>
<!-- la&#45;voix&#45;du&#45;nord&#45;sa&#45;185&#45;&gt;l&#45;avenir&#45;de&#45;l&#45;artois&#45;193 -->
<g id="edge6" class="edge">
<title>la&#45;voix&#45;du&#45;nord&#45;sa&#45;185&#45;&gt;l&#45;avenir&#45;de&#45;l&#45;artois&#45;193</title>
<path fill="none" stroke="black" d="M757.47,-725.84C769.12,-798.82 816.6,-1073.31 880.1,-1129 921.78,-1165.55 983.56,-1175.13 1034.5,-1175.65"/>
<polygon fill="black" stroke="black" points="1034.21,-1179.15 1044.2,-1175.64 1034.19,-1172.15 1034.21,-1179.15"/>
<text text-anchor="middle" x="919.48" y="-1169.2" font-family="Times,serif" font-size="14.00">possède 100%</text>
</g>
<!-- l&#45;echo&#45;de&#45;la&#45;lys&#45;206 -->
<g id="node8" class="node">
<title>l&#45;echo&#45;de&#45;la&#45;lys&#45;206</title>
<ellipse fill="none" stroke="black" cx="1124.94" cy="-1114" rx="74.89" ry="18"/>
<text text-anchor="middle" x="1124.94" y="-1108.95" font-family="Times,serif" font-size="14.00">L’Echo de la Lys</text>
</g>
<!-- la&#45;voix&#45;du&#45;nord&#45;sa&#45;185&#45;&gt;l&#45;echo&#45;de&#45;la&#45;lys&#45;206 -->
<g id="edge7" class="edge">
<title>la&#45;voix&#45;du&#45;nord&#45;sa&#45;185&#45;&gt;l&#45;echo&#45;de&#45;la&#45;lys&#45;206</title>
<path fill="none" stroke="black" d="M754.97,-726.19C756.85,-785.99 771.48,-977.96 880.1,-1071 924.37,-1108.92 990.16,-1118.73 1042.25,-1119.57"/>
<polygon fill="black" stroke="black" points="1042.12,-1123.08 1052.14,-1119.63 1042.16,-1116.08 1042.12,-1123.08"/>
<text text-anchor="middle" x="919.48" y="-1111.2" font-family="Times,serif" font-size="14.00">possède 100%</text>
</g>
<!-- l&#45;essor&#45;savoyard&#45;197 -->
<g id="node9" class="node">
<title>l&#45;essor&#45;savoyard&#45;197</title>
<ellipse fill="none" stroke="black" cx="1124.94" cy="-1060" rx="75.41" ry="18"/>
<text text-anchor="middle" x="1124.94" y="-1054.95" font-family="Times,serif" font-size="14.00">L’Essor savoyard</text>
</g>
<!-- la&#45;voix&#45;du&#45;nord&#45;sa&#45;185&#45;&gt;l&#45;essor&#45;savoyard&#45;197 -->
<g id="edge8" class="edge">
<title>la&#45;voix&#45;du&#45;nord&#45;sa&#45;185&#45;&gt;l&#45;essor&#45;savoyard&#45;197</title>
<path fill="none" stroke="black" d="M756.58,-725.9C763.04,-778.35 789.28,-932.82 880.1,-1011 923.71,-1048.54 988,-1060.27 1039.62,-1062.9"/>
<polygon fill="black" stroke="black" points="1039.3,-1066.43 1049.43,-1063.32 1039.57,-1059.43 1039.3,-1066.43"/>
<text text-anchor="middle" x="919.48" y="-1053.2" font-family="Times,serif" font-size="14.00">possède 100%</text>
</g>
<!-- l&#45;est&#45;eclair&#45;liberation&#45;champagne&#45;192 -->
<g id="node10" class="node">
<title>l&#45;est&#45;eclair&#45;liberation&#45;champagne&#45;192</title>
<ellipse fill="none" stroke="black" cx="1124.94" cy="-1006" rx="148.08" ry="18"/>
<text text-anchor="middle" x="1124.94" y="-1000.95" font-family="Times,serif" font-size="14.00">L’Est&#45;éclair &#45; Libération Champagne</text>
</g>
<!-- la&#45;voix&#45;du&#45;nord&#45;sa&#45;185&#45;&gt;l&#45;est&#45;eclair&#45;liberation&#45;champagne&#45;192 -->
<g id="edge9" class="edge">
<title>la&#45;voix&#45;du&#45;nord&#45;sa&#45;185&#45;&gt;l&#45;est&#45;eclair&#45;liberation&#45;champagne&#45;192</title>
<path fill="none" stroke="black" d="M758.8,-725.63C770.04,-770.2 805.67,-888.3 880.1,-951 907.67,-974.22 943.01,-988.16 978.18,-996.4"/>
<polygon fill="black" stroke="black" points="977.07,-999.96 987.59,-998.68 978.57,-993.12 977.07,-999.96"/>
<text text-anchor="middle" x="919.48" y="-993.2" font-family="Times,serif" font-size="14.00">possède 100%</text>
</g>
<!-- l&#45;indicateur&#45;205 -->
<g id="node11" class="node">
<title>l&#45;indicateur&#45;205</title>
<ellipse fill="none" stroke="black" cx="1124.94" cy="-952" rx="55.96" ry="18"/>
<text text-anchor="middle" x="1124.94" y="-946.95" font-family="Times,serif" font-size="14.00">L’indicateur</text>
</g>
<!-- la&#45;voix&#45;du&#45;nord&#45;sa&#45;185&#45;&gt;l&#45;indicateur&#45;205 -->
<g id="edge10" class="edge">
<title>la&#45;voix&#45;du&#45;nord&#45;sa&#45;185&#45;&gt;l&#45;indicateur&#45;205</title>
<path fill="none" stroke="black" d="M762.32,-725.32C778.79,-760.96 821.08,-843.09 880.1,-890 930.97,-930.43 1005.05,-944.81 1058.19,-949.76"/>
<polygon fill="black" stroke="black" points="1057.6,-953.31 1067.86,-950.65 1058.19,-946.33 1057.6,-953.31"/>
<text text-anchor="middle" x="919.48" y="-933.2" font-family="Times,serif" font-size="14.00">possède 100%</text>
</g>
<!-- l&#45;union&#45;l&#45;ardennais&#45;191 -->
<g id="node12" class="node">
<title>l&#45;union&#45;l&#45;ardennais&#45;191</title>
<ellipse fill="none" stroke="black" cx="1124.94" cy="-898" rx="96.39" ry="18"/>
<text text-anchor="middle" x="1124.94" y="-892.95" font-family="Times,serif" font-size="14.00">L’Union &#45; L’Ardennais</text>
</g>
<!-- la&#45;voix&#45;du&#45;nord&#45;sa&#45;185&#45;&gt;l&#45;union&#45;l&#45;ardennais&#45;191 -->
<g id="edge11" class="edge">
<title>la&#45;voix&#45;du&#45;nord&#45;sa&#45;185&#45;&gt;l&#45;union&#45;l&#45;ardennais&#45;191</title>
<path fill="none" stroke="black" d="M767.7,-724.78C788.81,-751.1 832.96,-802.34 880.1,-834 923.84,-863.38 980.37,-879.28 1027.99,-887.88"/>
<polygon fill="black" stroke="black" points="1027.18,-891.46 1037.63,-889.71 1028.37,-884.57 1027.18,-891.46"/>
<text text-anchor="middle" x="919.48" y="-872.2" font-family="Times,serif" font-size="14.00">possède 100%</text>
</g>
<!-- la&#45;savoie&#45;200 -->
<g id="node13" class="node">
<title>la&#45;savoie&#45;200</title>
<ellipse fill="none" stroke="black" cx="1124.94" cy="-844" rx="48.28" ry="18"/>
<text text-anchor="middle" x="1124.94" y="-838.95" font-family="Times,serif" font-size="14.00">La Savoie</text>
</g>
<!-- la&#45;voix&#45;du&#45;nord&#45;sa&#45;185&#45;&gt;la&#45;savoie&#45;200 -->
<g id="edge12" class="edge">
<title>la&#45;voix&#45;du&#45;nord&#45;sa&#45;185&#45;&gt;la&#45;savoie&#45;200</title>
<path fill="none" stroke="black" d="M778.66,-723.32C803.49,-738.86 843.7,-763.13 880.1,-781 918.31,-799.76 927.93,-805.28 968.85,-817 1001.14,-826.25 1038.18,-832.84 1067.95,-837.19"/>
<polygon fill="black" stroke="black" points="1067.18,-840.76 1077.57,-838.7 1068.16,-833.83 1067.18,-840.76"/>
<text text-anchor="middle" x="919.48" y="-816.2" font-family="Times,serif" font-size="14.00">possède 100%</text>
</g>
<!-- la&#45;semaine&#45;dans&#45;le&#45;boulonnais&#45;202 -->
<g id="node14" class="node">
<title>la&#45;semaine&#45;dans&#45;le&#45;boulonnais&#45;202</title>
<ellipse fill="none" stroke="black" cx="1124.94" cy="-790" rx="128.63" ry="18"/>
<text text-anchor="middle" x="1124.94" y="-784.95" font-family="Times,serif" font-size="14.00">La Semaine dans le Boulonnais</text>
</g>
<!-- la&#45;voix&#45;du&#45;nord&#45;sa&#45;185&#45;&gt;la&#45;semaine&#45;dans&#45;le&#45;boulonnais&#45;202 -->
<g id="edge13" class="edge">
<title>la&#45;voix&#45;du&#45;nord&#45;sa&#45;185&#45;&gt;la&#45;semaine&#45;dans&#45;le&#45;boulonnais&#45;202</title>
<path fill="none" stroke="black" d="M799.83,-721.19C823.63,-728 853.36,-736.26 880.1,-743 919.31,-752.88 929.2,-755.09 968.85,-763 988.28,-766.88 1009.13,-770.72 1029.05,-774.24"/>
<polygon fill="black" stroke="black" points="1028.23,-777.83 1038.69,-776.11 1029.44,-770.93 1028.23,-777.83"/>
<text text-anchor="middle" x="919.48" y="-763.2" font-family="Times,serif" font-size="14.00">possède 100%</text>
</g>
<!-- la&#45;tribune&#45;republicaine&#45;199 -->
<g id="node15" class="node">
<title>la&#45;tribune&#45;republicaine&#45;199</title>
<ellipse fill="none" stroke="black" cx="1124.94" cy="-736" rx="99.97" ry="18"/>
<text text-anchor="middle" x="1124.94" y="-730.95" font-family="Times,serif" font-size="14.00">La Tribune républicaine</text>
</g>
<!-- la&#45;voix&#45;du&#45;nord&#45;sa&#45;185&#45;&gt;la&#45;tribune&#45;republicaine&#45;199 -->
<g id="edge14" class="edge">
<title>la&#45;voix&#45;du&#45;nord&#45;sa&#45;185&#45;&gt;la&#45;tribune&#45;republicaine&#45;199</title>
<path fill="none" stroke="black" d="M850.76,-715.28C903.13,-719.26 967.97,-724.17 1021.33,-728.22"/>
<polygon fill="black" stroke="black" points="1020.95,-731.78 1031.19,-729.04 1021.48,-724.8 1020.95,-731.78"/>
<text text-anchor="middle" x="919.48" y="-725.2" font-family="Times,serif" font-size="14.00">possède 100%</text>
</g>
<!-- la&#45;voix&#45;du&#45;nord&#45;186 -->
<g id="node16" class="node">
<title>la&#45;voix&#45;du&#45;nord&#45;186</title>
<ellipse fill="none" stroke="black" cx="1124.94" cy="-682" rx="73.36" ry="18"/>
<text text-anchor="middle" x="1124.94" y="-676.95" font-family="Times,serif" font-size="14.00">La Voix du Nord</text>
</g>
<!-- la&#45;voix&#45;du&#45;nord&#45;sa&#45;185&#45;&gt;la&#45;voix&#45;du&#45;nord&#45;186 -->
<g id="edge15" class="edge">
<title>la&#45;voix&#45;du&#45;nord&#45;sa&#45;185&#45;&gt;la&#45;voix&#45;du&#45;nord&#45;186</title>
<path fill="none" stroke="black" d="M862.39,-695.07C868.38,-694.5 874.31,-693.97 880.1,-693.5 933.49,-689.16 993.61,-686.3 1040.79,-684.52"/>
<polygon fill="black" stroke="black" points="1040.7,-687.99 1050.57,-684.12 1040.45,-680.99 1040.7,-687.99"/>
<text text-anchor="middle" x="919.48" y="-696.2" font-family="Times,serif" font-size="14.00">possède 100%</text>
</g>
<!-- le&#45;journal&#45;de&#45;montreuil&#45;204 -->
<g id="node17" class="node">
<title>le&#45;journal&#45;de&#45;montreuil&#45;204</title>
<ellipse fill="none" stroke="black" cx="1124.94" cy="-628" rx="101.51" ry="18"/>
<text text-anchor="middle" x="1124.94" y="-622.95" font-family="Times,serif" font-size="14.00">Le Journal de Montreuil</text>
</g>
<!-- la&#45;voix&#45;du&#45;nord&#45;sa&#45;185&#45;&gt;le&#45;journal&#45;de&#45;montreuil&#45;204 -->
<g id="edge16" class="edge">
<title>la&#45;voix&#45;du&#45;nord&#45;sa&#45;185&#45;&gt;le&#45;journal&#45;de&#45;montreuil&#45;204</title>
<path fill="none" stroke="black" d="M795.77,-692.99C820.04,-684.57 851.52,-674.39 880.1,-667.5 928.93,-655.73 984.11,-646.47 1029.61,-639.87"/>
<polygon fill="black" stroke="black" points="1029.96,-643.22 1039.36,-638.34 1028.97,-636.29 1029.96,-643.22"/>
<text text-anchor="middle" x="919.48" y="-670.2" font-family="Times,serif" font-size="14.00">possède 100%</text>
</g>
<!-- le&#45;journal&#45;des&#45;flandres&#45;195 -->
<g id="node18" class="node">
<title>le&#45;journal&#45;des&#45;flandres&#45;195</title>
<ellipse fill="none" stroke="black" cx="1124.94" cy="-574" rx="99.46" ry="18"/>
<text text-anchor="middle" x="1124.94" y="-568.95" font-family="Times,serif" font-size="14.00">Le Journal des Flandres</text>
</g>
<!-- la&#45;voix&#45;du&#45;nord&#45;sa&#45;185&#45;&gt;le&#45;journal&#45;des&#45;flandres&#45;195 -->
<g id="edge17" class="edge">
<title>la&#45;voix&#45;du&#45;nord&#45;sa&#45;185&#45;&gt;le&#45;journal&#45;des&#45;flandres&#45;195</title>
<path fill="none" stroke="black" d="M776.1,-692.96C800.44,-676.33 841.79,-649.51 880.1,-631.5 927.85,-609.06 985.09,-594.97 1032.11,-586.36"/>
<polygon fill="black" stroke="black" points="1032.67,-589.64 1041.91,-584.45 1031.45,-582.75 1032.67,-589.64"/>
<text text-anchor="middle" x="919.48" y="-634.2" font-family="Times,serif" font-size="14.00">possède 100%</text>
</g>
<!-- le&#45;messager&#45;196 -->
<g id="node19" class="node">
<title>le&#45;messager&#45;196</title>
<ellipse fill="none" stroke="black" cx="1124.94" cy="-520" rx="59.03" ry="18"/>
<text text-anchor="middle" x="1124.94" y="-514.95" font-family="Times,serif" font-size="14.00">Le Messager</text>
</g>
<!-- la&#45;voix&#45;du&#45;nord&#45;sa&#45;185&#45;&gt;le&#45;messager&#45;196 -->
<g id="edge18" class="edge">
<title>la&#45;voix&#45;du&#45;nord&#45;sa&#45;185&#45;&gt;le&#45;messager&#45;196</title>
<path fill="none" stroke="black" d="M766,-693.3C786.32,-667.68 831.51,-614.56 880.1,-582.5 933.06,-547.56 1004.37,-532.15 1056.18,-525.36"/>
<polygon fill="black" stroke="black" points="1056.43,-528.73 1065.93,-524.03 1055.58,-521.78 1056.43,-528.73"/>
<text text-anchor="middle" x="919.48" y="-585.2" font-family="Times,serif" font-size="14.00">possède 100%</text>
</g>
<!-- le&#45;pays&#45;gessien&#45;198 -->
<g id="node20" class="node">
<title>le&#45;pays&#45;gessien&#45;198</title>
<ellipse fill="none" stroke="black" cx="1124.94" cy="-466" rx="70.29" ry="18"/>
<text text-anchor="middle" x="1124.94" y="-460.95" font-family="Times,serif" font-size="14.00">Le Pays gessien</text>
</g>
<!-- la&#45;voix&#45;du&#45;nord&#45;sa&#45;185&#45;&gt;le&#45;pays&#45;gessien&#45;198 -->
<g id="edge19" class="edge">
<title>la&#45;voix&#45;du&#45;nord&#45;sa&#45;185&#45;&gt;le&#45;pays&#45;gessien&#45;198</title>
<path fill="none" stroke="black" d="M761.19,-693.03C776.74,-658.76 819.46,-573.92 880.1,-526.5 926.78,-490.01 992.57,-475.21 1044.05,-469.35"/>
<polygon fill="black" stroke="black" points="1044.22,-472.75 1053.81,-468.24 1043.5,-465.79 1044.22,-472.75"/>
<text text-anchor="middle" x="919.48" y="-529.2" font-family="Times,serif" font-size="14.00">possède 100%</text>
</g>
<!-- le&#45;phare&#45;dunkerquois&#45;201 -->
<g id="node21" class="node">
<title>le&#45;phare&#45;dunkerquois&#45;201</title>
<ellipse fill="none" stroke="black" cx="1124.94" cy="-412" rx="94.34" ry="18"/>
<text text-anchor="middle" x="1124.94" y="-406.95" font-family="Times,serif" font-size="14.00">Le Phare Dunkerquois</text>
</g>
<!-- la&#45;voix&#45;du&#45;nord&#45;sa&#45;185&#45;&gt;le&#45;phare&#45;dunkerquois&#45;201 -->
<g id="edge20" class="edge">
<title>la&#45;voix&#45;du&#45;nord&#45;sa&#45;185&#45;&gt;le&#45;phare&#45;dunkerquois&#45;201</title>
<path fill="none" stroke="black" d="M758.05,-693.17C768.35,-650.92 803.64,-528.85 880.1,-465.5 918.73,-433.5 972.26,-419.5 1019.34,-413.76"/>
<polygon fill="black" stroke="black" points="1019.65,-417.14 1029.21,-412.57 1018.88,-410.18 1019.65,-417.14"/>
<text text-anchor="middle" x="919.48" y="-468.2" font-family="Times,serif" font-size="14.00">possède 100%</text>
</g>
<!-- le&#45;reveil&#45;de&#45;berck&#45;203 -->
<g id="node22" class="node">
<title>le&#45;reveil&#45;de&#45;berck&#45;203</title>
<ellipse fill="none" stroke="black" cx="1124.94" cy="-358" rx="83.08" ry="18"/>
<text text-anchor="middle" x="1124.94" y="-352.95" font-family="Times,serif" font-size="14.00">Le Réveil de Berck</text>
</g>
<!-- la&#45;voix&#45;du&#45;nord&#45;sa&#45;185&#45;&gt;le&#45;reveil&#45;de&#45;berck&#45;203 -->
<g id="edge21" class="edge">
<title>la&#45;voix&#45;du&#45;nord&#45;sa&#45;185&#45;&gt;le&#45;reveil&#45;de&#45;berck&#45;203</title>
<path fill="none" stroke="black" d="M756.19,-692.94C761.89,-643.42 787.02,-484.28 880.1,-405.5 921.81,-370.2 981.96,-358.2 1032.08,-355.09"/>
<polygon fill="black" stroke="black" points="1032.13,-358.55 1041.94,-354.55 1031.78,-351.55 1032.13,-358.55"/>
<text text-anchor="middle" x="919.48" y="-408.2" font-family="Times,serif" font-size="14.00">possède 100%</text>
</g>
<!-- les&#45;echos&#45;du&#45;touquet&#45;194 -->
<g id="node23" class="node">
<title>les&#45;echos&#45;du&#45;touquet&#45;194</title>
<ellipse fill="none" stroke="black" cx="1124.94" cy="-304" rx="93.83" ry="18"/>
<text text-anchor="middle" x="1124.94" y="-298.95" font-family="Times,serif" font-size="14.00">Les Echos du Touquet</text>
</g>
<!-- la&#45;voix&#45;du&#45;nord&#45;sa&#45;185&#45;&gt;les&#45;echos&#45;du&#45;touquet&#45;194 -->
<g id="edge22" class="edge">
<title>la&#45;voix&#45;du&#45;nord&#45;sa&#45;185&#45;&gt;les&#45;echos&#45;du&#45;touquet&#45;194</title>
<path fill="none" stroke="black" d="M754.88,-693.06C756.37,-637.4 769.55,-440.55 880.1,-346.5 919.43,-313.04 975.56,-301.63 1024.05,-298.94"/>
<polygon fill="black" stroke="black" points="1024.07,-302.4 1033.91,-298.47 1023.77,-295.41 1024.07,-302.4"/>
<text text-anchor="middle" x="919.48" y="-349.2" font-family="Times,serif" font-size="14.00">possède 100%</text>
</g>
<!-- nord&#45;eclair&#45;187 -->
<g id="node24" class="node">
<title>nord&#45;eclair&#45;187</title>
<ellipse fill="none" stroke="black" cx="1124.94" cy="-250" rx="52.89" ry="18"/>
<text text-anchor="middle" x="1124.94" y="-244.95" font-family="Times,serif" font-size="14.00">Nord éclair</text>
</g>
<!-- la&#45;voix&#45;du&#45;nord&#45;sa&#45;185&#45;&gt;nord&#45;eclair&#45;187 -->
<g id="edge23" class="edge">
<title>la&#45;voix&#45;du&#45;nord&#45;sa&#45;185&#45;&gt;nord&#45;eclair&#45;187</title>
<path fill="none" stroke="black" d="M757.01,-693.02C767.81,-624.71 815.63,-343.68 880.1,-287.5 930.55,-243.54 1010.24,-239.27 1064.69,-242.62"/>
<polygon fill="black" stroke="black" points="1064.34,-246.17 1074.57,-243.41 1064.85,-239.19 1064.34,-246.17"/>
<text text-anchor="middle" x="919.48" y="-290.2" font-family="Times,serif" font-size="14.00">possède 100%</text>
</g>
<!-- nord&#45;littoral&#45;188 -->
<g id="node25" class="node">
<title>nord&#45;littoral&#45;188</title>
<ellipse fill="none" stroke="black" cx="1124.94" cy="-196" rx="60.05" ry="18"/>
<text text-anchor="middle" x="1124.94" y="-190.95" font-family="Times,serif" font-size="14.00">Nord Littoral</text>
</g>
<!-- la&#45;voix&#45;du&#45;nord&#45;sa&#45;185&#45;&gt;nord&#45;littoral&#45;188 -->
<g id="edge24" class="edge">
<title>la&#45;voix&#45;du&#45;nord&#45;sa&#45;185&#45;&gt;nord&#45;littoral&#45;188</title>
<path fill="none" stroke="black" d="M756.42,-692.97C765.18,-618.95 807.34,-294.03 880.1,-229.5 928.7,-186.4 1005.57,-182.67 1059.99,-186.76"/>
<polygon fill="black" stroke="black" points="1059.64,-190.33 1069.9,-187.7 1060.24,-183.35 1059.64,-190.33"/>
<text text-anchor="middle" x="919.48" y="-232.2" font-family="Times,serif" font-size="14.00">possède 100%</text>
</g>
</g>
</svg>
