<?xml version="1.0" encoding="UTF-8" standalone="no"?>
<!DOCTYPE svg PUBLIC "-//W3C//DTD SVG 1.1//EN"
 "http://www.w3.org/Graphics/SVG/1.1/DTD/svg11.dtd">
<!-- Generated by graphviz version 7.1.0 (20230121.1956)
 -->
<!-- Pages: 1 -->
<svg width="1266pt" height="1318pt"
 viewBox="0.00 0.00 1266.41 1318.00" xmlns="http://www.w3.org/2000/svg" xmlns:xlink="http://www.w3.org/1999/xlink">
<g id="graph0" class="graph" transform="scale(1 1) rotate(0) translate(4 1314)">
<polygon fill="white" stroke="none" points="-4,4 -4,-1314 1262.41,-1314 1262.41,4 -4,4"/>
<g id="clust2" class="cluster">
<title>clusterLeaves</title>
<polygon fill="none" stroke="black" points="951.03,-8 951.03,-1302 1250.41,-1302 1250.41,-8 951.03,-8"/>
</g>
<!-- credit&#45;agricole&#45;nord&#45;de&#45;france&#45;172 -->
<g id="node1" class="node">
<title>credit&#45;agricole&#45;nord&#45;de&#45;france&#45;172</title>
<polygon fill="none" stroke="black" points="189,-132 0,-132 0,-96 189,-96 189,-132"/>
<text text-anchor="middle" x="94.5" y="-110.3" font-family="Times,serif" font-size="14.00">Crédit Agricole Nord de France</text>
</g>
<!-- groupe&#45;rossel&#45;la&#45;voix&#45;184 -->
<g id="node2" class="node">
<title>groupe&#45;rossel&#45;la&#45;voix&#45;184</title>
<polygon fill="none" stroke="black" points="527.65,-119.56 412.88,-132 298.12,-119.56 298.22,-99.44 527.54,-99.44 527.65,-119.56"/>
<text text-anchor="middle" x="412.88" y="-110.3" font-family="Times,serif" font-size="14.00">Groupe Rossel La Voix</text>
</g>
<!-- credit&#45;agricole&#45;nord&#45;de&#45;france&#45;172&#45;&gt;groupe&#45;rossel&#45;la&#45;voix&#45;184 -->
<g id="edge1" class="edge">
<title>credit&#45;agricole&#45;nord&#45;de&#45;france&#45;172&#45;&gt;groupe&#45;rossel&#45;la&#45;voix&#45;184</title>
<path fill="none" stroke="black" d="M189.14,-114C219.62,-114 253.96,-114 286.38,-114"/>
<polygon fill="black" stroke="black" points="286.25,-117.5 296.25,-114 286.25,-110.5 286.25,-117.5"/>
<text text-anchor="middle" x="243.5" y="-117.8" font-family="Times,serif" font-size="14.00">possède 25%</text>
</g>
<!-- la&#45;voix&#45;du&#45;nord&#45;sa&#45;185 -->
<g id="node3" class="node">
<title>la&#45;voix&#45;du&#45;nord&#45;sa&#45;185</title>
<polygon fill="none" stroke="black" points="844.17,-714.56 740.4,-727 636.63,-714.56 636.73,-694.44 844.07,-694.44 844.17,-714.56"/>
<text text-anchor="middle" x="740.4" y="-705.3" font-family="Times,serif" font-size="14.00">La Voix du Nord SA</text>
</g>
<!-- groupe&#45;rossel&#45;la&#45;voix&#45;184&#45;&gt;la&#45;voix&#45;du&#45;nord&#45;sa&#45;185 -->
<g id="edge3" class="edge">
<title>groupe&#45;rossel&#45;la&#45;voix&#45;184&#45;&gt;la&#45;voix&#45;du&#45;nord&#45;sa&#45;185</title>
<path fill="none" stroke="black" d="M423.27,-131.17C469.29,-215.28 670.96,-583.91 725.67,-683.9"/>
<polygon fill="black" stroke="black" points="722.59,-685.56 730.46,-692.66 728.73,-682.2 722.59,-685.56"/>
<text text-anchor="middle" x="582.26" y="-485.8" font-family="Times,serif" font-size="14.00">possède 96%</text>
</g>
<!-- 20&#45;minutes&#45;182 -->
<g id="node4" class="node">
<title>20&#45;minutes&#45;182</title>
<ellipse fill="none" stroke="black" cx="1100.72" cy="-142" rx="51.19" ry="18"/>
<text text-anchor="middle" x="1100.72" y="-138.3" font-family="Times,serif" font-size="14.00">20 Minutes</text>
</g>
<!-- groupe&#45;rossel&#45;la&#45;voix&#45;184&#45;&gt;20&#45;minutes&#45;182 -->
<g id="edge2" class="edge">
<title>groupe&#45;rossel&#45;la&#45;voix&#45;184&#45;&gt;20&#45;minutes&#45;182</title>
<path fill="none" stroke="black" d="M526.83,-120.11C533.23,-120.42 539.58,-120.72 545.76,-121 724.43,-129.13 935.62,-136.52 1037.96,-139.96"/>
<polygon fill="black" stroke="black" points="1037.68,-143.46 1047.79,-140.29 1037.91,-136.46 1037.68,-143.46"/>
<text text-anchor="middle" x="740.4" y="-135.8" font-family="Times,serif" font-size="14.00">possède 49%</text>
</g>
<!-- normandie&#45;dimanche&#45;291 -->
<g id="node26" class="node">
<title>normandie&#45;dimanche&#45;291</title>
<ellipse fill="none" stroke="black" cx="1100.72" cy="-88" rx="89.88" ry="18"/>
<text text-anchor="middle" x="1100.72" y="-84.3" font-family="Times,serif" font-size="14.00">Normandie Dimanche</text>
</g>
<!-- groupe&#45;rossel&#45;la&#45;voix&#45;184&#45;&gt;normandie&#45;dimanche&#45;291 -->
<g id="edge25" class="edge">
<title>groupe&#45;rossel&#45;la&#45;voix&#45;184&#45;&gt;normandie&#45;dimanche&#45;291</title>
<path fill="none" stroke="black" d="M527.83,-108.66C562.78,-107.08 601.35,-105.41 636.76,-104 761.93,-99.03 906.16,-94.18 999.93,-91.15"/>
<polygon fill="black" stroke="black" points="1000,-94.65 1009.88,-90.83 999.77,-87.66 1000,-94.65"/>
<text text-anchor="middle" x="740.4" y="-107.8" font-family="Times,serif" font-size="14.00">possède 100%</text>
</g>
<!-- paris&#45;normandie&#45;286 -->
<g id="node27" class="node">
<title>paris&#45;normandie&#45;286</title>
<ellipse fill="none" stroke="black" cx="1100.72" cy="-34" rx="71.49" ry="18"/>
<text text-anchor="middle" x="1100.72" y="-30.3" font-family="Times,serif" font-size="14.00">Paris&#45;Normandie</text>
</g>
<!-- groupe&#45;rossel&#45;la&#45;voix&#45;184&#45;&gt;paris&#45;normandie&#45;286 -->
<g id="edge26" class="edge">
<title>groupe&#45;rossel&#45;la&#45;voix&#45;184&#45;&gt;paris&#45;normandie&#45;286</title>
<path fill="none" stroke="black" d="M498.63,-98.98C540.17,-91.95 590.99,-83.87 636.76,-78 771.1,-60.79 928.18,-47.24 1020.5,-39.94"/>
<polygon fill="black" stroke="black" points="1020.51,-43.45 1030.2,-39.18 1019.96,-36.48 1020.51,-43.45"/>
<text text-anchor="middle" x="740.4" y="-81.8" font-family="Times,serif" font-size="14.00">possède 100%</text>
</g>
<!-- courrier&#45;picard&#45;189 -->
<g id="node5" class="node">
<title>courrier&#45;picard&#45;189</title>
<ellipse fill="none" stroke="black" cx="1100.72" cy="-1276" rx="64.99" ry="18"/>
<text text-anchor="middle" x="1100.72" y="-1272.3" font-family="Times,serif" font-size="14.00">Courrier picard</text>
</g>
<!-- la&#45;voix&#45;du&#45;nord&#45;sa&#45;185&#45;&gt;courrier&#45;picard&#45;189 -->
<g id="edge4" class="edge">
<title>la&#45;voix&#45;du&#45;nord&#45;sa&#45;185&#45;&gt;courrier&#45;picard&#45;189</title>
<path fill="none" stroke="black" d="M742.89,-727.17C750.18,-811.59 784.95,-1164.55 862.03,-1237 906.25,-1278.56 976.7,-1285.53 1029.45,-1283.78"/>
<polygon fill="black" stroke="black" points="1029.41,-1287.28 1039.24,-1283.33 1029.09,-1280.29 1029.41,-1287.28"/>
<text text-anchor="middle" x="901.53" y="-1277.8" font-family="Times,serif" font-size="14.00">possède 100%</text>
</g>
<!-- l&#45;aisne&#45;nouvelle&#45;190 -->
<g id="node6" class="node">
<title>l&#45;aisne&#45;nouvelle&#45;190</title>
<ellipse fill="none" stroke="black" cx="1100.72" cy="-1222" rx="71.49" ry="18"/>
<text text-anchor="middle" x="1100.72" y="-1218.3" font-family="Times,serif" font-size="14.00">L’aisne Nouvelle</text>
</g>
<!-- la&#45;voix&#45;du&#45;nord&#45;sa&#45;185&#45;&gt;l&#45;aisne&#45;nouvelle&#45;190 -->
<g id="edge5" class="edge">
<title>la&#45;voix&#45;du&#45;nord&#45;sa&#45;185&#45;&gt;l&#45;aisne&#45;nouvelle&#45;190</title>
<path fill="none" stroke="black" d="M743.42,-727.01C752.61,-805.41 792.93,-1115.95 862.03,-1180 904.46,-1219.33 970.26,-1228.45 1021.88,-1228.51"/>
<polygon fill="black" stroke="black" points="1021.86,-1232.01 1031.81,-1228.4 1021.77,-1225.01 1021.86,-1232.01"/>
<text text-anchor="middle" x="901.53" y="-1221.8" font-family="Times,serif" font-size="14.00">possède 100%</text>
</g>
<!-- l&#45;avenir&#45;de&#45;l&#45;artois&#45;193 -->
<g id="node7" class="node">
<title>l&#45;avenir&#45;de&#45;l&#45;artois&#45;193</title>
<ellipse fill="none" stroke="black" cx="1100.72" cy="-1168" rx="83.39" ry="18"/>
<text text-anchor="middle" x="1100.72" y="-1164.3" font-family="Times,serif" font-size="14.00">L’Avenir de l’Artois</text>
</g>
<!-- la&#45;voix&#45;du&#45;nord&#45;sa&#45;185&#45;&gt;l&#45;avenir&#45;de&#45;l&#45;artois&#45;193 -->
<g id="edge6" class="edge">
<title>la&#45;voix&#45;du&#45;nord&#45;sa&#45;185&#45;&gt;l&#45;avenir&#45;de&#45;l&#45;artois&#45;193</title>
<path fill="none" stroke="black" d="M744.13,-726.96C755.48,-799.16 801.14,-1067.01 862.03,-1123 901.19,-1159 959.77,-1170.39 1008.97,-1172.72"/>
<polygon fill="black" stroke="black" points="1008.66,-1176.21 1018.77,-1173.05 1008.9,-1169.21 1008.66,-1176.21"/>
<text text-anchor="middle" x="901.53" y="-1164.8" font-family="Times,serif" font-size="14.00">possède 100%</text>
</g>
<!-- l&#45;echo&#45;de&#45;la&#45;lys&#45;206 -->
<g id="node8" class="node">
<title>l&#45;echo&#45;de&#45;la&#45;lys&#45;206</title>
<ellipse fill="none" stroke="black" cx="1100.72" cy="-1114" rx="71.49" ry="18"/>
<text text-anchor="middle" x="1100.72" y="-1110.3" font-family="Times,serif" font-size="14.00">L’Echo de la Lys</text>
</g>
<!-- la&#45;voix&#45;du&#45;nord&#45;sa&#45;185&#45;&gt;l&#45;echo&#45;de&#45;la&#45;lys&#45;206 -->
<g id="edge7" class="edge">
<title>la&#45;voix&#45;du&#45;nord&#45;sa&#45;185&#45;&gt;l&#45;echo&#45;de&#45;la&#45;lys&#45;206</title>
<path fill="none" stroke="black" d="M741.77,-726.97C744,-785.22 759.21,-970.5 862.03,-1065 904,-1103.56 967.98,-1115.06 1018.99,-1117.32"/>
<polygon fill="black" stroke="black" points="1018.71,-1120.81 1028.82,-1117.63 1018.93,-1113.81 1018.71,-1120.81"/>
<text text-anchor="middle" x="901.53" y="-1107.8" font-family="Times,serif" font-size="14.00">possède 100%</text>
</g>
<!-- l&#45;essor&#45;savoyard&#45;197 -->
<g id="node9" class="node">
<title>l&#45;essor&#45;savoyard&#45;197</title>
<ellipse fill="none" stroke="black" cx="1100.72" cy="-1060" rx="72.29" ry="18"/>
<text text-anchor="middle" x="1100.72" y="-1056.3" font-family="Times,serif" font-size="14.00">L’Essor savoyard</text>
</g>
<!-- la&#45;voix&#45;du&#45;nord&#45;sa&#45;185&#45;&gt;l&#45;essor&#45;savoyard&#45;197 -->
<g id="edge8" class="edge">
<title>la&#45;voix&#45;du&#45;nord&#45;sa&#45;185&#45;&gt;l&#45;essor&#45;savoyard&#45;197</title>
<path fill="none" stroke="black" d="M743.37,-727.06C749.96,-778.54 775.91,-927.4 862.03,-1006 903.73,-1044.06 966.52,-1057.11 1017.1,-1060.89"/>
<polygon fill="black" stroke="black" points="1016.64,-1064.37 1026.84,-1061.5 1017.07,-1057.38 1016.64,-1064.37"/>
<text text-anchor="middle" x="901.53" y="-1049.8" font-family="Times,serif" font-size="14.00">possède 100%</text>
</g>
<!-- l&#45;est&#45;eclair&#45;liberation&#45;champagne&#45;192 -->
<g id="node10" class="node">
<title>l&#45;est&#45;eclair&#45;liberation&#45;champagne&#45;192</title>
<ellipse fill="none" stroke="black" cx="1100.72" cy="-1006" rx="141.88" ry="18"/>
<text text-anchor="middle" x="1100.72" y="-1002.3" font-family="Times,serif" font-size="14.00">L’Est&#45;éclair &#45; Libération Champagne</text>
</g>
<!-- la&#45;voix&#45;du&#45;nord&#45;sa&#45;185&#45;&gt;l&#45;est&#45;eclair&#45;liberation&#45;champagne&#45;192 -->
<g id="edge9" class="edge">
<title>la&#45;voix&#45;du&#45;nord&#45;sa&#45;185&#45;&gt;l&#45;est&#45;eclair&#45;liberation&#45;champagne&#45;192</title>
<path fill="none" stroke="black" d="M745.54,-726.73C756.65,-770.45 791.2,-884.45 862.03,-947 890.05,-971.74 926.85,-986.45 963.1,-995.09"/>
<polygon fill="black" stroke="black" points="962.33,-998.51 972.85,-997.26 963.84,-991.67 962.33,-998.51"/>
<text text-anchor="middle" x="901.53" y="-990.8" font-family="Times,serif" font-size="14.00">possède 100%</text>
</g>
<!-- l&#45;indicateur&#45;205 -->
<g id="node11" class="node">
<title>l&#45;indicateur&#45;205</title>
<ellipse fill="none" stroke="black" cx="1100.72" cy="-952" rx="53.89" ry="18"/>
<text text-anchor="middle" x="1100.72" y="-948.3" font-family="Times,serif" font-size="14.00">L’indicateur</text>
</g>
<!-- la&#45;voix&#45;du&#45;nord&#45;sa&#45;185&#45;&gt;l&#45;indicateur&#45;205 -->
<g id="edge10" class="edge">
<title>la&#45;voix&#45;du&#45;nord&#45;sa&#45;185&#45;&gt;l&#45;indicateur&#45;205</title>
<path fill="none" stroke="black" d="M748.81,-726.22C764.68,-761.27 805.19,-841.48 862.03,-888 911.23,-928.26 983.5,-943.34 1035.43,-948.91"/>
<polygon fill="black" stroke="black" points="1035.04,-952.39 1045.33,-949.87 1035.72,-945.42 1035.04,-952.39"/>
<text text-anchor="middle" x="901.53" y="-931.8" font-family="Times,serif" font-size="14.00">possède 100%</text>
</g>
<!-- l&#45;union&#45;l&#45;ardennais&#45;191 -->
<g id="node12" class="node">
<title>l&#45;union&#45;l&#45;ardennais&#45;191</title>
<ellipse fill="none" stroke="black" cx="1100.72" cy="-898" rx="92.08" ry="18"/>
<text text-anchor="middle" x="1100.72" y="-894.3" font-family="Times,serif" font-size="14.00">L’Union &#45; L’Ardennais</text>
</g>
<!-- la&#45;voix&#45;du&#45;nord&#45;sa&#45;185&#45;&gt;l&#45;union&#45;l&#45;ardennais&#45;191 -->
<g id="edge11" class="edge">
<title>la&#45;voix&#45;du&#45;nord&#45;sa&#45;185&#45;&gt;l&#45;union&#45;l&#45;ardennais&#45;191</title>
<path fill="none" stroke="black" d="M754.24,-725.72C774.7,-751.42 816.98,-800.91 862.03,-832 905.19,-861.78 961.43,-878.17 1008.38,-887.17"/>
<polygon fill="black" stroke="black" points="1007.52,-890.57 1017.98,-888.92 1008.78,-883.69 1007.52,-890.57"/>
<text text-anchor="middle" x="901.53" y="-872.8" font-family="Times,serif" font-size="14.00">possède 100%</text>
</g>
<!-- la&#45;savoie&#45;200 -->
<g id="node13" class="node">
<title>la&#45;savoie&#45;200</title>
<ellipse fill="none" stroke="black" cx="1100.72" cy="-844" rx="46.29" ry="18"/>
<text text-anchor="middle" x="1100.72" y="-840.3" font-family="Times,serif" font-size="14.00">La Savoie</text>
</g>
<!-- la&#45;voix&#45;du&#45;nord&#45;sa&#45;185&#45;&gt;la&#45;savoie&#45;200 -->
<g id="edge12" class="edge">
<title>la&#45;voix&#45;du&#45;nord&#45;sa&#45;185&#45;&gt;la&#45;savoie&#45;200</title>
<path fill="none" stroke="black" d="M765.86,-724.38C789.9,-739.21 827.83,-761.86 862.03,-779 900.48,-798.27 909.84,-804.64 951.03,-817 981.51,-826.15 1016.49,-832.69 1044.86,-837.04"/>
<polygon fill="black" stroke="black" points="1044.27,-840.49 1054.68,-838.49 1045.3,-833.57 1044.27,-840.49"/>
<text text-anchor="middle" x="901.53" y="-816.8" font-family="Times,serif" font-size="14.00">possède 100%</text>
</g>
<!-- la&#45;semaine&#45;dans&#45;le&#45;boulonnais&#45;202 -->
<g id="node14" class="node">
<title>la&#45;semaine&#45;dans&#45;le&#45;boulonnais&#45;202</title>
<ellipse fill="none" stroke="black" cx="1100.72" cy="-790" rx="122.68" ry="18"/>
<text text-anchor="middle" x="1100.72" y="-786.3" font-family="Times,serif" font-size="14.00">La Semaine dans le Boulonnais</text>
</g>
<!-- la&#45;voix&#45;du&#45;nord&#45;sa&#45;185&#45;&gt;la&#45;semaine&#45;dans&#45;le&#45;boulonnais&#45;202 -->
<g id="edge13" class="edge">
<title>la&#45;voix&#45;du&#45;nord&#45;sa&#45;185&#45;&gt;la&#45;semaine&#45;dans&#45;le&#45;boulonnais&#45;202</title>
<path fill="none" stroke="black" d="M786.84,-721.84C809.4,-728.11 837.1,-735.65 862.03,-742 901.42,-752.03 911.25,-754.7 951.03,-763 969.41,-766.83 989.13,-770.63 1008.01,-774.12"/>
<polygon fill="black" stroke="black" points="1007.37,-777.56 1017.83,-775.92 1008.63,-770.67 1007.37,-777.56"/>
<text text-anchor="middle" x="901.53" y="-763.8" font-family="Times,serif" font-size="14.00">possède 100%</text>
</g>
<!-- la&#45;tribune&#45;republicaine&#45;199 -->
<g id="node15" class="node">
<title>la&#45;tribune&#45;republicaine&#45;199</title>
<ellipse fill="none" stroke="black" cx="1100.72" cy="-736" rx="95.58" ry="18"/>
<text text-anchor="middle" x="1100.72" y="-732.3" font-family="Times,serif" font-size="14.00">La Tribune républicaine</text>
</g>
<!-- la&#45;voix&#45;du&#45;nord&#45;sa&#45;185&#45;&gt;la&#45;tribune&#45;republicaine&#45;199 -->
<g id="edge14" class="edge">
<title>la&#45;voix&#45;du&#45;nord&#45;sa&#45;185&#45;&gt;la&#45;tribune&#45;republicaine&#45;199</title>
<path fill="none" stroke="black" d="M835.54,-716.09C886.05,-719.9 948.29,-724.59 999.67,-728.46"/>
<polygon fill="black" stroke="black" points="999.39,-731.95 1009.62,-729.21 999.92,-724.97 999.39,-731.95"/>
<text text-anchor="middle" x="901.53" y="-726.8" font-family="Times,serif" font-size="14.00">possède 100%</text>
</g>
<!-- la&#45;voix&#45;du&#45;nord&#45;186 -->
<g id="node16" class="node">
<title>la&#45;voix&#45;du&#45;nord&#45;186</title>
<ellipse fill="none" stroke="black" cx="1100.72" cy="-682" rx="70.39" ry="18"/>
<text text-anchor="middle" x="1100.72" y="-678.3" font-family="Times,serif" font-size="14.00">La Voix du Nord</text>
</g>
<!-- la&#45;voix&#45;du&#45;nord&#45;sa&#45;185&#45;&gt;la&#45;voix&#45;du&#45;nord&#45;186 -->
<g id="edge15" class="edge">
<title>la&#45;voix&#45;du&#45;nord&#45;sa&#45;185&#45;&gt;la&#45;voix&#45;du&#45;nord&#45;186</title>
<path fill="none" stroke="black" d="M844.39,-700.38C850.36,-699.91 856.27,-699.44 862.03,-699 914.99,-694.91 974.6,-690.65 1020.88,-687.41"/>
<polygon fill="black" stroke="black" points="1021.1,-690.91 1030.83,-686.72 1020.62,-683.92 1021.1,-690.91"/>
<text text-anchor="middle" x="901.53" y="-702.8" font-family="Times,serif" font-size="14.00">possède 100%</text>
</g>
<!-- le&#45;journal&#45;de&#45;montreuil&#45;204 -->
<g id="node17" class="node">
<title>le&#45;journal&#45;de&#45;montreuil&#45;204</title>
<ellipse fill="none" stroke="black" cx="1100.72" cy="-628" rx="96.68" ry="18"/>
<text text-anchor="middle" x="1100.72" y="-624.3" font-family="Times,serif" font-size="14.00">Le Journal de Montreuil</text>
</g>
<!-- la&#45;voix&#45;du&#45;nord&#45;sa&#45;185&#45;&gt;le&#45;journal&#45;de&#45;montreuil&#45;204 -->
<g id="edge16" class="edge">
<title>la&#45;voix&#45;du&#45;nord&#45;sa&#45;185&#45;&gt;le&#45;journal&#45;de&#45;montreuil&#45;204</title>
<path fill="none" stroke="black" d="M790.19,-693.98C812.06,-687.47 838.24,-679.98 862.03,-674 912.59,-661.29 969.95,-650.1 1015.65,-641.94"/>
<polygon fill="black" stroke="black" points="1015.98,-645.43 1025.22,-640.24 1014.76,-638.54 1015.98,-645.43"/>
<text text-anchor="middle" x="901.53" y="-677.8" font-family="Times,serif" font-size="14.00">possède 100%</text>
</g>
<!-- le&#45;journal&#45;des&#45;flandres&#45;195 -->
<g id="node18" class="node">
<title>le&#45;journal&#45;des&#45;flandres&#45;195</title>
<ellipse fill="none" stroke="black" cx="1100.72" cy="-574" rx="94.78" ry="18"/>
<text text-anchor="middle" x="1100.72" y="-570.3" font-family="Times,serif" font-size="14.00">Le Journal des Flandres</text>
</g>
<!-- la&#45;voix&#45;du&#45;nord&#45;sa&#45;185&#45;&gt;le&#45;journal&#45;des&#45;flandres&#45;195 -->
<g id="edge17" class="edge">
<title>la&#45;voix&#45;du&#45;nord&#45;sa&#45;185&#45;&gt;le&#45;journal&#45;des&#45;flandres&#45;195</title>
<path fill="none" stroke="black" d="M763.94,-694.12C787.74,-678.75 826.65,-654.59 862.03,-637 900.25,-618.01 910.05,-612.87 951.03,-601 970.6,-595.33 991.97,-590.62 1012.25,-586.8"/>
<polygon fill="black" stroke="black" points="1012.69,-590.28 1021.9,-585.05 1011.43,-583.39 1012.69,-590.28"/>
<text text-anchor="middle" x="901.53" y="-640.8" font-family="Times,serif" font-size="14.00">possède 100%</text>
</g>
<!-- le&#45;messager&#45;196 -->
<g id="node19" class="node">
<title>le&#45;messager&#45;196</title>
<ellipse fill="none" stroke="black" cx="1100.72" cy="-520" rx="56.59" ry="18"/>
<text text-anchor="middle" x="1100.72" y="-516.3" font-family="Times,serif" font-size="14.00">Le Messager</text>
</g>
<!-- la&#45;voix&#45;du&#45;nord&#45;sa&#45;185&#45;&gt;le&#45;messager&#45;196 -->
<g id="edge18" class="edge">
<title>la&#45;voix&#45;du&#45;nord&#45;sa&#45;185&#45;&gt;le&#45;messager&#45;196</title>
<path fill="none" stroke="black" d="M752.56,-694.16C772.24,-668.84 815.48,-616.95 862.03,-585 913.52,-549.67 983.57,-533.5 1034.27,-526.12"/>
<polygon fill="black" stroke="black" points="1034.49,-529.63 1043.92,-524.8 1033.54,-522.69 1034.49,-529.63"/>
<text text-anchor="middle" x="901.53" y="-588.8" font-family="Times,serif" font-size="14.00">possède 100%</text>
</g>
<!-- le&#45;pays&#45;gessien&#45;198 -->
<g id="node20" class="node">
<title>le&#45;pays&#45;gessien&#45;198</title>
<ellipse fill="none" stroke="black" cx="1100.72" cy="-466" rx="67.69" ry="18"/>
<text text-anchor="middle" x="1100.72" y="-462.3" font-family="Times,serif" font-size="14.00">Le Pays gessien</text>
</g>
<!-- la&#45;voix&#45;du&#45;nord&#45;sa&#45;185&#45;&gt;le&#45;pays&#45;gessien&#45;198 -->
<g id="edge19" class="edge">
<title>la&#45;voix&#45;du&#45;nord&#45;sa&#45;185&#45;&gt;le&#45;pays&#45;gessien&#45;198</title>
<path fill="none" stroke="black" d="M747.53,-694.13C762.28,-660.06 802.96,-575.66 862.03,-528 907.32,-491.47 971.85,-476.27 1022.24,-470.03"/>
<polygon fill="black" stroke="black" points="1022.37,-473.54 1031.91,-468.94 1021.58,-466.59 1022.37,-473.54"/>
<text text-anchor="middle" x="901.53" y="-531.8" font-family="Times,serif" font-size="14.00">possède 100%</text>
</g>
<!-- le&#45;phare&#45;dunkerquois&#45;201 -->
<g id="node21" class="node">
<title>le&#45;phare&#45;dunkerquois&#45;201</title>
<ellipse fill="none" stroke="black" cx="1100.72" cy="-412" rx="90.18" ry="18"/>
<text text-anchor="middle" x="1100.72" y="-408.3" font-family="Times,serif" font-size="14.00">Le Phare Dunkerquois</text>
</g>
<!-- la&#45;voix&#45;du&#45;nord&#45;sa&#45;185&#45;&gt;le&#45;phare&#45;dunkerquois&#45;201 -->
<g id="edge20" class="edge">
<title>la&#45;voix&#45;du&#45;nord&#45;sa&#45;185&#45;&gt;le&#45;phare&#45;dunkerquois&#45;201</title>
<path fill="none" stroke="black" d="M744.66,-694.16C754.61,-652.43 788.44,-532.91 862.03,-469 899.7,-436.29 952.9,-421.6 999.41,-415.28"/>
<polygon fill="black" stroke="black" points="999.77,-418.76 1009.27,-414.07 998.92,-411.82 999.77,-418.76"/>
<text text-anchor="middle" x="901.53" y="-472.8" font-family="Times,serif" font-size="14.00">possède 100%</text>
</g>
<!-- le&#45;reveil&#45;de&#45;berck&#45;203 -->
<g id="node22" class="node">
<title>le&#45;reveil&#45;de&#45;berck&#45;203</title>
<ellipse fill="none" stroke="black" cx="1100.72" cy="-358" rx="79.09" ry="18"/>
<text text-anchor="middle" x="1100.72" y="-354.3" font-family="Times,serif" font-size="14.00">Le Réveil de Berck</text>
</g>
<!-- la&#45;voix&#45;du&#45;nord&#45;sa&#45;185&#45;&gt;le&#45;reveil&#45;de&#45;berck&#45;203 -->
<g id="edge21" class="edge">
<title>la&#45;voix&#45;du&#45;nord&#45;sa&#45;185&#45;&gt;le&#45;reveil&#45;de&#45;berck&#45;203</title>
<path fill="none" stroke="black" d="M742.87,-693.95C748.46,-645.17 772.82,-489.93 862.03,-410 902.09,-374.11 961.11,-361.06 1010.31,-357"/>
<polygon fill="black" stroke="black" points="1010.37,-360.51 1020.1,-356.32 1009.88,-353.52 1010.37,-360.51"/>
<text text-anchor="middle" x="901.53" y="-413.8" font-family="Times,serif" font-size="14.00">possède 100%</text>
</g>
<!-- les&#45;echos&#45;du&#45;touquet&#45;194 -->
<g id="node23" class="node">
<title>les&#45;echos&#45;du&#45;touquet&#45;194</title>
<ellipse fill="none" stroke="black" cx="1100.72" cy="-304" rx="89.88" ry="18"/>
<text text-anchor="middle" x="1100.72" y="-300.3" font-family="Times,serif" font-size="14.00">Les Echos du Touquet</text>
</g>
<!-- la&#45;voix&#45;du&#45;nord&#45;sa&#45;185&#45;&gt;les&#45;echos&#45;du&#45;touquet&#45;194 -->
<g id="edge22" class="edge">
<title>la&#45;voix&#45;du&#45;nord&#45;sa&#45;185&#45;&gt;les&#45;echos&#45;du&#45;touquet&#45;194</title>
<path fill="none" stroke="black" d="M741.56,-694C743.02,-639.02 755.82,-446.71 862.03,-351 899.43,-317.31 953.79,-304.84 1001.09,-301.12"/>
<polygon fill="black" stroke="black" points="1001.06,-304.63 1010.81,-300.49 1000.61,-297.65 1001.06,-304.63"/>
<text text-anchor="middle" x="901.53" y="-354.8" font-family="Times,serif" font-size="14.00">possède 100%</text>
</g>
<!-- nord&#45;eclair&#45;187 -->
<g id="node24" class="node">
<title>nord&#45;eclair&#45;187</title>
<ellipse fill="none" stroke="black" cx="1100.72" cy="-250" rx="50.89" ry="18"/>
<text text-anchor="middle" x="1100.72" y="-246.3" font-family="Times,serif" font-size="14.00">Nord éclair</text>
</g>
<!-- la&#45;voix&#45;du&#45;nord&#45;sa&#45;185&#45;&gt;nord&#45;eclair&#45;187 -->
<g id="edge23" class="edge">
<title>la&#45;voix&#45;du&#45;nord&#45;sa&#45;185&#45;&gt;nord&#45;eclair&#45;187</title>
<path fill="none" stroke="black" d="M743.58,-694.22C753.83,-626.83 799.35,-349.53 862.03,-293 910.2,-249.57 986.91,-242.92 1040.11,-244.46"/>
<polygon fill="black" stroke="black" points="1039.77,-247.95 1049.9,-244.86 1040.05,-240.96 1039.77,-247.95"/>
<text text-anchor="middle" x="901.53" y="-296.8" font-family="Times,serif" font-size="14.00">possède 100%</text>
</g>
<!-- nord&#45;littoral&#45;188 -->
<g id="node25" class="node">
<title>nord&#45;littoral&#45;188</title>
<ellipse fill="none" stroke="black" cx="1100.72" cy="-196" rx="57.69" ry="18"/>
<text text-anchor="middle" x="1100.72" y="-192.3" font-family="Times,serif" font-size="14.00">Nord Littoral</text>
</g>
<!-- la&#45;voix&#45;du&#45;nord&#45;sa&#45;185&#45;&gt;nord&#45;littoral&#45;188 -->
<g id="edge24" class="edge">
<title>la&#45;voix&#45;du&#45;nord&#45;sa&#45;185&#45;&gt;nord&#45;littoral&#45;188</title>
<path fill="none" stroke="black" d="M743.02,-694.19C751.32,-621.25 791.41,-300.99 862.03,-236 908.22,-193.5 981.88,-187.07 1034.97,-189.03"/>
<polygon fill="black" stroke="black" points="1034.63,-192.52 1044.79,-189.52 1034.97,-185.53 1034.63,-192.52"/>
<text text-anchor="middle" x="901.53" y="-239.8" font-family="Times,serif" font-size="14.00">possède 100%</text>
</g>
</g>
</svg>
