<?xml version="1.0" encoding="UTF-8" standalone="no"?>
<!DOCTYPE svg PUBLIC "-//W3C//DTD SVG 1.1//EN"
 "http://www.w3.org/Graphics/SVG/1.1/DTD/svg11.dtd">
<!-- Generated by graphviz version 8.1.0 (20230707.0739)
 -->
<!-- Pages: 1 -->
<svg width="755pt" height="616pt"
 viewBox="0.00 0.00 755.13 616.00" xmlns="http://www.w3.org/2000/svg" xmlns:xlink="http://www.w3.org/1999/xlink">
<g id="graph0" class="graph" transform="scale(1 1) rotate(0) translate(4 612)">
<polygon fill="white" stroke="none" points="-4,4 -4,-612 751.13,-612 751.13,4 -4,4"/>
<g id="clust2" class="cluster">
<title>clusterLeaves</title>
<polygon fill="none" stroke="black" points="477.12,-8 477.12,-600 739.13,-600 739.13,-8 477.12,-8"/>
</g>
<!-- credit&#45;mutuel&#45;207 -->
<g id="node1" class="node">
<title>credit&#45;mutuel&#45;207</title>
<polygon fill="none" stroke="black" points="93.25,-322 0,-322 0,-286 93.25,-286 93.25,-322"/>
<text text-anchor="middle" x="46.62" y="-298.95" font-family="Times,serif" font-size="14.00">Crédit Mutuel</text>
</g>
<!-- groupe&#45;ebra&#45;208 -->
<g id="node2" class="node">
<title>groupe&#45;ebra&#45;208</title>
<polygon fill="none" stroke="black" points="370.37,-309.56 289.19,-322 208,-309.56 208.08,-289.44 370.3,-289.44 370.37,-309.56"/>
<text text-anchor="middle" x="289.19" y="-298.95" font-family="Times,serif" font-size="14.00">Groupe EBRA</text>
</g>
<!-- credit&#45;mutuel&#45;207&#45;&gt;groupe&#45;ebra&#45;208 -->
<g id="edge1" class="edge">
<title>credit&#45;mutuel&#45;207&#45;&gt;groupe&#45;ebra&#45;208</title>
<path fill="none" stroke="black" d="M93.72,-304C122.9,-304 161.64,-304 196.85,-304"/>
<polygon fill="black" stroke="black" points="196.65,-307.5 206.65,-304 196.65,-300.5 196.65,-307.5"/>
<text text-anchor="middle" x="150.62" y="-307.2" font-family="Times,serif" font-size="14.00">possède 100%</text>
</g>
<!-- dna&#45;211 -->
<g id="node3" class="node">
<title>dna&#45;211</title>
<ellipse fill="none" stroke="black" cx="608.13" cy="-574" rx="30.88" ry="18"/>
<text text-anchor="middle" x="608.13" y="-568.95" font-family="Times,serif" font-size="14.00">DNA</text>
</g>
<!-- groupe&#45;ebra&#45;208&#45;&gt;dna&#45;211 -->
<g id="edge2" class="edge">
<title>groupe&#45;ebra&#45;208&#45;&gt;dna&#45;211</title>
<path fill="none" stroke="black" d="M293.16,-321.76C300.97,-362.88 325.96,-465.29 388.37,-520 438.21,-563.69 517.89,-573.2 566.09,-574.64"/>
<polygon fill="black" stroke="black" points="565.98,-578.16 576.04,-574.84 566.11,-571.16 565.98,-578.16"/>
<text text-anchor="middle" x="427.75" y="-562.2" font-family="Times,serif" font-size="14.00">possède 100%</text>
</g>
<!-- l&#45;alsace&#45;213 -->
<g id="node4" class="node">
<title>l&#45;alsace&#45;213</title>
<ellipse fill="none" stroke="black" cx="608.13" cy="-520" rx="44.19" ry="18"/>
<text text-anchor="middle" x="608.13" y="-514.95" font-family="Times,serif" font-size="14.00">L’Alsace</text>
</g>
<!-- groupe&#45;ebra&#45;208&#45;&gt;l&#45;alsace&#45;213 -->
<g id="edge3" class="edge">
<title>groupe&#45;ebra&#45;208&#45;&gt;l&#45;alsace&#45;213</title>
<path fill="none" stroke="black" d="M296.52,-321.26C309.13,-353.31 340.34,-422.24 388.37,-461 435.52,-499.04 505.11,-512.67 553.07,-517.48"/>
<polygon fill="black" stroke="black" points="552.6,-521.04 562.87,-518.46 553.22,-514.07 552.6,-521.04"/>
<text text-anchor="middle" x="427.75" y="-502.2" font-family="Times,serif" font-size="14.00">possède 100%</text>
</g>
<!-- l&#45;est&#45;republicain&#45;209 -->
<g id="node5" class="node">
<title>l&#45;est&#45;republicain&#45;209</title>
<ellipse fill="none" stroke="black" cx="608.13" cy="-466" rx="74.89" ry="18"/>
<text text-anchor="middle" x="608.13" y="-460.95" font-family="Times,serif" font-size="14.00">L’Est républicain</text>
</g>
<!-- groupe&#45;ebra&#45;208&#45;&gt;l&#45;est&#45;republicain&#45;209 -->
<g id="edge4" class="edge">
<title>groupe&#45;ebra&#45;208&#45;&gt;l&#45;est&#45;republicain&#45;209</title>
<path fill="none" stroke="black" d="M302.14,-320.11C319.13,-342.02 352.23,-381.18 388.37,-405 430.5,-432.76 485.16,-448.01 529.31,-456.32"/>
<polygon fill="black" stroke="black" points="528.54,-459.92 539,-458.23 529.77,-453.03 528.54,-459.92"/>
<text text-anchor="middle" x="427.75" y="-443.2" font-family="Times,serif" font-size="14.00">possède 100%</text>
</g>
<!-- le&#45;bien&#45;public&#45;214 -->
<g id="node6" class="node">
<title>le&#45;bien&#45;public&#45;214</title>
<ellipse fill="none" stroke="black" cx="608.13" cy="-412" rx="66.19" ry="18"/>
<text text-anchor="middle" x="608.13" y="-406.95" font-family="Times,serif" font-size="14.00">Le Bien public</text>
</g>
<!-- groupe&#45;ebra&#45;208&#45;&gt;le&#45;bien&#45;public&#45;214 -->
<g id="edge5" class="edge">
<title>groupe&#45;ebra&#45;208&#45;&gt;le&#45;bien&#45;public&#45;214</title>
<path fill="none" stroke="black" d="M312.85,-318.64C332.29,-330.72 361.36,-347.65 388.37,-359 436.97,-379.42 495.08,-393.03 539.19,-401.35"/>
<polygon fill="black" stroke="black" points="538.34,-404.93 548.81,-403.29 539.6,-398.05 538.34,-404.93"/>
<text text-anchor="middle" x="427.75" y="-387.2" font-family="Times,serif" font-size="14.00">possède 100%</text>
</g>
<!-- le&#45;dauphine&#45;libere&#45;217 -->
<g id="node7" class="node">
<title>le&#45;dauphine&#45;libere&#45;217</title>
<ellipse fill="none" stroke="black" cx="608.13" cy="-358" rx="82.57" ry="18"/>
<text text-anchor="middle" x="608.13" y="-352.95" font-family="Times,serif" font-size="14.00">Le Dauphiné libéré</text>
</g>
<!-- groupe&#45;ebra&#45;208&#45;&gt;le&#45;dauphine&#45;libere&#45;217 -->
<g id="edge6" class="edge">
<title>groupe&#45;ebra&#45;208&#45;&gt;le&#45;dauphine&#45;libere&#45;217</title>
<path fill="none" stroke="black" d="M338.51,-314.95C354.36,-318.37 372.08,-322.03 388.37,-325 433.81,-333.28 484.83,-341.06 526.16,-346.99"/>
<polygon fill="black" stroke="black" points="525.61,-350.59 536,-348.53 526.59,-343.66 525.61,-350.59"/>
<text text-anchor="middle" x="427.75" y="-341.2" font-family="Times,serif" font-size="14.00">possède 100%</text>
</g>
<!-- le&#45;journal&#45;de&#45;la&#45;haute&#45;marne&#45;219 -->
<g id="node8" class="node">
<title>le&#45;journal&#45;de&#45;la&#45;haute&#45;marne&#45;219</title>
<ellipse fill="none" stroke="black" cx="608.13" cy="-304" rx="123" ry="18"/>
<text text-anchor="middle" x="608.13" y="-298.95" font-family="Times,serif" font-size="14.00">Le Journal de la Haute&#45;Marne</text>
</g>
<!-- groupe&#45;ebra&#45;208&#45;&gt;le&#45;journal&#45;de&#45;la&#45;haute&#45;marne&#45;219 -->
<g id="edge7" class="edge">
<title>groupe&#45;ebra&#45;208&#45;&gt;le&#45;journal&#45;de&#45;la&#45;haute&#45;marne&#45;219</title>
<path fill="none" stroke="black" d="M370.58,-304C401.99,-304 438.86,-304 474.01,-304"/>
<polygon fill="black" stroke="black" points="473.86,-307.5 483.86,-304 473.86,-300.5 473.86,-307.5"/>
<text text-anchor="middle" x="427.75" y="-307.2" font-family="Times,serif" font-size="14.00">possède 50%</text>
</g>
<!-- le&#45;journal&#45;de&#45;saone&#45;et&#45;loire&#45;215 -->
<g id="node9" class="node">
<title>le&#45;journal&#45;de&#45;saone&#45;et&#45;loire&#45;215</title>
<ellipse fill="none" stroke="black" cx="608.13" cy="-250" rx="119.42" ry="18"/>
<text text-anchor="middle" x="608.13" y="-244.95" font-family="Times,serif" font-size="14.00">Le Journal de Saône&#45;et&#45;Loire</text>
</g>
<!-- groupe&#45;ebra&#45;208&#45;&gt;le&#45;journal&#45;de&#45;saone&#45;et&#45;loire&#45;215 -->
<g id="edge8" class="edge">
<title>groupe&#45;ebra&#45;208&#45;&gt;le&#45;journal&#45;de&#45;saone&#45;et&#45;loire&#45;215</title>
<path fill="none" stroke="black" d="M359.83,-288.98C369.4,-287.05 379.12,-285.17 388.37,-283.5 427.6,-276.41 470.96,-269.56 508.66,-263.93"/>
<polygon fill="black" stroke="black" points="508.76,-267.3 518.13,-262.37 507.73,-260.38 508.76,-267.3"/>
<text text-anchor="middle" x="427.75" y="-286.2" font-family="Times,serif" font-size="14.00">possède 100%</text>
</g>
<!-- le&#45;progres&#45;216 -->
<g id="node10" class="node">
<title>le&#45;progres&#45;216</title>
<ellipse fill="none" stroke="black" cx="608.13" cy="-196" rx="51.35" ry="18"/>
<text text-anchor="middle" x="608.13" y="-190.95" font-family="Times,serif" font-size="14.00">Le Progrès</text>
</g>
<!-- groupe&#45;ebra&#45;208&#45;&gt;le&#45;progres&#45;216 -->
<g id="edge9" class="edge">
<title>groupe&#45;ebra&#45;208&#45;&gt;le&#45;progres&#45;216</title>
<path fill="none" stroke="black" d="M313.67,-289.06C333.12,-277.16 361.78,-260.7 388.37,-249.5 440.97,-227.36 504.71,-213.07 549.78,-204.88"/>
<polygon fill="black" stroke="black" points="550.29,-208.17 559.53,-202.98 549.07,-201.28 550.29,-208.17"/>
<text text-anchor="middle" x="427.75" y="-252.2" font-family="Times,serif" font-size="14.00">possède 100%</text>
</g>
<!-- le&#45;republicain&#45;lorrain&#45;210 -->
<g id="node11" class="node">
<title>le&#45;republicain&#45;lorrain&#45;210</title>
<ellipse fill="none" stroke="black" cx="608.13" cy="-142" rx="94.86" ry="18"/>
<text text-anchor="middle" x="608.13" y="-136.95" font-family="Times,serif" font-size="14.00">Le Républicain lorrain</text>
</g>
<!-- groupe&#45;ebra&#45;208&#45;&gt;le&#45;republicain&#45;lorrain&#45;210 -->
<g id="edge10" class="edge">
<title>groupe&#45;ebra&#45;208&#45;&gt;le&#45;republicain&#45;lorrain&#45;210</title>
<path fill="none" stroke="black" d="M300.98,-289.25C317.56,-267.52 351.29,-226.87 388.37,-202.5 426.62,-177.36 475.19,-162.58 516.84,-153.94"/>
<polygon fill="black" stroke="black" points="517.42,-157.19 526.55,-151.81 516.06,-150.32 517.42,-157.19"/>
<text text-anchor="middle" x="427.75" y="-205.2" font-family="Times,serif" font-size="14.00">possède 100%</text>
</g>
<!-- vaucluse&#45;matin&#45;218 -->
<g id="node12" class="node">
<title>vaucluse&#45;matin&#45;218</title>
<ellipse fill="none" stroke="black" cx="608.13" cy="-88" rx="69.26" ry="18"/>
<text text-anchor="middle" x="608.13" y="-82.95" font-family="Times,serif" font-size="14.00">Vaucluse Matin</text>
</g>
<!-- groupe&#45;ebra&#45;208&#45;&gt;vaucluse&#45;matin&#45;218 -->
<g id="edge11" class="edge">
<title>groupe&#45;ebra&#45;208&#45;&gt;vaucluse&#45;matin&#45;218</title>
<path fill="none" stroke="black" d="M295.49,-288.96C307.26,-257.7 338.53,-185.28 388.37,-145.5 428.3,-113.64 484.12,-99.31 529.39,-92.92"/>
<polygon fill="black" stroke="black" points="529.59,-96.3 539.06,-91.54 528.69,-89.35 529.59,-96.3"/>
<text text-anchor="middle" x="427.75" y="-148.2" font-family="Times,serif" font-size="14.00">possède 100%</text>
</g>
<!-- vosges&#45;matin&#45;212 -->
<g id="node13" class="node">
<title>vosges&#45;matin&#45;212</title>
<ellipse fill="none" stroke="black" cx="608.13" cy="-34" rx="62.1" ry="18"/>
<text text-anchor="middle" x="608.13" y="-28.95" font-family="Times,serif" font-size="14.00">Vosges Matin</text>
</g>
<!-- groupe&#45;ebra&#45;208&#45;&gt;vosges&#45;matin&#45;212 -->
<g id="edge12" class="edge">
<title>groupe&#45;ebra&#45;208&#45;&gt;vosges&#45;matin&#45;212</title>
<path fill="none" stroke="black" d="M292.52,-289.03C299.47,-249.67 323.68,-142.48 388.37,-86.5 428.65,-51.65 488.1,-39.03 534.86,-34.85"/>
<polygon fill="black" stroke="black" points="534.84,-38.28 544.54,-34.02 534.3,-31.3 534.84,-38.28"/>
<text text-anchor="middle" x="427.75" y="-89.2" font-family="Times,serif" font-size="14.00">possède 100%</text>
</g>
</g>
</svg>
