<?xml version="1.0" encoding="UTF-8" standalone="no"?>
<!DOCTYPE svg PUBLIC "-//W3C//DTD SVG 1.1//EN"
 "http://www.w3.org/Graphics/SVG/1.1/DTD/svg11.dtd">
<!-- Generated by graphviz version 7.1.0 (20230121.1956)
 -->
<!-- Pages: 1 -->
<svg width="1632pt" height="832pt"
 viewBox="0.00 0.00 1632.31 832.00" xmlns="http://www.w3.org/2000/svg" xmlns:xlink="http://www.w3.org/1999/xlink">
<g id="graph0" class="graph" transform="scale(1 1) rotate(0) translate(4 828)">
<polygon fill="white" stroke="none" points="-4,4 -4,-828 1628.31,-828 1628.31,4 -4,4"/>
<g id="clust2" class="cluster">
<title>clusterLeaves</title>
<polygon fill="none" stroke="black" points="1388.43,-8 1388.43,-816 1616.31,-816 1616.31,-8 1388.43,-8"/>
</g>
<!-- daniel&#45;kretinsky&#45;92 -->
<g id="node1" class="node">
<title>daniel&#45;kretinsky&#45;92</title>
<polygon fill="none" stroke="black" points="124,-160 0,-160 0,-124 124,-124 124,-160"/>
<text text-anchor="middle" x="62" y="-138.3" font-family="Times,serif" font-size="14.00">🧑‍💼Daniel Křetínský</text>
</g>
<!-- czech&#45;media&#45;invest&#45;93 -->
<g id="node2" class="node">
<title>czech&#45;media&#45;invest&#45;93</title>
<polygon fill="none" stroke="black" points="435.68,-147.56 334.22,-160 232.77,-147.56 232.87,-127.44 435.58,-127.44 435.68,-147.56"/>
<text text-anchor="middle" x="334.22" y="-138.3" font-family="Times,serif" font-size="14.00">Czech Media Invest</text>
</g>
<!-- daniel&#45;kretinsky&#45;92&#45;&gt;czech&#45;media&#45;invest&#45;93 -->
<g id="edge1" class="edge">
<title>daniel&#45;kretinsky&#45;92&#45;&gt;czech&#45;media&#45;invest&#45;93</title>
<path fill="none" stroke="black" d="M124.32,-142C153,-142 188.08,-142 221.24,-142"/>
<polygon fill="black" stroke="black" points="220.89,-145.5 230.89,-142 220.89,-138.5 220.89,-145.5"/>
<text text-anchor="middle" x="178.5" y="-145.8" font-family="Times,serif" font-size="14.00">possède 50%</text>
</g>
<!-- le&#45;nouveau&#45;monde&#45;13 -->
<g id="node3" class="node">
<title>le&#45;nouveau&#45;monde&#45;13</title>
<polygon fill="none" stroke="black" points="747.13,-250.56 645.67,-263 544.22,-250.56 544.32,-230.44 747.03,-230.44 747.13,-250.56"/>
<text text-anchor="middle" x="645.67" y="-241.3" font-family="Times,serif" font-size="14.00">Le Nouveau Monde</text>
</g>
<!-- czech&#45;media&#45;invest&#45;93&#45;&gt;le&#45;nouveau&#45;monde&#45;13 -->
<g id="edge3" class="edge">
<title>czech&#45;media&#45;invest&#45;93&#45;&gt;le&#45;nouveau&#45;monde&#45;13</title>
<path fill="none" stroke="black" d="M357.25,-157.44C380.22,-172.81 417.78,-195.95 453.45,-209 478.57,-218.19 506.45,-225.14 532.97,-230.36"/>
<polygon fill="black" stroke="black" points="532.28,-233.79 542.76,-232.21 533.58,-226.91 532.28,-233.79"/>
<text text-anchor="middle" x="489.95" y="-231.8" font-family="Times,serif" font-size="14.00">possède 49%</text>
</g>
<!-- elle&#45;321 -->
<g id="node6" class="node">
<title>elle&#45;321</title>
<ellipse fill="none" stroke="black" cx="1502.37" cy="-196" rx="27" ry="18"/>
<text text-anchor="middle" x="1502.37" y="-192.3" font-family="Times,serif" font-size="14.00">Elle</text>
</g>
<!-- czech&#45;media&#45;invest&#45;93&#45;&gt;elle&#45;321 -->
<g id="edge2" class="edge">
<title>czech&#45;media&#45;invest&#45;93&#45;&gt;elle&#45;321</title>
<path fill="none" stroke="black" d="M380.68,-154.76C440.65,-170.44 549.7,-195 644.67,-195 644.67,-195 644.67,-195 1206.11,-195 1298.52,-195 1407.19,-195.5 1463.4,-195.79"/>
<polygon fill="black" stroke="black" points="1463.37,-199.29 1473.39,-195.84 1463.41,-192.29 1463.37,-199.29"/>
<text text-anchor="middle" x="937.84" y="-198.8" font-family="Times,serif" font-size="14.00">possède 100%</text>
</g>
<!-- marianne&#45;94 -->
<g id="node18" class="node">
<title>marianne&#45;94</title>
<ellipse fill="none" stroke="black" cx="1502.37" cy="-142" rx="44.69" ry="18"/>
<text text-anchor="middle" x="1502.37" y="-138.3" font-family="Times,serif" font-size="14.00">Marianne</text>
</g>
<!-- czech&#45;media&#45;invest&#45;93&#45;&gt;marianne&#45;94 -->
<g id="edge17" class="edge">
<title>czech&#45;media&#45;invest&#45;93&#45;&gt;marianne&#45;94</title>
<path fill="none" stroke="black" d="M435.92,-142C496.43,-142 574.97,-142 644.67,-142 644.67,-142 644.67,-142 1206.11,-142 1289.73,-142 1386.67,-142 1446,-142"/>
<polygon fill="black" stroke="black" points="1445.84,-145.5 1455.84,-142 1445.84,-138.5 1445.84,-145.5"/>
<text text-anchor="middle" x="937.84" y="-145.8" font-family="Times,serif" font-size="14.00">possède 91%</text>
</g>
<!-- tele&#45;7&#45;jours&#45;343 -->
<g id="node19" class="node">
<title>tele&#45;7&#45;jours&#45;343</title>
<ellipse fill="none" stroke="black" cx="1502.37" cy="-88" rx="53.89" ry="18"/>
<text text-anchor="middle" x="1502.37" y="-84.3" font-family="Times,serif" font-size="14.00">Télé 7 Jours</text>
</g>
<!-- czech&#45;media&#45;invest&#45;93&#45;&gt;tele&#45;7&#45;jours&#45;343 -->
<g id="edge18" class="edge">
<title>czech&#45;media&#45;invest&#45;93&#45;&gt;tele&#45;7&#45;jours&#45;343</title>
<path fill="none" stroke="black" d="M390.66,-126.96C452.22,-111.6 554.79,-90 644.67,-90 644.67,-90 644.67,-90 1206.11,-90 1285.57,-90 1377.06,-89.27 1436.87,-88.69"/>
<polygon fill="black" stroke="black" points="1436.55,-92.19 1446.52,-88.59 1436.48,-85.19 1436.55,-92.19"/>
<text text-anchor="middle" x="937.84" y="-93.8" font-family="Times,serif" font-size="14.00">possède 100%</text>
</g>
<!-- franc&#45;tireur&#45;346 -->
<g id="node20" class="node">
<title>franc&#45;tireur&#45;346</title>
<ellipse fill="none" stroke="black" cx="1502.37" cy="-34" rx="55.79" ry="18"/>
<text text-anchor="middle" x="1502.37" y="-30.3" font-family="Times,serif" font-size="14.00">Franc&#45;Tireur</text>
</g>
<!-- czech&#45;media&#45;invest&#45;93&#45;&gt;franc&#45;tireur&#45;346 -->
<g id="edge19" class="edge">
<title>czech&#45;media&#45;invest&#45;93&#45;&gt;franc&#45;tireur&#45;346</title>
<path fill="none" stroke="black" d="M360.3,-127.04C411.73,-97.82 533.65,-36 644.67,-36 644.67,-36 644.67,-36 1206.11,-36 1284.73,-36 1375.12,-35.28 1434.96,-34.71"/>
<polygon fill="black" stroke="black" points="1434.66,-38.21 1444.62,-34.61 1434.59,-31.21 1434.66,-38.21"/>
<text text-anchor="middle" x="937.84" y="-39.8" font-family="Times,serif" font-size="14.00">possède 100%</text>
</g>
<!-- le&#45;monde&#45;libre&#45;14 -->
<g id="node4" class="node">
<title>le&#45;monde&#45;libre&#45;14</title>
<polygon fill="none" stroke="black" points="1019.73,-255.56 937.84,-268 855.96,-255.56 856.03,-235.44 1019.66,-235.44 1019.73,-255.56"/>
<text text-anchor="middle" x="937.84" y="-246.3" font-family="Times,serif" font-size="14.00">Le Monde libre</text>
</g>
<!-- le&#45;nouveau&#45;monde&#45;13&#45;&gt;le&#45;monde&#45;libre&#45;14 -->
<g id="edge4" class="edge">
<title>le&#45;nouveau&#45;monde&#45;13&#45;&gt;le&#45;monde&#45;libre&#45;14</title>
<path fill="none" stroke="black" d="M747.35,-246.73C778.84,-247.28 813.42,-247.87 844.32,-248.41"/>
<polygon fill="black" stroke="black" points="843.95,-251.9 854.01,-248.57 844.07,-244.9 843.95,-251.9"/>
<text text-anchor="middle" x="801.4" y="-251.8" font-family="Times,serif" font-size="14.00">possède 26%</text>
</g>
<!-- le&#45;monde&#45;sa&#45;15 -->
<g id="node5" class="node">
<title>le&#45;monde&#45;sa&#45;15</title>
<polygon fill="none" stroke="black" points="1281.25,-525.56 1205.11,-538 1128.97,-525.56 1129.04,-505.44 1281.18,-505.44 1281.25,-525.56"/>
<text text-anchor="middle" x="1205.11" y="-516.3" font-family="Times,serif" font-size="14.00">Le Monde SA</text>
</g>
<!-- le&#45;monde&#45;libre&#45;14&#45;&gt;le&#45;monde&#45;sa&#45;15 -->
<g id="edge6" class="edge">
<title>le&#45;monde&#45;libre&#45;14&#45;&gt;le&#45;monde&#45;sa&#45;15</title>
<path fill="none" stroke="black" d="M954.25,-265.68C998.96,-311.19 1128.9,-443.45 1181.55,-497.04"/>
<polygon fill="black" stroke="black" points="1178.75,-499.18 1188.25,-503.86 1183.74,-494.28 1178.75,-499.18"/>
<text text-anchor="middle" x="1074.29" y="-427.8" font-family="Times,serif" font-size="14.00">possède 75%</text>
</g>
<!-- l&#45;obs&#45;16 -->
<g id="node7" class="node">
<title>l&#45;obs&#45;16</title>
<ellipse fill="none" stroke="black" cx="1502.37" cy="-250" rx="32.49" ry="18"/>
<text text-anchor="middle" x="1502.37" y="-246.3" font-family="Times,serif" font-size="14.00">L’Obs</text>
</g>
<!-- le&#45;monde&#45;libre&#45;14&#45;&gt;l&#45;obs&#45;16 -->
<g id="edge5" class="edge">
<title>le&#45;monde&#45;libre&#45;14&#45;&gt;l&#45;obs&#45;16</title>
<path fill="none" stroke="black" d="M1020.04,-250C1141.13,-250 1364.79,-250 1458.4,-250"/>
<polygon fill="black" stroke="black" points="1458.17,-253.5 1468.17,-250 1458.17,-246.5 1458.17,-253.5"/>
<text text-anchor="middle" x="1205.11" y="-253.8" font-family="Times,serif" font-size="14.00">possède 99%</text>
</g>
<!-- courrier&#45;international&#45;21 -->
<g id="node8" class="node">
<title>courrier&#45;international&#45;21</title>
<ellipse fill="none" stroke="black" cx="1502.37" cy="-790" rx="87.18" ry="18"/>
<text text-anchor="middle" x="1502.37" y="-786.3" font-family="Times,serif" font-size="14.00">Courrier international</text>
</g>
<!-- le&#45;monde&#45;sa&#45;15&#45;&gt;courrier&#45;international&#45;21 -->
<g id="edge7" class="edge">
<title>le&#45;monde&#45;sa&#45;15&#45;&gt;courrier&#45;international&#45;21</title>
<path fill="none" stroke="black" d="M1209.01,-537.86C1216.5,-578.24 1240.2,-677.3 1299.43,-732 1329.12,-759.42 1370.95,-773.97 1408.84,-781.66"/>
<polygon fill="black" stroke="black" points="1407.97,-785.05 1418.44,-783.46 1409.26,-778.17 1407.97,-785.05"/>
<text text-anchor="middle" x="1338.93" y="-775.8" font-family="Times,serif" font-size="14.00">possède 100%</text>
</g>
<!-- huffpost&#45;26 -->
<g id="node9" class="node">
<title>huffpost&#45;26</title>
<ellipse fill="none" stroke="black" cx="1502.37" cy="-736" rx="42.49" ry="18"/>
<text text-anchor="middle" x="1502.37" y="-732.3" font-family="Times,serif" font-size="14.00">HuffPost</text>
</g>
<!-- le&#45;monde&#45;sa&#45;15&#45;&gt;huffpost&#45;26 -->
<g id="edge8" class="edge">
<title>le&#45;monde&#45;sa&#45;15&#45;&gt;huffpost&#45;26</title>
<path fill="none" stroke="black" d="M1212.34,-537.14C1224.47,-568.3 1254.12,-634.55 1299.43,-673 1341.84,-708.99 1404.76,-724.45 1449.07,-731.07"/>
<polygon fill="black" stroke="black" points="1448.59,-734.54 1458.97,-732.43 1449.55,-727.6 1448.59,-734.54"/>
<text text-anchor="middle" x="1338.93" y="-716.8" font-family="Times,serif" font-size="14.00">possède 34%</text>
</g>
<!-- la&#45;vie&#45;23 -->
<g id="node10" class="node">
<title>la&#45;vie&#45;23</title>
<ellipse fill="none" stroke="black" cx="1502.37" cy="-682" rx="34.39" ry="18"/>
<text text-anchor="middle" x="1502.37" y="-678.3" font-family="Times,serif" font-size="14.00">La Vie</text>
</g>
<!-- le&#45;monde&#45;sa&#45;15&#45;&gt;la&#45;vie&#45;23 -->
<g id="edge9" class="edge">
<title>le&#45;monde&#45;sa&#45;15&#45;&gt;la&#45;vie&#45;23</title>
<path fill="none" stroke="black" d="M1218.12,-536.01C1234.52,-556.97 1265.77,-593.77 1299.43,-617 1347.74,-650.35 1414.17,-667.37 1457.44,-675.46"/>
<polygon fill="black" stroke="black" points="1456.77,-678.9 1467.23,-677.21 1458,-672.01 1456.77,-678.9"/>
<text text-anchor="middle" x="1338.93" y="-657.8" font-family="Times,serif" font-size="14.00">possède 100%</text>
</g>
<!-- le&#45;monde&#45;19 -->
<g id="node11" class="node">
<title>le&#45;monde&#45;19</title>
<ellipse fill="none" stroke="black" cx="1502.37" cy="-628" rx="48.19" ry="18"/>
<text text-anchor="middle" x="1502.37" y="-624.3" font-family="Times,serif" font-size="14.00">Le Monde</text>
</g>
<!-- le&#45;monde&#45;sa&#45;15&#45;&gt;le&#45;monde&#45;19 -->
<g id="edge10" class="edge">
<title>le&#45;monde&#45;sa&#45;15&#45;&gt;le&#45;monde&#45;19</title>
<path fill="none" stroke="black" d="M1229.25,-534.55C1247.75,-545.77 1274.61,-561.16 1299.43,-572 1347.74,-593.09 1406.04,-608.25 1447.56,-617.43"/>
<polygon fill="black" stroke="black" points="1446.81,-620.85 1457.32,-619.54 1448.29,-614.01 1446.81,-620.85"/>
<text text-anchor="middle" x="1338.93" y="-601.8" font-family="Times,serif" font-size="14.00">possède 100%</text>
</g>
<!-- le&#45;monde&#45;des&#45;religions&#45;22 -->
<g id="node12" class="node">
<title>le&#45;monde&#45;des&#45;religions&#45;22</title>
<ellipse fill="none" stroke="black" cx="1502.37" cy="-574" rx="94.78" ry="18"/>
<text text-anchor="middle" x="1502.37" y="-570.3" font-family="Times,serif" font-size="14.00">Le Monde des religions</text>
</g>
<!-- le&#45;monde&#45;sa&#45;15&#45;&gt;le&#45;monde&#45;des&#45;religions&#45;22 -->
<g id="edge11" class="edge">
<title>le&#45;monde&#45;sa&#45;15&#45;&gt;le&#45;monde&#45;des&#45;religions&#45;22</title>
<path fill="none" stroke="black" d="M1254.97,-530.23C1269.28,-533.15 1284.97,-536.28 1299.43,-539 1338.56,-546.37 1382.08,-553.99 1418.66,-560.23"/>
<polygon fill="black" stroke="black" points="1417.84,-563.64 1428.29,-561.86 1419.02,-556.74 1417.84,-563.64"/>
<text text-anchor="middle" x="1338.93" y="-556.8" font-family="Times,serif" font-size="14.00">possède 100%</text>
</g>
<!-- le&#45;monde&#45;diplomatique&#45;24 -->
<g id="node13" class="node">
<title>le&#45;monde&#45;diplomatique&#45;24</title>
<ellipse fill="none" stroke="black" cx="1502.37" cy="-520" rx="96.68" ry="18"/>
<text text-anchor="middle" x="1502.37" y="-516.3" font-family="Times,serif" font-size="14.00">Le Monde diplomatique</text>
</g>
<!-- le&#45;monde&#45;sa&#45;15&#45;&gt;le&#45;monde&#45;diplomatique&#45;24 -->
<g id="edge12" class="edge">
<title>le&#45;monde&#45;sa&#45;15&#45;&gt;le&#45;monde&#45;diplomatique&#45;24</title>
<path fill="none" stroke="black" d="M1281.38,-520C1315.52,-520 1356.52,-520 1393.83,-520"/>
<polygon fill="black" stroke="black" points="1393.76,-523.5 1403.76,-520 1393.76,-516.5 1393.76,-523.5"/>
<text text-anchor="middle" x="1338.93" y="-523.8" font-family="Times,serif" font-size="14.00">possède 51%</text>
</g>
<!-- m&#45;le&#45;magazine&#45;du&#45;monde&#45;18 -->
<g id="node14" class="node">
<title>m&#45;le&#45;magazine&#45;du&#45;monde&#45;18</title>
<ellipse fill="none" stroke="black" cx="1502.37" cy="-466" rx="105.88" ry="18"/>
<text text-anchor="middle" x="1502.37" y="-462.3" font-family="Times,serif" font-size="14.00">M, le magazine du Monde</text>
</g>
<!-- le&#45;monde&#45;sa&#45;15&#45;&gt;m&#45;le&#45;magazine&#45;du&#45;monde&#45;18 -->
<g id="edge13" class="edge">
<title>le&#45;monde&#45;sa&#45;15&#45;&gt;m&#45;le&#45;magazine&#45;du&#45;monde&#45;18</title>
<path fill="none" stroke="black" d="M1278.92,-504.96C1285.85,-503.6 1292.77,-502.26 1299.43,-501 1336.82,-493.96 1378.2,-486.69 1413.73,-480.62"/>
<polygon fill="black" stroke="black" points="1414.28,-484.07 1423.55,-478.94 1413.1,-477.17 1414.28,-484.07"/>
<text text-anchor="middle" x="1338.93" y="-504.8" font-family="Times,serif" font-size="14.00">possède 100%</text>
</g>
<!-- maniere&#45;de&#45;voir&#45;25 -->
<g id="node15" class="node">
<title>maniere&#45;de&#45;voir&#45;25</title>
<ellipse fill="none" stroke="black" cx="1502.37" cy="-412" rx="67.69" ry="18"/>
<text text-anchor="middle" x="1502.37" y="-408.3" font-family="Times,serif" font-size="14.00">Manière de voir</text>
</g>
<!-- le&#45;monde&#45;sa&#45;15&#45;&gt;maniere&#45;de&#45;voir&#45;25 -->
<g id="edge14" class="edge">
<title>le&#45;monde&#45;sa&#45;15&#45;&gt;maniere&#45;de&#45;voir&#45;25</title>
<path fill="none" stroke="black" d="M1229.18,-505.07C1247.64,-493.57 1274.49,-477.86 1299.43,-467 1343.13,-447.97 1395.06,-434 1435.32,-424.91"/>
<polygon fill="black" stroke="black" points="1435.86,-428.37 1444.87,-422.8 1434.35,-421.54 1435.86,-428.37"/>
<text text-anchor="middle" x="1338.93" y="-470.8" font-family="Times,serif" font-size="14.00">possède 51%</text>
</g>
<!-- prier&#45;17 -->
<g id="node16" class="node">
<title>prier&#45;17</title>
<ellipse fill="none" stroke="black" cx="1502.37" cy="-358" rx="27.9" ry="18"/>
<text text-anchor="middle" x="1502.37" y="-354.3" font-family="Times,serif" font-size="14.00">Prier</text>
</g>
<!-- le&#45;monde&#45;sa&#45;15&#45;&gt;prier&#45;17 -->
<g id="edge15" class="edge">
<title>le&#45;monde&#45;sa&#45;15&#45;&gt;prier&#45;17</title>
<path fill="none" stroke="black" d="M1216.88,-504.99C1232.81,-483.76 1264.53,-444.86 1299.43,-421 1350,-386.43 1420.41,-370.16 1463.33,-363.02"/>
<polygon fill="black" stroke="black" points="1463.84,-366.49 1473.18,-361.48 1462.76,-359.57 1463.84,-366.49"/>
<text text-anchor="middle" x="1338.93" y="-424.8" font-family="Times,serif" font-size="14.00">possède 100%</text>
</g>
<!-- telerama&#45;20 -->
<g id="node17" class="node">
<title>telerama&#45;20</title>
<ellipse fill="none" stroke="black" cx="1502.37" cy="-304" rx="44.39" ry="18"/>
<text text-anchor="middle" x="1502.37" y="-300.3" font-family="Times,serif" font-size="14.00">Télérama</text>
</g>
<!-- le&#45;monde&#45;sa&#45;15&#45;&gt;telerama&#45;20 -->
<g id="edge16" class="edge">
<title>le&#45;monde&#45;sa&#45;15&#45;&gt;telerama&#45;20</title>
<path fill="none" stroke="black" d="M1211.07,-505.29C1222.13,-474.7 1251.61,-403.74 1299.43,-364 1341.26,-329.24 1402.64,-314.62 1446.73,-308.46"/>
<polygon fill="black" stroke="black" points="1447.14,-311.94 1456.61,-307.2 1446.25,-305 1447.14,-311.94"/>
<text text-anchor="middle" x="1338.93" y="-367.8" font-family="Times,serif" font-size="14.00">possède 100%</text>
</g>
</g>
</svg>
