<?xml version="1.0" encoding="UTF-8" standalone="no"?>
<!DOCTYPE svg PUBLIC "-//W3C//DTD SVG 1.1//EN"
 "http://www.w3.org/Graphics/SVG/1.1/DTD/svg11.dtd">
<!-- Generated by graphviz version 7.1.0 (20230121.1956)
 -->
<!-- Pages: 1 -->
<svg width="1632pt" height="1102pt"
 viewBox="0.00 0.00 1632.31 1102.00" xmlns="http://www.w3.org/2000/svg" xmlns:xlink="http://www.w3.org/1999/xlink">
<g id="graph0" class="graph" transform="scale(1 1) rotate(0) translate(4 1098)">
<polygon fill="white" stroke="none" points="-4,4 -4,-1098 1628.31,-1098 1628.31,4 -4,4"/>
<g id="clust2" class="cluster">
<title>clusterLeaves</title>
<polygon fill="none" stroke="black" points="1388.43,-8 1388.43,-1086 1616.31,-1086 1616.31,-8 1388.43,-8"/>
</g>
<!-- daniel&#45;kretinsky&#45;92 -->
<g id="node1" class="node">
<title>daniel&#45;kretinsky&#45;92</title>
<polygon fill="none" stroke="black" points="124,-247 0,-247 0,-211 124,-211 124,-247"/>
<text text-anchor="middle" x="62" y="-225.3" font-family="Times,serif" font-size="14.00">🧑‍💼Daniel Křetínský</text>
</g>
<!-- czech&#45;media&#45;invest&#45;93 -->
<g id="node2" class="node">
<title>czech&#45;media&#45;invest&#45;93</title>
<polygon fill="none" stroke="black" points="435.68,-390.56 334.22,-403 232.77,-390.56 232.87,-370.44 435.58,-370.44 435.68,-390.56"/>
<text text-anchor="middle" x="334.22" y="-381.3" font-family="Times,serif" font-size="14.00">Czech Media Invest</text>
</g>
<!-- daniel&#45;kretinsky&#45;92&#45;&gt;czech&#45;media&#45;invest&#45;93 -->
<g id="edge1" class="edge">
<title>daniel&#45;kretinsky&#45;92&#45;&gt;czech&#45;media&#45;invest&#45;93</title>
<path fill="none" stroke="black" d="M94.79,-247.35C145.52,-276.64 244.43,-333.74 297.52,-364.39"/>
<polygon fill="black" stroke="black" points="295.46,-367.24 305.87,-369.21 298.96,-361.18 295.46,-367.24"/>
<text text-anchor="middle" x="178.5" y="-319.8" font-family="Times,serif" font-size="14.00">possède 50%</text>
</g>
<!-- groupe&#45;tf1&#45;122 -->
<g id="node6" class="node">
<title>groupe&#45;tf1&#45;122</title>
<polygon fill="none" stroke="black" points="1271.97,-173.56 1205.11,-186 1138.25,-173.56 1138.31,-153.44 1271.91,-153.44 1271.97,-173.56"/>
<text text-anchor="middle" x="1205.11" y="-164.3" font-family="Times,serif" font-size="14.00">Groupe TF1</text>
</g>
<!-- daniel&#45;kretinsky&#45;92&#45;&gt;groupe&#45;tf1&#45;122 -->
<g id="edge20" class="edge">
<title>daniel&#45;kretinsky&#45;92&#45;&gt;groupe&#45;tf1&#45;122</title>
<path fill="none" stroke="black" d="M124.38,-223.29C179.11,-218.7 261.44,-213 333.22,-213 333.22,-213 333.22,-213 938.84,-213 1014.56,-213 1100.75,-194.96 1153.79,-181.72"/>
<polygon fill="black" stroke="black" points="1154.62,-185.12 1163.45,-179.27 1152.89,-178.34 1154.62,-185.12"/>
<text text-anchor="middle" x="645.67" y="-216.8" font-family="Times,serif" font-size="14.00">possède 5%</text>
</g>
<!-- le&#45;nouveau&#45;monde&#45;13 -->
<g id="node3" class="node">
<title>le&#45;nouveau&#45;monde&#45;13</title>
<polygon fill="none" stroke="black" points="747.13,-520.56 645.67,-533 544.22,-520.56 544.32,-500.44 747.03,-500.44 747.13,-520.56"/>
<text text-anchor="middle" x="645.67" y="-511.3" font-family="Times,serif" font-size="14.00">Le Nouveau Monde</text>
</g>
<!-- czech&#45;media&#45;invest&#45;93&#45;&gt;le&#45;nouveau&#45;monde&#45;13 -->
<g id="edge3" class="edge">
<title>czech&#45;media&#45;invest&#45;93&#45;&gt;le&#45;nouveau&#45;monde&#45;13</title>
<path fill="none" stroke="black" d="M350.35,-401.18C371.34,-422.57 411.48,-459.81 453.45,-479 478.16,-490.3 506.21,-498.05 533.07,-503.37"/>
<polygon fill="black" stroke="black" points="532.13,-506.76 542.61,-505.15 533.42,-499.87 532.13,-506.76"/>
<text text-anchor="middle" x="489.95" y="-504.8" font-family="Times,serif" font-size="14.00">possède 49%</text>
</g>
<!-- elle&#45;321 -->
<g id="node7" class="node">
<title>elle&#45;321</title>
<ellipse fill="none" stroke="black" cx="1502.37" cy="-466" rx="27" ry="18"/>
<text text-anchor="middle" x="1502.37" y="-462.3" font-family="Times,serif" font-size="14.00">Elle</text>
</g>
<!-- czech&#45;media&#45;invest&#45;93&#45;&gt;elle&#45;321 -->
<g id="edge2" class="edge">
<title>czech&#45;media&#45;invest&#45;93&#45;&gt;elle&#45;321</title>
<path fill="none" stroke="black" d="M367.93,-399.3C423.62,-422.31 540.91,-465 644.67,-465 644.67,-465 644.67,-465 1206.11,-465 1298.52,-465 1407.19,-465.5 1463.4,-465.79"/>
<polygon fill="black" stroke="black" points="1463.37,-469.29 1473.39,-465.84 1463.41,-462.29 1463.37,-469.29"/>
<text text-anchor="middle" x="937.84" y="-468.8" font-family="Times,serif" font-size="14.00">possède 100%</text>
</g>
<!-- marianne&#45;94 -->
<g id="node19" class="node">
<title>marianne&#45;94</title>
<ellipse fill="none" stroke="black" cx="1502.37" cy="-412" rx="44.69" ry="18"/>
<text text-anchor="middle" x="1502.37" y="-408.3" font-family="Times,serif" font-size="14.00">Marianne</text>
</g>
<!-- czech&#45;media&#45;invest&#45;93&#45;&gt;marianne&#45;94 -->
<g id="edge17" class="edge">
<title>czech&#45;media&#45;invest&#45;93&#45;&gt;marianne&#45;94</title>
<path fill="none" stroke="black" d="M407.3,-394.5C469.92,-401.92 563.13,-411 644.67,-411 644.67,-411 644.67,-411 1206.11,-411 1289.73,-411 1386.67,-411.41 1446,-411.7"/>
<polygon fill="black" stroke="black" points="1445.82,-415.2 1455.84,-411.75 1445.85,-408.2 1445.82,-415.2"/>
<text text-anchor="middle" x="937.84" y="-414.8" font-family="Times,serif" font-size="14.00">possède 91%</text>
</g>
<!-- tele&#45;7&#45;jours&#45;343 -->
<g id="node20" class="node">
<title>tele&#45;7&#45;jours&#45;343</title>
<ellipse fill="none" stroke="black" cx="1502.37" cy="-358" rx="53.89" ry="18"/>
<text text-anchor="middle" x="1502.37" y="-354.3" font-family="Times,serif" font-size="14.00">Télé 7 Jours</text>
</g>
<!-- czech&#45;media&#45;invest&#45;93&#45;&gt;tele&#45;7&#45;jours&#45;343 -->
<g id="edge18" class="edge">
<title>czech&#45;media&#45;invest&#45;93&#45;&gt;tele&#45;7&#45;jours&#45;343</title>
<path fill="none" stroke="black" d="M436.09,-372.23C496.49,-365.65 574.86,-359 644.67,-359 644.67,-359 644.67,-359 1206.11,-359 1285.57,-359 1377.05,-358.63 1436.87,-358.34"/>
<polygon fill="black" stroke="black" points="1436.53,-361.85 1446.52,-358.3 1436.5,-354.85 1436.53,-361.85"/>
<text text-anchor="middle" x="937.84" y="-362.8" font-family="Times,serif" font-size="14.00">possède 100%</text>
</g>
<!-- franc&#45;tireur&#45;346 -->
<g id="node21" class="node">
<title>franc&#45;tireur&#45;346</title>
<ellipse fill="none" stroke="black" cx="1502.37" cy="-304" rx="55.79" ry="18"/>
<text text-anchor="middle" x="1502.37" y="-300.3" font-family="Times,serif" font-size="14.00">Franc&#45;Tireur</text>
</g>
<!-- czech&#45;media&#45;invest&#45;93&#45;&gt;franc&#45;tireur&#45;346 -->
<g id="edge19" class="edge">
<title>czech&#45;media&#45;invest&#45;93&#45;&gt;franc&#45;tireur&#45;346</title>
<path fill="none" stroke="black" d="M369.74,-369.95C426.13,-346.78 542.02,-305 644.67,-305 644.67,-305 644.67,-305 1206.11,-305 1284.73,-305 1375.12,-304.64 1434.96,-304.35"/>
<polygon fill="black" stroke="black" points="1434.64,-307.86 1444.62,-304.31 1434.6,-300.86 1434.64,-307.86"/>
<text text-anchor="middle" x="937.84" y="-308.8" font-family="Times,serif" font-size="14.00">possède 100%</text>
</g>
<!-- le&#45;monde&#45;libre&#45;14 -->
<g id="node4" class="node">
<title>le&#45;monde&#45;libre&#45;14</title>
<polygon fill="none" stroke="black" points="1019.73,-525.56 937.84,-538 855.96,-525.56 856.03,-505.44 1019.66,-505.44 1019.73,-525.56"/>
<text text-anchor="middle" x="937.84" y="-516.3" font-family="Times,serif" font-size="14.00">Le Monde libre</text>
</g>
<!-- le&#45;nouveau&#45;monde&#45;13&#45;&gt;le&#45;monde&#45;libre&#45;14 -->
<g id="edge4" class="edge">
<title>le&#45;nouveau&#45;monde&#45;13&#45;&gt;le&#45;monde&#45;libre&#45;14</title>
<path fill="none" stroke="black" d="M747.35,-516.73C778.84,-517.28 813.42,-517.87 844.32,-518.41"/>
<polygon fill="black" stroke="black" points="843.95,-521.9 854.01,-518.57 844.07,-514.9 843.95,-521.9"/>
<text text-anchor="middle" x="801.4" y="-521.8" font-family="Times,serif" font-size="14.00">possède 26%</text>
</g>
<!-- le&#45;monde&#45;sa&#45;15 -->
<g id="node5" class="node">
<title>le&#45;monde&#45;sa&#45;15</title>
<polygon fill="none" stroke="black" points="1281.25,-795.56 1205.11,-808 1128.97,-795.56 1129.04,-775.44 1281.18,-775.44 1281.25,-795.56"/>
<text text-anchor="middle" x="1205.11" y="-786.3" font-family="Times,serif" font-size="14.00">Le Monde SA</text>
</g>
<!-- le&#45;monde&#45;libre&#45;14&#45;&gt;le&#45;monde&#45;sa&#45;15 -->
<g id="edge6" class="edge">
<title>le&#45;monde&#45;libre&#45;14&#45;&gt;le&#45;monde&#45;sa&#45;15</title>
<path fill="none" stroke="black" d="M954.25,-535.68C998.96,-581.19 1128.9,-713.45 1181.55,-767.04"/>
<polygon fill="black" stroke="black" points="1178.75,-769.18 1188.25,-773.86 1183.74,-764.28 1178.75,-769.18"/>
<text text-anchor="middle" x="1074.29" y="-697.8" font-family="Times,serif" font-size="14.00">possède 75%</text>
</g>
<!-- l&#45;obs&#45;16 -->
<g id="node8" class="node">
<title>l&#45;obs&#45;16</title>
<ellipse fill="none" stroke="black" cx="1502.37" cy="-520" rx="32.49" ry="18"/>
<text text-anchor="middle" x="1502.37" y="-516.3" font-family="Times,serif" font-size="14.00">L’Obs</text>
</g>
<!-- le&#45;monde&#45;libre&#45;14&#45;&gt;l&#45;obs&#45;16 -->
<g id="edge5" class="edge">
<title>le&#45;monde&#45;libre&#45;14&#45;&gt;l&#45;obs&#45;16</title>
<path fill="none" stroke="black" d="M1020.04,-520C1141.13,-520 1364.79,-520 1458.4,-520"/>
<polygon fill="black" stroke="black" points="1458.17,-523.5 1468.17,-520 1458.17,-516.5 1458.17,-523.5"/>
<text text-anchor="middle" x="1205.11" y="-523.8" font-family="Times,serif" font-size="14.00">possède 99%</text>
</g>
<!-- courrier&#45;international&#45;21 -->
<g id="node9" class="node">
<title>courrier&#45;international&#45;21</title>
<ellipse fill="none" stroke="black" cx="1502.37" cy="-1060" rx="87.18" ry="18"/>
<text text-anchor="middle" x="1502.37" y="-1056.3" font-family="Times,serif" font-size="14.00">Courrier international</text>
</g>
<!-- le&#45;monde&#45;sa&#45;15&#45;&gt;courrier&#45;international&#45;21 -->
<g id="edge7" class="edge">
<title>le&#45;monde&#45;sa&#45;15&#45;&gt;courrier&#45;international&#45;21</title>
<path fill="none" stroke="black" d="M1209.01,-807.86C1216.5,-848.24 1240.2,-947.3 1299.43,-1002 1329.12,-1029.42 1370.95,-1043.97 1408.84,-1051.66"/>
<polygon fill="black" stroke="black" points="1407.97,-1055.05 1418.44,-1053.46 1409.26,-1048.17 1407.97,-1055.05"/>
<text text-anchor="middle" x="1338.93" y="-1045.8" font-family="Times,serif" font-size="14.00">possède 100%</text>
</g>
<!-- huffpost&#45;26 -->
<g id="node10" class="node">
<title>huffpost&#45;26</title>
<ellipse fill="none" stroke="black" cx="1502.37" cy="-1006" rx="42.49" ry="18"/>
<text text-anchor="middle" x="1502.37" y="-1002.3" font-family="Times,serif" font-size="14.00">HuffPost</text>
</g>
<!-- le&#45;monde&#45;sa&#45;15&#45;&gt;huffpost&#45;26 -->
<g id="edge8" class="edge">
<title>le&#45;monde&#45;sa&#45;15&#45;&gt;huffpost&#45;26</title>
<path fill="none" stroke="black" d="M1212.34,-807.14C1224.47,-838.3 1254.12,-904.55 1299.43,-943 1341.84,-978.99 1404.76,-994.45 1449.07,-1001.07"/>
<polygon fill="black" stroke="black" points="1448.59,-1004.54 1458.97,-1002.43 1449.55,-997.6 1448.59,-1004.54"/>
<text text-anchor="middle" x="1338.93" y="-986.8" font-family="Times,serif" font-size="14.00">possède 34%</text>
</g>
<!-- la&#45;vie&#45;23 -->
<g id="node11" class="node">
<title>la&#45;vie&#45;23</title>
<ellipse fill="none" stroke="black" cx="1502.37" cy="-952" rx="34.39" ry="18"/>
<text text-anchor="middle" x="1502.37" y="-948.3" font-family="Times,serif" font-size="14.00">La Vie</text>
</g>
<!-- le&#45;monde&#45;sa&#45;15&#45;&gt;la&#45;vie&#45;23 -->
<g id="edge9" class="edge">
<title>le&#45;monde&#45;sa&#45;15&#45;&gt;la&#45;vie&#45;23</title>
<path fill="none" stroke="black" d="M1218.12,-806.01C1234.52,-826.97 1265.77,-863.77 1299.43,-887 1347.74,-920.35 1414.17,-937.37 1457.44,-945.46"/>
<polygon fill="black" stroke="black" points="1456.77,-948.9 1467.23,-947.21 1458,-942.01 1456.77,-948.9"/>
<text text-anchor="middle" x="1338.93" y="-927.8" font-family="Times,serif" font-size="14.00">possède 100%</text>
</g>
<!-- le&#45;monde&#45;19 -->
<g id="node12" class="node">
<title>le&#45;monde&#45;19</title>
<ellipse fill="none" stroke="black" cx="1502.37" cy="-898" rx="48.19" ry="18"/>
<text text-anchor="middle" x="1502.37" y="-894.3" font-family="Times,serif" font-size="14.00">Le Monde</text>
</g>
<!-- le&#45;monde&#45;sa&#45;15&#45;&gt;le&#45;monde&#45;19 -->
<g id="edge10" class="edge">
<title>le&#45;monde&#45;sa&#45;15&#45;&gt;le&#45;monde&#45;19</title>
<path fill="none" stroke="black" d="M1229.25,-804.55C1247.75,-815.77 1274.61,-831.16 1299.43,-842 1347.74,-863.09 1406.04,-878.25 1447.56,-887.43"/>
<polygon fill="black" stroke="black" points="1446.81,-890.85 1457.32,-889.54 1448.29,-884.01 1446.81,-890.85"/>
<text text-anchor="middle" x="1338.93" y="-871.8" font-family="Times,serif" font-size="14.00">possède 100%</text>
</g>
<!-- le&#45;monde&#45;des&#45;religions&#45;22 -->
<g id="node13" class="node">
<title>le&#45;monde&#45;des&#45;religions&#45;22</title>
<ellipse fill="none" stroke="black" cx="1502.37" cy="-844" rx="94.78" ry="18"/>
<text text-anchor="middle" x="1502.37" y="-840.3" font-family="Times,serif" font-size="14.00">Le Monde des religions</text>
</g>
<!-- le&#45;monde&#45;sa&#45;15&#45;&gt;le&#45;monde&#45;des&#45;religions&#45;22 -->
<g id="edge11" class="edge">
<title>le&#45;monde&#45;sa&#45;15&#45;&gt;le&#45;monde&#45;des&#45;religions&#45;22</title>
<path fill="none" stroke="black" d="M1254.97,-800.23C1269.28,-803.15 1284.97,-806.28 1299.43,-809 1338.56,-816.37 1382.08,-823.99 1418.66,-830.23"/>
<polygon fill="black" stroke="black" points="1417.84,-833.64 1428.29,-831.86 1419.02,-826.74 1417.84,-833.64"/>
<text text-anchor="middle" x="1338.93" y="-826.8" font-family="Times,serif" font-size="14.00">possède 100%</text>
</g>
<!-- le&#45;monde&#45;diplomatique&#45;24 -->
<g id="node14" class="node">
<title>le&#45;monde&#45;diplomatique&#45;24</title>
<ellipse fill="none" stroke="black" cx="1502.37" cy="-790" rx="96.68" ry="18"/>
<text text-anchor="middle" x="1502.37" y="-786.3" font-family="Times,serif" font-size="14.00">Le Monde diplomatique</text>
</g>
<!-- le&#45;monde&#45;sa&#45;15&#45;&gt;le&#45;monde&#45;diplomatique&#45;24 -->
<g id="edge12" class="edge">
<title>le&#45;monde&#45;sa&#45;15&#45;&gt;le&#45;monde&#45;diplomatique&#45;24</title>
<path fill="none" stroke="black" d="M1281.38,-790C1315.52,-790 1356.52,-790 1393.83,-790"/>
<polygon fill="black" stroke="black" points="1393.76,-793.5 1403.76,-790 1393.76,-786.5 1393.76,-793.5"/>
<text text-anchor="middle" x="1338.93" y="-793.8" font-family="Times,serif" font-size="14.00">possède 51%</text>
</g>
<!-- m&#45;le&#45;magazine&#45;du&#45;monde&#45;18 -->
<g id="node15" class="node">
<title>m&#45;le&#45;magazine&#45;du&#45;monde&#45;18</title>
<ellipse fill="none" stroke="black" cx="1502.37" cy="-736" rx="105.88" ry="18"/>
<text text-anchor="middle" x="1502.37" y="-732.3" font-family="Times,serif" font-size="14.00">M, le magazine du Monde</text>
</g>
<!-- le&#45;monde&#45;sa&#45;15&#45;&gt;m&#45;le&#45;magazine&#45;du&#45;monde&#45;18 -->
<g id="edge13" class="edge">
<title>le&#45;monde&#45;sa&#45;15&#45;&gt;m&#45;le&#45;magazine&#45;du&#45;monde&#45;18</title>
<path fill="none" stroke="black" d="M1278.92,-774.96C1285.85,-773.6 1292.77,-772.26 1299.43,-771 1336.82,-763.96 1378.2,-756.69 1413.73,-750.62"/>
<polygon fill="black" stroke="black" points="1414.28,-754.07 1423.55,-748.94 1413.1,-747.17 1414.28,-754.07"/>
<text text-anchor="middle" x="1338.93" y="-774.8" font-family="Times,serif" font-size="14.00">possède 100%</text>
</g>
<!-- maniere&#45;de&#45;voir&#45;25 -->
<g id="node16" class="node">
<title>maniere&#45;de&#45;voir&#45;25</title>
<ellipse fill="none" stroke="black" cx="1502.37" cy="-682" rx="67.69" ry="18"/>
<text text-anchor="middle" x="1502.37" y="-678.3" font-family="Times,serif" font-size="14.00">Manière de voir</text>
</g>
<!-- le&#45;monde&#45;sa&#45;15&#45;&gt;maniere&#45;de&#45;voir&#45;25 -->
<g id="edge14" class="edge">
<title>le&#45;monde&#45;sa&#45;15&#45;&gt;maniere&#45;de&#45;voir&#45;25</title>
<path fill="none" stroke="black" d="M1229.18,-775.07C1247.64,-763.57 1274.49,-747.86 1299.43,-737 1343.13,-717.97 1395.06,-704 1435.32,-694.91"/>
<polygon fill="black" stroke="black" points="1435.86,-698.37 1444.87,-692.8 1434.35,-691.54 1435.86,-698.37"/>
<text text-anchor="middle" x="1338.93" y="-740.8" font-family="Times,serif" font-size="14.00">possède 51%</text>
</g>
<!-- prier&#45;17 -->
<g id="node17" class="node">
<title>prier&#45;17</title>
<ellipse fill="none" stroke="black" cx="1502.37" cy="-628" rx="27.9" ry="18"/>
<text text-anchor="middle" x="1502.37" y="-624.3" font-family="Times,serif" font-size="14.00">Prier</text>
</g>
<!-- le&#45;monde&#45;sa&#45;15&#45;&gt;prier&#45;17 -->
<g id="edge15" class="edge">
<title>le&#45;monde&#45;sa&#45;15&#45;&gt;prier&#45;17</title>
<path fill="none" stroke="black" d="M1216.88,-774.99C1232.81,-753.76 1264.53,-714.86 1299.43,-691 1350,-656.43 1420.41,-640.16 1463.33,-633.02"/>
<polygon fill="black" stroke="black" points="1463.84,-636.49 1473.18,-631.48 1462.76,-629.57 1463.84,-636.49"/>
<text text-anchor="middle" x="1338.93" y="-694.8" font-family="Times,serif" font-size="14.00">possède 100%</text>
</g>
<!-- telerama&#45;20 -->
<g id="node18" class="node">
<title>telerama&#45;20</title>
<ellipse fill="none" stroke="black" cx="1502.37" cy="-574" rx="44.39" ry="18"/>
<text text-anchor="middle" x="1502.37" y="-570.3" font-family="Times,serif" font-size="14.00">Télérama</text>
</g>
<!-- le&#45;monde&#45;sa&#45;15&#45;&gt;telerama&#45;20 -->
<g id="edge16" class="edge">
<title>le&#45;monde&#45;sa&#45;15&#45;&gt;telerama&#45;20</title>
<path fill="none" stroke="black" d="M1211.07,-775.29C1222.13,-744.7 1251.61,-673.74 1299.43,-634 1341.26,-599.24 1402.64,-584.62 1446.73,-578.46"/>
<polygon fill="black" stroke="black" points="1447.14,-581.94 1456.61,-577.2 1446.25,-575 1447.14,-581.94"/>
<text text-anchor="middle" x="1338.93" y="-637.8" font-family="Times,serif" font-size="14.00">possède 100%</text>
</g>
<!-- lci&#45;125 -->
<g id="node22" class="node">
<title>lci&#45;125</title>
<ellipse fill="none" stroke="black" cx="1502.37" cy="-250" rx="27" ry="18"/>
<text text-anchor="middle" x="1502.37" y="-246.3" font-family="Times,serif" font-size="14.00">LCI</text>
</g>
<!-- groupe&#45;tf1&#45;122&#45;&gt;lci&#45;125 -->
<g id="edge21" class="edge">
<title>groupe&#45;tf1&#45;122&#45;&gt;lci&#45;125</title>
<path fill="none" stroke="black" d="M1237.34,-180.41C1255.32,-187.29 1278.45,-195.71 1299.43,-202 1356.45,-219.1 1423.97,-234.12 1464.69,-242.62"/>
<polygon fill="black" stroke="black" points="1463.95,-246.04 1474.45,-244.64 1465.37,-239.19 1463.95,-246.04"/>
<text text-anchor="middle" x="1338.93" y="-225.8" font-family="Times,serif" font-size="14.00">possède 100%</text>
</g>
<!-- tf1&#45;123 -->
<g id="node23" class="node">
<title>tf1&#45;123</title>
<ellipse fill="none" stroke="black" cx="1502.37" cy="-196" rx="27" ry="18"/>
<text text-anchor="middle" x="1502.37" y="-192.3" font-family="Times,serif" font-size="14.00">TF1</text>
</g>
<!-- groupe&#45;tf1&#45;122&#45;&gt;tf1&#45;123 -->
<g id="edge22" class="edge">
<title>groupe&#45;tf1&#45;122&#45;&gt;tf1&#45;123</title>
<path fill="none" stroke="black" d="M1271.27,-174.18C1330.42,-179.79 1415.57,-187.86 1463.98,-192.45"/>
<polygon fill="black" stroke="black" points="1463.37,-195.91 1473.66,-193.37 1464.04,-188.94 1463.37,-195.91"/>
<text text-anchor="middle" x="1338.93" y="-186.8" font-family="Times,serif" font-size="14.00">possède 100%</text>
</g>
<!-- tf1&#45;series&#45;films&#45;126 -->
<g id="node24" class="node">
<title>tf1&#45;series&#45;films&#45;126</title>
<ellipse fill="none" stroke="black" cx="1502.37" cy="-142" rx="72.29" ry="18"/>
<text text-anchor="middle" x="1502.37" y="-138.3" font-family="Times,serif" font-size="14.00">TF1 Séries Films</text>
</g>
<!-- groupe&#45;tf1&#45;122&#45;&gt;tf1&#45;series&#45;films&#45;126 -->
<g id="edge23" class="edge">
<title>groupe&#45;tf1&#45;122&#45;&gt;tf1&#45;series&#45;films&#45;126</title>
<path fill="none" stroke="black" d="M1272.33,-159C1281.42,-157.9 1290.65,-156.87 1299.43,-156 1339.05,-152.08 1383.14,-148.89 1420,-146.55"/>
<polygon fill="black" stroke="black" points="1419.92,-150.06 1429.68,-145.94 1419.48,-143.08 1419.92,-150.06"/>
<text text-anchor="middle" x="1338.93" y="-159.8" font-family="Times,serif" font-size="14.00">possède 100%</text>
</g>
<!-- tfx&#45;124 -->
<g id="node25" class="node">
<title>tfx&#45;124</title>
<ellipse fill="none" stroke="black" cx="1502.37" cy="-88" rx="27.1" ry="18"/>
<text text-anchor="middle" x="1502.37" y="-84.3" font-family="Times,serif" font-size="14.00">TFX</text>
</g>
<!-- groupe&#45;tf1&#45;122&#45;&gt;tfx&#45;124 -->
<g id="edge24" class="edge">
<title>groupe&#45;tf1&#45;122&#45;&gt;tfx&#45;124</title>
<path fill="none" stroke="black" d="M1238.84,-152.97C1256.5,-145.29 1278.85,-136.27 1299.43,-130 1355.86,-112.8 1423.29,-100.34 1464.19,-93.65"/>
<polygon fill="black" stroke="black" points="1464.68,-97.12 1474,-92.08 1463.57,-90.2 1464.68,-97.12"/>
<text text-anchor="middle" x="1338.93" y="-133.8" font-family="Times,serif" font-size="14.00">possède 100%</text>
</g>
<!-- tmc&#45;127 -->
<g id="node26" class="node">
<title>tmc&#45;127</title>
<ellipse fill="none" stroke="black" cx="1502.37" cy="-34" rx="30.59" ry="18"/>
<text text-anchor="middle" x="1502.37" y="-30.3" font-family="Times,serif" font-size="14.00">TMC</text>
</g>
<!-- groupe&#45;tf1&#45;122&#45;&gt;tmc&#45;127 -->
<g id="edge25" class="edge">
<title>groupe&#45;tf1&#45;122&#45;&gt;tmc&#45;127</title>
<path fill="none" stroke="black" d="M1220.68,-153.04C1238.04,-135.95 1268.59,-108.15 1299.43,-91 1351.08,-62.28 1418.38,-47.07 1460.74,-39.78"/>
<polygon fill="black" stroke="black" points="1461.2,-43.25 1470.5,-38.17 1460.06,-36.34 1461.2,-43.25"/>
<text text-anchor="middle" x="1338.93" y="-94.8" font-family="Times,serif" font-size="14.00">possède 100%</text>
</g>
</g>
</svg>
