<?xml version="1.0" encoding="UTF-8" standalone="no"?>
<!DOCTYPE svg PUBLIC "-//W3C//DTD SVG 1.1//EN"
 "http://www.w3.org/Graphics/SVG/1.1/DTD/svg11.dtd">
<!-- Generated by graphviz version 8.1.0 (20230707.0739)
 -->
<!-- Pages: 1 -->
<svg width="1669pt" height="1102pt"
 viewBox="0.00 0.00 1668.69 1102.00" xmlns="http://www.w3.org/2000/svg" xmlns:xlink="http://www.w3.org/1999/xlink">
<g id="graph0" class="graph" transform="scale(1 1) rotate(0) translate(4 1098)">
<polygon fill="white" stroke="none" points="-4,4 -4,-1098 1664.69,-1098 1664.69,4 -4,4"/>
<g id="clust2" class="cluster">
<title>clusterLeaves</title>
<polygon fill="none" stroke="black" points="1415.25,-8 1415.25,-1086 1652.69,-1086 1652.69,-8 1415.25,-8"/>
</g>
<!-- daniel&#45;kretinsky&#45;92 -->
<g id="node1" class="node">
<title>daniel&#45;kretinsky&#45;92</title>
<polygon fill="none" stroke="black" points="123.25,-249 0,-249 0,-213 123.25,-213 123.25,-249"/>
<text text-anchor="middle" x="61.62" y="-227.07" font-family="Times,serif" font-size="14.00">🧑‍💼Daniel Křetínský</text>
</g>
<!-- czech&#45;media&#45;invest&#45;93 -->
<g id="node2" class="node">
<title>czech&#45;media&#45;invest&#45;93</title>
<polygon fill="none" stroke="black" points="442.97,-390.56 337.11,-403 231.25,-390.56 231.35,-370.44 442.87,-370.44 442.97,-390.56"/>
<text text-anchor="middle" x="337.11" y="-379.95" font-family="Times,serif" font-size="14.00">Czech Media Invest</text>
</g>
<!-- daniel&#45;kretinsky&#45;92&#45;&gt;czech&#45;media&#45;invest&#45;93 -->
<g id="edge1" class="edge">
<title>daniel&#45;kretinsky&#45;92&#45;&gt;czech&#45;media&#45;invest&#45;93</title>
<path fill="none" stroke="black" d="M95.34,-249.42C146.86,-278.43 246.53,-334.56 300.05,-364.7"/>
<polygon fill="black" stroke="black" points="298.05,-368.15 308.49,-370.01 301.49,-362.05 298.05,-368.15"/>
<text text-anchor="middle" x="177.25" y="-315.2" font-family="Times,serif" font-size="14.00">possède 50%</text>
</g>
<!-- groupe&#45;tf1&#45;122 -->
<g id="node6" class="node">
<title>groupe&#45;tf1&#45;122</title>
<polygon fill="none" stroke="black" points="1298.38,-173.56 1229.21,-186 1160.04,-173.56 1160.11,-153.44 1298.31,-153.44 1298.38,-173.56"/>
<text text-anchor="middle" x="1229.21" y="-162.95" font-family="Times,serif" font-size="14.00">Groupe TF1</text>
</g>
<!-- daniel&#45;kretinsky&#45;92&#45;&gt;groupe&#45;tf1&#45;122 -->
<g id="edge20" class="edge">
<title>daniel&#45;kretinsky&#45;92&#45;&gt;groupe&#45;tf1&#45;122</title>
<path fill="none" stroke="black" d="M123.66,-225.38C179.05,-220.77 262.98,-215 336.11,-215 336.11,-215 336.11,-215 957.31,-215 1035.62,-215 1124.82,-195.7 1178.79,-181.83"/>
<polygon fill="black" stroke="black" points="1179.31,-185.05 1188.1,-179.14 1177.54,-178.28 1179.31,-185.05"/>
<text text-anchor="middle" x="656.83" y="-218.2" font-family="Times,serif" font-size="14.00">possède 5%</text>
</g>
<!-- le&#45;nouveau&#45;monde&#45;13 -->
<g id="node3" class="node">
<title>le&#45;nouveau&#45;monde&#45;13</title>
<polygon fill="none" stroke="black" points="762.69,-521.56 656.83,-534 550.97,-521.56 551.07,-501.44 762.59,-501.44 762.69,-521.56"/>
<text text-anchor="middle" x="656.83" y="-510.95" font-family="Times,serif" font-size="14.00">Le Nouveau Monde</text>
</g>
<!-- czech&#45;media&#45;invest&#45;93&#45;&gt;le&#45;nouveau&#45;monde&#45;13 -->
<g id="edge3" class="edge">
<title>czech&#45;media&#45;invest&#45;93&#45;&gt;le&#45;nouveau&#45;monde&#45;13</title>
<path fill="none" stroke="black" d="M353.91,-401.36C375.82,-422.99 417.65,-460.63 460.97,-480 485.58,-491 513.37,-498.64 540.1,-503.95"/>
<polygon fill="black" stroke="black" points="539.21,-507.53 549.68,-505.94 540.5,-500.65 539.21,-507.53"/>
<text text-anchor="middle" x="496.97" y="-504.2" font-family="Times,serif" font-size="14.00">possède 49%</text>
</g>
<!-- elle&#45;321 -->
<g id="node7" class="node">
<title>elle&#45;321</title>
<ellipse fill="none" stroke="black" cx="1533.97" cy="-466" rx="27" ry="18"/>
<text text-anchor="middle" x="1533.97" y="-460.95" font-family="Times,serif" font-size="14.00">Elle</text>
</g>
<!-- czech&#45;media&#45;invest&#45;93&#45;&gt;elle&#45;321 -->
<g id="edge2" class="edge">
<title>czech&#45;media&#45;invest&#45;93&#45;&gt;elle&#45;321</title>
<path fill="none" stroke="black" d="M371.26,-399.29C428.27,-422.55 549.1,-466 655.83,-466 655.83,-466 655.83,-466 1230.21,-466 1325.86,-466 1438.5,-466 1495.65,-466"/>
<polygon fill="black" stroke="black" points="1495.65,-469.5 1505.65,-466 1495.65,-462.5 1495.65,-469.5"/>
<text text-anchor="middle" x="956.31" y="-469.2" font-family="Times,serif" font-size="14.00">possède 100%</text>
</g>
<!-- marianne&#45;94 -->
<g id="node19" class="node">
<title>marianne&#45;94</title>
<ellipse fill="none" stroke="black" cx="1533.97" cy="-412" rx="46.75" ry="18"/>
<text text-anchor="middle" x="1533.97" y="-406.95" font-family="Times,serif" font-size="14.00">Marianne</text>
</g>
<!-- czech&#45;media&#45;invest&#45;93&#45;&gt;marianne&#45;94 -->
<g id="edge17" class="edge">
<title>czech&#45;media&#45;invest&#45;93&#45;&gt;marianne&#45;94</title>
<path fill="none" stroke="black" d="M411.15,-394.75C475.45,-402.48 571.69,-412 655.83,-412 655.83,-412 655.83,-412 1230.21,-412 1315.82,-412 1415.04,-412 1475.9,-412"/>
<polygon fill="black" stroke="black" points="1475.81,-415.5 1485.81,-412 1475.81,-408.5 1475.81,-415.5"/>
<text text-anchor="middle" x="956.31" y="-415.2" font-family="Times,serif" font-size="14.00">possède 91%</text>
</g>
<!-- tele&#45;7&#45;jours&#45;343 -->
<g id="node20" class="node">
<title>tele&#45;7&#45;jours&#45;343</title>
<ellipse fill="none" stroke="black" cx="1533.97" cy="-358" rx="56.47" ry="18"/>
<text text-anchor="middle" x="1533.97" y="-352.95" font-family="Times,serif" font-size="14.00">Télé 7 Jours</text>
</g>
<!-- czech&#45;media&#45;invest&#45;93&#45;&gt;tele&#45;7&#45;jours&#45;343 -->
<g id="edge18" class="edge">
<title>czech&#45;media&#45;invest&#45;93&#45;&gt;tele&#45;7&#45;jours&#45;343</title>
<path fill="none" stroke="black" d="M443.12,-372.08C504.94,-365.55 584.71,-359 655.83,-359 655.83,-359 655.83,-359 1230.21,-359 1311.53,-359 1405.14,-358.63 1466.48,-358.35"/>
<polygon fill="black" stroke="black" points="1466.19,-361.84 1476.17,-358.29 1466.15,-354.84 1466.19,-361.84"/>
<text text-anchor="middle" x="956.31" y="-362.2" font-family="Times,serif" font-size="14.00">possède 100%</text>
</g>
<!-- franc&#45;tireur&#45;346 -->
<g id="node21" class="node">
<title>franc&#45;tireur&#45;346</title>
<ellipse fill="none" stroke="black" cx="1533.97" cy="-304" rx="58" ry="18"/>
<text text-anchor="middle" x="1533.97" y="-298.95" font-family="Times,serif" font-size="14.00">Franc&#45;Tireur</text>
</g>
<!-- czech&#45;media&#45;invest&#45;93&#45;&gt;franc&#45;tireur&#45;346 -->
<g id="edge19" class="edge">
<title>czech&#45;media&#45;invest&#45;93&#45;&gt;franc&#45;tireur&#45;346</title>
<path fill="none" stroke="black" d="M373.59,-369.95C431.54,-346.78 550.6,-305 655.83,-305 655.83,-305 655.83,-305 1230.21,-305 1310.79,-305 1403.43,-304.64 1464.79,-304.35"/>
<polygon fill="black" stroke="black" points="1464.51,-307.85 1474.49,-304.3 1464.48,-300.85 1464.51,-307.85"/>
<text text-anchor="middle" x="956.31" y="-308.2" font-family="Times,serif" font-size="14.00">possède 100%</text>
</g>
<!-- le&#45;monde&#45;libre&#45;14 -->
<g id="node4" class="node">
<title>le&#45;monde&#45;libre&#45;14</title>
<polygon fill="none" stroke="black" points="1041.92,-525.56 956.31,-538 870.69,-525.56 870.77,-505.44 1041.84,-505.44 1041.92,-525.56"/>
<text text-anchor="middle" x="956.31" y="-514.95" font-family="Times,serif" font-size="14.00">Le Monde libre</text>
</g>
<!-- le&#45;nouveau&#45;monde&#45;13&#45;&gt;le&#45;monde&#45;libre&#45;14 -->
<g id="edge4" class="edge">
<title>le&#45;nouveau&#45;monde&#45;13&#45;&gt;le&#45;monde&#45;libre&#45;14</title>
<path fill="none" stroke="black" d="M763.13,-517.42C794.52,-517.84 828.75,-518.3 859.51,-518.71"/>
<polygon fill="black" stroke="black" points="859.18,-522.22 869.23,-518.86 859.28,-515.22 859.18,-522.22"/>
<text text-anchor="middle" x="816.69" y="-521.2" font-family="Times,serif" font-size="14.00">possède 26%</text>
</g>
<!-- le&#45;monde&#45;sa&#45;15 -->
<g id="node5" class="node">
<title>le&#45;monde&#45;sa&#45;15</title>
<polygon fill="none" stroke="black" points="1308.5,-795.56 1229.21,-808 1149.92,-795.56 1150,-775.44 1308.43,-775.44 1308.5,-795.56"/>
<text text-anchor="middle" x="1229.21" y="-784.95" font-family="Times,serif" font-size="14.00">Le Monde SA</text>
</g>
<!-- le&#45;monde&#45;libre&#45;14&#45;&gt;le&#45;monde&#45;sa&#45;15 -->
<g id="edge6" class="edge">
<title>le&#45;monde&#45;libre&#45;14&#45;&gt;le&#45;monde&#45;sa&#45;15</title>
<path fill="none" stroke="black" d="M973.04,-535.68C1018.8,-581.29 1151.95,-713.99 1205.51,-767.37"/>
<polygon fill="black" stroke="black" points="1202.55,-769.36 1212.1,-773.94 1207.49,-764.4 1202.55,-769.36"/>
<text text-anchor="middle" x="1095.92" y="-690.2" font-family="Times,serif" font-size="14.00">possède 75%</text>
</g>
<!-- l&#45;obs&#45;16 -->
<g id="node8" class="node">
<title>l&#45;obs&#45;16</title>
<ellipse fill="none" stroke="black" cx="1533.97" cy="-520" rx="33.95" ry="18"/>
<text text-anchor="middle" x="1533.97" y="-514.95" font-family="Times,serif" font-size="14.00">L’Obs</text>
</g>
<!-- le&#45;monde&#45;libre&#45;14&#45;&gt;l&#45;obs&#45;16 -->
<g id="edge5" class="edge">
<title>le&#45;monde&#45;libre&#45;14&#45;&gt;l&#45;obs&#45;16</title>
<path fill="none" stroke="black" d="M1042.25,-520C1166.52,-520 1393.46,-520 1488.87,-520"/>
<polygon fill="black" stroke="black" points="1488.83,-523.5 1498.83,-520 1488.83,-516.5 1488.83,-523.5"/>
<text text-anchor="middle" x="1229.21" y="-523.2" font-family="Times,serif" font-size="14.00">possède 99%</text>
</g>
<!-- courrier&#45;international&#45;21 -->
<g id="node9" class="node">
<title>courrier&#45;international&#45;21</title>
<ellipse fill="none" stroke="black" cx="1533.97" cy="-1060" rx="91.27" ry="18"/>
<text text-anchor="middle" x="1533.97" y="-1054.95" font-family="Times,serif" font-size="14.00">Courrier international</text>
</g>
<!-- le&#45;monde&#45;sa&#45;15&#45;&gt;courrier&#45;international&#45;21 -->
<g id="edge7" class="edge">
<title>le&#45;monde&#45;sa&#45;15&#45;&gt;courrier&#45;international&#45;21</title>
<path fill="none" stroke="black" d="M1233.01,-807.75C1240.44,-848.86 1264.49,-951.24 1326.5,-1006 1356.33,-1032.34 1397.47,-1046.08 1435.18,-1053.16"/>
<polygon fill="black" stroke="black" points="1434.27,-1056.73 1444.72,-1054.99 1435.46,-1049.83 1434.27,-1056.73"/>
<text text-anchor="middle" x="1365.88" y="-1048.2" font-family="Times,serif" font-size="14.00">possède 100%</text>
</g>
<!-- huffpost&#45;26 -->
<g id="node10" class="node">
<title>huffpost&#45;26</title>
<ellipse fill="none" stroke="black" cx="1533.97" cy="-1006" rx="44.19" ry="18"/>
<text text-anchor="middle" x="1533.97" y="-1000.95" font-family="Times,serif" font-size="14.00">HuffPost</text>
</g>
<!-- le&#45;monde&#45;sa&#45;15&#45;&gt;huffpost&#45;26 -->
<g id="edge8" class="edge">
<title>le&#45;monde&#45;sa&#45;15&#45;&gt;huffpost&#45;26</title>
<path fill="none" stroke="black" d="M1236.49,-807.36C1248.87,-839.23 1279.37,-907.35 1326.5,-946 1370.1,-981.75 1434.13,-996.2 1479.3,-1002.04"/>
<polygon fill="black" stroke="black" points="1478.72,-1005.62 1489.07,-1003.32 1479.55,-998.67 1478.72,-1005.62"/>
<text text-anchor="middle" x="1365.88" y="-988.2" font-family="Times,serif" font-size="14.00">possède 34%</text>
</g>
<!-- la&#45;vie&#45;23 -->
<g id="node11" class="node">
<title>la&#45;vie&#45;23</title>
<ellipse fill="none" stroke="black" cx="1533.97" cy="-952" rx="36" ry="18"/>
<text text-anchor="middle" x="1533.97" y="-946.95" font-family="Times,serif" font-size="14.00">La Vie</text>
</g>
<!-- le&#45;monde&#45;sa&#45;15&#45;&gt;la&#45;vie&#45;23 -->
<g id="edge9" class="edge">
<title>le&#45;monde&#45;sa&#45;15&#45;&gt;la&#45;vie&#45;23</title>
<path fill="none" stroke="black" d="M1241.86,-806.13C1258.44,-828.05 1290.81,-867.23 1326.5,-891 1375.97,-923.95 1443.65,-939.5 1487.83,-946.56"/>
<polygon fill="black" stroke="black" points="1487.12,-950.14 1497.53,-948.17 1488.17,-943.22 1487.12,-950.14"/>
<text text-anchor="middle" x="1365.88" y="-928.2" font-family="Times,serif" font-size="14.00">possède 100%</text>
</g>
<!-- le&#45;monde&#45;19 -->
<g id="node12" class="node">
<title>le&#45;monde&#45;19</title>
<ellipse fill="none" stroke="black" cx="1533.97" cy="-898" rx="49.82" ry="18"/>
<text text-anchor="middle" x="1533.97" y="-892.95" font-family="Times,serif" font-size="14.00">Le Monde</text>
</g>
<!-- le&#45;monde&#45;sa&#45;15&#45;&gt;le&#45;monde&#45;19 -->
<g id="edge10" class="edge">
<title>le&#45;monde&#45;sa&#45;15&#45;&gt;le&#45;monde&#45;19</title>
<path fill="none" stroke="black" d="M1252.85,-804.54C1271.92,-816.34 1300.23,-832.79 1326.5,-844 1375.88,-865.06 1435.5,-879.58 1477.95,-888.22"/>
<polygon fill="black" stroke="black" points="1477.14,-891.82 1487.63,-890.34 1478.51,-884.96 1477.14,-891.82"/>
<text text-anchor="middle" x="1365.88" y="-873.2" font-family="Times,serif" font-size="14.00">possède 100%</text>
</g>
<!-- le&#45;monde&#45;des&#45;religions&#45;22 -->
<g id="node13" class="node">
<title>le&#45;monde&#45;des&#45;religions&#45;22</title>
<ellipse fill="none" stroke="black" cx="1533.97" cy="-844" rx="99.46" ry="18"/>
<text text-anchor="middle" x="1533.97" y="-838.95" font-family="Times,serif" font-size="14.00">Le Monde des religions</text>
</g>
<!-- le&#45;monde&#45;sa&#45;15&#45;&gt;le&#45;monde&#45;des&#45;religions&#45;22 -->
<g id="edge11" class="edge">
<title>le&#45;monde&#45;sa&#45;15&#45;&gt;le&#45;monde&#45;des&#45;religions&#45;22</title>
<path fill="none" stroke="black" d="M1277.61,-800.89C1293.15,-804.31 1310.53,-807.98 1326.5,-811 1365.14,-818.29 1408.04,-825.32 1444.68,-831.01"/>
<polygon fill="black" stroke="black" points="1443.92,-834.58 1454.34,-832.65 1444.99,-827.67 1443.92,-834.58"/>
<text text-anchor="middle" x="1365.88" y="-826.2" font-family="Times,serif" font-size="14.00">possède 100%</text>
</g>
<!-- le&#45;monde&#45;diplomatique&#45;24 -->
<g id="node14" class="node">
<title>le&#45;monde&#45;diplomatique&#45;24</title>
<ellipse fill="none" stroke="black" cx="1533.97" cy="-790" rx="101.51" ry="18"/>
<text text-anchor="middle" x="1533.97" y="-784.95" font-family="Times,serif" font-size="14.00">Le Monde diplomatique</text>
</g>
<!-- le&#45;monde&#45;sa&#45;15&#45;&gt;le&#45;monde&#45;diplomatique&#45;24 -->
<g id="edge12" class="edge">
<title>le&#45;monde&#45;sa&#45;15&#45;&gt;le&#45;monde&#45;diplomatique&#45;24</title>
<path fill="none" stroke="black" d="M1308.97,-790C1343.17,-790 1383.86,-790 1421.12,-790"/>
<polygon fill="black" stroke="black" points="1421.04,-793.5 1431.04,-790 1421.04,-786.5 1421.04,-793.5"/>
<text text-anchor="middle" x="1365.88" y="-793.2" font-family="Times,serif" font-size="14.00">possède 51%</text>
</g>
<!-- m&#45;le&#45;magazine&#45;du&#45;monde&#45;18 -->
<g id="node15" class="node">
<title>m&#45;le&#45;magazine&#45;du&#45;monde&#45;18</title>
<ellipse fill="none" stroke="black" cx="1533.97" cy="-736" rx="110.72" ry="18"/>
<text text-anchor="middle" x="1533.97" y="-730.95" font-family="Times,serif" font-size="14.00">M, le magazine du Monde</text>
</g>
<!-- le&#45;monde&#45;sa&#45;15&#45;&gt;m&#45;le&#45;magazine&#45;du&#45;monde&#45;18 -->
<g id="edge13" class="edge">
<title>le&#45;monde&#45;sa&#45;15&#45;&gt;m&#45;le&#45;magazine&#45;du&#45;monde&#45;18</title>
<path fill="none" stroke="black" d="M1298.77,-774.97C1308.08,-773.06 1317.51,-771.18 1326.5,-769.5 1363.86,-762.5 1405.18,-755.62 1440.99,-749.94"/>
<polygon fill="black" stroke="black" points="1441.09,-753.31 1450.42,-748.29 1440,-746.39 1441.09,-753.31"/>
<text text-anchor="middle" x="1365.88" y="-772.2" font-family="Times,serif" font-size="14.00">possède 100%</text>
</g>
<!-- maniere&#45;de&#45;voir&#45;25 -->
<g id="node16" class="node">
<title>maniere&#45;de&#45;voir&#45;25</title>
<ellipse fill="none" stroke="black" cx="1533.97" cy="-682" rx="70.8" ry="18"/>
<text text-anchor="middle" x="1533.97" y="-676.95" font-family="Times,serif" font-size="14.00">Manière de voir</text>
</g>
<!-- le&#45;monde&#45;sa&#45;15&#45;&gt;maniere&#45;de&#45;voir&#45;25 -->
<g id="edge14" class="edge">
<title>le&#45;monde&#45;sa&#45;15&#45;&gt;maniere&#45;de&#45;voir&#45;25</title>
<path fill="none" stroke="black" d="M1253.2,-775.03C1272.25,-763.11 1300.34,-746.64 1326.5,-735.5 1370.75,-716.65 1423.25,-703.16 1464.24,-694.44"/>
<polygon fill="black" stroke="black" points="1464.86,-697.68 1473.94,-692.21 1463.44,-690.82 1464.86,-697.68"/>
<text text-anchor="middle" x="1365.88" y="-738.2" font-family="Times,serif" font-size="14.00">possède 51%</text>
</g>
<!-- prier&#45;17 -->
<g id="node17" class="node">
<title>prier&#45;17</title>
<ellipse fill="none" stroke="black" cx="1533.97" cy="-628" rx="28.83" ry="18"/>
<text text-anchor="middle" x="1533.97" y="-622.95" font-family="Times,serif" font-size="14.00">Prier</text>
</g>
<!-- le&#45;monde&#45;sa&#45;15&#45;&gt;prier&#45;17 -->
<g id="edge15" class="edge">
<title>le&#45;monde&#45;sa&#45;15&#45;&gt;prier&#45;17</title>
<path fill="none" stroke="black" d="M1240.73,-775.23C1256.91,-753.49 1289.88,-712.83 1326.5,-688.5 1378.45,-653.99 1450.46,-638.76 1494.27,-632.34"/>
<polygon fill="black" stroke="black" points="1494.61,-635.69 1504.04,-630.86 1493.66,-628.76 1494.61,-635.69"/>
<text text-anchor="middle" x="1365.88" y="-691.2" font-family="Times,serif" font-size="14.00">possède 100%</text>
</g>
<!-- telerama&#45;20 -->
<g id="node18" class="node">
<title>telerama&#45;20</title>
<ellipse fill="none" stroke="black" cx="1533.97" cy="-574" rx="46.23" ry="18"/>
<text text-anchor="middle" x="1533.97" y="-568.95" font-family="Times,serif" font-size="14.00">Télérama</text>
</g>
<!-- le&#45;monde&#45;sa&#45;15&#45;&gt;telerama&#45;20 -->
<g id="edge16" class="edge">
<title>le&#45;monde&#45;sa&#45;15&#45;&gt;telerama&#45;20</title>
<path fill="none" stroke="black" d="M1235.38,-775.1C1246.88,-744.1 1277.47,-672.28 1326.5,-632.5 1369.54,-597.59 1432.26,-583.5 1477.27,-577.82"/>
<polygon fill="black" stroke="black" points="1477.49,-581.2 1487.02,-576.58 1476.68,-574.25 1477.49,-581.2"/>
<text text-anchor="middle" x="1365.88" y="-635.2" font-family="Times,serif" font-size="14.00">possède 100%</text>
</g>
<!-- lci&#45;125 -->
<g id="node22" class="node">
<title>lci&#45;125</title>
<ellipse fill="none" stroke="black" cx="1533.97" cy="-250" rx="27" ry="18"/>
<text text-anchor="middle" x="1533.97" y="-244.95" font-family="Times,serif" font-size="14.00">LCI</text>
</g>
<!-- groupe&#45;tf1&#45;122&#45;&gt;lci&#45;125 -->
<g id="edge21" class="edge">
<title>groupe&#45;tf1&#45;122&#45;&gt;lci&#45;125</title>
<path fill="none" stroke="black" d="M1260.63,-180.61C1279.4,-188.08 1304.09,-197.35 1326.5,-204 1385.36,-221.47 1455.39,-235.74 1496.91,-243.54"/>
<polygon fill="black" stroke="black" points="1496.1,-247.13 1506.58,-245.52 1497.38,-240.25 1496.1,-247.13"/>
<text text-anchor="middle" x="1365.88" y="-227.2" font-family="Times,serif" font-size="14.00">possède 100%</text>
</g>
<!-- tf1&#45;123 -->
<g id="node23" class="node">
<title>tf1&#45;123</title>
<ellipse fill="none" stroke="black" cx="1533.97" cy="-196" rx="27" ry="18"/>
<text text-anchor="middle" x="1533.97" y="-190.95" font-family="Times,serif" font-size="14.00">TF1</text>
</g>
<!-- groupe&#45;tf1&#45;122&#45;&gt;tf1&#45;123 -->
<g id="edge22" class="edge">
<title>groupe&#45;tf1&#45;122&#45;&gt;tf1&#45;123</title>
<path fill="none" stroke="black" d="M1297.4,-174.21C1358.66,-179.88 1446.88,-188.04 1496.14,-192.59"/>
<polygon fill="black" stroke="black" points="1495.63,-196.15 1505.91,-193.59 1496.27,-189.18 1495.63,-196.15"/>
<text text-anchor="middle" x="1365.88" y="-186.2" font-family="Times,serif" font-size="14.00">possède 100%</text>
</g>
<!-- tf1&#45;series&#45;films&#45;126 -->
<g id="node24" class="node">
<title>tf1&#45;series&#45;films&#45;126</title>
<ellipse fill="none" stroke="black" cx="1533.97" cy="-142" rx="75.41" ry="18"/>
<text text-anchor="middle" x="1533.97" y="-136.95" font-family="Times,serif" font-size="14.00">TF1 Séries Films</text>
</g>
<!-- groupe&#45;tf1&#45;122&#45;&gt;tf1&#45;series&#45;films&#45;126 -->
<g id="edge23" class="edge">
<title>groupe&#45;tf1&#45;122&#45;&gt;tf1&#45;series&#45;films&#45;126</title>
<path fill="none" stroke="black" d="M1298.77,-157.71C1308.08,-156.51 1317.51,-155.4 1326.5,-154.5 1366.5,-150.49 1411,-147.6 1448.42,-145.61"/>
<polygon fill="black" stroke="black" points="1448.47,-149.06 1458.28,-145.05 1448.11,-142.07 1448.47,-149.06"/>
<text text-anchor="middle" x="1365.88" y="-157.2" font-family="Times,serif" font-size="14.00">possède 100%</text>
</g>
<!-- tfx&#45;124 -->
<g id="node25" class="node">
<title>tfx&#45;124</title>
<ellipse fill="none" stroke="black" cx="1533.97" cy="-88" rx="28.32" ry="18"/>
<text text-anchor="middle" x="1533.97" y="-82.95" font-family="Times,serif" font-size="14.00">TFX</text>
</g>
<!-- groupe&#45;tf1&#45;122&#45;&gt;tfx&#45;124 -->
<g id="edge24" class="edge">
<title>groupe&#45;tf1&#45;122&#45;&gt;tfx&#45;124</title>
<path fill="none" stroke="black" d="M1261.26,-152.99C1279.83,-144.5 1304.11,-134.27 1326.5,-127.5 1384.1,-110.09 1453.15,-98.72 1495.01,-92.83"/>
<polygon fill="black" stroke="black" points="1495.38,-96.18 1504.81,-91.35 1494.43,-89.24 1495.38,-96.18"/>
<text text-anchor="middle" x="1365.88" y="-130.2" font-family="Times,serif" font-size="14.00">possède 100%</text>
</g>
<!-- tmc&#45;127 -->
<g id="node26" class="node">
<title>tmc&#45;127</title>
<ellipse fill="none" stroke="black" cx="1533.97" cy="-34" rx="31.39" ry="18"/>
<text text-anchor="middle" x="1533.97" y="-28.95" font-family="Times,serif" font-size="14.00">TMC</text>
</g>
<!-- groupe&#45;tf1&#45;122&#45;&gt;tmc&#45;127 -->
<g id="edge25" class="edge">
<title>groupe&#45;tf1&#45;122&#45;&gt;tmc&#45;127</title>
<path fill="none" stroke="black" d="M1244.15,-153.1C1261.74,-135.13 1293.68,-105.14 1326.5,-87.5 1379.61,-58.95 1448.69,-45.08 1491.93,-38.76"/>
<polygon fill="black" stroke="black" points="1492.19,-42.12 1501.61,-37.27 1491.23,-35.18 1492.19,-42.12"/>
<text text-anchor="middle" x="1365.88" y="-90.2" font-family="Times,serif" font-size="14.00">possède 100%</text>
</g>
</g>
</svg>
