<?xml version="1.0" encoding="UTF-8" standalone="no"?>
<!DOCTYPE svg PUBLIC "-//W3C//DTD SVG 1.1//EN"
 "http://www.w3.org/Graphics/SVG/1.1/DTD/svg11.dtd">
<!-- Generated by graphviz version 7.1.0 (20230121.1956)
 -->
<!-- Pages: 1 -->
<svg width="1163pt" height="346pt"
 viewBox="0.00 0.00 1162.73 346.00" xmlns="http://www.w3.org/2000/svg" xmlns:xlink="http://www.w3.org/1999/xlink">
<g id="graph0" class="graph" transform="scale(1 1) rotate(0) translate(4 342)">
<polygon fill="white" stroke="none" points="-4,4 -4,-342 1158.73,-342 1158.73,4 -4,4"/>
<g id="clust2" class="cluster">
<title>clusterLeaves</title>
<polygon fill="none" stroke="black" points="870.75,-8 870.75,-330 1146.73,-330 1146.73,-8 870.75,-8"/>
</g>
<!-- philippe&#45;hersant&#45;292 -->
<g id="node1" class="node">
<title>philippe&#45;hersant&#45;292</title>
<polygon fill="none" stroke="black" points="122,-177 0,-177 0,-141 122,-141 122,-177"/>
<text text-anchor="middle" x="61" y="-155.3" font-family="Times,serif" font-size="14.00">🧑‍💼Philippe Hersant</text>
</g>
<!-- editions&#45;suisses&#45;holding&#45;293 -->
<g id="node2" class="node">
<title>editions&#45;suisses&#45;holding&#45;293</title>
<polygon fill="none" stroke="black" points="482.75,-164.56 359.92,-177 237.08,-164.56 237.2,-144.44 482.63,-144.44 482.75,-164.56"/>
<text text-anchor="middle" x="359.92" y="-155.3" font-family="Times,serif" font-size="14.00">Éditions Suisses Holding</text>
</g>
<!-- philippe&#45;hersant&#45;292&#45;&gt;editions&#45;suisses&#45;holding&#45;293 -->
<g id="edge1" class="edge">
<title>philippe&#45;hersant&#45;292&#45;&gt;editions&#45;suisses&#45;holding&#45;293</title>
<path fill="none" stroke="black" d="M122.44,-159C152.25,-159 189.47,-159 225.5,-159"/>
<polygon fill="black" stroke="black" points="225.12,-162.5 235.12,-159 225.12,-155.5 225.12,-162.5"/>
<text text-anchor="middle" x="179.5" y="-162.8" font-family="Times,serif" font-size="14.00">possède 100%</text>
</g>
<!-- groupe&#45;filanosa&#45;295 -->
<g id="node3" class="node">
<title>groupe&#45;filanosa&#45;295</title>
<polygon fill="none" stroke="black" points="763.71,-218.56 677.79,-231 591.87,-218.56 591.95,-198.44 763.63,-198.44 763.71,-218.56"/>
<text text-anchor="middle" x="677.79" y="-209.3" font-family="Times,serif" font-size="14.00">Groupe Filanosa</text>
</g>
<!-- editions&#45;suisses&#45;holding&#45;293&#45;&gt;groupe&#45;filanosa&#45;295 -->
<g id="edge2" class="edge">
<title>editions&#45;suisses&#45;holding&#45;293&#45;&gt;groupe&#45;filanosa&#45;295</title>
<path fill="none" stroke="black" d="M428.29,-170.52C472.59,-178.09 531.23,-188.12 580.43,-196.53"/>
<polygon fill="black" stroke="black" points="579.8,-199.97 590.25,-198.21 580.98,-193.07 579.8,-199.97"/>
<text text-anchor="middle" x="537.33" y="-196.8" font-family="Times,serif" font-size="14.00">possède 50%</text>
</g>
<!-- rhone&#45;media&#45;296 -->
<g id="node4" class="node">
<title>rhone&#45;media&#45;296</title>
<polygon fill="none" stroke="black" points="751.01,-137.56 677.79,-150 604.58,-137.56 604.65,-117.44 750.94,-117.44 751.01,-137.56"/>
<text text-anchor="middle" x="677.79" y="-128.3" font-family="Times,serif" font-size="14.00">Rhône Média</text>
</g>
<!-- editions&#45;suisses&#45;holding&#45;293&#45;&gt;rhone&#45;media&#45;296 -->
<g id="edge6" class="edge">
<title>editions&#45;suisses&#45;holding&#45;293&#45;&gt;rhone&#45;media&#45;296</title>
<path fill="none" stroke="black" d="M482.99,-146.6C489.02,-146.04 495,-145.51 500.83,-145 530.87,-142.39 563.82,-139.86 593.01,-137.74"/>
<polygon fill="black" stroke="black" points="593.19,-141.24 602.91,-137.03 592.68,-134.26 593.19,-141.24"/>
<text text-anchor="middle" x="537.33" y="-148.8" font-family="Times,serif" font-size="14.00">possède 50%</text>
</g>
<!-- l&#45;express&#45;neuchatel&#45;298 -->
<g id="node5" class="node">
<title>l&#45;express&#45;neuchatel&#45;298</title>
<ellipse fill="none" stroke="black" cx="1008.74" cy="-304" rx="90.18" ry="18"/>
<text text-anchor="middle" x="1008.74" y="-300.3" font-family="Times,serif" font-size="14.00">L’Express (Neuchâtel)</text>
</g>
<!-- groupe&#45;filanosa&#45;295&#45;&gt;l&#45;express&#45;neuchatel&#45;298 -->
<g id="edge3" class="edge">
<title>groupe&#45;filanosa&#45;295&#45;&gt;l&#45;express&#45;neuchatel&#45;298</title>
<path fill="none" stroke="black" d="M712.9,-226.27C732.85,-233.85 758.59,-243.35 781.75,-251 820.89,-263.92 830.72,-267.23 870.75,-277 889.55,-281.59 909.95,-285.94 929.12,-289.76"/>
<polygon fill="black" stroke="black" points="928.27,-293.16 938.76,-291.65 929.62,-286.29 928.27,-293.16"/>
<text text-anchor="middle" x="821.25" y="-277.8" font-family="Times,serif" font-size="14.00">possède 100%</text>
</g>
<!-- l&#45;impartial&#45;la&#45;chaux&#45;de&#45;fonds&#45;299 -->
<g id="node6" class="node">
<title>l&#45;impartial&#45;la&#45;chaux&#45;de&#45;fonds&#45;299</title>
<ellipse fill="none" stroke="black" cx="1008.74" cy="-250" rx="129.98" ry="18"/>
<text text-anchor="middle" x="1008.74" y="-246.3" font-family="Times,serif" font-size="14.00">L’Impartial (La Chaux&#45;de&#45;Fonds)</text>
</g>
<!-- groupe&#45;filanosa&#45;295&#45;&gt;l&#45;impartial&#45;la&#45;chaux&#45;de&#45;fonds&#45;299 -->
<g id="edge4" class="edge">
<title>groupe&#45;filanosa&#45;295&#45;&gt;l&#45;impartial&#45;la&#45;chaux&#45;de&#45;fonds&#45;299</title>
<path fill="none" stroke="black" d="M749.77,-220.98C792.08,-225.74 846.76,-231.89 894.88,-237.31"/>
<polygon fill="black" stroke="black" points="894.48,-240.78 904.81,-238.42 895.27,-233.83 894.48,-240.78"/>
<text text-anchor="middle" x="821.25" y="-235.8" font-family="Times,serif" font-size="14.00">possède 100%</text>
</g>
<!-- la&#45;cote&#45;nyon&#45;297 -->
<g id="node7" class="node">
<title>la&#45;cote&#45;nyon&#45;297</title>
<ellipse fill="none" stroke="black" cx="1008.74" cy="-196" rx="66.89" ry="18"/>
<text text-anchor="middle" x="1008.74" y="-192.3" font-family="Times,serif" font-size="14.00">La Côte (Nyon)</text>
</g>
<!-- groupe&#45;filanosa&#45;295&#45;&gt;la&#45;cote&#45;nyon&#45;297 -->
<g id="edge5" class="edge">
<title>groupe&#45;filanosa&#45;295&#45;&gt;la&#45;cote&#45;nyon&#45;297</title>
<path fill="none" stroke="black" d="M763.93,-208.6C815.68,-205.93 881.2,-202.54 931.29,-199.95"/>
<polygon fill="black" stroke="black" points="931.38,-203.45 941.19,-199.44 931.02,-196.46 931.38,-203.45"/>
<text text-anchor="middle" x="821.25" y="-210.8" font-family="Times,serif" font-size="14.00">possède 100%</text>
</g>
<!-- la&#45;gazette&#45;de&#45;martigny&#45;301 -->
<g id="node8" class="node">
<title>la&#45;gazette&#45;de&#45;martigny&#45;301</title>
<ellipse fill="none" stroke="black" cx="1008.74" cy="-142" rx="95.58" ry="18"/>
<text text-anchor="middle" x="1008.74" y="-138.3" font-family="Times,serif" font-size="14.00">La Gazette de Martigny</text>
</g>
<!-- rhone&#45;media&#45;296&#45;&gt;la&#45;gazette&#45;de&#45;martigny&#45;301 -->
<g id="edge7" class="edge">
<title>rhone&#45;media&#45;296&#45;&gt;la&#45;gazette&#45;de&#45;martigny&#45;301</title>
<path fill="none" stroke="black" d="M751.39,-134.21C795.8,-135.56 853.37,-137.31 902.69,-138.81"/>
<polygon fill="black" stroke="black" points="902.45,-142.3 912.55,-139.11 902.66,-135.3 902.45,-142.3"/>
<text text-anchor="middle" x="821.25" y="-140.8" font-family="Times,serif" font-size="14.00">possède 100%</text>
</g>
<!-- le&#45;journal&#45;de&#45;sierre&#45;302 -->
<g id="node9" class="node">
<title>le&#45;journal&#45;de&#45;sierre&#45;302</title>
<ellipse fill="none" stroke="black" cx="1008.74" cy="-88" rx="82.59" ry="18"/>
<text text-anchor="middle" x="1008.74" y="-84.3" font-family="Times,serif" font-size="14.00">Le Journal de Sierre</text>
</g>
<!-- rhone&#45;media&#45;296&#45;&gt;le&#45;journal&#45;de&#45;sierre&#45;302 -->
<g id="edge8" class="edge">
<title>rhone&#45;media&#45;296&#45;&gt;le&#45;journal&#45;de&#45;sierre&#45;302</title>
<path fill="none" stroke="black" d="M751.31,-120.44C761.53,-118.9 771.9,-117.38 781.75,-116 828.66,-109.45 881.15,-102.9 923.73,-97.78"/>
<polygon fill="black" stroke="black" points="923.88,-101.29 933.4,-96.63 923.05,-94.34 923.88,-101.29"/>
<text text-anchor="middle" x="821.25" y="-119.8" font-family="Times,serif" font-size="14.00">possède 100%</text>
</g>
<!-- le&#45;nouvelliste&#45;300 -->
<g id="node10" class="node">
<title>le&#45;nouvelliste&#45;300</title>
<ellipse fill="none" stroke="black" cx="1008.74" cy="-34" rx="63.09" ry="18"/>
<text text-anchor="middle" x="1008.74" y="-30.3" font-family="Times,serif" font-size="14.00">Le Nouvelliste</text>
</g>
<!-- rhone&#45;media&#45;296&#45;&gt;le&#45;nouvelliste&#45;300 -->
<g id="edge9" class="edge">
<title>rhone&#45;media&#45;296&#45;&gt;le&#45;nouvelliste&#45;300</title>
<path fill="none" stroke="black" d="M710.37,-116.95C730.53,-107.65 757.36,-95.85 781.75,-87 834.31,-67.93 896.28,-53.96 942.02,-45.17"/>
<polygon fill="black" stroke="black" points="942.62,-48.62 951.79,-43.32 941.32,-41.74 942.62,-48.62"/>
<text text-anchor="middle" x="821.25" y="-90.8" font-family="Times,serif" font-size="14.00">possède 100%</text>
</g>
</g>
</svg>
