<?xml version="1.0" encoding="UTF-8" standalone="no"?>
<!DOCTYPE svg PUBLIC "-//W3C//DTD SVG 1.1//EN"
 "http://www.w3.org/Graphics/SVG/1.1/DTD/svg11.dtd">
<!-- Generated by graphviz version 8.1.0 (20230707.0739)
 -->
<!-- Pages: 1 -->
<svg width="823pt" height="454pt"
 viewBox="0.00 0.00 822.85 454.00" xmlns="http://www.w3.org/2000/svg" xmlns:xlink="http://www.w3.org/1999/xlink">
<g id="graph0" class="graph" transform="scale(1 1) rotate(0) translate(4 450)">
<polygon fill="white" stroke="none" points="-4,4 -4,-450 818.85,-450 818.85,4 -4,4"/>
<g id="clust2" class="cluster">
<title>clusterLeaves</title>
<polygon fill="none" stroke="black" points="575.55,-8 575.55,-438 806.85,-438 806.85,-8 575.55,-8"/>
</g>
<!-- edouard&#45;coudurier&#45;266 -->
<g id="node1" class="node">
<title>edouard&#45;coudurier&#45;266</title>
<polygon fill="none" stroke="black" points="134.5,-237 0,-237 0,-201 134.5,-201 134.5,-237"/>
<text text-anchor="middle" x="67.25" y="-215.07" font-family="Times,serif" font-size="14.00">🧑‍💼Édouard Coudurier</text>
</g>
<!-- groupe&#45;telegramme&#45;267 -->
<g id="node2" class="node">
<title>groupe&#45;telegramme&#45;267</title>
<polygon fill="none" stroke="black" points="468.8,-224.56 359.77,-237 250.75,-224.56 250.85,-204.44 468.69,-204.44 468.8,-224.56"/>
<text text-anchor="middle" x="359.77" y="-213.95" font-family="Times,serif" font-size="14.00">Groupe Télégramme</text>
</g>
<!-- edouard&#45;coudurier&#45;266&#45;&gt;groupe&#45;telegramme&#45;267 -->
<g id="edge1" class="edge">
<title>edouard&#45;coudurier&#45;266&#45;&gt;groupe&#45;telegramme&#45;267</title>
<path fill="none" stroke="black" d="M134.9,-219C165.87,-219 203.67,-219 239.32,-219"/>
<polygon fill="black" stroke="black" points="239.3,-222.5 249.3,-219 239.3,-215.5 239.3,-222.5"/>
<text text-anchor="middle" x="192.62" y="-222.2" font-family="Times,serif" font-size="14.00">contrôle 100%</text>
</g>
<!-- bretagne&#45;magazine&#45;275 -->
<g id="node3" class="node">
<title>bretagne&#45;magazine&#45;275</title>
<ellipse fill="none" stroke="black" cx="691.2" cy="-412" rx="82.57" ry="18"/>
<text text-anchor="middle" x="691.2" y="-406.95" font-family="Times,serif" font-size="14.00">Bretagne magazine</text>
</g>
<!-- groupe&#45;telegramme&#45;267&#45;&gt;bretagne&#45;magazine&#45;275 -->
<g id="edge2" class="edge">
<title>groupe&#45;telegramme&#45;267&#45;&gt;bretagne&#45;magazine&#45;275</title>
<path fill="none" stroke="black" d="M373.42,-235.76C394.39,-262.6 438.86,-315.48 486.8,-348 524.62,-373.66 573.27,-389.45 613.51,-398.93"/>
<polygon fill="black" stroke="black" points="612.56,-402.53 623.08,-401.32 614.1,-395.7 612.56,-402.53"/>
<text text-anchor="middle" x="526.17" y="-388.2" font-family="Times,serif" font-size="14.00">possède 50%</text>
</g>
<!-- le&#45;journal&#45;des&#45;entreprises&#45;274 -->
<g id="node4" class="node">
<title>le&#45;journal&#45;des&#45;entreprises&#45;274</title>
<ellipse fill="none" stroke="black" cx="691.2" cy="-358" rx="107.65" ry="18"/>
<text text-anchor="middle" x="691.2" y="-352.95" font-family="Times,serif" font-size="14.00">Le Journal des entreprises</text>
</g>
<!-- groupe&#45;telegramme&#45;267&#45;&gt;le&#45;journal&#45;des&#45;entreprises&#45;274 -->
<g id="edge3" class="edge">
<title>groupe&#45;telegramme&#45;267&#45;&gt;le&#45;journal&#45;des&#45;entreprises&#45;274</title>
<path fill="none" stroke="black" d="M382.23,-234.69C406.65,-252.05 448.17,-280.06 486.8,-299 524.45,-317.46 535.35,-319.06 575.55,-331 587.57,-334.57 600.41,-337.98 612.99,-341.1"/>
<polygon fill="black" stroke="black" points="611.93,-344.69 622.47,-343.65 613.58,-337.88 611.93,-344.69"/>
<text text-anchor="middle" x="526.17" y="-330.2" font-family="Times,serif" font-size="14.00">possède 100%</text>
</g>
<!-- le&#45;mensuel&#45;de&#45;rennes&#45;272 -->
<g id="node5" class="node">
<title>le&#45;mensuel&#45;de&#45;rennes&#45;272</title>
<ellipse fill="none" stroke="black" cx="691.2" cy="-304" rx="96.39" ry="18"/>
<text text-anchor="middle" x="691.2" y="-298.95" font-family="Times,serif" font-size="14.00">Le Mensuel de Rennes</text>
</g>
<!-- groupe&#45;telegramme&#45;267&#45;&gt;le&#45;mensuel&#45;de&#45;rennes&#45;272 -->
<g id="edge4" class="edge">
<title>groupe&#45;telegramme&#45;267&#45;&gt;le&#45;mensuel&#45;de&#45;rennes&#45;272</title>
<path fill="none" stroke="black" d="M400.8,-232.71C425.44,-240.9 457.76,-251.2 486.8,-259 528.14,-270.11 574.74,-280.57 612.89,-288.6"/>
<polygon fill="black" stroke="black" points="611.91,-292.18 622.42,-290.8 613.34,-285.33 611.91,-292.18"/>
<text text-anchor="middle" x="526.17" y="-281.2" font-family="Times,serif" font-size="14.00">possède 100%</text>
</g>
<!-- le&#45;poher&#45;269 -->
<g id="node6" class="node">
<title>le&#45;poher&#45;269</title>
<ellipse fill="none" stroke="black" cx="691.2" cy="-250" rx="44.7" ry="18"/>
<text text-anchor="middle" x="691.2" y="-244.95" font-family="Times,serif" font-size="14.00">Le Poher</text>
</g>
<!-- groupe&#45;telegramme&#45;267&#45;&gt;le&#45;poher&#45;269 -->
<g id="edge5" class="edge">
<title>groupe&#45;telegramme&#45;267&#45;&gt;le&#45;poher&#45;269</title>
<path fill="none" stroke="black" d="M449.05,-227.31C508.89,-232.94 586.02,-240.2 636.73,-244.97"/>
<polygon fill="black" stroke="black" points="636.17,-248.52 646.45,-245.98 636.82,-241.56 636.17,-248.52"/>
<text text-anchor="middle" x="526.17" y="-241.2" font-family="Times,serif" font-size="14.00">possède 100%</text>
</g>
<!-- le&#45;telegramme&#45;268 -->
<g id="node7" class="node">
<title>le&#45;telegramme&#45;268</title>
<ellipse fill="none" stroke="black" cx="691.2" cy="-196" rx="70.29" ry="18"/>
<text text-anchor="middle" x="691.2" y="-190.95" font-family="Times,serif" font-size="14.00">Le Télégramme</text>
</g>
<!-- groupe&#45;telegramme&#45;267&#45;&gt;le&#45;telegramme&#45;268 -->
<g id="edge6" class="edge">
<title>groupe&#45;telegramme&#45;267&#45;&gt;le&#45;telegramme&#45;268</title>
<path fill="none" stroke="black" d="M469.03,-208.88C475.04,-208.39 480.99,-207.93 486.8,-207.5 527.73,-204.48 573.35,-201.83 610.99,-199.84"/>
<polygon fill="black" stroke="black" points="611.09,-203.29 620.89,-199.27 610.73,-196.3 611.09,-203.29"/>
<text text-anchor="middle" x="526.17" y="-210.2" font-family="Times,serif" font-size="14.00">possède 100%</text>
</g>
<!-- sept&#45;jours&#45;a&#45;brest&#45;273 -->
<g id="node8" class="node">
<title>sept&#45;jours&#45;a&#45;brest&#45;273</title>
<ellipse fill="none" stroke="black" cx="691.2" cy="-142" rx="77.97" ry="18"/>
<text text-anchor="middle" x="691.2" y="-136.95" font-family="Times,serif" font-size="14.00">Sept Jours à Brest</text>
</g>
<!-- groupe&#45;telegramme&#45;267&#45;&gt;sept&#45;jours&#45;a&#45;brest&#45;273 -->
<g id="edge7" class="edge">
<title>groupe&#45;telegramme&#45;267&#45;&gt;sept&#45;jours&#45;a&#45;brest&#45;273</title>
<path fill="none" stroke="black" d="M407.16,-204.02C430.84,-196.67 460.19,-188.03 486.8,-181.5 529.43,-171.04 577.63,-161.58 616.41,-154.54"/>
<polygon fill="black" stroke="black" points="616.86,-157.84 626.09,-152.62 615.62,-150.95 616.86,-157.84"/>
<text text-anchor="middle" x="526.17" y="-184.2" font-family="Times,serif" font-size="14.00">possède 100%</text>
</g>
<!-- tebeo&#45;270 -->
<g id="node9" class="node">
<title>tebeo&#45;270</title>
<ellipse fill="none" stroke="black" cx="691.2" cy="-88" rx="33.95" ry="18"/>
<text text-anchor="middle" x="691.2" y="-82.95" font-family="Times,serif" font-size="14.00">Tébéo</text>
</g>
<!-- groupe&#45;telegramme&#45;267&#45;&gt;tebeo&#45;270 -->
<g id="edge8" class="edge">
<title>groupe&#45;telegramme&#45;267&#45;&gt;tebeo&#45;270</title>
<path fill="none" stroke="black" d="M382.25,-204.04C406.69,-187.53 448.23,-160.97 486.8,-143.5 524.54,-126.41 535.63,-126.09 575.55,-115 599.65,-108.3 626.9,-101.84 648.78,-96.92"/>
<polygon fill="black" stroke="black" points="649.37,-100.15 658.37,-94.56 647.85,-93.32 649.37,-100.15"/>
<text text-anchor="middle" x="526.17" y="-146.2" font-family="Times,serif" font-size="14.00">possède 100%</text>
</g>
<!-- tebesud&#45;271 -->
<g id="node10" class="node">
<title>tebesud&#45;271</title>
<ellipse fill="none" stroke="black" cx="691.2" cy="-34" rx="42.14" ry="18"/>
<text text-anchor="middle" x="691.2" y="-28.95" font-family="Times,serif" font-size="14.00">Tébésud</text>
</g>
<!-- groupe&#45;telegramme&#45;267&#45;&gt;tebesud&#45;271 -->
<g id="edge9" class="edge">
<title>groupe&#45;telegramme&#45;267&#45;&gt;tebesud&#45;271</title>
<path fill="none" stroke="black" d="M372.93,-204.05C393.9,-179.09 439.22,-128.58 486.8,-97.5 533.91,-66.73 596.84,-50.1 640.17,-41.68"/>
<polygon fill="black" stroke="black" points="640.55,-44.98 649.74,-39.71 639.26,-38.1 640.55,-44.98"/>
<text text-anchor="middle" x="526.17" y="-100.2" font-family="Times,serif" font-size="14.00">possède 100%</text>
</g>
</g>
</svg>
