<?xml version="1.0" encoding="UTF-8" standalone="no"?>
<!DOCTYPE svg PUBLIC "-//W3C//DTD SVG 1.1//EN"
 "http://www.w3.org/Graphics/SVG/1.1/DTD/svg11.dtd">
<!-- Generated by graphviz version 8.1.0 (20230707.0739)
 -->
<!-- Pages: 1 -->
<svg width="1218pt" height="454pt"
 viewBox="0.00 0.00 1218.02 454.00" xmlns="http://www.w3.org/2000/svg" xmlns:xlink="http://www.w3.org/1999/xlink">
<g id="graph0" class="graph" transform="scale(1 1) rotate(0) translate(4 450)">
<polygon fill="white" stroke="none" points="-4,4 -4,-450 1214.02,-450 1214.02,4 -4,4"/>
<g id="clust2" class="cluster">
<title>clusterLeaves</title>
<polygon fill="none" stroke="black" points="880.64,-8 880.64,-438 1202.02,-438 1202.02,-8 880.64,-8"/>
</g>
<!-- famille&#45;baylet&#45;241 -->
<g id="node1" class="node">
<title>famille&#45;baylet&#45;241</title>
<polygon fill="none" stroke="black" points="111.25,-186 0,-186 0,-150 111.25,-150 111.25,-186"/>
<text text-anchor="middle" x="55.62" y="-164.07" font-family="Times,serif" font-size="14.00">🧑‍💼Famille Baylet</text>
</g>
<!-- groupe&#45;la&#45;depeche&#45;242 -->
<g id="node2" class="node">
<title>groupe&#45;la&#45;depeche&#45;242</title>
<polygon fill="none" stroke="black" points="430.97,-173.56 325.11,-186 219.25,-173.56 219.35,-153.44 430.87,-153.44 430.97,-173.56"/>
<text text-anchor="middle" x="325.11" y="-162.95" font-family="Times,serif" font-size="14.00">Groupe La Dépêche</text>
</g>
<!-- famille&#45;baylet&#45;241&#45;&gt;groupe&#45;la&#45;depeche&#45;242 -->
<g id="edge1" class="edge">
<title>famille&#45;baylet&#45;241&#45;&gt;groupe&#45;la&#45;depeche&#45;242</title>
<path fill="none" stroke="black" d="M111.72,-168C139.6,-168 174.55,-168 207.99,-168"/>
<polygon fill="black" stroke="black" points="207.79,-171.5 217.79,-168 207.79,-164.5 207.79,-171.5"/>
<text text-anchor="middle" x="165.25" y="-171.2" font-family="Times,serif" font-size="14.00">possède 82%</text>
</g>
<!-- les&#45;journaux&#45;du&#45;midi&#45;248 -->
<g id="node3" class="node">
<title>les&#45;journaux&#45;du&#45;midi&#45;248</title>
<polygon fill="none" stroke="black" points="773.89,-340.56 659.8,-353 545.72,-340.56 545.83,-320.44 773.78,-320.44 773.89,-340.56"/>
<text text-anchor="middle" x="659.8" y="-329.95" font-family="Times,serif" font-size="14.00">Les Journaux du midi</text>
</g>
<!-- groupe&#45;la&#45;depeche&#45;242&#45;&gt;les&#45;journaux&#45;du&#45;midi&#45;248 -->
<g id="edge7" class="edge">
<title>groupe&#45;la&#45;depeche&#45;242&#45;&gt;les&#45;journaux&#45;du&#45;midi&#45;248</title>
<path fill="none" stroke="black" d="M343.14,-184.15C365.76,-204.85 407.67,-240.74 448.97,-263 493.04,-286.75 546.45,-304.95 588.36,-317.1"/>
<polygon fill="black" stroke="black" points="587.18,-320.69 597.76,-320.06 589.1,-313.96 587.18,-320.69"/>
<text text-anchor="middle" x="488.35" y="-300.2" font-family="Times,serif" font-size="14.00">possède 100%</text>
</g>
<!-- la&#45;depeche&#45;du&#45;midi&#45;243 -->
<g id="node4" class="node">
<title>la&#45;depeche&#45;du&#45;midi&#45;243</title>
<ellipse fill="none" stroke="black" cx="1041.33" cy="-250" rx="87.18" ry="18"/>
<text text-anchor="middle" x="1041.33" y="-244.95" font-family="Times,serif" font-size="14.00">La Dépêche du midi</text>
</g>
<!-- groupe&#45;la&#45;depeche&#45;242&#45;&gt;la&#45;depeche&#45;du&#45;midi&#45;243 -->
<g id="edge2" class="edge">
<title>groupe&#45;la&#45;depeche&#45;242&#45;&gt;la&#45;depeche&#45;du&#45;midi&#45;243</title>
<path fill="none" stroke="black" d="M383.23,-179.58C427.43,-188.2 490.25,-199.68 545.72,-207 684.5,-225.32 846.27,-237.7 945.99,-244.31"/>
<polygon fill="black" stroke="black" points="945.74,-247.86 955.94,-245.02 946.19,-240.88 945.74,-247.86"/>
<text text-anchor="middle" x="659.8" y="-233.2" font-family="Times,serif" font-size="14.00">possède 100%</text>
</g>
<!-- la&#45;gazette&#45;du&#45;comminges&#45;247 -->
<g id="node5" class="node">
<title>la&#45;gazette&#45;du&#45;comminges&#45;247</title>
<ellipse fill="none" stroke="black" cx="1041.33" cy="-196" rx="111.23" ry="18"/>
<text text-anchor="middle" x="1041.33" y="-190.95" font-family="Times,serif" font-size="14.00">La Gazette du Comminges</text>
</g>
<!-- groupe&#45;la&#45;depeche&#45;242&#45;&gt;la&#45;gazette&#45;du&#45;comminges&#45;247 -->
<g id="edge3" class="edge">
<title>groupe&#45;la&#45;depeche&#45;242&#45;&gt;la&#45;gazette&#45;du&#45;comminges&#45;247</title>
<path fill="none" stroke="black" d="M431.33,-173.22C437.3,-173.49 443.21,-173.75 448.97,-174 612.46,-181.03 801.43,-187.83 920.88,-191.96"/>
<polygon fill="black" stroke="black" points="920.75,-195.5 930.86,-192.34 920.99,-188.5 920.75,-195.5"/>
<text text-anchor="middle" x="659.8" y="-189.2" font-family="Times,serif" font-size="14.00">possède 100%</text>
</g>
<!-- la&#45;nouvelle&#45;republique&#45;des&#45;pyrenees&#45;245 -->
<g id="node6" class="node">
<title>la&#45;nouvelle&#45;republique&#45;des&#45;pyrenees&#45;245</title>
<ellipse fill="none" stroke="black" cx="1041.33" cy="-142" rx="152.69" ry="18"/>
<text text-anchor="middle" x="1041.33" y="-136.95" font-family="Times,serif" font-size="14.00">La Nouvelle République des Pyrénées</text>
</g>
<!-- groupe&#45;la&#45;depeche&#45;242&#45;&gt;la&#45;nouvelle&#45;republique&#45;des&#45;pyrenees&#45;245 -->
<g id="edge4" class="edge">
<title>groupe&#45;la&#45;depeche&#45;242&#45;&gt;la&#45;nouvelle&#45;republique&#45;des&#45;pyrenees&#45;245</title>
<path fill="none" stroke="black" d="M431.37,-162C467.6,-160.06 508.43,-158.02 545.72,-156.5 657.41,-151.94 783.34,-148.27 880.19,-145.76"/>
<polygon fill="black" stroke="black" points="880.05,-149.24 889.95,-145.48 879.87,-142.24 880.05,-149.24"/>
<text text-anchor="middle" x="659.8" y="-160.2" font-family="Times,serif" font-size="14.00">possède 100%</text>
</g>
<!-- le&#45;petit&#45;bleu&#45;244 -->
<g id="node7" class="node">
<title>le&#45;petit&#45;bleu&#45;244</title>
<ellipse fill="none" stroke="black" cx="1041.33" cy="-88" rx="60.05" ry="18"/>
<text text-anchor="middle" x="1041.33" y="-82.95" font-family="Times,serif" font-size="14.00">Le Petit Bleu</text>
</g>
<!-- groupe&#45;la&#45;depeche&#45;242&#45;&gt;le&#45;petit&#45;bleu&#45;244 -->
<g id="edge5" class="edge">
<title>groupe&#45;la&#45;depeche&#45;242&#45;&gt;le&#45;petit&#45;bleu&#45;244</title>
<path fill="none" stroke="black" d="M399.54,-152.97C442.08,-144.72 496.74,-134.89 545.72,-128.5 696.88,-108.76 875.35,-96.96 971.18,-91.56"/>
<polygon fill="black" stroke="black" points="971.1,-95.01 980.89,-90.96 970.71,-88.02 971.1,-95.01"/>
<text text-anchor="middle" x="659.8" y="-132.2" font-family="Times,serif" font-size="14.00">possède 100%</text>
</g>
<!-- le&#45;villefranchois&#45;246 -->
<g id="node8" class="node">
<title>le&#45;villefranchois&#45;246</title>
<ellipse fill="none" stroke="black" cx="1041.33" cy="-34" rx="75.41" ry="18"/>
<text text-anchor="middle" x="1041.33" y="-28.95" font-family="Times,serif" font-size="14.00">Le Villefranchois</text>
</g>
<!-- groupe&#45;la&#45;depeche&#45;242&#45;&gt;le&#45;villefranchois&#45;246 -->
<g id="edge6" class="edge">
<title>groupe&#45;la&#45;depeche&#45;242&#45;&gt;le&#45;villefranchois&#45;246</title>
<path fill="none" stroke="black" d="M358.04,-153.03C400.08,-134.03 476.74,-101.76 545.72,-85.5 686.85,-52.22 855.69,-40.44 955.14,-36.28"/>
<polygon fill="black" stroke="black" points="955.17,-39.74 965.02,-35.84 954.89,-32.74 955.17,-39.74"/>
<text text-anchor="middle" x="659.8" y="-89.2" font-family="Times,serif" font-size="14.00">possède 100%</text>
</g>
<!-- centre&#45;presse&#45;aveyron&#45;251 -->
<g id="node9" class="node">
<title>centre&#45;presse&#45;aveyron&#45;251</title>
<ellipse fill="none" stroke="black" cx="1041.33" cy="-412" rx="95.37" ry="18"/>
<text text-anchor="middle" x="1041.33" y="-406.95" font-family="Times,serif" font-size="14.00">Centre Presse Aveyron</text>
</g>
<!-- les&#45;journaux&#45;du&#45;midi&#45;248&#45;&gt;centre&#45;presse&#45;aveyron&#45;251 -->
<g id="edge8" class="edge">
<title>les&#45;journaux&#45;du&#45;midi&#45;248&#45;&gt;centre&#45;presse&#45;aveyron&#45;251</title>
<path fill="none" stroke="black" d="M709.82,-348.05C734.38,-354.41 764.62,-361.96 791.89,-368 845.96,-379.97 907.22,-390.85 955.38,-398.8"/>
<polygon fill="black" stroke="black" points="954.64,-402.39 965.08,-400.55 955.78,-395.48 954.64,-402.39"/>
<text text-anchor="middle" x="831.26" y="-386.2" font-family="Times,serif" font-size="14.00">possède 100%</text>
</g>
<!-- l&#45;independant&#45;250 -->
<g id="node10" class="node">
<title>l&#45;independant&#45;250</title>
<ellipse fill="none" stroke="black" cx="1041.33" cy="-358" rx="64.66" ry="18"/>
<text text-anchor="middle" x="1041.33" y="-352.95" font-family="Times,serif" font-size="14.00">L’Indépendant</text>
</g>
<!-- les&#45;journaux&#45;du&#45;midi&#45;248&#45;&gt;l&#45;independant&#45;250 -->
<g id="edge9" class="edge">
<title>les&#45;journaux&#45;du&#45;midi&#45;248&#45;&gt;l&#45;independant&#45;250</title>
<path fill="none" stroke="black" d="M769.05,-341.56C832.32,-345.39 910.5,-350.13 966.66,-353.54"/>
<polygon fill="black" stroke="black" points="966.39,-357.09 976.59,-354.2 966.82,-350.1 966.39,-357.09"/>
<text text-anchor="middle" x="831.26" y="-350.2" font-family="Times,serif" font-size="14.00">possède 100%</text>
</g>
<!-- midi&#45;libre&#45;249 -->
<g id="node11" class="node">
<title>midi&#45;libre&#45;249</title>
<ellipse fill="none" stroke="black" cx="1041.33" cy="-304" rx="48.79" ry="18"/>
<text text-anchor="middle" x="1041.33" y="-298.95" font-family="Times,serif" font-size="14.00">Midi libre</text>
</g>
<!-- les&#45;journaux&#45;du&#45;midi&#45;248&#45;&gt;midi&#45;libre&#45;249 -->
<g id="edge10" class="edge">
<title>les&#45;journaux&#45;du&#45;midi&#45;248&#45;&gt;midi&#45;libre&#45;249</title>
<path fill="none" stroke="black" d="M774.12,-324.05C780.13,-323.51 786.08,-322.99 791.89,-322.5 857.13,-316.96 932.09,-311.5 982.46,-307.97"/>
<polygon fill="black" stroke="black" points="982.41,-311.41 992.14,-307.22 981.92,-304.43 982.41,-311.41"/>
<text text-anchor="middle" x="831.26" y="-325.2" font-family="Times,serif" font-size="14.00">possède 100%</text>
</g>
</g>
</svg>
