<?xml version="1.0" encoding="UTF-8" standalone="no"?>
<!DOCTYPE svg PUBLIC "-//W3C//DTD SVG 1.1//EN"
 "http://www.w3.org/Graphics/SVG/1.1/DTD/svg11.dtd">
<!-- Generated by graphviz version 8.1.0 (20230707.0739)
 -->
<!-- Pages: 1 -->
<svg width="807pt" height="238pt"
 viewBox="0.00 0.00 807.17 238.00" xmlns="http://www.w3.org/2000/svg" xmlns:xlink="http://www.w3.org/1999/xlink">
<g id="graph0" class="graph" transform="scale(1 1) rotate(0) translate(4 234)">
<polygon fill="white" stroke="none" points="-4,4 -4,-234 803.17,-234 803.17,4 -4,4"/>
<g id="clust2" class="cluster">
<title>clusterLeaves</title>
<polygon fill="none" stroke="black" points="517.91,-8 517.91,-222 791.17,-222 791.17,-8 517.91,-8"/>
</g>
<!-- famille&#45;saint&#45;cricq&#45;221 -->
<g id="node1" class="node">
<title>famille&#45;saint&#45;cricq&#45;221</title>
<polygon fill="none" stroke="black" points="138.25,-129 0,-129 0,-93 138.25,-93 138.25,-129"/>
<text text-anchor="middle" x="69.12" y="-107.08" font-family="Times,serif" font-size="14.00">🧑‍💼Famille Saint&#45;Cricq</text>
</g>
<!-- groupe&#45;nrco&#45;237 -->
<g id="node2" class="node">
<title>groupe&#45;nrco&#45;237</title>
<polygon fill="none" stroke="black" points="411.16,-116.56 328.7,-129 246.25,-116.56 246.33,-96.44 411.08,-96.44 411.16,-116.56"/>
<text text-anchor="middle" x="328.7" y="-105.95" font-family="Times,serif" font-size="14.00">Groupe NRCO</text>
</g>
<!-- famille&#45;saint&#45;cricq&#45;221&#45;&gt;groupe&#45;nrco&#45;237 -->
<g id="edge1" class="edge">
<title>famille&#45;saint&#45;cricq&#45;221&#45;&gt;groupe&#45;nrco&#45;237</title>
<path fill="none" stroke="black" d="M138.47,-111C168.2,-111 203.48,-111 235.48,-111"/>
<polygon fill="black" stroke="black" points="235.2,-114.5 245.2,-111 235.2,-107.5 235.2,-114.5"/>
<text text-anchor="middle" x="192.25" y="-114.2" font-family="Times,serif" font-size="14.00">possède 15%</text>
</g>
<!-- centre&#45;presse&#45;239 -->
<g id="node3" class="node">
<title>centre&#45;presse&#45;239</title>
<ellipse fill="none" stroke="black" cx="654.54" cy="-196" rx="61.59" ry="18"/>
<text text-anchor="middle" x="654.54" y="-190.95" font-family="Times,serif" font-size="14.00">Centre Presse</text>
</g>
<!-- groupe&#45;nrco&#45;237&#45;&gt;centre&#45;presse&#45;239 -->
<g id="edge2" class="edge">
<title>groupe&#45;nrco&#45;237&#45;&gt;centre&#45;presse&#45;239</title>
<path fill="none" stroke="black" d="M362.5,-124.37C381.73,-131.91 406.59,-141.16 429.16,-148 482.45,-164.15 544.45,-176.98 589.75,-185.29"/>
<polygon fill="black" stroke="black" points="588.85,-188.87 599.32,-187.2 590.1,-181.98 588.85,-188.87"/>
<text text-anchor="middle" x="468.53" y="-170.2" font-family="Times,serif" font-size="14.00">possède 100%</text>
</g>
<!-- la&#45;republique&#45;du&#45;centre&#45;236 -->
<g id="node4" class="node">
<title>la&#45;republique&#45;du&#45;centre&#45;236</title>
<ellipse fill="none" stroke="black" cx="654.54" cy="-142" rx="104.58" ry="18"/>
<text text-anchor="middle" x="654.54" y="-136.95" font-family="Times,serif" font-size="14.00">La République du Centre</text>
</g>
<!-- groupe&#45;nrco&#45;237&#45;&gt;la&#45;republique&#45;du&#45;centre&#45;236 -->
<g id="edge3" class="edge">
<title>groupe&#45;nrco&#45;237&#45;&gt;la&#45;republique&#45;du&#45;centre&#45;236</title>
<path fill="none" stroke="black" d="M404,-118.11C447.75,-122.3 503.71,-127.66 551.54,-132.24"/>
<polygon fill="black" stroke="black" points="550.96,-135.79 561.25,-133.26 551.63,-128.82 550.96,-135.79"/>
<text text-anchor="middle" x="468.53" y="-130.2" font-family="Times,serif" font-size="14.00">possède 30%</text>
</g>
<!-- nouvelle&#45;republique&#45;du&#45;centre&#45;238 -->
<g id="node5" class="node">
<title>nouvelle&#45;republique&#45;du&#45;centre&#45;238</title>
<ellipse fill="none" stroke="black" cx="654.54" cy="-88" rx="128.63" ry="18"/>
<text text-anchor="middle" x="654.54" y="-82.95" font-family="Times,serif" font-size="14.00">Nouvelle République du Centre</text>
</g>
<!-- groupe&#45;nrco&#45;237&#45;&gt;nouvelle&#45;republique&#45;du&#45;centre&#45;238 -->
<g id="edge4" class="edge">
<title>groupe&#45;nrco&#45;237&#45;&gt;nouvelle&#45;republique&#45;du&#45;centre&#45;238</title>
<path fill="none" stroke="black" d="M411.34,-101.14C417.37,-100.54 423.35,-99.98 429.16,-99.5 458.32,-97.07 489.67,-95.07 519.41,-93.47"/>
<polygon fill="black" stroke="black" points="519.49,-96.92 529.29,-92.9 519.12,-89.93 519.49,-96.92"/>
<text text-anchor="middle" x="468.53" y="-102.2" font-family="Times,serif" font-size="14.00">possède 100%</text>
</g>
<!-- tv&#45;tours&#45;240 -->
<g id="node6" class="node">
<title>tv&#45;tours&#45;240</title>
<ellipse fill="none" stroke="black" cx="654.54" cy="-34" rx="46.75" ry="18"/>
<text text-anchor="middle" x="654.54" y="-28.95" font-family="Times,serif" font-size="14.00">TV Tours</text>
</g>
<!-- groupe&#45;nrco&#45;237&#45;&gt;tv&#45;tours&#45;240 -->
<g id="edge5" class="edge">
<title>groupe&#45;nrco&#45;237&#45;&gt;tv&#45;tours&#45;240</title>
<path fill="none" stroke="black" d="M364.62,-96.01C383.45,-88.39 407.27,-79.5 429.16,-73.5 486.07,-57.91 552.86,-47.07 598.68,-40.75"/>
<polygon fill="black" stroke="black" points="599.13,-44.08 608.57,-39.27 598.19,-37.15 599.13,-44.08"/>
<text text-anchor="middle" x="468.53" y="-76.2" font-family="Times,serif" font-size="14.00">possède 40%</text>
</g>
</g>
</svg>
