<?xml version="1.0" encoding="UTF-8" standalone="no"?>
<!DOCTYPE svg PUBLIC "-//W3C//DTD SVG 1.1//EN"
 "http://www.w3.org/Graphics/SVG/1.1/DTD/svg11.dtd">
<!-- Generated by graphviz version 7.1.0 (20230121.1956)
 -->
<!-- Pages: 1 -->
<svg width="790pt" height="238pt"
 viewBox="0.00 0.00 790.14 238.00" xmlns="http://www.w3.org/2000/svg" xmlns:xlink="http://www.w3.org/1999/xlink">
<g id="graph0" class="graph" transform="scale(1 1) rotate(0) translate(4 234)">
<polygon fill="white" stroke="none" points="-4,4 -4,-234 786.14,-234 786.14,4 -4,4"/>
<g id="clust2" class="cluster">
<title>clusterLeaves</title>
<polygon fill="none" stroke="black" points="512.46,-8 512.46,-222 774.14,-222 774.14,-8 512.46,-8"/>
</g>
<!-- famille&#45;saint&#45;cricq&#45;221 -->
<g id="node1" class="node">
<title>famille&#45;saint&#45;cricq&#45;221</title>
<polygon fill="none" stroke="black" points="139,-129 0,-129 0,-93 139,-93 139,-129"/>
<text text-anchor="middle" x="69.5" y="-107.3" font-family="Times,serif" font-size="14.00">🧑‍💼Famille Saint&#45;Cricq</text>
</g>
<!-- groupe&#45;nrco&#45;237 -->
<g id="node2" class="node">
<title>groupe&#45;nrco&#45;237</title>
<polygon fill="none" stroke="black" points="405.69,-116.56 326.73,-129 247.77,-116.56 247.84,-96.44 405.62,-96.44 405.69,-116.56"/>
<text text-anchor="middle" x="326.73" y="-107.3" font-family="Times,serif" font-size="14.00">Groupe NRCO</text>
</g>
<!-- famille&#45;saint&#45;cricq&#45;221&#45;&gt;groupe&#45;nrco&#45;237 -->
<g id="edge1" class="edge">
<title>famille&#45;saint&#45;cricq&#45;221&#45;&gt;groupe&#45;nrco&#45;237</title>
<path fill="none" stroke="black" d="M139.23,-111C169.08,-111 204.44,-111 236.29,-111"/>
<polygon fill="black" stroke="black" points="235.89,-114.5 245.89,-111 235.89,-107.5 235.89,-114.5"/>
<text text-anchor="middle" x="193.5" y="-114.8" font-family="Times,serif" font-size="14.00">possède 15%</text>
</g>
<!-- centre&#45;presse&#45;239 -->
<g id="node3" class="node">
<title>centre&#45;presse&#45;239</title>
<ellipse fill="none" stroke="black" cx="643.3" cy="-196" rx="59.29" ry="18"/>
<text text-anchor="middle" x="643.3" y="-192.3" font-family="Times,serif" font-size="14.00">Centre Presse</text>
</g>
<!-- groupe&#45;nrco&#45;237&#45;&gt;centre&#45;presse&#45;239 -->
<g id="edge2" class="edge">
<title>groupe&#45;nrco&#45;237&#45;&gt;centre&#45;presse&#45;239</title>
<path fill="none" stroke="black" d="M360.69,-123.95C379.02,-130.93 402.34,-139.43 423.46,-146 475.66,-162.25 536.37,-175.7 580.58,-184.55"/>
<polygon fill="black" stroke="black" points="579.77,-187.95 590.25,-186.46 581.12,-181.08 579.77,-187.95"/>
<text text-anchor="middle" x="462.96" y="-170.8" font-family="Times,serif" font-size="14.00">possède 100%</text>
</g>
<!-- la&#45;republique&#45;du&#45;centre&#45;236 -->
<g id="node4" class="node">
<title>la&#45;republique&#45;du&#45;centre&#45;236</title>
<ellipse fill="none" stroke="black" cx="643.3" cy="-142" rx="100.18" ry="18"/>
<text text-anchor="middle" x="643.3" y="-138.3" font-family="Times,serif" font-size="14.00">La République du Centre</text>
</g>
<!-- groupe&#45;nrco&#45;237&#45;&gt;la&#45;republique&#45;du&#45;centre&#45;236 -->
<g id="edge3" class="edge">
<title>groupe&#45;nrco&#45;237&#45;&gt;la&#45;republique&#45;du&#45;centre&#45;236</title>
<path fill="none" stroke="black" d="M399.11,-118.03C441.65,-122.23 496.27,-127.61 542.98,-132.21"/>
<polygon fill="black" stroke="black" points="542.55,-135.69 552.85,-133.18 543.24,-128.72 542.55,-135.69"/>
<text text-anchor="middle" x="462.96" y="-130.8" font-family="Times,serif" font-size="14.00">possède 30%</text>
</g>
<!-- nouvelle&#45;republique&#45;du&#45;centre&#45;238 -->
<g id="node5" class="node">
<title>nouvelle&#45;republique&#45;du&#45;centre&#45;238</title>
<ellipse fill="none" stroke="black" cx="643.3" cy="-88" rx="122.68" ry="18"/>
<text text-anchor="middle" x="643.3" y="-84.3" font-family="Times,serif" font-size="14.00">Nouvelle République du Centre</text>
</g>
<!-- groupe&#45;nrco&#45;237&#45;&gt;nouvelle&#45;republique&#45;du&#45;centre&#45;238 -->
<g id="edge4" class="edge">
<title>groupe&#45;nrco&#45;237&#45;&gt;nouvelle&#45;republique&#45;du&#45;centre&#45;238</title>
<path fill="none" stroke="black" d="M406.07,-102.53C411.95,-101.98 417.8,-101.46 423.46,-101 453.14,-98.57 485.13,-96.41 515.23,-94.58"/>
<polygon fill="black" stroke="black" points="515.39,-98.08 525.16,-93.99 514.97,-91.09 515.39,-98.08"/>
<text text-anchor="middle" x="462.96" y="-104.8" font-family="Times,serif" font-size="14.00">possède 100%</text>
</g>
<!-- tv&#45;tours&#45;240 -->
<g id="node6" class="node">
<title>tv&#45;tours&#45;240</title>
<ellipse fill="none" stroke="black" cx="643.3" cy="-34" rx="44.69" ry="18"/>
<text text-anchor="middle" x="643.3" y="-30.3" font-family="Times,serif" font-size="14.00">TV Tours</text>
</g>
<!-- groupe&#45;nrco&#45;237&#45;&gt;tv&#45;tours&#45;240 -->
<g id="edge5" class="edge">
<title>groupe&#45;nrco&#45;237&#45;&gt;tv&#45;tours&#45;240</title>
<path fill="none" stroke="black" d="M364.56,-95.96C382.17,-89.18 403.68,-81.48 423.46,-76 479.37,-60.52 544.86,-48.77 589.53,-41.68"/>
<polygon fill="black" stroke="black" points="589.87,-45.17 599.21,-40.17 588.79,-38.26 589.87,-45.17"/>
<text text-anchor="middle" x="462.96" y="-79.8" font-family="Times,serif" font-size="14.00">possède 40%</text>
</g>
</g>
</svg>
