<?xml version="1.0" encoding="UTF-8" standalone="no"?>
<!DOCTYPE svg PUBLIC "-//W3C//DTD SVG 1.1//EN"
 "http://www.w3.org/Graphics/SVG/1.1/DTD/svg11.dtd">
<!-- Generated by graphviz version 8.1.0 (20230707.0739)
 -->
<!-- Pages: 1 -->
<svg width="1091pt" height="400pt"
 viewBox="0.00 0.00 1090.84 400.00" xmlns="http://www.w3.org/2000/svg" xmlns:xlink="http://www.w3.org/1999/xlink">
<g id="graph0" class="graph" transform="scale(1 1) rotate(0) translate(4 396)">
<polygon fill="white" stroke="none" points="-4,4 -4,-396 1086.84,-396 1086.84,4 -4,4"/>
<g id="clust2" class="cluster">
<title>clusterLeaves</title>
<polygon fill="none" stroke="black" points="959.21,-8 959.21,-384 1074.84,-384 1074.84,-8 959.21,-8"/>
</g>
<!-- famille&#45;mohn&#45;102 -->
<g id="node1" class="node">
<title>famille&#45;mohn&#45;102</title>
<polygon fill="none" stroke="black" points="109,-214 0,-214 0,-178 109,-178 109,-214"/>
<text text-anchor="middle" x="54.5" y="-192.07" font-family="Times,serif" font-size="14.00">🧑‍💼Famille Mohn</text>
</g>
<!-- bertelsmann&#45;103 -->
<g id="node2" class="node">
<title>bertelsmann&#45;103</title>
<polygon fill="none" stroke="black" points="368.65,-201.56 296.95,-214 225.25,-201.56 225.32,-181.44 368.58,-181.44 368.65,-201.56"/>
<text text-anchor="middle" x="296.95" y="-190.95" font-family="Times,serif" font-size="14.00">Bertelsmann</text>
</g>
<!-- famille&#45;mohn&#45;102&#45;&gt;bertelsmann&#45;103 -->
<g id="edge1" class="edge">
<title>famille&#45;mohn&#45;102&#45;&gt;bertelsmann&#45;103</title>
<path fill="none" stroke="black" d="M109.46,-196C140.33,-196 179.67,-196 214.26,-196"/>
<polygon fill="black" stroke="black" points="213.82,-199.5 223.82,-196 213.82,-192.5 213.82,-199.5"/>
<text text-anchor="middle" x="167.12" y="-199.2" font-family="Times,serif" font-size="14.00">contrôle 100%</text>
</g>
<!-- rtl&#45;group&#45;105 -->
<g id="node3" class="node">
<title>rtl&#45;group&#45;105</title>
<polygon fill="none" stroke="black" points="609.92,-201.56 543.28,-214 476.65,-201.56 476.71,-181.44 609.86,-181.44 609.92,-201.56"/>
<text text-anchor="middle" x="543.28" y="-190.95" font-family="Times,serif" font-size="14.00">RTL Group</text>
</g>
<!-- bertelsmann&#45;103&#45;&gt;rtl&#45;group&#45;105 -->
<g id="edge2" class="edge">
<title>bertelsmann&#45;103&#45;&gt;rtl&#45;group&#45;105</title>
<path fill="none" stroke="black" d="M368.95,-196C399.32,-196 434.85,-196 465.8,-196"/>
<polygon fill="black" stroke="black" points="465.55,-199.5 475.55,-196 465.55,-192.5 465.55,-199.5"/>
<text text-anchor="middle" x="422.65" y="-199.2" font-family="Times,serif" font-size="14.00">possède 75%</text>
</g>
<!-- groupe&#45;m6&#45;110 -->
<g id="node4" class="node">
<title>groupe&#45;m6&#45;110</title>
<polygon fill="none" stroke="black" points="852.46,-201.56 785.19,-214 717.92,-201.56 717.98,-181.44 852.4,-181.44 852.46,-201.56"/>
<text text-anchor="middle" x="785.19" y="-190.95" font-family="Times,serif" font-size="14.00">Groupe M6</text>
</g>
<!-- rtl&#45;group&#45;105&#45;&gt;groupe&#45;m6&#45;110 -->
<g id="edge3" class="edge">
<title>rtl&#45;group&#45;105&#45;&gt;groupe&#45;m6&#45;110</title>
<path fill="none" stroke="black" d="M610.16,-196C640.06,-196 675.64,-196 706.81,-196"/>
<polygon fill="black" stroke="black" points="706.63,-199.5 716.63,-196 706.63,-192.5 706.63,-199.5"/>
<text text-anchor="middle" x="663.92" y="-199.2" font-family="Times,serif" font-size="14.00">possède 48%</text>
</g>
<!-- 6ter&#45;113 -->
<g id="node5" class="node">
<title>6ter&#45;113</title>
<ellipse fill="none" stroke="black" cx="1017.03" cy="-358" rx="27" ry="18"/>
<text text-anchor="middle" x="1017.03" y="-352.95" font-family="Times,serif" font-size="14.00">6ter</text>
</g>
<!-- groupe&#45;m6&#45;110&#45;&gt;6ter&#45;113 -->
<g id="edge4" class="edge">
<title>groupe&#45;m6&#45;110&#45;&gt;6ter&#45;113</title>
<path fill="none" stroke="black" d="M794.81,-212.58C808.02,-236.47 835.47,-280.49 870.46,-306 903.53,-330.12 948.86,-343.95 980.11,-351.2"/>
<polygon fill="black" stroke="black" points="979.01,-354.76 989.53,-353.5 980.52,-347.93 979.01,-354.76"/>
<text text-anchor="middle" x="909.83" y="-344.2" font-family="Times,serif" font-size="14.00">possède 100%</text>
</g>
<!-- fun&#45;radio&#45;116 -->
<g id="node6" class="node">
<title>fun&#45;radio&#45;116</title>
<ellipse fill="none" stroke="black" cx="1017.03" cy="-304" rx="49.82" ry="18"/>
<text text-anchor="middle" x="1017.03" y="-298.95" font-family="Times,serif" font-size="14.00">Fun Radio</text>
</g>
<!-- groupe&#45;m6&#45;110&#45;&gt;fun&#45;radio&#45;116 -->
<g id="edge5" class="edge">
<title>groupe&#45;m6&#45;110&#45;&gt;fun&#45;radio&#45;116</title>
<path fill="none" stroke="black" d="M803.97,-210.73C820.4,-223.77 845.91,-242.6 870.46,-255 900.67,-270.26 936.7,-282.43 965.36,-290.83"/>
<polygon fill="black" stroke="black" points="963.98,-294.36 974.56,-293.75 965.91,-287.63 963.98,-294.36"/>
<text text-anchor="middle" x="909.83" y="-288.2" font-family="Times,serif" font-size="14.00">possède 100%</text>
</g>
<!-- gulli&#45;73 -->
<g id="node7" class="node">
<title>gulli&#45;73</title>
<ellipse fill="none" stroke="black" cx="1017.03" cy="-250" rx="29.86" ry="18"/>
<text text-anchor="middle" x="1017.03" y="-244.95" font-family="Times,serif" font-size="14.00">Gulli</text>
</g>
<!-- groupe&#45;m6&#45;110&#45;&gt;gulli&#45;73 -->
<g id="edge6" class="edge">
<title>groupe&#45;m6&#45;110&#45;&gt;gulli&#45;73</title>
<path fill="none" stroke="black" d="M827.72,-206.54C841.33,-209.94 856.52,-213.68 870.46,-217 906.9,-225.67 948.59,-235.07 977.99,-241.61"/>
<polygon fill="black" stroke="black" points="977.1,-245.22 987.62,-243.97 978.62,-238.39 977.1,-245.22"/>
<text text-anchor="middle" x="909.83" y="-237.2" font-family="Times,serif" font-size="14.00">possède 100%</text>
</g>
<!-- m6&#45;111 -->
<g id="node8" class="node">
<title>m6&#45;111</title>
<ellipse fill="none" stroke="black" cx="1017.03" cy="-196" rx="27" ry="18"/>
<text text-anchor="middle" x="1017.03" y="-190.95" font-family="Times,serif" font-size="14.00">M6</text>
</g>
<!-- groupe&#45;m6&#45;110&#45;&gt;m6&#45;111 -->
<g id="edge7" class="edge">
<title>groupe&#45;m6&#45;110&#45;&gt;m6&#45;111</title>
<path fill="none" stroke="black" d="M852.67,-196C893.64,-196 944.67,-196 978.69,-196"/>
<polygon fill="black" stroke="black" points="978.53,-199.5 988.53,-196 978.53,-192.5 978.53,-199.5"/>
<text text-anchor="middle" x="909.83" y="-199.2" font-family="Times,serif" font-size="14.00">possède 100%</text>
</g>
<!-- rtl&#45;114 -->
<g id="node9" class="node">
<title>rtl&#45;114</title>
<ellipse fill="none" stroke="black" cx="1017.03" cy="-142" rx="28.32" ry="18"/>
<text text-anchor="middle" x="1017.03" y="-136.95" font-family="Times,serif" font-size="14.00">RTL</text>
</g>
<!-- groupe&#45;m6&#45;110&#45;&gt;rtl&#45;114 -->
<g id="edge8" class="edge">
<title>groupe&#45;m6&#45;110&#45;&gt;rtl&#45;114</title>
<path fill="none" stroke="black" d="M847.38,-181.02C855.15,-179.15 862.99,-177.27 870.46,-175.5 907.49,-166.73 949.9,-157.01 979.35,-150.31"/>
<polygon fill="black" stroke="black" points="979.99,-153.52 988.97,-147.89 978.44,-146.7 979.99,-153.52"/>
<text text-anchor="middle" x="909.83" y="-178.2" font-family="Times,serif" font-size="14.00">possède 100%</text>
</g>
<!-- rtl2&#45;115 -->
<g id="node10" class="node">
<title>rtl2&#45;115</title>
<ellipse fill="none" stroke="black" cx="1017.03" cy="-88" rx="32.93" ry="18"/>
<text text-anchor="middle" x="1017.03" y="-82.95" font-family="Times,serif" font-size="14.00">RTL2</text>
</g>
<!-- groupe&#45;m6&#45;110&#45;&gt;rtl2&#45;115 -->
<g id="edge9" class="edge">
<title>groupe&#45;m6&#45;110&#45;&gt;rtl2&#45;115</title>
<path fill="none" stroke="black" d="M803.94,-181.12C820.35,-167.95 845.85,-148.95 870.46,-136.5 904.44,-119.32 945.86,-106.2 975.81,-97.97"/>
<polygon fill="black" stroke="black" points="976.54,-101.13 985.29,-95.16 974.73,-94.37 976.54,-101.13"/>
<text text-anchor="middle" x="909.83" y="-139.2" font-family="Times,serif" font-size="14.00">possède 100%</text>
</g>
<!-- w9&#45;112 -->
<g id="node11" class="node">
<title>w9&#45;112</title>
<ellipse fill="none" stroke="black" cx="1017.03" cy="-34" rx="27" ry="18"/>
<text text-anchor="middle" x="1017.03" y="-28.95" font-family="Times,serif" font-size="14.00">W9</text>
</g>
<!-- groupe&#45;m6&#45;110&#45;&gt;w9&#45;112 -->
<g id="edge10" class="edge">
<title>groupe&#45;m6&#45;110&#45;&gt;w9&#45;112</title>
<path fill="none" stroke="black" d="M793.72,-181.28C806.44,-157.79 834.39,-111.78 870.46,-85.5 903.5,-61.42 948.84,-47.76 980.1,-40.64"/>
<polygon fill="black" stroke="black" points="980.48,-43.92 989.52,-38.39 979.01,-37.08 980.48,-43.92"/>
<text text-anchor="middle" x="909.83" y="-88.2" font-family="Times,serif" font-size="14.00">possède 100%</text>
</g>
</g>
</svg>
