<?xml version="1.0" encoding="UTF-8" standalone="no"?>
<!DOCTYPE svg PUBLIC "-//W3C//DTD SVG 1.1//EN"
 "http://www.w3.org/Graphics/SVG/1.1/DTD/svg11.dtd">
<!-- Generated by graphviz version 8.1.0 (20230707.0739)
 -->
<!-- Pages: 1 -->
<svg width="1507pt" height="1318pt"
 viewBox="0.00 0.00 1507.39 1318.00" xmlns="http://www.w3.org/2000/svg" xmlns:xlink="http://www.w3.org/1999/xlink">
<g id="graph0" class="graph" transform="scale(1 1) rotate(0) translate(4 1314)">
<polygon fill="white" stroke="none" points="-4,4 -4,-1314 1503.39,-1314 1503.39,4 -4,4"/>
<g id="clust2" class="cluster">
<title>clusterLeaves</title>
<polygon fill="none" stroke="black" points="1179.23,-8 1179.23,-1302 1491.39,-1302 1491.39,-8 1179.23,-8"/>
</g>
<!-- famille&#45;hurbain&#45;171 -->
<g id="node1" class="node">
<title>famille&#45;hurbain&#45;171</title>
<polygon fill="none" stroke="black" points="120.25,-133 0,-133 0,-97 120.25,-97 120.25,-133"/>
<text text-anchor="middle" x="60.12" y="-111.08" font-family="Times,serif" font-size="14.00">🧑‍💼Famille Hurbain</text>
</g>
<!-- groupe&#45;rossel&#45;183 -->
<g id="node2" class="node">
<title>groupe&#45;rossel&#45;183</title>
<polygon fill="none" stroke="black" points="398.87,-120.56 317.69,-133 236.5,-120.56 236.58,-100.44 398.8,-100.44 398.87,-120.56"/>
<text text-anchor="middle" x="317.69" y="-109.95" font-family="Times,serif" font-size="14.00">Groupe Rossel</text>
</g>
<!-- famille&#45;hurbain&#45;171&#45;&gt;groupe&#45;rossel&#45;183 -->
<g id="edge1" class="edge">
<title>famille&#45;hurbain&#45;171&#45;&gt;groupe&#45;rossel&#45;183</title>
<path fill="none" stroke="black" d="M120.72,-115C151.86,-115 190.65,-115 225.48,-115"/>
<polygon fill="black" stroke="black" points="225.15,-118.5 235.15,-115 225.15,-111.5 225.15,-118.5"/>
<text text-anchor="middle" x="178.38" y="-118.2" font-family="Times,serif" font-size="14.00">contrôle 100%</text>
</g>
<!-- groupe&#45;rossel&#45;la&#45;voix&#45;184 -->
<g id="node3" class="node">
<title>groupe&#45;rossel&#45;la&#45;voix&#45;184</title>
<polygon fill="none" stroke="black" points="747.7,-120.56 627.29,-133 506.87,-120.56 506.99,-100.44 747.58,-100.44 747.7,-120.56"/>
<text text-anchor="middle" x="627.29" y="-109.95" font-family="Times,serif" font-size="14.00">Groupe Rossel La Voix</text>
</g>
<!-- groupe&#45;rossel&#45;183&#45;&gt;groupe&#45;rossel&#45;la&#45;voix&#45;184 -->
<g id="edge2" class="edge">
<title>groupe&#45;rossel&#45;183&#45;&gt;groupe&#45;rossel&#45;la&#45;voix&#45;184</title>
<path fill="none" stroke="black" d="M399.1,-115C428.74,-115 463.12,-115 496.03,-115"/>
<polygon fill="black" stroke="black" points="495.66,-118.5 505.66,-115 495.66,-111.5 495.66,-118.5"/>
<text text-anchor="middle" x="452.87" y="-118.2" font-family="Times,serif" font-size="14.00">possède 73%</text>
</g>
<!-- la&#45;voix&#45;du&#45;nord&#45;sa&#45;185 -->
<g id="node4" class="node">
<title>la&#45;voix&#45;du&#45;nord&#45;sa&#45;185</title>
<polygon fill="none" stroke="black" points="1072.48,-713.56 964.09,-726 855.7,-713.56 855.8,-693.44 1072.38,-693.44 1072.48,-713.56"/>
<text text-anchor="middle" x="964.09" y="-702.95" font-family="Times,serif" font-size="14.00">La Voix du Nord SA</text>
</g>
<!-- groupe&#45;rossel&#45;la&#45;voix&#45;184&#45;&gt;la&#45;voix&#45;du&#45;nord&#45;sa&#45;185 -->
<g id="edge4" class="edge">
<title>groupe&#45;rossel&#45;la&#45;voix&#45;184&#45;&gt;la&#45;voix&#45;du&#45;nord&#45;sa&#45;185</title>
<path fill="none" stroke="black" d="M637.94,-132.11C685.37,-216.11 893.54,-584.82 949.3,-683.59"/>
<polygon fill="black" stroke="black" points="946.67,-685.05 954.64,-692.04 952.77,-681.61 946.67,-685.05"/>
<text text-anchor="middle" x="801.7" y="-485.2" font-family="Times,serif" font-size="14.00">possède 96%</text>
</g>
<!-- 20&#45;minutes&#45;182 -->
<g id="node5" class="node">
<title>20&#45;minutes&#45;182</title>
<ellipse fill="none" stroke="black" cx="1335.31" cy="-142" rx="53.4" ry="18"/>
<text text-anchor="middle" x="1335.31" y="-136.95" font-family="Times,serif" font-size="14.00">20 Minutes</text>
</g>
<!-- groupe&#45;rossel&#45;la&#45;voix&#45;184&#45;&gt;20&#45;minutes&#45;182 -->
<g id="edge3" class="edge">
<title>groupe&#45;rossel&#45;la&#45;voix&#45;184&#45;&gt;20&#45;minutes&#45;182</title>
<path fill="none" stroke="black" d="M748.05,-119.58C899.17,-125.36 1153.5,-135.09 1271.13,-139.58"/>
<polygon fill="black" stroke="black" points="1270.96,-143.12 1281.08,-140 1271.22,-136.12 1270.96,-143.12"/>
<text text-anchor="middle" x="964.09" y="-134.2" font-family="Times,serif" font-size="14.00">possède 49%</text>
</g>
<!-- normandie&#45;dimanche&#45;291 -->
<g id="node27" class="node">
<title>normandie&#45;dimanche&#45;291</title>
<ellipse fill="none" stroke="black" cx="1335.31" cy="-88" rx="93.83" ry="18"/>
<text text-anchor="middle" x="1335.31" y="-82.95" font-family="Times,serif" font-size="14.00">Normandie Dimanche</text>
</g>
<!-- groupe&#45;rossel&#45;la&#45;voix&#45;184&#45;&gt;normandie&#45;dimanche&#45;291 -->
<g id="edge26" class="edge">
<title>groupe&#45;rossel&#45;la&#45;voix&#45;184&#45;&gt;normandie&#45;dimanche&#45;291</title>
<path fill="none" stroke="black" d="M748.06,-108.53C782.78,-106.77 820.74,-104.95 855.7,-103.5 985.07,-98.13 1134.18,-93.56 1231.12,-90.8"/>
<polygon fill="black" stroke="black" points="1231.2,-94.27 1241.09,-90.49 1231,-87.27 1231.2,-94.27"/>
<text text-anchor="middle" x="964.09" y="-107.2" font-family="Times,serif" font-size="14.00">possède 100%</text>
</g>
<!-- paris&#45;normandie&#45;286 -->
<g id="node28" class="node">
<title>paris&#45;normandie&#45;286</title>
<ellipse fill="none" stroke="black" cx="1335.31" cy="-34" rx="74.38" ry="18"/>
<text text-anchor="middle" x="1335.31" y="-28.95" font-family="Times,serif" font-size="14.00">Paris&#45;Normandie</text>
</g>
<!-- groupe&#45;rossel&#45;la&#45;voix&#45;184&#45;&gt;paris&#45;normandie&#45;286 -->
<g id="edge27" class="edge">
<title>groupe&#45;rossel&#45;la&#45;voix&#45;184&#45;&gt;paris&#45;normandie&#45;286</title>
<path fill="none" stroke="black" d="M705.14,-99.97C749.09,-91.79 805.33,-82.05 855.7,-75.5 994.27,-57.49 1156.46,-45.28 1252,-38.99"/>
<polygon fill="black" stroke="black" points="1252,-42.43 1261.75,-38.29 1251.54,-35.45 1252,-42.43"/>
<text text-anchor="middle" x="964.09" y="-79.2" font-family="Times,serif" font-size="14.00">possède 100%</text>
</g>
<!-- courrier&#45;picard&#45;189 -->
<g id="node6" class="node">
<title>courrier&#45;picard&#45;189</title>
<ellipse fill="none" stroke="black" cx="1335.31" cy="-1276" rx="67.73" ry="18"/>
<text text-anchor="middle" x="1335.31" y="-1270.95" font-family="Times,serif" font-size="14.00">Courrier picard</text>
</g>
<!-- la&#45;voix&#45;du&#45;nord&#45;sa&#45;185&#45;&gt;courrier&#45;picard&#45;189 -->
<g id="edge5" class="edge">
<title>la&#45;voix&#45;du&#45;nord&#45;sa&#45;185&#45;&gt;courrier&#45;picard&#45;189</title>
<path fill="none" stroke="black" d="M966.64,-726.18C974.3,-811.45 1010.96,-1170.75 1090.48,-1243 1137.14,-1285.4 1211.04,-1289.88 1265.26,-1286.07"/>
<polygon fill="black" stroke="black" points="1265.49,-1289.48 1275.17,-1285.17 1264.92,-1282.5 1265.49,-1289.48"/>
<text text-anchor="middle" x="1129.85" y="-1282.2" font-family="Times,serif" font-size="14.00">possède 100%</text>
</g>
<!-- l&#45;aisne&#45;nouvelle&#45;190 -->
<g id="node7" class="node">
<title>l&#45;aisne&#45;nouvelle&#45;190</title>
<ellipse fill="none" stroke="black" cx="1335.31" cy="-1222" rx="74.38" ry="18"/>
<text text-anchor="middle" x="1335.31" y="-1216.95" font-family="Times,serif" font-size="14.00">L’aisne Nouvelle</text>
</g>
<!-- la&#45;voix&#45;du&#45;nord&#45;sa&#45;185&#45;&gt;l&#45;aisne&#45;nouvelle&#45;190 -->
<g id="edge6" class="edge">
<title>la&#45;voix&#45;du&#45;nord&#45;sa&#45;185&#45;&gt;l&#45;aisne&#45;nouvelle&#45;190</title>
<path fill="none" stroke="black" d="M967.17,-726.11C976.71,-805.66 1018.81,-1123.03 1090.48,-1187 1135.7,-1227.36 1205.59,-1233.76 1258.97,-1231.43"/>
<polygon fill="black" stroke="black" points="1258.96,-1234.88 1268.75,-1230.83 1258.58,-1227.89 1258.96,-1234.88"/>
<text text-anchor="middle" x="1129.85" y="-1227.2" font-family="Times,serif" font-size="14.00">possède 100%</text>
</g>
<!-- l&#45;avenir&#45;de&#45;l&#45;artois&#45;193 -->
<g id="node8" class="node">
<title>l&#45;avenir&#45;de&#45;l&#45;artois&#45;193</title>
<ellipse fill="none" stroke="black" cx="1335.31" cy="-1168" rx="87.18" ry="18"/>
<text text-anchor="middle" x="1335.31" y="-1162.95" font-family="Times,serif" font-size="14.00">L’Avenir de l’Artois</text>
</g>
<!-- la&#45;voix&#45;du&#45;nord&#45;sa&#45;185&#45;&gt;l&#45;avenir&#45;de&#45;l&#45;artois&#45;193 -->
<g id="edge7" class="edge">
<title>la&#45;voix&#45;du&#45;nord&#45;sa&#45;185&#45;&gt;l&#45;avenir&#45;de&#45;l&#45;artois&#45;193</title>
<path fill="none" stroke="black" d="M967.84,-725.84C979.49,-798.82 1026.98,-1073.31 1090.48,-1129 1132.15,-1165.55 1193.93,-1175.13 1244.88,-1175.65"/>
<polygon fill="black" stroke="black" points="1244.58,-1179.15 1254.57,-1175.64 1244.57,-1172.15 1244.58,-1179.15"/>
<text text-anchor="middle" x="1129.85" y="-1169.2" font-family="Times,serif" font-size="14.00">possède 100%</text>
</g>
<!-- l&#45;echo&#45;de&#45;la&#45;lys&#45;206 -->
<g id="node9" class="node">
<title>l&#45;echo&#45;de&#45;la&#45;lys&#45;206</title>
<ellipse fill="none" stroke="black" cx="1335.31" cy="-1114" rx="74.89" ry="18"/>
<text text-anchor="middle" x="1335.31" y="-1108.95" font-family="Times,serif" font-size="14.00">L’Echo de la Lys</text>
</g>
<!-- la&#45;voix&#45;du&#45;nord&#45;sa&#45;185&#45;&gt;l&#45;echo&#45;de&#45;la&#45;lys&#45;206 -->
<g id="edge8" class="edge">
<title>la&#45;voix&#45;du&#45;nord&#45;sa&#45;185&#45;&gt;l&#45;echo&#45;de&#45;la&#45;lys&#45;206</title>
<path fill="none" stroke="black" d="M965.34,-726.19C967.23,-785.99 981.86,-977.96 1090.48,-1071 1134.75,-1108.92 1200.53,-1118.73 1252.62,-1119.57"/>
<polygon fill="black" stroke="black" points="1252.5,-1123.08 1262.51,-1119.63 1252.53,-1116.08 1252.5,-1123.08"/>
<text text-anchor="middle" x="1129.85" y="-1111.2" font-family="Times,serif" font-size="14.00">possède 100%</text>
</g>
<!-- l&#45;essor&#45;savoyard&#45;197 -->
<g id="node10" class="node">
<title>l&#45;essor&#45;savoyard&#45;197</title>
<ellipse fill="none" stroke="black" cx="1335.31" cy="-1060" rx="75.41" ry="18"/>
<text text-anchor="middle" x="1335.31" y="-1054.95" font-family="Times,serif" font-size="14.00">L’Essor savoyard</text>
</g>
<!-- la&#45;voix&#45;du&#45;nord&#45;sa&#45;185&#45;&gt;l&#45;essor&#45;savoyard&#45;197 -->
<g id="edge9" class="edge">
<title>la&#45;voix&#45;du&#45;nord&#45;sa&#45;185&#45;&gt;l&#45;essor&#45;savoyard&#45;197</title>
<path fill="none" stroke="black" d="M966.95,-725.9C973.41,-778.35 999.65,-932.82 1090.48,-1011 1134.09,-1048.54 1198.38,-1060.27 1249.99,-1062.9"/>
<polygon fill="black" stroke="black" points="1249.67,-1066.43 1259.8,-1063.32 1249.95,-1059.43 1249.67,-1066.43"/>
<text text-anchor="middle" x="1129.85" y="-1053.2" font-family="Times,serif" font-size="14.00">possède 100%</text>
</g>
<!-- l&#45;est&#45;eclair&#45;liberation&#45;champagne&#45;192 -->
<g id="node11" class="node">
<title>l&#45;est&#45;eclair&#45;liberation&#45;champagne&#45;192</title>
<ellipse fill="none" stroke="black" cx="1335.31" cy="-1006" rx="148.08" ry="18"/>
<text text-anchor="middle" x="1335.31" y="-1000.95" font-family="Times,serif" font-size="14.00">L’Est&#45;éclair &#45; Libération Champagne</text>
</g>
<!-- la&#45;voix&#45;du&#45;nord&#45;sa&#45;185&#45;&gt;l&#45;est&#45;eclair&#45;liberation&#45;champagne&#45;192 -->
<g id="edge10" class="edge">
<title>la&#45;voix&#45;du&#45;nord&#45;sa&#45;185&#45;&gt;l&#45;est&#45;eclair&#45;liberation&#45;champagne&#45;192</title>
<path fill="none" stroke="black" d="M969.17,-725.63C980.41,-770.2 1016.04,-888.3 1090.48,-951 1118.04,-974.22 1153.39,-988.16 1188.56,-996.4"/>
<polygon fill="black" stroke="black" points="1187.44,-999.96 1197.96,-998.68 1188.94,-993.12 1187.44,-999.96"/>
<text text-anchor="middle" x="1129.85" y="-993.2" font-family="Times,serif" font-size="14.00">possède 100%</text>
</g>
<!-- l&#45;indicateur&#45;205 -->
<g id="node12" class="node">
<title>l&#45;indicateur&#45;205</title>
<ellipse fill="none" stroke="black" cx="1335.31" cy="-952" rx="55.96" ry="18"/>
<text text-anchor="middle" x="1335.31" y="-946.95" font-family="Times,serif" font-size="14.00">L’indicateur</text>
</g>
<!-- la&#45;voix&#45;du&#45;nord&#45;sa&#45;185&#45;&gt;l&#45;indicateur&#45;205 -->
<g id="edge11" class="edge">
<title>la&#45;voix&#45;du&#45;nord&#45;sa&#45;185&#45;&gt;l&#45;indicateur&#45;205</title>
<path fill="none" stroke="black" d="M972.69,-725.32C989.16,-760.96 1031.45,-843.09 1090.48,-890 1141.34,-930.43 1215.42,-944.81 1268.56,-949.76"/>
<polygon fill="black" stroke="black" points="1267.98,-953.31 1278.23,-950.65 1268.56,-946.33 1267.98,-953.31"/>
<text text-anchor="middle" x="1129.85" y="-933.2" font-family="Times,serif" font-size="14.00">possède 100%</text>
</g>
<!-- l&#45;union&#45;l&#45;ardennais&#45;191 -->
<g id="node13" class="node">
<title>l&#45;union&#45;l&#45;ardennais&#45;191</title>
<ellipse fill="none" stroke="black" cx="1335.31" cy="-898" rx="96.39" ry="18"/>
<text text-anchor="middle" x="1335.31" y="-892.95" font-family="Times,serif" font-size="14.00">L’Union &#45; L’Ardennais</text>
</g>
<!-- la&#45;voix&#45;du&#45;nord&#45;sa&#45;185&#45;&gt;l&#45;union&#45;l&#45;ardennais&#45;191 -->
<g id="edge12" class="edge">
<title>la&#45;voix&#45;du&#45;nord&#45;sa&#45;185&#45;&gt;l&#45;union&#45;l&#45;ardennais&#45;191</title>
<path fill="none" stroke="black" d="M978.08,-724.78C999.18,-751.1 1043.34,-802.34 1090.48,-834 1134.22,-863.38 1190.75,-879.28 1238.36,-887.88"/>
<polygon fill="black" stroke="black" points="1237.55,-891.46 1248,-889.71 1238.74,-884.57 1237.55,-891.46"/>
<text text-anchor="middle" x="1129.85" y="-872.2" font-family="Times,serif" font-size="14.00">possède 100%</text>
</g>
<!-- la&#45;savoie&#45;200 -->
<g id="node14" class="node">
<title>la&#45;savoie&#45;200</title>
<ellipse fill="none" stroke="black" cx="1335.31" cy="-844" rx="48.28" ry="18"/>
<text text-anchor="middle" x="1335.31" y="-838.95" font-family="Times,serif" font-size="14.00">La Savoie</text>
</g>
<!-- la&#45;voix&#45;du&#45;nord&#45;sa&#45;185&#45;&gt;la&#45;savoie&#45;200 -->
<g id="edge13" class="edge">
<title>la&#45;voix&#45;du&#45;nord&#45;sa&#45;185&#45;&gt;la&#45;savoie&#45;200</title>
<path fill="none" stroke="black" d="M989.03,-723.32C1013.86,-738.86 1054.07,-763.13 1090.48,-781 1128.69,-799.76 1138.31,-805.28 1179.23,-817 1211.52,-826.25 1248.55,-832.84 1278.33,-837.19"/>
<polygon fill="black" stroke="black" points="1277.56,-840.76 1287.95,-838.7 1278.54,-833.83 1277.56,-840.76"/>
<text text-anchor="middle" x="1129.85" y="-816.2" font-family="Times,serif" font-size="14.00">possède 100%</text>
</g>
<!-- la&#45;semaine&#45;dans&#45;le&#45;boulonnais&#45;202 -->
<g id="node15" class="node">
<title>la&#45;semaine&#45;dans&#45;le&#45;boulonnais&#45;202</title>
<ellipse fill="none" stroke="black" cx="1335.31" cy="-790" rx="128.63" ry="18"/>
<text text-anchor="middle" x="1335.31" y="-784.95" font-family="Times,serif" font-size="14.00">La Semaine dans le Boulonnais</text>
</g>
<!-- la&#45;voix&#45;du&#45;nord&#45;sa&#45;185&#45;&gt;la&#45;semaine&#45;dans&#45;le&#45;boulonnais&#45;202 -->
<g id="edge14" class="edge">
<title>la&#45;voix&#45;du&#45;nord&#45;sa&#45;185&#45;&gt;la&#45;semaine&#45;dans&#45;le&#45;boulonnais&#45;202</title>
<path fill="none" stroke="black" d="M1010.21,-721.19C1034.01,-728 1063.74,-736.26 1090.48,-743 1129.68,-752.88 1139.58,-755.09 1179.23,-763 1198.65,-766.88 1219.51,-770.72 1239.43,-774.24"/>
<polygon fill="black" stroke="black" points="1238.61,-777.83 1249.06,-776.11 1239.82,-770.93 1238.61,-777.83"/>
<text text-anchor="middle" x="1129.85" y="-763.2" font-family="Times,serif" font-size="14.00">possède 100%</text>
</g>
<!-- la&#45;tribune&#45;republicaine&#45;199 -->
<g id="node16" class="node">
<title>la&#45;tribune&#45;republicaine&#45;199</title>
<ellipse fill="none" stroke="black" cx="1335.31" cy="-736" rx="99.97" ry="18"/>
<text text-anchor="middle" x="1335.31" y="-730.95" font-family="Times,serif" font-size="14.00">La Tribune républicaine</text>
</g>
<!-- la&#45;voix&#45;du&#45;nord&#45;sa&#45;185&#45;&gt;la&#45;tribune&#45;republicaine&#45;199 -->
<g id="edge15" class="edge">
<title>la&#45;voix&#45;du&#45;nord&#45;sa&#45;185&#45;&gt;la&#45;tribune&#45;republicaine&#45;199</title>
<path fill="none" stroke="black" d="M1061.13,-715.28C1113.51,-719.26 1178.34,-724.17 1231.71,-728.22"/>
<polygon fill="black" stroke="black" points="1231.33,-731.78 1241.56,-729.04 1231.86,-724.8 1231.33,-731.78"/>
<text text-anchor="middle" x="1129.85" y="-725.2" font-family="Times,serif" font-size="14.00">possède 100%</text>
</g>
<!-- la&#45;voix&#45;du&#45;nord&#45;186 -->
<g id="node17" class="node">
<title>la&#45;voix&#45;du&#45;nord&#45;186</title>
<ellipse fill="none" stroke="black" cx="1335.31" cy="-682" rx="73.36" ry="18"/>
<text text-anchor="middle" x="1335.31" y="-676.95" font-family="Times,serif" font-size="14.00">La Voix du Nord</text>
</g>
<!-- la&#45;voix&#45;du&#45;nord&#45;sa&#45;185&#45;&gt;la&#45;voix&#45;du&#45;nord&#45;186 -->
<g id="edge16" class="edge">
<title>la&#45;voix&#45;du&#45;nord&#45;sa&#45;185&#45;&gt;la&#45;voix&#45;du&#45;nord&#45;186</title>
<path fill="none" stroke="black" d="M1072.77,-695.07C1078.76,-694.5 1084.69,-693.97 1090.48,-693.5 1143.87,-689.16 1203.98,-686.3 1251.16,-684.52"/>
<polygon fill="black" stroke="black" points="1251.08,-687.99 1260.94,-684.12 1250.82,-680.99 1251.08,-687.99"/>
<text text-anchor="middle" x="1129.85" y="-696.2" font-family="Times,serif" font-size="14.00">possède 100%</text>
</g>
<!-- le&#45;journal&#45;de&#45;montreuil&#45;204 -->
<g id="node18" class="node">
<title>le&#45;journal&#45;de&#45;montreuil&#45;204</title>
<ellipse fill="none" stroke="black" cx="1335.31" cy="-628" rx="101.51" ry="18"/>
<text text-anchor="middle" x="1335.31" y="-622.95" font-family="Times,serif" font-size="14.00">Le Journal de Montreuil</text>
</g>
<!-- la&#45;voix&#45;du&#45;nord&#45;sa&#45;185&#45;&gt;le&#45;journal&#45;de&#45;montreuil&#45;204 -->
<g id="edge17" class="edge">
<title>la&#45;voix&#45;du&#45;nord&#45;sa&#45;185&#45;&gt;le&#45;journal&#45;de&#45;montreuil&#45;204</title>
<path fill="none" stroke="black" d="M1006.15,-692.99C1030.42,-684.57 1061.9,-674.39 1090.48,-667.5 1139.3,-655.73 1194.48,-646.47 1239.99,-639.87"/>
<polygon fill="black" stroke="black" points="1240.33,-643.22 1249.74,-638.34 1239.34,-636.29 1240.33,-643.22"/>
<text text-anchor="middle" x="1129.85" y="-670.2" font-family="Times,serif" font-size="14.00">possède 100%</text>
</g>
<!-- le&#45;journal&#45;des&#45;flandres&#45;195 -->
<g id="node19" class="node">
<title>le&#45;journal&#45;des&#45;flandres&#45;195</title>
<ellipse fill="none" stroke="black" cx="1335.31" cy="-574" rx="99.46" ry="18"/>
<text text-anchor="middle" x="1335.31" y="-568.95" font-family="Times,serif" font-size="14.00">Le Journal des Flandres</text>
</g>
<!-- la&#45;voix&#45;du&#45;nord&#45;sa&#45;185&#45;&gt;le&#45;journal&#45;des&#45;flandres&#45;195 -->
<g id="edge18" class="edge">
<title>la&#45;voix&#45;du&#45;nord&#45;sa&#45;185&#45;&gt;le&#45;journal&#45;des&#45;flandres&#45;195</title>
<path fill="none" stroke="black" d="M986.48,-692.96C1010.82,-676.33 1052.17,-649.51 1090.48,-631.5 1138.22,-609.06 1195.47,-594.97 1242.49,-586.36"/>
<polygon fill="black" stroke="black" points="1243.04,-589.64 1252.28,-584.45 1241.82,-582.75 1243.04,-589.64"/>
<text text-anchor="middle" x="1129.85" y="-634.2" font-family="Times,serif" font-size="14.00">possède 100%</text>
</g>
<!-- le&#45;messager&#45;196 -->
<g id="node20" class="node">
<title>le&#45;messager&#45;196</title>
<ellipse fill="none" stroke="black" cx="1335.31" cy="-520" rx="59.03" ry="18"/>
<text text-anchor="middle" x="1335.31" y="-514.95" font-family="Times,serif" font-size="14.00">Le Messager</text>
</g>
<!-- la&#45;voix&#45;du&#45;nord&#45;sa&#45;185&#45;&gt;le&#45;messager&#45;196 -->
<g id="edge19" class="edge">
<title>la&#45;voix&#45;du&#45;nord&#45;sa&#45;185&#45;&gt;le&#45;messager&#45;196</title>
<path fill="none" stroke="black" d="M976.37,-693.3C996.7,-667.68 1041.89,-614.56 1090.48,-582.5 1143.43,-547.56 1214.74,-532.15 1266.56,-525.36"/>
<polygon fill="black" stroke="black" points="1266.81,-528.73 1276.3,-524.03 1265.95,-521.78 1266.81,-528.73"/>
<text text-anchor="middle" x="1129.85" y="-585.2" font-family="Times,serif" font-size="14.00">possède 100%</text>
</g>
<!-- le&#45;pays&#45;gessien&#45;198 -->
<g id="node21" class="node">
<title>le&#45;pays&#45;gessien&#45;198</title>
<ellipse fill="none" stroke="black" cx="1335.31" cy="-466" rx="70.29" ry="18"/>
<text text-anchor="middle" x="1335.31" y="-460.95" font-family="Times,serif" font-size="14.00">Le Pays gessien</text>
</g>
<!-- la&#45;voix&#45;du&#45;nord&#45;sa&#45;185&#45;&gt;le&#45;pays&#45;gessien&#45;198 -->
<g id="edge20" class="edge">
<title>la&#45;voix&#45;du&#45;nord&#45;sa&#45;185&#45;&gt;le&#45;pays&#45;gessien&#45;198</title>
<path fill="none" stroke="black" d="M971.57,-693.03C987.12,-658.76 1029.83,-573.92 1090.48,-526.5 1137.15,-490.01 1202.95,-475.21 1254.43,-469.35"/>
<polygon fill="black" stroke="black" points="1254.6,-472.75 1264.18,-468.24 1253.88,-465.79 1254.6,-472.75"/>
<text text-anchor="middle" x="1129.85" y="-529.2" font-family="Times,serif" font-size="14.00">possède 100%</text>
</g>
<!-- le&#45;phare&#45;dunkerquois&#45;201 -->
<g id="node22" class="node">
<title>le&#45;phare&#45;dunkerquois&#45;201</title>
<ellipse fill="none" stroke="black" cx="1335.31" cy="-412" rx="94.34" ry="18"/>
<text text-anchor="middle" x="1335.31" y="-406.95" font-family="Times,serif" font-size="14.00">Le Phare Dunkerquois</text>
</g>
<!-- la&#45;voix&#45;du&#45;nord&#45;sa&#45;185&#45;&gt;le&#45;phare&#45;dunkerquois&#45;201 -->
<g id="edge21" class="edge">
<title>la&#45;voix&#45;du&#45;nord&#45;sa&#45;185&#45;&gt;le&#45;phare&#45;dunkerquois&#45;201</title>
<path fill="none" stroke="black" d="M968.43,-693.17C978.72,-650.92 1014.02,-528.85 1090.48,-465.5 1129.1,-433.5 1182.64,-419.5 1229.71,-413.76"/>
<polygon fill="black" stroke="black" points="1230.02,-417.14 1239.58,-412.57 1229.26,-410.18 1230.02,-417.14"/>
<text text-anchor="middle" x="1129.85" y="-468.2" font-family="Times,serif" font-size="14.00">possède 100%</text>
</g>
<!-- le&#45;reveil&#45;de&#45;berck&#45;203 -->
<g id="node23" class="node">
<title>le&#45;reveil&#45;de&#45;berck&#45;203</title>
<ellipse fill="none" stroke="black" cx="1335.31" cy="-358" rx="83.08" ry="18"/>
<text text-anchor="middle" x="1335.31" y="-352.95" font-family="Times,serif" font-size="14.00">Le Réveil de Berck</text>
</g>
<!-- la&#45;voix&#45;du&#45;nord&#45;sa&#45;185&#45;&gt;le&#45;reveil&#45;de&#45;berck&#45;203 -->
<g id="edge22" class="edge">
<title>la&#45;voix&#45;du&#45;nord&#45;sa&#45;185&#45;&gt;le&#45;reveil&#45;de&#45;berck&#45;203</title>
<path fill="none" stroke="black" d="M966.57,-692.94C972.27,-643.42 997.4,-484.28 1090.48,-405.5 1132.19,-370.2 1192.34,-358.2 1242.46,-355.09"/>
<polygon fill="black" stroke="black" points="1242.51,-358.55 1252.32,-354.55 1242.16,-351.55 1242.51,-358.55"/>
<text text-anchor="middle" x="1129.85" y="-408.2" font-family="Times,serif" font-size="14.00">possède 100%</text>
</g>
<!-- les&#45;echos&#45;du&#45;touquet&#45;194 -->
<g id="node24" class="node">
<title>les&#45;echos&#45;du&#45;touquet&#45;194</title>
<ellipse fill="none" stroke="black" cx="1335.31" cy="-304" rx="93.83" ry="18"/>
<text text-anchor="middle" x="1335.31" y="-298.95" font-family="Times,serif" font-size="14.00">Les Echos du Touquet</text>
</g>
<!-- la&#45;voix&#45;du&#45;nord&#45;sa&#45;185&#45;&gt;les&#45;echos&#45;du&#45;touquet&#45;194 -->
<g id="edge23" class="edge">
<title>la&#45;voix&#45;du&#45;nord&#45;sa&#45;185&#45;&gt;les&#45;echos&#45;du&#45;touquet&#45;194</title>
<path fill="none" stroke="black" d="M965.25,-693.06C966.74,-637.4 979.92,-440.55 1090.48,-346.5 1129.81,-313.04 1185.93,-301.63 1234.43,-298.94"/>
<polygon fill="black" stroke="black" points="1234.45,-302.4 1244.29,-298.47 1234.15,-295.41 1234.45,-302.4"/>
<text text-anchor="middle" x="1129.85" y="-349.2" font-family="Times,serif" font-size="14.00">possède 100%</text>
</g>
<!-- nord&#45;eclair&#45;187 -->
<g id="node25" class="node">
<title>nord&#45;eclair&#45;187</title>
<ellipse fill="none" stroke="black" cx="1335.31" cy="-250" rx="52.89" ry="18"/>
<text text-anchor="middle" x="1335.31" y="-244.95" font-family="Times,serif" font-size="14.00">Nord éclair</text>
</g>
<!-- la&#45;voix&#45;du&#45;nord&#45;sa&#45;185&#45;&gt;nord&#45;eclair&#45;187 -->
<g id="edge24" class="edge">
<title>la&#45;voix&#45;du&#45;nord&#45;sa&#45;185&#45;&gt;nord&#45;eclair&#45;187</title>
<path fill="none" stroke="black" d="M967.39,-693.02C978.18,-624.71 1026.01,-343.68 1090.48,-287.5 1140.93,-243.54 1220.62,-239.27 1275.07,-242.62"/>
<polygon fill="black" stroke="black" points="1274.71,-246.17 1284.94,-243.41 1275.22,-239.19 1274.71,-246.17"/>
<text text-anchor="middle" x="1129.85" y="-290.2" font-family="Times,serif" font-size="14.00">possède 100%</text>
</g>
<!-- nord&#45;littoral&#45;188 -->
<g id="node26" class="node">
<title>nord&#45;littoral&#45;188</title>
<ellipse fill="none" stroke="black" cx="1335.31" cy="-196" rx="60.05" ry="18"/>
<text text-anchor="middle" x="1335.31" y="-190.95" font-family="Times,serif" font-size="14.00">Nord Littoral</text>
</g>
<!-- la&#45;voix&#45;du&#45;nord&#45;sa&#45;185&#45;&gt;nord&#45;littoral&#45;188 -->
<g id="edge25" class="edge">
<title>la&#45;voix&#45;du&#45;nord&#45;sa&#45;185&#45;&gt;nord&#45;littoral&#45;188</title>
<path fill="none" stroke="black" d="M966.8,-692.97C975.55,-618.95 1017.71,-294.03 1090.48,-229.5 1139.08,-186.4 1215.95,-182.67 1270.37,-186.76"/>
<polygon fill="black" stroke="black" points="1270.01,-190.33 1280.28,-187.7 1270.62,-183.35 1270.01,-190.33"/>
<text text-anchor="middle" x="1129.85" y="-232.2" font-family="Times,serif" font-size="14.00">possède 100%</text>
</g>
</g>
</svg>
