<?xml version="1.0" encoding="UTF-8" standalone="no"?>
<!DOCTYPE svg PUBLIC "-//W3C//DTD SVG 1.1//EN"
 "http://www.w3.org/Graphics/SVG/1.1/DTD/svg11.dtd">
<!-- Generated by graphviz version 8.1.0 (20230707.0739)
 -->
<!-- Pages: 1 -->
<svg width="1777pt" height="400pt"
 viewBox="0.00 0.00 1777.25 400.00" xmlns="http://www.w3.org/2000/svg" xmlns:xlink="http://www.w3.org/1999/xlink">
<g id="graph0" class="graph" transform="scale(1 1) rotate(0) translate(4 396)">
<polygon fill="white" stroke="none" points="-4,4 -4,-396 1773.25,-396 1773.25,4 -4,4"/>
<g id="clust2" class="cluster">
<title>clusterLeaves</title>
<polygon fill="none" stroke="black" points="1545.3,-8 1545.3,-384 1761.25,-384 1761.25,-8 1545.3,-8"/>
</g>
<!-- famille&#45;hutin&#45;170 -->
<g id="node1" class="node">
<title>famille&#45;hutin&#45;170</title>
<polygon fill="none" stroke="black" points="106.75,-214 0,-214 0,-178 106.75,-178 106.75,-214"/>
<text text-anchor="middle" x="53.38" y="-192.07" font-family="Times,serif" font-size="14.00">🧑‍💼Famille Hutin</text>
</g>
<!-- association&#45;pour&#45;le&#45;soutien&#45;des&#45;principes&#45;de&#45;la&#45;democratie&#45;humaniste&#45;173 -->
<g id="node2" class="node">
<title>association&#45;pour&#45;le&#45;soutien&#45;des&#45;principes&#45;de&#45;la&#45;democratie&#45;humaniste&#45;173</title>
<polygon fill="none" stroke="black" points="887.68,-201.56 555.34,-214 223,-201.56 223.31,-181.44 887.37,-181.44 887.68,-201.56"/>
<text text-anchor="middle" x="555.34" y="-190.95" font-family="Times,serif" font-size="14.00">Association pour le soutien des principes de la démocratie humaniste</text>
</g>
<!-- famille&#45;hutin&#45;170&#45;&gt;association&#45;pour&#45;le&#45;soutien&#45;des&#45;principes&#45;de&#45;la&#45;democratie&#45;humaniste&#45;173 -->
<g id="edge1" class="edge">
<title>famille&#45;hutin&#45;170&#45;&gt;association&#45;pour&#45;le&#45;soutien&#45;des&#45;principes&#45;de&#45;la&#45;democratie&#45;humaniste&#45;173</title>
<path fill="none" stroke="black" d="M106.94,-196C134.67,-196 171.3,-196 211.69,-196"/>
<polygon fill="black" stroke="black" points="211.61,-199.5 221.61,-196 211.61,-192.5 211.61,-199.5"/>
<text text-anchor="middle" x="164.88" y="-199.2" font-family="Times,serif" font-size="14.00">contrôle 100%</text>
</g>
<!-- groupe&#45;sipa&#45;ouest&#45;174 -->
<g id="node3" class="node">
<title>groupe&#45;sipa&#45;ouest&#45;174</title>
<polygon fill="none" stroke="black" points="1224.27,-201.56 1113.35,-214 1002.43,-201.56 1002.54,-181.44 1224.17,-181.44 1224.27,-201.56"/>
<text text-anchor="middle" x="1113.35" y="-190.95" font-family="Times,serif" font-size="14.00">Groupe SIPA &#45; Ouest</text>
</g>
<!-- association&#45;pour&#45;le&#45;soutien&#45;des&#45;principes&#45;de&#45;la&#45;democratie&#45;humaniste&#45;173&#45;&gt;groupe&#45;sipa&#45;ouest&#45;174 -->
<g id="edge2" class="edge">
<title>association&#45;pour&#45;le&#45;soutien&#45;des&#45;principes&#45;de&#45;la&#45;democratie&#45;humaniste&#45;173&#45;&gt;groupe&#45;sipa&#45;ouest&#45;174</title>
<path fill="none" stroke="black" d="M887.81,-196C924.42,-196 959.75,-196 991.12,-196"/>
<polygon fill="black" stroke="black" points="991.05,-199.5 1001.05,-196 991.05,-192.5 991.05,-199.5"/>
<text text-anchor="middle" x="945.06" y="-199.2" font-family="Times,serif" font-size="14.00">possède 100%</text>
</g>
<!-- sofiouest&#45;181 -->
<g id="node4" class="node">
<title>sofiouest&#45;181</title>
<polygon fill="none" stroke="black" points="1445.3,-362.56 1388.79,-375 1332.27,-362.56 1332.33,-342.44 1445.25,-342.44 1445.3,-362.56"/>
<text text-anchor="middle" x="1388.79" y="-351.95" font-family="Times,serif" font-size="14.00">Sofiouest</text>
</g>
<!-- groupe&#45;sipa&#45;ouest&#45;174&#45;&gt;sofiouest&#45;181 -->
<g id="edge9" class="edge">
<title>groupe&#45;sipa&#45;ouest&#45;174&#45;&gt;sofiouest&#45;181</title>
<path fill="none" stroke="black" d="M1127.39,-212.78C1148.62,-238.96 1193.27,-289.4 1242.27,-317 1266.55,-330.67 1295.77,-339.89 1321.64,-345.99"/>
<polygon fill="black" stroke="black" points="1320.59,-349.57 1331.11,-348.34 1322.12,-342.74 1320.59,-349.57"/>
<text text-anchor="middle" x="1278.27" y="-346.2" font-family="Times,serif" font-size="14.00">possède 40%</text>
</g>
<!-- la&#45;presse&#45;de&#45;la&#45;manche&#45;179 -->
<g id="node5" class="node">
<title>la&#45;presse&#45;de&#45;la&#45;manche&#45;179</title>
<ellipse fill="none" stroke="black" cx="1653.28" cy="-304" rx="99.97" ry="18"/>
<text text-anchor="middle" x="1653.28" y="-298.95" font-family="Times,serif" font-size="14.00">La Presse de la Manche</text>
</g>
<!-- groupe&#45;sipa&#45;ouest&#45;174&#45;&gt;la&#45;presse&#45;de&#45;la&#45;manche&#45;179 -->
<g id="edge3" class="edge">
<title>groupe&#45;sipa&#45;ouest&#45;174&#45;&gt;la&#45;presse&#45;de&#45;la&#45;manche&#45;179</title>
<path fill="none" stroke="black" d="M1162.16,-208.95C1206.15,-220.61 1273.32,-237.74 1332.27,-250 1410.26,-266.22 1499.71,-280.99 1564.17,-290.97"/>
<polygon fill="black" stroke="black" points="1563.28,-294.53 1573.7,-292.59 1564.35,-287.61 1563.28,-294.53"/>
<text text-anchor="middle" x="1388.79" y="-274.2" font-family="Times,serif" font-size="14.00">possède 100%</text>
</g>
<!-- le&#45;courrier&#45;de&#45;l&#45;ouest&#45;176 -->
<g id="node6" class="node">
<title>le&#45;courrier&#45;de&#45;l&#45;ouest&#45;176</title>
<ellipse fill="none" stroke="black" cx="1653.28" cy="-250" rx="95.37" ry="18"/>
<text text-anchor="middle" x="1653.28" y="-244.95" font-family="Times,serif" font-size="14.00">Le Courrier de l’Ouest</text>
</g>
<!-- groupe&#45;sipa&#45;ouest&#45;174&#45;&gt;le&#45;courrier&#45;de&#45;l&#45;ouest&#45;176 -->
<g id="edge4" class="edge">
<title>groupe&#45;sipa&#45;ouest&#45;174&#45;&gt;le&#45;courrier&#45;de&#45;l&#45;ouest&#45;176</title>
<path fill="none" stroke="black" d="M1196.57,-205.14C1211.76,-206.79 1227.5,-208.47 1242.27,-210 1349.67,-221.12 1472.99,-233.03 1556.1,-240.94"/>
<polygon fill="black" stroke="black" points="1555.76,-244.52 1566.05,-241.98 1556.42,-237.55 1555.76,-244.52"/>
<text text-anchor="middle" x="1388.79" y="-232.2" font-family="Times,serif" font-size="14.00">possède 100%</text>
</g>
<!-- le&#45;maine&#45;libre&#45;177 -->
<g id="node7" class="node">
<title>le&#45;maine&#45;libre&#45;177</title>
<ellipse fill="none" stroke="black" cx="1653.28" cy="-196" rx="66.71" ry="18"/>
<text text-anchor="middle" x="1653.28" y="-190.95" font-family="Times,serif" font-size="14.00">Le Maine libre</text>
</g>
<!-- groupe&#45;sipa&#45;ouest&#45;174&#45;&gt;le&#45;maine&#45;libre&#45;177 -->
<g id="edge5" class="edge">
<title>groupe&#45;sipa&#45;ouest&#45;174&#45;&gt;le&#45;maine&#45;libre&#45;177</title>
<path fill="none" stroke="black" d="M1224.51,-196C1329.07,-196 1483.52,-196 1575.41,-196"/>
<polygon fill="black" stroke="black" points="1575.3,-199.5 1585.3,-196 1575.3,-192.5 1575.3,-199.5"/>
<text text-anchor="middle" x="1388.79" y="-199.2" font-family="Times,serif" font-size="14.00">possède 100%</text>
</g>
<!-- ouest&#45;france&#45;175 -->
<g id="node8" class="node">
<title>ouest&#45;france&#45;175</title>
<ellipse fill="none" stroke="black" cx="1653.28" cy="-142" rx="60.05" ry="18"/>
<text text-anchor="middle" x="1653.28" y="-136.95" font-family="Times,serif" font-size="14.00">Ouest France</text>
</g>
<!-- groupe&#45;sipa&#45;ouest&#45;174&#45;&gt;ouest&#45;france&#45;175 -->
<g id="edge6" class="edge">
<title>groupe&#45;sipa&#45;ouest&#45;174&#45;&gt;ouest&#45;france&#45;175</title>
<path fill="none" stroke="black" d="M1224.51,-184.94C1332.8,-174.07 1494.6,-157.83 1585,-148.75"/>
<polygon fill="black" stroke="black" points="1585.33,-152.14 1594.93,-147.66 1584.63,-145.17 1585.33,-152.14"/>
<text text-anchor="middle" x="1388.79" y="-176.2" font-family="Times,serif" font-size="14.00">possède 100%</text>
</g>
<!-- presse&#45;ocean&#45;178 -->
<g id="node9" class="node">
<title>presse&#45;ocean&#45;178</title>
<ellipse fill="none" stroke="black" cx="1653.28" cy="-88" rx="61.08" ry="18"/>
<text text-anchor="middle" x="1653.28" y="-82.95" font-family="Times,serif" font-size="14.00">Presse&#45;Océan</text>
</g>
<!-- groupe&#45;sipa&#45;ouest&#45;174&#45;&gt;presse&#45;ocean&#45;178 -->
<g id="edge7" class="edge">
<title>groupe&#45;sipa&#45;ouest&#45;174&#45;&gt;presse&#45;ocean&#45;178</title>
<path fill="none" stroke="black" d="M1170.54,-181.02C1214.4,-169.62 1276.97,-153.98 1332.27,-142.5 1420.04,-124.28 1522.27,-107.66 1587.11,-97.69"/>
<polygon fill="black" stroke="black" points="1587.63,-101 1596.98,-96.03 1586.57,-94.08 1587.63,-101"/>
<text text-anchor="middle" x="1388.79" y="-145.2" font-family="Times,serif" font-size="14.00">possède 100%</text>
</g>
<!-- publi&#45;hebdos&#45;180 -->
<g id="node10" class="node">
<title>publi&#45;hebdos&#45;180</title>
<ellipse fill="none" stroke="black" cx="1653.28" cy="-34" rx="61.08" ry="18"/>
<text text-anchor="middle" x="1653.28" y="-28.95" font-family="Times,serif" font-size="14.00">Publi Hebdos</text>
</g>
<!-- groupe&#45;sipa&#45;ouest&#45;174&#45;&gt;publi&#45;hebdos&#45;180 -->
<g id="edge8" class="edge">
<title>groupe&#45;sipa&#45;ouest&#45;174&#45;&gt;publi&#45;hebdos&#45;180</title>
<path fill="none" stroke="black" d="M1143.21,-181.03C1184.24,-160.29 1262.23,-122.86 1332.27,-100.5 1418.56,-72.96 1521.65,-53.91 1587.04,-43.47"/>
<polygon fill="black" stroke="black" points="1587.27,-46.82 1596.6,-41.81 1586.18,-39.91 1587.27,-46.82"/>
<text text-anchor="middle" x="1388.79" y="-103.2" font-family="Times,serif" font-size="14.00">possède 100%</text>
</g>
<!-- 20&#45;minutes&#45;182 -->
<g id="node11" class="node">
<title>20&#45;minutes&#45;182</title>
<ellipse fill="none" stroke="black" cx="1653.28" cy="-358" rx="53.4" ry="18"/>
<text text-anchor="middle" x="1653.28" y="-352.95" font-family="Times,serif" font-size="14.00">20 Minutes</text>
</g>
<!-- sofiouest&#45;181&#45;&gt;20&#45;minutes&#45;182 -->
<g id="edge10" class="edge">
<title>sofiouest&#45;181&#45;&gt;20&#45;minutes&#45;182</title>
<path fill="none" stroke="black" d="M1445.78,-357.21C1487.7,-357.37 1545.09,-357.59 1588.73,-357.76"/>
<polygon fill="black" stroke="black" points="1588.49,-361.26 1598.51,-357.8 1588.52,-354.26 1588.49,-361.26"/>
<text text-anchor="middle" x="1499.3" y="-360.2" font-family="Times,serif" font-size="14.00">possède 50%</text>
</g>
</g>
</svg>
