<?xml version="1.0" encoding="UTF-8" standalone="no"?>
<!DOCTYPE svg PUBLIC "-//W3C//DTD SVG 1.1//EN"
 "http://www.w3.org/Graphics/SVG/1.1/DTD/svg11.dtd">
<!-- Generated by graphviz version 7.1.0 (20230121.1956)
 -->
<!-- Pages: 1 -->
<svg width="1094pt" height="940pt"
 viewBox="0.00 0.00 1094.44 940.00" xmlns="http://www.w3.org/2000/svg" xmlns:xlink="http://www.w3.org/1999/xlink">
<g id="graph0" class="graph" transform="scale(1 1) rotate(0) translate(4 936)">
<polygon fill="white" stroke="none" points="-4,4 -4,-936 1090.44,-936 1090.44,4 -4,4"/>
<g id="clust2" class="cluster">
<title>clusterLeaves</title>
<polygon fill="none" stroke="black" points="816.77,-8 816.77,-924 1078.44,-924 1078.44,-8 816.77,-8"/>
</g>
<!-- fondation&#45;varenne&#45;220 -->
<g id="node1" class="node">
<title>fondation&#45;varenne&#45;220</title>
<polygon fill="none" stroke="black" points="119,-430 0,-430 0,-394 119,-394 119,-430"/>
<text text-anchor="middle" x="59.5" y="-408.3" font-family="Times,serif" font-size="14.00">Fondation Varenne</text>
</g>
<!-- groupe&#45;la&#45;montagne&#45;222 -->
<g id="node2" class="node">
<title>groupe&#45;la&#45;montagne&#45;222</title>
<polygon fill="none" stroke="black" points="443.46,-417.56 335.65,-430 227.85,-417.56 227.95,-397.44 443.36,-397.44 443.46,-417.56"/>
<text text-anchor="middle" x="335.65" y="-408.3" font-family="Times,serif" font-size="14.00">Groupe La Montagne</text>
</g>
<!-- fondation&#45;varenne&#45;220&#45;&gt;groupe&#45;la&#45;montagne&#45;222 -->
<g id="edge1" class="edge">
<title>fondation&#45;varenne&#45;220&#45;&gt;groupe&#45;la&#45;montagne&#45;222</title>
<path fill="none" stroke="black" d="M119.31,-412C147.65,-412 182.71,-412 216.24,-412"/>
<polygon fill="black" stroke="black" points="216.03,-415.5 226.03,-412 216.03,-408.5 216.03,-415.5"/>
<text text-anchor="middle" x="173.5" y="-415.8" font-family="Times,serif" font-size="14.00">possède 50%</text>
</g>
<!-- groupe&#45;nrco&#45;237 -->
<g id="node3" class="node">
<title>groupe&#45;nrco&#45;237</title>
<polygon fill="none" stroke="black" points="710,-795.56 631.03,-808 552.07,-795.56 552.15,-775.44 709.92,-775.44 710,-795.56"/>
<text text-anchor="middle" x="631.03" y="-786.3" font-family="Times,serif" font-size="14.00">Groupe NRCO</text>
</g>
<!-- groupe&#45;la&#45;montagne&#45;222&#45;&gt;groupe&#45;nrco&#45;237 -->
<g id="edge3" class="edge">
<title>groupe&#45;la&#45;montagne&#45;222&#45;&gt;groupe&#45;nrco&#45;237</title>
<path fill="none" stroke="black" d="M338.44,-430.11C344.73,-483.98 370.57,-644.86 461.3,-732 483.09,-752.93 512.78,-766.33 541.17,-774.9"/>
<polygon fill="black" stroke="black" points="539.94,-778.19 550.51,-777.54 541.84,-771.45 539.94,-778.19"/>
<text text-anchor="middle" x="497.8" y="-774.8" font-family="Times,serif" font-size="14.00">possède 16%</text>
</g>
<!-- courrier&#45;du&#45;loiret&#45;229 -->
<g id="node4" class="node">
<title>courrier&#45;du&#45;loiret&#45;229</title>
<ellipse fill="none" stroke="black" cx="947.6" cy="-682" rx="75.29" ry="18"/>
<text text-anchor="middle" x="947.6" y="-678.3" font-family="Times,serif" font-size="14.00">Courrier du Loiret</text>
</g>
<!-- groupe&#45;la&#45;montagne&#45;222&#45;&gt;courrier&#45;du&#45;loiret&#45;229 -->
<g id="edge2" class="edge">
<title>groupe&#45;la&#45;montagne&#45;222&#45;&gt;courrier&#45;du&#45;loiret&#45;229</title>
<path fill="none" stroke="black" d="M347.36,-429.15C375.04,-471.7 453.74,-581.79 552.3,-625 652.13,-668.76 778.47,-680.25 860.85,-682.61"/>
<polygon fill="black" stroke="black" points="860.58,-686.1 870.66,-682.85 860.75,-679.1 860.58,-686.1"/>
<text text-anchor="middle" x="631.03" y="-671.8" font-family="Times,serif" font-size="14.00">possède 100%</text>
</g>
<!-- la&#45;republique&#45;du&#45;centre&#45;236 -->
<g id="node6" class="node">
<title>la&#45;republique&#45;du&#45;centre&#45;236</title>
<ellipse fill="none" stroke="black" cx="947.6" cy="-736" rx="100.18" ry="18"/>
<text text-anchor="middle" x="947.6" y="-732.3" font-family="Times,serif" font-size="14.00">La République du Centre</text>
</g>
<!-- groupe&#45;la&#45;montagne&#45;222&#45;&gt;la&#45;republique&#45;du&#45;centre&#45;236 -->
<g id="edge15" class="edge">
<title>groupe&#45;la&#45;montagne&#45;222&#45;&gt;la&#45;republique&#45;du&#45;centre&#45;236</title>
<path fill="none" stroke="black" d="M343.54,-429.51C364.98,-481.24 436.18,-633.11 552.3,-687 642.54,-728.88 756.24,-739.13 838.34,-740.09"/>
<polygon fill="black" stroke="black" points="838.17,-743.59 848.19,-740.15 838.21,-736.59 838.17,-743.59"/>
<text text-anchor="middle" x="631.03" y="-733.8" font-family="Times,serif" font-size="14.00">possède 70%</text>
</g>
<!-- journal&#45;de&#45;gien&#45;235 -->
<g id="node9" class="node">
<title>journal&#45;de&#45;gien&#45;235</title>
<ellipse fill="none" stroke="black" cx="947.6" cy="-628" rx="66.89" ry="18"/>
<text text-anchor="middle" x="947.6" y="-624.3" font-family="Times,serif" font-size="14.00">Journal de Gien</text>
</g>
<!-- groupe&#45;la&#45;montagne&#45;222&#45;&gt;journal&#45;de&#45;gien&#45;235 -->
<g id="edge8" class="edge">
<title>groupe&#45;la&#45;montagne&#45;222&#45;&gt;journal&#45;de&#45;gien&#45;235</title>
<path fill="none" stroke="black" d="M353.36,-428.34C387.48,-460.62 468.99,-532.26 552.3,-565 657.37,-606.29 788.31,-620.54 869.7,-625.45"/>
<polygon fill="black" stroke="black" points="869.15,-628.92 879.34,-625.99 869.55,-621.93 869.15,-628.92"/>
<text text-anchor="middle" x="631.03" y="-609.8" font-family="Times,serif" font-size="14.00">possède 100%</text>
</g>
<!-- l&#45;echo&#45;charitois&#45;232 -->
<g id="node10" class="node">
<title>l&#45;echo&#45;charitois&#45;232</title>
<ellipse fill="none" stroke="black" cx="947.6" cy="-574" rx="71.49" ry="18"/>
<text text-anchor="middle" x="947.6" y="-570.3" font-family="Times,serif" font-size="14.00">L’Echo Charitois</text>
</g>
<!-- groupe&#45;la&#45;montagne&#45;222&#45;&gt;l&#45;echo&#45;charitois&#45;232 -->
<g id="edge9" class="edge">
<title>groupe&#45;la&#45;montagne&#45;222&#45;&gt;l&#45;echo&#45;charitois&#45;232</title>
<path fill="none" stroke="black" d="M363.29,-427.12C403.12,-449.06 481.14,-489.42 552.3,-511 658.91,-543.32 787.04,-559.89 867.67,-567.75"/>
<polygon fill="black" stroke="black" points="866.93,-571.19 877.22,-568.65 867.59,-564.22 866.93,-571.19"/>
<text text-anchor="middle" x="631.03" y="-549.8" font-family="Times,serif" font-size="14.00">possède 100%</text>
</g>
<!-- l&#45;echo&#45;republicain&#45;228 -->
<g id="node11" class="node">
<title>l&#45;echo&#45;republicain&#45;228</title>
<ellipse fill="none" stroke="black" cx="947.6" cy="-520" rx="81.49" ry="18"/>
<text text-anchor="middle" x="947.6" y="-516.3" font-family="Times,serif" font-size="14.00">L’Echo Républicain</text>
</g>
<!-- groupe&#45;la&#45;montagne&#45;222&#45;&gt;l&#45;echo&#45;republicain&#45;228 -->
<g id="edge10" class="edge">
<title>groupe&#45;la&#45;montagne&#45;222&#45;&gt;l&#45;echo&#45;republicain&#45;228</title>
<path fill="none" stroke="black" d="M385.78,-424.66C408.72,-430.56 436.4,-437.66 461.3,-444 501.73,-454.3 511.34,-459.1 552.3,-467 658.21,-487.43 781.62,-502.66 861.78,-511.43"/>
<polygon fill="black" stroke="black" points="860.98,-514.86 871.29,-512.46 861.73,-507.9 860.98,-514.86"/>
<text text-anchor="middle" x="631.03" y="-495.8" font-family="Times,serif" font-size="14.00">possède 100%</text>
</g>
<!-- l&#45;eclaireur&#45;du&#45;gatinais&#45;230 -->
<g id="node12" class="node">
<title>l&#45;eclaireur&#45;du&#45;gatinais&#45;230</title>
<ellipse fill="none" stroke="black" cx="947.6" cy="-466" rx="93.68" ry="18"/>
<text text-anchor="middle" x="947.6" y="-462.3" font-family="Times,serif" font-size="14.00">L’Eclaireur du Gâtinais</text>
</g>
<!-- groupe&#45;la&#45;montagne&#45;222&#45;&gt;l&#45;eclaireur&#45;du&#45;gatinais&#45;230 -->
<g id="edge11" class="edge">
<title>groupe&#45;la&#45;montagne&#45;222&#45;&gt;l&#45;eclaireur&#45;du&#45;gatinais&#45;230</title>
<path fill="none" stroke="black" d="M415.75,-421.24C430.86,-422.9 446.57,-424.57 461.3,-426 595.05,-439.02 749.81,-451.29 847.92,-458.73"/>
<polygon fill="black" stroke="black" points="847.56,-462.21 857.8,-459.47 848.09,-455.23 847.56,-462.21"/>
<text text-anchor="middle" x="631.03" y="-451.8" font-family="Times,serif" font-size="14.00">possède 100%</text>
</g>
<!-- l&#45;yonne&#45;republicaine&#45;227 -->
<g id="node13" class="node">
<title>l&#45;yonne&#45;republicaine&#45;227</title>
<ellipse fill="none" stroke="black" cx="947.6" cy="-412" rx="90.18" ry="18"/>
<text text-anchor="middle" x="947.6" y="-408.3" font-family="Times,serif" font-size="14.00">L’Yonne Républicaine</text>
</g>
<!-- groupe&#45;la&#45;montagne&#45;222&#45;&gt;l&#45;yonne&#45;republicaine&#45;227 -->
<g id="edge12" class="edge">
<title>groupe&#45;la&#45;montagne&#45;222&#45;&gt;l&#45;yonne&#45;republicaine&#45;227</title>
<path fill="none" stroke="black" d="M443.6,-412C557.06,-412 734.95,-412 845.96,-412"/>
<polygon fill="black" stroke="black" points="845.64,-415.5 855.64,-412 845.64,-408.5 845.64,-415.5"/>
<text text-anchor="middle" x="631.03" y="-415.8" font-family="Times,serif" font-size="14.00">possède 100%</text>
</g>
<!-- la&#45;liberte&#45;234 -->
<g id="node14" class="node">
<title>la&#45;liberte&#45;234</title>
<ellipse fill="none" stroke="black" cx="947.6" cy="-358" rx="48.19" ry="18"/>
<text text-anchor="middle" x="947.6" y="-354.3" font-family="Times,serif" font-size="14.00">La Liberté</text>
</g>
<!-- groupe&#45;la&#45;montagne&#45;222&#45;&gt;la&#45;liberte&#45;234 -->
<g id="edge13" class="edge">
<title>groupe&#45;la&#45;montagne&#45;222&#45;&gt;la&#45;liberte&#45;234</title>
<path fill="none" stroke="black" d="M443.6,-402.53C573.22,-391.06 786.92,-372.14 888.93,-363.11"/>
<polygon fill="black" stroke="black" points="889.06,-366.61 898.71,-362.24 888.44,-359.64 889.06,-366.61"/>
<text text-anchor="middle" x="631.03" y="-396.8" font-family="Times,serif" font-size="14.00">possède 100%</text>
</g>
<!-- la&#45;montagne&#45;223 -->
<g id="node15" class="node">
<title>la&#45;montagne&#45;223</title>
<ellipse fill="none" stroke="black" cx="947.6" cy="-304" rx="58.49" ry="18"/>
<text text-anchor="middle" x="947.6" y="-300.3" font-family="Times,serif" font-size="14.00">La Montagne</text>
</g>
<!-- groupe&#45;la&#45;montagne&#45;222&#45;&gt;la&#45;montagne&#45;223 -->
<g id="edge14" class="edge">
<title>groupe&#45;la&#45;montagne&#45;222&#45;&gt;la&#45;montagne&#45;223</title>
<path fill="none" stroke="black" d="M394.02,-396.97C437.3,-385.99 498.26,-371.28 552.3,-361 667.42,-339.11 802.86,-321.23 881.31,-311.64"/>
<polygon fill="black" stroke="black" points="881.45,-315.15 890.96,-310.47 880.61,-308.2 881.45,-315.15"/>
<text text-anchor="middle" x="631.03" y="-364.8" font-family="Times,serif" font-size="14.00">possède 100%</text>
</g>
<!-- le&#45;berry&#45;republicain&#45;226 -->
<g id="node16" class="node">
<title>le&#45;berry&#45;republicain&#45;226</title>
<ellipse fill="none" stroke="black" cx="947.6" cy="-250" rx="84.49" ry="18"/>
<text text-anchor="middle" x="947.6" y="-246.3" font-family="Times,serif" font-size="14.00">Le Berry républicain</text>
</g>
<!-- groupe&#45;la&#45;montagne&#45;222&#45;&gt;le&#45;berry&#45;republicain&#45;226 -->
<g id="edge16" class="edge">
<title>groupe&#45;la&#45;montagne&#45;222&#45;&gt;le&#45;berry&#45;republicain&#45;226</title>
<path fill="none" stroke="black" d="M364.04,-397.08C404.18,-375.87 481.86,-337.2 552.3,-316 654.98,-285.1 777.32,-267.46 858.2,-258.33"/>
<polygon fill="black" stroke="black" points="858.28,-261.84 867.83,-257.26 857.51,-254.88 858.28,-261.84"/>
<text text-anchor="middle" x="631.03" y="-319.8" font-family="Times,serif" font-size="14.00">possède 100%</text>
</g>
<!-- le&#45;journal&#45;du&#45;centre&#45;225 -->
<g id="node17" class="node">
<title>le&#45;journal&#45;du&#45;centre&#45;225</title>
<ellipse fill="none" stroke="black" cx="947.6" cy="-196" rx="83.39" ry="18"/>
<text text-anchor="middle" x="947.6" y="-192.3" font-family="Times,serif" font-size="14.00">Le Journal du centre</text>
</g>
<!-- groupe&#45;la&#45;montagne&#45;222&#45;&gt;le&#45;journal&#45;du&#45;centre&#45;225 -->
<g id="edge17" class="edge">
<title>groupe&#45;la&#45;montagne&#45;222&#45;&gt;le&#45;journal&#45;du&#45;centre&#45;225</title>
<path fill="none" stroke="black" d="M352.1,-397.09C385.46,-365.88 468.09,-293.96 552.3,-262 651.62,-224.31 773.12,-208.09 854.78,-201.15"/>
<polygon fill="black" stroke="black" points="854.84,-204.66 864.52,-200.35 854.27,-197.68 854.84,-204.66"/>
<text text-anchor="middle" x="631.03" y="-265.8" font-family="Times,serif" font-size="14.00">possède 100%</text>
</g>
<!-- le&#45;populaire&#45;du&#45;centre&#45;224 -->
<g id="node18" class="node">
<title>le&#45;populaire&#45;du&#45;centre&#45;224</title>
<ellipse fill="none" stroke="black" cx="947.6" cy="-142" rx="90.98" ry="18"/>
<text text-anchor="middle" x="947.6" y="-138.3" font-family="Times,serif" font-size="14.00">Le Populaire du centre</text>
</g>
<!-- groupe&#45;la&#45;montagne&#45;222&#45;&gt;le&#45;populaire&#45;du&#45;centre&#45;224 -->
<g id="edge18" class="edge">
<title>groupe&#45;la&#45;montagne&#45;222&#45;&gt;le&#45;populaire&#45;du&#45;centre&#45;224</title>
<path fill="none" stroke="black" d="M345.93,-396.95C372.17,-356.04 451.57,-243.18 552.3,-203 647.4,-165.07 764.12,-150.61 845.79,-145.15"/>
<polygon fill="black" stroke="black" points="845.81,-148.66 855.57,-144.54 845.37,-141.67 845.81,-148.66"/>
<text text-anchor="middle" x="631.03" y="-206.8" font-family="Times,serif" font-size="14.00">possède 100%</text>
</g>
<!-- pays&#45;roannais&#45;233 -->
<g id="node19" class="node">
<title>pays&#45;roannais&#45;233</title>
<ellipse fill="none" stroke="black" cx="947.6" cy="-88" rx="62.29" ry="18"/>
<text text-anchor="middle" x="947.6" y="-84.3" font-family="Times,serif" font-size="14.00">Pays Roannais</text>
</g>
<!-- groupe&#45;la&#45;montagne&#45;222&#45;&gt;pays&#45;roannais&#45;233 -->
<g id="edge19" class="edge">
<title>groupe&#45;la&#45;montagne&#45;222&#45;&gt;pays&#45;roannais&#45;233</title>
<path fill="none" stroke="black" d="M342.29,-397.21C361.96,-348.14 432.94,-191.1 552.3,-143 658.69,-100.13 792.83,-89.73 874.05,-87.72"/>
<polygon fill="black" stroke="black" points="873.71,-91.22 883.63,-87.52 873.56,-84.23 873.71,-91.22"/>
<text text-anchor="middle" x="631.03" y="-146.8" font-family="Times,serif" font-size="14.00">possède 100%</text>
</g>
<!-- regional&#45;de&#45;cosne&#45;231 -->
<g id="node20" class="node">
<title>regional&#45;de&#45;cosne&#45;231</title>
<ellipse fill="none" stroke="black" cx="947.6" cy="-34" rx="77.19" ry="18"/>
<text text-anchor="middle" x="947.6" y="-30.3" font-family="Times,serif" font-size="14.00">Régional de Cosne</text>
</g>
<!-- groupe&#45;la&#45;montagne&#45;222&#45;&gt;regional&#45;de&#45;cosne&#45;231 -->
<g id="edge20" class="edge">
<title>groupe&#45;la&#45;montagne&#45;222&#45;&gt;regional&#45;de&#45;cosne&#45;231</title>
<path fill="none" stroke="black" d="M340.73,-397.08C352.99,-354.32 392.94,-229.25 461.3,-148 493.14,-110.17 506.2,-101.86 552.3,-84 652.63,-45.14 777.01,-35.07 858.93,-33.13"/>
<polygon fill="black" stroke="black" points="858.76,-36.64 868.69,-32.94 858.62,-29.64 858.76,-36.64"/>
<text text-anchor="middle" x="631.03" y="-87.8" font-family="Times,serif" font-size="14.00">possède 100%</text>
</g>
<!-- centre&#45;presse&#45;239 -->
<g id="node5" class="node">
<title>centre&#45;presse&#45;239</title>
<ellipse fill="none" stroke="black" cx="947.6" cy="-790" rx="59.29" ry="18"/>
<text text-anchor="middle" x="947.6" y="-786.3" font-family="Times,serif" font-size="14.00">Centre Presse</text>
</g>
<!-- groupe&#45;nrco&#45;237&#45;&gt;centre&#45;presse&#45;239 -->
<g id="edge4" class="edge">
<title>groupe&#45;nrco&#45;237&#45;&gt;centre&#45;presse&#45;239</title>
<path fill="none" stroke="black" d="M710.2,-790C761.35,-790 827.59,-790 876.94,-790"/>
<polygon fill="black" stroke="black" points="876.63,-793.5 886.63,-790 876.63,-786.5 876.63,-793.5"/>
<text text-anchor="middle" x="767.27" y="-793.8" font-family="Times,serif" font-size="14.00">possède 100%</text>
</g>
<!-- groupe&#45;nrco&#45;237&#45;&gt;la&#45;republique&#45;du&#45;centre&#45;236 -->
<g id="edge5" class="edge">
<title>groupe&#45;nrco&#45;237&#45;&gt;la&#45;republique&#45;du&#45;centre&#45;236</title>
<path fill="none" stroke="black" d="M706.46,-774.95C713.65,-773.58 720.84,-772.24 727.77,-771 770.6,-763.33 818.3,-755.6 858.21,-749.37"/>
<polygon fill="black" stroke="black" points="858.68,-752.84 868.02,-747.84 857.6,-745.92 858.68,-752.84"/>
<text text-anchor="middle" x="767.27" y="-774.8" font-family="Times,serif" font-size="14.00">possède 30%</text>
</g>
<!-- nouvelle&#45;republique&#45;du&#45;centre&#45;238 -->
<g id="node7" class="node">
<title>nouvelle&#45;republique&#45;du&#45;centre&#45;238</title>
<ellipse fill="none" stroke="black" cx="947.6" cy="-898" rx="122.68" ry="18"/>
<text text-anchor="middle" x="947.6" y="-894.3" font-family="Times,serif" font-size="14.00">Nouvelle République du Centre</text>
</g>
<!-- groupe&#45;nrco&#45;237&#45;&gt;nouvelle&#45;republique&#45;du&#45;centre&#45;238 -->
<g id="edge6" class="edge">
<title>groupe&#45;nrco&#45;237&#45;&gt;nouvelle&#45;republique&#45;du&#45;centre&#45;238</title>
<path fill="none" stroke="black" d="M656.28,-804.35C675.31,-815.26 702.69,-830.18 727.77,-841 769.04,-858.81 817.16,-872.09 857.75,-881.33"/>
<polygon fill="black" stroke="black" points="856.99,-884.74 867.52,-883.5 858.51,-877.91 856.99,-884.74"/>
<text text-anchor="middle" x="767.27" y="-870.8" font-family="Times,serif" font-size="14.00">possède 100%</text>
</g>
<!-- tv&#45;tours&#45;240 -->
<g id="node8" class="node">
<title>tv&#45;tours&#45;240</title>
<ellipse fill="none" stroke="black" cx="947.6" cy="-844" rx="44.69" ry="18"/>
<text text-anchor="middle" x="947.6" y="-840.3" font-family="Times,serif" font-size="14.00">TV Tours</text>
</g>
<!-- groupe&#45;nrco&#45;237&#45;&gt;tv&#45;tours&#45;240 -->
<g id="edge7" class="edge">
<title>groupe&#45;nrco&#45;237&#45;&gt;tv&#45;tours&#45;240</title>
<path fill="none" stroke="black" d="M682.15,-800.31C696.83,-803.23 712.92,-806.34 727.77,-809 784.43,-819.15 849.62,-829.39 894.01,-836.15"/>
<polygon fill="black" stroke="black" points="893.48,-839.61 903.89,-837.65 894.53,-832.69 893.48,-839.61"/>
<text text-anchor="middle" x="767.27" y="-825.8" font-family="Times,serif" font-size="14.00">possède 40%</text>
</g>
</g>
</svg>
