<?xml version="1.0" encoding="UTF-8" standalone="no"?>
<!DOCTYPE svg PUBLIC "-//W3C//DTD SVG 1.1//EN"
 "http://www.w3.org/Graphics/SVG/1.1/DTD/svg11.dtd">
<!-- Generated by graphviz version 8.1.0 (20230707.0739)
 -->
<!-- Pages: 1 -->
<svg width="1121pt" height="940pt"
 viewBox="0.00 0.00 1120.56 940.00" xmlns="http://www.w3.org/2000/svg" xmlns:xlink="http://www.w3.org/1999/xlink">
<g id="graph0" class="graph" transform="scale(1 1) rotate(0) translate(4 936)">
<polygon fill="white" stroke="none" points="-4,4 -4,-936 1116.56,-936 1116.56,4 -4,4"/>
<g id="clust2" class="cluster">
<title>clusterLeaves</title>
<polygon fill="none" stroke="black" points="831.29,-8 831.29,-924 1104.56,-924 1104.56,-8 831.29,-8"/>
</g>
<!-- fondation&#45;varenne&#45;220 -->
<g id="node1" class="node">
<title>fondation&#45;varenne&#45;220</title>
<polygon fill="none" stroke="black" points="118,-429 0,-429 0,-393 118,-393 118,-429"/>
<text text-anchor="middle" x="59" y="-405.95" font-family="Times,serif" font-size="14.00">Fondation Varenne</text>
</g>
<!-- groupe&#45;la&#45;montagne&#45;222 -->
<g id="node2" class="node">
<title>groupe&#45;la&#45;montagne&#45;222</title>
<polygon fill="none" stroke="black" points="451.64,-416.56 338.82,-429 226,-416.56 226.11,-396.44 451.53,-396.44 451.64,-416.56"/>
<text text-anchor="middle" x="338.82" y="-405.95" font-family="Times,serif" font-size="14.00">Groupe La Montagne</text>
</g>
<!-- fondation&#45;varenne&#45;220&#45;&gt;groupe&#45;la&#45;montagne&#45;222 -->
<g id="edge1" class="edge">
<title>fondation&#45;varenne&#45;220&#45;&gt;groupe&#45;la&#45;montagne&#45;222</title>
<path fill="none" stroke="black" d="M118.24,-411C146.38,-411 181.28,-411 214.91,-411"/>
<polygon fill="black" stroke="black" points="214.78,-414.5 224.78,-411 214.78,-407.5 214.78,-414.5"/>
<text text-anchor="middle" x="172" y="-414.2" font-family="Times,serif" font-size="14.00">possède 50%</text>
</g>
<!-- groupe&#45;nrco&#45;237 -->
<g id="node3" class="node">
<title>groupe&#45;nrco&#45;237</title>
<polygon fill="none" stroke="black" points="724.54,-807.56 642.09,-820 559.64,-807.56 559.71,-787.44 724.47,-787.44 724.54,-807.56"/>
<text text-anchor="middle" x="642.09" y="-796.95" font-family="Times,serif" font-size="14.00">Groupe NRCO</text>
</g>
<!-- groupe&#45;la&#45;montagne&#45;222&#45;&gt;groupe&#45;nrco&#45;237 -->
<g id="edge3" class="edge">
<title>groupe&#45;la&#45;montagne&#45;222&#45;&gt;groupe&#45;nrco&#45;237</title>
<path fill="none" stroke="black" d="M341.62,-429C348.07,-484.09 374.97,-652.16 469.64,-743 491.38,-763.87 520.85,-777.38 549.21,-786.12"/>
<polygon fill="black" stroke="black" points="548.02,-789.7 558.59,-789.12 549.96,-782.98 548.02,-789.7"/>
<text text-anchor="middle" x="505.64" y="-786.2" font-family="Times,serif" font-size="14.00">possède 16%</text>
</g>
<!-- courrier&#45;du&#45;loiret&#45;229 -->
<g id="node4" class="node">
<title>courrier&#45;du&#45;loiret&#45;229</title>
<ellipse fill="none" stroke="black" cx="967.93" cy="-682" rx="78.99" ry="18"/>
<text text-anchor="middle" x="967.93" y="-676.95" font-family="Times,serif" font-size="14.00">Courrier du Loiret</text>
</g>
<!-- groupe&#45;la&#45;montagne&#45;222&#45;&gt;courrier&#45;du&#45;loiret&#45;229 -->
<g id="edge2" class="edge">
<title>groupe&#45;la&#45;montagne&#45;222&#45;&gt;courrier&#45;du&#45;loiret&#45;229</title>
<path fill="none" stroke="black" d="M349.99,-427.96C377.34,-471.7 457.33,-588.08 559.64,-633 662.87,-678.33 794.18,-686.33 879.37,-685.84"/>
<polygon fill="black" stroke="black" points="879.33,-689.33 889.29,-685.73 879.26,-682.33 879.33,-689.33"/>
<text text-anchor="middle" x="642.09" y="-678.2" font-family="Times,serif" font-size="14.00">possède 100%</text>
</g>
<!-- la&#45;republique&#45;du&#45;centre&#45;236 -->
<g id="node6" class="node">
<title>la&#45;republique&#45;du&#45;centre&#45;236</title>
<ellipse fill="none" stroke="black" cx="967.93" cy="-736" rx="104.58" ry="18"/>
<text text-anchor="middle" x="967.93" y="-730.95" font-family="Times,serif" font-size="14.00">La République du Centre</text>
</g>
<!-- groupe&#45;la&#45;montagne&#45;222&#45;&gt;la&#45;republique&#45;du&#45;centre&#45;236 -->
<g id="edge15" class="edge">
<title>groupe&#45;la&#45;montagne&#45;222&#45;&gt;la&#45;republique&#45;du&#45;centre&#45;236</title>
<path fill="none" stroke="black" d="M346.38,-428.5C367.45,-481.68 439.08,-641.09 559.64,-696 655.19,-739.52 776.14,-746.12 861.33,-743.93"/>
<polygon fill="black" stroke="black" points="861.43,-747.4 871.32,-743.59 861.22,-740.4 861.43,-747.4"/>
<text text-anchor="middle" x="642.09" y="-740.2" font-family="Times,serif" font-size="14.00">possède 70%</text>
</g>
<!-- journal&#45;de&#45;gien&#45;235 -->
<g id="node9" class="node">
<title>journal&#45;de&#45;gien&#45;235</title>
<ellipse fill="none" stroke="black" cx="967.93" cy="-628" rx="69.78" ry="18"/>
<text text-anchor="middle" x="967.93" y="-622.95" font-family="Times,serif" font-size="14.00">Journal de Gien</text>
</g>
<!-- groupe&#45;la&#45;montagne&#45;222&#45;&gt;journal&#45;de&#45;gien&#45;235 -->
<g id="edge8" class="edge">
<title>groupe&#45;la&#45;montagne&#45;222&#45;&gt;journal&#45;de&#45;gien&#45;235</title>
<path fill="none" stroke="black" d="M356.23,-427.52C390.54,-460.9 473.77,-536.09 559.64,-570 667.67,-612.66 802.8,-624.53 887.01,-627.51"/>
<polygon fill="black" stroke="black" points="886.68,-631.03 896.79,-627.85 886.9,-624.03 886.68,-631.03"/>
<text text-anchor="middle" x="642.09" y="-615.2" font-family="Times,serif" font-size="14.00">possède 100%</text>
</g>
<!-- l&#45;echo&#45;charitois&#45;232 -->
<g id="node10" class="node">
<title>l&#45;echo&#45;charitois&#45;232</title>
<ellipse fill="none" stroke="black" cx="967.93" cy="-574" rx="74.38" ry="18"/>
<text text-anchor="middle" x="967.93" y="-568.95" font-family="Times,serif" font-size="14.00">L’Echo Charitois</text>
</g>
<!-- groupe&#45;la&#45;montagne&#45;222&#45;&gt;l&#45;echo&#45;charitois&#45;232 -->
<g id="edge9" class="edge">
<title>groupe&#45;la&#45;montagne&#45;222&#45;&gt;l&#45;echo&#45;charitois&#45;232</title>
<path fill="none" stroke="black" d="M365.89,-426.3C406.07,-449.17 486.19,-491.9 559.64,-514 669.19,-546.96 800.97,-562.16 884.36,-568.92"/>
<polygon fill="black" stroke="black" points="884.05,-572.49 894.29,-569.78 884.6,-565.51 884.05,-572.49"/>
<text text-anchor="middle" x="642.09" y="-552.2" font-family="Times,serif" font-size="14.00">possède 100%</text>
</g>
<!-- l&#45;echo&#45;republicain&#45;228 -->
<g id="node11" class="node">
<title>l&#45;echo&#45;republicain&#45;228</title>
<ellipse fill="none" stroke="black" cx="967.93" cy="-520" rx="85.13" ry="18"/>
<text text-anchor="middle" x="967.93" y="-514.95" font-family="Times,serif" font-size="14.00">L’Echo Républicain</text>
</g>
<!-- groupe&#45;la&#45;montagne&#45;222&#45;&gt;l&#45;echo&#45;republicain&#45;228 -->
<g id="edge10" class="edge">
<title>groupe&#45;la&#45;montagne&#45;222&#45;&gt;l&#45;echo&#45;republicain&#45;228</title>
<path fill="none" stroke="black" d="M384.49,-424.36C428.63,-437.14 498.28,-456.18 559.64,-468 668.33,-488.94 795.01,-503.61 877.87,-511.91"/>
<polygon fill="black" stroke="black" points="877.46,-515.49 887.76,-512.99 878.16,-508.52 877.46,-515.49"/>
<text text-anchor="middle" x="642.09" y="-496.2" font-family="Times,serif" font-size="14.00">possède 100%</text>
</g>
<!-- l&#45;eclaireur&#45;du&#45;gatinais&#45;230 -->
<g id="node12" class="node">
<title>l&#45;eclaireur&#45;du&#45;gatinais&#45;230</title>
<ellipse fill="none" stroke="black" cx="967.93" cy="-466" rx="97.93" ry="18"/>
<text text-anchor="middle" x="967.93" y="-460.95" font-family="Times,serif" font-size="14.00">L’Eclaireur du Gâtinais</text>
</g>
<!-- groupe&#45;la&#45;montagne&#45;222&#45;&gt;l&#45;eclaireur&#45;du&#45;gatinais&#45;230 -->
<g id="edge11" class="edge">
<title>groupe&#45;la&#45;montagne&#45;222&#45;&gt;l&#45;eclaireur&#45;du&#45;gatinais&#45;230</title>
<path fill="none" stroke="black" d="M419.07,-420.6C435.76,-422.5 453.27,-424.4 469.64,-426 606.25,-439.38 764.29,-451.52 864.88,-458.83"/>
<polygon fill="black" stroke="black" points="864.42,-462.38 874.64,-459.61 864.92,-455.4 864.42,-462.38"/>
<text text-anchor="middle" x="642.09" y="-451.2" font-family="Times,serif" font-size="14.00">possède 100%</text>
</g>
<!-- l&#45;yonne&#45;republicaine&#45;227 -->
<g id="node13" class="node">
<title>l&#45;yonne&#45;republicaine&#45;227</title>
<ellipse fill="none" stroke="black" cx="967.93" cy="-412" rx="94.34" ry="18"/>
<text text-anchor="middle" x="967.93" y="-406.95" font-family="Times,serif" font-size="14.00">L’Yonne Républicaine</text>
</g>
<!-- groupe&#45;la&#45;montagne&#45;222&#45;&gt;l&#45;yonne&#45;republicaine&#45;227 -->
<g id="edge12" class="edge">
<title>groupe&#45;la&#45;montagne&#45;222&#45;&gt;l&#45;yonne&#45;republicaine&#45;227</title>
<path fill="none" stroke="black" d="M451.93,-411.18C568.31,-411.36 748.9,-411.65 862.4,-411.83"/>
<polygon fill="black" stroke="black" points="862.16,-415.33 872.17,-411.85 862.17,-408.33 862.16,-415.33"/>
<text text-anchor="middle" x="642.09" y="-415.2" font-family="Times,serif" font-size="14.00">possède 100%</text>
</g>
<!-- la&#45;liberte&#45;234 -->
<g id="node14" class="node">
<title>la&#45;liberte&#45;234</title>
<ellipse fill="none" stroke="black" cx="967.93" cy="-358" rx="49.82" ry="18"/>
<text text-anchor="middle" x="967.93" y="-352.95" font-family="Times,serif" font-size="14.00">La Liberté</text>
</g>
<!-- groupe&#45;la&#45;montagne&#45;222&#45;&gt;la&#45;liberte&#45;234 -->
<g id="edge13" class="edge">
<title>groupe&#45;la&#45;montagne&#45;222&#45;&gt;la&#45;liberte&#45;234</title>
<path fill="none" stroke="black" d="M451.92,-400.92C486.46,-397.85 524.61,-394.49 559.64,-391.5 683.7,-380.9 829.07,-369.09 908.23,-362.71"/>
<polygon fill="black" stroke="black" points="908.27,-366.14 917.95,-361.85 907.71,-359.16 908.27,-366.14"/>
<text text-anchor="middle" x="642.09" y="-395.2" font-family="Times,serif" font-size="14.00">possède 100%</text>
</g>
<!-- la&#45;montagne&#45;223 -->
<g id="node15" class="node">
<title>la&#45;montagne&#45;223</title>
<ellipse fill="none" stroke="black" cx="967.93" cy="-304" rx="61.08" ry="18"/>
<text text-anchor="middle" x="967.93" y="-298.95" font-family="Times,serif" font-size="14.00">La Montagne</text>
</g>
<!-- groupe&#45;la&#45;montagne&#45;222&#45;&gt;la&#45;montagne&#45;223 -->
<g id="edge14" class="edge">
<title>groupe&#45;la&#45;montagne&#45;222&#45;&gt;la&#45;montagne&#45;223</title>
<path fill="none" stroke="black" d="M394.12,-396.05C438.39,-384.28 502.69,-368.14 559.64,-357.5 678.06,-335.38 817.53,-319.16 898.71,-310.68"/>
<polygon fill="black" stroke="black" points="898.7,-314.1 908.29,-309.59 897.98,-307.14 898.7,-314.1"/>
<text text-anchor="middle" x="642.09" y="-361.2" font-family="Times,serif" font-size="14.00">possède 100%</text>
</g>
<!-- le&#45;berry&#45;republicain&#45;226 -->
<g id="node16" class="node">
<title>le&#45;berry&#45;republicain&#45;226</title>
<ellipse fill="none" stroke="black" cx="967.93" cy="-250" rx="88.2" ry="18"/>
<text text-anchor="middle" x="967.93" y="-244.95" font-family="Times,serif" font-size="14.00">Le Berry républicain</text>
</g>
<!-- groupe&#45;la&#45;montagne&#45;222&#45;&gt;le&#45;berry&#45;republicain&#45;226 -->
<g id="edge16" class="edge">
<title>groupe&#45;la&#45;montagne&#45;222&#45;&gt;le&#45;berry&#45;republicain&#45;226</title>
<path fill="none" stroke="black" d="M366.31,-396.1C406.71,-374.06 486.73,-333.06 559.64,-311.5 664.59,-280.47 789.62,-264.56 873.21,-256.78"/>
<polygon fill="black" stroke="black" points="873.32,-260.2 882.96,-255.81 872.68,-253.23 873.32,-260.2"/>
<text text-anchor="middle" x="642.09" y="-315.2" font-family="Times,serif" font-size="14.00">possède 100%</text>
</g>
<!-- le&#45;journal&#45;du&#45;centre&#45;225 -->
<g id="node17" class="node">
<title>le&#45;journal&#45;du&#45;centre&#45;225</title>
<ellipse fill="none" stroke="black" cx="967.93" cy="-196" rx="87.18" ry="18"/>
<text text-anchor="middle" x="967.93" y="-190.95" font-family="Times,serif" font-size="14.00">Le Journal du centre</text>
</g>
<!-- groupe&#45;la&#45;montagne&#45;222&#45;&gt;le&#45;journal&#45;du&#45;centre&#45;225 -->
<g id="edge17" class="edge">
<title>groupe&#45;la&#45;montagne&#45;222&#45;&gt;le&#45;journal&#45;du&#45;centre&#45;225</title>
<path fill="none" stroke="black" d="M355,-396.08C388.58,-364.12 473.04,-289.28 559.64,-256.5 661.31,-218.01 785.93,-203.9 870.34,-198.78"/>
<polygon fill="black" stroke="black" points="870.42,-202.23 880.2,-198.16 870.02,-195.24 870.42,-202.23"/>
<text text-anchor="middle" x="642.09" y="-260.2" font-family="Times,serif" font-size="14.00">possède 100%</text>
</g>
<!-- le&#45;populaire&#45;du&#45;centre&#45;224 -->
<g id="node18" class="node">
<title>le&#45;populaire&#45;du&#45;centre&#45;224</title>
<ellipse fill="none" stroke="black" cx="967.93" cy="-142" rx="95.37" ry="18"/>
<text text-anchor="middle" x="967.93" y="-136.95" font-family="Times,serif" font-size="14.00">Le Populaire du centre</text>
</g>
<!-- groupe&#45;la&#45;montagne&#45;222&#45;&gt;le&#45;populaire&#45;du&#45;centre&#45;224 -->
<g id="edge18" class="edge">
<title>groupe&#45;la&#45;montagne&#45;222&#45;&gt;le&#45;populaire&#45;du&#45;centre&#45;224</title>
<path fill="none" stroke="black" d="M348.82,-396.01C374.98,-354.14 455.77,-236.26 559.64,-194.5 657.07,-155.33 777.22,-143.85 861.68,-141.17"/>
<polygon fill="black" stroke="black" points="861.68,-144.64 871.58,-140.87 861.49,-137.65 861.68,-144.64"/>
<text text-anchor="middle" x="642.09" y="-198.2" font-family="Times,serif" font-size="14.00">possède 100%</text>
</g>
<!-- pays&#45;roannais&#45;233 -->
<g id="node19" class="node">
<title>pays&#45;roannais&#45;233</title>
<ellipse fill="none" stroke="black" cx="967.93" cy="-88" rx="65.17" ry="18"/>
<text text-anchor="middle" x="967.93" y="-82.95" font-family="Times,serif" font-size="14.00">Pays Roannais</text>
</g>
<!-- groupe&#45;la&#45;montagne&#45;222&#45;&gt;pays&#45;roannais&#45;233 -->
<g id="edge19" class="edge">
<title>groupe&#45;la&#45;montagne&#45;222&#45;&gt;pays&#45;roannais&#45;233</title>
<path fill="none" stroke="black" d="M345.34,-396.03C364.91,-345.58 436.51,-182.3 559.64,-133.5 669.62,-89.9 808.57,-83.75 892.45,-84.78"/>
<polygon fill="black" stroke="black" points="892.35,-88.3 902.4,-84.97 892.46,-81.3 892.35,-88.3"/>
<text text-anchor="middle" x="642.09" y="-137.2" font-family="Times,serif" font-size="14.00">possède 100%</text>
</g>
<!-- regional&#45;de&#45;cosne&#45;231 -->
<g id="node20" class="node">
<title>regional&#45;de&#45;cosne&#45;231</title>
<ellipse fill="none" stroke="black" cx="967.93" cy="-34" rx="81.04" ry="18"/>
<text text-anchor="middle" x="967.93" y="-28.95" font-family="Times,serif" font-size="14.00">Régional de Cosne</text>
</g>
<!-- groupe&#45;la&#45;montagne&#45;222&#45;&gt;regional&#45;de&#45;cosne&#45;231 -->
<g id="edge20" class="edge">
<title>groupe&#45;la&#45;montagne&#45;222&#45;&gt;regional&#45;de&#45;cosne&#45;231</title>
<path fill="none" stroke="black" d="M343.12,-396.12C356.89,-338.24 415.99,-128.65 559.64,-74.5 663.79,-35.24 792.96,-28.86 877.55,-29.82"/>
<polygon fill="black" stroke="black" points="877.36,-33.34 887.41,-29.99 877.47,-26.34 877.36,-33.34"/>
<text text-anchor="middle" x="642.09" y="-78.2" font-family="Times,serif" font-size="14.00">possède 100%</text>
</g>
<!-- centre&#45;presse&#45;239 -->
<g id="node5" class="node">
<title>centre&#45;presse&#45;239</title>
<ellipse fill="none" stroke="black" cx="967.93" cy="-790" rx="61.59" ry="18"/>
<text text-anchor="middle" x="967.93" y="-784.95" font-family="Times,serif" font-size="14.00">Centre Presse</text>
</g>
<!-- groupe&#45;nrco&#45;237&#45;&gt;centre&#45;presse&#45;239 -->
<g id="edge4" class="edge">
<title>groupe&#45;nrco&#45;237&#45;&gt;centre&#45;presse&#45;239</title>
<path fill="none" stroke="black" d="M724.81,-798.97C777.44,-797.02 845.19,-794.51 895.64,-792.64"/>
<polygon fill="black" stroke="black" points="895.59,-796.11 905.45,-792.24 895.33,-789.11 895.59,-796.11"/>
<text text-anchor="middle" x="781.92" y="-801.2" font-family="Times,serif" font-size="14.00">possède 100%</text>
</g>
<!-- groupe&#45;nrco&#45;237&#45;&gt;la&#45;republique&#45;du&#45;centre&#45;236 -->
<g id="edge5" class="edge">
<title>groupe&#45;nrco&#45;237&#45;&gt;la&#45;republique&#45;du&#45;centre&#45;236</title>
<path fill="none" stroke="black" d="M693.69,-786.96C709.28,-782.61 726.55,-778.07 742.54,-774.5 786.19,-764.75 835.08,-756.1 876.06,-749.48"/>
<polygon fill="black" stroke="black" points="876.52,-752.79 885.85,-747.75 875.42,-745.87 876.52,-752.79"/>
<text text-anchor="middle" x="781.92" y="-777.2" font-family="Times,serif" font-size="14.00">possède 30%</text>
</g>
<!-- nouvelle&#45;republique&#45;du&#45;centre&#45;238 -->
<g id="node7" class="node">
<title>nouvelle&#45;republique&#45;du&#45;centre&#45;238</title>
<ellipse fill="none" stroke="black" cx="967.93" cy="-898" rx="128.63" ry="18"/>
<text text-anchor="middle" x="967.93" y="-892.95" font-family="Times,serif" font-size="14.00">Nouvelle République du Centre</text>
</g>
<!-- groupe&#45;nrco&#45;237&#45;&gt;nouvelle&#45;republique&#45;du&#45;centre&#45;238 -->
<g id="edge6" class="edge">
<title>groupe&#45;nrco&#45;237&#45;&gt;nouvelle&#45;republique&#45;du&#45;centre&#45;238</title>
<path fill="none" stroke="black" d="M669.49,-816.25C689.19,-826.43 717,-839.9 742.54,-849 783.32,-863.53 829.85,-874.54 869.94,-882.41"/>
<polygon fill="black" stroke="black" points="869.04,-886 879.52,-884.45 870.36,-879.12 869.04,-886"/>
<text text-anchor="middle" x="781.92" y="-874.2" font-family="Times,serif" font-size="14.00">possède 100%</text>
</g>
<!-- tv&#45;tours&#45;240 -->
<g id="node8" class="node">
<title>tv&#45;tours&#45;240</title>
<ellipse fill="none" stroke="black" cx="967.93" cy="-844" rx="46.75" ry="18"/>
<text text-anchor="middle" x="967.93" y="-838.95" font-family="Times,serif" font-size="14.00">TV Tours</text>
</g>
<!-- groupe&#45;nrco&#45;237&#45;&gt;tv&#45;tours&#45;240 -->
<g id="edge7" class="edge">
<title>groupe&#45;nrco&#45;237&#45;&gt;tv&#45;tours&#45;240</title>
<path fill="none" stroke="black" d="M698.24,-812.02C712.63,-814.47 728.15,-816.97 742.54,-819 799.91,-827.09 865.84,-834.17 911.31,-838.71"/>
<polygon fill="black" stroke="black" points="910.83,-842.28 921.13,-839.79 911.52,-835.32 910.83,-842.28"/>
<text text-anchor="middle" x="781.92" y="-831.2" font-family="Times,serif" font-size="14.00">possède 40%</text>
</g>
</g>
</svg>
