<?xml version="1.0" encoding="UTF-8" standalone="no"?>
<!DOCTYPE svg PUBLIC "-//W3C//DTD SVG 1.1//EN"
 "http://www.w3.org/Graphics/SVG/1.1/DTD/svg11.dtd">
<!-- Generated by graphviz version 7.1.0 (20230121.1956)
 -->
<!-- Pages: 1 -->
<svg width="1103pt" height="76pt"
 viewBox="0.00 0.00 1102.54 76.00" xmlns="http://www.w3.org/2000/svg" xmlns:xlink="http://www.w3.org/1999/xlink">
<g id="graph0" class="graph" transform="scale(1 1) rotate(0) translate(4 72)">
<polygon fill="white" stroke="none" points="-4,4 -4,-72 1098.54,-72 1098.54,4 -4,4"/>
<g id="clust2" class="cluster">
<title>clusterLeaves</title>
<polygon fill="none" stroke="black" points="975.65,-8 975.65,-60 1086.54,-60 1086.54,-8 975.65,-8"/>
</g>
<!-- patrick&#45;drahi&#45;56 -->
<g id="node1" class="node">
<title>patrick&#45;drahi&#45;56</title>
<polygon fill="none" stroke="black" points="104,-52 0,-52 0,-16 104,-16 104,-52"/>
<text text-anchor="middle" x="52" y="-30.3" font-family="Times,serif" font-size="14.00">🧑‍💼Patrick Drahi</text>
</g>
<!-- altice&#45;57 -->
<g id="node2" class="node">
<title>altice&#45;57</title>
<polygon fill="none" stroke="black" points="293.51,-39.56 253.17,-52 212.83,-39.56 212.87,-19.44 293.47,-19.44 293.51,-39.56"/>
<text text-anchor="middle" x="253.17" y="-30.3" font-family="Times,serif" font-size="14.00">Altice</text>
</g>
<!-- patrick&#45;drahi&#45;56&#45;&gt;altice&#45;57 -->
<g id="edge2" class="edge">
<title>patrick&#45;drahi&#45;56&#45;&gt;altice&#45;57</title>
<path fill="none" stroke="black" d="M104.29,-34C134,-34 171.28,-34 200.98,-34"/>
<polygon fill="black" stroke="black" points="200.85,-37.5 210.85,-34 200.85,-30.5 200.85,-37.5"/>
<text text-anchor="middle" x="158.5" y="-37.8" font-family="Times,serif" font-size="14.00">possède 61%</text>
</g>
<!-- patrick&#45;drahi&#45;56&#45;&gt;altice&#45;57 -->
<g id="edge4" class="edge">
<title>patrick&#45;drahi&#45;56&#45;&gt;altice&#45;57</title>
<path fill="none" stroke="black" d="M104.3,-18.25C110.22,-16.92 116.21,-15.78 122,-15 154.15,-10.65 162.97,-9.82 195,-15 197.17,-15.35 199.37,-15.77 201.57,-16.25"/>
<polygon fill="black" stroke="black" points="200.58,-19.61 211.13,-18.67 202.3,-12.82 200.58,-19.61"/>
<text text-anchor="middle" x="158.5" y="-18.8" font-family="Times,serif" font-size="14.00">possède 61%</text>
</g>
<!-- fonds&#45;de&#45;dotation&#45;pour&#45;une&#45;presse&#45;independante&#45;329 -->
<g id="node3" class="node">
<title>fonds&#45;de&#45;dotation&#45;pour&#45;une&#45;presse&#45;independante&#45;329</title>
<polygon fill="none" stroke="black" points="866.81,-39.56 638.5,-52 410.18,-39.56 410.39,-19.44 866.6,-19.44 866.81,-39.56"/>
<text text-anchor="middle" x="638.5" y="-30.3" font-family="Times,serif" font-size="14.00">Fonds de Dotation pour une Presse Indépendante</text>
</g>
<!-- altice&#45;57&#45;&gt;fonds&#45;de&#45;dotation&#45;pour&#45;une&#45;presse&#45;independante&#45;329 -->
<g id="edge1" class="edge">
<title>altice&#45;57&#45;&gt;fonds&#45;de&#45;dotation&#45;pour&#45;une&#45;presse&#45;independante&#45;329</title>
<path fill="none" stroke="black" d="M293.75,-34C320.32,-34 357.79,-34 398.28,-34"/>
<polygon fill="black" stroke="black" points="398.26,-37.5 408.26,-34 398.26,-30.5 398.26,-37.5"/>
<text text-anchor="middle" x="351.84" y="-37.8" font-family="Times,serif" font-size="14.00">contrôle 100%</text>
</g>
<!-- altice&#45;57&#45;&gt;fonds&#45;de&#45;dotation&#45;pour&#45;une&#45;presse&#45;independante&#45;329 -->
<g id="edge3" class="edge">
<title>altice&#45;57&#45;&gt;fonds&#45;de&#45;dotation&#45;pour&#45;une&#45;presse&#45;independante&#45;329</title>
<path fill="none" stroke="black" d="M293.74,-19.04C299.57,-17.37 305.56,-15.94 311.34,-15 388.09,-2.58 476.15,-8.91 541.41,-17.47"/>
<polygon fill="black" stroke="black" points="540.63,-20.89 551.01,-18.77 541.57,-13.96 540.63,-20.89"/>
<text text-anchor="middle" x="351.84" y="-18.8" font-family="Times,serif" font-size="14.00">contrôle 100%</text>
</g>
<!-- liberation&#45;60 -->
<g id="node4" class="node">
<title>liberation&#45;60</title>
<ellipse fill="none" stroke="black" cx="1031.1" cy="-34" rx="47.39" ry="18"/>
<text text-anchor="middle" x="1031.1" y="-30.3" font-family="Times,serif" font-size="14.00">Libération</text>
</g>
<!-- fonds&#45;de&#45;dotation&#45;pour&#45;une&#45;presse&#45;independante&#45;329&#45;&gt;liberation&#45;60 -->
<g id="edge5" class="edge">
<title>fonds&#45;de&#45;dotation&#45;pour&#45;une&#45;presse&#45;independante&#45;329&#45;&gt;liberation&#45;60</title>
<path fill="none" stroke="black" d="M866.99,-34C905.88,-34 943.02,-34 972.01,-34"/>
<polygon fill="black" stroke="black" points="972,-37.5 982,-34 972,-30.5 972,-37.5"/>
<text text-anchor="middle" x="925.15" y="-37.8" font-family="Times,serif" font-size="14.00">contrôle 100%</text>
</g>
</g>
</svg>
