<?xml version="1.0" encoding="UTF-8" standalone="no"?>
<!DOCTYPE svg PUBLIC "-//W3C//DTD SVG 1.1//EN"
 "http://www.w3.org/Graphics/SVG/1.1/DTD/svg11.dtd">
<!-- Generated by graphviz version 7.1.0 (20230121.1956)
 -->
<!-- Pages: 1 -->
<svg width="664pt" height="76pt"
 viewBox="0.00 0.00 664.49 76.00" xmlns="http://www.w3.org/2000/svg" xmlns:xlink="http://www.w3.org/1999/xlink">
<g id="graph0" class="graph" transform="scale(1 1) rotate(0) translate(4 72)">
<polygon fill="white" stroke="none" points="-4,4 -4,-72 660.49,-72 660.49,4 -4,4"/>
<g id="clust2" class="cluster">
<title>clusterLeaves</title>
<polygon fill="none" stroke="black" points="496,-8 496,-60 648.49,-60 648.49,-8 496,-8"/>
</g>
<!-- republique&#45;francaise&#45;128 -->
<g id="node1" class="node">
<title>republique&#45;francaise&#45;128</title>
<polygon fill="none" stroke="black" points="131,-52 0,-52 0,-16 131,-16 131,-52"/>
<text text-anchor="middle" x="65.5" y="-30.3" font-family="Times,serif" font-size="14.00">République française</text>
</g>
<!-- radio&#45;france&#45;135 -->
<g id="node2" class="node">
<title>radio&#45;france&#45;135</title>
<polygon fill="none" stroke="black" points="389,-39.56 317.5,-52 246,-39.56 246.07,-19.44 388.93,-19.44 389,-39.56"/>
<text text-anchor="middle" x="317.5" y="-30.3" font-family="Times,serif" font-size="14.00">Radio France</text>
</g>
<!-- republique&#45;francaise&#45;128&#45;&gt;radio&#45;france&#45;135 -->
<g id="edge2" class="edge">
<title>republique&#45;francaise&#45;128&#45;&gt;radio&#45;france&#45;135</title>
<path fill="none" stroke="black" d="M131.21,-34C162.79,-34 201.13,-34 234.72,-34"/>
<polygon fill="black" stroke="black" points="234.4,-37.5 244.4,-34 234.4,-30.5 234.4,-37.5"/>
<text text-anchor="middle" x="188.5" y="-37.8" font-family="Times,serif" font-size="14.00">possède 100%</text>
</g>
<!-- france&#45;musique&#45;148 -->
<g id="node3" class="node">
<title>france&#45;musique&#45;148</title>
<ellipse fill="none" stroke="black" cx="572.24" cy="-34" rx="68.49" ry="18"/>
<text text-anchor="middle" x="572.24" y="-30.3" font-family="Times,serif" font-size="14.00">France Musique</text>
</g>
<!-- radio&#45;france&#45;135&#45;&gt;france&#45;musique&#45;148 -->
<g id="edge1" class="edge">
<title>radio&#45;france&#45;135&#45;&gt;france&#45;musique&#45;148</title>
<path fill="none" stroke="black" d="M389.24,-34C421.24,-34 459.2,-34 492.14,-34"/>
<polygon fill="black" stroke="black" points="492.06,-37.5 502.06,-34 492.06,-30.5 492.06,-37.5"/>
<text text-anchor="middle" x="446.5" y="-37.8" font-family="Times,serif" font-size="14.00">possède 100%</text>
</g>
</g>
</svg>
