<?xml version="1.0" encoding="UTF-8" standalone="no"?>
<!DOCTYPE svg PUBLIC "-//W3C//DTD SVG 1.1//EN"
 "http://www.w3.org/Graphics/SVG/1.1/DTD/svg11.dtd">
<!-- Generated by graphviz version 8.1.0 (20230707.0739)
 -->
<!-- Pages: 1 -->
<svg width="684pt" height="111pt"
 viewBox="0.00 0.00 683.78 111.00" xmlns="http://www.w3.org/2000/svg" xmlns:xlink="http://www.w3.org/1999/xlink">
<g id="graph0" class="graph" transform="scale(1 1) rotate(0) translate(4 107)">
<polygon fill="white" stroke="none" points="-4,4 -4,-107 679.78,-107 679.78,4 -4,4"/>
<g id="clust2" class="cluster">
<title>clusterLeaves</title>
<polygon fill="none" stroke="black" points="543.96,-19 543.96,-71 667.78,-71 667.78,-19 543.96,-19"/>
</g>
<!-- republique&#45;francaise&#45;128 -->
<g id="node1" class="node">
<title>republique&#45;francaise&#45;128</title>
<polygon fill="none" stroke="black" points="130.75,-63 0,-63 0,-27 130.75,-27 130.75,-63"/>
<text text-anchor="middle" x="65.38" y="-39.95" font-family="Times,serif" font-size="14.00">République française</text>
</g>
<!-- france&#45;television&#45;134 -->
<g id="node2" class="node">
<title>france&#45;television&#45;134</title>
<polygon fill="none" stroke="black" points="435.71,-90.56 340.61,-103 245.5,-90.56 245.59,-70.44 435.62,-70.44 435.71,-90.56"/>
<text text-anchor="middle" x="340.61" y="-79.95" font-family="Times,serif" font-size="14.00">France Télévision</text>
</g>
<!-- republique&#45;francaise&#45;128&#45;&gt;france&#45;television&#45;134 -->
<g id="edge2" class="edge">
<title>republique&#45;francaise&#45;128&#45;&gt;france&#45;television&#45;134</title>
<path fill="none" stroke="black" d="M131.13,-54.48C162.02,-59 199.76,-64.53 234.6,-69.63"/>
<polygon fill="black" stroke="black" points="233.91,-73.21 244.31,-71.2 234.92,-66.28 233.91,-73.21"/>
<text text-anchor="middle" x="188.12" y="-71.2" font-family="Times,serif" font-size="14.00">possède 100%</text>
</g>
<!-- radio&#45;france&#45;135 -->
<g id="node3" class="node">
<title>radio&#45;france&#45;135</title>
<polygon fill="none" stroke="black" points="415.47,-23.56 340.61,-36 265.74,-23.56 265.81,-3.44 415.4,-3.44 415.47,-23.56"/>
<text text-anchor="middle" x="340.61" y="-12.95" font-family="Times,serif" font-size="14.00">Radio France</text>
</g>
<!-- republique&#45;francaise&#45;128&#45;&gt;radio&#45;france&#45;135 -->
<g id="edge4" class="edge">
<title>republique&#45;francaise&#45;128&#45;&gt;radio&#45;france&#45;135</title>
<path fill="none" stroke="black" d="M131.13,-38.6C169.66,-34.79 218.86,-29.93 259.78,-25.89"/>
<polygon fill="black" stroke="black" points="259.93,-29.29 269.54,-24.82 259.25,-22.33 259.93,-29.29"/>
<text text-anchor="middle" x="188.12" y="-39.2" font-family="Times,serif" font-size="14.00">possède 100%</text>
</g>
<!-- republique&#45;francaise&#45;128&#45;&gt;radio&#45;france&#45;135 -->
<g id="edge6" class="edge">
<title>republique&#45;francaise&#45;128&#45;&gt;radio&#45;france&#45;135</title>
<path fill="none" stroke="black" d="M99.37,-26.6C114.02,-19.43 131.76,-12.09 148.75,-8.5 183.02,-1.25 221.48,-1.59 254.85,-4.5"/>
<polygon fill="black" stroke="black" points="254.2,-8.05 264.49,-5.53 254.88,-1.09 254.2,-8.05"/>
<text text-anchor="middle" x="188.12" y="-11.2" font-family="Times,serif" font-size="14.00">possède 100%</text>
</g>
<!-- france&#45;info&#45;152 -->
<g id="node4" class="node">
<title>france&#45;info&#45;152</title>
<ellipse fill="none" stroke="black" cx="605.87" cy="-45" rx="53.91" ry="18"/>
<text text-anchor="middle" x="605.87" y="-39.95" font-family="Times,serif" font-size="14.00">France Info</text>
</g>
<!-- france&#45;television&#45;134&#45;&gt;france&#45;info&#45;152 -->
<g id="edge1" class="edge">
<title>france&#45;television&#45;134&#45;&gt;france&#45;info&#45;152</title>
<path fill="none" stroke="black" d="M435.65,-72.6C466.96,-68.26 502,-63.17 533.96,-58 538.41,-57.28 543.01,-56.51 547.63,-55.71"/>
<polygon fill="black" stroke="black" points="548.14,-58.99 557.38,-53.81 546.93,-52.1 548.14,-58.99"/>
<text text-anchor="middle" x="493.84" y="-72.2" font-family="Times,serif" font-size="14.00">contrôle 100%</text>
</g>
<!-- radio&#45;france&#45;135&#45;&gt;france&#45;info&#45;152 -->
<g id="edge3" class="edge">
<title>radio&#45;france&#45;135&#45;&gt;france&#45;info&#45;152</title>
<path fill="none" stroke="black" d="M409.75,-24.99C451.05,-29.22 503.33,-34.59 543.38,-38.69"/>
<polygon fill="black" stroke="black" points="542.76,-42.25 553.07,-39.79 543.48,-35.29 542.76,-42.25"/>
<text text-anchor="middle" x="493.84" y="-40.2" font-family="Times,serif" font-size="14.00">contrôle 100%</text>
</g>
<!-- radio&#45;france&#45;135&#45;&gt;france&#45;info&#45;152 -->
<g id="edge5" class="edge">
<title>radio&#45;france&#45;135&#45;&gt;france&#45;info&#45;152</title>
<path fill="none" stroke="black" d="M415.6,-4.6C451.75,-0.5 495.62,0.79 533.96,-8.5 546.66,-11.58 559.63,-17.34 570.95,-23.4"/>
<polygon fill="black" stroke="black" points="568.99,-26.88 579.42,-28.74 572.42,-20.78 568.99,-26.88"/>
<text text-anchor="middle" x="493.84" y="-11.2" font-family="Times,serif" font-size="14.00">possède 100%</text>
</g>
</g>
</svg>
