<?xml version="1.0" encoding="UTF-8" standalone="no"?>
<!DOCTYPE svg PUBLIC "-//W3C//DTD SVG 1.1//EN"
 "http://www.w3.org/Graphics/SVG/1.1/DTD/svg11.dtd">
<!-- Generated by graphviz version 8.1.0 (20230707.0739)
 -->
<!-- Pages: 1 -->
<svg width="646pt" height="76pt"
 viewBox="0.00 0.00 645.89 76.00" xmlns="http://www.w3.org/2000/svg" xmlns:xlink="http://www.w3.org/1999/xlink">
<g id="graph0" class="graph" transform="scale(1 1) rotate(0) translate(4 72)">
<polygon fill="white" stroke="none" points="-4,4 -4,-72 641.89,-72 641.89,4 -4,4"/>
<g id="clust2" class="cluster">
<title>clusterLeaves</title>
<polygon fill="none" stroke="black" points="501.97,-8 501.97,-60 629.89,-60 629.89,-8 501.97,-8"/>
</g>
<!-- republique&#45;francaise&#45;128 -->
<g id="node1" class="node">
<title>republique&#45;francaise&#45;128</title>
<polygon fill="none" stroke="black" points="130.75,-52 0,-52 0,-16 130.75,-16 130.75,-52"/>
<text text-anchor="middle" x="65.38" y="-28.95" font-family="Times,serif" font-size="14.00">République française</text>
</g>
<!-- radio&#45;france&#45;135 -->
<g id="node2" class="node">
<title>radio&#45;france&#45;135</title>
<polygon fill="none" stroke="black" points="395.22,-39.56 320.36,-52 245.5,-39.56 245.57,-19.44 395.15,-19.44 395.22,-39.56"/>
<text text-anchor="middle" x="320.36" y="-28.95" font-family="Times,serif" font-size="14.00">Radio France</text>
</g>
<!-- republique&#45;francaise&#45;128&#45;&gt;radio&#45;france&#45;135 -->
<g id="edge2" class="edge">
<title>republique&#45;francaise&#45;128&#45;&gt;radio&#45;france&#45;135</title>
<path fill="none" stroke="black" d="M131.2,-34C162.64,-34 200.81,-34 234.53,-34"/>
<polygon fill="black" stroke="black" points="234.31,-37.5 244.31,-34 234.31,-30.5 234.31,-37.5"/>
<text text-anchor="middle" x="188.12" y="-37.2" font-family="Times,serif" font-size="14.00">possède 100%</text>
</g>
<!-- france&#45;inter&#45;147 -->
<g id="node3" class="node">
<title>france&#45;inter&#45;147</title>
<ellipse fill="none" stroke="black" cx="565.93" cy="-34" rx="55.96" ry="18"/>
<text text-anchor="middle" x="565.93" y="-28.95" font-family="Times,serif" font-size="14.00">France Inter</text>
</g>
<!-- radio&#45;france&#45;135&#45;&gt;france&#45;inter&#45;147 -->
<g id="edge1" class="edge">
<title>radio&#45;france&#45;135&#45;&gt;france&#45;inter&#45;147</title>
<path fill="none" stroke="black" d="M395.43,-34C428.5,-34 467.15,-34 499.18,-34"/>
<polygon fill="black" stroke="black" points="498.77,-37.5 508.77,-34 498.77,-30.5 498.77,-37.5"/>
<text text-anchor="middle" x="452.6" y="-37.2" font-family="Times,serif" font-size="14.00">possède 100%</text>
</g>
</g>
</svg>
