<?xml version="1.0" encoding="UTF-8" standalone="no"?>
<!DOCTYPE svg PUBLIC "-//W3C//DTD SVG 1.1//EN"
 "http://www.w3.org/Graphics/SVG/1.1/DTD/svg11.dtd">
<!-- Generated by graphviz version 7.1.0 (20230121.1956)
 -->
<!-- Pages: 1 -->
<svg width="650pt" height="76pt"
 viewBox="0.00 0.00 649.75 76.00" xmlns="http://www.w3.org/2000/svg" xmlns:xlink="http://www.w3.org/1999/xlink">
<g id="graph0" class="graph" transform="scale(1 1) rotate(0) translate(4 72)">
<polygon fill="white" stroke="none" points="-4,4 -4,-72 645.75,-72 645.75,4 -4,4"/>
<g id="clust2" class="cluster">
<title>clusterLeaves</title>
<polygon fill="none" stroke="black" points="534.56,-8 534.56,-60 633.75,-60 633.75,-8 534.56,-8"/>
</g>
<!-- republique&#45;francaise&#45;128 -->
<g id="node1" class="node">
<title>republique&#45;francaise&#45;128</title>
<polygon fill="none" stroke="black" points="131,-52 0,-52 0,-16 131,-16 131,-52"/>
<text text-anchor="middle" x="65.5" y="-30.3" font-family="Times,serif" font-size="14.00">République française</text>
</g>
<!-- france&#45;television&#45;134 -->
<g id="node2" class="node">
<title>france&#45;television&#45;134</title>
<polygon fill="none" stroke="black" points="427.34,-39.56 336.78,-52 246.22,-39.56 246.3,-19.44 427.26,-19.44 427.34,-39.56"/>
<text text-anchor="middle" x="336.78" y="-30.3" font-family="Times,serif" font-size="14.00">France Télévision</text>
</g>
<!-- republique&#45;francaise&#45;128&#45;&gt;france&#45;television&#45;134 -->
<g id="edge2" class="edge">
<title>republique&#45;francaise&#45;128&#45;&gt;france&#45;television&#45;134</title>
<path fill="none" stroke="black" d="M131.34,-34C162.31,-34 200.08,-34 234.69,-34"/>
<polygon fill="black" stroke="black" points="234.29,-37.5 244.29,-34 234.29,-30.5 234.29,-37.5"/>
<text text-anchor="middle" x="188.5" y="-37.8" font-family="Times,serif" font-size="14.00">possède 100%</text>
</g>
<!-- france&#45;5&#45;143 -->
<g id="node3" class="node">
<title>france&#45;5&#45;143</title>
<ellipse fill="none" stroke="black" cx="584.16" cy="-34" rx="41.69" ry="18"/>
<text text-anchor="middle" x="584.16" y="-30.3" font-family="Times,serif" font-size="14.00">France 5</text>
</g>
<!-- france&#45;television&#45;134&#45;&gt;france&#45;5&#45;143 -->
<g id="edge1" class="edge">
<title>france&#45;television&#45;134&#45;&gt;france&#45;5&#45;143</title>
<path fill="none" stroke="black" d="M427.76,-34C462.41,-34 500.82,-34 530.79,-34"/>
<polygon fill="black" stroke="black" points="530.73,-37.5 540.73,-34 530.73,-30.5 530.73,-37.5"/>
<text text-anchor="middle" x="485.06" y="-37.8" font-family="Times,serif" font-size="14.00">possède 100%</text>
</g>
</g>
</svg>
