<?xml version="1.0" encoding="UTF-8" standalone="no"?>
<!DOCTYPE svg PUBLIC "-//W3C//DTD SVG 1.1//EN"
 "http://www.w3.org/Graphics/SVG/1.1/DTD/svg11.dtd">
<!-- Generated by graphviz version 8.1.0 (20230707.0739)
 -->
<!-- Pages: 1 -->
<svg width="941pt" height="76pt"
 viewBox="0.00 0.00 940.81 76.00" xmlns="http://www.w3.org/2000/svg" xmlns:xlink="http://www.w3.org/1999/xlink">
<g id="graph0" class="graph" transform="scale(1 1) rotate(0) translate(4 72)">
<polygon fill="white" stroke="none" points="-4,4 -4,-72 936.81,-72 936.81,4 -4,4"/>
<g id="clust2" class="cluster">
<title>clusterLeaves</title>
<polygon fill="none" stroke="black" points="750.83,-8 750.83,-60 924.81,-60 924.81,-8 750.83,-8"/>
</g>
<!-- vincent&#45;bollore&#45;77 -->
<g id="node1" class="node">
<title>vincent&#45;bollore&#45;77</title>
<polygon fill="none" stroke="black" points="117.25,-52 0,-52 0,-16 117.25,-16 117.25,-52"/>
<text text-anchor="middle" x="58.62" y="-30.07" font-family="Times,serif" font-size="14.00">🧑‍💼Vincent Bolloré</text>
</g>
<!-- financiere&#45;de&#45;l&#45;odet&#45;78 -->
<g id="node3" class="node">
<title>financiere&#45;de&#45;l&#45;odet&#45;78</title>
<polygon fill="none" stroke="black" points="440.77,-39.56 333.01,-52 225.25,-39.56 225.35,-19.44 440.67,-19.44 440.77,-39.56"/>
<text text-anchor="middle" x="333.01" y="-28.95" font-family="Times,serif" font-size="14.00">Financière de l’Odet</text>
</g>
<!-- vincent&#45;bollore&#45;77&#45;&gt;financiere&#45;de&#45;l&#45;odet&#45;78 -->
<g id="edge3" class="edge">
<title>vincent&#45;bollore&#45;77&#45;&gt;financiere&#45;de&#45;l&#45;odet&#45;78</title>
<path fill="none" stroke="black" d="M117.72,-34C145.85,-34 180.69,-34 214.04,-34"/>
<polygon fill="black" stroke="black" points="213.81,-37.5 223.81,-34 213.81,-30.5 213.81,-37.5"/>
<text text-anchor="middle" x="171.25" y="-37.2" font-family="Times,serif" font-size="14.00">possède 49%</text>
</g>
<!-- bollore&#45;79 -->
<g id="node2" class="node">
<title>bollore&#45;79</title>
<polygon fill="none" stroke="black" points="644.08,-39.56 596.42,-52 548.77,-39.56 548.81,-19.44 644.04,-19.44 644.08,-39.56"/>
<text text-anchor="middle" x="596.42" y="-28.95" font-family="Times,serif" font-size="14.00">Bolloré</text>
</g>
<!-- france&#45;catholique&#45;345 -->
<g id="node4" class="node">
<title>france&#45;catholique&#45;345</title>
<ellipse fill="none" stroke="black" cx="837.82" cy="-34" rx="78.99" ry="18"/>
<text text-anchor="middle" x="837.82" y="-28.95" font-family="Times,serif" font-size="14.00">France Catholique</text>
</g>
<!-- bollore&#45;79&#45;&gt;france&#45;catholique&#45;345 -->
<g id="edge1" class="edge">
<title>bollore&#45;79&#45;&gt;france&#45;catholique&#45;345</title>
<path fill="none" stroke="black" d="M644.44,-34C673.81,-34 712.57,-34 747.61,-34"/>
<polygon fill="black" stroke="black" points="747.34,-37.5 757.34,-34 747.34,-30.5 747.34,-37.5"/>
<text text-anchor="middle" x="701.46" y="-37.2" font-family="Times,serif" font-size="14.00">possède 100%</text>
</g>
<!-- financiere&#45;de&#45;l&#45;odet&#45;78&#45;&gt;bollore&#45;79 -->
<g id="edge2" class="edge">
<title>financiere&#45;de&#45;l&#45;odet&#45;78&#45;&gt;bollore&#45;79</title>
<path fill="none" stroke="black" d="M441.09,-34C474.08,-34 509.14,-34 537.5,-34"/>
<polygon fill="black" stroke="black" points="537.41,-37.5 547.41,-34 537.41,-30.5 537.41,-37.5"/>
<text text-anchor="middle" x="494.77" y="-37.2" font-family="Times,serif" font-size="14.00">possède 64%</text>
</g>
</g>
</svg>
