<?xml version="1.0" encoding="UTF-8" standalone="no"?>
<!DOCTYPE svg PUBLIC "-//W3C//DTD SVG 1.1//EN"
 "http://www.w3.org/Graphics/SVG/1.1/DTD/svg11.dtd">
<!-- Generated by graphviz version 7.1.0 (20230121.1956)
 -->
<!-- Pages: 1 -->
<svg width="923pt" height="76pt"
 viewBox="0.00 0.00 923.03 76.00" xmlns="http://www.w3.org/2000/svg" xmlns:xlink="http://www.w3.org/1999/xlink">
<g id="graph0" class="graph" transform="scale(1 1) rotate(0) translate(4 72)">
<polygon fill="white" stroke="none" points="-4,4 -4,-72 919.03,-72 919.03,4 -4,4"/>
<g id="clust2" class="cluster">
<title>clusterLeaves</title>
<polygon fill="none" stroke="black" points="740.25,-8 740.25,-60 907.03,-60 907.03,-8 740.25,-8"/>
</g>
<!-- vincent&#45;bollore&#45;77 -->
<g id="node1" class="node">
<title>vincent&#45;bollore&#45;77</title>
<polygon fill="none" stroke="black" points="118,-52 0,-52 0,-16 118,-16 118,-52"/>
<text text-anchor="middle" x="59" y="-30.3" font-family="Times,serif" font-size="14.00">🧑‍💼Vincent Bolloré</text>
</g>
<!-- financiere&#45;de&#45;l&#45;odet&#45;78 -->
<g id="node3" class="node">
<title>financiere&#45;de&#45;l&#45;odet&#45;78</title>
<polygon fill="none" stroke="black" points="432.5,-39.56 329.83,-52 227.17,-39.56 227.26,-19.44 432.4,-19.44 432.5,-39.56"/>
<text text-anchor="middle" x="329.83" y="-30.3" font-family="Times,serif" font-size="14.00">Financière de l’Odet</text>
</g>
<!-- vincent&#45;bollore&#45;77&#45;&gt;financiere&#45;de&#45;l&#45;odet&#45;78 -->
<g id="edge3" class="edge">
<title>vincent&#45;bollore&#45;77&#45;&gt;financiere&#45;de&#45;l&#45;odet&#45;78</title>
<path fill="none" stroke="black" d="M118.33,-34C146.84,-34 182.16,-34 215.68,-34"/>
<polygon fill="black" stroke="black" points="215.45,-37.5 225.45,-34 215.45,-30.5 215.45,-37.5"/>
<text text-anchor="middle" x="172.5" y="-37.8" font-family="Times,serif" font-size="14.00">possède 49%</text>
</g>
<!-- bollore&#45;79 -->
<g id="node2" class="node">
<title>bollore&#45;79</title>
<polygon fill="none" stroke="black" points="633.04,-39.56 587.46,-52 541.87,-39.56 541.91,-19.44 633,-19.44 633.04,-39.56"/>
<text text-anchor="middle" x="587.46" y="-30.3" font-family="Times,serif" font-size="14.00">Bolloré</text>
</g>
<!-- france&#45;catholique&#45;345 -->
<g id="node4" class="node">
<title>france&#45;catholique&#45;345</title>
<ellipse fill="none" stroke="black" cx="823.64" cy="-34" rx="75.29" ry="18"/>
<text text-anchor="middle" x="823.64" y="-30.3" font-family="Times,serif" font-size="14.00">France Catholique</text>
</g>
<!-- bollore&#45;79&#45;&gt;france&#45;catholique&#45;345 -->
<g id="edge1" class="edge">
<title>bollore&#45;79&#45;&gt;france&#45;catholique&#45;345</title>
<path fill="none" stroke="black" d="M633.33,-34C662.57,-34 701.67,-34 736.74,-34"/>
<polygon fill="black" stroke="black" points="736.46,-37.5 746.46,-34 736.46,-30.5 736.46,-37.5"/>
<text text-anchor="middle" x="690.75" y="-37.8" font-family="Times,serif" font-size="14.00">possède 100%</text>
</g>
<!-- financiere&#45;de&#45;l&#45;odet&#45;78&#45;&gt;bollore&#45;79 -->
<g id="edge2" class="edge">
<title>financiere&#45;de&#45;l&#45;odet&#45;78&#45;&gt;bollore&#45;79</title>
<path fill="none" stroke="black" d="M432.96,-34C466.09,-34 501.61,-34 530.13,-34"/>
<polygon fill="black" stroke="black" points="529.98,-37.5 539.98,-34 529.98,-30.5 529.98,-37.5"/>
<text text-anchor="middle" x="487.16" y="-37.8" font-family="Times,serif" font-size="14.00">possède 64%</text>
</g>
</g>
</svg>
