<?xml version="1.0" encoding="UTF-8" standalone="no"?>
<!DOCTYPE svg PUBLIC "-//W3C//DTD SVG 1.1//EN"
 "http://www.w3.org/Graphics/SVG/1.1/DTD/svg11.dtd">
<!-- Generated by graphviz version 8.1.0 (20230707.0739)
 -->
<!-- Pages: 1 -->
<svg width="941pt" height="130pt"
 viewBox="0.00 0.00 941.50 130.00" xmlns="http://www.w3.org/2000/svg" xmlns:xlink="http://www.w3.org/1999/xlink">
<g id="graph0" class="graph" transform="scale(1 1) rotate(0) translate(4 126)">
<polygon fill="white" stroke="none" points="-4,4 -4,-126 937.5,-126 937.5,4 -4,4"/>
<g id="clust2" class="cluster">
<title>clusterLeaves</title>
<polygon fill="none" stroke="black" points="794.51,-8 794.51,-114 925.5,-114 925.5,-8 794.51,-8"/>
</g>
<!-- francois&#45;pinault&#45;95 -->
<g id="node1" class="node">
<title>francois&#45;pinault&#45;95</title>
<polygon fill="none" stroke="black" points="118.75,-68 0,-68 0,-32 118.75,-32 118.75,-68"/>
<text text-anchor="middle" x="59.38" y="-46.08" font-family="Times,serif" font-size="14.00">🧑‍💼François Pinault</text>
</g>
<!-- artemis&#45;96 -->
<g id="node2" class="node">
<title>artemis&#45;96</title>
<polygon fill="none" stroke="black" points="328.39,-55.56 277.57,-68 226.75,-55.56 226.8,-35.44 328.35,-35.44 328.39,-55.56"/>
<text text-anchor="middle" x="277.57" y="-44.95" font-family="Times,serif" font-size="14.00">Artémis</text>
</g>
<!-- francois&#45;pinault&#45;95&#45;&gt;artemis&#45;96 -->
<g id="edge1" class="edge">
<title>francois&#45;pinault&#45;95&#45;&gt;artemis&#45;96</title>
<path fill="none" stroke="black" d="M119.17,-50C149.12,-50 185.51,-50 215.75,-50"/>
<polygon fill="black" stroke="black" points="215.59,-53.5 225.59,-50 215.59,-46.5 215.59,-53.5"/>
<text text-anchor="middle" x="172.75" y="-53.2" font-family="Times,serif" font-size="14.00">possède 57%</text>
</g>
<!-- groupe&#45;sebdo&#45;le&#45;point&#45;97 -->
<g id="node3" class="node">
<title>groupe&#45;sebdo&#45;le&#45;point&#45;97</title>
<polygon fill="none" stroke="black" points="687.76,-92.56 565.45,-105 443.14,-92.56 443.26,-72.44 687.65,-72.44 687.76,-92.56"/>
<text text-anchor="middle" x="565.45" y="-81.95" font-family="Times,serif" font-size="14.00">Groupe Sebdo&#45;Le Point</text>
</g>
<!-- artemis&#45;96&#45;&gt;groupe&#45;sebdo&#45;le&#45;point&#45;97 -->
<g id="edge2" class="edge">
<title>artemis&#45;96&#45;&gt;groupe&#45;sebdo&#45;le&#45;point&#45;97</title>
<path fill="none" stroke="black" d="M327.39,-56.32C357.85,-60.26 398.57,-65.53 437.66,-70.59"/>
<polygon fill="black" stroke="black" points="436.99,-74.16 447.36,-71.98 437.89,-67.22 436.99,-74.16"/>
<text text-anchor="middle" x="385.77" y="-71.2" font-family="Times,serif" font-size="14.00">possède 100%</text>
</g>
<!-- point&#45;de&#45;vue&#45;99 -->
<g id="node5" class="node">
<title>point&#45;de&#45;vue&#45;99</title>
<ellipse fill="none" stroke="black" cx="860" cy="-34" rx="57.49" ry="18"/>
<text text-anchor="middle" x="860" y="-28.95" font-family="Times,serif" font-size="14.00">Point de vue</text>
</g>
<!-- artemis&#45;96&#45;&gt;point&#45;de&#45;vue&#45;99 -->
<g id="edge4" class="edge">
<title>artemis&#45;96&#45;&gt;point&#45;de&#45;vue&#45;99</title>
<path fill="none" stroke="black" d="M328.62,-47.81C361.23,-46.43 404.7,-44.7 443.14,-43.5 565.81,-39.68 708.87,-36.74 791.2,-35.2"/>
<polygon fill="black" stroke="black" points="791.22,-38.68 801.16,-35 791.09,-31.69 791.22,-38.68"/>
<text text-anchor="middle" x="565.45" y="-46.2" font-family="Times,serif" font-size="14.00">possède 100%</text>
</g>
<!-- le&#45;point&#45;100 -->
<g id="node4" class="node">
<title>le&#45;point&#45;100</title>
<ellipse fill="none" stroke="black" cx="860" cy="-88" rx="42.65" ry="18"/>
<text text-anchor="middle" x="860" y="-82.95" font-family="Times,serif" font-size="14.00">Le Point</text>
</g>
<!-- groupe&#45;sebdo&#45;le&#45;point&#45;97&#45;&gt;le&#45;point&#45;100 -->
<g id="edge3" class="edge">
<title>groupe&#45;sebdo&#45;le&#45;point&#45;97&#45;&gt;le&#45;point&#45;100</title>
<path fill="none" stroke="black" d="M687.98,-87.42C729.3,-87.56 773.34,-87.71 806.38,-87.82"/>
<polygon fill="black" stroke="black" points="806.13,-91.32 816.15,-87.86 806.16,-84.32 806.13,-91.32"/>
<text text-anchor="middle" x="745.13" y="-90.2" font-family="Times,serif" font-size="14.00">possède 100%</text>
</g>
</g>
</svg>
