<?xml version="1.0" encoding="UTF-8" standalone="no"?>
<!DOCTYPE svg PUBLIC "-//W3C//DTD SVG 1.1//EN"
 "http://www.w3.org/Graphics/SVG/1.1/DTD/svg11.dtd">
<!-- Generated by graphviz version 8.1.0 (20230707.0739)
 -->
<!-- Pages: 1 -->
<svg width="716pt" height="76pt"
 viewBox="0.00 0.00 715.55 76.00" xmlns="http://www.w3.org/2000/svg" xmlns:xlink="http://www.w3.org/1999/xlink">
<g id="graph0" class="graph" transform="scale(1 1) rotate(0) translate(4 72)">
<polygon fill="white" stroke="none" points="-4,4 -4,-72 711.55,-72 711.55,4 -4,4"/>
<g id="clust2" class="cluster">
<title>clusterLeaves</title>
<polygon fill="none" stroke="black" points="588.01,-8 588.01,-60 699.55,-60 699.55,-8 588.01,-8"/>
</g>
<!-- republique&#45;francaise&#45;128 -->
<g id="node1" class="node">
<title>republique&#45;francaise&#45;128</title>
<polygon fill="none" stroke="black" points="130.75,-52 0,-52 0,-16 130.75,-16 130.75,-52"/>
<text text-anchor="middle" x="65.38" y="-28.95" font-family="Times,serif" font-size="14.00">République française</text>
</g>
<!-- france&#45;medias&#45;monde&#45;133 -->
<g id="node2" class="node">
<title>france&#45;medias&#45;monde&#45;133</title>
<polygon fill="none" stroke="black" points="481.26,-39.56 363.38,-52 245.5,-39.56 245.61,-19.44 481.15,-19.44 481.26,-39.56"/>
<text text-anchor="middle" x="363.38" y="-28.95" font-family="Times,serif" font-size="14.00">France Médias Monde</text>
</g>
<!-- republique&#45;francaise&#45;128&#45;&gt;france&#45;medias&#45;monde&#45;133 -->
<g id="edge2" class="edge">
<title>republique&#45;francaise&#45;128&#45;&gt;france&#45;medias&#45;monde&#45;133</title>
<path fill="none" stroke="black" d="M130.97,-34C161.39,-34 198.8,-34 234.59,-34"/>
<polygon fill="black" stroke="black" points="234.14,-37.5 244.14,-34 234.14,-30.5 234.14,-37.5"/>
<text text-anchor="middle" x="188.12" y="-37.2" font-family="Times,serif" font-size="14.00">possède 100%</text>
</g>
<!-- france&#45;24&#45;139 -->
<g id="node3" class="node">
<title>france&#45;24&#45;139</title>
<ellipse fill="none" stroke="black" cx="643.78" cy="-34" rx="47.77" ry="18"/>
<text text-anchor="middle" x="643.78" y="-28.95" font-family="Times,serif" font-size="14.00">France 24</text>
</g>
<!-- france&#45;medias&#45;monde&#45;133&#45;&gt;france&#45;24&#45;139 -->
<g id="edge1" class="edge">
<title>france&#45;medias&#45;monde&#45;133&#45;&gt;france&#45;24&#45;139</title>
<path fill="none" stroke="black" d="M481.64,-34C517.37,-34 555.09,-34 585.04,-34"/>
<polygon fill="black" stroke="black" points="584.7,-37.5 594.7,-34 584.7,-30.5 584.7,-37.5"/>
<text text-anchor="middle" x="538.63" y="-37.2" font-family="Times,serif" font-size="14.00">possède 100%</text>
</g>
</g>
</svg>
