<?xml version="1.0" encoding="UTF-8" standalone="no"?>
<!DOCTYPE svg PUBLIC "-//W3C//DTD SVG 1.1//EN"
 "http://www.w3.org/Graphics/SVG/1.1/DTD/svg11.dtd">
<!-- Generated by graphviz version 7.1.0 (20230121.1956)
 -->
<!-- Pages: 1 -->
<svg width="821pt" height="238pt"
 viewBox="0.00 0.00 820.53 238.00" xmlns="http://www.w3.org/2000/svg" xmlns:xlink="http://www.w3.org/1999/xlink">
<g id="graph0" class="graph" transform="scale(1 1) rotate(0) translate(4 234)">
<polygon fill="white" stroke="none" points="-4,4 -4,-234 816.53,-234 816.53,4 -4,4"/>
<g id="clust2" class="cluster">
<title>clusterLeaves</title>
<polygon fill="none" stroke="black" points="577.94,-8 577.94,-222 804.53,-222 804.53,-8 577.94,-8"/>
</g>
<!-- republique&#45;francaise&#45;128 -->
<g id="node1" class="node">
<title>republique&#45;francaise&#45;128</title>
<polygon fill="none" stroke="black" points="131,-129 0,-129 0,-93 131,-93 131,-129"/>
<text text-anchor="middle" x="65.5" y="-107.3" font-family="Times,serif" font-size="14.00">République française</text>
</g>
<!-- france&#45;medias&#45;monde&#45;133 -->
<g id="node2" class="node">
<title>france&#45;medias&#45;monde&#45;133</title>
<polygon fill="none" stroke="black" points="470.92,-116.56 358.47,-129 246.03,-116.56 246.13,-96.44 470.81,-96.44 470.92,-116.56"/>
<text text-anchor="middle" x="358.47" y="-107.3" font-family="Times,serif" font-size="14.00">France Médias Monde</text>
</g>
<!-- republique&#45;francaise&#45;128&#45;&gt;france&#45;medias&#45;monde&#45;133 -->
<g id="edge1" class="edge">
<title>republique&#45;francaise&#45;128&#45;&gt;france&#45;medias&#45;monde&#45;133</title>
<path fill="none" stroke="black" d="M131.44,-111C161.74,-111 198.85,-111 234.17,-111"/>
<polygon fill="black" stroke="black" points="234.06,-114.5 244.06,-111 234.06,-107.5 234.06,-114.5"/>
<text text-anchor="middle" x="188.5" y="-114.8" font-family="Times,serif" font-size="14.00">possède 100%</text>
</g>
<!-- france&#45;24&#45;139 -->
<g id="node3" class="node">
<title>france&#45;24&#45;139</title>
<ellipse fill="none" stroke="black" cx="691.24" cy="-196" rx="46.29" ry="18"/>
<text text-anchor="middle" x="691.24" y="-192.3" font-family="Times,serif" font-size="14.00">France 24</text>
</g>
<!-- france&#45;medias&#45;monde&#45;133&#45;&gt;france&#45;24&#45;139 -->
<g id="edge2" class="edge">
<title>france&#45;medias&#45;monde&#45;133&#45;&gt;france&#45;24&#45;139</title>
<path fill="none" stroke="black" d="M403.05,-124.45C428.08,-132.01 460.17,-141.43 488.94,-149 539.7,-162.36 598.16,-175.8 638.95,-184.86"/>
<polygon fill="black" stroke="black" points="637.97,-188.23 648.49,-186.97 639.48,-181.39 637.97,-188.23"/>
<text text-anchor="middle" x="528.44" y="-171.8" font-family="Times,serif" font-size="14.00">possède 100%</text>
</g>
<!-- monte&#45;carlo&#45;doualiya&#45;137 -->
<g id="node4" class="node">
<title>monte&#45;carlo&#45;doualiya&#45;137</title>
<ellipse fill="none" stroke="black" cx="691.24" cy="-142" rx="90.98" ry="18"/>
<text text-anchor="middle" x="691.24" y="-138.3" font-family="Times,serif" font-size="14.00">Monte Carlo Doualiya</text>
</g>
<!-- france&#45;medias&#45;monde&#45;133&#45;&gt;monte&#45;carlo&#45;doualiya&#45;137 -->
<g id="edge3" class="edge">
<title>france&#45;medias&#45;monde&#45;133&#45;&gt;monte&#45;carlo&#45;doualiya&#45;137</title>
<path fill="none" stroke="black" d="M449.42,-119.43C495.19,-123.72 550.77,-128.93 597,-133.26"/>
<polygon fill="black" stroke="black" points="596.45,-136.73 606.73,-134.17 597.1,-129.76 596.45,-136.73"/>
<text text-anchor="middle" x="528.44" y="-133.8" font-family="Times,serif" font-size="14.00">possède 100%</text>
</g>
<!-- radio&#45;france&#45;international&#45;138 -->
<g id="node5" class="node">
<title>radio&#45;france&#45;international&#45;138</title>
<ellipse fill="none" stroke="black" cx="691.24" cy="-88" rx="105.08" ry="18"/>
<text text-anchor="middle" x="691.24" y="-84.3" font-family="Times,serif" font-size="14.00">Radio France International</text>
</g>
<!-- france&#45;medias&#45;monde&#45;133&#45;&gt;radio&#45;france&#45;international&#45;138 -->
<g id="edge4" class="edge">
<title>france&#45;medias&#45;monde&#45;133&#45;&gt;radio&#45;france&#45;international&#45;138</title>
<path fill="none" stroke="black" d="M471.05,-102.29C477.1,-101.85 483.1,-101.41 488.94,-101 518.6,-98.9 550.73,-96.76 580.42,-94.84"/>
<polygon fill="black" stroke="black" points="580.41,-98.35 590.17,-94.21 579.96,-91.36 580.41,-98.35"/>
<text text-anchor="middle" x="528.44" y="-104.8" font-family="Times,serif" font-size="14.00">possède 100%</text>
</g>
<!-- tv5&#45;monde&#45;140 -->
<g id="node6" class="node">
<title>tv5&#45;monde&#45;140</title>
<ellipse fill="none" stroke="black" cx="691.24" cy="-34" rx="54.69" ry="18"/>
<text text-anchor="middle" x="691.24" y="-30.3" font-family="Times,serif" font-size="14.00">TV5 Monde</text>
</g>
<!-- france&#45;medias&#45;monde&#45;133&#45;&gt;tv5&#45;monde&#45;140 -->
<g id="edge5" class="edge">
<title>france&#45;medias&#45;monde&#45;133&#45;&gt;tv5&#45;monde&#45;140</title>
<path fill="none" stroke="black" d="M412.21,-96C435.63,-89.53 463.58,-82.07 488.94,-76 536.92,-64.52 591.75,-53.2 632.06,-45.2"/>
<polygon fill="black" stroke="black" points="632.67,-48.65 641.8,-43.28 631.32,-41.78 632.67,-48.65"/>
<text text-anchor="middle" x="528.44" y="-79.8" font-family="Times,serif" font-size="14.00">possède 13%</text>
</g>
</g>
</svg>
