<?xml version="1.0" encoding="UTF-8" standalone="no"?>
<!DOCTYPE svg PUBLIC "-//W3C//DTD SVG 1.1//EN"
 "http://www.w3.org/Graphics/SVG/1.1/DTD/svg11.dtd">
<!-- Generated by graphviz version 7.1.0 (20230121.1956)
 -->
<!-- Pages: 1 -->
<svg width="673pt" height="109pt"
 viewBox="0.00 0.00 672.55 109.00" xmlns="http://www.w3.org/2000/svg" xmlns:xlink="http://www.w3.org/1999/xlink">
<g id="graph0" class="graph" transform="scale(1 1) rotate(0) translate(4 105)">
<polygon fill="white" stroke="none" points="-4,4 -4,-105 668.55,-105 668.55,4 -4,4"/>
<g id="clust2" class="cluster">
<title>clusterLeaves</title>
<polygon fill="none" stroke="black" points="536.56,-19 536.56,-71 656.55,-71 656.55,-19 536.56,-19"/>
</g>
<!-- republique&#45;francaise&#45;128 -->
<g id="node1" class="node">
<title>republique&#45;francaise&#45;128</title>
<polygon fill="none" stroke="black" points="131,-63 0,-63 0,-27 131,-27 131,-63"/>
<text text-anchor="middle" x="65.5" y="-41.3" font-family="Times,serif" font-size="14.00">République française</text>
</g>
<!-- france&#45;television&#45;134 -->
<g id="node2" class="node">
<title>france&#45;television&#45;134</title>
<polygon fill="none" stroke="black" points="427.34,-88.56 336.78,-101 246.22,-88.56 246.3,-68.44 427.26,-68.44 427.34,-88.56"/>
<text text-anchor="middle" x="336.78" y="-79.3" font-family="Times,serif" font-size="14.00">France Télévision</text>
</g>
<!-- republique&#45;francaise&#45;128&#45;&gt;france&#45;television&#45;134 -->
<g id="edge2" class="edge">
<title>republique&#45;francaise&#45;128&#45;&gt;france&#45;television&#45;134</title>
<path fill="none" stroke="black" d="M131.34,-54.15C162.31,-58.52 200.08,-63.85 234.69,-68.73"/>
<polygon fill="black" stroke="black" points="233.92,-72.16 244.31,-70.09 234.89,-65.23 233.92,-72.16"/>
<text text-anchor="middle" x="188.5" y="-70.8" font-family="Times,serif" font-size="14.00">possède 100%</text>
</g>
<!-- radio&#45;france&#45;135 -->
<g id="node3" class="node">
<title>radio&#45;france&#45;135</title>
<polygon fill="none" stroke="black" points="408.28,-23.56 336.78,-36 265.28,-23.56 265.35,-3.44 408.21,-3.44 408.28,-23.56"/>
<text text-anchor="middle" x="336.78" y="-14.3" font-family="Times,serif" font-size="14.00">Radio France</text>
</g>
<!-- republique&#45;francaise&#45;128&#45;&gt;radio&#45;france&#45;135 -->
<g id="edge4" class="edge">
<title>republique&#45;francaise&#45;128&#45;&gt;radio&#45;france&#45;135</title>
<path fill="none" stroke="black" d="M131.34,-38.5C169.38,-34.68 217.7,-29.84 257.81,-25.82"/>
<polygon fill="black" stroke="black" points="258.05,-29.31 267.65,-24.83 257.36,-22.35 258.05,-29.31"/>
<text text-anchor="middle" x="188.5" y="-39.8" font-family="Times,serif" font-size="14.00">possède 100%</text>
</g>
<!-- republique&#45;francaise&#45;128&#45;&gt;radio&#45;france&#45;135 -->
<g id="edge6" class="edge">
<title>republique&#45;francaise&#45;128&#45;&gt;radio&#45;france&#45;135</title>
<path fill="none" stroke="black" d="M101.23,-26.6C115.6,-19.98 132.69,-13.32 149,-10 182.86,-3.12 220.85,-3.34 253.69,-5.95"/>
<polygon fill="black" stroke="black" points="253.3,-9.43 263.57,-6.83 253.92,-2.46 253.3,-9.43"/>
<text text-anchor="middle" x="188.5" y="-13.8" font-family="Times,serif" font-size="14.00">possède 100%</text>
</g>
<!-- france&#45;info&#45;152 -->
<g id="node4" class="node">
<title>france&#45;info&#45;152</title>
<ellipse fill="none" stroke="black" cx="596.56" cy="-45" rx="51.99" ry="18"/>
<text text-anchor="middle" x="596.56" y="-41.3" font-family="Times,serif" font-size="14.00">France Info</text>
</g>
<!-- france&#45;television&#45;134&#45;&gt;france&#45;info&#45;152 -->
<g id="edge1" class="edge">
<title>france&#45;television&#45;134&#45;&gt;france&#45;info&#45;152</title>
<path fill="none" stroke="black" d="M427.61,-70.45C458.94,-66 494.32,-60.88 526.56,-56 530.16,-55.46 533.86,-54.89 537.6,-54.31"/>
<polygon fill="black" stroke="black" points="537.98,-57.79 547.31,-52.79 536.89,-50.88 537.98,-57.79"/>
<text text-anchor="middle" x="486.06" y="-70.8" font-family="Times,serif" font-size="14.00">contrôle 100%</text>
</g>
<!-- radio&#45;france&#45;135&#45;&gt;france&#45;info&#45;152 -->
<g id="edge3" class="edge">
<title>radio&#45;france&#45;135&#45;&gt;france&#45;info&#45;152</title>
<path fill="none" stroke="black" d="M403.5,-24.88C443.95,-29.12 495.44,-34.51 534.93,-38.65"/>
<polygon fill="black" stroke="black" points="534.43,-42.12 544.74,-39.68 535.16,-35.15 534.43,-42.12"/>
<text text-anchor="middle" x="486.06" y="-40.8" font-family="Times,serif" font-size="14.00">contrôle 100%</text>
</g>
<!-- radio&#45;france&#45;135&#45;&gt;france&#45;info&#45;152 -->
<g id="edge5" class="edge">
<title>radio&#45;france&#45;135&#45;&gt;france&#45;info&#45;152</title>
<path fill="none" stroke="black" d="M408.59,-5.87C444.4,-2.03 488.28,-0.84 526.56,-10 538.44,-12.84 550.59,-18.08 561.31,-23.65"/>
<polygon fill="black" stroke="black" points="559.33,-26.56 569.78,-28.31 562.7,-20.42 559.33,-26.56"/>
<text text-anchor="middle" x="486.06" y="-13.8" font-family="Times,serif" font-size="14.00">possède 100%</text>
</g>
</g>
</svg>
