<?xml version="1.0" encoding="UTF-8" standalone="no"?>
<!DOCTYPE svg PUBLIC "-//W3C//DTD SVG 1.1//EN"
 "http://www.w3.org/Graphics/SVG/1.1/DTD/svg11.dtd">
<!-- Generated by graphviz version 7.1.0 (20230121.1956)
 -->
<!-- Pages: 1 -->
<svg width="925pt" height="130pt"
 viewBox="0.00 0.00 925.09 130.00" xmlns="http://www.w3.org/2000/svg" xmlns:xlink="http://www.w3.org/1999/xlink">
<g id="graph0" class="graph" transform="scale(1 1) rotate(0) translate(4 126)">
<polygon fill="white" stroke="none" points="-4,4 -4,-126 921.09,-126 921.09,4 -4,4"/>
<g id="clust2" class="cluster">
<title>clusterLeaves</title>
<polygon fill="none" stroke="black" points="782.6,-8 782.6,-114 909.09,-114 909.09,-8 782.6,-8"/>
</g>
<!-- francois&#45;pinault&#45;95 -->
<g id="node1" class="node">
<title>francois&#45;pinault&#45;95</title>
<polygon fill="none" stroke="black" points="119,-69 0,-69 0,-33 119,-33 119,-69"/>
<text text-anchor="middle" x="59.5" y="-47.3" font-family="Times,serif" font-size="14.00">🧑‍💼François Pinault</text>
</g>
<!-- artemis&#45;96 -->
<g id="node2" class="node">
<title>artemis&#45;96</title>
<polygon fill="none" stroke="black" points="326.02,-56.56 277.01,-69 227.99,-56.56 228.04,-36.44 325.97,-36.44 326.02,-56.56"/>
<text text-anchor="middle" x="277.01" y="-47.3" font-family="Times,serif" font-size="14.00">Artémis</text>
</g>
<!-- francois&#45;pinault&#45;95&#45;&gt;artemis&#45;96 -->
<g id="edge1" class="edge">
<title>francois&#45;pinault&#45;95&#45;&gt;artemis&#45;96</title>
<path fill="none" stroke="black" d="M119.39,-51C149.56,-51 186.21,-51 216.47,-51"/>
<polygon fill="black" stroke="black" points="216.21,-54.5 226.21,-51 216.21,-47.5 216.21,-54.5"/>
<text text-anchor="middle" x="173.5" y="-54.8" font-family="Times,serif" font-size="14.00">possède 57%</text>
</g>
<!-- groupe&#45;sebdo&#45;le&#45;point&#45;97 -->
<g id="node3" class="node">
<title>groupe&#45;sebdo&#45;le&#45;point&#45;97</title>
<polygon fill="none" stroke="black" points="675.39,-92.56 558.3,-105 441.22,-92.56 441.33,-72.44 675.28,-72.44 675.39,-92.56"/>
<text text-anchor="middle" x="558.3" y="-83.3" font-family="Times,serif" font-size="14.00">Groupe Sebdo&#45;Le Point</text>
</g>
<!-- artemis&#45;96&#45;&gt;groupe&#45;sebdo&#45;le&#45;point&#45;97 -->
<g id="edge2" class="edge">
<title>artemis&#45;96&#45;&gt;groupe&#45;sebdo&#45;le&#45;point&#45;97</title>
<path fill="none" stroke="black" d="M325.7,-57.15C354.56,-60.87 392.85,-65.8 429.96,-70.59"/>
<polygon fill="black" stroke="black" points="429.05,-74 439.41,-71.8 429.94,-67.05 429.05,-74"/>
<text text-anchor="middle" x="383.51" y="-72.8" font-family="Times,serif" font-size="14.00">possède 100%</text>
</g>
<!-- point&#45;de&#45;vue&#45;99 -->
<g id="node5" class="node">
<title>point&#45;de&#45;vue&#45;99</title>
<ellipse fill="none" stroke="black" cx="845.84" cy="-34" rx="55.49" ry="18"/>
<text text-anchor="middle" x="845.84" y="-30.3" font-family="Times,serif" font-size="14.00">Point de vue</text>
</g>
<!-- artemis&#45;96&#45;&gt;point&#45;de&#45;vue&#45;99 -->
<g id="edge4" class="edge">
<title>artemis&#45;96&#45;&gt;point&#45;de&#45;vue&#45;99</title>
<path fill="none" stroke="black" d="M326.15,-49.11C358.6,-47.86 402.38,-46.24 441.01,-45 560.11,-41.19 698.99,-37.59 778.94,-35.6"/>
<polygon fill="black" stroke="black" points="778.87,-39.1 788.78,-35.36 778.7,-32.11 778.87,-39.1"/>
<text text-anchor="middle" x="558.3" y="-48.8" font-family="Times,serif" font-size="14.00">possède 100%</text>
</g>
<!-- le&#45;point&#45;100 -->
<g id="node4" class="node">
<title>le&#45;point&#45;100</title>
<ellipse fill="none" stroke="black" cx="845.84" cy="-88" rx="40.89" ry="18"/>
<text text-anchor="middle" x="845.84" y="-84.3" font-family="Times,serif" font-size="14.00">Le Point</text>
</g>
<!-- groupe&#45;sebdo&#45;le&#45;point&#45;97&#45;&gt;le&#45;point&#45;100 -->
<g id="edge3" class="edge">
<title>groupe&#45;sebdo&#45;le&#45;point&#45;97&#45;&gt;le&#45;point&#45;100</title>
<path fill="none" stroke="black" d="M675.85,-87.41C716.82,-87.55 760.78,-87.71 793.58,-87.82"/>
<polygon fill="black" stroke="black" points="793.18,-91.32 803.19,-87.85 793.2,-84.32 793.18,-91.32"/>
<text text-anchor="middle" x="733.1" y="-90.8" font-family="Times,serif" font-size="14.00">possède 100%</text>
</g>
</g>
</svg>
