<?xml version="1.0" encoding="UTF-8" standalone="no"?>
<!DOCTYPE svg PUBLIC "-//W3C//DTD SVG 1.1//EN"
 "http://www.w3.org/Graphics/SVG/1.1/DTD/svg11.dtd">
<!-- Generated by graphviz version 8.1.0 (20230707.0739)
 -->
<!-- Pages: 1 -->
<svg width="661pt" height="76pt"
 viewBox="0.00 0.00 660.79 76.00" xmlns="http://www.w3.org/2000/svg" xmlns:xlink="http://www.w3.org/1999/xlink">
<g id="graph0" class="graph" transform="scale(1 1) rotate(0) translate(4 72)">
<polygon fill="white" stroke="none" points="-4,4 -4,-72 656.79,-72 656.79,4 -4,4"/>
<g id="clust2" class="cluster">
<title>clusterLeaves</title>
<polygon fill="none" stroke="black" points="542.46,-8 542.46,-60 644.79,-60 644.79,-8 542.46,-8"/>
</g>
<!-- republique&#45;francaise&#45;128 -->
<g id="node1" class="node">
<title>republique&#45;francaise&#45;128</title>
<polygon fill="none" stroke="black" points="130.75,-52 0,-52 0,-16 130.75,-16 130.75,-52"/>
<text text-anchor="middle" x="65.38" y="-28.95" font-family="Times,serif" font-size="14.00">République française</text>
</g>
<!-- france&#45;television&#45;134 -->
<g id="node2" class="node">
<title>france&#45;television&#45;134</title>
<polygon fill="none" stroke="black" points="435.71,-39.56 340.61,-52 245.5,-39.56 245.59,-19.44 435.62,-19.44 435.71,-39.56"/>
<text text-anchor="middle" x="340.61" y="-28.95" font-family="Times,serif" font-size="14.00">France Télévision</text>
</g>
<!-- republique&#45;francaise&#45;128&#45;&gt;france&#45;television&#45;134 -->
<g id="edge2" class="edge">
<title>republique&#45;francaise&#45;128&#45;&gt;france&#45;television&#45;134</title>
<path fill="none" stroke="black" d="M131.13,-34C161.95,-34 199.59,-34 234.36,-34"/>
<polygon fill="black" stroke="black" points="234.05,-37.5 244.05,-34 234.05,-30.5 234.05,-37.5"/>
<text text-anchor="middle" x="188.12" y="-37.2" font-family="Times,serif" font-size="14.00">possède 100%</text>
</g>
<!-- france&#45;5&#45;143 -->
<g id="node3" class="node">
<title>france&#45;5&#45;143</title>
<ellipse fill="none" stroke="black" cx="593.62" cy="-34" rx="43.16" ry="18"/>
<text text-anchor="middle" x="593.62" y="-28.95" font-family="Times,serif" font-size="14.00">France 5</text>
</g>
<!-- france&#45;television&#45;134&#45;&gt;france&#45;5&#45;143 -->
<g id="edge1" class="edge">
<title>france&#45;television&#45;134&#45;&gt;france&#45;5&#45;143</title>
<path fill="none" stroke="black" d="M436.15,-34C471.05,-34 509.36,-34 539.34,-34"/>
<polygon fill="black" stroke="black" points="538.99,-37.5 548.99,-34 538.99,-30.5 538.99,-37.5"/>
<text text-anchor="middle" x="493.09" y="-37.2" font-family="Times,serif" font-size="14.00">possède 100%</text>
</g>
</g>
</svg>
