<?xml version="1.0" encoding="UTF-8" standalone="no"?>
<!DOCTYPE svg PUBLIC "-//W3C//DTD SVG 1.1//EN"
 "http://www.w3.org/Graphics/SVG/1.1/DTD/svg11.dtd">
<!-- Generated by graphviz version 7.1.0 (20230121.1956)
 -->
<!-- Pages: 1 -->
<svg width="678pt" height="400pt"
 viewBox="0.00 0.00 677.75 400.00" xmlns="http://www.w3.org/2000/svg" xmlns:xlink="http://www.w3.org/1999/xlink">
<g id="graph0" class="graph" transform="scale(1 1) rotate(0) translate(4 396)">
<polygon fill="white" stroke="none" points="-4,4 -4,-396 673.75,-396 673.75,4 -4,4"/>
<g id="clust2" class="cluster">
<title>clusterLeaves</title>
<polygon fill="none" stroke="black" points="536.56,-8 536.56,-384 661.75,-384 661.75,-8 536.56,-8"/>
</g>
<!-- republique&#45;francaise&#45;128 -->
<g id="node1" class="node">
<title>republique&#45;francaise&#45;128</title>
<polygon fill="none" stroke="black" points="131,-214 0,-214 0,-178 131,-178 131,-214"/>
<text text-anchor="middle" x="65.5" y="-192.3" font-family="Times,serif" font-size="14.00">République française</text>
</g>
<!-- france&#45;television&#45;134 -->
<g id="node2" class="node">
<title>france&#45;television&#45;134</title>
<polygon fill="none" stroke="black" points="427.34,-201.56 336.78,-214 246.22,-201.56 246.3,-181.44 427.26,-181.44 427.34,-201.56"/>
<text text-anchor="middle" x="336.78" y="-192.3" font-family="Times,serif" font-size="14.00">France Télévision</text>
</g>
<!-- republique&#45;francaise&#45;128&#45;&gt;france&#45;television&#45;134 -->
<g id="edge1" class="edge">
<title>republique&#45;francaise&#45;128&#45;&gt;france&#45;television&#45;134</title>
<path fill="none" stroke="black" d="M131.34,-196C162.31,-196 200.08,-196 234.69,-196"/>
<polygon fill="black" stroke="black" points="234.29,-199.5 244.29,-196 234.29,-192.5 234.29,-199.5"/>
<text text-anchor="middle" x="188.5" y="-199.8" font-family="Times,serif" font-size="14.00">possède 100%</text>
</g>
<!-- france&#45;2&#45;141 -->
<g id="node3" class="node">
<title>france&#45;2&#45;141</title>
<ellipse fill="none" stroke="black" cx="599.16" cy="-358" rx="41.69" ry="18"/>
<text text-anchor="middle" x="599.16" y="-354.3" font-family="Times,serif" font-size="14.00">France 2</text>
</g>
<!-- france&#45;television&#45;134&#45;&gt;france&#45;2&#45;141 -->
<g id="edge2" class="edge">
<title>france&#45;television&#45;134&#45;&gt;france&#45;2&#45;141</title>
<path fill="none" stroke="black" d="M350.82,-212.17C369.64,-234.61 406.48,-275.2 445.56,-300 478.64,-320.98 520.47,-336.22 551.97,-345.79"/>
<polygon fill="black" stroke="black" points="550.62,-349.04 561.2,-348.51 552.6,-342.33 550.62,-349.04"/>
<text text-anchor="middle" x="486.06" y="-340.8" font-family="Times,serif" font-size="14.00">possède 100%</text>
</g>
<!-- la&#45;premiere&#45;344 -->
<g id="node4" class="node">
<title>la&#45;premiere&#45;344</title>
<ellipse fill="none" stroke="black" cx="599.16" cy="-304" rx="54.69" ry="18"/>
<text text-anchor="middle" x="599.16" y="-300.3" font-family="Times,serif" font-size="14.00">La Première</text>
</g>
<!-- france&#45;television&#45;134&#45;&gt;la&#45;premiere&#45;344 -->
<g id="edge3" class="edge">
<title>france&#45;television&#45;134&#45;&gt;la&#45;premiere&#45;344</title>
<path fill="none" stroke="black" d="M362.9,-210.8C384.39,-223.08 416.37,-240.5 445.56,-253 478.38,-267.05 516.46,-279.78 546.37,-289.01"/>
<polygon fill="black" stroke="black" points="544.97,-292.24 555.55,-291.81 547.01,-285.54 544.97,-292.24"/>
<text text-anchor="middle" x="486.06" y="-284.8" font-family="Times,serif" font-size="14.00">possède 100%</text>
</g>
<!-- france&#45;3&#45;142 -->
<g id="node5" class="node">
<title>france&#45;3&#45;142</title>
<ellipse fill="none" stroke="black" cx="599.16" cy="-250" rx="41.69" ry="18"/>
<text text-anchor="middle" x="599.16" y="-246.3" font-family="Times,serif" font-size="14.00">France 3</text>
</g>
<!-- france&#45;television&#45;134&#45;&gt;france&#45;3&#45;142 -->
<g id="edge4" class="edge">
<title>france&#45;television&#45;134&#45;&gt;france&#45;3&#45;142</title>
<path fill="none" stroke="black" d="M390.79,-206.99C437.43,-216.67 504.76,-230.63 549.92,-240"/>
<polygon fill="black" stroke="black" points="549.2,-243.42 559.7,-242.02 550.62,-236.57 549.2,-243.42"/>
<text text-anchor="middle" x="486.06" y="-237.8" font-family="Times,serif" font-size="14.00">possède 100%</text>
</g>
<!-- france&#45;4&#45;144 -->
<g id="node6" class="node">
<title>france&#45;4&#45;144</title>
<ellipse fill="none" stroke="black" cx="599.16" cy="-196" rx="41.69" ry="18"/>
<text text-anchor="middle" x="599.16" y="-192.3" font-family="Times,serif" font-size="14.00">France 4</text>
</g>
<!-- france&#45;television&#45;134&#45;&gt;france&#45;4&#45;144 -->
<g id="edge5" class="edge">
<title>france&#45;television&#45;134&#45;&gt;france&#45;4&#45;144</title>
<path fill="none" stroke="black" d="M427.75,-196C467.07,-196 511.81,-196 545.58,-196"/>
<polygon fill="black" stroke="black" points="545.53,-199.5 555.53,-196 545.53,-192.5 545.53,-199.5"/>
<text text-anchor="middle" x="486.06" y="-199.8" font-family="Times,serif" font-size="14.00">possède 100%</text>
</g>
<!-- france&#45;5&#45;143 -->
<g id="node7" class="node">
<title>france&#45;5&#45;143</title>
<ellipse fill="none" stroke="black" cx="599.16" cy="-142" rx="41.69" ry="18"/>
<text text-anchor="middle" x="599.16" y="-138.3" font-family="Times,serif" font-size="14.00">France 5</text>
</g>
<!-- france&#45;television&#45;134&#45;&gt;france&#45;5&#45;143 -->
<g id="edge6" class="edge">
<title>france&#45;television&#45;134&#45;&gt;france&#45;5&#45;143</title>
<path fill="none" stroke="black" d="M410.31,-180.96C454.82,-171.73 510.6,-160.16 549.77,-152.04"/>
<polygon fill="black" stroke="black" points="550.3,-155.5 559.38,-150.04 548.87,-148.65 550.3,-155.5"/>
<text text-anchor="middle" x="486.06" y="-175.8" font-family="Times,serif" font-size="14.00">possède 100%</text>
</g>
<!-- france&#45;info&#45;152 -->
<g id="node8" class="node">
<title>france&#45;info&#45;152</title>
<ellipse fill="none" stroke="black" cx="599.16" cy="-88" rx="51.99" ry="18"/>
<text text-anchor="middle" x="599.16" y="-84.3" font-family="Times,serif" font-size="14.00">France Info</text>
</g>
<!-- france&#45;television&#45;134&#45;&gt;france&#45;info&#45;152 -->
<g id="edge7" class="edge">
<title>france&#45;television&#45;134&#45;&gt;france&#45;info&#45;152</title>
<path fill="none" stroke="black" d="M362.42,-181.12C383.87,-168.55 416.07,-150.65 445.56,-138 478.54,-123.86 516.92,-111.3 546.94,-102.3"/>
<polygon fill="black" stroke="black" points="547.55,-105.78 556.15,-99.59 545.57,-99.06 547.55,-105.78"/>
<text text-anchor="middle" x="486.06" y="-141.8" font-family="Times,serif" font-size="14.00">contrôle 100%</text>
</g>
<!-- tv5&#45;monde&#45;140 -->
<g id="node9" class="node">
<title>tv5&#45;monde&#45;140</title>
<ellipse fill="none" stroke="black" cx="599.16" cy="-34" rx="54.69" ry="18"/>
<text text-anchor="middle" x="599.16" y="-30.3" font-family="Times,serif" font-size="14.00">TV5 Monde</text>
</g>
<!-- france&#45;television&#45;134&#45;&gt;tv5&#45;monde&#45;140 -->
<g id="edge8" class="edge">
<title>france&#45;television&#45;134&#45;&gt;tv5&#45;monde&#45;140</title>
<path fill="none" stroke="black" d="M349.48,-180.95C367.75,-158.35 405.2,-115.55 445.56,-90 475.72,-70.91 513.32,-57.01 543.65,-47.84"/>
<polygon fill="black" stroke="black" points="544.4,-51.27 553.02,-45.1 542.44,-44.55 544.4,-51.27"/>
<text text-anchor="middle" x="486.06" y="-93.8" font-family="Times,serif" font-size="14.00">possède 49%</text>
</g>
</g>
</svg>
