<?xml version="1.0" encoding="UTF-8" standalone="no"?>
<!DOCTYPE svg PUBLIC "-//W3C//DTD SVG 1.1//EN"
 "http://www.w3.org/Graphics/SVG/1.1/DTD/svg11.dtd">
<!-- Generated by graphviz version 7.1.0 (20230121.1956)
 -->
<!-- Pages: 1 -->
<svg width="1471pt" height="1318pt"
 viewBox="0.00 0.00 1471.26 1318.00" xmlns="http://www.w3.org/2000/svg" xmlns:xlink="http://www.w3.org/1999/xlink">
<g id="graph0" class="graph" transform="scale(1 1) rotate(0) translate(4 1314)">
<polygon fill="white" stroke="none" points="-4,4 -4,-1314 1467.26,-1314 1467.26,4 -4,4"/>
<g id="clust2" class="cluster">
<title>clusterLeaves</title>
<polygon fill="none" stroke="black" points="1155.89,-8 1155.89,-1302 1455.26,-1302 1455.26,-8 1155.89,-8"/>
</g>
<!-- famille&#45;hurbain&#45;171 -->
<g id="node1" class="node">
<title>famille&#45;hurbain&#45;171</title>
<polygon fill="none" stroke="black" points="121,-132 0,-132 0,-96 121,-96 121,-132"/>
<text text-anchor="middle" x="60.5" y="-110.3" font-family="Times,serif" font-size="14.00">🧑‍💼Famille Hurbain</text>
</g>
<!-- groupe&#45;rossel&#45;183 -->
<g id="node2" class="node">
<title>groupe&#45;rossel&#45;183</title>
<polygon fill="none" stroke="black" points="393.78,-119.56 315.93,-132 238.07,-119.56 238.15,-99.44 393.71,-99.44 393.78,-119.56"/>
<text text-anchor="middle" x="315.93" y="-110.3" font-family="Times,serif" font-size="14.00">Groupe Rossel</text>
</g>
<!-- famille&#45;hurbain&#45;171&#45;&gt;groupe&#45;rossel&#45;183 -->
<g id="edge1" class="edge">
<title>famille&#45;hurbain&#45;171&#45;&gt;groupe&#45;rossel&#45;183</title>
<path fill="none" stroke="black" d="M121.24,-114C152.66,-114 191.8,-114 226.66,-114"/>
<polygon fill="black" stroke="black" points="226.3,-117.5 236.3,-114 226.3,-110.5 226.3,-117.5"/>
<text text-anchor="middle" x="179.5" y="-117.8" font-family="Times,serif" font-size="14.00">contrôle 100%</text>
</g>
<!-- groupe&#45;rossel&#45;la&#45;voix&#45;184 -->
<g id="node3" class="node">
<title>groupe&#45;rossel&#45;la&#45;voix&#45;184</title>
<polygon fill="none" stroke="black" points="732.5,-119.56 617.74,-132 502.97,-119.56 503.08,-99.44 732.39,-99.44 732.5,-119.56"/>
<text text-anchor="middle" x="617.74" y="-110.3" font-family="Times,serif" font-size="14.00">Groupe Rossel La Voix</text>
</g>
<!-- groupe&#45;rossel&#45;183&#45;&gt;groupe&#45;rossel&#45;la&#45;voix&#45;184 -->
<g id="edge2" class="edge">
<title>groupe&#45;rossel&#45;183&#45;&gt;groupe&#45;rossel&#45;la&#45;voix&#45;184</title>
<path fill="none" stroke="black" d="M394.14,-114C423.83,-114 458.55,-114 491.61,-114"/>
<polygon fill="black" stroke="black" points="491.24,-117.5 501.23,-114 491.23,-110.5 491.24,-117.5"/>
<text text-anchor="middle" x="448.35" y="-117.8" font-family="Times,serif" font-size="14.00">possède 73%</text>
</g>
<!-- la&#45;voix&#45;du&#45;nord&#45;sa&#45;185 -->
<g id="node4" class="node">
<title>la&#45;voix&#45;du&#45;nord&#45;sa&#45;185</title>
<polygon fill="none" stroke="black" points="1049.02,-714.56 945.25,-727 841.48,-714.56 841.58,-694.44 1048.93,-694.44 1049.02,-714.56"/>
<text text-anchor="middle" x="945.25" y="-705.3" font-family="Times,serif" font-size="14.00">La Voix du Nord SA</text>
</g>
<!-- groupe&#45;rossel&#45;la&#45;voix&#45;184&#45;&gt;la&#45;voix&#45;du&#45;nord&#45;sa&#45;185 -->
<g id="edge4" class="edge">
<title>groupe&#45;rossel&#45;la&#45;voix&#45;184&#45;&gt;la&#45;voix&#45;du&#45;nord&#45;sa&#45;185</title>
<path fill="none" stroke="black" d="M628.13,-131.17C674.15,-215.28 875.82,-583.91 930.52,-683.9"/>
<polygon fill="black" stroke="black" points="927.44,-685.56 935.31,-692.66 933.58,-682.2 927.44,-685.56"/>
<text text-anchor="middle" x="787.12" y="-485.8" font-family="Times,serif" font-size="14.00">possède 96%</text>
</g>
<!-- 20&#45;minutes&#45;182 -->
<g id="node5" class="node">
<title>20&#45;minutes&#45;182</title>
<ellipse fill="none" stroke="black" cx="1305.58" cy="-142" rx="51.19" ry="18"/>
<text text-anchor="middle" x="1305.58" y="-138.3" font-family="Times,serif" font-size="14.00">20 Minutes</text>
</g>
<!-- groupe&#45;rossel&#45;la&#45;voix&#45;184&#45;&gt;20&#45;minutes&#45;182 -->
<g id="edge3" class="edge">
<title>groupe&#45;rossel&#45;la&#45;voix&#45;184&#45;&gt;20&#45;minutes&#45;182</title>
<path fill="none" stroke="black" d="M731.68,-120.11C738.09,-120.42 744.43,-120.72 750.62,-121 929.29,-129.13 1140.48,-136.52 1242.82,-139.96"/>
<polygon fill="black" stroke="black" points="1242.53,-143.46 1252.64,-140.29 1242.77,-136.46 1242.53,-143.46"/>
<text text-anchor="middle" x="945.25" y="-135.8" font-family="Times,serif" font-size="14.00">possède 49%</text>
</g>
<!-- normandie&#45;dimanche&#45;291 -->
<g id="node27" class="node">
<title>normandie&#45;dimanche&#45;291</title>
<ellipse fill="none" stroke="black" cx="1305.58" cy="-88" rx="89.88" ry="18"/>
<text text-anchor="middle" x="1305.58" y="-84.3" font-family="Times,serif" font-size="14.00">Normandie Dimanche</text>
</g>
<!-- groupe&#45;rossel&#45;la&#45;voix&#45;184&#45;&gt;normandie&#45;dimanche&#45;291 -->
<g id="edge26" class="edge">
<title>groupe&#45;rossel&#45;la&#45;voix&#45;184&#45;&gt;normandie&#45;dimanche&#45;291</title>
<path fill="none" stroke="black" d="M732.69,-108.66C767.63,-107.08 806.21,-105.41 841.62,-104 966.78,-99.03 1111.01,-94.18 1204.78,-91.15"/>
<polygon fill="black" stroke="black" points="1204.85,-94.65 1214.73,-90.83 1204.63,-87.66 1204.85,-94.65"/>
<text text-anchor="middle" x="945.25" y="-107.8" font-family="Times,serif" font-size="14.00">possède 100%</text>
</g>
<!-- paris&#45;normandie&#45;286 -->
<g id="node28" class="node">
<title>paris&#45;normandie&#45;286</title>
<ellipse fill="none" stroke="black" cx="1305.58" cy="-34" rx="71.49" ry="18"/>
<text text-anchor="middle" x="1305.58" y="-30.3" font-family="Times,serif" font-size="14.00">Paris&#45;Normandie</text>
</g>
<!-- groupe&#45;rossel&#45;la&#45;voix&#45;184&#45;&gt;paris&#45;normandie&#45;286 -->
<g id="edge27" class="edge">
<title>groupe&#45;rossel&#45;la&#45;voix&#45;184&#45;&gt;paris&#45;normandie&#45;286</title>
<path fill="none" stroke="black" d="M703.48,-98.98C745.02,-91.95 795.84,-83.87 841.62,-78 975.96,-60.79 1133.03,-47.24 1225.36,-39.94"/>
<polygon fill="black" stroke="black" points="1225.36,-43.45 1235.06,-39.18 1224.81,-36.48 1225.36,-43.45"/>
<text text-anchor="middle" x="945.25" y="-81.8" font-family="Times,serif" font-size="14.00">possède 100%</text>
</g>
<!-- courrier&#45;picard&#45;189 -->
<g id="node6" class="node">
<title>courrier&#45;picard&#45;189</title>
<ellipse fill="none" stroke="black" cx="1305.58" cy="-1276" rx="64.99" ry="18"/>
<text text-anchor="middle" x="1305.58" y="-1272.3" font-family="Times,serif" font-size="14.00">Courrier picard</text>
</g>
<!-- la&#45;voix&#45;du&#45;nord&#45;sa&#45;185&#45;&gt;courrier&#45;picard&#45;189 -->
<g id="edge5" class="edge">
<title>la&#45;voix&#45;du&#45;nord&#45;sa&#45;185&#45;&gt;courrier&#45;picard&#45;189</title>
<path fill="none" stroke="black" d="M947.74,-727.17C955.03,-811.59 989.81,-1164.55 1066.89,-1237 1111.1,-1278.56 1181.56,-1285.53 1234.3,-1283.78"/>
<polygon fill="black" stroke="black" points="1234.27,-1287.28 1244.1,-1283.33 1233.95,-1280.29 1234.27,-1287.28"/>
<text text-anchor="middle" x="1106.39" y="-1277.8" font-family="Times,serif" font-size="14.00">possède 100%</text>
</g>
<!-- l&#45;aisne&#45;nouvelle&#45;190 -->
<g id="node7" class="node">
<title>l&#45;aisne&#45;nouvelle&#45;190</title>
<ellipse fill="none" stroke="black" cx="1305.58" cy="-1222" rx="71.49" ry="18"/>
<text text-anchor="middle" x="1305.58" y="-1218.3" font-family="Times,serif" font-size="14.00">L’aisne Nouvelle</text>
</g>
<!-- la&#45;voix&#45;du&#45;nord&#45;sa&#45;185&#45;&gt;l&#45;aisne&#45;nouvelle&#45;190 -->
<g id="edge6" class="edge">
<title>la&#45;voix&#45;du&#45;nord&#45;sa&#45;185&#45;&gt;l&#45;aisne&#45;nouvelle&#45;190</title>
<path fill="none" stroke="black" d="M948.28,-727.01C957.46,-805.41 997.79,-1115.95 1066.89,-1180 1109.32,-1219.33 1175.11,-1228.45 1226.73,-1228.51"/>
<polygon fill="black" stroke="black" points="1226.71,-1232.01 1236.67,-1228.4 1226.63,-1225.01 1226.71,-1232.01"/>
<text text-anchor="middle" x="1106.39" y="-1221.8" font-family="Times,serif" font-size="14.00">possède 100%</text>
</g>
<!-- l&#45;avenir&#45;de&#45;l&#45;artois&#45;193 -->
<g id="node8" class="node">
<title>l&#45;avenir&#45;de&#45;l&#45;artois&#45;193</title>
<ellipse fill="none" stroke="black" cx="1305.58" cy="-1168" rx="83.39" ry="18"/>
<text text-anchor="middle" x="1305.58" y="-1164.3" font-family="Times,serif" font-size="14.00">L’Avenir de l’Artois</text>
</g>
<!-- la&#45;voix&#45;du&#45;nord&#45;sa&#45;185&#45;&gt;l&#45;avenir&#45;de&#45;l&#45;artois&#45;193 -->
<g id="edge7" class="edge">
<title>la&#45;voix&#45;du&#45;nord&#45;sa&#45;185&#45;&gt;l&#45;avenir&#45;de&#45;l&#45;artois&#45;193</title>
<path fill="none" stroke="black" d="M948.99,-726.96C960.33,-799.16 1005.99,-1067.01 1066.89,-1123 1106.04,-1159 1164.62,-1170.39 1213.83,-1172.72"/>
<polygon fill="black" stroke="black" points="1213.52,-1176.21 1223.63,-1173.05 1213.75,-1169.21 1213.52,-1176.21"/>
<text text-anchor="middle" x="1106.39" y="-1164.8" font-family="Times,serif" font-size="14.00">possède 100%</text>
</g>
<!-- l&#45;echo&#45;de&#45;la&#45;lys&#45;206 -->
<g id="node9" class="node">
<title>l&#45;echo&#45;de&#45;la&#45;lys&#45;206</title>
<ellipse fill="none" stroke="black" cx="1305.58" cy="-1114" rx="71.49" ry="18"/>
<text text-anchor="middle" x="1305.58" y="-1110.3" font-family="Times,serif" font-size="14.00">L’Echo de la Lys</text>
</g>
<!-- la&#45;voix&#45;du&#45;nord&#45;sa&#45;185&#45;&gt;l&#45;echo&#45;de&#45;la&#45;lys&#45;206 -->
<g id="edge8" class="edge">
<title>la&#45;voix&#45;du&#45;nord&#45;sa&#45;185&#45;&gt;l&#45;echo&#45;de&#45;la&#45;lys&#45;206</title>
<path fill="none" stroke="black" d="M946.63,-726.97C948.85,-785.22 964.06,-970.5 1066.89,-1065 1108.85,-1103.56 1172.83,-1115.06 1223.85,-1117.32"/>
<polygon fill="black" stroke="black" points="1223.56,-1120.81 1233.67,-1117.63 1223.79,-1113.81 1223.56,-1120.81"/>
<text text-anchor="middle" x="1106.39" y="-1107.8" font-family="Times,serif" font-size="14.00">possède 100%</text>
</g>
<!-- l&#45;essor&#45;savoyard&#45;197 -->
<g id="node10" class="node">
<title>l&#45;essor&#45;savoyard&#45;197</title>
<ellipse fill="none" stroke="black" cx="1305.58" cy="-1060" rx="72.29" ry="18"/>
<text text-anchor="middle" x="1305.58" y="-1056.3" font-family="Times,serif" font-size="14.00">L’Essor savoyard</text>
</g>
<!-- la&#45;voix&#45;du&#45;nord&#45;sa&#45;185&#45;&gt;l&#45;essor&#45;savoyard&#45;197 -->
<g id="edge9" class="edge">
<title>la&#45;voix&#45;du&#45;nord&#45;sa&#45;185&#45;&gt;l&#45;essor&#45;savoyard&#45;197</title>
<path fill="none" stroke="black" d="M948.22,-727.06C954.81,-778.54 980.77,-927.4 1066.89,-1006 1108.59,-1044.06 1171.38,-1057.11 1221.95,-1060.89"/>
<polygon fill="black" stroke="black" points="1221.49,-1064.37 1231.69,-1061.5 1221.93,-1057.38 1221.49,-1064.37"/>
<text text-anchor="middle" x="1106.39" y="-1049.8" font-family="Times,serif" font-size="14.00">possède 100%</text>
</g>
<!-- l&#45;est&#45;eclair&#45;liberation&#45;champagne&#45;192 -->
<g id="node11" class="node">
<title>l&#45;est&#45;eclair&#45;liberation&#45;champagne&#45;192</title>
<ellipse fill="none" stroke="black" cx="1305.58" cy="-1006" rx="141.88" ry="18"/>
<text text-anchor="middle" x="1305.58" y="-1002.3" font-family="Times,serif" font-size="14.00">L’Est&#45;éclair &#45; Libération Champagne</text>
</g>
<!-- la&#45;voix&#45;du&#45;nord&#45;sa&#45;185&#45;&gt;l&#45;est&#45;eclair&#45;liberation&#45;champagne&#45;192 -->
<g id="edge10" class="edge">
<title>la&#45;voix&#45;du&#45;nord&#45;sa&#45;185&#45;&gt;l&#45;est&#45;eclair&#45;liberation&#45;champagne&#45;192</title>
<path fill="none" stroke="black" d="M950.4,-726.73C961.51,-770.45 996.06,-884.45 1066.89,-947 1094.9,-971.74 1131.71,-986.45 1167.96,-995.09"/>
<polygon fill="black" stroke="black" points="1167.18,-998.51 1177.7,-997.26 1168.7,-991.67 1167.18,-998.51"/>
<text text-anchor="middle" x="1106.39" y="-990.8" font-family="Times,serif" font-size="14.00">possède 100%</text>
</g>
<!-- l&#45;indicateur&#45;205 -->
<g id="node12" class="node">
<title>l&#45;indicateur&#45;205</title>
<ellipse fill="none" stroke="black" cx="1305.58" cy="-952" rx="53.89" ry="18"/>
<text text-anchor="middle" x="1305.58" y="-948.3" font-family="Times,serif" font-size="14.00">L’indicateur</text>
</g>
<!-- la&#45;voix&#45;du&#45;nord&#45;sa&#45;185&#45;&gt;l&#45;indicateur&#45;205 -->
<g id="edge11" class="edge">
<title>la&#45;voix&#45;du&#45;nord&#45;sa&#45;185&#45;&gt;l&#45;indicateur&#45;205</title>
<path fill="none" stroke="black" d="M953.66,-726.22C969.53,-761.27 1010.05,-841.48 1066.89,-888 1116.08,-928.26 1188.36,-943.34 1240.28,-948.91"/>
<polygon fill="black" stroke="black" points="1239.9,-952.39 1250.19,-949.87 1240.57,-945.42 1239.9,-952.39"/>
<text text-anchor="middle" x="1106.39" y="-931.8" font-family="Times,serif" font-size="14.00">possède 100%</text>
</g>
<!-- l&#45;union&#45;l&#45;ardennais&#45;191 -->
<g id="node13" class="node">
<title>l&#45;union&#45;l&#45;ardennais&#45;191</title>
<ellipse fill="none" stroke="black" cx="1305.58" cy="-898" rx="92.08" ry="18"/>
<text text-anchor="middle" x="1305.58" y="-894.3" font-family="Times,serif" font-size="14.00">L’Union &#45; L’Ardennais</text>
</g>
<!-- la&#45;voix&#45;du&#45;nord&#45;sa&#45;185&#45;&gt;l&#45;union&#45;l&#45;ardennais&#45;191 -->
<g id="edge12" class="edge">
<title>la&#45;voix&#45;du&#45;nord&#45;sa&#45;185&#45;&gt;l&#45;union&#45;l&#45;ardennais&#45;191</title>
<path fill="none" stroke="black" d="M959.1,-725.72C979.55,-751.42 1021.84,-800.91 1066.89,-832 1110.04,-861.78 1166.29,-878.17 1213.23,-887.17"/>
<polygon fill="black" stroke="black" points="1212.37,-890.57 1222.84,-888.92 1213.63,-883.69 1212.37,-890.57"/>
<text text-anchor="middle" x="1106.39" y="-872.8" font-family="Times,serif" font-size="14.00">possède 100%</text>
</g>
<!-- la&#45;savoie&#45;200 -->
<g id="node14" class="node">
<title>la&#45;savoie&#45;200</title>
<ellipse fill="none" stroke="black" cx="1305.58" cy="-844" rx="46.29" ry="18"/>
<text text-anchor="middle" x="1305.58" y="-840.3" font-family="Times,serif" font-size="14.00">La Savoie</text>
</g>
<!-- la&#45;voix&#45;du&#45;nord&#45;sa&#45;185&#45;&gt;la&#45;savoie&#45;200 -->
<g id="edge13" class="edge">
<title>la&#45;voix&#45;du&#45;nord&#45;sa&#45;185&#45;&gt;la&#45;savoie&#45;200</title>
<path fill="none" stroke="black" d="M970.72,-724.38C994.75,-739.21 1032.69,-761.86 1066.89,-779 1105.34,-798.27 1114.69,-804.64 1155.89,-817 1186.37,-826.15 1221.34,-832.69 1249.71,-837.04"/>
<polygon fill="black" stroke="black" points="1249.13,-840.49 1259.53,-838.49 1250.15,-833.57 1249.13,-840.49"/>
<text text-anchor="middle" x="1106.39" y="-816.8" font-family="Times,serif" font-size="14.00">possède 100%</text>
</g>
<!-- la&#45;semaine&#45;dans&#45;le&#45;boulonnais&#45;202 -->
<g id="node15" class="node">
<title>la&#45;semaine&#45;dans&#45;le&#45;boulonnais&#45;202</title>
<ellipse fill="none" stroke="black" cx="1305.58" cy="-790" rx="122.68" ry="18"/>
<text text-anchor="middle" x="1305.58" y="-786.3" font-family="Times,serif" font-size="14.00">La Semaine dans le Boulonnais</text>
</g>
<!-- la&#45;voix&#45;du&#45;nord&#45;sa&#45;185&#45;&gt;la&#45;semaine&#45;dans&#45;le&#45;boulonnais&#45;202 -->
<g id="edge14" class="edge">
<title>la&#45;voix&#45;du&#45;nord&#45;sa&#45;185&#45;&gt;la&#45;semaine&#45;dans&#45;le&#45;boulonnais&#45;202</title>
<path fill="none" stroke="black" d="M991.69,-721.84C1014.26,-728.11 1041.96,-735.65 1066.89,-742 1106.27,-752.03 1116.1,-754.7 1155.89,-763 1174.27,-766.83 1193.99,-770.63 1212.86,-774.12"/>
<polygon fill="black" stroke="black" points="1212.22,-777.56 1222.69,-775.92 1213.48,-770.67 1212.22,-777.56"/>
<text text-anchor="middle" x="1106.39" y="-763.8" font-family="Times,serif" font-size="14.00">possède 100%</text>
</g>
<!-- la&#45;tribune&#45;republicaine&#45;199 -->
<g id="node16" class="node">
<title>la&#45;tribune&#45;republicaine&#45;199</title>
<ellipse fill="none" stroke="black" cx="1305.58" cy="-736" rx="95.58" ry="18"/>
<text text-anchor="middle" x="1305.58" y="-732.3" font-family="Times,serif" font-size="14.00">La Tribune républicaine</text>
</g>
<!-- la&#45;voix&#45;du&#45;nord&#45;sa&#45;185&#45;&gt;la&#45;tribune&#45;republicaine&#45;199 -->
<g id="edge15" class="edge">
<title>la&#45;voix&#45;du&#45;nord&#45;sa&#45;185&#45;&gt;la&#45;tribune&#45;republicaine&#45;199</title>
<path fill="none" stroke="black" d="M1040.4,-716.09C1090.91,-719.9 1153.15,-724.59 1204.53,-728.46"/>
<polygon fill="black" stroke="black" points="1204.24,-731.95 1214.48,-729.21 1204.77,-724.97 1204.24,-731.95"/>
<text text-anchor="middle" x="1106.39" y="-726.8" font-family="Times,serif" font-size="14.00">possède 100%</text>
</g>
<!-- la&#45;voix&#45;du&#45;nord&#45;186 -->
<g id="node17" class="node">
<title>la&#45;voix&#45;du&#45;nord&#45;186</title>
<ellipse fill="none" stroke="black" cx="1305.58" cy="-682" rx="70.39" ry="18"/>
<text text-anchor="middle" x="1305.58" y="-678.3" font-family="Times,serif" font-size="14.00">La Voix du Nord</text>
</g>
<!-- la&#45;voix&#45;du&#45;nord&#45;sa&#45;185&#45;&gt;la&#45;voix&#45;du&#45;nord&#45;186 -->
<g id="edge16" class="edge">
<title>la&#45;voix&#45;du&#45;nord&#45;sa&#45;185&#45;&gt;la&#45;voix&#45;du&#45;nord&#45;186</title>
<path fill="none" stroke="black" d="M1049.24,-700.38C1055.21,-699.91 1061.13,-699.44 1066.89,-699 1119.84,-694.91 1179.45,-690.65 1225.73,-687.41"/>
<polygon fill="black" stroke="black" points="1225.96,-690.91 1235.69,-686.72 1225.47,-683.92 1225.96,-690.91"/>
<text text-anchor="middle" x="1106.39" y="-702.8" font-family="Times,serif" font-size="14.00">possède 100%</text>
</g>
<!-- le&#45;journal&#45;de&#45;montreuil&#45;204 -->
<g id="node18" class="node">
<title>le&#45;journal&#45;de&#45;montreuil&#45;204</title>
<ellipse fill="none" stroke="black" cx="1305.58" cy="-628" rx="96.68" ry="18"/>
<text text-anchor="middle" x="1305.58" y="-624.3" font-family="Times,serif" font-size="14.00">Le Journal de Montreuil</text>
</g>
<!-- la&#45;voix&#45;du&#45;nord&#45;sa&#45;185&#45;&gt;le&#45;journal&#45;de&#45;montreuil&#45;204 -->
<g id="edge17" class="edge">
<title>la&#45;voix&#45;du&#45;nord&#45;sa&#45;185&#45;&gt;le&#45;journal&#45;de&#45;montreuil&#45;204</title>
<path fill="none" stroke="black" d="M995.05,-693.98C1016.92,-687.47 1043.1,-679.98 1066.89,-674 1117.44,-661.29 1174.8,-650.1 1220.51,-641.94"/>
<polygon fill="black" stroke="black" points="1220.83,-645.43 1230.07,-640.24 1219.62,-638.54 1220.83,-645.43"/>
<text text-anchor="middle" x="1106.39" y="-677.8" font-family="Times,serif" font-size="14.00">possède 100%</text>
</g>
<!-- le&#45;journal&#45;des&#45;flandres&#45;195 -->
<g id="node19" class="node">
<title>le&#45;journal&#45;des&#45;flandres&#45;195</title>
<ellipse fill="none" stroke="black" cx="1305.58" cy="-574" rx="94.78" ry="18"/>
<text text-anchor="middle" x="1305.58" y="-570.3" font-family="Times,serif" font-size="14.00">Le Journal des Flandres</text>
</g>
<!-- la&#45;voix&#45;du&#45;nord&#45;sa&#45;185&#45;&gt;le&#45;journal&#45;des&#45;flandres&#45;195 -->
<g id="edge18" class="edge">
<title>la&#45;voix&#45;du&#45;nord&#45;sa&#45;185&#45;&gt;le&#45;journal&#45;des&#45;flandres&#45;195</title>
<path fill="none" stroke="black" d="M968.79,-694.12C992.6,-678.75 1031.51,-654.59 1066.89,-637 1105.1,-618.01 1114.91,-612.87 1155.89,-601 1175.45,-595.33 1196.82,-590.62 1217.1,-586.8"/>
<polygon fill="black" stroke="black" points="1217.54,-590.28 1226.75,-585.05 1216.29,-583.39 1217.54,-590.28"/>
<text text-anchor="middle" x="1106.39" y="-640.8" font-family="Times,serif" font-size="14.00">possède 100%</text>
</g>
<!-- le&#45;messager&#45;196 -->
<g id="node20" class="node">
<title>le&#45;messager&#45;196</title>
<ellipse fill="none" stroke="black" cx="1305.58" cy="-520" rx="56.59" ry="18"/>
<text text-anchor="middle" x="1305.58" y="-516.3" font-family="Times,serif" font-size="14.00">Le Messager</text>
</g>
<!-- la&#45;voix&#45;du&#45;nord&#45;sa&#45;185&#45;&gt;le&#45;messager&#45;196 -->
<g id="edge19" class="edge">
<title>la&#45;voix&#45;du&#45;nord&#45;sa&#45;185&#45;&gt;le&#45;messager&#45;196</title>
<path fill="none" stroke="black" d="M957.41,-694.16C977.09,-668.84 1020.33,-616.95 1066.89,-585 1118.38,-549.67 1188.42,-533.5 1239.12,-526.12"/>
<polygon fill="black" stroke="black" points="1239.35,-529.63 1248.78,-524.8 1238.4,-522.69 1239.35,-529.63"/>
<text text-anchor="middle" x="1106.39" y="-588.8" font-family="Times,serif" font-size="14.00">possède 100%</text>
</g>
<!-- le&#45;pays&#45;gessien&#45;198 -->
<g id="node21" class="node">
<title>le&#45;pays&#45;gessien&#45;198</title>
<ellipse fill="none" stroke="black" cx="1305.58" cy="-466" rx="67.69" ry="18"/>
<text text-anchor="middle" x="1305.58" y="-462.3" font-family="Times,serif" font-size="14.00">Le Pays gessien</text>
</g>
<!-- la&#45;voix&#45;du&#45;nord&#45;sa&#45;185&#45;&gt;le&#45;pays&#45;gessien&#45;198 -->
<g id="edge20" class="edge">
<title>la&#45;voix&#45;du&#45;nord&#45;sa&#45;185&#45;&gt;le&#45;pays&#45;gessien&#45;198</title>
<path fill="none" stroke="black" d="M952.39,-694.13C967.14,-660.06 1007.81,-575.66 1066.89,-528 1112.17,-491.47 1176.7,-476.27 1227.1,-470.03"/>
<polygon fill="black" stroke="black" points="1227.23,-473.54 1236.77,-468.94 1226.44,-466.59 1227.23,-473.54"/>
<text text-anchor="middle" x="1106.39" y="-531.8" font-family="Times,serif" font-size="14.00">possède 100%</text>
</g>
<!-- le&#45;phare&#45;dunkerquois&#45;201 -->
<g id="node22" class="node">
<title>le&#45;phare&#45;dunkerquois&#45;201</title>
<ellipse fill="none" stroke="black" cx="1305.58" cy="-412" rx="90.18" ry="18"/>
<text text-anchor="middle" x="1305.58" y="-408.3" font-family="Times,serif" font-size="14.00">Le Phare Dunkerquois</text>
</g>
<!-- la&#45;voix&#45;du&#45;nord&#45;sa&#45;185&#45;&gt;le&#45;phare&#45;dunkerquois&#45;201 -->
<g id="edge21" class="edge">
<title>la&#45;voix&#45;du&#45;nord&#45;sa&#45;185&#45;&gt;le&#45;phare&#45;dunkerquois&#45;201</title>
<path fill="none" stroke="black" d="M949.52,-694.16C959.46,-652.43 993.3,-532.91 1066.89,-469 1104.55,-436.29 1157.75,-421.6 1204.27,-415.28"/>
<polygon fill="black" stroke="black" points="1204.63,-418.76 1214.12,-414.07 1203.77,-411.82 1204.63,-418.76"/>
<text text-anchor="middle" x="1106.39" y="-472.8" font-family="Times,serif" font-size="14.00">possède 100%</text>
</g>
<!-- le&#45;reveil&#45;de&#45;berck&#45;203 -->
<g id="node23" class="node">
<title>le&#45;reveil&#45;de&#45;berck&#45;203</title>
<ellipse fill="none" stroke="black" cx="1305.58" cy="-358" rx="79.09" ry="18"/>
<text text-anchor="middle" x="1305.58" y="-354.3" font-family="Times,serif" font-size="14.00">Le Réveil de Berck</text>
</g>
<!-- la&#45;voix&#45;du&#45;nord&#45;sa&#45;185&#45;&gt;le&#45;reveil&#45;de&#45;berck&#45;203 -->
<g id="edge22" class="edge">
<title>la&#45;voix&#45;du&#45;nord&#45;sa&#45;185&#45;&gt;le&#45;reveil&#45;de&#45;berck&#45;203</title>
<path fill="none" stroke="black" d="M947.73,-693.95C953.32,-645.17 977.67,-489.93 1066.89,-410 1106.95,-374.11 1165.96,-361.06 1215.16,-357"/>
<polygon fill="black" stroke="black" points="1215.22,-360.51 1224.96,-356.32 1214.74,-353.52 1215.22,-360.51"/>
<text text-anchor="middle" x="1106.39" y="-413.8" font-family="Times,serif" font-size="14.00">possède 100%</text>
</g>
<!-- les&#45;echos&#45;du&#45;touquet&#45;194 -->
<g id="node24" class="node">
<title>les&#45;echos&#45;du&#45;touquet&#45;194</title>
<ellipse fill="none" stroke="black" cx="1305.58" cy="-304" rx="89.88" ry="18"/>
<text text-anchor="middle" x="1305.58" y="-300.3" font-family="Times,serif" font-size="14.00">Les Echos du Touquet</text>
</g>
<!-- la&#45;voix&#45;du&#45;nord&#45;sa&#45;185&#45;&gt;les&#45;echos&#45;du&#45;touquet&#45;194 -->
<g id="edge23" class="edge">
<title>la&#45;voix&#45;du&#45;nord&#45;sa&#45;185&#45;&gt;les&#45;echos&#45;du&#45;touquet&#45;194</title>
<path fill="none" stroke="black" d="M946.42,-694C947.88,-639.02 960.67,-446.71 1066.89,-351 1104.28,-317.31 1158.65,-304.84 1205.95,-301.12"/>
<polygon fill="black" stroke="black" points="1205.92,-304.63 1215.67,-300.49 1205.46,-297.65 1205.92,-304.63"/>
<text text-anchor="middle" x="1106.39" y="-354.8" font-family="Times,serif" font-size="14.00">possède 100%</text>
</g>
<!-- nord&#45;eclair&#45;187 -->
<g id="node25" class="node">
<title>nord&#45;eclair&#45;187</title>
<ellipse fill="none" stroke="black" cx="1305.58" cy="-250" rx="50.89" ry="18"/>
<text text-anchor="middle" x="1305.58" y="-246.3" font-family="Times,serif" font-size="14.00">Nord éclair</text>
</g>
<!-- la&#45;voix&#45;du&#45;nord&#45;sa&#45;185&#45;&gt;nord&#45;eclair&#45;187 -->
<g id="edge24" class="edge">
<title>la&#45;voix&#45;du&#45;nord&#45;sa&#45;185&#45;&gt;nord&#45;eclair&#45;187</title>
<path fill="none" stroke="black" d="M948.44,-694.22C958.69,-626.83 1004.2,-349.53 1066.89,-293 1115.05,-249.57 1191.77,-242.92 1244.96,-244.46"/>
<polygon fill="black" stroke="black" points="1244.62,-247.95 1254.76,-244.86 1244.91,-240.96 1244.62,-247.95"/>
<text text-anchor="middle" x="1106.39" y="-296.8" font-family="Times,serif" font-size="14.00">possède 100%</text>
</g>
<!-- nord&#45;littoral&#45;188 -->
<g id="node26" class="node">
<title>nord&#45;littoral&#45;188</title>
<ellipse fill="none" stroke="black" cx="1305.58" cy="-196" rx="57.69" ry="18"/>
<text text-anchor="middle" x="1305.58" y="-192.3" font-family="Times,serif" font-size="14.00">Nord Littoral</text>
</g>
<!-- la&#45;voix&#45;du&#45;nord&#45;sa&#45;185&#45;&gt;nord&#45;littoral&#45;188 -->
<g id="edge25" class="edge">
<title>la&#45;voix&#45;du&#45;nord&#45;sa&#45;185&#45;&gt;nord&#45;littoral&#45;188</title>
<path fill="none" stroke="black" d="M947.88,-694.19C956.18,-621.25 996.27,-300.99 1066.89,-236 1113.07,-193.5 1186.74,-187.07 1239.82,-189.03"/>
<polygon fill="black" stroke="black" points="1239.48,-192.52 1249.64,-189.52 1239.83,-185.53 1239.48,-192.52"/>
<text text-anchor="middle" x="1106.39" y="-239.8" font-family="Times,serif" font-size="14.00">possède 100%</text>
</g>
</g>
</svg>
