<?xml version="1.0" encoding="UTF-8" standalone="no"?>
<!DOCTYPE svg PUBLIC "-//W3C//DTD SVG 1.1//EN"
 "http://www.w3.org/Graphics/SVG/1.1/DTD/svg11.dtd">
<!-- Generated by graphviz version 7.1.0 (20230121.1956)
 -->
<!-- Pages: 1 -->
<svg width="1163pt" height="184pt"
 viewBox="0.00 0.00 1162.73 184.00" xmlns="http://www.w3.org/2000/svg" xmlns:xlink="http://www.w3.org/1999/xlink">
<g id="graph0" class="graph" transform="scale(1 1) rotate(0) translate(4 180)">
<polygon fill="white" stroke="none" points="-4,4 -4,-180 1158.73,-180 1158.73,4 -4,4"/>
<g id="clust2" class="cluster">
<title>clusterLeaves</title>
<polygon fill="none" stroke="black" points="870.75,-8 870.75,-168 1146.73,-168 1146.73,-8 870.75,-8"/>
</g>
<!-- philippe&#45;hersant&#45;292 -->
<g id="node1" class="node">
<title>philippe&#45;hersant&#45;292</title>
<polygon fill="none" stroke="black" points="122,-106 0,-106 0,-70 122,-70 122,-106"/>
<text text-anchor="middle" x="61" y="-84.3" font-family="Times,serif" font-size="14.00">🧑‍💼Philippe Hersant</text>
</g>
<!-- editions&#45;suisses&#45;holding&#45;293 -->
<g id="node2" class="node">
<title>editions&#45;suisses&#45;holding&#45;293</title>
<polygon fill="none" stroke="black" points="482.75,-93.56 359.92,-106 237.08,-93.56 237.2,-73.44 482.63,-73.44 482.75,-93.56"/>
<text text-anchor="middle" x="359.92" y="-84.3" font-family="Times,serif" font-size="14.00">Éditions Suisses Holding</text>
</g>
<!-- philippe&#45;hersant&#45;292&#45;&gt;editions&#45;suisses&#45;holding&#45;293 -->
<g id="edge2" class="edge">
<title>philippe&#45;hersant&#45;292&#45;&gt;editions&#45;suisses&#45;holding&#45;293</title>
<path fill="none" stroke="black" d="M122.44,-88C152.25,-88 189.47,-88 225.5,-88"/>
<polygon fill="black" stroke="black" points="225.12,-91.5 235.12,-88 225.12,-84.5 225.12,-91.5"/>
<text text-anchor="middle" x="179.5" y="-91.8" font-family="Times,serif" font-size="14.00">possède 100%</text>
</g>
<!-- groupe&#45;filanosa&#45;295 -->
<g id="node3" class="node">
<title>groupe&#45;filanosa&#45;295</title>
<polygon fill="none" stroke="black" points="763.71,-93.56 677.79,-106 591.87,-93.56 591.95,-73.44 763.63,-73.44 763.71,-93.56"/>
<text text-anchor="middle" x="677.79" y="-84.3" font-family="Times,serif" font-size="14.00">Groupe Filanosa</text>
</g>
<!-- editions&#45;suisses&#45;holding&#45;293&#45;&gt;groupe&#45;filanosa&#45;295 -->
<g id="edge1" class="edge">
<title>editions&#45;suisses&#45;holding&#45;293&#45;&gt;groupe&#45;filanosa&#45;295</title>
<path fill="none" stroke="black" d="M483.04,-88C515.36,-88 549.79,-88 580.52,-88"/>
<polygon fill="black" stroke="black" points="580.15,-91.5 590.15,-88 580.15,-84.5 580.15,-91.5"/>
<text text-anchor="middle" x="537.33" y="-91.8" font-family="Times,serif" font-size="14.00">possède 50%</text>
</g>
<!-- l&#45;express&#45;neuchatel&#45;298 -->
<g id="node4" class="node">
<title>l&#45;express&#45;neuchatel&#45;298</title>
<ellipse fill="none" stroke="black" cx="1008.74" cy="-142" rx="90.18" ry="18"/>
<text text-anchor="middle" x="1008.74" y="-138.3" font-family="Times,serif" font-size="14.00">L’Express (Neuchâtel)</text>
</g>
<!-- groupe&#45;filanosa&#45;295&#45;&gt;l&#45;express&#45;neuchatel&#45;298 -->
<g id="edge3" class="edge">
<title>groupe&#45;filanosa&#45;295&#45;&gt;l&#45;express&#45;neuchatel&#45;298</title>
<path fill="none" stroke="black" d="M733.51,-98.4C749.08,-101.28 766.07,-104.34 781.75,-107 828.73,-114.97 881.34,-123.16 923.96,-129.61"/>
<polygon fill="black" stroke="black" points="923.23,-133.04 933.64,-131.07 924.28,-126.12 923.23,-133.04"/>
<text text-anchor="middle" x="821.25" y="-122.8" font-family="Times,serif" font-size="14.00">possède 100%</text>
</g>
<!-- l&#45;impartial&#45;la&#45;chaux&#45;de&#45;fonds&#45;299 -->
<g id="node5" class="node">
<title>l&#45;impartial&#45;la&#45;chaux&#45;de&#45;fonds&#45;299</title>
<ellipse fill="none" stroke="black" cx="1008.74" cy="-88" rx="129.98" ry="18"/>
<text text-anchor="middle" x="1008.74" y="-84.3" font-family="Times,serif" font-size="14.00">L’Impartial (La Chaux&#45;de&#45;Fonds)</text>
</g>
<!-- groupe&#45;filanosa&#45;295&#45;&gt;l&#45;impartial&#45;la&#45;chaux&#45;de&#45;fonds&#45;299 -->
<g id="edge4" class="edge">
<title>groupe&#45;filanosa&#45;295&#45;&gt;l&#45;impartial&#45;la&#45;chaux&#45;de&#45;fonds&#45;299</title>
<path fill="none" stroke="black" d="M763.93,-88C795.45,-88 832.09,-88 867.23,-88"/>
<polygon fill="black" stroke="black" points="867.06,-91.5 877.06,-88 867.06,-84.5 867.06,-91.5"/>
<text text-anchor="middle" x="821.25" y="-91.8" font-family="Times,serif" font-size="14.00">possède 100%</text>
</g>
<!-- la&#45;cote&#45;nyon&#45;297 -->
<g id="node6" class="node">
<title>la&#45;cote&#45;nyon&#45;297</title>
<ellipse fill="none" stroke="black" cx="1008.74" cy="-34" rx="66.89" ry="18"/>
<text text-anchor="middle" x="1008.74" y="-30.3" font-family="Times,serif" font-size="14.00">La Côte (Nyon)</text>
</g>
<!-- groupe&#45;filanosa&#45;295&#45;&gt;la&#45;cote&#45;nyon&#45;297 -->
<g id="edge5" class="edge">
<title>groupe&#45;filanosa&#45;295&#45;&gt;la&#45;cote&#45;nyon&#45;297</title>
<path fill="none" stroke="black" d="M759.13,-72.94C766.77,-71.58 774.41,-70.25 781.75,-69 833.97,-60.14 893.12,-51.01 937.81,-44.3"/>
<polygon fill="black" stroke="black" points="938.27,-47.77 947.64,-42.83 937.23,-40.85 938.27,-47.77"/>
<text text-anchor="middle" x="821.25" y="-72.8" font-family="Times,serif" font-size="14.00">possède 100%</text>
</g>
</g>
</svg>
