<?xml version="1.0" encoding="UTF-8" standalone="no"?>
<!DOCTYPE svg PUBLIC "-//W3C//DTD SVG 1.1//EN"
 "http://www.w3.org/Graphics/SVG/1.1/DTD/svg11.dtd">
<!-- Generated by graphviz version 7.1.0 (20230121.1956)
 -->
<!-- Pages: 1 -->
<svg width="936pt" height="292pt"
 viewBox="0.00 0.00 935.76 292.00" xmlns="http://www.w3.org/2000/svg" xmlns:xlink="http://www.w3.org/1999/xlink">
<g id="graph0" class="graph" transform="scale(1 1) rotate(0) translate(4 288)">
<polygon fill="white" stroke="none" points="-4,4 -4,-288 931.76,-288 931.76,4 -4,4"/>
<g id="clust2" class="cluster">
<title>clusterLeaves</title>
<polygon fill="none" stroke="black" points="729.57,-8 729.57,-276 919.76,-276 919.76,-8 729.57,-8"/>
</g>
<!-- bernard&#45;arnault&#45;42 -->
<g id="node1" class="node">
<title>bernard&#45;arnault&#45;42</title>
<polygon fill="none" stroke="black" points="119,-160 0,-160 0,-124 119,-124 119,-160"/>
<text text-anchor="middle" x="59.5" y="-138.3" font-family="Times,serif" font-size="14.00">🧑‍💼Bernard Arnault</text>
</g>
<!-- lvmh&#45;43 -->
<g id="node2" class="node">
<title>lvmh&#45;43</title>
<polygon fill="none" stroke="black" points="319.38,-147.56 273.79,-160 228.21,-147.56 228.25,-127.44 319.34,-127.44 319.38,-147.56"/>
<text text-anchor="middle" x="273.79" y="-138.3" font-family="Times,serif" font-size="14.00">LVMH</text>
</g>
<!-- bernard&#45;arnault&#45;42&#45;&gt;lvmh&#45;43 -->
<g id="edge2" class="edge">
<title>bernard&#45;arnault&#45;42&#45;&gt;lvmh&#45;43</title>
<path fill="none" stroke="black" d="M119.35,-142C149.82,-142 186.82,-142 216.85,-142"/>
<polygon fill="black" stroke="black" points="216.48,-145.5 226.48,-142 216.48,-138.5 216.48,-145.5"/>
<text text-anchor="middle" x="173.5" y="-145.8" font-family="Times,serif" font-size="14.00">possède 46%</text>
</g>
<!-- groupe&#45;les&#45;echos&#45;48 -->
<g id="node3" class="node">
<title>groupe&#45;les&#45;echos&#45;48</title>
<polygon fill="none" stroke="black" points="622.57,-147.56 528.58,-160 434.59,-147.56 434.68,-127.44 622.48,-127.44 622.57,-147.56"/>
<text text-anchor="middle" x="528.58" y="-138.3" font-family="Times,serif" font-size="14.00">Groupe Les Échos</text>
</g>
<!-- lvmh&#45;43&#45;&gt;groupe&#45;les&#45;echos&#45;48 -->
<g id="edge1" class="edge">
<title>lvmh&#45;43&#45;&gt;groupe&#45;les&#45;echos&#45;48</title>
<path fill="none" stroke="black" d="M319.69,-142C348.43,-142 386.96,-142 423.05,-142"/>
<polygon fill="black" stroke="black" points="422.64,-145.5 432.64,-142 422.64,-138.5 422.64,-145.5"/>
<text text-anchor="middle" x="377.08" y="-145.8" font-family="Times,serif" font-size="14.00">possède 100%</text>
</g>
<!-- investir&#45;50 -->
<g id="node4" class="node">
<title>investir&#45;50</title>
<ellipse fill="none" stroke="black" cx="824.67" cy="-250" rx="37.89" ry="18"/>
<text text-anchor="middle" x="824.67" y="-246.3" font-family="Times,serif" font-size="14.00">Investir</text>
</g>
<!-- groupe&#45;les&#45;echos&#45;48&#45;&gt;investir&#45;50 -->
<g id="edge3" class="edge">
<title>groupe&#45;les&#45;echos&#45;48&#45;&gt;investir&#45;50</title>
<path fill="none" stroke="black" d="M557.9,-156.45C580.08,-167.48 611.88,-182.65 640.57,-194 679.26,-209.3 689.8,-210.82 729.57,-223 746.21,-228.1 764.59,-233.43 780.65,-238"/>
<polygon fill="black" stroke="black" points="779.33,-241.27 789.9,-240.62 781.23,-234.53 779.33,-241.27"/>
<text text-anchor="middle" x="680.07" y="-222.8" font-family="Times,serif" font-size="14.00">possède 100%</text>
</g>
<!-- investir&#45;magazine&#45;51 -->
<g id="node5" class="node">
<title>investir&#45;magazine&#45;51</title>
<ellipse fill="none" stroke="black" cx="824.67" cy="-196" rx="75.29" ry="18"/>
<text text-anchor="middle" x="824.67" y="-192.3" font-family="Times,serif" font-size="14.00">Investir Magazine</text>
</g>
<!-- groupe&#45;les&#45;echos&#45;48&#45;&gt;investir&#45;magazine&#45;51 -->
<g id="edge4" class="edge">
<title>groupe&#45;les&#45;echos&#45;48&#45;&gt;investir&#45;magazine&#45;51</title>
<path fill="none" stroke="black" d="M587.68,-152.67C635.07,-161.37 702.2,-173.7 752.75,-182.98"/>
<polygon fill="black" stroke="black" points="751.96,-186.39 762.43,-184.76 753.23,-179.51 751.96,-186.39"/>
<text text-anchor="middle" x="680.07" y="-178.8" font-family="Times,serif" font-size="14.00">possède 100%</text>
</g>
<!-- les&#45;echos&#45;49 -->
<g id="node6" class="node">
<title>les&#45;echos&#45;49</title>
<ellipse fill="none" stroke="black" cx="824.67" cy="-142" rx="47.39" ry="18"/>
<text text-anchor="middle" x="824.67" y="-138.3" font-family="Times,serif" font-size="14.00">Les Échos</text>
</g>
<!-- groupe&#45;les&#45;echos&#45;48&#45;&gt;les&#45;echos&#45;49 -->
<g id="edge5" class="edge">
<title>groupe&#45;les&#45;echos&#45;48&#45;&gt;les&#45;echos&#45;49</title>
<path fill="none" stroke="black" d="M623.03,-142C669.82,-142 725,-142 765.63,-142"/>
<polygon fill="black" stroke="black" points="765.44,-145.5 775.44,-142 765.44,-138.5 765.44,-145.5"/>
<text text-anchor="middle" x="680.07" y="-145.8" font-family="Times,serif" font-size="14.00">possède 100%</text>
</g>
<!-- les&#45;echos&#45;week&#45;end&#45;52 -->
<g id="node7" class="node">
<title>les&#45;echos&#45;week&#45;end&#45;52</title>
<ellipse fill="none" stroke="black" cx="824.67" cy="-88" rx="87.18" ry="18"/>
<text text-anchor="middle" x="824.67" y="-84.3" font-family="Times,serif" font-size="14.00">Les Échos Week&#45;End</text>
</g>
<!-- groupe&#45;les&#45;echos&#45;48&#45;&gt;les&#45;echos&#45;week&#45;end&#45;52 -->
<g id="edge6" class="edge">
<title>groupe&#45;les&#45;echos&#45;48&#45;&gt;les&#45;echos&#45;week&#45;end&#45;52</title>
<path fill="none" stroke="black" d="M611.5,-126.96C654,-119.15 705.6,-109.68 747.27,-102.03"/>
<polygon fill="black" stroke="black" points="747.77,-105.49 756.98,-100.25 746.51,-98.61 747.77,-105.49"/>
<text text-anchor="middle" x="680.07" y="-124.8" font-family="Times,serif" font-size="14.00">possède 100%</text>
</g>
<!-- radio&#45;classique&#45;53 -->
<g id="node8" class="node">
<title>radio&#45;classique&#45;53</title>
<ellipse fill="none" stroke="black" cx="824.67" cy="-34" rx="68.49" ry="18"/>
<text text-anchor="middle" x="824.67" y="-30.3" font-family="Times,serif" font-size="14.00">Radio Classique</text>
</g>
<!-- groupe&#45;les&#45;echos&#45;48&#45;&gt;radio&#45;classique&#45;53 -->
<g id="edge7" class="edge">
<title>groupe&#45;les&#45;echos&#45;48&#45;&gt;radio&#45;classique&#45;53</title>
<path fill="none" stroke="black" d="M557.84,-127.15C579.98,-115.84 611.76,-100.35 640.57,-89 679.16,-73.81 689.86,-72.94 729.57,-61 741.29,-57.48 753.85,-53.8 765.86,-50.34"/>
<polygon fill="black" stroke="black" points="766.59,-53.77 775.24,-47.64 764.66,-47.04 766.59,-53.77"/>
<text text-anchor="middle" x="680.07" y="-92.8" font-family="Times,serif" font-size="14.00">possède 100%</text>
</g>
</g>
</svg>
