<?xml version="1.0" encoding="UTF-8" standalone="no"?>
<!DOCTYPE svg PUBLIC "-//W3C//DTD SVG 1.1//EN"
 "http://www.w3.org/Graphics/SVG/1.1/DTD/svg11.dtd">
<!-- Generated by graphviz version 7.1.0 (20230121.1956)
 -->
<!-- Pages: 1 -->
<svg width="941pt" height="292pt"
 viewBox="0.00 0.00 940.65 292.00" xmlns="http://www.w3.org/2000/svg" xmlns:xlink="http://www.w3.org/1999/xlink">
<g id="graph0" class="graph" transform="scale(1 1) rotate(0) translate(4 288)">
<polygon fill="white" stroke="none" points="-4,4 -4,-288 936.65,-288 936.65,4 -4,4"/>
<g id="clust2" class="cluster">
<title>clusterLeaves</title>
<polygon fill="none" stroke="black" points="764.36,-8 764.36,-276 924.65,-276 924.65,-8 764.36,-8"/>
</g>
<!-- daniel&#45;kretinsky&#45;92 -->
<g id="node1" class="node">
<title>daniel&#45;kretinsky&#45;92</title>
<polygon fill="none" stroke="black" points="415,-187 291,-187 291,-151 415,-151 415,-187"/>
<text text-anchor="middle" x="353" y="-165.3" font-family="Times,serif" font-size="14.00">🧑‍💼Daniel Křetínský</text>
</g>
<!-- groupe&#45;tf1&#45;122 -->
<g id="node3" class="node">
<title>groupe&#45;tf1&#45;122</title>
<polygon fill="none" stroke="black" points="657.54,-147.56 590.68,-160 523.82,-147.56 523.88,-127.44 657.48,-127.44 657.54,-147.56"/>
<text text-anchor="middle" x="590.68" y="-138.3" font-family="Times,serif" font-size="14.00">Groupe TF1</text>
</g>
<!-- daniel&#45;kretinsky&#45;92&#45;&gt;groupe&#45;tf1&#45;122 -->
<g id="edge1" class="edge">
<title>daniel&#45;kretinsky&#45;92&#45;&gt;groupe&#45;tf1&#45;122</title>
<path fill="none" stroke="black" d="M415.31,-161.98C446.66,-158.38 485.02,-153.99 517.76,-150.24"/>
<polygon fill="black" stroke="black" points="518.05,-153.73 527.58,-149.11 517.25,-146.77 518.05,-153.73"/>
<text text-anchor="middle" x="469.5" y="-162.8" font-family="Times,serif" font-size="14.00">possède 5%</text>
</g>
<!-- martin&#45;et&#45;olivier&#45;bouygues&#45;120 -->
<g id="node2" class="node">
<title>martin&#45;et&#45;olivier&#45;bouygues&#45;120</title>
<polygon fill="none" stroke="black" points="182,-133 0,-133 0,-97 182,-97 182,-133"/>
<text text-anchor="middle" x="91" y="-111.3" font-family="Times,serif" font-size="14.00">🧑‍💼Martin et Olivier Bouygues</text>
</g>
<!-- bouygues&#45;121 -->
<g id="node4" class="node">
<title>bouygues&#45;121</title>
<polygon fill="none" stroke="black" points="410.08,-120.56 353,-133 295.92,-120.56 295.97,-100.44 410.03,-100.44 410.08,-120.56"/>
<text text-anchor="middle" x="353" y="-111.3" font-family="Times,serif" font-size="14.00">Bouygues</text>
</g>
<!-- martin&#45;et&#45;olivier&#45;bouygues&#45;120&#45;&gt;bouygues&#45;121 -->
<g id="edge3" class="edge">
<title>martin&#45;et&#45;olivier&#45;bouygues&#45;120&#45;&gt;bouygues&#45;121</title>
<path fill="none" stroke="black" d="M182.21,-115C215.78,-115 253.27,-115 284.46,-115"/>
<polygon fill="black" stroke="black" points="284.14,-118.5 294.14,-115 284.14,-111.5 284.14,-118.5"/>
<text text-anchor="middle" x="236.5" y="-118.8" font-family="Times,serif" font-size="14.00">possède 20%</text>
</g>
<!-- lci&#45;125 -->
<g id="node5" class="node">
<title>lci&#45;125</title>
<ellipse fill="none" stroke="black" cx="844.5" cy="-250" rx="27" ry="18"/>
<text text-anchor="middle" x="844.5" y="-246.3" font-family="Times,serif" font-size="14.00">LCI</text>
</g>
<!-- groupe&#45;tf1&#45;122&#45;&gt;lci&#45;125 -->
<g id="edge4" class="edge">
<title>groupe&#45;tf1&#45;122&#45;&gt;lci&#45;125</title>
<path fill="none" stroke="black" d="M611.11,-156.64C627.55,-168.5 652.07,-184.98 675.36,-196 719.06,-216.68 772.71,-232.37 807.48,-241.37"/>
<polygon fill="black" stroke="black" points="806.49,-244.73 817.04,-243.79 808.21,-237.94 806.49,-244.73"/>
<text text-anchor="middle" x="714.86" y="-228.8" font-family="Times,serif" font-size="14.00">possède 100%</text>
</g>
<!-- tf1&#45;123 -->
<g id="node6" class="node">
<title>tf1&#45;123</title>
<ellipse fill="none" stroke="black" cx="844.5" cy="-196" rx="27" ry="18"/>
<text text-anchor="middle" x="844.5" y="-192.3" font-family="Times,serif" font-size="14.00">TF1</text>
</g>
<!-- groupe&#45;tf1&#45;122&#45;&gt;tf1&#45;123 -->
<g id="edge5" class="edge">
<title>groupe&#45;tf1&#45;122&#45;&gt;tf1&#45;123</title>
<path fill="none" stroke="black" d="M635.51,-152.11C648.34,-155.03 662.4,-158.18 675.36,-161 720.58,-170.84 772.77,-181.61 806.86,-188.57"/>
<polygon fill="black" stroke="black" points="806.14,-192 816.64,-190.56 807.54,-185.14 806.14,-192"/>
<text text-anchor="middle" x="714.86" y="-180.8" font-family="Times,serif" font-size="14.00">possède 100%</text>
</g>
<!-- tf1&#45;series&#45;films&#45;126 -->
<g id="node7" class="node">
<title>tf1&#45;series&#45;films&#45;126</title>
<ellipse fill="none" stroke="black" cx="844.5" cy="-142" rx="72.29" ry="18"/>
<text text-anchor="middle" x="844.5" y="-138.3" font-family="Times,serif" font-size="14.00">TF1 Séries Films</text>
</g>
<!-- groupe&#45;tf1&#45;122&#45;&gt;tf1&#45;series&#45;films&#45;126 -->
<g id="edge6" class="edge">
<title>groupe&#45;tf1&#45;122&#45;&gt;tf1&#45;series&#45;films&#45;126</title>
<path fill="none" stroke="black" d="M657.84,-142C689.4,-142 727.47,-142 760.9,-142"/>
<polygon fill="black" stroke="black" points="760.53,-145.5 770.53,-142 760.53,-138.5 760.53,-145.5"/>
<text text-anchor="middle" x="714.86" y="-145.8" font-family="Times,serif" font-size="14.00">possède 100%</text>
</g>
<!-- tfx&#45;124 -->
<g id="node8" class="node">
<title>tfx&#45;124</title>
<ellipse fill="none" stroke="black" cx="844.5" cy="-88" rx="27.1" ry="18"/>
<text text-anchor="middle" x="844.5" y="-84.3" font-family="Times,serif" font-size="14.00">TFX</text>
</g>
<!-- groupe&#45;tf1&#45;122&#45;&gt;tfx&#45;124 -->
<g id="edge7" class="edge">
<title>groupe&#45;tf1&#45;122&#45;&gt;tfx&#45;124</title>
<path fill="none" stroke="black" d="M657.43,-126.95C663.49,-125.6 669.54,-124.27 675.36,-123 720.58,-113.16 772.77,-102.39 806.86,-95.43"/>
<polygon fill="black" stroke="black" points="807.54,-98.86 816.64,-93.44 806.14,-92 807.54,-98.86"/>
<text text-anchor="middle" x="714.86" y="-126.8" font-family="Times,serif" font-size="14.00">possède 100%</text>
</g>
<!-- tmc&#45;127 -->
<g id="node9" class="node">
<title>tmc&#45;127</title>
<ellipse fill="none" stroke="black" cx="844.5" cy="-34" rx="30.59" ry="18"/>
<text text-anchor="middle" x="844.5" y="-30.3" font-family="Times,serif" font-size="14.00">TMC</text>
</g>
<!-- groupe&#45;tf1&#45;122&#45;&gt;tmc&#45;127 -->
<g id="edge8" class="edge">
<title>groupe&#45;tf1&#45;122&#45;&gt;tmc&#45;127</title>
<path fill="none" stroke="black" d="M611.05,-127.03C627.45,-114.92 651.96,-98.11 675.36,-87 717.71,-66.89 769.58,-51.87 804.42,-43.05"/>
<polygon fill="black" stroke="black" points="805.2,-46.46 814.07,-40.66 803.52,-39.66 805.2,-46.46"/>
<text text-anchor="middle" x="714.86" y="-90.8" font-family="Times,serif" font-size="14.00">possède 100%</text>
</g>
<!-- bouygues&#45;121&#45;&gt;groupe&#45;tf1&#45;122 -->
<g id="edge2" class="edge">
<title>bouygues&#45;121&#45;&gt;groupe&#45;tf1&#45;122</title>
<path fill="none" stroke="black" d="M408.96,-121.3C439.75,-124.82 478.65,-129.28 512.47,-133.15"/>
<polygon fill="black" stroke="black" points="511.88,-136.61 522.22,-134.27 512.68,-129.66 511.88,-136.61"/>
<text text-anchor="middle" x="469.5" y="-134.8" font-family="Times,serif" font-size="14.00">possède 44%</text>
</g>
</g>
</svg>
