<?xml version="1.0" encoding="UTF-8" standalone="no"?>
<!DOCTYPE svg PUBLIC "-//W3C//DTD SVG 1.1//EN"
 "http://www.w3.org/Graphics/SVG/1.1/DTD/svg11.dtd">
<!-- Generated by graphviz version 7.1.0 (20230121.1956)
 -->
<!-- Pages: 1 -->
<svg width="1094pt" height="238pt"
 viewBox="0.00 0.00 1094.44 238.00" xmlns="http://www.w3.org/2000/svg" xmlns:xlink="http://www.w3.org/1999/xlink">
<g id="graph0" class="graph" transform="scale(1 1) rotate(0) translate(4 234)">
<polygon fill="white" stroke="none" points="-4,4 -4,-234 1090.44,-234 1090.44,4 -4,4"/>
<g id="clust2" class="cluster">
<title>clusterLeaves</title>
<polygon fill="none" stroke="black" points="816.77,-8 816.77,-222 1078.44,-222 1078.44,-8 816.77,-8"/>
</g>
<!-- famille&#45;saint&#45;cricq&#45;221 -->
<g id="node1" class="node">
<title>famille&#45;saint&#45;cricq&#45;221</title>
<polygon fill="none" stroke="black" points="405.15,-156 266.15,-156 266.15,-120 405.15,-120 405.15,-156"/>
<text text-anchor="middle" x="335.65" y="-134.3" font-family="Times,serif" font-size="14.00">🧑‍💼Famille Saint&#45;Cricq</text>
</g>
<!-- groupe&#45;nrco&#45;237 -->
<g id="node3" class="node">
<title>groupe&#45;nrco&#45;237</title>
<polygon fill="none" stroke="black" points="710,-116.56 631.03,-129 552.07,-116.56 552.15,-96.44 709.92,-96.44 710,-116.56"/>
<text text-anchor="middle" x="631.03" y="-107.3" font-family="Times,serif" font-size="14.00">Groupe NRCO</text>
</g>
<!-- famille&#45;saint&#45;cricq&#45;221&#45;&gt;groupe&#45;nrco&#45;237 -->
<g id="edge1" class="edge">
<title>famille&#45;saint&#45;cricq&#45;221&#45;&gt;groupe&#45;nrco&#45;237</title>
<path fill="none" stroke="black" d="M405.44,-131.67C447.19,-127.83 500.81,-122.89 545.19,-118.81"/>
<polygon fill="black" stroke="black" points="545.41,-122.3 555.04,-117.9 544.77,-115.33 545.41,-122.3"/>
<text text-anchor="middle" x="497.8" y="-129.8" font-family="Times,serif" font-size="14.00">possède 15%</text>
</g>
<!-- fondation&#45;varenne&#45;220 -->
<g id="node2" class="node">
<title>fondation&#45;varenne&#45;220</title>
<polygon fill="none" stroke="black" points="119,-102 0,-102 0,-66 119,-66 119,-102"/>
<text text-anchor="middle" x="59.5" y="-80.3" font-family="Times,serif" font-size="14.00">Fondation Varenne</text>
</g>
<!-- groupe&#45;la&#45;montagne&#45;222 -->
<g id="node4" class="node">
<title>groupe&#45;la&#45;montagne&#45;222</title>
<polygon fill="none" stroke="black" points="443.46,-89.56 335.65,-102 227.85,-89.56 227.95,-69.44 443.36,-69.44 443.46,-89.56"/>
<text text-anchor="middle" x="335.65" y="-80.3" font-family="Times,serif" font-size="14.00">Groupe La Montagne</text>
</g>
<!-- fondation&#45;varenne&#45;220&#45;&gt;groupe&#45;la&#45;montagne&#45;222 -->
<g id="edge3" class="edge">
<title>fondation&#45;varenne&#45;220&#45;&gt;groupe&#45;la&#45;montagne&#45;222</title>
<path fill="none" stroke="black" d="M119.31,-84C147.65,-84 182.71,-84 216.24,-84"/>
<polygon fill="black" stroke="black" points="216.03,-87.5 226.03,-84 216.03,-80.5 216.03,-87.5"/>
<text text-anchor="middle" x="173.5" y="-87.8" font-family="Times,serif" font-size="14.00">possède 50%</text>
</g>
<!-- centre&#45;presse&#45;239 -->
<g id="node5" class="node">
<title>centre&#45;presse&#45;239</title>
<ellipse fill="none" stroke="black" cx="947.6" cy="-196" rx="59.29" ry="18"/>
<text text-anchor="middle" x="947.6" y="-192.3" font-family="Times,serif" font-size="14.00">Centre Presse</text>
</g>
<!-- groupe&#45;nrco&#45;237&#45;&gt;centre&#45;presse&#45;239 -->
<g id="edge4" class="edge">
<title>groupe&#45;nrco&#45;237&#45;&gt;centre&#45;presse&#45;239</title>
<path fill="none" stroke="black" d="M664.99,-123.95C683.33,-130.93 706.64,-139.43 727.77,-146 779.97,-162.25 840.68,-175.7 884.89,-184.55"/>
<polygon fill="black" stroke="black" points="884.07,-187.95 894.56,-186.46 885.43,-181.08 884.07,-187.95"/>
<text text-anchor="middle" x="767.27" y="-170.8" font-family="Times,serif" font-size="14.00">possède 100%</text>
</g>
<!-- la&#45;republique&#45;du&#45;centre&#45;236 -->
<g id="node6" class="node">
<title>la&#45;republique&#45;du&#45;centre&#45;236</title>
<ellipse fill="none" stroke="black" cx="947.6" cy="-142" rx="100.18" ry="18"/>
<text text-anchor="middle" x="947.6" y="-138.3" font-family="Times,serif" font-size="14.00">La République du Centre</text>
</g>
<!-- groupe&#45;nrco&#45;237&#45;&gt;la&#45;republique&#45;du&#45;centre&#45;236 -->
<g id="edge5" class="edge">
<title>groupe&#45;nrco&#45;237&#45;&gt;la&#45;republique&#45;du&#45;centre&#45;236</title>
<path fill="none" stroke="black" d="M703.42,-118.03C745.95,-122.23 800.58,-127.61 847.28,-132.21"/>
<polygon fill="black" stroke="black" points="846.86,-135.69 857.15,-133.18 847.54,-128.72 846.86,-135.69"/>
<text text-anchor="middle" x="767.27" y="-130.8" font-family="Times,serif" font-size="14.00">possède 30%</text>
</g>
<!-- nouvelle&#45;republique&#45;du&#45;centre&#45;238 -->
<g id="node7" class="node">
<title>nouvelle&#45;republique&#45;du&#45;centre&#45;238</title>
<ellipse fill="none" stroke="black" cx="947.6" cy="-88" rx="122.68" ry="18"/>
<text text-anchor="middle" x="947.6" y="-84.3" font-family="Times,serif" font-size="14.00">Nouvelle République du Centre</text>
</g>
<!-- groupe&#45;nrco&#45;237&#45;&gt;nouvelle&#45;republique&#45;du&#45;centre&#45;238 -->
<g id="edge6" class="edge">
<title>groupe&#45;nrco&#45;237&#45;&gt;nouvelle&#45;republique&#45;du&#45;centre&#45;238</title>
<path fill="none" stroke="black" d="M710.37,-102.53C716.26,-101.98 722.1,-101.46 727.77,-101 757.45,-98.57 789.43,-96.41 819.54,-94.58"/>
<polygon fill="black" stroke="black" points="819.69,-98.08 829.46,-93.99 819.27,-91.09 819.69,-98.08"/>
<text text-anchor="middle" x="767.27" y="-104.8" font-family="Times,serif" font-size="14.00">possède 100%</text>
</g>
<!-- tv&#45;tours&#45;240 -->
<g id="node8" class="node">
<title>tv&#45;tours&#45;240</title>
<ellipse fill="none" stroke="black" cx="947.6" cy="-34" rx="44.69" ry="18"/>
<text text-anchor="middle" x="947.6" y="-30.3" font-family="Times,serif" font-size="14.00">TV Tours</text>
</g>
<!-- groupe&#45;nrco&#45;237&#45;&gt;tv&#45;tours&#45;240 -->
<g id="edge7" class="edge">
<title>groupe&#45;nrco&#45;237&#45;&gt;tv&#45;tours&#45;240</title>
<path fill="none" stroke="black" d="M668.86,-95.96C686.47,-89.18 707.98,-81.48 727.77,-76 783.67,-60.52 849.17,-48.77 893.83,-41.68"/>
<polygon fill="black" stroke="black" points="894.17,-45.17 903.51,-40.17 893.09,-38.26 894.17,-45.17"/>
<text text-anchor="middle" x="767.27" y="-79.8" font-family="Times,serif" font-size="14.00">possède 40%</text>
</g>
<!-- groupe&#45;la&#45;montagne&#45;222&#45;&gt;groupe&#45;nrco&#45;237 -->
<g id="edge2" class="edge">
<title>groupe&#45;la&#45;montagne&#45;222&#45;&gt;groupe&#45;nrco&#45;237</title>
<path fill="none" stroke="black" d="M429.69,-91.65C462.73,-94.46 500.19,-97.75 534.3,-101 536.34,-101.19 538.39,-101.39 540.47,-101.59"/>
<polygon fill="black" stroke="black" points="539.88,-105.05 550.17,-102.55 540.57,-98.09 539.88,-105.05"/>
<text text-anchor="middle" x="497.8" y="-104.8" font-family="Times,serif" font-size="14.00">possède 16%</text>
</g>
</g>
</svg>
