<?xml version="1.0" encoding="UTF-8" standalone="no"?>
<!DOCTYPE svg PUBLIC "-//W3C//DTD SVG 1.1//EN"
 "http://www.w3.org/Graphics/SVG/1.1/DTD/svg11.dtd">
<!-- Generated by graphviz version 7.1.0 (20230121.1956)
 -->
<!-- Pages: 1 -->
<svg width="1504pt" height="1318pt"
 viewBox="0.00 0.00 1504.41 1318.00" xmlns="http://www.w3.org/2000/svg" xmlns:xlink="http://www.w3.org/1999/xlink">
<g id="graph0" class="graph" transform="scale(1 1) rotate(0) translate(4 1314)">
<polygon fill="white" stroke="none" points="-4,4 -4,-1314 1500.41,-1314 1500.41,4 -4,4"/>
<g id="clust2" class="cluster">
<title>clusterLeaves</title>
<polygon fill="none" stroke="black" points="1189.03,-8 1189.03,-1302 1488.41,-1302 1488.41,-8 1189.03,-8"/>
</g>
<!-- credit&#45;agricole&#45;nord&#45;de&#45;france&#45;172 -->
<g id="node1" class="node">
<title>credit&#45;agricole&#45;nord&#45;de&#45;france&#45;172</title>
<polygon fill="none" stroke="black" points="427,-159 238,-159 238,-123 427,-123 427,-159"/>
<text text-anchor="middle" x="332.5" y="-137.3" font-family="Times,serif" font-size="14.00">Crédit Agricole Nord de France</text>
</g>
<!-- groupe&#45;rossel&#45;la&#45;voix&#45;184 -->
<g id="node3" class="node">
<title>groupe&#45;rossel&#45;la&#45;voix&#45;184</title>
<polygon fill="none" stroke="black" points="765.65,-119.56 650.88,-132 536.12,-119.56 536.22,-99.44 765.54,-99.44 765.65,-119.56"/>
<text text-anchor="middle" x="650.88" y="-110.3" font-family="Times,serif" font-size="14.00">Groupe Rossel La Voix</text>
</g>
<!-- credit&#45;agricole&#45;nord&#45;de&#45;france&#45;172&#45;&gt;groupe&#45;rossel&#45;la&#45;voix&#45;184 -->
<g id="edge1" class="edge">
<title>credit&#45;agricole&#45;nord&#45;de&#45;france&#45;172&#45;&gt;groupe&#45;rossel&#45;la&#45;voix&#45;184</title>
<path fill="none" stroke="black" d="M427.14,-133.01C463.88,-129.87 506.21,-126.26 544.05,-123.03"/>
<polygon fill="black" stroke="black" points="543.94,-126.55 553.61,-122.22 543.34,-119.58 543.94,-126.55"/>
<text text-anchor="middle" x="481.5" y="-133.8" font-family="Times,serif" font-size="14.00">possède 25%</text>
</g>
<!-- famille&#45;hurbain&#45;171 -->
<g id="node2" class="node">
<title>famille&#45;hurbain&#45;171</title>
<polygon fill="none" stroke="black" points="121,-105 0,-105 0,-69 121,-69 121,-105"/>
<text text-anchor="middle" x="60.5" y="-83.3" font-family="Times,serif" font-size="14.00">🧑‍💼Famille Hurbain</text>
</g>
<!-- groupe&#45;rossel&#45;183 -->
<g id="node4" class="node">
<title>groupe&#45;rossel&#45;183</title>
<polygon fill="none" stroke="black" points="410.35,-92.56 332.5,-105 254.65,-92.56 254.72,-72.44 410.28,-72.44 410.35,-92.56"/>
<text text-anchor="middle" x="332.5" y="-83.3" font-family="Times,serif" font-size="14.00">Groupe Rossel</text>
</g>
<!-- famille&#45;hurbain&#45;171&#45;&gt;groupe&#45;rossel&#45;183 -->
<g id="edge3" class="edge">
<title>famille&#45;hurbain&#45;171&#45;&gt;groupe&#45;rossel&#45;183</title>
<path fill="none" stroke="black" d="M121.42,-87C157.13,-87 203.12,-87 242.96,-87"/>
<polygon fill="black" stroke="black" points="242.77,-90.5 252.77,-87 242.77,-83.5 242.77,-90.5"/>
<text text-anchor="middle" x="179.5" y="-90.8" font-family="Times,serif" font-size="14.00">contrôle 100%</text>
</g>
<!-- la&#45;voix&#45;du&#45;nord&#45;sa&#45;185 -->
<g id="node5" class="node">
<title>la&#45;voix&#45;du&#45;nord&#45;sa&#45;185</title>
<polygon fill="none" stroke="black" points="1082.17,-714.56 978.4,-727 874.63,-714.56 874.73,-694.44 1082.07,-694.44 1082.17,-714.56"/>
<text text-anchor="middle" x="978.4" y="-705.3" font-family="Times,serif" font-size="14.00">La Voix du Nord SA</text>
</g>
<!-- groupe&#45;rossel&#45;la&#45;voix&#45;184&#45;&gt;la&#45;voix&#45;du&#45;nord&#45;sa&#45;185 -->
<g id="edge5" class="edge">
<title>groupe&#45;rossel&#45;la&#45;voix&#45;184&#45;&gt;la&#45;voix&#45;du&#45;nord&#45;sa&#45;185</title>
<path fill="none" stroke="black" d="M661.27,-131.17C707.29,-215.28 908.96,-583.91 963.67,-683.9"/>
<polygon fill="black" stroke="black" points="960.59,-685.56 968.46,-692.66 966.73,-682.2 960.59,-685.56"/>
<text text-anchor="middle" x="820.26" y="-485.8" font-family="Times,serif" font-size="14.00">possède 96%</text>
</g>
<!-- 20&#45;minutes&#45;182 -->
<g id="node6" class="node">
<title>20&#45;minutes&#45;182</title>
<ellipse fill="none" stroke="black" cx="1338.72" cy="-142" rx="51.19" ry="18"/>
<text text-anchor="middle" x="1338.72" y="-138.3" font-family="Times,serif" font-size="14.00">20 Minutes</text>
</g>
<!-- groupe&#45;rossel&#45;la&#45;voix&#45;184&#45;&gt;20&#45;minutes&#45;182 -->
<g id="edge4" class="edge">
<title>groupe&#45;rossel&#45;la&#45;voix&#45;184&#45;&gt;20&#45;minutes&#45;182</title>
<path fill="none" stroke="black" d="M765.9,-119.23C771.94,-119.49 777.93,-119.75 783.76,-120 962.47,-127.61 1173.64,-135.77 1275.97,-139.66"/>
<polygon fill="black" stroke="black" points="1275.67,-143.15 1285.8,-140.04 1275.94,-136.16 1275.67,-143.15"/>
<text text-anchor="middle" x="978.4" y="-134.8" font-family="Times,serif" font-size="14.00">possède 49%</text>
</g>
<!-- normandie&#45;dimanche&#45;291 -->
<g id="node28" class="node">
<title>normandie&#45;dimanche&#45;291</title>
<ellipse fill="none" stroke="black" cx="1338.72" cy="-88" rx="89.88" ry="18"/>
<text text-anchor="middle" x="1338.72" y="-84.3" font-family="Times,serif" font-size="14.00">Normandie Dimanche</text>
</g>
<!-- groupe&#45;rossel&#45;la&#45;voix&#45;184&#45;&gt;normandie&#45;dimanche&#45;291 -->
<g id="edge27" class="edge">
<title>groupe&#45;rossel&#45;la&#45;voix&#45;184&#45;&gt;normandie&#45;dimanche&#45;291</title>
<path fill="none" stroke="black" d="M765.83,-108.66C800.78,-107.08 839.35,-105.41 874.76,-104 999.93,-99.03 1144.16,-94.18 1237.93,-91.15"/>
<polygon fill="black" stroke="black" points="1238,-94.65 1247.88,-90.83 1237.77,-87.66 1238,-94.65"/>
<text text-anchor="middle" x="978.4" y="-107.8" font-family="Times,serif" font-size="14.00">possède 100%</text>
</g>
<!-- paris&#45;normandie&#45;286 -->
<g id="node29" class="node">
<title>paris&#45;normandie&#45;286</title>
<ellipse fill="none" stroke="black" cx="1338.72" cy="-34" rx="71.49" ry="18"/>
<text text-anchor="middle" x="1338.72" y="-30.3" font-family="Times,serif" font-size="14.00">Paris&#45;Normandie</text>
</g>
<!-- groupe&#45;rossel&#45;la&#45;voix&#45;184&#45;&gt;paris&#45;normandie&#45;286 -->
<g id="edge28" class="edge">
<title>groupe&#45;rossel&#45;la&#45;voix&#45;184&#45;&gt;paris&#45;normandie&#45;286</title>
<path fill="none" stroke="black" d="M733.71,-98.97C775.76,-91.61 827.89,-83.06 874.76,-77 1008.87,-59.66 1165.69,-46.6 1258.09,-39.65"/>
<polygon fill="black" stroke="black" points="1258.09,-43.16 1267.8,-38.92 1257.57,-36.18 1258.09,-43.16"/>
<text text-anchor="middle" x="978.4" y="-80.8" font-family="Times,serif" font-size="14.00">possède 100%</text>
</g>
<!-- groupe&#45;rossel&#45;183&#45;&gt;groupe&#45;rossel&#45;la&#45;voix&#45;184 -->
<g id="edge2" class="edge">
<title>groupe&#45;rossel&#45;183&#45;&gt;groupe&#45;rossel&#45;la&#45;voix&#45;184</title>
<path fill="none" stroke="black" d="M408.08,-93.36C442.82,-96.33 485.11,-99.94 524.56,-103.3"/>
<polygon fill="black" stroke="black" points="524.1,-106.78 534.36,-104.14 524.7,-99.8 524.1,-106.78"/>
<text text-anchor="middle" x="481.5" y="-105.8" font-family="Times,serif" font-size="14.00">possède 73%</text>
</g>
<!-- courrier&#45;picard&#45;189 -->
<g id="node7" class="node">
<title>courrier&#45;picard&#45;189</title>
<ellipse fill="none" stroke="black" cx="1338.72" cy="-1276" rx="64.99" ry="18"/>
<text text-anchor="middle" x="1338.72" y="-1272.3" font-family="Times,serif" font-size="14.00">Courrier picard</text>
</g>
<!-- la&#45;voix&#45;du&#45;nord&#45;sa&#45;185&#45;&gt;courrier&#45;picard&#45;189 -->
<g id="edge6" class="edge">
<title>la&#45;voix&#45;du&#45;nord&#45;sa&#45;185&#45;&gt;courrier&#45;picard&#45;189</title>
<path fill="none" stroke="black" d="M980.89,-727.17C988.18,-811.59 1022.95,-1164.55 1100.03,-1237 1144.25,-1278.56 1214.7,-1285.53 1267.45,-1283.78"/>
<polygon fill="black" stroke="black" points="1267.41,-1287.28 1277.24,-1283.33 1267.09,-1280.29 1267.41,-1287.28"/>
<text text-anchor="middle" x="1139.53" y="-1277.8" font-family="Times,serif" font-size="14.00">possède 100%</text>
</g>
<!-- l&#45;aisne&#45;nouvelle&#45;190 -->
<g id="node8" class="node">
<title>l&#45;aisne&#45;nouvelle&#45;190</title>
<ellipse fill="none" stroke="black" cx="1338.72" cy="-1222" rx="71.49" ry="18"/>
<text text-anchor="middle" x="1338.72" y="-1218.3" font-family="Times,serif" font-size="14.00">L’aisne Nouvelle</text>
</g>
<!-- la&#45;voix&#45;du&#45;nord&#45;sa&#45;185&#45;&gt;l&#45;aisne&#45;nouvelle&#45;190 -->
<g id="edge7" class="edge">
<title>la&#45;voix&#45;du&#45;nord&#45;sa&#45;185&#45;&gt;l&#45;aisne&#45;nouvelle&#45;190</title>
<path fill="none" stroke="black" d="M981.42,-727.01C990.61,-805.41 1030.93,-1115.95 1100.03,-1180 1142.46,-1219.33 1208.26,-1228.45 1259.88,-1228.51"/>
<polygon fill="black" stroke="black" points="1259.86,-1232.01 1269.81,-1228.4 1259.77,-1225.01 1259.86,-1232.01"/>
<text text-anchor="middle" x="1139.53" y="-1221.8" font-family="Times,serif" font-size="14.00">possède 100%</text>
</g>
<!-- l&#45;avenir&#45;de&#45;l&#45;artois&#45;193 -->
<g id="node9" class="node">
<title>l&#45;avenir&#45;de&#45;l&#45;artois&#45;193</title>
<ellipse fill="none" stroke="black" cx="1338.72" cy="-1168" rx="83.39" ry="18"/>
<text text-anchor="middle" x="1338.72" y="-1164.3" font-family="Times,serif" font-size="14.00">L’Avenir de l’Artois</text>
</g>
<!-- la&#45;voix&#45;du&#45;nord&#45;sa&#45;185&#45;&gt;l&#45;avenir&#45;de&#45;l&#45;artois&#45;193 -->
<g id="edge8" class="edge">
<title>la&#45;voix&#45;du&#45;nord&#45;sa&#45;185&#45;&gt;l&#45;avenir&#45;de&#45;l&#45;artois&#45;193</title>
<path fill="none" stroke="black" d="M982.13,-726.96C993.48,-799.16 1039.14,-1067.01 1100.03,-1123 1139.19,-1159 1197.77,-1170.39 1246.97,-1172.72"/>
<polygon fill="black" stroke="black" points="1246.66,-1176.21 1256.77,-1173.05 1246.9,-1169.21 1246.66,-1176.21"/>
<text text-anchor="middle" x="1139.53" y="-1164.8" font-family="Times,serif" font-size="14.00">possède 100%</text>
</g>
<!-- l&#45;echo&#45;de&#45;la&#45;lys&#45;206 -->
<g id="node10" class="node">
<title>l&#45;echo&#45;de&#45;la&#45;lys&#45;206</title>
<ellipse fill="none" stroke="black" cx="1338.72" cy="-1114" rx="71.49" ry="18"/>
<text text-anchor="middle" x="1338.72" y="-1110.3" font-family="Times,serif" font-size="14.00">L’Echo de la Lys</text>
</g>
<!-- la&#45;voix&#45;du&#45;nord&#45;sa&#45;185&#45;&gt;l&#45;echo&#45;de&#45;la&#45;lys&#45;206 -->
<g id="edge9" class="edge">
<title>la&#45;voix&#45;du&#45;nord&#45;sa&#45;185&#45;&gt;l&#45;echo&#45;de&#45;la&#45;lys&#45;206</title>
<path fill="none" stroke="black" d="M979.77,-726.97C982,-785.22 997.21,-970.5 1100.03,-1065 1142,-1103.56 1205.98,-1115.06 1256.99,-1117.32"/>
<polygon fill="black" stroke="black" points="1256.71,-1120.81 1266.82,-1117.63 1256.93,-1113.81 1256.71,-1120.81"/>
<text text-anchor="middle" x="1139.53" y="-1107.8" font-family="Times,serif" font-size="14.00">possède 100%</text>
</g>
<!-- l&#45;essor&#45;savoyard&#45;197 -->
<g id="node11" class="node">
<title>l&#45;essor&#45;savoyard&#45;197</title>
<ellipse fill="none" stroke="black" cx="1338.72" cy="-1060" rx="72.29" ry="18"/>
<text text-anchor="middle" x="1338.72" y="-1056.3" font-family="Times,serif" font-size="14.00">L’Essor savoyard</text>
</g>
<!-- la&#45;voix&#45;du&#45;nord&#45;sa&#45;185&#45;&gt;l&#45;essor&#45;savoyard&#45;197 -->
<g id="edge10" class="edge">
<title>la&#45;voix&#45;du&#45;nord&#45;sa&#45;185&#45;&gt;l&#45;essor&#45;savoyard&#45;197</title>
<path fill="none" stroke="black" d="M981.37,-727.06C987.96,-778.54 1013.91,-927.4 1100.03,-1006 1141.73,-1044.06 1204.52,-1057.11 1255.1,-1060.89"/>
<polygon fill="black" stroke="black" points="1254.64,-1064.37 1264.84,-1061.5 1255.07,-1057.38 1254.64,-1064.37"/>
<text text-anchor="middle" x="1139.53" y="-1049.8" font-family="Times,serif" font-size="14.00">possède 100%</text>
</g>
<!-- l&#45;est&#45;eclair&#45;liberation&#45;champagne&#45;192 -->
<g id="node12" class="node">
<title>l&#45;est&#45;eclair&#45;liberation&#45;champagne&#45;192</title>
<ellipse fill="none" stroke="black" cx="1338.72" cy="-1006" rx="141.88" ry="18"/>
<text text-anchor="middle" x="1338.72" y="-1002.3" font-family="Times,serif" font-size="14.00">L’Est&#45;éclair &#45; Libération Champagne</text>
</g>
<!-- la&#45;voix&#45;du&#45;nord&#45;sa&#45;185&#45;&gt;l&#45;est&#45;eclair&#45;liberation&#45;champagne&#45;192 -->
<g id="edge11" class="edge">
<title>la&#45;voix&#45;du&#45;nord&#45;sa&#45;185&#45;&gt;l&#45;est&#45;eclair&#45;liberation&#45;champagne&#45;192</title>
<path fill="none" stroke="black" d="M983.54,-726.73C994.65,-770.45 1029.2,-884.45 1100.03,-947 1128.05,-971.74 1164.85,-986.45 1201.1,-995.09"/>
<polygon fill="black" stroke="black" points="1200.33,-998.51 1210.85,-997.26 1201.84,-991.67 1200.33,-998.51"/>
<text text-anchor="middle" x="1139.53" y="-990.8" font-family="Times,serif" font-size="14.00">possède 100%</text>
</g>
<!-- l&#45;indicateur&#45;205 -->
<g id="node13" class="node">
<title>l&#45;indicateur&#45;205</title>
<ellipse fill="none" stroke="black" cx="1338.72" cy="-952" rx="53.89" ry="18"/>
<text text-anchor="middle" x="1338.72" y="-948.3" font-family="Times,serif" font-size="14.00">L’indicateur</text>
</g>
<!-- la&#45;voix&#45;du&#45;nord&#45;sa&#45;185&#45;&gt;l&#45;indicateur&#45;205 -->
<g id="edge12" class="edge">
<title>la&#45;voix&#45;du&#45;nord&#45;sa&#45;185&#45;&gt;l&#45;indicateur&#45;205</title>
<path fill="none" stroke="black" d="M986.81,-726.22C1002.68,-761.27 1043.19,-841.48 1100.03,-888 1149.23,-928.26 1221.5,-943.34 1273.43,-948.91"/>
<polygon fill="black" stroke="black" points="1273.04,-952.39 1283.33,-949.87 1273.72,-945.42 1273.04,-952.39"/>
<text text-anchor="middle" x="1139.53" y="-931.8" font-family="Times,serif" font-size="14.00">possède 100%</text>
</g>
<!-- l&#45;union&#45;l&#45;ardennais&#45;191 -->
<g id="node14" class="node">
<title>l&#45;union&#45;l&#45;ardennais&#45;191</title>
<ellipse fill="none" stroke="black" cx="1338.72" cy="-898" rx="92.08" ry="18"/>
<text text-anchor="middle" x="1338.72" y="-894.3" font-family="Times,serif" font-size="14.00">L’Union &#45; L’Ardennais</text>
</g>
<!-- la&#45;voix&#45;du&#45;nord&#45;sa&#45;185&#45;&gt;l&#45;union&#45;l&#45;ardennais&#45;191 -->
<g id="edge13" class="edge">
<title>la&#45;voix&#45;du&#45;nord&#45;sa&#45;185&#45;&gt;l&#45;union&#45;l&#45;ardennais&#45;191</title>
<path fill="none" stroke="black" d="M992.24,-725.72C1012.7,-751.42 1054.98,-800.91 1100.03,-832 1143.19,-861.78 1199.43,-878.17 1246.38,-887.17"/>
<polygon fill="black" stroke="black" points="1245.52,-890.57 1255.98,-888.92 1246.78,-883.69 1245.52,-890.57"/>
<text text-anchor="middle" x="1139.53" y="-872.8" font-family="Times,serif" font-size="14.00">possède 100%</text>
</g>
<!-- la&#45;savoie&#45;200 -->
<g id="node15" class="node">
<title>la&#45;savoie&#45;200</title>
<ellipse fill="none" stroke="black" cx="1338.72" cy="-844" rx="46.29" ry="18"/>
<text text-anchor="middle" x="1338.72" y="-840.3" font-family="Times,serif" font-size="14.00">La Savoie</text>
</g>
<!-- la&#45;voix&#45;du&#45;nord&#45;sa&#45;185&#45;&gt;la&#45;savoie&#45;200 -->
<g id="edge14" class="edge">
<title>la&#45;voix&#45;du&#45;nord&#45;sa&#45;185&#45;&gt;la&#45;savoie&#45;200</title>
<path fill="none" stroke="black" d="M1003.86,-724.38C1027.9,-739.21 1065.83,-761.86 1100.03,-779 1138.48,-798.27 1147.84,-804.64 1189.03,-817 1219.51,-826.15 1254.49,-832.69 1282.86,-837.04"/>
<polygon fill="black" stroke="black" points="1282.27,-840.49 1292.68,-838.49 1283.3,-833.57 1282.27,-840.49"/>
<text text-anchor="middle" x="1139.53" y="-816.8" font-family="Times,serif" font-size="14.00">possède 100%</text>
</g>
<!-- la&#45;semaine&#45;dans&#45;le&#45;boulonnais&#45;202 -->
<g id="node16" class="node">
<title>la&#45;semaine&#45;dans&#45;le&#45;boulonnais&#45;202</title>
<ellipse fill="none" stroke="black" cx="1338.72" cy="-790" rx="122.68" ry="18"/>
<text text-anchor="middle" x="1338.72" y="-786.3" font-family="Times,serif" font-size="14.00">La Semaine dans le Boulonnais</text>
</g>
<!-- la&#45;voix&#45;du&#45;nord&#45;sa&#45;185&#45;&gt;la&#45;semaine&#45;dans&#45;le&#45;boulonnais&#45;202 -->
<g id="edge15" class="edge">
<title>la&#45;voix&#45;du&#45;nord&#45;sa&#45;185&#45;&gt;la&#45;semaine&#45;dans&#45;le&#45;boulonnais&#45;202</title>
<path fill="none" stroke="black" d="M1024.84,-721.84C1047.4,-728.11 1075.1,-735.65 1100.03,-742 1139.42,-752.03 1149.25,-754.7 1189.03,-763 1207.41,-766.83 1227.13,-770.63 1246.01,-774.12"/>
<polygon fill="black" stroke="black" points="1245.37,-777.56 1255.83,-775.92 1246.63,-770.67 1245.37,-777.56"/>
<text text-anchor="middle" x="1139.53" y="-763.8" font-family="Times,serif" font-size="14.00">possède 100%</text>
</g>
<!-- la&#45;tribune&#45;republicaine&#45;199 -->
<g id="node17" class="node">
<title>la&#45;tribune&#45;republicaine&#45;199</title>
<ellipse fill="none" stroke="black" cx="1338.72" cy="-736" rx="95.58" ry="18"/>
<text text-anchor="middle" x="1338.72" y="-732.3" font-family="Times,serif" font-size="14.00">La Tribune républicaine</text>
</g>
<!-- la&#45;voix&#45;du&#45;nord&#45;sa&#45;185&#45;&gt;la&#45;tribune&#45;republicaine&#45;199 -->
<g id="edge16" class="edge">
<title>la&#45;voix&#45;du&#45;nord&#45;sa&#45;185&#45;&gt;la&#45;tribune&#45;republicaine&#45;199</title>
<path fill="none" stroke="black" d="M1073.54,-716.09C1124.05,-719.9 1186.29,-724.59 1237.67,-728.46"/>
<polygon fill="black" stroke="black" points="1237.39,-731.95 1247.62,-729.21 1237.92,-724.97 1237.39,-731.95"/>
<text text-anchor="middle" x="1139.53" y="-726.8" font-family="Times,serif" font-size="14.00">possède 100%</text>
</g>
<!-- la&#45;voix&#45;du&#45;nord&#45;186 -->
<g id="node18" class="node">
<title>la&#45;voix&#45;du&#45;nord&#45;186</title>
<ellipse fill="none" stroke="black" cx="1338.72" cy="-682" rx="70.39" ry="18"/>
<text text-anchor="middle" x="1338.72" y="-678.3" font-family="Times,serif" font-size="14.00">La Voix du Nord</text>
</g>
<!-- la&#45;voix&#45;du&#45;nord&#45;sa&#45;185&#45;&gt;la&#45;voix&#45;du&#45;nord&#45;186 -->
<g id="edge17" class="edge">
<title>la&#45;voix&#45;du&#45;nord&#45;sa&#45;185&#45;&gt;la&#45;voix&#45;du&#45;nord&#45;186</title>
<path fill="none" stroke="black" d="M1082.39,-700.38C1088.36,-699.91 1094.27,-699.44 1100.03,-699 1152.99,-694.91 1212.6,-690.65 1258.88,-687.41"/>
<polygon fill="black" stroke="black" points="1259.1,-690.91 1268.83,-686.72 1258.62,-683.92 1259.1,-690.91"/>
<text text-anchor="middle" x="1139.53" y="-702.8" font-family="Times,serif" font-size="14.00">possède 100%</text>
</g>
<!-- le&#45;journal&#45;de&#45;montreuil&#45;204 -->
<g id="node19" class="node">
<title>le&#45;journal&#45;de&#45;montreuil&#45;204</title>
<ellipse fill="none" stroke="black" cx="1338.72" cy="-628" rx="96.68" ry="18"/>
<text text-anchor="middle" x="1338.72" y="-624.3" font-family="Times,serif" font-size="14.00">Le Journal de Montreuil</text>
</g>
<!-- la&#45;voix&#45;du&#45;nord&#45;sa&#45;185&#45;&gt;le&#45;journal&#45;de&#45;montreuil&#45;204 -->
<g id="edge18" class="edge">
<title>la&#45;voix&#45;du&#45;nord&#45;sa&#45;185&#45;&gt;le&#45;journal&#45;de&#45;montreuil&#45;204</title>
<path fill="none" stroke="black" d="M1028.19,-693.98C1050.06,-687.47 1076.24,-679.98 1100.03,-674 1150.59,-661.29 1207.95,-650.1 1253.65,-641.94"/>
<polygon fill="black" stroke="black" points="1253.98,-645.43 1263.22,-640.24 1252.76,-638.54 1253.98,-645.43"/>
<text text-anchor="middle" x="1139.53" y="-677.8" font-family="Times,serif" font-size="14.00">possède 100%</text>
</g>
<!-- le&#45;journal&#45;des&#45;flandres&#45;195 -->
<g id="node20" class="node">
<title>le&#45;journal&#45;des&#45;flandres&#45;195</title>
<ellipse fill="none" stroke="black" cx="1338.72" cy="-574" rx="94.78" ry="18"/>
<text text-anchor="middle" x="1338.72" y="-570.3" font-family="Times,serif" font-size="14.00">Le Journal des Flandres</text>
</g>
<!-- la&#45;voix&#45;du&#45;nord&#45;sa&#45;185&#45;&gt;le&#45;journal&#45;des&#45;flandres&#45;195 -->
<g id="edge19" class="edge">
<title>la&#45;voix&#45;du&#45;nord&#45;sa&#45;185&#45;&gt;le&#45;journal&#45;des&#45;flandres&#45;195</title>
<path fill="none" stroke="black" d="M1001.94,-694.12C1025.74,-678.75 1064.65,-654.59 1100.03,-637 1138.25,-618.01 1148.05,-612.87 1189.03,-601 1208.6,-595.33 1229.97,-590.62 1250.25,-586.8"/>
<polygon fill="black" stroke="black" points="1250.69,-590.28 1259.9,-585.05 1249.43,-583.39 1250.69,-590.28"/>
<text text-anchor="middle" x="1139.53" y="-640.8" font-family="Times,serif" font-size="14.00">possède 100%</text>
</g>
<!-- le&#45;messager&#45;196 -->
<g id="node21" class="node">
<title>le&#45;messager&#45;196</title>
<ellipse fill="none" stroke="black" cx="1338.72" cy="-520" rx="56.59" ry="18"/>
<text text-anchor="middle" x="1338.72" y="-516.3" font-family="Times,serif" font-size="14.00">Le Messager</text>
</g>
<!-- la&#45;voix&#45;du&#45;nord&#45;sa&#45;185&#45;&gt;le&#45;messager&#45;196 -->
<g id="edge20" class="edge">
<title>la&#45;voix&#45;du&#45;nord&#45;sa&#45;185&#45;&gt;le&#45;messager&#45;196</title>
<path fill="none" stroke="black" d="M990.56,-694.16C1010.24,-668.84 1053.48,-616.95 1100.03,-585 1151.52,-549.67 1221.57,-533.5 1272.27,-526.12"/>
<polygon fill="black" stroke="black" points="1272.49,-529.63 1281.92,-524.8 1271.54,-522.69 1272.49,-529.63"/>
<text text-anchor="middle" x="1139.53" y="-588.8" font-family="Times,serif" font-size="14.00">possède 100%</text>
</g>
<!-- le&#45;pays&#45;gessien&#45;198 -->
<g id="node22" class="node">
<title>le&#45;pays&#45;gessien&#45;198</title>
<ellipse fill="none" stroke="black" cx="1338.72" cy="-466" rx="67.69" ry="18"/>
<text text-anchor="middle" x="1338.72" y="-462.3" font-family="Times,serif" font-size="14.00">Le Pays gessien</text>
</g>
<!-- la&#45;voix&#45;du&#45;nord&#45;sa&#45;185&#45;&gt;le&#45;pays&#45;gessien&#45;198 -->
<g id="edge21" class="edge">
<title>la&#45;voix&#45;du&#45;nord&#45;sa&#45;185&#45;&gt;le&#45;pays&#45;gessien&#45;198</title>
<path fill="none" stroke="black" d="M985.53,-694.13C1000.28,-660.06 1040.96,-575.66 1100.03,-528 1145.32,-491.47 1209.85,-476.27 1260.24,-470.03"/>
<polygon fill="black" stroke="black" points="1260.37,-473.54 1269.91,-468.94 1259.58,-466.59 1260.37,-473.54"/>
<text text-anchor="middle" x="1139.53" y="-531.8" font-family="Times,serif" font-size="14.00">possède 100%</text>
</g>
<!-- le&#45;phare&#45;dunkerquois&#45;201 -->
<g id="node23" class="node">
<title>le&#45;phare&#45;dunkerquois&#45;201</title>
<ellipse fill="none" stroke="black" cx="1338.72" cy="-412" rx="90.18" ry="18"/>
<text text-anchor="middle" x="1338.72" y="-408.3" font-family="Times,serif" font-size="14.00">Le Phare Dunkerquois</text>
</g>
<!-- la&#45;voix&#45;du&#45;nord&#45;sa&#45;185&#45;&gt;le&#45;phare&#45;dunkerquois&#45;201 -->
<g id="edge22" class="edge">
<title>la&#45;voix&#45;du&#45;nord&#45;sa&#45;185&#45;&gt;le&#45;phare&#45;dunkerquois&#45;201</title>
<path fill="none" stroke="black" d="M982.66,-694.16C992.61,-652.43 1026.44,-532.91 1100.03,-469 1137.7,-436.29 1190.9,-421.6 1237.41,-415.28"/>
<polygon fill="black" stroke="black" points="1237.77,-418.76 1247.27,-414.07 1236.92,-411.82 1237.77,-418.76"/>
<text text-anchor="middle" x="1139.53" y="-472.8" font-family="Times,serif" font-size="14.00">possède 100%</text>
</g>
<!-- le&#45;reveil&#45;de&#45;berck&#45;203 -->
<g id="node24" class="node">
<title>le&#45;reveil&#45;de&#45;berck&#45;203</title>
<ellipse fill="none" stroke="black" cx="1338.72" cy="-358" rx="79.09" ry="18"/>
<text text-anchor="middle" x="1338.72" y="-354.3" font-family="Times,serif" font-size="14.00">Le Réveil de Berck</text>
</g>
<!-- la&#45;voix&#45;du&#45;nord&#45;sa&#45;185&#45;&gt;le&#45;reveil&#45;de&#45;berck&#45;203 -->
<g id="edge23" class="edge">
<title>la&#45;voix&#45;du&#45;nord&#45;sa&#45;185&#45;&gt;le&#45;reveil&#45;de&#45;berck&#45;203</title>
<path fill="none" stroke="black" d="M980.87,-693.95C986.46,-645.17 1010.82,-489.93 1100.03,-410 1140.09,-374.11 1199.11,-361.06 1248.31,-357"/>
<polygon fill="black" stroke="black" points="1248.37,-360.51 1258.1,-356.32 1247.88,-353.52 1248.37,-360.51"/>
<text text-anchor="middle" x="1139.53" y="-413.8" font-family="Times,serif" font-size="14.00">possède 100%</text>
</g>
<!-- les&#45;echos&#45;du&#45;touquet&#45;194 -->
<g id="node25" class="node">
<title>les&#45;echos&#45;du&#45;touquet&#45;194</title>
<ellipse fill="none" stroke="black" cx="1338.72" cy="-304" rx="89.88" ry="18"/>
<text text-anchor="middle" x="1338.72" y="-300.3" font-family="Times,serif" font-size="14.00">Les Echos du Touquet</text>
</g>
<!-- la&#45;voix&#45;du&#45;nord&#45;sa&#45;185&#45;&gt;les&#45;echos&#45;du&#45;touquet&#45;194 -->
<g id="edge24" class="edge">
<title>la&#45;voix&#45;du&#45;nord&#45;sa&#45;185&#45;&gt;les&#45;echos&#45;du&#45;touquet&#45;194</title>
<path fill="none" stroke="black" d="M979.56,-694C981.02,-639.02 993.82,-446.71 1100.03,-351 1137.43,-317.31 1191.79,-304.84 1239.09,-301.12"/>
<polygon fill="black" stroke="black" points="1239.06,-304.63 1248.81,-300.49 1238.61,-297.65 1239.06,-304.63"/>
<text text-anchor="middle" x="1139.53" y="-354.8" font-family="Times,serif" font-size="14.00">possède 100%</text>
</g>
<!-- nord&#45;eclair&#45;187 -->
<g id="node26" class="node">
<title>nord&#45;eclair&#45;187</title>
<ellipse fill="none" stroke="black" cx="1338.72" cy="-250" rx="50.89" ry="18"/>
<text text-anchor="middle" x="1338.72" y="-246.3" font-family="Times,serif" font-size="14.00">Nord éclair</text>
</g>
<!-- la&#45;voix&#45;du&#45;nord&#45;sa&#45;185&#45;&gt;nord&#45;eclair&#45;187 -->
<g id="edge25" class="edge">
<title>la&#45;voix&#45;du&#45;nord&#45;sa&#45;185&#45;&gt;nord&#45;eclair&#45;187</title>
<path fill="none" stroke="black" d="M981.58,-694.22C991.83,-626.83 1037.35,-349.53 1100.03,-293 1148.2,-249.57 1224.91,-242.92 1278.11,-244.46"/>
<polygon fill="black" stroke="black" points="1277.77,-247.95 1287.9,-244.86 1278.05,-240.96 1277.77,-247.95"/>
<text text-anchor="middle" x="1139.53" y="-296.8" font-family="Times,serif" font-size="14.00">possède 100%</text>
</g>
<!-- nord&#45;littoral&#45;188 -->
<g id="node27" class="node">
<title>nord&#45;littoral&#45;188</title>
<ellipse fill="none" stroke="black" cx="1338.72" cy="-196" rx="57.69" ry="18"/>
<text text-anchor="middle" x="1338.72" y="-192.3" font-family="Times,serif" font-size="14.00">Nord Littoral</text>
</g>
<!-- la&#45;voix&#45;du&#45;nord&#45;sa&#45;185&#45;&gt;nord&#45;littoral&#45;188 -->
<g id="edge26" class="edge">
<title>la&#45;voix&#45;du&#45;nord&#45;sa&#45;185&#45;&gt;nord&#45;littoral&#45;188</title>
<path fill="none" stroke="black" d="M981.02,-694.19C989.32,-621.25 1029.41,-300.99 1100.03,-236 1146.22,-193.5 1219.88,-187.07 1272.97,-189.03"/>
<polygon fill="black" stroke="black" points="1272.63,-192.52 1282.79,-189.52 1272.97,-185.53 1272.63,-192.52"/>
<text text-anchor="middle" x="1139.53" y="-239.8" font-family="Times,serif" font-size="14.00">possède 100%</text>
</g>
</g>
</svg>
