<?xml version="1.0" encoding="UTF-8" standalone="no"?>
<!DOCTYPE svg PUBLIC "-//W3C//DTD SVG 1.1//EN"
 "http://www.w3.org/Graphics/SVG/1.1/DTD/svg11.dtd">
<!-- Generated by graphviz version 7.1.0 (20230121.1956)
 -->
<!-- Pages: 1 -->
<svg width="1728pt" height="400pt"
 viewBox="0.00 0.00 1728.10 400.00" xmlns="http://www.w3.org/2000/svg" xmlns:xlink="http://www.w3.org/1999/xlink">
<g id="graph0" class="graph" transform="scale(1 1) rotate(0) translate(4 396)">
<polygon fill="white" stroke="none" points="-4,4 -4,-396 1724.1,-396 1724.1,4 -4,4"/>
<g id="clust2" class="cluster">
<title>clusterLeaves</title>
<polygon fill="none" stroke="black" points="1505.01,-8 1505.01,-384 1712.1,-384 1712.1,-8 1505.01,-8"/>
</g>
<!-- famille&#45;hutin&#45;170 -->
<g id="node1" class="node">
<title>famille&#45;hutin&#45;170</title>
<polygon fill="none" stroke="black" points="107,-214 0,-214 0,-178 107,-178 107,-214"/>
<text text-anchor="middle" x="53.5" y="-192.3" font-family="Times,serif" font-size="14.00">🧑‍💼Famille Hutin</text>
</g>
<!-- association&#45;pour&#45;le&#45;soutien&#45;des&#45;principes&#45;de&#45;la&#45;democratie&#45;humaniste&#45;173 -->
<g id="node2" class="node">
<title>association&#45;pour&#45;le&#45;soutien&#45;des&#45;principes&#45;de&#45;la&#45;democratie&#45;humaniste&#45;173</title>
<polygon fill="none" stroke="black" points="858.5,-201.56 541.33,-214 224.17,-201.56 224.46,-181.44 858.2,-181.44 858.5,-201.56"/>
<text text-anchor="middle" x="541.33" y="-192.3" font-family="Times,serif" font-size="14.00">Association pour le soutien des principes de la démocratie humaniste</text>
</g>
<!-- famille&#45;hutin&#45;170&#45;&gt;association&#45;pour&#45;le&#45;soutien&#45;des&#45;principes&#45;de&#45;la&#45;democratie&#45;humaniste&#45;173 -->
<g id="edge2" class="edge">
<title>famille&#45;hutin&#45;170&#45;&gt;association&#45;pour&#45;le&#45;soutien&#45;des&#45;principes&#45;de&#45;la&#45;democratie&#45;humaniste&#45;173</title>
<path fill="none" stroke="black" d="M107.42,-196C135.29,-196 172.04,-196 212.37,-196"/>
<polygon fill="black" stroke="black" points="212.32,-199.5 222.32,-196 212.32,-192.5 212.32,-199.5"/>
<text text-anchor="middle" x="165.5" y="-199.8" font-family="Times,serif" font-size="14.00">contrôle 100%</text>
</g>
<!-- groupe&#45;sipa&#45;ouest&#45;174 -->
<g id="node3" class="node">
<title>groupe&#45;sipa&#45;ouest&#45;174</title>
<polygon fill="none" stroke="black" points="1185.8,-201.56 1079.71,-214 973.62,-201.56 973.72,-181.44 1185.7,-181.44 1185.8,-201.56"/>
<text text-anchor="middle" x="1079.71" y="-192.3" font-family="Times,serif" font-size="14.00">Groupe SIPA &#45; Ouest</text>
</g>
<!-- association&#45;pour&#45;le&#45;soutien&#45;des&#45;principes&#45;de&#45;la&#45;democratie&#45;humaniste&#45;173&#45;&gt;groupe&#45;sipa&#45;ouest&#45;174 -->
<g id="edge1" class="edge">
<title>association&#45;pour&#45;le&#45;soutien&#45;des&#45;principes&#45;de&#45;la&#45;democratie&#45;humaniste&#45;173&#45;&gt;groupe&#45;sipa&#45;ouest&#45;174</title>
<path fill="none" stroke="black" d="M858.61,-196C895.22,-196 930.6,-196 961.89,-196"/>
<polygon fill="black" stroke="black" points="961.71,-199.5 971.71,-196 961.71,-192.5 961.71,-199.5"/>
<text text-anchor="middle" x="916.16" y="-199.8" font-family="Times,serif" font-size="14.00">possède 100%</text>
</g>
<!-- sofiouest&#45;181 -->
<g id="node4" class="node">
<title>sofiouest&#45;181</title>
<polygon fill="none" stroke="black" points="1404.14,-360.56 1349.38,-373 1294.63,-360.56 1294.68,-340.44 1404.09,-340.44 1404.14,-360.56"/>
<text text-anchor="middle" x="1349.38" y="-351.3" font-family="Times,serif" font-size="14.00">Sofiouest</text>
</g>
<!-- groupe&#45;sipa&#45;ouest&#45;174&#45;&gt;sofiouest&#45;181 -->
<g id="edge9" class="edge">
<title>groupe&#45;sipa&#45;ouest&#45;174&#45;&gt;sofiouest&#45;181</title>
<path fill="none" stroke="black" d="M1093.17,-212.51C1113.49,-238.26 1156.28,-287.87 1203.76,-315 1227.99,-328.85 1257.27,-338.12 1283.13,-344.2"/>
<polygon fill="black" stroke="black" points="1282.36,-347.62 1292.88,-346.38 1283.88,-340.79 1282.36,-347.62"/>
<text text-anchor="middle" x="1240.26" y="-345.8" font-family="Times,serif" font-size="14.00">possède 40%</text>
</g>
<!-- la&#45;presse&#45;de&#45;la&#45;manche&#45;179 -->
<g id="node5" class="node">
<title>la&#45;presse&#45;de&#45;la&#45;manche&#45;179</title>
<ellipse fill="none" stroke="black" cx="1608.56" cy="-304" rx="95.58" ry="18"/>
<text text-anchor="middle" x="1608.56" y="-300.3" font-family="Times,serif" font-size="14.00">La Presse de la Manche</text>
</g>
<!-- groupe&#45;sipa&#45;ouest&#45;174&#45;&gt;la&#45;presse&#45;de&#45;la&#45;manche&#45;179 -->
<g id="edge3" class="edge">
<title>groupe&#45;sipa&#45;ouest&#45;174&#45;&gt;la&#45;presse&#45;de&#45;la&#45;manche&#45;179</title>
<path fill="none" stroke="black" d="M1130.08,-208.55C1152.54,-214.24 1179.48,-221.01 1203.76,-227 1244.15,-236.97 1254.02,-240.5 1294.76,-249 1371.64,-265.04 1459.81,-280.26 1522.91,-290.6"/>
<polygon fill="black" stroke="black" points="1522.06,-294.01 1532.5,-292.17 1523.19,-287.1 1522.06,-294.01"/>
<text text-anchor="middle" x="1349.38" y="-272.8" font-family="Times,serif" font-size="14.00">possède 100%</text>
</g>
<!-- le&#45;courrier&#45;de&#45;l&#45;ouest&#45;176 -->
<g id="node6" class="node">
<title>le&#45;courrier&#45;de&#45;l&#45;ouest&#45;176</title>
<ellipse fill="none" stroke="black" cx="1608.56" cy="-250" rx="90.98" ry="18"/>
<text text-anchor="middle" x="1608.56" y="-246.3" font-family="Times,serif" font-size="14.00">Le Courrier de l’Ouest</text>
</g>
<!-- groupe&#45;sipa&#45;ouest&#45;174&#45;&gt;le&#45;courrier&#45;de&#45;l&#45;ouest&#45;176 -->
<g id="edge4" class="edge">
<title>groupe&#45;sipa&#45;ouest&#45;174&#45;&gt;le&#45;courrier&#45;de&#45;l&#45;ouest&#45;176</title>
<path fill="none" stroke="black" d="M1159.46,-205.13C1174.18,-206.79 1189.43,-208.48 1203.76,-210 1310.13,-221.32 1432.39,-233.29 1514.26,-241.15"/>
<polygon fill="black" stroke="black" points="1513.75,-244.61 1524.03,-242.08 1514.41,-237.65 1513.75,-244.61"/>
<text text-anchor="middle" x="1349.38" y="-233.8" font-family="Times,serif" font-size="14.00">possède 100%</text>
</g>
<!-- le&#45;maine&#45;libre&#45;177 -->
<g id="node7" class="node">
<title>le&#45;maine&#45;libre&#45;177</title>
<ellipse fill="none" stroke="black" cx="1608.56" cy="-196" rx="63.89" ry="18"/>
<text text-anchor="middle" x="1608.56" y="-192.3" font-family="Times,serif" font-size="14.00">Le Maine libre</text>
</g>
<!-- groupe&#45;sipa&#45;ouest&#45;174&#45;&gt;le&#45;maine&#45;libre&#45;177 -->
<g id="edge5" class="edge">
<title>groupe&#45;sipa&#45;ouest&#45;174&#45;&gt;le&#45;maine&#45;libre&#45;177</title>
<path fill="none" stroke="black" d="M1186.06,-196C1288.86,-196 1442.64,-196 1533.26,-196"/>
<polygon fill="black" stroke="black" points="1533.02,-199.5 1543.02,-196 1533.02,-192.5 1533.02,-199.5"/>
<text text-anchor="middle" x="1349.38" y="-199.8" font-family="Times,serif" font-size="14.00">possède 100%</text>
</g>
<!-- ouest&#45;france&#45;175 -->
<g id="node8" class="node">
<title>ouest&#45;france&#45;175</title>
<ellipse fill="none" stroke="black" cx="1608.56" cy="-142" rx="57.69" ry="18"/>
<text text-anchor="middle" x="1608.56" y="-138.3" font-family="Times,serif" font-size="14.00">Ouest France</text>
</g>
<!-- groupe&#45;sipa&#45;ouest&#45;174&#45;&gt;ouest&#45;france&#45;175 -->
<g id="edge6" class="edge">
<title>groupe&#45;sipa&#45;ouest&#45;174&#45;&gt;ouest&#45;france&#45;175</title>
<path fill="none" stroke="black" d="M1186.06,-185.2C1292.21,-174.32 1452.71,-157.87 1541.91,-148.73"/>
<polygon fill="black" stroke="black" points="1542.12,-152.23 1551.71,-147.72 1541.4,-145.26 1542.12,-152.23"/>
<text text-anchor="middle" x="1349.38" y="-176.8" font-family="Times,serif" font-size="14.00">possède 100%</text>
</g>
<!-- presse&#45;ocean&#45;178 -->
<g id="node9" class="node">
<title>presse&#45;ocean&#45;178</title>
<ellipse fill="none" stroke="black" cx="1608.56" cy="-88" rx="58.49" ry="18"/>
<text text-anchor="middle" x="1608.56" y="-84.3" font-family="Times,serif" font-size="14.00">Presse&#45;Océan</text>
</g>
<!-- groupe&#45;sipa&#45;ouest&#45;174&#45;&gt;presse&#45;ocean&#45;178 -->
<g id="edge7" class="edge">
<title>groupe&#45;sipa&#45;ouest&#45;174&#45;&gt;presse&#45;ocean&#45;178</title>
<path fill="none" stroke="black" d="M1138.18,-181.03C1181.15,-170.08 1241.43,-155.24 1294.76,-144 1381.07,-125.81 1481.6,-108.49 1544.9,-98.06"/>
<polygon fill="black" stroke="black" points="1545.1,-101.57 1554.4,-96.5 1543.96,-94.67 1545.1,-101.57"/>
<text text-anchor="middle" x="1349.38" y="-147.8" font-family="Times,serif" font-size="14.00">possède 100%</text>
</g>
<!-- publi&#45;hebdos&#45;180 -->
<g id="node10" class="node">
<title>publi&#45;hebdos&#45;180</title>
<ellipse fill="none" stroke="black" cx="1608.56" cy="-34" rx="58.49" ry="18"/>
<text text-anchor="middle" x="1608.56" y="-30.3" font-family="Times,serif" font-size="14.00">Publi Hebdos</text>
</g>
<!-- groupe&#45;sipa&#45;ouest&#45;174&#45;&gt;publi&#45;hebdos&#45;180 -->
<g id="edge8" class="edge">
<title>groupe&#45;sipa&#45;ouest&#45;174&#45;&gt;publi&#45;hebdos&#45;180</title>
<path fill="none" stroke="black" d="M1110.51,-181.08C1151.26,-161.19 1227.03,-125.92 1294.76,-104 1379.91,-76.44 1481.54,-55.88 1545.33,-44.4"/>
<polygon fill="black" stroke="black" points="1545.67,-47.89 1554.9,-42.7 1544.45,-41 1545.67,-47.89"/>
<text text-anchor="middle" x="1349.38" y="-107.8" font-family="Times,serif" font-size="14.00">possède 100%</text>
</g>
<!-- 20&#45;minutes&#45;182 -->
<g id="node11" class="node">
<title>20&#45;minutes&#45;182</title>
<ellipse fill="none" stroke="black" cx="1608.56" cy="-358" rx="51.19" ry="18"/>
<text text-anchor="middle" x="1608.56" y="-354.3" font-family="Times,serif" font-size="14.00">20 Minutes</text>
</g>
<!-- sofiouest&#45;181&#45;&gt;20&#45;minutes&#45;182 -->
<g id="edge10" class="edge">
<title>sofiouest&#45;181&#45;&gt;20&#45;minutes&#45;182</title>
<path fill="none" stroke="black" d="M1404.61,-355.63C1445.78,-356.11 1502.45,-356.77 1545.44,-357.28"/>
<polygon fill="black" stroke="black" points="1545.35,-360.77 1555.39,-357.39 1545.43,-353.77 1545.35,-360.77"/>
<text text-anchor="middle" x="1458.51" y="-359.8" font-family="Times,serif" font-size="14.00">possède 50%</text>
</g>
</g>
</svg>
