<?xml version="1.0" encoding="UTF-8" standalone="no"?>
<!DOCTYPE svg PUBLIC "-//W3C//DTD SVG 1.1//EN"
 "http://www.w3.org/Graphics/SVG/1.1/DTD/svg11.dtd">
<!-- Generated by graphviz version 7.1.0 (20230121.1956)
 -->
<!-- Pages: 1 -->
<svg width="1187pt" height="454pt"
 viewBox="0.00 0.00 1187.14 454.00" xmlns="http://www.w3.org/2000/svg" xmlns:xlink="http://www.w3.org/1999/xlink">
<g id="graph0" class="graph" transform="scale(1 1) rotate(0) translate(4 450)">
<polygon fill="white" stroke="none" points="-4,4 -4,-450 1183.14,-450 1183.14,4 -4,4"/>
<g id="clust2" class="cluster">
<title>clusterLeaves</title>
<polygon fill="none" stroke="black" points="863.97,-8 863.97,-438 1171.14,-438 1171.14,-8 863.97,-8"/>
</g>
<!-- famille&#45;baylet&#45;241 -->
<g id="node1" class="node">
<title>famille&#45;baylet&#45;241</title>
<polygon fill="none" stroke="black" points="112,-186 0,-186 0,-150 112,-150 112,-186"/>
<text text-anchor="middle" x="56" y="-164.3" font-family="Times,serif" font-size="14.00">🧑‍💼Famille Baylet</text>
</g>
<!-- groupe&#45;la&#45;depeche&#45;242 -->
<g id="node2" class="node">
<title>groupe&#45;la&#45;depeche&#45;242</title>
<polygon fill="none" stroke="black" points="423.68,-173.56 322.22,-186 220.77,-173.56 220.87,-153.44 423.58,-153.44 423.68,-173.56"/>
<text text-anchor="middle" x="322.22" y="-164.3" font-family="Times,serif" font-size="14.00">Groupe La Dépêche</text>
</g>
<!-- famille&#45;baylet&#45;241&#45;&gt;groupe&#45;la&#45;depeche&#45;242 -->
<g id="edge1" class="edge">
<title>famille&#45;baylet&#45;241&#45;&gt;groupe&#45;la&#45;depeche&#45;242</title>
<path fill="none" stroke="black" d="M112.39,-168C140.53,-168 175.79,-168 209.27,-168"/>
<polygon fill="black" stroke="black" points="209.03,-171.5 219.03,-168 209.03,-164.5 209.03,-171.5"/>
<text text-anchor="middle" x="166.5" y="-171.8" font-family="Times,serif" font-size="14.00">possède 82%</text>
</g>
<!-- les&#45;journaux&#45;du&#45;midi&#45;248 -->
<g id="node3" class="node">
<title>les&#45;journaux&#45;du&#45;midi&#45;248</title>
<polygon fill="none" stroke="black" points="756.73,-340.56 647.71,-353 538.69,-340.56 538.79,-320.44 756.62,-320.44 756.73,-340.56"/>
<text text-anchor="middle" x="647.71" y="-331.3" font-family="Times,serif" font-size="14.00">Les Journaux du midi</text>
</g>
<!-- groupe&#45;la&#45;depeche&#45;242&#45;&gt;les&#45;journaux&#45;du&#45;midi&#45;248 -->
<g id="edge7" class="edge">
<title>groupe&#45;la&#45;depeche&#45;242&#45;&gt;les&#45;journaux&#45;du&#45;midi&#45;248</title>
<path fill="none" stroke="black" d="M339.94,-184.29C361.74,-204.8 401.79,-239.98 441.45,-262 484.46,-285.88 536.76,-304.33 577.8,-316.72"/>
<polygon fill="black" stroke="black" points="576.75,-320.06 587.33,-319.54 578.74,-313.35 576.75,-320.06"/>
<text text-anchor="middle" x="480.95" y="-299.8" font-family="Times,serif" font-size="14.00">possède 100%</text>
</g>
<!-- la&#45;depeche&#45;du&#45;midi&#45;243 -->
<g id="node4" class="node">
<title>la&#45;depeche&#45;du&#45;midi&#45;243</title>
<ellipse fill="none" stroke="black" cx="1017.55" cy="-250" rx="83.39" ry="18"/>
<text text-anchor="middle" x="1017.55" y="-246.3" font-family="Times,serif" font-size="14.00">La Dépêche du midi</text>
</g>
<!-- groupe&#45;la&#45;depeche&#45;242&#45;&gt;la&#45;depeche&#45;du&#45;midi&#45;243 -->
<g id="edge2" class="edge">
<title>groupe&#45;la&#45;depeche&#45;242&#45;&gt;la&#45;depeche&#45;du&#45;midi&#45;243</title>
<path fill="none" stroke="black" d="M381.81,-179.15C400.82,-182.7 422.02,-186.59 441.45,-190 484.49,-197.55 495.11,-200.44 538.45,-206 673.11,-223.28 829.96,-236.38 926.25,-243.63"/>
<polygon fill="black" stroke="black" points="925.94,-247.12 936.18,-244.37 926.46,-240.14 925.94,-247.12"/>
<text text-anchor="middle" x="647.71" y="-232.8" font-family="Times,serif" font-size="14.00">possède 100%</text>
</g>
<!-- la&#45;gazette&#45;du&#45;comminges&#45;247 -->
<g id="node5" class="node">
<title>la&#45;gazette&#45;du&#45;comminges&#45;247</title>
<ellipse fill="none" stroke="black" cx="1017.55" cy="-196" rx="106.68" ry="18"/>
<text text-anchor="middle" x="1017.55" y="-192.3" font-family="Times,serif" font-size="14.00">La Gazette du Comminges</text>
</g>
<!-- groupe&#45;la&#45;depeche&#45;242&#45;&gt;la&#45;gazette&#45;du&#45;comminges&#45;247 -->
<g id="edge3" class="edge">
<title>groupe&#45;la&#45;depeche&#45;242&#45;&gt;la&#45;gazette&#45;du&#45;comminges&#45;247</title>
<path fill="none" stroke="black" d="M423.19,-174.08C429.37,-174.4 435.49,-174.71 441.45,-175 600.57,-182.61 784.57,-188.89 900.73,-192.54"/>
<polygon fill="black" stroke="black" points="900.49,-196.03 910.59,-192.85 900.71,-189.04 900.49,-196.03"/>
<text text-anchor="middle" x="647.71" y="-190.8" font-family="Times,serif" font-size="14.00">possède 100%</text>
</g>
<!-- la&#45;nouvelle&#45;republique&#45;des&#45;pyrenees&#45;245 -->
<g id="node6" class="node">
<title>la&#45;nouvelle&#45;republique&#45;des&#45;pyrenees&#45;245</title>
<ellipse fill="none" stroke="black" cx="1017.55" cy="-142" rx="145.67" ry="18"/>
<text text-anchor="middle" x="1017.55" y="-138.3" font-family="Times,serif" font-size="14.00">La Nouvelle République des Pyrénées</text>
</g>
<!-- groupe&#45;la&#45;depeche&#45;242&#45;&gt;la&#45;nouvelle&#45;republique&#45;des&#45;pyrenees&#45;245 -->
<g id="edge4" class="edge">
<title>groupe&#45;la&#45;depeche&#45;242&#45;&gt;la&#45;nouvelle&#45;republique&#45;des&#45;pyrenees&#45;245</title>
<path fill="none" stroke="black" d="M423.95,-163.05C460.06,-161.35 501.07,-159.49 538.45,-158 647.3,-153.65 770.12,-149.56 864.02,-146.6"/>
<polygon fill="black" stroke="black" points="863.93,-150.1 873.81,-146.29 863.71,-143.11 863.93,-150.1"/>
<text text-anchor="middle" x="647.71" y="-161.8" font-family="Times,serif" font-size="14.00">possède 100%</text>
</g>
<!-- le&#45;petit&#45;bleu&#45;244 -->
<g id="node7" class="node">
<title>le&#45;petit&#45;bleu&#45;244</title>
<ellipse fill="none" stroke="black" cx="1017.55" cy="-88" rx="57.69" ry="18"/>
<text text-anchor="middle" x="1017.55" y="-84.3" font-family="Times,serif" font-size="14.00">Le Petit Bleu</text>
</g>
<!-- groupe&#45;la&#45;depeche&#45;242&#45;&gt;le&#45;petit&#45;bleu&#45;244 -->
<g id="edge5" class="edge">
<title>groupe&#45;la&#45;depeche&#45;242&#45;&gt;le&#45;petit&#45;bleu&#45;244</title>
<path fill="none" stroke="black" d="M404.52,-152.94C444.72,-145.87 494.02,-137.75 538.45,-132 684.51,-113.09 856.71,-99.32 949.38,-92.61"/>
<polygon fill="black" stroke="black" points="949.6,-96.1 959.32,-91.89 949.1,-89.12 949.6,-96.1"/>
<text text-anchor="middle" x="647.71" y="-135.8" font-family="Times,serif" font-size="14.00">possède 100%</text>
</g>
<!-- le&#45;villefranchois&#45;246 -->
<g id="node8" class="node">
<title>le&#45;villefranchois&#45;246</title>
<ellipse fill="none" stroke="black" cx="1017.55" cy="-34" rx="72.29" ry="18"/>
<text text-anchor="middle" x="1017.55" y="-30.3" font-family="Times,serif" font-size="14.00">Le Villefranchois</text>
</g>
<!-- groupe&#45;la&#45;depeche&#45;242&#45;&gt;le&#45;villefranchois&#45;246 -->
<g id="edge6" class="edge">
<title>groupe&#45;la&#45;depeche&#45;242&#45;&gt;le&#45;villefranchois&#45;246</title>
<path fill="none" stroke="black" d="M356.78,-153.08C398.5,-135.19 472.31,-105.64 538.45,-90 675.22,-57.67 838.61,-43.65 934.63,-37.83"/>
<polygon fill="black" stroke="black" points="934.71,-41.34 944.49,-37.25 934.3,-34.35 934.71,-41.34"/>
<text text-anchor="middle" x="647.71" y="-93.8" font-family="Times,serif" font-size="14.00">possède 100%</text>
</g>
<!-- centre&#45;presse&#45;aveyron&#45;251 -->
<g id="node9" class="node">
<title>centre&#45;presse&#45;aveyron&#45;251</title>
<ellipse fill="none" stroke="black" cx="1017.55" cy="-412" rx="90.98" ry="18"/>
<text text-anchor="middle" x="1017.55" y="-408.3" font-family="Times,serif" font-size="14.00">Centre Presse Aveyron</text>
</g>
<!-- les&#45;journaux&#45;du&#45;midi&#45;248&#45;&gt;centre&#45;presse&#45;aveyron&#45;251 -->
<g id="edge8" class="edge">
<title>les&#45;journaux&#45;du&#45;midi&#45;248&#45;&gt;centre&#45;presse&#45;aveyron&#45;251</title>
<path fill="none" stroke="black" d="M698.7,-347.65C721.86,-353.41 749.78,-360.22 774.97,-366 814.39,-375.05 824.27,-377.25 863.97,-385 887.34,-389.56 912.79,-394.2 936.09,-398.31"/>
<polygon fill="black" stroke="black" points="935.39,-401.74 945.85,-400.02 936.6,-394.84 935.39,-401.74"/>
<text text-anchor="middle" x="814.47" y="-385.8" font-family="Times,serif" font-size="14.00">possède 100%</text>
</g>
<!-- l&#45;independant&#45;250 -->
<g id="node10" class="node">
<title>l&#45;independant&#45;250</title>
<ellipse fill="none" stroke="black" cx="1017.55" cy="-358" rx="61.99" ry="18"/>
<text text-anchor="middle" x="1017.55" y="-354.3" font-family="Times,serif" font-size="14.00">L’Indépendant</text>
</g>
<!-- les&#45;journaux&#45;du&#45;midi&#45;248&#45;&gt;l&#45;independant&#45;250 -->
<g id="edge9" class="edge">
<title>les&#45;journaux&#45;du&#45;midi&#45;248&#45;&gt;l&#45;independant&#45;250</title>
<path fill="none" stroke="black" d="M752.64,-341.5C814.13,-345.34 890.43,-350.11 945.15,-353.54"/>
<polygon fill="black" stroke="black" points="944.78,-357.02 954.98,-354.15 945.21,-350.03 944.78,-357.02"/>
<text text-anchor="middle" x="814.47" y="-350.8" font-family="Times,serif" font-size="14.00">possède 100%</text>
</g>
<!-- midi&#45;libre&#45;249 -->
<g id="node11" class="node">
<title>midi&#45;libre&#45;249</title>
<ellipse fill="none" stroke="black" cx="1017.55" cy="-304" rx="46.59" ry="18"/>
<text text-anchor="middle" x="1017.55" y="-300.3" font-family="Times,serif" font-size="14.00">Midi libre</text>
</g>
<!-- les&#45;journaux&#45;du&#45;midi&#45;248&#45;&gt;midi&#45;libre&#45;249 -->
<g id="edge10" class="edge">
<title>les&#45;journaux&#45;du&#45;midi&#45;248&#45;&gt;midi&#45;libre&#45;249</title>
<path fill="none" stroke="black" d="M756.84,-325.55C762.97,-325.02 769.05,-324.5 774.97,-324 838.44,-318.61 911.31,-312.6 960.28,-308.59"/>
<polygon fill="black" stroke="black" points="960.39,-312.09 970.07,-307.79 959.82,-305.12 960.39,-312.09"/>
<text text-anchor="middle" x="814.47" y="-327.8" font-family="Times,serif" font-size="14.00">possède 100%</text>
</g>
</g>
</svg>
