<?xml version="1.0" encoding="UTF-8" standalone="no"?>
<!DOCTYPE svg PUBLIC "-//W3C//DTD SVG 1.1//EN"
 "http://www.w3.org/Graphics/SVG/1.1/DTD/svg11.dtd">
<!-- Generated by graphviz version 7.1.0 (20230121.1956)
 -->
<!-- Pages: 1 -->
<svg width="967pt" height="130pt"
 viewBox="0.00 0.00 967.34 130.00" xmlns="http://www.w3.org/2000/svg" xmlns:xlink="http://www.w3.org/1999/xlink">
<g id="graph0" class="graph" transform="scale(1 1) rotate(0) translate(4 126)">
<polygon fill="white" stroke="none" points="-4,4 -4,-126 963.34,-126 963.34,4 -4,4"/>
<g id="clust2" class="cluster">
<title>clusterLeaves</title>
<polygon fill="none" stroke="black" points="736.46,-8 736.46,-114 951.34,-114 951.34,-8 736.46,-8"/>
</g>
<!-- iskandar&#45;safa&#45;86 -->
<g id="node1" class="node">
<title>iskandar&#45;safa&#45;86</title>
<polygon fill="none" stroke="black" points="105,-79 0,-79 0,-43 105,-43 105,-79"/>
<text text-anchor="middle" x="52.5" y="-57.3" font-family="Times,serif" font-size="14.00">🧑‍💼Iskandar Safa</text>
</g>
<!-- privinvest&#45;87 -->
<g id="node2" class="node">
<title>privinvest&#45;87</title>
<polygon fill="none" stroke="black" points="334.12,-66.56 277.04,-79 219.96,-66.56 220.01,-46.44 334.07,-46.44 334.12,-66.56"/>
<text text-anchor="middle" x="277.04" y="-57.3" font-family="Times,serif" font-size="14.00">Privinvest</text>
</g>
<!-- iskandar&#45;safa&#45;86&#45;&gt;privinvest&#45;87 -->
<g id="edge2" class="edge">
<title>iskandar&#45;safa&#45;86&#45;&gt;privinvest&#45;87</title>
<path fill="none" stroke="black" d="M105.39,-61C136.07,-61 175.26,-61 208.35,-61"/>
<polygon fill="black" stroke="black" points="208.26,-64.5 218.26,-61 208.26,-57.5 208.26,-64.5"/>
<text text-anchor="middle" x="162.5" y="-64.8" font-family="Times,serif" font-size="14.00">possède 100%</text>
</g>
<!-- groupe&#45;valmonde&#45;88 -->
<g id="node3" class="node">
<title>groupe&#45;valmonde&#45;88</title>
<polygon fill="none" stroke="black" points="629.65,-66.56 536.27,-79 442.89,-66.56 442.97,-46.44 629.57,-46.44 629.65,-66.56"/>
<text text-anchor="middle" x="536.27" y="-57.3" font-family="Times,serif" font-size="14.00">Groupe Valmonde</text>
</g>
<!-- privinvest&#45;87&#45;&gt;groupe&#45;valmonde&#45;88 -->
<g id="edge1" class="edge">
<title>privinvest&#45;87&#45;&gt;groupe&#45;valmonde&#45;88</title>
<path fill="none" stroke="black" d="M334.49,-61C362.92,-61 398.32,-61 431.43,-61"/>
<polygon fill="black" stroke="black" points="431.05,-64.5 441.05,-61 431.05,-57.5 431.05,-64.5"/>
<text text-anchor="middle" x="388.58" y="-64.8" font-family="Times,serif" font-size="14.00">possède 50%</text>
</g>
<!-- mieux&#45;vivre&#45;votre&#45;argent&#45;90 -->
<g id="node4" class="node">
<title>mieux&#45;vivre&#45;votre&#45;argent&#45;90</title>
<ellipse fill="none" stroke="black" cx="843.9" cy="-88" rx="99.38" ry="18"/>
<text text-anchor="middle" x="843.9" y="-84.3" font-family="Times,serif" font-size="14.00">Mieux vivre votre argent</text>
</g>
<!-- groupe&#45;valmonde&#45;88&#45;&gt;mieux&#45;vivre&#45;votre&#45;argent&#45;90 -->
<g id="edge3" class="edge">
<title>groupe&#45;valmonde&#45;88&#45;&gt;mieux&#45;vivre&#45;votre&#45;argent&#45;90</title>
<path fill="none" stroke="black" d="M619.98,-68.31C657.71,-71.64 702.72,-75.62 742.39,-79.12"/>
<polygon fill="black" stroke="black" points="741.92,-82.59 752.19,-79.99 742.53,-75.62 741.92,-82.59"/>
<text text-anchor="middle" x="686.96" y="-80.8" font-family="Times,serif" font-size="14.00">possède 100%</text>
</g>
<!-- valeurs&#45;actuelles&#45;89 -->
<g id="node5" class="node">
<title>valeurs&#45;actuelles&#45;89</title>
<ellipse fill="none" stroke="black" cx="843.9" cy="-34" rx="70.39" ry="18"/>
<text text-anchor="middle" x="843.9" y="-30.3" font-family="Times,serif" font-size="14.00">Valeurs actuelles</text>
</g>
<!-- groupe&#45;valmonde&#45;88&#45;&gt;valeurs&#45;actuelles&#45;89 -->
<g id="edge4" class="edge">
<title>groupe&#45;valmonde&#45;88&#45;&gt;valeurs&#45;actuelles&#45;89</title>
<path fill="none" stroke="black" d="M629.8,-52.83C673.16,-49 724.23,-44.48 765.51,-40.84"/>
<polygon fill="black" stroke="black" points="765.72,-44.33 775.37,-39.97 765.1,-37.36 765.72,-44.33"/>
<text text-anchor="middle" x="686.96" y="-53.8" font-family="Times,serif" font-size="14.00">possède 100%</text>
</g>
</g>
</svg>
