<?xml version="1.0" encoding="UTF-8" standalone="no"?>
<!DOCTYPE svg PUBLIC "-//W3C//DTD SVG 1.1//EN"
 "http://www.w3.org/Graphics/SVG/1.1/DTD/svg11.dtd">
<!-- Generated by graphviz version 7.1.0 (20230121.1956)
 -->
<!-- Pages: 1 -->
<svg width="739pt" height="616pt"
 viewBox="0.00 0.00 739.13 616.00" xmlns="http://www.w3.org/2000/svg" xmlns:xlink="http://www.w3.org/1999/xlink">
<g id="graph0" class="graph" transform="scale(1 1) rotate(0) translate(4 612)">
<polygon fill="white" stroke="none" points="-4,4 -4,-612 735.13,-612 735.13,4 -4,4"/>
<g id="clust2" class="cluster">
<title>clusterLeaves</title>
<polygon fill="none" stroke="black" points="471.85,-8 471.85,-600 723.13,-600 723.13,-8 471.85,-8"/>
</g>
<!-- credit&#45;mutuel&#45;207 -->
<g id="node1" class="node">
<title>credit&#45;mutuel&#45;207</title>
<polygon fill="none" stroke="black" points="94,-322 0,-322 0,-286 94,-286 94,-322"/>
<text text-anchor="middle" x="47" y="-300.3" font-family="Times,serif" font-size="14.00">Crédit Mutuel</text>
</g>
<!-- groupe&#45;ebra&#45;208 -->
<g id="node2" class="node">
<title>groupe&#45;ebra&#45;208</title>
<polygon fill="none" stroke="black" points="364.78,-309.56 286.93,-322 209.07,-309.56 209.15,-289.44 364.71,-289.44 364.78,-309.56"/>
<text text-anchor="middle" x="286.93" y="-300.3" font-family="Times,serif" font-size="14.00">Groupe EBRA</text>
</g>
<!-- credit&#45;mutuel&#45;207&#45;&gt;groupe&#45;ebra&#45;208 -->
<g id="edge1" class="edge">
<title>credit&#45;mutuel&#45;207&#45;&gt;groupe&#45;ebra&#45;208</title>
<path fill="none" stroke="black" d="M94.44,-304C123.73,-304 162.5,-304 197.49,-304"/>
<polygon fill="black" stroke="black" points="197.19,-307.5 207.19,-304 197.19,-300.5 197.19,-307.5"/>
<text text-anchor="middle" x="151.5" y="-307.8" font-family="Times,serif" font-size="14.00">possède 100%</text>
</g>
<!-- dna&#45;211 -->
<g id="node3" class="node">
<title>dna&#45;211</title>
<ellipse fill="none" stroke="black" cx="597.49" cy="-574" rx="29.8" ry="18"/>
<text text-anchor="middle" x="597.49" y="-570.3" font-family="Times,serif" font-size="14.00">DNA</text>
</g>
<!-- groupe&#45;ebra&#45;208&#45;&gt;dna&#45;211 -->
<g id="edge2" class="edge">
<title>groupe&#45;ebra&#45;208&#45;&gt;dna&#45;211</title>
<path fill="none" stroke="black" d="M291.04,-321.74C298.99,-361.85 323.74,-460.3 382.85,-515 430.63,-559.21 508.55,-570.75 555.92,-573.5"/>
<polygon fill="black" stroke="black" points="555.6,-576.99 565.75,-573.95 555.92,-570 555.6,-576.99"/>
<text text-anchor="middle" x="422.35" y="-560.8" font-family="Times,serif" font-size="14.00">possède 100%</text>
</g>
<!-- l&#45;alsace&#45;213 -->
<g id="node4" class="node">
<title>l&#45;alsace&#45;213</title>
<ellipse fill="none" stroke="black" cx="597.49" cy="-520" rx="42.49" ry="18"/>
<text text-anchor="middle" x="597.49" y="-516.3" font-family="Times,serif" font-size="14.00">L’Alsace</text>
</g>
<!-- groupe&#45;ebra&#45;208&#45;&gt;l&#45;alsace&#45;213 -->
<g id="edge3" class="edge">
<title>groupe&#45;ebra&#45;208&#45;&gt;l&#45;alsace&#45;213</title>
<path fill="none" stroke="black" d="M294.41,-320.99C307,-351.87 337.53,-417.57 382.85,-456 428.55,-494.75 497.06,-510.04 544.11,-516.07"/>
<polygon fill="black" stroke="black" points="543.44,-519.51 553.78,-517.2 544.26,-512.56 543.44,-519.51"/>
<text text-anchor="middle" x="422.35" y="-499.8" font-family="Times,serif" font-size="14.00">possède 100%</text>
</g>
<!-- l&#45;est&#45;republicain&#45;209 -->
<g id="node5" class="node">
<title>l&#45;est&#45;republicain&#45;209</title>
<ellipse fill="none" stroke="black" cx="597.49" cy="-466" rx="71.49" ry="18"/>
<text text-anchor="middle" x="597.49" y="-462.3" font-family="Times,serif" font-size="14.00">L’Est républicain</text>
</g>
<!-- groupe&#45;ebra&#45;208&#45;&gt;l&#45;est&#45;republicain&#45;209 -->
<g id="edge4" class="edge">
<title>groupe&#45;ebra&#45;208&#45;&gt;l&#45;est&#45;republicain&#45;209</title>
<path fill="none" stroke="black" d="M300.56,-320.13C317.47,-340.85 349.24,-376.9 382.85,-400 424.8,-428.82 479.8,-445.43 523.5,-454.78"/>
<polygon fill="black" stroke="black" points="522.65,-458.18 533.15,-456.75 524.06,-451.32 522.65,-458.18"/>
<text text-anchor="middle" x="422.35" y="-440.8" font-family="Times,serif" font-size="14.00">possède 100%</text>
</g>
<!-- le&#45;bien&#45;public&#45;214 -->
<g id="node6" class="node">
<title>le&#45;bien&#45;public&#45;214</title>
<ellipse fill="none" stroke="black" cx="597.49" cy="-412" rx="63.89" ry="18"/>
<text text-anchor="middle" x="597.49" y="-408.3" font-family="Times,serif" font-size="14.00">Le Bien public</text>
</g>
<!-- groupe&#45;ebra&#45;208&#45;&gt;le&#45;bien&#45;public&#45;214 -->
<g id="edge5" class="edge">
<title>groupe&#45;ebra&#45;208&#45;&gt;le&#45;bien&#45;public&#45;214</title>
<path fill="none" stroke="black" d="M311.95,-318.36C330.82,-329.28 357.97,-344.21 382.85,-355 430.87,-375.81 488.32,-390.62 531.55,-399.92"/>
<polygon fill="black" stroke="black" points="530.8,-403.34 541.3,-401.97 532.24,-396.49 530.8,-403.34"/>
<text text-anchor="middle" x="422.35" y="-384.8" font-family="Times,serif" font-size="14.00">possède 100%</text>
</g>
<!-- le&#45;dauphine&#45;libere&#45;217 -->
<g id="node7" class="node">
<title>le&#45;dauphine&#45;libere&#45;217</title>
<ellipse fill="none" stroke="black" cx="597.49" cy="-358" rx="79.09" ry="18"/>
<text text-anchor="middle" x="597.49" y="-354.3" font-family="Times,serif" font-size="14.00">Le Dauphiné libéré</text>
</g>
<!-- groupe&#45;ebra&#45;208&#45;&gt;le&#45;dauphine&#45;libere&#45;217 -->
<g id="edge6" class="edge">
<title>groupe&#45;ebra&#45;208&#45;&gt;le&#45;dauphine&#45;libere&#45;217</title>
<path fill="none" stroke="black" d="M337.62,-314.29C352.18,-317.21 368.14,-320.32 382.85,-323 428.15,-331.24 479,-339.61 519.73,-346.09"/>
<polygon fill="black" stroke="black" points="519.02,-349.52 529.44,-347.63 520.12,-342.61 519.02,-349.52"/>
<text text-anchor="middle" x="422.35" y="-339.8" font-family="Times,serif" font-size="14.00">possède 100%</text>
</g>
<!-- le&#45;journal&#45;de&#45;la&#45;haute&#45;marne&#45;219 -->
<g id="node8" class="node">
<title>le&#45;journal&#45;de&#45;la&#45;haute&#45;marne&#45;219</title>
<ellipse fill="none" stroke="black" cx="597.49" cy="-304" rx="117.78" ry="18"/>
<text text-anchor="middle" x="597.49" y="-300.3" font-family="Times,serif" font-size="14.00">Le Journal de la Haute&#45;Marne</text>
</g>
<!-- groupe&#45;ebra&#45;208&#45;&gt;le&#45;journal&#45;de&#45;la&#45;haute&#45;marne&#45;219 -->
<g id="edge7" class="edge">
<title>groupe&#45;ebra&#45;208&#45;&gt;le&#45;journal&#45;de&#45;la&#45;haute&#45;marne&#45;219</title>
<path fill="none" stroke="black" d="M365,-304C396.16,-304 433,-304 468,-304"/>
<polygon fill="black" stroke="black" points="467.78,-307.5 477.78,-304 467.78,-300.5 467.78,-307.5"/>
<text text-anchor="middle" x="422.35" y="-307.8" font-family="Times,serif" font-size="14.00">possède 50%</text>
</g>
<!-- le&#45;journal&#45;de&#45;saone&#45;et&#45;loire&#45;215 -->
<g id="node9" class="node">
<title>le&#45;journal&#45;de&#45;saone&#45;et&#45;loire&#45;215</title>
<ellipse fill="none" stroke="black" cx="597.49" cy="-250" rx="114.28" ry="18"/>
<text text-anchor="middle" x="597.49" y="-246.3" font-family="Times,serif" font-size="14.00">Le Journal de Saône&#45;et&#45;Loire</text>
</g>
<!-- groupe&#45;ebra&#45;208&#45;&gt;le&#45;journal&#45;de&#45;saone&#45;et&#45;loire&#45;215 -->
<g id="edge8" class="edge">
<title>groupe&#45;ebra&#45;208&#45;&gt;le&#45;journal&#45;de&#45;saone&#45;et&#45;loire&#45;215</title>
<path fill="none" stroke="black" d="M361.73,-288.97C368.86,-287.59 375.99,-286.25 382.85,-285 422.32,-277.82 466,-270.54 503.53,-264.5"/>
<polygon fill="black" stroke="black" points="503.64,-268.03 512.96,-262.99 502.53,-261.12 503.64,-268.03"/>
<text text-anchor="middle" x="422.35" y="-288.8" font-family="Times,serif" font-size="14.00">possède 100%</text>
</g>
<!-- le&#45;progres&#45;216 -->
<g id="node10" class="node">
<title>le&#45;progres&#45;216</title>
<ellipse fill="none" stroke="black" cx="597.49" cy="-196" rx="49.29" ry="18"/>
<text text-anchor="middle" x="597.49" y="-192.3" font-family="Times,serif" font-size="14.00">Le Progrès</text>
</g>
<!-- groupe&#45;ebra&#45;208&#45;&gt;le&#45;progres&#45;216 -->
<g id="edge9" class="edge">
<title>groupe&#45;ebra&#45;208&#45;&gt;le&#45;progres&#45;216</title>
<path fill="none" stroke="black" d="M312.28,-289.02C331.09,-277.85 358.02,-262.74 382.85,-252 434.49,-229.67 497.12,-214.54 541.18,-205.7"/>
<polygon fill="black" stroke="black" points="541.61,-209.18 550.75,-203.82 540.27,-202.31 541.61,-209.18"/>
<text text-anchor="middle" x="422.35" y="-255.8" font-family="Times,serif" font-size="14.00">possède 100%</text>
</g>
<!-- le&#45;republicain&#45;lorrain&#45;210 -->
<g id="node11" class="node">
<title>le&#45;republicain&#45;lorrain&#45;210</title>
<ellipse fill="none" stroke="black" cx="597.49" cy="-142" rx="90.98" ry="18"/>
<text text-anchor="middle" x="597.49" y="-138.3" font-family="Times,serif" font-size="14.00">Le Républicain lorrain</text>
</g>
<!-- groupe&#45;ebra&#45;208&#45;&gt;le&#45;republicain&#45;lorrain&#45;210 -->
<g id="edge10" class="edge">
<title>groupe&#45;ebra&#45;208&#45;&gt;le&#45;republicain&#45;lorrain&#45;210</title>
<path fill="none" stroke="black" d="M299.01,-289.21C315.36,-268.27 347.8,-229.86 382.85,-206 421.04,-180.01 470.04,-164.34 511.48,-155.02"/>
<polygon fill="black" stroke="black" points="512.15,-158.46 521.19,-152.93 510.68,-151.61 512.15,-158.46"/>
<text text-anchor="middle" x="422.35" y="-209.8" font-family="Times,serif" font-size="14.00">possède 100%</text>
</g>
<!-- vaucluse&#45;matin&#45;218 -->
<g id="node12" class="node">
<title>vaucluse&#45;matin&#45;218</title>
<ellipse fill="none" stroke="black" cx="597.49" cy="-88" rx="66.09" ry="18"/>
<text text-anchor="middle" x="597.49" y="-84.3" font-family="Times,serif" font-size="14.00">Vaucluse Matin</text>
</g>
<!-- groupe&#45;ebra&#45;208&#45;&gt;vaucluse&#45;matin&#45;218 -->
<g id="edge11" class="edge">
<title>groupe&#45;ebra&#45;208&#45;&gt;vaucluse&#45;matin&#45;218</title>
<path fill="none" stroke="black" d="M293.34,-289.1C305.08,-258.78 335.63,-189.49 382.85,-150 422.04,-117.22 477.78,-101.76 522.5,-94.48"/>
<polygon fill="black" stroke="black" points="522.75,-97.98 532.11,-93.02 521.7,-91.06 522.75,-97.98"/>
<text text-anchor="middle" x="422.35" y="-153.8" font-family="Times,serif" font-size="14.00">possède 100%</text>
</g>
<!-- vosges&#45;matin&#45;212 -->
<g id="node13" class="node">
<title>vosges&#45;matin&#45;212</title>
<ellipse fill="none" stroke="black" cx="597.49" cy="-34" rx="59.59" ry="18"/>
<text text-anchor="middle" x="597.49" y="-30.3" font-family="Times,serif" font-size="14.00">Vosges Matin</text>
</g>
<!-- groupe&#45;ebra&#45;208&#45;&gt;vosges&#45;matin&#45;212 -->
<g id="edge12" class="edge">
<title>groupe&#45;ebra&#45;208&#45;&gt;vosges&#45;matin&#45;212</title>
<path fill="none" stroke="black" d="M290.37,-288.94C297.41,-250.35 321.32,-147 382.85,-91 421.85,-55.51 480.51,-41.7 526.5,-36.51"/>
<polygon fill="black" stroke="black" points="526.79,-40 536.39,-35.52 526.09,-33.04 526.79,-40"/>
<text text-anchor="middle" x="422.35" y="-94.8" font-family="Times,serif" font-size="14.00">possède 100%</text>
</g>
</g>
</svg>
