<?xml version="1.0" encoding="UTF-8" standalone="no"?>
<!DOCTYPE svg PUBLIC "-//W3C//DTD SVG 1.1//EN"
 "http://www.w3.org/Graphics/SVG/1.1/DTD/svg11.dtd">
<!-- Generated by graphviz version 7.1.0 (20230121.1956)
 -->
<!-- Pages: 1 -->
<svg width="805pt" height="454pt"
 viewBox="0.00 0.00 805.26 454.00" xmlns="http://www.w3.org/2000/svg" xmlns:xlink="http://www.w3.org/1999/xlink">
<g id="graph0" class="graph" transform="scale(1 1) rotate(0) translate(4 450)">
<polygon fill="white" stroke="none" points="-4,4 -4,-450 801.26,-450 801.26,4 -4,4"/>
<g id="clust2" class="cluster">
<title>clusterLeaves</title>
<polygon fill="none" stroke="black" points="567.88,-8 567.88,-438 789.26,-438 789.26,-8 567.88,-8"/>
</g>
<!-- edouard&#45;coudurier&#45;266 -->
<g id="node1" class="node">
<title>edouard&#45;coudurier&#45;266</title>
<polygon fill="none" stroke="black" points="135,-237 0,-237 0,-201 135,-201 135,-237"/>
<text text-anchor="middle" x="67.5" y="-215.3" font-family="Times,serif" font-size="14.00">🧑‍💼Édouard Coudurier</text>
</g>
<!-- groupe&#45;telegramme&#45;267 -->
<g id="node2" class="node">
<title>groupe&#45;telegramme&#45;267</title>
<polygon fill="none" stroke="black" points="460.82,-224.56 356.44,-237 252.06,-224.56 252.16,-204.44 460.72,-204.44 460.82,-224.56"/>
<text text-anchor="middle" x="356.44" y="-215.3" font-family="Times,serif" font-size="14.00">Groupe Télégramme</text>
</g>
<!-- edouard&#45;coudurier&#45;266&#45;&gt;groupe&#45;telegramme&#45;267 -->
<g id="edge1" class="edge">
<title>edouard&#45;coudurier&#45;266&#45;&gt;groupe&#45;telegramme&#45;267</title>
<path fill="none" stroke="black" d="M135.41,-219C166.64,-219 204.72,-219 240.36,-219"/>
<polygon fill="black" stroke="black" points="240.32,-222.5 250.32,-219 240.32,-215.5 240.32,-222.5"/>
<text text-anchor="middle" x="193.5" y="-222.8" font-family="Times,serif" font-size="14.00">contrôle 100%</text>
</g>
<!-- bretagne&#45;magazine&#45;275 -->
<g id="node3" class="node">
<title>bretagne&#45;magazine&#45;275</title>
<ellipse fill="none" stroke="black" cx="678.57" cy="-412" rx="79.09" ry="18"/>
<text text-anchor="middle" x="678.57" y="-408.3" font-family="Times,serif" font-size="14.00">Bretagne magazine</text>
</g>
<!-- groupe&#45;telegramme&#45;267&#45;&gt;bretagne&#45;magazine&#45;275 -->
<g id="edge2" class="edge">
<title>groupe&#45;telegramme&#45;267&#45;&gt;bretagne&#45;magazine&#45;275</title>
<path fill="none" stroke="black" d="M369.94,-235.85C390.27,-262.29 432.88,-313.83 478.88,-346 516.18,-372.09 564.53,-388.45 604.19,-398.35"/>
<polygon fill="black" stroke="black" points="603.12,-401.69 613.66,-400.62 604.76,-394.89 603.12,-401.69"/>
<text text-anchor="middle" x="518.38" y="-386.8" font-family="Times,serif" font-size="14.00">possède 50%</text>
</g>
<!-- le&#45;journal&#45;des&#45;entreprises&#45;274 -->
<g id="node4" class="node">
<title>le&#45;journal&#45;des&#45;entreprises&#45;274</title>
<ellipse fill="none" stroke="black" cx="678.57" cy="-358" rx="102.88" ry="18"/>
<text text-anchor="middle" x="678.57" y="-354.3" font-family="Times,serif" font-size="14.00">Le Journal des entreprises</text>
</g>
<!-- groupe&#45;telegramme&#45;267&#45;&gt;le&#45;journal&#45;des&#45;entreprises&#45;274 -->
<g id="edge3" class="edge">
<title>groupe&#45;telegramme&#45;267&#45;&gt;le&#45;journal&#45;des&#45;entreprises&#45;274</title>
<path fill="none" stroke="black" d="M379.58,-234.51C403.41,-250.8 442.77,-276.58 478.88,-295 516.88,-314.39 527.28,-317.87 567.88,-331 578.84,-334.55 590.54,-337.88 602.07,-340.93"/>
<polygon fill="black" stroke="black" points="601.02,-344.27 611.58,-343.37 602.76,-337.49 601.02,-344.27"/>
<text text-anchor="middle" x="518.38" y="-330.8" font-family="Times,serif" font-size="14.00">possède 100%</text>
</g>
<!-- le&#45;mensuel&#45;de&#45;rennes&#45;272 -->
<g id="node5" class="node">
<title>le&#45;mensuel&#45;de&#45;rennes&#45;272</title>
<ellipse fill="none" stroke="black" cx="678.57" cy="-304" rx="92.08" ry="18"/>
<text text-anchor="middle" x="678.57" y="-300.3" font-family="Times,serif" font-size="14.00">Le Mensuel de Rennes</text>
</g>
<!-- groupe&#45;telegramme&#45;267&#45;&gt;le&#45;mensuel&#45;de&#45;rennes&#45;272 -->
<g id="edge4" class="edge">
<title>groupe&#45;telegramme&#45;267&#45;&gt;le&#45;mensuel&#45;de&#45;rennes&#45;272</title>
<path fill="none" stroke="black" d="M397.98,-232.48C421.49,-240.09 451.71,-249.55 478.88,-257 520.26,-268.35 566.93,-279.48 604.64,-288.05"/>
<polygon fill="black" stroke="black" points="603.52,-291.39 614.05,-290.18 605.07,-284.56 603.52,-291.39"/>
<text text-anchor="middle" x="518.38" y="-279.8" font-family="Times,serif" font-size="14.00">possède 100%</text>
</g>
<!-- le&#45;poher&#45;269 -->
<g id="node6" class="node">
<title>le&#45;poher&#45;269</title>
<ellipse fill="none" stroke="black" cx="678.57" cy="-250" rx="42.79" ry="18"/>
<text text-anchor="middle" x="678.57" y="-246.3" font-family="Times,serif" font-size="14.00">Le Poher</text>
</g>
<!-- groupe&#45;telegramme&#45;267&#45;&gt;le&#45;poher&#45;269 -->
<g id="edge5" class="edge">
<title>groupe&#45;telegramme&#45;267&#45;&gt;le&#45;poher&#45;269</title>
<path fill="none" stroke="black" d="M442.39,-227.23C500.52,-232.86 575.75,-240.14 625.28,-244.94"/>
<polygon fill="black" stroke="black" points="624.87,-248.41 635.16,-245.89 625.55,-241.45 624.87,-248.41"/>
<text text-anchor="middle" x="518.38" y="-241.8" font-family="Times,serif" font-size="14.00">possède 100%</text>
</g>
<!-- le&#45;telegramme&#45;268 -->
<g id="node7" class="node">
<title>le&#45;telegramme&#45;268</title>
<ellipse fill="none" stroke="black" cx="678.57" cy="-196" rx="67.69" ry="18"/>
<text text-anchor="middle" x="678.57" y="-192.3" font-family="Times,serif" font-size="14.00">Le Télégramme</text>
</g>
<!-- groupe&#45;telegramme&#45;267&#45;&gt;le&#45;telegramme&#45;268 -->
<g id="edge6" class="edge">
<title>groupe&#45;telegramme&#45;267&#45;&gt;le&#45;telegramme&#45;268</title>
<path fill="none" stroke="black" d="M461.11,-210.35C467.12,-209.88 473.08,-209.43 478.88,-209 519.18,-206.02 564.11,-203.05 601.03,-200.71"/>
<polygon fill="black" stroke="black" points="600.95,-204.22 610.71,-200.09 600.51,-197.23 600.95,-204.22"/>
<text text-anchor="middle" x="518.38" y="-212.8" font-family="Times,serif" font-size="14.00">possède 100%</text>
</g>
<!-- sept&#45;jours&#45;a&#45;brest&#45;273 -->
<g id="node8" class="node">
<title>sept&#45;jours&#45;a&#45;brest&#45;273</title>
<ellipse fill="none" stroke="black" cx="678.57" cy="-142" rx="74.99" ry="18"/>
<text text-anchor="middle" x="678.57" y="-138.3" font-family="Times,serif" font-size="14.00">Sept Jours à Brest</text>
</g>
<!-- groupe&#45;telegramme&#45;267&#45;&gt;sept&#45;jours&#45;a&#45;brest&#45;273 -->
<g id="edge7" class="edge">
<title>groupe&#45;telegramme&#45;267&#45;&gt;sept&#45;jours&#45;a&#45;brest&#45;273</title>
<path fill="none" stroke="black" d="M406.56,-203.97C428.57,-197.46 454.93,-189.97 478.88,-184 521.53,-173.36 569.77,-163.12 608.04,-155.42"/>
<polygon fill="black" stroke="black" points="608.46,-158.9 617.58,-153.51 607.09,-152.04 608.46,-158.9"/>
<text text-anchor="middle" x="518.38" y="-187.8" font-family="Times,serif" font-size="14.00">possède 100%</text>
</g>
<!-- tebeo&#45;270 -->
<g id="node9" class="node">
<title>tebeo&#45;270</title>
<ellipse fill="none" stroke="black" cx="678.57" cy="-88" rx="32.49" ry="18"/>
<text text-anchor="middle" x="678.57" y="-84.3" font-family="Times,serif" font-size="14.00">Tébéo</text>
</g>
<!-- groupe&#45;telegramme&#45;267&#45;&gt;tebeo&#45;270 -->
<g id="edge8" class="edge">
<title>groupe&#45;telegramme&#45;267&#45;&gt;tebeo&#45;270</title>
<path fill="none" stroke="black" d="M379.56,-204.14C403.38,-188.56 442.73,-164.02 478.88,-147 516.9,-129.09 527.64,-127.15 567.88,-115 590.53,-108.16 616.2,-101.77 637,-96.92"/>
<polygon fill="black" stroke="black" points="637.57,-100.39 646.54,-94.74 636.01,-93.56 637.57,-100.39"/>
<text text-anchor="middle" x="518.38" y="-150.8" font-family="Times,serif" font-size="14.00">possède 100%</text>
</g>
<!-- tebesud&#45;271 -->
<g id="node10" class="node">
<title>tebesud&#45;271</title>
<ellipse fill="none" stroke="black" cx="678.57" cy="-34" rx="40.09" ry="18"/>
<text text-anchor="middle" x="678.57" y="-30.3" font-family="Times,serif" font-size="14.00">Tébésud</text>
</g>
<!-- groupe&#45;telegramme&#45;267&#45;&gt;tebesud&#45;271 -->
<g id="edge9" class="edge">
<title>groupe&#45;telegramme&#45;267&#45;&gt;tebesud&#45;271</title>
<path fill="none" stroke="black" d="M369.12,-204.28C389.28,-179.69 432.87,-129.91 478.88,-99 524.97,-68.04 586.92,-50.87 629.32,-42.07"/>
<polygon fill="black" stroke="black" points="629.85,-45.53 638.98,-40.15 628.49,-38.66 629.85,-45.53"/>
<text text-anchor="middle" x="518.38" y="-102.8" font-family="Times,serif" font-size="14.00">possède 100%</text>
</g>
</g>
</svg>
