<?xml version="1.0" encoding="UTF-8" standalone="no"?>
<!DOCTYPE svg PUBLIC "-//W3C//DTD SVG 1.1//EN"
 "http://www.w3.org/Graphics/SVG/1.1/DTD/svg11.dtd">
<!-- Generated by graphviz version 8.1.0 (20230707.0739)
 -->
<!-- Pages: 1 -->
<svg width="1066pt" height="76pt"
 viewBox="0.00 0.00 1066.44 76.00" xmlns="http://www.w3.org/2000/svg" xmlns:xlink="http://www.w3.org/1999/xlink">
<g id="graph0" class="graph" transform="scale(1 1) rotate(0) translate(4 72)">
<polygon fill="white" stroke="none" points="-4,4 -4,-72 1062.44,-72 1062.44,4 -4,4"/>
<g id="clust2" class="cluster">
<title>clusterLeaves</title>
<polygon fill="none" stroke="black" points="885.67,-8 885.67,-60 1050.44,-60 1050.44,-8 885.67,-8"/>
</g>
<!-- jean&#45;louis&#45;louvel&#45;284 -->
<g id="node1" class="node">
<title>jean&#45;louis&#45;louvel&#45;284</title>
<polygon fill="none" stroke="black" points="131.5,-52 0,-52 0,-16 131.5,-16 131.5,-52"/>
<text text-anchor="middle" x="65.75" y="-30.07" font-family="Times,serif" font-size="14.00">🧑‍💼Jean&#45;Louis Louvel</text>
</g>
<!-- societe&#45;normande&#45;d&#45;information&#45;et&#45;de&#45;communication&#45;285 -->
<g id="node2" class="node">
<title>societe&#45;normande&#45;d&#45;information&#45;et&#45;de&#45;communication&#45;285</title>
<polygon fill="none" stroke="black" points="778.92,-39.56 509.21,-52 239.5,-39.56 239.75,-19.44 778.67,-19.44 778.92,-39.56"/>
<text text-anchor="middle" x="509.21" y="-28.95" font-family="Times,serif" font-size="14.00">Société Normande d’Information et de Communication</text>
</g>
<!-- jean&#45;louis&#45;louvel&#45;284&#45;&gt;societe&#45;normande&#45;d&#45;information&#45;et&#45;de&#45;communication&#45;285 -->
<g id="edge2" class="edge">
<title>jean&#45;louis&#45;louvel&#45;284&#45;&gt;societe&#45;normande&#45;d&#45;information&#45;et&#45;de&#45;communication&#45;285</title>
<path fill="none" stroke="black" d="M131.89,-34C159.07,-34 192.65,-34 228.47,-34"/>
<polygon fill="black" stroke="black" points="228.13,-37.5 238.13,-34 228.13,-30.5 228.13,-37.5"/>
<text text-anchor="middle" x="185.5" y="-37.2" font-family="Times,serif" font-size="14.00">possède 90%</text>
</g>
<!-- havre&#45;dimanche&#45;290 -->
<g id="node3" class="node">
<title>havre&#45;dimanche&#45;290</title>
<ellipse fill="none" stroke="black" cx="968.05" cy="-34" rx="74.38" ry="18"/>
<text text-anchor="middle" x="968.05" y="-28.95" font-family="Times,serif" font-size="14.00">Havre Dimanche</text>
</g>
<!-- societe&#45;normande&#45;d&#45;information&#45;et&#45;de&#45;communication&#45;285&#45;&gt;havre&#45;dimanche&#45;290 -->
<g id="edge1" class="edge">
<title>societe&#45;normande&#45;d&#45;information&#45;et&#45;de&#45;communication&#45;285&#45;&gt;havre&#45;dimanche&#45;290</title>
<path fill="none" stroke="black" d="M779.26,-34C816.52,-34 852.3,-34 882.44,-34"/>
<polygon fill="black" stroke="black" points="882.28,-37.5 892.28,-34 882.28,-30.5 882.28,-37.5"/>
<text text-anchor="middle" x="836.3" y="-37.2" font-family="Times,serif" font-size="14.00">possède 100%</text>
</g>
</g>
</svg>
