<?xml version="1.0" encoding="UTF-8" standalone="no"?>
<!DOCTYPE svg PUBLIC "-//W3C//DTD SVG 1.1//EN"
 "http://www.w3.org/Graphics/SVG/1.1/DTD/svg11.dtd">
<!-- Generated by graphviz version 8.1.0 (20230707.0739)
 -->
<!-- Pages: 1 -->
<svg width="344pt" height="76pt"
 viewBox="0.00 0.00 343.96 76.00" xmlns="http://www.w3.org/2000/svg" xmlns:xlink="http://www.w3.org/1999/xlink">
<g id="graph0" class="graph" transform="scale(1 1) rotate(0) translate(4 72)">
<polygon fill="white" stroke="none" points="-4,4 -4,-72 339.96,-72 339.96,4 -4,4"/>
<g id="clust2" class="cluster">
<title>clusterLeaves</title>
<polygon fill="none" stroke="black" points="230.75,-8 230.75,-60 327.96,-60 327.96,-8 230.75,-8"/>
</g>
<!-- sophia&#45;publications&#45;2 -->
<g id="node1" class="node">
<title>sophia&#45;publications&#45;2</title>
<polygon fill="none" stroke="black" points="124,-52 0,-52 0,-16 124,-16 124,-52"/>
<text text-anchor="middle" x="62" y="-28.95" font-family="Times,serif" font-size="14.00">Sophia Publications</text>
</g>
<!-- historia&#45;5 -->
<g id="node2" class="node">
<title>historia&#45;5</title>
<ellipse fill="none" stroke="black" cx="279.35" cy="-34" rx="40.6" ry="18"/>
<text text-anchor="middle" x="279.35" y="-28.95" font-family="Times,serif" font-size="14.00">Historia</text>
</g>
<!-- sophia&#45;publications&#45;2&#45;&gt;historia&#45;5 -->
<g id="edge1" class="edge">
<title>sophia&#45;publications&#45;2&#45;&gt;historia&#45;5</title>
<path fill="none" stroke="black" d="M124.42,-34C156.98,-34 196.49,-34 227.34,-34"/>
<polygon fill="black" stroke="black" points="227.28,-37.5 237.28,-34 227.28,-30.5 227.28,-37.5"/>
<text text-anchor="middle" x="181.37" y="-37.2" font-family="Times,serif" font-size="14.00">possède 100%</text>
</g>
</g>
</svg>
