<?xml version="1.0" encoding="UTF-8" standalone="no"?>
<!DOCTYPE svg PUBLIC "-//W3C//DTD SVG 1.1//EN"
 "http://www.w3.org/Graphics/SVG/1.1/DTD/svg11.dtd">
<!-- Generated by graphviz version 7.1.0 (20230121.1956)
 -->
<!-- Pages: 1 -->
<svg width="342pt" height="76pt"
 viewBox="0.00 0.00 341.99 76.00" xmlns="http://www.w3.org/2000/svg" xmlns:xlink="http://www.w3.org/1999/xlink">
<g id="graph0" class="graph" transform="scale(1 1) rotate(0) translate(4 72)">
<polygon fill="white" stroke="none" points="-4,4 -4,-72 337.99,-72 337.99,4 -4,4"/>
<g id="clust2" class="cluster">
<title>clusterLeaves</title>
<polygon fill="none" stroke="black" points="232,-8 232,-60 325.99,-60 325.99,-8 232,-8"/>
</g>
<!-- sophia&#45;publications&#45;2 -->
<g id="node1" class="node">
<title>sophia&#45;publications&#45;2</title>
<polygon fill="none" stroke="black" points="125,-52 0,-52 0,-16 125,-16 125,-52"/>
<text text-anchor="middle" x="62.5" y="-30.3" font-family="Times,serif" font-size="14.00">Sophia Publications</text>
</g>
<!-- historia&#45;5 -->
<g id="node2" class="node">
<title>historia&#45;5</title>
<ellipse fill="none" stroke="black" cx="279" cy="-34" rx="38.99" ry="18"/>
<text text-anchor="middle" x="279" y="-30.3" font-family="Times,serif" font-size="14.00">Historia</text>
</g>
<!-- sophia&#45;publications&#45;2&#45;&gt;historia&#45;5 -->
<g id="edge1" class="edge">
<title>sophia&#45;publications&#45;2&#45;&gt;historia&#45;5</title>
<path fill="none" stroke="black" d="M125.25,-34C157.96,-34 197.59,-34 228.29,-34"/>
<polygon fill="black" stroke="black" points="228.07,-37.5 238.07,-34 228.07,-30.5 228.07,-37.5"/>
<text text-anchor="middle" x="182.5" y="-37.8" font-family="Times,serif" font-size="14.00">possède 100%</text>
</g>
</g>
</svg>
