<?xml version="1.0" encoding="UTF-8" standalone="no"?>
<!DOCTYPE svg PUBLIC "-//W3C//DTD SVG 1.1//EN"
 "http://www.w3.org/Graphics/SVG/1.1/DTD/svg11.dtd">
<!-- Generated by graphviz version 7.1.0 (20230121.1956)
 -->
<!-- Pages: 1 -->
<svg width="1520pt" height="249pt"
 viewBox="0.00 0.00 1520.38 249.00" xmlns="http://www.w3.org/2000/svg" xmlns:xlink="http://www.w3.org/1999/xlink">
<g id="graph0" class="graph" transform="scale(1 1) rotate(0) translate(4 245)">
<polygon fill="white" stroke="none" points="-4,4 -4,-245 1516.38,-245 1516.38,4 -4,4"/>
<g id="clust2" class="cluster">
<title>clusterLeaves</title>
<polygon fill="none" stroke="black" points="1403.89,-100 1403.89,-152 1504.38,-152 1504.38,-100 1403.89,-100"/>
</g>
<!-- matthieu&#45;pigasse&#45;11 -->
<g id="node1" class="node">
<title>matthieu&#45;pigasse&#45;11</title>
<polygon fill="none" stroke="black" points="125,-241 0,-241 0,-205 125,-205 125,-241"/>
<text text-anchor="middle" x="62.5" y="-219.3" font-family="Times,serif" font-size="14.00">🧑‍💼Matthieu Pigasse</text>
</g>
<!-- combat&#45;solutions&#45;12 -->
<g id="node7" class="node">
<title>combat&#45;solutions&#45;12</title>
<polygon fill="none" stroke="black" points="427.5,-224.56 335.22,-237 242.95,-224.56 243.04,-204.44 427.41,-204.44 427.5,-224.56"/>
<text text-anchor="middle" x="335.22" y="-215.3" font-family="Times,serif" font-size="14.00">Combat Solutions</text>
</g>
<!-- matthieu&#45;pigasse&#45;11&#45;&gt;combat&#45;solutions&#45;12 -->
<g id="edge2" class="edge">
<title>matthieu&#45;pigasse&#45;11&#45;&gt;combat&#45;solutions&#45;12</title>
<path fill="none" stroke="black" d="M125.4,-210.17C131.33,-209.29 137.27,-208.54 143,-208 171.64,-205.32 202.77,-205.71 231.42,-207.4"/>
<polygon fill="black" stroke="black" points="230.98,-210.88 241.18,-208.04 231.43,-203.89 230.98,-210.88"/>
<text text-anchor="middle" x="179.5" y="-211.8" font-family="Times,serif" font-size="14.00">possède 78%</text>
</g>
<!-- matthieu&#45;pigasse&#45;11&#45;&gt;combat&#45;solutions&#45;12 -->
<g id="edge9" class="edge">
<title>matthieu&#45;pigasse&#45;11&#45;&gt;combat&#45;solutions&#45;12</title>
<path fill="none" stroke="black" d="M125.46,-223.47C153.16,-223.56 186.22,-223.5 216,-223 220.99,-222.92 226.09,-222.81 231.24,-222.69"/>
<polygon fill="black" stroke="black" points="231.16,-226.19 241.07,-222.44 230.98,-219.2 231.16,-226.19"/>
<text text-anchor="middle" x="179.5" y="-227.8" font-family="Times,serif" font-size="14.00">possède 78%</text>
</g>
<!-- prisa&#45;9 -->
<g id="node2" class="node">
<title>prisa&#45;9</title>
<polygon fill="none" stroke="black" points="673.67,-144 619.67,-144 619.67,-108 673.67,-108 673.67,-144"/>
<text text-anchor="middle" x="646.67" y="-122.3" font-family="Times,serif" font-size="14.00">Prisa</text>
</g>
<!-- le&#45;monde&#45;libre&#45;14 -->
<g id="node9" class="node">
<title>le&#45;monde&#45;libre&#45;14</title>
<polygon fill="none" stroke="black" points="1020.73,-131.56 938.84,-144 856.96,-131.56 857.03,-111.44 1020.66,-111.44 1020.73,-131.56"/>
<text text-anchor="middle" x="938.84" y="-122.3" font-family="Times,serif" font-size="14.00">Le Monde libre</text>
</g>
<!-- prisa&#45;9&#45;&gt;le&#45;monde&#45;libre&#45;14 -->
<g id="edge5" class="edge">
<title>prisa&#45;9&#45;&gt;le&#45;monde&#45;libre&#45;14</title>
<path fill="none" stroke="black" d="M673.94,-126C712.34,-126 785.73,-126 845.38,-126"/>
<polygon fill="black" stroke="black" points="845.22,-129.5 855.22,-126 845.22,-122.5 845.22,-129.5"/>
<text text-anchor="middle" x="802.4" y="-129.8" font-family="Times,serif" font-size="14.00">possède 20%</text>
</g>
<!-- xavier&#45;niel&#45;10 -->
<g id="node3" class="node">
<title>xavier&#45;niel&#45;10</title>
<polygon fill="none" stroke="black" points="694.17,-90 599.17,-90 599.17,-54 694.17,-54 694.17,-90"/>
<text text-anchor="middle" x="646.67" y="-68.3" font-family="Times,serif" font-size="14.00">🧑‍💼Xavier Niel</text>
</g>
<!-- xavier&#45;niel&#45;10&#45;&gt;le&#45;monde&#45;libre&#45;14 -->
<g id="edge6" class="edge">
<title>xavier&#45;niel&#45;10&#45;&gt;le&#45;monde&#45;libre&#45;14</title>
<path fill="none" stroke="black" d="M694.46,-80.45C733.18,-87.46 789.64,-97.76 838.9,-107 842.08,-107.6 845.32,-108.21 848.6,-108.82"/>
<polygon fill="black" stroke="black" points="847.85,-112.25 858.32,-110.67 849.15,-105.37 847.85,-112.25"/>
<text text-anchor="middle" x="802.4" y="-110.8" font-family="Times,serif" font-size="14.00">possède 26%</text>
</g>
<!-- daniel&#45;kretinsky&#45;92 -->
<g id="node4" class="node">
<title>daniel&#45;kretinsky&#45;92</title>
<polygon fill="none" stroke="black" points="124.5,-176 0.5,-176 0.5,-140 124.5,-140 124.5,-176"/>
<text text-anchor="middle" x="62.5" y="-154.3" font-family="Times,serif" font-size="14.00">🧑‍💼Daniel Křetínský</text>
</g>
<!-- czech&#45;media&#45;invest&#45;93 -->
<g id="node11" class="node">
<title>czech&#45;media&#45;invest&#45;93</title>
<polygon fill="none" stroke="black" points="436.68,-163.56 335.22,-176 233.77,-163.56 233.87,-143.44 436.58,-143.44 436.68,-163.56"/>
<text text-anchor="middle" x="335.22" y="-154.3" font-family="Times,serif" font-size="14.00">Czech Media Invest</text>
</g>
<!-- daniel&#45;kretinsky&#45;92&#45;&gt;czech&#45;media&#45;invest&#45;93 -->
<g id="edge11" class="edge">
<title>daniel&#45;kretinsky&#45;92&#45;&gt;czech&#45;media&#45;invest&#45;93</title>
<path fill="none" stroke="black" d="M124.93,-158C153.73,-158 188.98,-158 222.28,-158"/>
<polygon fill="black" stroke="black" points="221.97,-161.5 231.97,-158 221.97,-154.5 221.97,-161.5"/>
<text text-anchor="middle" x="179.5" y="-161.8" font-family="Times,serif" font-size="14.00">possède 50%</text>
</g>
<!-- madison&#45;cox&#45;323 -->
<g id="node5" class="node">
<title>madison&#45;cox&#45;323</title>
<polygon fill="none" stroke="black" points="699.17,-36 594.17,-36 594.17,0 699.17,0 699.17,-36"/>
<text text-anchor="middle" x="646.67" y="-14.3" font-family="Times,serif" font-size="14.00">🧑‍💼Madison Cox</text>
</g>
<!-- madison&#45;cox&#45;323&#45;&gt;le&#45;monde&#45;libre&#45;14 -->
<g id="edge12" class="edge">
<title>madison&#45;cox&#45;323&#45;&gt;le&#45;monde&#45;libre&#45;14</title>
<path fill="none" stroke="black" d="M699.62,-31.3C715.2,-35.48 732.3,-40.25 747.9,-45 788.77,-57.45 804.06,-51.26 838.9,-76 849.48,-83.52 846.29,-91.52 856.9,-99 860.71,-101.69 864.81,-104.13 869.07,-106.33"/>
<polygon fill="black" stroke="black" points="867.32,-109.38 877.87,-110.43 870.28,-103.03 867.32,-109.38"/>
<text text-anchor="middle" x="802.4" y="-79.8" font-family="Times,serif" font-size="14.00">possède 28%</text>
</g>
<!-- aol&#45;27 -->
<g id="node6" class="node">
<title>aol&#45;27</title>
<polygon fill="none" stroke="black" points="965.84,-90 911.84,-90 911.84,-54 965.84,-54 965.84,-90"/>
<text text-anchor="middle" x="938.84" y="-68.3" font-family="Times,serif" font-size="14.00">AOL</text>
</g>
<!-- huffington&#45;post&#45;28 -->
<g id="node12" class="node">
<title>huffington&#45;post&#45;28</title>
<polygon fill="none" stroke="black" points="1302.94,-77.56 1219.34,-90 1135.74,-77.56 1135.82,-57.44 1302.86,-57.44 1302.94,-77.56"/>
<text text-anchor="middle" x="1219.34" y="-68.3" font-family="Times,serif" font-size="14.00">Huffington Post</text>
</g>
<!-- aol&#45;27&#45;&gt;huffington&#45;post&#45;28 -->
<g id="edge14" class="edge">
<title>aol&#45;27&#45;&gt;huffington&#45;post&#45;28</title>
<path fill="none" stroke="black" d="M966.3,-72C1002.31,-72 1068.64,-72 1124.22,-72"/>
<polygon fill="black" stroke="black" points="1124.03,-75.5 1134.03,-72 1124.03,-68.5 1124.03,-75.5"/>
<text text-anchor="middle" x="1078.29" y="-75.8" font-family="Times,serif" font-size="14.00">possède 100%</text>
</g>
<!-- le&#45;nouveau&#45;monde&#45;13 -->
<g id="node10" class="node">
<title>le&#45;nouveau&#45;monde&#45;13</title>
<polygon fill="none" stroke="black" points="748.13,-185.56 646.67,-198 545.22,-185.56 545.32,-165.44 748.03,-165.44 748.13,-185.56"/>
<text text-anchor="middle" x="646.67" y="-176.3" font-family="Times,serif" font-size="14.00">Le Nouveau Monde</text>
</g>
<!-- combat&#45;solutions&#45;12&#45;&gt;le&#45;nouveau&#45;monde&#45;13 -->
<g id="edge8" class="edge">
<title>combat&#45;solutions&#45;12&#45;&gt;le&#45;nouveau&#45;monde&#45;13</title>
<path fill="none" stroke="black" d="M411.1,-203.95C425.45,-201.39 440.38,-198.93 454.45,-197 481.88,-193.24 511.63,-190.13 539.32,-187.64"/>
<polygon fill="black" stroke="black" points="539.48,-191.14 549.13,-186.78 538.87,-184.17 539.48,-191.14"/>
<text text-anchor="middle" x="490.95" y="-200.8" font-family="Times,serif" font-size="14.00">possède 51%</text>
</g>
<!-- huffpost&#45;26 -->
<g id="node13" class="node">
<title>huffpost&#45;26</title>
<ellipse fill="none" stroke="black" cx="1454.14" cy="-126" rx="42.49" ry="18"/>
<text text-anchor="middle" x="1454.14" y="-122.3" font-family="Times,serif" font-size="14.00">HuffPost</text>
</g>
<!-- combat&#45;solutions&#45;12&#45;&gt;huffpost&#45;26 -->
<g id="edge1" class="edge">
<title>combat&#45;solutions&#45;12&#45;&gt;huffpost&#45;26</title>
<path fill="none" stroke="black" d="M427.95,-222.16C489.52,-224.02 572.46,-226 645.67,-226 645.67,-226 645.67,-226 1220.34,-226 1298.49,-226 1380.29,-177.84 1423.03,-148.36"/>
<polygon fill="black" stroke="black" points="1424.89,-151.33 1431.05,-142.72 1420.86,-145.61 1424.89,-151.33"/>
<text text-anchor="middle" x="938.84" y="-229.8" font-family="Times,serif" font-size="14.00">possède 11%</text>
</g>
<!-- le&#45;monde&#45;sa&#45;15 -->
<g id="node8" class="node">
<title>le&#45;monde&#45;sa&#45;15</title>
<polygon fill="none" stroke="black" points="1295.48,-131.56 1219.34,-144 1143.2,-131.56 1143.27,-111.44 1295.41,-111.44 1295.48,-131.56"/>
<text text-anchor="middle" x="1219.34" y="-122.3" font-family="Times,serif" font-size="14.00">Le Monde SA</text>
</g>
<!-- le&#45;monde&#45;sa&#45;15&#45;&gt;huffpost&#45;26 -->
<g id="edge3" class="edge">
<title>le&#45;monde&#45;sa&#45;15&#45;&gt;huffpost&#45;26</title>
<path fill="none" stroke="black" d="M1295.92,-126C1329.83,-126 1369.02,-126 1399.79,-126"/>
<polygon fill="black" stroke="black" points="1399.63,-129.5 1409.63,-126 1399.63,-122.5 1399.63,-129.5"/>
<text text-anchor="middle" x="1357.39" y="-129.8" font-family="Times,serif" font-size="14.00">possède 34%</text>
</g>
<!-- le&#45;monde&#45;libre&#45;14&#45;&gt;le&#45;monde&#45;sa&#45;15 -->
<g id="edge4" class="edge">
<title>le&#45;monde&#45;libre&#45;14&#45;&gt;le&#45;monde&#45;sa&#45;15</title>
<path fill="none" stroke="black" d="M1021.14,-126C1055.91,-126 1096.55,-126 1131.87,-126"/>
<polygon fill="black" stroke="black" points="1131.62,-129.5 1141.62,-126 1131.62,-122.5 1131.62,-129.5"/>
<text text-anchor="middle" x="1078.29" y="-129.8" font-family="Times,serif" font-size="14.00">possède 75%</text>
</g>
<!-- le&#45;nouveau&#45;monde&#45;13&#45;&gt;le&#45;monde&#45;libre&#45;14 -->
<g id="edge7" class="edge">
<title>le&#45;nouveau&#45;monde&#45;13&#45;&gt;le&#45;monde&#45;libre&#45;14</title>
<path fill="none" stroke="black" d="M730.53,-165C764.18,-158.86 803.41,-151.66 838.9,-145 850.23,-142.87 862.29,-140.58 873.95,-138.35"/>
<polygon fill="black" stroke="black" points="874.32,-141.85 883.48,-136.53 873,-134.97 874.32,-141.85"/>
<text text-anchor="middle" x="802.4" y="-161.8" font-family="Times,serif" font-size="14.00">possède 26%</text>
</g>
<!-- czech&#45;media&#45;invest&#45;93&#45;&gt;le&#45;nouveau&#45;monde&#45;13 -->
<g id="edge10" class="edge">
<title>czech&#45;media&#45;invest&#45;93&#45;&gt;le&#45;nouveau&#45;monde&#45;13</title>
<path fill="none" stroke="black" d="M437.11,-155.31C466.31,-155.41 498.19,-156.34 527.45,-159 538.35,-159.99 549.75,-161.46 560.99,-163.16"/>
<polygon fill="black" stroke="black" points="560.23,-166.59 570.65,-164.7 561.33,-159.67 560.23,-166.59"/>
<text text-anchor="middle" x="490.95" y="-162.8" font-family="Times,serif" font-size="14.00">possède 49%</text>
</g>
<!-- huffington&#45;post&#45;28&#45;&gt;huffpost&#45;26 -->
<g id="edge13" class="edge">
<title>huffington&#45;post&#45;28&#45;&gt;huffpost&#45;26</title>
<path fill="none" stroke="black" d="M1277.37,-81.85C1311.41,-88.13 1355.37,-96.97 1393.89,-107 1398.98,-108.32 1404.28,-109.83 1409.52,-111.41"/>
<polygon fill="black" stroke="black" points="1408.08,-114.63 1418.67,-114.24 1410.15,-107.94 1408.08,-114.63"/>
<text text-anchor="middle" x="1357.39" y="-110.8" font-family="Times,serif" font-size="14.00">possède 51%</text>
</g>
</g>
</svg>
