<?xml version="1.0" encoding="UTF-8" standalone="no"?>
<!DOCTYPE svg PUBLIC "-//W3C//DTD SVG 1.1//EN"
 "http://www.w3.org/Graphics/SVG/1.1/DTD/svg11.dtd">
<!-- Generated by graphviz version 8.1.0 (20230707.0739)
 -->
<!-- Pages: 1 -->
<svg width="1552pt" height="251pt"
 viewBox="0.00 0.00 1551.56 250.50" xmlns="http://www.w3.org/2000/svg" xmlns:xlink="http://www.w3.org/1999/xlink">
<g id="graph0" class="graph" transform="scale(1 1) rotate(0) translate(4 246.5)">
<polygon fill="white" stroke="none" points="-4,4 -4,-246.5 1547.56,-246.5 1547.56,4 -4,4"/>
<g id="clust2" class="cluster">
<title>clusterLeaves</title>
<polygon fill="none" stroke="black" points="1431.18,-100 1431.18,-152 1535.56,-152 1535.56,-100 1431.18,-100"/>
</g>
<!-- matthieu&#45;pigasse&#45;11 -->
<g id="node1" class="node">
<title>matthieu&#45;pigasse&#45;11</title>
<polygon fill="none" stroke="black" points="124,-239 0,-239 0,-203 124,-203 124,-239"/>
<text text-anchor="middle" x="62" y="-217.07" font-family="Times,serif" font-size="14.00">🧑‍💼Matthieu Pigasse</text>
</g>
<!-- combat&#45;solutions&#45;12 -->
<g id="node7" class="node">
<title>combat&#45;solutions&#45;12</title>
<polygon fill="none" stroke="black" points="434.23,-222.56 337.86,-235 241.49,-222.56 241.58,-202.44 434.14,-202.44 434.23,-222.56"/>
<text text-anchor="middle" x="337.86" y="-211.95" font-family="Times,serif" font-size="14.00">Combat Solutions</text>
</g>
<!-- matthieu&#45;pigasse&#45;11&#45;&gt;combat&#45;solutions&#45;12 -->
<g id="edge2" class="edge">
<title>matthieu&#45;pigasse&#45;11&#45;&gt;combat&#45;solutions&#45;12</title>
<path fill="none" stroke="black" d="M124.09,-208.66C130.12,-207.78 136.17,-207.03 142,-206.5 170.57,-203.9 201.56,-204.17 230.25,-205.69"/>
<polygon fill="black" stroke="black" points="229.93,-209.24 240.12,-206.34 230.34,-202.25 229.93,-209.24"/>
<text text-anchor="middle" x="178" y="-210.2" font-family="Times,serif" font-size="14.00">possède 78%</text>
</g>
<!-- matthieu&#45;pigasse&#45;11&#45;&gt;combat&#45;solutions&#45;12 -->
<g id="edge9" class="edge">
<title>matthieu&#45;pigasse&#45;11&#45;&gt;combat&#45;solutions&#45;12</title>
<path fill="none" stroke="black" d="M124.24,-222.7C130.24,-222.82 136.24,-222.93 142,-223 174,-223.4 182.01,-223.78 214,-223 219.4,-222.87 224.93,-222.7 230.51,-222.51"/>
<polygon fill="black" stroke="black" points="230.43,-225.98 240.3,-222.12 230.18,-218.99 230.43,-225.98"/>
<text text-anchor="middle" x="178" y="-227.2" font-family="Times,serif" font-size="14.00">possède 78%</text>
</g>
<!-- prisa&#45;9 -->
<g id="node2" class="node">
<title>prisa&#45;9</title>
<polygon fill="none" stroke="black" points="684.58,-144 630.58,-144 630.58,-108 684.58,-108 684.58,-144"/>
<text text-anchor="middle" x="657.58" y="-120.95" font-family="Times,serif" font-size="14.00">Prisa</text>
</g>
<!-- le&#45;monde&#45;libre&#45;14 -->
<g id="node9" class="node">
<title>le&#45;monde&#45;libre&#45;14</title>
<polygon fill="none" stroke="black" points="1042.67,-131.56 957.06,-144 871.44,-131.56 871.52,-111.44 1042.59,-111.44 1042.67,-131.56"/>
<text text-anchor="middle" x="957.06" y="-120.95" font-family="Times,serif" font-size="14.00">Le Monde libre</text>
</g>
<!-- prisa&#45;9&#45;&gt;le&#45;monde&#45;libre&#45;14 -->
<g id="edge5" class="edge">
<title>prisa&#45;9&#45;&gt;le&#45;monde&#45;libre&#45;14</title>
<path fill="none" stroke="black" d="M684.98,-126C724.01,-126 799.12,-126 860.39,-126"/>
<polygon fill="black" stroke="black" points="860.27,-129.5 870.27,-126 860.27,-122.5 860.27,-129.5"/>
<text text-anchor="middle" x="817.44" y="-129.2" font-family="Times,serif" font-size="14.00">possède 20%</text>
</g>
<!-- xavier&#45;niel&#45;10 -->
<g id="node3" class="node">
<title>xavier&#45;niel&#45;10</title>
<polygon fill="none" stroke="black" points="704.58,-90 610.58,-90 610.58,-54 704.58,-54 704.58,-90"/>
<text text-anchor="middle" x="657.58" y="-68.08" font-family="Times,serif" font-size="14.00">🧑‍💼Xavier Niel</text>
</g>
<!-- xavier&#45;niel&#45;10&#45;&gt;le&#45;monde&#45;libre&#45;14 -->
<g id="edge6" class="edge">
<title>xavier&#45;niel&#45;10&#45;&gt;le&#45;monde&#45;libre&#45;14</title>
<path fill="none" stroke="black" d="M704.71,-79.57C744.23,-86.14 802.65,-96.06 853.44,-105.5 859.39,-106.61 865.53,-107.77 871.71,-108.96"/>
<polygon fill="black" stroke="black" points="870.63,-112.51 881.12,-110.98 871.97,-105.64 870.63,-112.51"/>
<text text-anchor="middle" x="817.44" y="-109.2" font-family="Times,serif" font-size="14.00">possède 26%</text>
</g>
<!-- daniel&#45;kretinsky&#45;92 -->
<g id="node4" class="node">
<title>daniel&#45;kretinsky&#45;92</title>
<polygon fill="none" stroke="black" points="123.62,-172 0.38,-172 0.38,-136 123.62,-136 123.62,-172"/>
<text text-anchor="middle" x="62" y="-150.07" font-family="Times,serif" font-size="14.00">🧑‍💼Daniel Křetínský</text>
</g>
<!-- czech&#45;media&#45;invest&#45;93 -->
<g id="node11" class="node">
<title>czech&#45;media&#45;invest&#45;93</title>
<polygon fill="none" stroke="black" points="443.72,-159.56 337.86,-172 232,-159.56 232.1,-139.44 443.62,-139.44 443.72,-159.56"/>
<text text-anchor="middle" x="337.86" y="-148.95" font-family="Times,serif" font-size="14.00">Czech Media Invest</text>
</g>
<!-- daniel&#45;kretinsky&#45;92&#45;&gt;czech&#45;media&#45;invest&#45;93 -->
<g id="edge11" class="edge">
<title>daniel&#45;kretinsky&#45;92&#45;&gt;czech&#45;media&#45;invest&#45;93</title>
<path fill="none" stroke="black" d="M124.12,-154C152.64,-154 187.57,-154 220.81,-154"/>
<polygon fill="black" stroke="black" points="220.54,-157.5 230.54,-154 220.54,-150.5 220.54,-157.5"/>
<text text-anchor="middle" x="178" y="-157.2" font-family="Times,serif" font-size="14.00">possède 50%</text>
</g>
<!-- madison&#45;cox&#45;323 -->
<g id="node5" class="node">
<title>madison&#45;cox&#45;323</title>
<polygon fill="none" stroke="black" points="709.83,-36 605.33,-36 605.33,0 709.83,0 709.83,-36"/>
<text text-anchor="middle" x="657.58" y="-14.07" font-family="Times,serif" font-size="14.00">🧑‍💼Madison Cox</text>
</g>
<!-- madison&#45;cox&#45;323&#45;&gt;le&#45;monde&#45;libre&#45;14 -->
<g id="edge12" class="edge">
<title>madison&#45;cox&#45;323&#45;&gt;le&#45;monde&#45;libre&#45;14</title>
<path fill="none" stroke="black" d="M710.2,-30.69C727.21,-35.04 746.18,-40.05 763.44,-45 803.77,-56.57 819.57,-48.73 853.44,-73.5 864.64,-81.69 860.25,-90.8 871.44,-99 875.25,-101.79 879.36,-104.3 883.65,-106.56"/>
<polygon fill="black" stroke="black" points="881.72,-109.99 892.25,-111.11 884.71,-103.67 881.72,-109.99"/>
<text text-anchor="middle" x="817.44" y="-77.2" font-family="Times,serif" font-size="14.00">possède 28%</text>
</g>
<!-- aol&#45;27 -->
<g id="node6" class="node">
<title>aol&#45;27</title>
<polygon fill="none" stroke="black" points="984.06,-90 930.06,-90 930.06,-54 984.06,-54 984.06,-90"/>
<text text-anchor="middle" x="957.06" y="-66.95" font-family="Times,serif" font-size="14.00">AOL</text>
</g>
<!-- huffington&#45;post&#45;28 -->
<g id="node12" class="node">
<title>huffington&#45;post&#45;28</title>
<polygon fill="none" stroke="black" points="1331.18,-77.56 1244.3,-90 1157.42,-77.56 1157.5,-57.44 1331.1,-57.44 1331.18,-77.56"/>
<text text-anchor="middle" x="1244.3" y="-66.95" font-family="Times,serif" font-size="14.00">Huffington Post</text>
</g>
<!-- aol&#45;27&#45;&gt;huffington&#45;post&#45;28 -->
<g id="edge14" class="edge">
<title>aol&#45;27&#45;&gt;huffington&#45;post&#45;28</title>
<path fill="none" stroke="black" d="M984.38,-72C1020.92,-72 1088.97,-72 1146.14,-72"/>
<polygon fill="black" stroke="black" points="1146.04,-75.5 1156.04,-72 1146.04,-68.5 1146.04,-75.5"/>
<text text-anchor="middle" x="1100.05" y="-75.2" font-family="Times,serif" font-size="14.00">possède 100%</text>
</g>
<!-- le&#45;nouveau&#45;monde&#45;13 -->
<g id="node10" class="node">
<title>le&#45;nouveau&#45;monde&#45;13</title>
<polygon fill="none" stroke="black" points="763.44,-185.56 657.58,-198 551.72,-185.56 551.82,-165.44 763.34,-165.44 763.44,-185.56"/>
<text text-anchor="middle" x="657.58" y="-174.95" font-family="Times,serif" font-size="14.00">Le Nouveau Monde</text>
</g>
<!-- combat&#45;solutions&#45;12&#45;&gt;le&#45;nouveau&#45;monde&#45;13 -->
<g id="edge8" class="edge">
<title>combat&#45;solutions&#45;12&#45;&gt;le&#45;nouveau&#45;monde&#45;13</title>
<path fill="none" stroke="black" d="M418.33,-201.97C432.74,-199.57 447.65,-197.29 461.72,-195.5 488.17,-192.14 516.74,-189.38 543.64,-187.18"/>
<polygon fill="black" stroke="black" points="543.56,-190.61 553.25,-186.32 543,-183.63 543.56,-190.61"/>
<text text-anchor="middle" x="497.72" y="-199.2" font-family="Times,serif" font-size="14.00">possède 51%</text>
</g>
<!-- huffpost&#45;26 -->
<g id="node13" class="node">
<title>huffpost&#45;26</title>
<ellipse fill="none" stroke="black" cx="1483.37" cy="-126" rx="44.19" ry="18"/>
<text text-anchor="middle" x="1483.37" y="-120.95" font-family="Times,serif" font-size="14.00">HuffPost</text>
</g>
<!-- combat&#45;solutions&#45;12&#45;&gt;huffpost&#45;26 -->
<g id="edge1" class="edge">
<title>combat&#45;solutions&#45;12&#45;&gt;huffpost&#45;26</title>
<path fill="none" stroke="black" d="M434.42,-221.12C497.49,-223.49 581.95,-226 656.58,-226 656.58,-226 656.58,-226 1245.3,-226 1325,-226 1408.75,-177.43 1452.2,-147.99"/>
<polygon fill="black" stroke="black" points="1453.86,-150.41 1460.1,-141.85 1449.88,-144.65 1453.86,-150.41"/>
<text text-anchor="middle" x="957.06" y="-229.2" font-family="Times,serif" font-size="14.00">possède 11%</text>
</g>
<!-- le&#45;monde&#45;sa&#45;15 -->
<g id="node8" class="node">
<title>le&#45;monde&#45;sa&#45;15</title>
<polygon fill="none" stroke="black" points="1323.59,-131.56 1244.3,-144 1165.01,-131.56 1165.09,-111.44 1323.52,-111.44 1323.59,-131.56"/>
<text text-anchor="middle" x="1244.3" y="-120.95" font-family="Times,serif" font-size="14.00">Le Monde SA</text>
</g>
<!-- le&#45;monde&#45;sa&#45;15&#45;&gt;huffpost&#45;26 -->
<g id="edge3" class="edge">
<title>le&#45;monde&#45;sa&#45;15&#45;&gt;huffpost&#45;26</title>
<path fill="none" stroke="black" d="M1323.91,-126C1358,-126 1397.08,-126 1427.9,-126"/>
<polygon fill="black" stroke="black" points="1427.86,-129.5 1437.86,-126 1427.86,-122.5 1427.86,-129.5"/>
<text text-anchor="middle" x="1385.18" y="-129.2" font-family="Times,serif" font-size="14.00">possède 34%</text>
</g>
<!-- le&#45;monde&#45;libre&#45;14&#45;&gt;le&#45;monde&#45;sa&#45;15 -->
<g id="edge4" class="edge">
<title>le&#45;monde&#45;libre&#45;14&#45;&gt;le&#45;monde&#45;sa&#45;15</title>
<path fill="none" stroke="black" d="M1042.87,-126C1077.84,-126 1118.4,-126 1153.85,-126"/>
<polygon fill="black" stroke="black" points="1153.67,-129.5 1163.67,-126 1153.67,-122.5 1153.67,-129.5"/>
<text text-anchor="middle" x="1100.05" y="-129.2" font-family="Times,serif" font-size="14.00">possède 75%</text>
</g>
<!-- le&#45;nouveau&#45;monde&#45;13&#45;&gt;le&#45;monde&#45;libre&#45;14 -->
<g id="edge7" class="edge">
<title>le&#45;nouveau&#45;monde&#45;13&#45;&gt;le&#45;monde&#45;libre&#45;14</title>
<path fill="none" stroke="black" d="M746.92,-164.97C780.32,-159.18 818.66,-152.42 853.44,-146 865.99,-143.68 879.39,-141.13 892.22,-138.64"/>
<polygon fill="black" stroke="black" points="892.69,-141.92 901.83,-136.58 891.35,-135.05 892.69,-141.92"/>
<text text-anchor="middle" x="817.44" y="-162.2" font-family="Times,serif" font-size="14.00">possède 26%</text>
</g>
<!-- czech&#45;media&#45;invest&#45;93&#45;&gt;le&#45;nouveau&#45;monde&#45;13 -->
<g id="edge10" class="edge">
<title>czech&#45;media&#45;invest&#45;93&#45;&gt;le&#45;nouveau&#45;monde&#45;13</title>
<path fill="none" stroke="black" d="M443.98,-151.17C473.11,-151.38 504.69,-152.52 533.72,-155.5 549.69,-157.14 566.67,-159.87 582.75,-162.93"/>
<polygon fill="black" stroke="black" points="581.67,-166.48 592.16,-164.98 583.02,-159.61 581.67,-166.48"/>
<text text-anchor="middle" x="497.72" y="-159.2" font-family="Times,serif" font-size="14.00">possède 49%</text>
</g>
<!-- huffington&#45;post&#45;28&#45;&gt;huffpost&#45;26 -->
<g id="edge13" class="edge">
<title>huffington&#45;post&#45;28&#45;&gt;huffpost&#45;26</title>
<path fill="none" stroke="black" d="M1306.4,-81.55C1340.44,-87.39 1383.44,-95.63 1421.18,-105.5 1427.16,-107.06 1433.39,-108.9 1439.5,-110.82"/>
<polygon fill="black" stroke="black" points="1438,-114.34 1448.59,-114.11 1440.17,-107.69 1438,-114.34"/>
<text text-anchor="middle" x="1385.18" y="-109.2" font-family="Times,serif" font-size="14.00">possède 51%</text>
</g>
</g>
</svg>
