<?xml version="1.0" encoding="UTF-8" standalone="no"?>
<!DOCTYPE svg PUBLIC "-//W3C//DTD SVG 1.1//EN"
 "http://www.w3.org/Graphics/SVG/1.1/DTD/svg11.dtd">
<!-- Generated by graphviz version 7.1.0 (20230121.1956)
 -->
<!-- Pages: 1 -->
<svg width="554pt" height="76pt"
 viewBox="0.00 0.00 553.59 76.00" xmlns="http://www.w3.org/2000/svg" xmlns:xlink="http://www.w3.org/1999/xlink">
<g id="graph0" class="graph" transform="scale(1 1) rotate(0) translate(4 72)">
<polygon fill="white" stroke="none" points="-4,4 -4,-72 549.59,-72 549.59,4 -4,4"/>
<g id="clust2" class="cluster">
<title>clusterLeaves</title>
<polygon fill="none" stroke="black" points="437.1,-8 437.1,-60 537.59,-60 537.59,-8 437.1,-8"/>
</g>
<!-- aol&#45;27 -->
<g id="node1" class="node">
<title>aol&#45;27</title>
<polygon fill="none" stroke="black" points="54,-52 0,-52 0,-16 54,-16 54,-52"/>
<text text-anchor="middle" x="27" y="-30.3" font-family="Times,serif" font-size="14.00">AOL</text>
</g>
<!-- huffington&#45;post&#45;28 -->
<g id="node2" class="node">
<title>huffington&#45;post&#45;28</title>
<polygon fill="none" stroke="black" points="336.15,-39.56 252.55,-52 168.95,-39.56 169.03,-19.44 336.07,-19.44 336.15,-39.56"/>
<text text-anchor="middle" x="252.55" y="-30.3" font-family="Times,serif" font-size="14.00">Huffington Post</text>
</g>
<!-- aol&#45;27&#45;&gt;huffington&#45;post&#45;28 -->
<g id="edge1" class="edge">
<title>aol&#45;27&#45;&gt;huffington&#45;post&#45;28</title>
<path fill="none" stroke="black" d="M54.08,-34C79.55,-34 119.87,-34 157.45,-34"/>
<polygon fill="black" stroke="black" points="156.97,-37.5 166.97,-34 156.97,-30.5 156.97,-37.5"/>
<text text-anchor="middle" x="111.5" y="-37.8" font-family="Times,serif" font-size="14.00">possède 100%</text>
</g>
<!-- huffpost&#45;26 -->
<g id="node3" class="node">
<title>huffpost&#45;26</title>
<ellipse fill="none" stroke="black" cx="487.35" cy="-34" rx="42.49" ry="18"/>
<text text-anchor="middle" x="487.35" y="-30.3" font-family="Times,serif" font-size="14.00">HuffPost</text>
</g>
<!-- huffington&#45;post&#45;28&#45;&gt;huffpost&#45;26 -->
<g id="edge2" class="edge">
<title>huffington&#45;post&#45;28&#45;&gt;huffpost&#45;26</title>
<path fill="none" stroke="black" d="M336.61,-34C368.74,-34 404.58,-34 433.14,-34"/>
<polygon fill="black" stroke="black" points="432.98,-37.5 442.98,-34 432.98,-30.5 432.98,-37.5"/>
<text text-anchor="middle" x="390.6" y="-37.8" font-family="Times,serif" font-size="14.00">possède 51%</text>
</g>
</g>
</svg>
