<?xml version="1.0" encoding="UTF-8" standalone="no"?>
<!DOCTYPE svg PUBLIC "-//W3C//DTD SVG 1.1//EN"
 "http://www.w3.org/Graphics/SVG/1.1/DTD/svg11.dtd">
<!-- Generated by graphviz version 8.1.0 (20230707.0739)
 -->
<!-- Pages: 1 -->
<svg width="1113pt" height="76pt"
 viewBox="0.00 0.00 1112.93 76.00" xmlns="http://www.w3.org/2000/svg" xmlns:xlink="http://www.w3.org/1999/xlink">
<g id="graph0" class="graph" transform="scale(1 1) rotate(0) translate(4 72)">
<polygon fill="white" stroke="none" points="-4,4 -4,-72 1108.93,-72 1108.93,4 -4,4"/>
<g id="clust2" class="cluster">
<title>clusterLeaves</title>
<polygon fill="none" stroke="black" points="1002.79,-8 1002.79,-60 1096.93,-60 1096.93,-8 1002.79,-8"/>
</g>
<!-- bernard&#45;arnault&#45;42 -->
<g id="node1" class="node">
<title>bernard&#45;arnault&#45;42</title>
<polygon fill="none" stroke="black" points="118,-52 0,-52 0,-16 118,-16 118,-52"/>
<text text-anchor="middle" x="59" y="-30.07" font-family="Times,serif" font-size="14.00">🧑‍💼Bernard Arnault</text>
</g>
<!-- agache&#45;sca&#45;348 -->
<g id="node4" class="node">
<title>agache&#45;sca&#45;348</title>
<polygon fill="none" stroke="black" points="381.44,-39.56 307.85,-52 234.25,-39.56 234.32,-19.44 381.37,-19.44 381.44,-39.56"/>
<text text-anchor="middle" x="307.85" y="-28.95" font-family="Times,serif" font-size="14.00">Agache SCA</text>
</g>
<!-- bernard&#45;arnault&#45;42&#45;&gt;agache&#45;sca&#45;348 -->
<g id="edge4" class="edge">
<title>bernard&#45;arnault&#45;42&#45;&gt;agache&#45;sca&#45;348</title>
<path fill="none" stroke="black" d="M118.5,-34C149.76,-34 188.79,-34 223.2,-34"/>
<polygon fill="black" stroke="black" points="223.19,-37.5 233.19,-34 223.19,-30.5 223.19,-37.5"/>
<text text-anchor="middle" x="176.12" y="-37.2" font-family="Times,serif" font-size="14.00">contrôle 100%</text>
</g>
<!-- groupe&#45;les&#45;echos&#45;48 -->
<g id="node2" class="node">
<title>groupe&#45;les&#45;echos&#45;48</title>
<polygon fill="none" stroke="black" points="896.04,-39.56 797.78,-52 699.51,-39.56 699.6,-19.44 895.95,-19.44 896.04,-39.56"/>
<text text-anchor="middle" x="797.78" y="-28.95" font-family="Times,serif" font-size="14.00">Groupe Les Échos</text>
</g>
<!-- investir&#45;50 -->
<g id="node5" class="node">
<title>investir&#45;50</title>
<ellipse fill="none" stroke="black" cx="1049.86" cy="-34" rx="39.07" ry="18"/>
<text text-anchor="middle" x="1049.86" y="-28.95" font-family="Times,serif" font-size="14.00">Investir</text>
</g>
<!-- groupe&#45;les&#45;echos&#45;48&#45;&gt;investir&#45;50 -->
<g id="edge1" class="edge">
<title>groupe&#45;les&#45;echos&#45;48&#45;&gt;investir&#45;50</title>
<path fill="none" stroke="black" d="M896.18,-34C931.57,-34 970.07,-34 999.55,-34"/>
<polygon fill="black" stroke="black" points="999.39,-37.5 1009.39,-34 999.39,-30.5 999.39,-37.5"/>
<text text-anchor="middle" x="953.42" y="-37.2" font-family="Times,serif" font-size="14.00">possède 100%</text>
</g>
<!-- lvmh&#45;43 -->
<g id="node3" class="node">
<title>lvmh&#45;43</title>
<polygon fill="none" stroke="black" points="584.76,-39.56 537.1,-52 489.44,-39.56 489.49,-19.44 584.71,-19.44 584.76,-39.56"/>
<text text-anchor="middle" x="537.1" y="-28.95" font-family="Times,serif" font-size="14.00">LVMH</text>
</g>
<!-- lvmh&#45;43&#45;&gt;groupe&#45;les&#45;echos&#45;48 -->
<g id="edge2" class="edge">
<title>lvmh&#45;43&#45;&gt;groupe&#45;les&#45;echos&#45;48</title>
<path fill="none" stroke="black" d="M585.24,-34C614.16,-34 652.43,-34 688.46,-34"/>
<polygon fill="black" stroke="black" points="688.06,-37.5 698.06,-34 688.06,-30.5 688.06,-37.5"/>
<text text-anchor="middle" x="642.13" y="-37.2" font-family="Times,serif" font-size="14.00">possède 100%</text>
</g>
<!-- agache&#45;sca&#45;348&#45;&gt;lvmh&#45;43 -->
<g id="edge3" class="edge">
<title>agache&#45;sca&#45;348&#45;&gt;lvmh&#45;43</title>
<path fill="none" stroke="black" d="M381.69,-34C412.89,-34 448.81,-34 478.16,-34"/>
<polygon fill="black" stroke="black" points="478.06,-37.5 488.06,-34 478.06,-30.5 478.06,-37.5"/>
<text text-anchor="middle" x="435.44" y="-37.2" font-family="Times,serif" font-size="14.00">possède 48%</text>
</g>
</g>
</svg>
