<?xml version="1.0" encoding="UTF-8" standalone="no"?>
<!DOCTYPE svg PUBLIC "-//W3C//DTD SVG 1.1//EN"
 "http://www.w3.org/Graphics/SVG/1.1/DTD/svg11.dtd">
<!-- Generated by graphviz version 8.1.0 (20230707.0739)
 -->
<!-- Pages: 1 -->
<svg width="987pt" height="130pt"
 viewBox="0.00 0.00 987.50 130.00" xmlns="http://www.w3.org/2000/svg" xmlns:xlink="http://www.w3.org/1999/xlink">
<g id="graph0" class="graph" transform="scale(1 1) rotate(0) translate(4 126)">
<polygon fill="white" stroke="none" points="-4,4 -4,-126 983.5,-126 983.5,4 -4,4"/>
<g id="clust2" class="cluster">
<title>clusterLeaves</title>
<polygon fill="none" stroke="black" points="747.36,-8 747.36,-114 971.5,-114 971.5,-8 747.36,-8"/>
</g>
<!-- iskandar&#45;safa&#45;86 -->
<g id="node1" class="node">
<title>iskandar&#45;safa&#45;86</title>
<polygon fill="none" stroke="black" points="104.5,-79 0,-79 0,-43 104.5,-43 104.5,-79"/>
<text text-anchor="middle" x="52.25" y="-57.08" font-family="Times,serif" font-size="14.00">🧑‍💼Iskandar Safa</text>
</g>
<!-- privinvest&#45;87 -->
<g id="node2" class="node">
<title>privinvest&#45;87</title>
<polygon fill="none" stroke="black" points="338.61,-66.56 278.93,-79 219.25,-66.56 219.31,-46.44 338.55,-46.44 338.61,-66.56"/>
<text text-anchor="middle" x="278.93" y="-55.95" font-family="Times,serif" font-size="14.00">Privinvest</text>
</g>
<!-- iskandar&#45;safa&#45;86&#45;&gt;privinvest&#45;87 -->
<g id="edge1" class="edge">
<title>iskandar&#45;safa&#45;86&#45;&gt;privinvest&#45;87</title>
<path fill="none" stroke="black" d="M104.8,-61C135.54,-61 174.98,-61 208.45,-61"/>
<polygon fill="black" stroke="black" points="208.09,-64.5 218.09,-61 208.09,-57.5 208.09,-64.5"/>
<text text-anchor="middle" x="161.88" y="-64.2" font-family="Times,serif" font-size="14.00">possède 100%</text>
</g>
<!-- groupe&#45;valmonde&#45;88 -->
<g id="node3" class="node">
<title>groupe&#45;valmonde&#45;88</title>
<polygon fill="none" stroke="black" points="640.61,-66.56 543.61,-79 446.61,-66.56 446.7,-46.44 640.52,-46.44 640.61,-66.56"/>
<text text-anchor="middle" x="543.61" y="-55.95" font-family="Times,serif" font-size="14.00">Groupe Valmonde</text>
</g>
<!-- privinvest&#45;87&#45;&gt;groupe&#45;valmonde&#45;88 -->
<g id="edge2" class="edge">
<title>privinvest&#45;87&#45;&gt;groupe&#45;valmonde&#45;88</title>
<path fill="none" stroke="black" d="M338.88,-61C367.41,-61 402.56,-61 435.59,-61"/>
<polygon fill="black" stroke="black" points="435.22,-64.5 445.22,-61 435.22,-57.5 435.22,-64.5"/>
<text text-anchor="middle" x="392.61" y="-64.2" font-family="Times,serif" font-size="14.00">possède 50%</text>
</g>
<!-- mieux&#45;vivre&#45;votre&#45;argent&#45;90 -->
<g id="node4" class="node">
<title>mieux&#45;vivre&#45;votre&#45;argent&#45;90</title>
<ellipse fill="none" stroke="black" cx="859.43" cy="-88" rx="104.07" ry="18"/>
<text text-anchor="middle" x="859.43" y="-82.95" font-family="Times,serif" font-size="14.00">Mieux vivre votre argent</text>
</g>
<!-- groupe&#45;valmonde&#45;88&#45;&gt;mieux&#45;vivre&#45;votre&#45;argent&#45;90 -->
<g id="edge3" class="edge">
<title>groupe&#45;valmonde&#45;88&#45;&gt;mieux&#45;vivre&#45;votre&#45;argent&#45;90</title>
<path fill="none" stroke="black" d="M630.36,-68.38C668.68,-71.67 714.18,-75.59 754.42,-79.05"/>
<polygon fill="black" stroke="black" points="754.09,-82.62 764.35,-79.99 754.69,-75.65 754.09,-82.62"/>
<text text-anchor="middle" x="697.99" y="-79.2" font-family="Times,serif" font-size="14.00">possède 100%</text>
</g>
<!-- valeurs&#45;actuelles&#45;89 -->
<g id="node5" class="node">
<title>valeurs&#45;actuelles&#45;89</title>
<ellipse fill="none" stroke="black" cx="859.43" cy="-34" rx="73.36" ry="18"/>
<text text-anchor="middle" x="859.43" y="-28.95" font-family="Times,serif" font-size="14.00">Valeurs actuelles</text>
</g>
<!-- groupe&#45;valmonde&#45;88&#45;&gt;valeurs&#45;actuelles&#45;89 -->
<g id="edge4" class="edge">
<title>groupe&#45;valmonde&#45;88&#45;&gt;valeurs&#45;actuelles&#45;89</title>
<path fill="none" stroke="black" d="M641.01,-52.06C646.97,-51.52 652.87,-51 658.61,-50.5 698.06,-47.05 741.91,-43.41 778.46,-40.43"/>
<polygon fill="black" stroke="black" points="778.38,-43.87 788.06,-39.57 777.81,-36.89 778.38,-43.87"/>
<text text-anchor="middle" x="697.99" y="-53.2" font-family="Times,serif" font-size="14.00">possède 100%</text>
</g>
</g>
</svg>
