<?xml version="1.0" encoding="UTF-8" standalone="no"?>
<!DOCTYPE svg PUBLIC "-//W3C//DTD SVG 1.1//EN"
 "http://www.w3.org/Graphics/SVG/1.1/DTD/svg11.dtd">
<!-- Generated by graphviz version 7.1.0 (20230121.1956)
 -->
<!-- Pages: 1 -->
<svg width="1045pt" height="130pt"
 viewBox="0.00 0.00 1044.95 130.00" xmlns="http://www.w3.org/2000/svg" xmlns:xlink="http://www.w3.org/1999/xlink">
<g id="graph0" class="graph" transform="scale(1 1) rotate(0) translate(4 126)">
<polygon fill="white" stroke="none" points="-4,4 -4,-126 1040.95,-126 1040.95,4 -4,4"/>
<g id="clust2" class="cluster">
<title>clusterLeaves</title>
<polygon fill="none" stroke="black" points="862.16,-8 862.16,-114 1028.95,-114 1028.95,-8 862.16,-8"/>
</g>
<!-- jean&#45;louis&#45;louvel&#45;284 -->
<g id="node1" class="node">
<title>jean&#45;louis&#45;louvel&#45;284</title>
<polygon fill="none" stroke="black" points="132,-79 0,-79 0,-43 132,-43 132,-79"/>
<text text-anchor="middle" x="66" y="-57.3" font-family="Times,serif" font-size="14.00">🧑‍💼Jean&#45;Louis Louvel</text>
</g>
<!-- societe&#45;normande&#45;d&#45;information&#45;et&#45;de&#45;communication&#45;285 -->
<g id="node2" class="node">
<title>societe&#45;normande&#45;d&#45;information&#45;et&#45;de&#45;communication&#45;285</title>
<polygon fill="none" stroke="black" points="755.24,-66.56 498.08,-79 240.92,-66.56 241.16,-46.44 755,-46.44 755.24,-66.56"/>
<text text-anchor="middle" x="498.08" y="-57.3" font-family="Times,serif" font-size="14.00">Société Normande d’Information et de Communication</text>
</g>
<!-- jean&#45;louis&#45;louvel&#45;284&#45;&gt;societe&#45;normande&#45;d&#45;information&#45;et&#45;de&#45;communication&#45;285 -->
<g id="edge1" class="edge">
<title>jean&#45;louis&#45;louvel&#45;284&#45;&gt;societe&#45;normande&#45;d&#45;information&#45;et&#45;de&#45;communication&#45;285</title>
<path fill="none" stroke="black" d="M132.32,-61C159.68,-61 193.47,-61 229.34,-61"/>
<polygon fill="black" stroke="black" points="229.02,-64.5 239.02,-61 229.02,-57.5 229.02,-64.5"/>
<text text-anchor="middle" x="186.5" y="-64.8" font-family="Times,serif" font-size="14.00">possède 90%</text>
</g>
<!-- havre&#45;dimanche&#45;290 -->
<g id="node3" class="node">
<title>havre&#45;dimanche&#45;290</title>
<ellipse fill="none" stroke="black" cx="945.55" cy="-88" rx="71.49" ry="18"/>
<text text-anchor="middle" x="945.55" y="-84.3" font-family="Times,serif" font-size="14.00">Havre Dimanche</text>
</g>
<!-- societe&#45;normande&#45;d&#45;information&#45;et&#45;de&#45;communication&#45;285&#45;&gt;havre&#45;dimanche&#45;290 -->
<g id="edge2" class="edge">
<title>societe&#45;normande&#45;d&#45;information&#45;et&#45;de&#45;communication&#45;285&#45;&gt;havre&#45;dimanche&#45;290</title>
<path fill="none" stroke="black" d="M668.13,-71.25C735.46,-75.33 809.74,-79.83 864.34,-83.14"/>
<polygon fill="black" stroke="black" points="863.97,-86.62 874.17,-83.73 864.4,-79.64 863.97,-86.62"/>
<text text-anchor="middle" x="812.66" y="-85.8" font-family="Times,serif" font-size="14.00">possède 100%</text>
</g>
<!-- liberte&#45;dimanche&#45;289 -->
<g id="node4" class="node">
<title>liberte&#45;dimanche&#45;289</title>
<ellipse fill="none" stroke="black" cx="945.55" cy="-34" rx="75.29" ry="18"/>
<text text-anchor="middle" x="945.55" y="-30.3" font-family="Times,serif" font-size="14.00">Liberté Dimanche</text>
</g>
<!-- societe&#45;normande&#45;d&#45;information&#45;et&#45;de&#45;communication&#45;285&#45;&gt;liberte&#45;dimanche&#45;289 -->
<g id="edge3" class="edge">
<title>societe&#45;normande&#45;d&#45;information&#45;et&#45;de&#45;communication&#45;285&#45;&gt;liberte&#45;dimanche&#45;289</title>
<path fill="none" stroke="black" d="M747.54,-45.94C788.24,-43.47 827.77,-41.08 860.61,-39.09"/>
<polygon fill="black" stroke="black" points="860.66,-42.59 870.43,-38.49 860.24,-35.6 860.66,-42.59"/>
<text text-anchor="middle" x="812.66" y="-47.8" font-family="Times,serif" font-size="14.00">possède 100%</text>
</g>
</g>
</svg>
