<?xml version="1.0" encoding="UTF-8" standalone="no"?>
<!DOCTYPE svg PUBLIC "-//W3C//DTD SVG 1.1//EN"
 "http://www.w3.org/Graphics/SVG/1.1/DTD/svg11.dtd">
<!-- Generated by graphviz version 8.1.0 (20230707.0739)
 -->
<!-- Pages: 1 -->
<svg width="679pt" height="346pt"
 viewBox="0.00 0.00 679.27 346.00" xmlns="http://www.w3.org/2000/svg" xmlns:xlink="http://www.w3.org/1999/xlink">
<g id="graph0" class="graph" transform="scale(1 1) rotate(0) translate(4 342)">
<polygon fill="white" stroke="none" points="-4,4 -4,-342 675.27,-342 675.27,4 -4,4"/>
<g id="clust2" class="cluster">
<title>clusterLeaves</title>
<polygon fill="none" stroke="black" points="498.51,-8 498.51,-330 663.27,-330 663.27,-8 498.51,-8"/>
</g>
<!-- jean&#45;paul&#45;baudecroux&#45;162 -->
<g id="node1" class="node">
<title>jean&#45;paul&#45;baudecroux&#45;162</title>
<polygon fill="none" stroke="black" points="151.75,-183 0,-183 0,-147 151.75,-147 151.75,-183"/>
<text text-anchor="middle" x="75.88" y="-161.07" font-family="Times,serif" font-size="14.00">🧑‍💼Jean&#45;Paul Baudecroux</text>
</g>
<!-- nrj&#45;group&#45;163 -->
<g id="node2" class="node">
<title>nrj&#45;group&#45;163</title>
<polygon fill="none" stroke="black" points="391.76,-170.56 325.75,-183 259.75,-170.56 259.81,-150.44 391.7,-150.44 391.76,-170.56"/>
<text text-anchor="middle" x="325.75" y="-159.95" font-family="Times,serif" font-size="14.00">NRJ Group</text>
</g>
<!-- jean&#45;paul&#45;baudecroux&#45;162&#45;&gt;nrj&#45;group&#45;163 -->
<g id="edge1" class="edge">
<title>jean&#45;paul&#45;baudecroux&#45;162&#45;&gt;nrj&#45;group&#45;163</title>
<path fill="none" stroke="black" d="M151.92,-165C182.64,-165 218.13,-165 248.93,-165"/>
<polygon fill="black" stroke="black" points="248.61,-168.5 258.61,-165 248.61,-161.5 248.61,-168.5"/>
<text text-anchor="middle" x="205.75" y="-168.2" font-family="Times,serif" font-size="14.00">possède 79%</text>
</g>
<!-- cherie&#45;25&#45;165 -->
<g id="node3" class="node">
<title>cherie&#45;25&#45;165</title>
<ellipse fill="none" stroke="black" cx="580.89" cy="-304" rx="47.26" ry="18"/>
<text text-anchor="middle" x="580.89" y="-298.95" font-family="Times,serif" font-size="14.00">Chérie 25</text>
</g>
<!-- nrj&#45;group&#45;163&#45;&gt;cherie&#45;25&#45;165 -->
<g id="edge2" class="edge">
<title>nrj&#45;group&#45;163&#45;&gt;cherie&#45;25&#45;165</title>
<path fill="none" stroke="black" d="M338.46,-181.1C353.1,-200.16 379.91,-231.6 409.76,-250 445.74,-272.18 491.67,-286.05 526.74,-294.17"/>
<polygon fill="black" stroke="black" points="525.73,-297.76 536.25,-296.51 527.25,-290.92 525.73,-297.76"/>
<text text-anchor="middle" x="449.13" y="-285.2" font-family="Times,serif" font-size="14.00">possède 100%</text>
</g>
<!-- cherie&#45;fm&#45;168 -->
<g id="node4" class="node">
<title>cherie&#45;fm&#45;168</title>
<ellipse fill="none" stroke="black" cx="580.89" cy="-250" rx="51.86" ry="18"/>
<text text-anchor="middle" x="580.89" y="-244.95" font-family="Times,serif" font-size="14.00">Chérie FM</text>
</g>
<!-- nrj&#45;group&#45;163&#45;&gt;cherie&#45;fm&#45;168 -->
<g id="edge3" class="edge">
<title>nrj&#45;group&#45;163&#45;&gt;cherie&#45;fm&#45;168</title>
<path fill="none" stroke="black" d="M351.64,-178.53C367.85,-186.96 389.65,-197.57 409.76,-205 447.52,-218.95 491.47,-230.46 525.24,-238.34"/>
<polygon fill="black" stroke="black" points="524.3,-241.95 534.83,-240.78 525.87,-235.13 524.3,-241.95"/>
<text text-anchor="middle" x="449.13" y="-232.2" font-family="Times,serif" font-size="14.00">possède 100%</text>
</g>
<!-- nostalgie&#45;169 -->
<g id="node5" class="node">
<title>nostalgie&#45;169</title>
<ellipse fill="none" stroke="black" cx="580.89" cy="-196" rx="46.23" ry="18"/>
<text text-anchor="middle" x="580.89" y="-190.95" font-family="Times,serif" font-size="14.00">Nostalgie</text>
</g>
<!-- nrj&#45;group&#45;163&#45;&gt;nostalgie&#45;169 -->
<g id="edge4" class="edge">
<title>nrj&#45;group&#45;163&#45;&gt;nostalgie&#45;169</title>
<path fill="none" stroke="black" d="M385.47,-172.19C427.83,-177.38 484.6,-184.33 525.85,-189.38"/>
<polygon fill="black" stroke="black" points="525.17,-192.95 535.52,-190.69 526.02,-186 525.17,-192.95"/>
<text text-anchor="middle" x="449.13" y="-187.2" font-family="Times,serif" font-size="14.00">possède 100%</text>
</g>
<!-- nrj&#45;166 -->
<g id="node6" class="node">
<title>nrj&#45;166</title>
<ellipse fill="none" stroke="black" cx="580.89" cy="-142" rx="27.3" ry="18"/>
<text text-anchor="middle" x="580.89" y="-136.95" font-family="Times,serif" font-size="14.00">NRJ</text>
</g>
<!-- nrj&#45;group&#45;163&#45;&gt;nrj&#45;166 -->
<g id="edge5" class="edge">
<title>nrj&#45;group&#45;163&#45;&gt;nrj&#45;166</title>
<path fill="none" stroke="black" d="M391.95,-155.53C397.96,-154.79 403.97,-154.1 409.76,-153.5 455.27,-148.82 507.83,-145.6 542.34,-143.78"/>
<polygon fill="black" stroke="black" points="542.51,-147.22 552.32,-143.22 542.15,-140.23 542.51,-147.22"/>
<text text-anchor="middle" x="449.13" y="-156.2" font-family="Times,serif" font-size="14.00">possède 100%</text>
</g>
<!-- nrj&#45;12&#45;164 -->
<g id="node7" class="node">
<title>nrj&#45;12&#45;164</title>
<ellipse fill="none" stroke="black" cx="580.89" cy="-88" rx="39.07" ry="18"/>
<text text-anchor="middle" x="580.89" y="-82.95" font-family="Times,serif" font-size="14.00">NRJ 12</text>
</g>
<!-- nrj&#45;group&#45;163&#45;&gt;nrj&#45;12&#45;164 -->
<g id="edge6" class="edge">
<title>nrj&#45;group&#45;163&#45;&gt;nrj&#45;12&#45;164</title>
<path fill="none" stroke="black" d="M354.95,-150.1C370.73,-142.23 390.96,-132.9 409.76,-126.5 450.37,-112.66 498.13,-102.35 532.7,-95.9"/>
<polygon fill="black" stroke="black" points="533.22,-99.18 542.43,-93.94 531.97,-92.29 533.22,-99.18"/>
<text text-anchor="middle" x="449.13" y="-129.2" font-family="Times,serif" font-size="14.00">possède 100%</text>
</g>
<!-- rire&#45;et&#45;chansons&#45;167 -->
<g id="node8" class="node">
<title>rire&#45;et&#45;chansons&#45;167</title>
<ellipse fill="none" stroke="black" cx="580.89" cy="-34" rx="74.38" ry="18"/>
<text text-anchor="middle" x="580.89" y="-28.95" font-family="Times,serif" font-size="14.00">Rire et Chansons</text>
</g>
<!-- nrj&#45;group&#45;163&#45;&gt;rire&#45;et&#45;chansons&#45;167 -->
<g id="edge7" class="edge">
<title>nrj&#45;group&#45;163&#45;&gt;rire&#45;et&#45;chansons&#45;167</title>
<path fill="none" stroke="black" d="M338.33,-150C353.05,-131.93 380.13,-101.83 409.76,-84.5 440.1,-66.75 477.2,-54.79 508.99,-46.98"/>
<polygon fill="black" stroke="black" points="509.63,-50.2 518.56,-44.49 508.02,-43.38 509.63,-50.2"/>
<text text-anchor="middle" x="449.13" y="-87.2" font-family="Times,serif" font-size="14.00">possède 100%</text>
</g>
</g>
</svg>
