<?xml version="1.0" encoding="UTF-8" standalone="no"?>
<!DOCTYPE svg PUBLIC "-//W3C//DTD SVG 1.1//EN"
 "http://www.w3.org/Graphics/SVG/1.1/DTD/svg11.dtd">
<!-- Generated by graphviz version 8.1.0 (20230707.0739)
 -->
<!-- Pages: 1 -->
<svg width="1075pt" height="130pt"
 viewBox="0.00 0.00 1074.63 130.00" xmlns="http://www.w3.org/2000/svg" xmlns:xlink="http://www.w3.org/1999/xlink">
<g id="graph0" class="graph" transform="scale(1 1) rotate(0) translate(4 126)">
<polygon fill="white" stroke="none" points="-4,4 -4,-126 1070.63,-126 1070.63,4 -4,4"/>
<g id="clust2" class="cluster">
<title>clusterLeaves</title>
<polygon fill="none" stroke="black" points="885.67,-8 885.67,-114 1058.63,-114 1058.63,-8 885.67,-8"/>
</g>
<!-- jean&#45;louis&#45;louvel&#45;284 -->
<g id="node1" class="node">
<title>jean&#45;louis&#45;louvel&#45;284</title>
<polygon fill="none" stroke="black" points="131.5,-79 0,-79 0,-43 131.5,-43 131.5,-79"/>
<text text-anchor="middle" x="65.75" y="-57.08" font-family="Times,serif" font-size="14.00">🧑‍💼Jean&#45;Louis Louvel</text>
</g>
<!-- societe&#45;normande&#45;d&#45;information&#45;et&#45;de&#45;communication&#45;285 -->
<g id="node2" class="node">
<title>societe&#45;normande&#45;d&#45;information&#45;et&#45;de&#45;communication&#45;285</title>
<polygon fill="none" stroke="black" points="778.92,-66.56 509.21,-79 239.5,-66.56 239.75,-46.44 778.67,-46.44 778.92,-66.56"/>
<text text-anchor="middle" x="509.21" y="-55.95" font-family="Times,serif" font-size="14.00">Société Normande d’Information et de Communication</text>
</g>
<!-- jean&#45;louis&#45;louvel&#45;284&#45;&gt;societe&#45;normande&#45;d&#45;information&#45;et&#45;de&#45;communication&#45;285 -->
<g id="edge1" class="edge">
<title>jean&#45;louis&#45;louvel&#45;284&#45;&gt;societe&#45;normande&#45;d&#45;information&#45;et&#45;de&#45;communication&#45;285</title>
<path fill="none" stroke="black" d="M131.89,-61C159.07,-61 192.65,-61 228.47,-61"/>
<polygon fill="black" stroke="black" points="228.13,-64.5 238.13,-61 228.13,-57.5 228.13,-64.5"/>
<text text-anchor="middle" x="185.5" y="-64.2" font-family="Times,serif" font-size="14.00">possède 90%</text>
</g>
<!-- havre&#45;dimanche&#45;290 -->
<g id="node3" class="node">
<title>havre&#45;dimanche&#45;290</title>
<ellipse fill="none" stroke="black" cx="972.15" cy="-88" rx="74.38" ry="18"/>
<text text-anchor="middle" x="972.15" y="-82.95" font-family="Times,serif" font-size="14.00">Havre Dimanche</text>
</g>
<!-- societe&#45;normande&#45;d&#45;information&#45;et&#45;de&#45;communication&#45;285&#45;&gt;havre&#45;dimanche&#45;290 -->
<g id="edge2" class="edge">
<title>societe&#45;normande&#45;d&#45;information&#45;et&#45;de&#45;communication&#45;285&#45;&gt;havre&#45;dimanche&#45;290</title>
<path fill="none" stroke="black" d="M686.45,-71.32C755.9,-75.39 832.32,-79.87 888.48,-83.16"/>
<polygon fill="black" stroke="black" points="888.25,-86.71 898.44,-83.8 888.66,-79.72 888.25,-86.71"/>
<text text-anchor="middle" x="836.3" y="-85.2" font-family="Times,serif" font-size="14.00">possède 100%</text>
</g>
<!-- liberte&#45;dimanche&#45;289 -->
<g id="node4" class="node">
<title>liberte&#45;dimanche&#45;289</title>
<ellipse fill="none" stroke="black" cx="972.15" cy="-34" rx="78.48" ry="18"/>
<text text-anchor="middle" x="972.15" y="-28.95" font-family="Times,serif" font-size="14.00">Liberté Dimanche</text>
</g>
<!-- societe&#45;normande&#45;d&#45;information&#45;et&#45;de&#45;communication&#45;285&#45;&gt;liberte&#45;dimanche&#45;289 -->
<g id="edge3" class="edge">
<title>societe&#45;normande&#45;d&#45;information&#45;et&#45;de&#45;communication&#45;285&#45;&gt;liberte&#45;dimanche&#45;289</title>
<path fill="none" stroke="black" d="M767.3,-45.94C809.59,-43.46 850.67,-41.06 884.74,-39.06"/>
<polygon fill="black" stroke="black" points="884.77,-42.51 894.54,-38.43 884.36,-35.52 884.77,-42.51"/>
<text text-anchor="middle" x="836.3" y="-46.2" font-family="Times,serif" font-size="14.00">possède 100%</text>
</g>
</g>
</svg>
