<?xml version="1.0" encoding="UTF-8" standalone="no"?>
<!DOCTYPE svg PUBLIC "-//W3C//DTD SVG 1.1//EN"
 "http://www.w3.org/Graphics/SVG/1.1/DTD/svg11.dtd">
<!-- Generated by graphviz version 7.1.0 (20230121.1956)
 -->
<!-- Pages: 1 -->
<svg width="670pt" height="346pt"
 viewBox="0.00 0.00 669.92 346.00" xmlns="http://www.w3.org/2000/svg" xmlns:xlink="http://www.w3.org/1999/xlink">
<g id="graph0" class="graph" transform="scale(1 1) rotate(0) translate(4 342)">
<polygon fill="white" stroke="none" points="-4,4 -4,-342 665.92,-342 665.92,4 -4,4"/>
<g id="clust2" class="cluster">
<title>clusterLeaves</title>
<polygon fill="none" stroke="black" points="494.93,-8 494.93,-330 653.92,-330 653.92,-8 494.93,-8"/>
</g>
<!-- jean&#45;paul&#45;baudecroux&#45;162 -->
<g id="node1" class="node">
<title>jean&#45;paul&#45;baudecroux&#45;162</title>
<polygon fill="none" stroke="black" points="152,-183 0,-183 0,-147 152,-147 152,-183"/>
<text text-anchor="middle" x="76" y="-161.3" font-family="Times,serif" font-size="14.00">🧑‍💼Jean&#45;Paul Baudecroux</text>
</g>
<!-- nrj&#45;group&#45;163 -->
<g id="node2" class="node">
<title>nrj&#45;group&#45;163</title>
<polygon fill="none" stroke="black" points="387.9,-170.56 324.47,-183 261.03,-170.56 261.09,-150.44 387.84,-150.44 387.9,-170.56"/>
<text text-anchor="middle" x="324.47" y="-161.3" font-family="Times,serif" font-size="14.00">NRJ Group</text>
</g>
<!-- jean&#45;paul&#45;baudecroux&#45;162&#45;&gt;nrj&#45;group&#45;163 -->
<g id="edge1" class="edge">
<title>jean&#45;paul&#45;baudecroux&#45;162&#45;&gt;nrj&#45;group&#45;163</title>
<path fill="none" stroke="black" d="M152.29,-165C183.04,-165 218.52,-165 249.17,-165"/>
<polygon fill="black" stroke="black" points="249.15,-168.5 259.15,-165 249.15,-161.5 249.15,-168.5"/>
<text text-anchor="middle" x="206.5" y="-168.8" font-family="Times,serif" font-size="14.00">possède 79%</text>
</g>
<!-- cherie&#45;25&#45;165 -->
<g id="node3" class="node">
<title>cherie&#45;25&#45;165</title>
<ellipse fill="none" stroke="black" cx="574.43" cy="-304" rx="45.49" ry="18"/>
<text text-anchor="middle" x="574.43" y="-300.3" font-family="Times,serif" font-size="14.00">Chérie 25</text>
</g>
<!-- nrj&#45;group&#45;163&#45;&gt;cherie&#45;25&#45;165 -->
<g id="edge2" class="edge">
<title>nrj&#45;group&#45;163&#45;&gt;cherie&#45;25&#45;165</title>
<path fill="none" stroke="black" d="M337.46,-180.84C351.91,-198.92 377.75,-228.26 405.93,-246 442,-268.71 488.07,-283.83 522.76,-292.91"/>
<polygon fill="black" stroke="black" points="521.58,-296.23 532.13,-295.28 523.3,-289.44 521.58,-296.23"/>
<text text-anchor="middle" x="445.43" y="-284.8" font-family="Times,serif" font-size="14.00">possède 100%</text>
</g>
<!-- cherie&#45;fm&#45;168 -->
<g id="node4" class="node">
<title>cherie&#45;fm&#45;168</title>
<ellipse fill="none" stroke="black" cx="574.43" cy="-250" rx="50.09" ry="18"/>
<text text-anchor="middle" x="574.43" y="-246.3" font-family="Times,serif" font-size="14.00">Chérie FM</text>
</g>
<!-- nrj&#45;group&#45;163&#45;&gt;cherie&#45;fm&#45;168 -->
<g id="edge3" class="edge">
<title>nrj&#45;group&#45;163&#45;&gt;cherie&#45;fm&#45;168</title>
<path fill="none" stroke="black" d="M350.72,-178.27C366.35,-186.14 386.97,-195.92 405.93,-203 443.55,-217.05 487.28,-229.18 520.62,-237.6"/>
<polygon fill="black" stroke="black" points="519.49,-240.93 530.04,-239.95 521.18,-234.13 519.49,-240.93"/>
<text text-anchor="middle" x="445.43" y="-230.8" font-family="Times,serif" font-size="14.00">possède 100%</text>
</g>
<!-- nostalgie&#45;169 -->
<g id="node5" class="node">
<title>nostalgie&#45;169</title>
<ellipse fill="none" stroke="black" cx="574.43" cy="-196" rx="44.39" ry="18"/>
<text text-anchor="middle" x="574.43" y="-192.3" font-family="Times,serif" font-size="14.00">Nostalgie</text>
</g>
<!-- nrj&#45;group&#45;163&#45;&gt;nostalgie&#45;169 -->
<g id="edge4" class="edge">
<title>nrj&#45;group&#45;163&#45;&gt;nostalgie&#45;169</title>
<path fill="none" stroke="black" d="M382.35,-172.11C423.83,-177.3 479.63,-184.27 520.22,-189.35"/>
<polygon fill="black" stroke="black" points="519.64,-192.8 530,-190.57 520.51,-185.86 519.64,-192.8"/>
<text text-anchor="middle" x="445.43" y="-187.8" font-family="Times,serif" font-size="14.00">possède 100%</text>
</g>
<!-- nrj&#45;166 -->
<g id="node6" class="node">
<title>nrj&#45;166</title>
<ellipse fill="none" stroke="black" cx="574.43" cy="-142" rx="27" ry="18"/>
<text text-anchor="middle" x="574.43" y="-138.3" font-family="Times,serif" font-size="14.00">NRJ</text>
</g>
<!-- nrj&#45;group&#45;163&#45;&gt;nrj&#45;166 -->
<g id="edge5" class="edge">
<title>nrj&#45;group&#45;163&#45;&gt;nrj&#45;166</title>
<path fill="none" stroke="black" d="M388.25,-156.91C394.22,-156.23 400.19,-155.58 405.93,-155 450.58,-150.5 502.06,-146.71 536.04,-144.41"/>
<polygon fill="black" stroke="black" points="536.03,-147.91 545.77,-143.75 535.56,-140.93 536.03,-147.91"/>
<text text-anchor="middle" x="445.43" y="-158.8" font-family="Times,serif" font-size="14.00">possède 100%</text>
</g>
<!-- nrj&#45;12&#45;164 -->
<g id="node7" class="node">
<title>nrj&#45;12&#45;164</title>
<ellipse fill="none" stroke="black" cx="574.43" cy="-88" rx="37.89" ry="18"/>
<text text-anchor="middle" x="574.43" y="-84.3" font-family="Times,serif" font-size="14.00">NRJ 12</text>
</g>
<!-- nrj&#45;group&#45;163&#45;&gt;nrj&#45;12&#45;164 -->
<g id="edge6" class="edge">
<title>nrj&#45;group&#45;163&#45;&gt;nrj&#45;12&#45;164</title>
<path fill="none" stroke="black" d="M355.51,-150C370.42,-142.96 388.85,-134.86 405.93,-129 446.26,-115.17 493.55,-104.04 527.58,-96.89"/>
<polygon fill="black" stroke="black" points="528.01,-100.37 537.1,-94.92 526.59,-93.51 528.01,-100.37"/>
<text text-anchor="middle" x="445.43" y="-132.8" font-family="Times,serif" font-size="14.00">possède 100%</text>
</g>
<!-- rire&#45;et&#45;chansons&#45;167 -->
<g id="node8" class="node">
<title>rire&#45;et&#45;chansons&#45;167</title>
<ellipse fill="none" stroke="black" cx="574.43" cy="-34" rx="71.49" ry="18"/>
<text text-anchor="middle" x="574.43" y="-30.3" font-family="Times,serif" font-size="14.00">Rire et Chansons</text>
</g>
<!-- nrj&#45;group&#45;163&#45;&gt;rire&#45;et&#45;chansons&#45;167 -->
<g id="edge7" class="edge">
<title>nrj&#45;group&#45;163&#45;&gt;rire&#45;et&#45;chansons&#45;167</title>
<path fill="none" stroke="black" d="M336.99,-150.25C351.37,-132.79 377.53,-103.95 405.93,-87 436.5,-68.75 474.02,-56.12 505.8,-47.79"/>
<polygon fill="black" stroke="black" points="506.47,-51.23 515.31,-45.39 504.75,-44.44 506.47,-51.23"/>
<text text-anchor="middle" x="445.43" y="-90.8" font-family="Times,serif" font-size="14.00">possède 100%</text>
</g>
</g>
</svg>
