<?xml version="1.0" encoding="UTF-8" standalone="no"?>
<!DOCTYPE svg PUBLIC "-//W3C//DTD SVG 1.1//EN"
 "http://www.w3.org/Graphics/SVG/1.1/DTD/svg11.dtd">
<!-- Generated by graphviz version 8.1.0 (20230707.0739)
 -->
<!-- Pages: 1 -->
<svg width="786pt" height="76pt"
 viewBox="0.00 0.00 786.24 76.00" xmlns="http://www.w3.org/2000/svg" xmlns:xlink="http://www.w3.org/1999/xlink">
<g id="graph0" class="graph" transform="scale(1 1) rotate(0) translate(4 72)">
<polygon fill="white" stroke="none" points="-4,4 -4,-72 782.24,-72 782.24,4 -4,4"/>
<g id="clust2" class="cluster">
<title>clusterLeaves</title>
<polygon fill="none" stroke="black" points="558.39,-8 558.39,-60 770.24,-60 770.24,-8 558.39,-8"/>
</g>
<!-- fondation&#45;varenne&#45;220 -->
<g id="node1" class="node">
<title>fondation&#45;varenne&#45;220</title>
<polygon fill="none" stroke="black" points="118,-52 0,-52 0,-16 118,-16 118,-52"/>
<text text-anchor="middle" x="59" y="-28.95" font-family="Times,serif" font-size="14.00">Fondation Varenne</text>
</g>
<!-- groupe&#45;la&#45;montagne&#45;222 -->
<g id="node2" class="node">
<title>groupe&#45;la&#45;montagne&#45;222</title>
<polygon fill="none" stroke="black" points="451.64,-39.56 338.82,-52 226,-39.56 226.11,-19.44 451.53,-19.44 451.64,-39.56"/>
<text text-anchor="middle" x="338.82" y="-28.95" font-family="Times,serif" font-size="14.00">Groupe La Montagne</text>
</g>
<!-- fondation&#45;varenne&#45;220&#45;&gt;groupe&#45;la&#45;montagne&#45;222 -->
<g id="edge2" class="edge">
<title>fondation&#45;varenne&#45;220&#45;&gt;groupe&#45;la&#45;montagne&#45;222</title>
<path fill="none" stroke="black" d="M118.24,-34C146.38,-34 181.28,-34 214.91,-34"/>
<polygon fill="black" stroke="black" points="214.78,-37.5 224.78,-34 214.78,-30.5 214.78,-37.5"/>
<text text-anchor="middle" x="172" y="-37.2" font-family="Times,serif" font-size="14.00">possède 50%</text>
</g>
<!-- l&#45;eclaireur&#45;du&#45;gatinais&#45;230 -->
<g id="node3" class="node">
<title>l&#45;eclaireur&#45;du&#45;gatinais&#45;230</title>
<ellipse fill="none" stroke="black" cx="664.31" cy="-34" rx="97.93" ry="18"/>
<text text-anchor="middle" x="664.31" y="-28.95" font-family="Times,serif" font-size="14.00">L’Eclaireur du Gâtinais</text>
</g>
<!-- groupe&#45;la&#45;montagne&#45;222&#45;&gt;l&#45;eclaireur&#45;du&#45;gatinais&#45;230 -->
<g id="edge1" class="edge">
<title>groupe&#45;la&#45;montagne&#45;222&#45;&gt;l&#45;eclaireur&#45;du&#45;gatinais&#45;230</title>
<path fill="none" stroke="black" d="M452.05,-34C485.56,-34 522.21,-34 555.43,-34"/>
<polygon fill="black" stroke="black" points="555.09,-37.5 565.09,-34 555.09,-30.5 555.09,-37.5"/>
<text text-anchor="middle" x="509.01" y="-37.2" font-family="Times,serif" font-size="14.00">possède 100%</text>
</g>
</g>
</svg>
