<?xml version="1.0" encoding="UTF-8" standalone="no"?>
<!DOCTYPE svg PUBLIC "-//W3C//DTD SVG 1.1//EN"
 "http://www.w3.org/Graphics/SVG/1.1/DTD/svg11.dtd">
<!-- Generated by graphviz version 7.1.0 (20230121.1956)
 -->
<!-- Pages: 1 -->
<svg width="745pt" height="76pt"
 viewBox="0.00 0.00 744.79 76.00" xmlns="http://www.w3.org/2000/svg" xmlns:xlink="http://www.w3.org/1999/xlink">
<g id="graph0" class="graph" transform="scale(1 1) rotate(0) translate(4 72)">
<polygon fill="white" stroke="none" points="-4,4 -4,-72 740.79,-72 740.79,4 -4,4"/>
<g id="clust2" class="cluster">
<title>clusterLeaves</title>
<polygon fill="none" stroke="black" points="550.3,-8 550.3,-60 728.79,-60 728.79,-8 550.3,-8"/>
</g>
<!-- fondation&#45;varenne&#45;220 -->
<g id="node1" class="node">
<title>fondation&#45;varenne&#45;220</title>
<polygon fill="none" stroke="black" points="119,-52 0,-52 0,-16 119,-16 119,-52"/>
<text text-anchor="middle" x="59.5" y="-30.3" font-family="Times,serif" font-size="14.00">Fondation Varenne</text>
</g>
<!-- groupe&#45;la&#45;montagne&#45;222 -->
<g id="node2" class="node">
<title>groupe&#45;la&#45;montagne&#45;222</title>
<polygon fill="none" stroke="black" points="443.46,-39.56 335.65,-52 227.85,-39.56 227.95,-19.44 443.36,-19.44 443.46,-39.56"/>
<text text-anchor="middle" x="335.65" y="-30.3" font-family="Times,serif" font-size="14.00">Groupe La Montagne</text>
</g>
<!-- fondation&#45;varenne&#45;220&#45;&gt;groupe&#45;la&#45;montagne&#45;222 -->
<g id="edge2" class="edge">
<title>fondation&#45;varenne&#45;220&#45;&gt;groupe&#45;la&#45;montagne&#45;222</title>
<path fill="none" stroke="black" d="M119.31,-34C147.65,-34 182.71,-34 216.24,-34"/>
<polygon fill="black" stroke="black" points="216.03,-37.5 226.03,-34 216.03,-30.5 216.03,-37.5"/>
<text text-anchor="middle" x="173.5" y="-37.8" font-family="Times,serif" font-size="14.00">possède 50%</text>
</g>
<!-- l&#45;echo&#45;republicain&#45;228 -->
<g id="node3" class="node">
<title>l&#45;echo&#45;republicain&#45;228</title>
<ellipse fill="none" stroke="black" cx="639.55" cy="-34" rx="81.49" ry="18"/>
<text text-anchor="middle" x="639.55" y="-30.3" font-family="Times,serif" font-size="14.00">L’Echo Républicain</text>
</g>
<!-- groupe&#45;la&#45;montagne&#45;222&#45;&gt;l&#45;echo&#45;republicain&#45;228 -->
<g id="edge1" class="edge">
<title>groupe&#45;la&#45;montagne&#45;222&#45;&gt;l&#45;echo&#45;republicain&#45;228</title>
<path fill="none" stroke="black" d="M443.51,-34C477.2,-34 514.09,-34 546.64,-34"/>
<polygon fill="black" stroke="black" points="546.45,-37.5 556.45,-34 546.45,-30.5 546.45,-37.5"/>
<text text-anchor="middle" x="500.8" y="-37.8" font-family="Times,serif" font-size="14.00">possède 100%</text>
</g>
</g>
</svg>
