<?xml version="1.0" encoding="UTF-8" standalone="no"?>
<!DOCTYPE svg PUBLIC "-//W3C//DTD SVG 1.1//EN"
 "http://www.w3.org/Graphics/SVG/1.1/DTD/svg11.dtd">
<!-- Generated by graphviz version 8.1.0 (20230707.0739)
 -->
<!-- Pages: 1 -->
<svg width="659pt" height="76pt"
 viewBox="0.00 0.00 658.91 76.00" xmlns="http://www.w3.org/2000/svg" xmlns:xlink="http://www.w3.org/1999/xlink">
<g id="graph0" class="graph" transform="scale(1 1) rotate(0) translate(4 72)">
<polygon fill="white" stroke="none" points="-4,4 -4,-72 654.91,-72 654.91,4 -4,4"/>
<g id="clust2" class="cluster">
<title>clusterLeaves</title>
<polygon fill="none" stroke="black" points="477.12,-8 477.12,-60 642.91,-60 642.91,-8 477.12,-8"/>
</g>
<!-- credit&#45;mutuel&#45;207 -->
<g id="node1" class="node">
<title>credit&#45;mutuel&#45;207</title>
<polygon fill="none" stroke="black" points="93.25,-52 0,-52 0,-16 93.25,-16 93.25,-52"/>
<text text-anchor="middle" x="46.62" y="-28.95" font-family="Times,serif" font-size="14.00">Crédit Mutuel</text>
</g>
<!-- groupe&#45;ebra&#45;208 -->
<g id="node2" class="node">
<title>groupe&#45;ebra&#45;208</title>
<polygon fill="none" stroke="black" points="370.37,-39.56 289.19,-52 208,-39.56 208.08,-19.44 370.3,-19.44 370.37,-39.56"/>
<text text-anchor="middle" x="289.19" y="-28.95" font-family="Times,serif" font-size="14.00">Groupe EBRA</text>
</g>
<!-- credit&#45;mutuel&#45;207&#45;&gt;groupe&#45;ebra&#45;208 -->
<g id="edge2" class="edge">
<title>credit&#45;mutuel&#45;207&#45;&gt;groupe&#45;ebra&#45;208</title>
<path fill="none" stroke="black" d="M93.72,-34C122.9,-34 161.64,-34 196.85,-34"/>
<polygon fill="black" stroke="black" points="196.65,-37.5 206.65,-34 196.65,-30.5 196.65,-37.5"/>
<text text-anchor="middle" x="150.62" y="-37.2" font-family="Times,serif" font-size="14.00">possède 100%</text>
</g>
<!-- l&#45;est&#45;republicain&#45;209 -->
<g id="node3" class="node">
<title>l&#45;est&#45;republicain&#45;209</title>
<ellipse fill="none" stroke="black" cx="560.02" cy="-34" rx="74.89" ry="18"/>
<text text-anchor="middle" x="560.02" y="-28.95" font-family="Times,serif" font-size="14.00">L’Est républicain</text>
</g>
<!-- groupe&#45;ebra&#45;208&#45;&gt;l&#45;est&#45;republicain&#45;209 -->
<g id="edge1" class="edge">
<title>groupe&#45;ebra&#45;208&#45;&gt;l&#45;est&#45;republicain&#45;209</title>
<path fill="none" stroke="black" d="M370.85,-34C403.36,-34 440.9,-34 473.86,-34"/>
<polygon fill="black" stroke="black" points="473.84,-37.5 483.84,-34 473.84,-30.5 473.84,-37.5"/>
<text text-anchor="middle" x="427.75" y="-37.2" font-family="Times,serif" font-size="14.00">possède 100%</text>
</g>
</g>
</svg>
