<?xml version="1.0" encoding="UTF-8" standalone="no"?>
<!DOCTYPE svg PUBLIC "-//W3C//DTD SVG 1.1//EN"
 "http://www.w3.org/Graphics/SVG/1.1/DTD/svg11.dtd">
<!-- Generated by graphviz version 7.1.0 (20230121.1956)
 -->
<!-- Pages: 1 -->
<svg width="647pt" height="76pt"
 viewBox="0.00 0.00 646.84 76.00" xmlns="http://www.w3.org/2000/svg" xmlns:xlink="http://www.w3.org/1999/xlink">
<g id="graph0" class="graph" transform="scale(1 1) rotate(0) translate(4 72)">
<polygon fill="white" stroke="none" points="-4,4 -4,-72 642.84,-72 642.84,4 -4,4"/>
<g id="clust2" class="cluster">
<title>clusterLeaves</title>
<polygon fill="none" stroke="black" points="471.85,-8 471.85,-60 630.84,-60 630.84,-8 471.85,-8"/>
</g>
<!-- credit&#45;mutuel&#45;207 -->
<g id="node1" class="node">
<title>credit&#45;mutuel&#45;207</title>
<polygon fill="none" stroke="black" points="94,-52 0,-52 0,-16 94,-16 94,-52"/>
<text text-anchor="middle" x="47" y="-30.3" font-family="Times,serif" font-size="14.00">Crédit Mutuel</text>
</g>
<!-- groupe&#45;ebra&#45;208 -->
<g id="node2" class="node">
<title>groupe&#45;ebra&#45;208</title>
<polygon fill="none" stroke="black" points="364.78,-39.56 286.93,-52 209.07,-39.56 209.15,-19.44 364.71,-19.44 364.78,-39.56"/>
<text text-anchor="middle" x="286.93" y="-30.3" font-family="Times,serif" font-size="14.00">Groupe EBRA</text>
</g>
<!-- credit&#45;mutuel&#45;207&#45;&gt;groupe&#45;ebra&#45;208 -->
<g id="edge2" class="edge">
<title>credit&#45;mutuel&#45;207&#45;&gt;groupe&#45;ebra&#45;208</title>
<path fill="none" stroke="black" d="M94.44,-34C123.73,-34 162.5,-34 197.49,-34"/>
<polygon fill="black" stroke="black" points="197.19,-37.5 207.19,-34 197.19,-30.5 197.19,-37.5"/>
<text text-anchor="middle" x="151.5" y="-37.8" font-family="Times,serif" font-size="14.00">possède 100%</text>
</g>
<!-- l&#45;est&#45;republicain&#45;209 -->
<g id="node3" class="node">
<title>l&#45;est&#45;republicain&#45;209</title>
<ellipse fill="none" stroke="black" cx="551.35" cy="-34" rx="71.49" ry="18"/>
<text text-anchor="middle" x="551.35" y="-30.3" font-family="Times,serif" font-size="14.00">L’Est républicain</text>
</g>
<!-- groupe&#45;ebra&#45;208&#45;&gt;l&#45;est&#45;republicain&#45;209 -->
<g id="edge1" class="edge">
<title>groupe&#45;ebra&#45;208&#45;&gt;l&#45;est&#45;republicain&#45;209</title>
<path fill="none" stroke="black" d="M365.24,-34C397.57,-34 435.17,-34 468.01,-34"/>
<polygon fill="black" stroke="black" points="467.9,-37.5 477.9,-34 467.9,-30.5 467.9,-37.5"/>
<text text-anchor="middle" x="422.35" y="-37.8" font-family="Times,serif" font-size="14.00">possède 100%</text>
</g>
</g>
</svg>
