<?xml version="1.0" encoding="UTF-8" standalone="no"?>
<!DOCTYPE svg PUBLIC "-//W3C//DTD SVG 1.1//EN"
 "http://www.w3.org/Graphics/SVG/1.1/DTD/svg11.dtd">
<!-- Generated by graphviz version 8.1.0 (20230707.0739)
 -->
<!-- Pages: 1 -->
<svg width="356pt" height="76pt"
 viewBox="0.00 0.00 356.24 76.00" xmlns="http://www.w3.org/2000/svg" xmlns:xlink="http://www.w3.org/1999/xlink">
<g id="graph0" class="graph" transform="scale(1 1) rotate(0) translate(4 72)">
<polygon fill="white" stroke="none" points="-4,4 -4,-72 352.24,-72 352.24,4 -4,4"/>
<g id="clust2" class="cluster">
<title>clusterLeaves</title>
<polygon fill="none" stroke="black" points="230.75,-8 230.75,-60 340.24,-60 340.24,-8 230.75,-8"/>
</g>
<!-- sophia&#45;publications&#45;2 -->
<g id="node1" class="node">
<title>sophia&#45;publications&#45;2</title>
<polygon fill="none" stroke="black" points="124,-52 0,-52 0,-16 124,-16 124,-52"/>
<text text-anchor="middle" x="62" y="-28.95" font-family="Times,serif" font-size="14.00">Sophia Publications</text>
</g>
<!-- l&#45;histoire&#45;4 -->
<g id="node2" class="node">
<title>l&#45;histoire&#45;4</title>
<ellipse fill="none" stroke="black" cx="285.5" cy="-34" rx="46.75" ry="18"/>
<text text-anchor="middle" x="285.5" y="-28.95" font-family="Times,serif" font-size="14.00">L’histoire</text>
</g>
<!-- sophia&#45;publications&#45;2&#45;&gt;l&#45;histoire&#45;4 -->
<g id="edge1" class="edge">
<title>sophia&#45;publications&#45;2&#45;&gt;l&#45;histoire&#45;4</title>
<path fill="none" stroke="black" d="M124.4,-34C156.7,-34 196.03,-34 227.63,-34"/>
<polygon fill="black" stroke="black" points="227.46,-37.5 237.46,-34 227.46,-30.5 227.46,-37.5"/>
<text text-anchor="middle" x="181.38" y="-37.2" font-family="Times,serif" font-size="14.00">possède 100%</text>
</g>
</g>
</svg>
