<?xml version="1.0" encoding="UTF-8" standalone="no"?>
<!DOCTYPE svg PUBLIC "-//W3C//DTD SVG 1.1//EN"
 "http://www.w3.org/Graphics/SVG/1.1/DTD/svg11.dtd">
<!-- Generated by graphviz version 7.1.0 (20230121.1956)
 -->
<!-- Pages: 1 -->
<svg width="468pt" height="76pt"
 viewBox="0.00 0.00 467.58 76.00" xmlns="http://www.w3.org/2000/svg" xmlns:xlink="http://www.w3.org/1999/xlink">
<g id="graph0" class="graph" transform="scale(1 1) rotate(0) translate(4 72)">
<polygon fill="white" stroke="none" points="-4,4 -4,-72 463.58,-72 463.58,4 -4,4"/>
<g id="clust2" class="cluster">
<title>clusterLeaves</title>
<polygon fill="none" stroke="black" points="238,-8 238,-60 451.58,-60 451.58,-8 238,-8"/>
</g>
<!-- republique&#45;francaise&#45;128 -->
<g id="node1" class="node">
<title>republique&#45;francaise&#45;128</title>
<polygon fill="none" stroke="black" points="131,-52 0,-52 0,-16 131,-16 131,-52"/>
<text text-anchor="middle" x="65.5" y="-30.3" font-family="Times,serif" font-size="14.00">République française</text>
</g>
<!-- la&#45;chaine&#45;parlementaire&#45;131 -->
<g id="node2" class="node">
<title>la&#45;chaine&#45;parlementaire&#45;131</title>
<ellipse fill="none" stroke="black" cx="344.79" cy="-34" rx="98.58" ry="18"/>
<text text-anchor="middle" x="344.79" y="-30.3" font-family="Times,serif" font-size="14.00">La Chaîne parlementaire</text>
</g>
<!-- republique&#45;francaise&#45;128&#45;&gt;la&#45;chaine&#45;parlementaire&#45;131 -->
<g id="edge1" class="edge">
<title>republique&#45;francaise&#45;128&#45;&gt;la&#45;chaine&#45;parlementaire&#45;131</title>
<path fill="none" stroke="black" d="M131.16,-34C161.92,-34 199.55,-34 234.56,-34"/>
<polygon fill="black" stroke="black" points="234.3,-37.5 244.3,-34 234.3,-30.5 234.3,-37.5"/>
<text text-anchor="middle" x="188.5" y="-37.8" font-family="Times,serif" font-size="14.00">possède 100%</text>
</g>
</g>
</svg>
