<?xml version="1.0" encoding="UTF-8" standalone="no"?>
<!DOCTYPE svg PUBLIC "-//W3C//DTD SVG 1.1//EN"
 "http://www.w3.org/Graphics/SVG/1.1/DTD/svg11.dtd">
<!-- Generated by graphviz version 8.1.0 (20230707.0739)
 -->
<!-- Pages: 1 -->
<svg width="476pt" height="76pt"
 viewBox="0.00 0.00 475.59 76.00" xmlns="http://www.w3.org/2000/svg" xmlns:xlink="http://www.w3.org/1999/xlink">
<g id="graph0" class="graph" transform="scale(1 1) rotate(0) translate(4 72)">
<polygon fill="white" stroke="none" points="-4,4 -4,-72 471.59,-72 471.59,4 -4,4"/>
<g id="clust2" class="cluster">
<title>clusterLeaves</title>
<polygon fill="none" stroke="black" points="237.5,-8 237.5,-60 459.59,-60 459.59,-8 237.5,-8"/>
</g>
<!-- republique&#45;francaise&#45;128 -->
<g id="node1" class="node">
<title>republique&#45;francaise&#45;128</title>
<polygon fill="none" stroke="black" points="130.75,-52 0,-52 0,-16 130.75,-16 130.75,-52"/>
<text text-anchor="middle" x="65.38" y="-28.95" font-family="Times,serif" font-size="14.00">République française</text>
</g>
<!-- la&#45;chaine&#45;parlementaire&#45;131 -->
<g id="node2" class="node">
<title>la&#45;chaine&#45;parlementaire&#45;131</title>
<ellipse fill="none" stroke="black" cx="348.54" cy="-34" rx="103.04" ry="18"/>
<text text-anchor="middle" x="348.54" y="-28.95" font-family="Times,serif" font-size="14.00">La Chaîne parlementaire</text>
</g>
<!-- republique&#45;francaise&#45;128&#45;&gt;la&#45;chaine&#45;parlementaire&#45;131 -->
<g id="edge1" class="edge">
<title>republique&#45;francaise&#45;128&#45;&gt;la&#45;chaine&#45;parlementaire&#45;131</title>
<path fill="none" stroke="black" d="M131.23,-34C161.8,-34 199.19,-34 234.22,-34"/>
<polygon fill="black" stroke="black" points="234,-37.5 244,-34 234,-30.5 234,-37.5"/>
<text text-anchor="middle" x="188.12" y="-37.2" font-family="Times,serif" font-size="14.00">possède 100%</text>
</g>
</g>
</svg>
