<?xml version="1.0" encoding="UTF-8" standalone="no"?>
<!DOCTYPE svg PUBLIC "-//W3C//DTD SVG 1.1//EN"
 "http://www.w3.org/Graphics/SVG/1.1/DTD/svg11.dtd">
<!-- Generated by graphviz version 8.1.0 (20230707.0739)
 -->
<!-- Pages: 1 -->
<svg width="622pt" height="76pt"
 viewBox="0.00 0.00 622.41 76.00" xmlns="http://www.w3.org/2000/svg" xmlns:xlink="http://www.w3.org/1999/xlink">
<g id="graph0" class="graph" transform="scale(1 1) rotate(0) translate(4 72)">
<polygon fill="white" stroke="none" points="-4,4 -4,-72 618.41,-72 618.41,4 -4,4"/>
<g id="clust2" class="cluster">
<title>clusterLeaves</title>
<polygon fill="none" stroke="black" points="502.04,-8 502.04,-60 606.41,-60 606.41,-8 502.04,-8"/>
</g>
<!-- les&#45;augustins&#45;de&#45;l&#45;assomption&#45;157 -->
<g id="node1" class="node">
<title>les&#45;augustins&#45;de&#45;l&#45;assomption&#45;157</title>
<polygon fill="none" stroke="black" points="187.75,-52 0,-52 0,-16 187.75,-16 187.75,-52"/>
<text text-anchor="middle" x="93.88" y="-28.95" font-family="Times,serif" font-size="14.00">Les Augustins de l’Assomption</text>
</g>
<!-- bayard&#45;158 -->
<g id="node2" class="node">
<title>bayard&#45;158</title>
<polygon fill="none" stroke="black" points="395.29,-39.56 348.89,-52 302.5,-39.56 302.54,-19.44 395.24,-19.44 395.29,-39.56"/>
<text text-anchor="middle" x="348.89" y="-28.95" font-family="Times,serif" font-size="14.00">Bayard</text>
</g>
<!-- les&#45;augustins&#45;de&#45;l&#45;assomption&#45;157&#45;&gt;bayard&#45;158 -->
<g id="edge2" class="edge">
<title>les&#45;augustins&#45;de&#45;l&#45;assomption&#45;157&#45;&gt;bayard&#45;158</title>
<path fill="none" stroke="black" d="M188.01,-34C222.65,-34 260.88,-34 291.27,-34"/>
<polygon fill="black" stroke="black" points="291.09,-37.5 301.09,-34 291.09,-30.5 291.09,-37.5"/>
<text text-anchor="middle" x="245.12" y="-37.2" font-family="Times,serif" font-size="14.00">possède 100%</text>
</g>
<!-- la&#45;croix&#45;159 -->
<g id="node3" class="node">
<title>la&#45;croix&#45;159</title>
<ellipse fill="none" stroke="black" cx="554.22" cy="-34" rx="44.19" ry="18"/>
<text text-anchor="middle" x="554.22" y="-28.95" font-family="Times,serif" font-size="14.00">La Croix</text>
</g>
<!-- bayard&#45;158&#45;&gt;la&#45;croix&#45;159 -->
<g id="edge1" class="edge">
<title>bayard&#45;158&#45;&gt;la&#45;croix&#45;159</title>
<path fill="none" stroke="black" d="M395.52,-34C426.24,-34 466.88,-34 499.21,-34"/>
<polygon fill="black" stroke="black" points="498.83,-37.5 508.83,-34 498.83,-30.5 498.83,-37.5"/>
<text text-anchor="middle" x="452.66" y="-37.2" font-family="Times,serif" font-size="14.00">possède 100%</text>
</g>
</g>
</svg>
