<?xml version="1.0" encoding="UTF-8" standalone="no"?>
<!DOCTYPE svg PUBLIC "-//W3C//DTD SVG 1.1//EN"
 "http://www.w3.org/Graphics/SVG/1.1/DTD/svg11.dtd">
<!-- Generated by graphviz version 7.1.0 (20230121.1956)
 -->
<!-- Pages: 1 -->
<svg width="616pt" height="76pt"
 viewBox="0.00 0.00 616.47 76.00" xmlns="http://www.w3.org/2000/svg" xmlns:xlink="http://www.w3.org/1999/xlink">
<g id="graph0" class="graph" transform="scale(1 1) rotate(0) translate(4 72)">
<polygon fill="white" stroke="none" points="-4,4 -4,-72 612.47,-72 612.47,4 -4,4"/>
<g id="clust2" class="cluster">
<title>clusterLeaves</title>
<polygon fill="none" stroke="black" points="499.98,-8 499.98,-60 600.47,-60 600.47,-8 499.98,-8"/>
</g>
<!-- les&#45;augustins&#45;de&#45;l&#45;assomption&#45;157 -->
<g id="node1" class="node">
<title>les&#45;augustins&#45;de&#45;l&#45;assomption&#45;157</title>
<polygon fill="none" stroke="black" points="188,-52 0,-52 0,-16 188,-16 188,-52"/>
<text text-anchor="middle" x="94" y="-30.3" font-family="Times,serif" font-size="14.00">Les Augustins de l’Assomption</text>
</g>
<!-- bayard&#45;158 -->
<g id="node2" class="node">
<title>bayard&#45;158</title>
<polygon fill="none" stroke="black" points="392.97,-39.56 347.99,-52 303.01,-39.56 303.05,-19.44 392.92,-19.44 392.97,-39.56"/>
<text text-anchor="middle" x="347.99" y="-30.3" font-family="Times,serif" font-size="14.00">Bayard</text>
</g>
<!-- les&#45;augustins&#45;de&#45;l&#45;assomption&#45;157&#45;&gt;bayard&#45;158 -->
<g id="edge2" class="edge">
<title>les&#45;augustins&#45;de&#45;l&#45;assomption&#45;157&#45;&gt;bayard&#45;158</title>
<path fill="none" stroke="black" d="M188.47,-34C223.12,-34 261.3,-34 291.5,-34"/>
<polygon fill="black" stroke="black" points="291.15,-37.5 301.15,-34 291.15,-30.5 291.15,-37.5"/>
<text text-anchor="middle" x="245.5" y="-37.8" font-family="Times,serif" font-size="14.00">possède 100%</text>
</g>
<!-- la&#45;croix&#45;159 -->
<g id="node3" class="node">
<title>la&#45;croix&#45;159</title>
<ellipse fill="none" stroke="black" cx="550.22" cy="-34" rx="42.49" ry="18"/>
<text text-anchor="middle" x="550.22" y="-30.3" font-family="Times,serif" font-size="14.00">La Croix</text>
</g>
<!-- bayard&#45;158&#45;&gt;la&#45;croix&#45;159 -->
<g id="edge1" class="edge">
<title>bayard&#45;158&#45;&gt;la&#45;croix&#45;159</title>
<path fill="none" stroke="black" d="M393.43,-34C423.7,-34 463.93,-34 495.92,-34"/>
<polygon fill="black" stroke="black" points="495.79,-37.5 505.79,-34 495.79,-30.5 495.79,-37.5"/>
<text text-anchor="middle" x="450.48" y="-37.8" font-family="Times,serif" font-size="14.00">possède 100%</text>
</g>
</g>
</svg>
