<?xml version="1.0" encoding="UTF-8" standalone="no"?>
<!DOCTYPE svg PUBLIC "-//W3C//DTD SVG 1.1//EN"
 "http://www.w3.org/Graphics/SVG/1.1/DTD/svg11.dtd">
<!-- Generated by graphviz version 8.1.0 (20230707.0739)
 -->
<!-- Pages: 1 -->
<svg width="1066pt" height="110pt"
 viewBox="0.00 0.00 1065.70 110.00" xmlns="http://www.w3.org/2000/svg" xmlns:xlink="http://www.w3.org/1999/xlink">
<g id="graph0" class="graph" transform="scale(1 1) rotate(0) translate(4 106)">
<polygon fill="white" stroke="none" points="-4,4 -4,-106 1061.7,-106 1061.7,4 -4,4"/>
<g id="clust2" class="cluster">
<title>clusterLeaves</title>
<polygon fill="none" stroke="black" points="824.54,-42 824.54,-94 1049.7,-94 1049.7,-42 824.54,-42"/>
</g>
<!-- fondation&#45;varenne&#45;220 -->
<g id="node1" class="node">
<title>fondation&#45;varenne&#45;220</title>
<polygon fill="none" stroke="black" points="118,-99 0,-99 0,-63 118,-63 118,-99"/>
<text text-anchor="middle" x="59" y="-75.95" font-family="Times,serif" font-size="14.00">Fondation Varenne</text>
</g>
<!-- groupe&#45;la&#45;montagne&#45;222 -->
<g id="node3" class="node">
<title>groupe&#45;la&#45;montagne&#45;222</title>
<polygon fill="none" stroke="black" points="451.64,-86.56 338.82,-99 226,-86.56 226.11,-66.44 451.53,-66.44 451.64,-86.56"/>
<text text-anchor="middle" x="338.82" y="-75.95" font-family="Times,serif" font-size="14.00">Groupe La Montagne</text>
</g>
<!-- fondation&#45;varenne&#45;220&#45;&gt;groupe&#45;la&#45;montagne&#45;222 -->
<g id="edge2" class="edge">
<title>fondation&#45;varenne&#45;220&#45;&gt;groupe&#45;la&#45;montagne&#45;222</title>
<path fill="none" stroke="black" d="M118.24,-81C146.38,-81 181.28,-81 214.91,-81"/>
<polygon fill="black" stroke="black" points="214.78,-84.5 224.78,-81 214.78,-77.5 214.78,-84.5"/>
<text text-anchor="middle" x="172" y="-84.2" font-family="Times,serif" font-size="14.00">possède 50%</text>
</g>
<!-- fondation&#45;varenne&#45;220&#45;&gt;groupe&#45;la&#45;montagne&#45;222 -->
<g id="edge6" class="edge">
<title>fondation&#45;varenne&#45;220&#45;&gt;groupe&#45;la&#45;montagne&#45;222</title>
<path fill="none" stroke="black" d="M118.19,-63.64C124.16,-62.36 130.17,-61.27 136,-60.5 176.04,-55.19 220.7,-58.76 257.82,-64.31"/>
<polygon fill="black" stroke="black" points="257.15,-67.9 267.58,-66 258.24,-60.99 257.15,-67.9"/>
<text text-anchor="middle" x="172" y="-64.2" font-family="Times,serif" font-size="14.00">possède 50%</text>
</g>
<!-- famille&#45;saint&#45;cricq&#45;221 -->
<g id="node2" class="node">
<title>famille&#45;saint&#45;cricq&#45;221</title>
<polygon fill="none" stroke="black" points="407.94,-36 269.69,-36 269.69,0 407.94,0 407.94,-36"/>
<text text-anchor="middle" x="338.82" y="-14.07" font-family="Times,serif" font-size="14.00">🧑‍💼Famille Saint&#45;Cricq</text>
</g>
<!-- groupe&#45;nrco&#45;237 -->
<g id="node4" class="node">
<title>groupe&#45;nrco&#45;237</title>
<polygon fill="none" stroke="black" points="724.54,-41.56 642.09,-54 559.64,-41.56 559.71,-21.44 724.47,-21.44 724.54,-41.56"/>
<text text-anchor="middle" x="642.09" y="-30.95" font-family="Times,serif" font-size="14.00">Groupe NRCO</text>
</g>
<!-- famille&#45;saint&#45;cricq&#45;221&#45;&gt;groupe&#45;nrco&#45;237 -->
<g id="edge4" class="edge">
<title>famille&#45;saint&#45;cricq&#45;221&#45;&gt;groupe&#45;nrco&#45;237</title>
<path fill="none" stroke="black" d="M408.14,-15.85C447.29,-15.28 497.3,-15.68 541.64,-19.5 543.89,-19.69 546.16,-19.91 548.45,-20.15"/>
<polygon fill="black" stroke="black" points="547.94,-23.72 558.27,-21.38 548.73,-16.77 547.94,-23.72"/>
<text text-anchor="middle" x="505.64" y="-23.2" font-family="Times,serif" font-size="14.00">possède 15%</text>
</g>
<!-- groupe&#45;la&#45;montagne&#45;222&#45;&gt;groupe&#45;nrco&#45;237 -->
<g id="edge5" class="edge">
<title>groupe&#45;la&#45;montagne&#45;222&#45;&gt;groupe&#45;nrco&#45;237</title>
<path fill="none" stroke="black" d="M428.45,-65.98C442.23,-63.75 456.31,-61.52 469.64,-59.5 500.86,-54.78 535.34,-49.97 565.14,-45.95"/>
<polygon fill="black" stroke="black" points="565.45,-49.3 574.9,-44.5 564.52,-42.36 565.45,-49.3"/>
<text text-anchor="middle" x="505.64" y="-63.2" font-family="Times,serif" font-size="14.00">possède 16%</text>
</g>
<!-- la&#45;republique&#45;du&#45;centre&#45;236 -->
<g id="node5" class="node">
<title>la&#45;republique&#45;du&#45;centre&#45;236</title>
<ellipse fill="none" stroke="black" cx="937.12" cy="-68" rx="104.58" ry="18"/>
<text text-anchor="middle" x="937.12" y="-62.95" font-family="Times,serif" font-size="14.00">La République du Centre</text>
</g>
<!-- groupe&#45;la&#45;montagne&#45;222&#45;&gt;la&#45;republique&#45;du&#45;centre&#45;236 -->
<g id="edge1" class="edge">
<title>groupe&#45;la&#45;montagne&#45;222&#45;&gt;la&#45;republique&#45;du&#45;centre&#45;236</title>
<path fill="none" stroke="black" d="M452.07,-80.44C548.28,-79.69 690.56,-77.97 814.54,-74 818.25,-73.88 822.01,-73.75 825.82,-73.61"/>
<polygon fill="black" stroke="black" points="825.75,-77.08 835.61,-73.19 825.48,-70.08 825.75,-77.08"/>
<text text-anchor="middle" x="642.09" y="-83.2" font-family="Times,serif" font-size="14.00">possède 70%</text>
</g>
<!-- groupe&#45;nrco&#45;237&#45;&gt;la&#45;republique&#45;du&#45;centre&#45;236 -->
<g id="edge3" class="edge">
<title>groupe&#45;nrco&#45;237&#45;&gt;la&#45;republique&#45;du&#45;centre&#45;236</title>
<path fill="none" stroke="black" d="M713.65,-43.71C750.65,-47.75 796.58,-52.76 837.09,-57.18"/>
<polygon fill="black" stroke="black" points="836.48,-60.75 846.8,-58.36 837.24,-53.79 836.48,-60.75"/>
<text text-anchor="middle" x="778.54" y="-57.2" font-family="Times,serif" font-size="14.00">possède 30%</text>
</g>
</g>
</svg>
