<?xml version="1.0" encoding="UTF-8" standalone="no"?>
<!DOCTYPE svg PUBLIC "-//W3C//DTD SVG 1.1//EN"
 "http://www.w3.org/Graphics/SVG/1.1/DTD/svg11.dtd">
<!-- Generated by graphviz version 7.1.0 (20230121.1956)
 -->
<!-- Pages: 1 -->
<svg width="1043pt" height="107pt"
 viewBox="0.00 0.00 1042.95 107.00" xmlns="http://www.w3.org/2000/svg" xmlns:xlink="http://www.w3.org/1999/xlink">
<g id="graph0" class="graph" transform="scale(1 1) rotate(0) translate(4 103)">
<polygon fill="white" stroke="none" points="-4,4 -4,-103 1038.95,-103 1038.95,4 -4,4"/>
<g id="clust2" class="cluster">
<title>clusterLeaves</title>
<polygon fill="none" stroke="black" points="810.77,-39 810.77,-91 1026.95,-91 1026.95,-39 810.77,-39"/>
</g>
<!-- fondation&#45;varenne&#45;220 -->
<g id="node1" class="node">
<title>fondation&#45;varenne&#45;220</title>
<polygon fill="none" stroke="black" points="119,-97 0,-97 0,-61 119,-61 119,-97"/>
<text text-anchor="middle" x="59.5" y="-75.3" font-family="Times,serif" font-size="14.00">Fondation Varenne</text>
</g>
<!-- groupe&#45;la&#45;montagne&#45;222 -->
<g id="node3" class="node">
<title>groupe&#45;la&#45;montagne&#45;222</title>
<polygon fill="none" stroke="black" points="443.46,-84.56 335.65,-97 227.85,-84.56 227.95,-64.44 443.36,-64.44 443.46,-84.56"/>
<text text-anchor="middle" x="335.65" y="-75.3" font-family="Times,serif" font-size="14.00">Groupe La Montagne</text>
</g>
<!-- fondation&#45;varenne&#45;220&#45;&gt;groupe&#45;la&#45;montagne&#45;222 -->
<g id="edge2" class="edge">
<title>fondation&#45;varenne&#45;220&#45;&gt;groupe&#45;la&#45;montagne&#45;222</title>
<path fill="none" stroke="black" d="M119.31,-79C147.65,-79 182.71,-79 216.24,-79"/>
<polygon fill="black" stroke="black" points="216.03,-82.5 226.03,-79 216.03,-75.5 216.03,-82.5"/>
<text text-anchor="middle" x="173.5" y="-82.8" font-family="Times,serif" font-size="14.00">possède 50%</text>
</g>
<!-- fondation&#45;varenne&#45;220&#45;&gt;groupe&#45;la&#45;montagne&#45;222 -->
<g id="edge6" class="edge">
<title>fondation&#45;varenne&#45;220&#45;&gt;groupe&#45;la&#45;montagne&#45;222</title>
<path fill="none" stroke="black" d="M119.12,-62.91C125.12,-61.73 131.16,-60.71 137,-60 173.13,-55.58 213.07,-58.04 247.54,-62.45"/>
<polygon fill="black" stroke="black" points="246.65,-65.86 257.03,-63.74 247.59,-58.93 246.65,-65.86"/>
<text text-anchor="middle" x="173.5" y="-63.8" font-family="Times,serif" font-size="14.00">possède 50%</text>
</g>
<!-- famille&#45;saint&#45;cricq&#45;221 -->
<g id="node2" class="node">
<title>famille&#45;saint&#45;cricq&#45;221</title>
<polygon fill="none" stroke="black" points="405.15,-36 266.15,-36 266.15,0 405.15,0 405.15,-36"/>
<text text-anchor="middle" x="335.65" y="-14.3" font-family="Times,serif" font-size="14.00">🧑‍💼Famille Saint&#45;Cricq</text>
</g>
<!-- groupe&#45;nrco&#45;237 -->
<g id="node4" class="node">
<title>groupe&#45;nrco&#45;237</title>
<polygon fill="none" stroke="black" points="710,-37.56 631.03,-50 552.07,-37.56 552.15,-17.44 709.92,-17.44 710,-37.56"/>
<text text-anchor="middle" x="631.03" y="-28.3" font-family="Times,serif" font-size="14.00">Groupe NRCO</text>
</g>
<!-- famille&#45;saint&#45;cricq&#45;221&#45;&gt;groupe&#45;nrco&#45;237 -->
<g id="edge4" class="edge">
<title>famille&#45;saint&#45;cricq&#45;221&#45;&gt;groupe&#45;nrco&#45;237</title>
<path fill="none" stroke="black" d="M405.34,-16.16C443.39,-15.69 491.52,-16 534.3,-19 536.35,-19.14 538.42,-19.3 540.5,-19.48"/>
<polygon fill="black" stroke="black" points="539.97,-22.94 550.25,-20.39 540.62,-15.97 539.97,-22.94"/>
<text text-anchor="middle" x="497.8" y="-22.8" font-family="Times,serif" font-size="14.00">possède 15%</text>
</g>
<!-- groupe&#45;la&#45;montagne&#45;222&#45;&gt;groupe&#45;nrco&#45;237 -->
<g id="edge5" class="edge">
<title>groupe&#45;la&#45;montagne&#45;222&#45;&gt;groupe&#45;nrco&#45;237</title>
<path fill="none" stroke="black" d="M420.08,-63.95C433.84,-61.56 447.96,-59.17 461.3,-57 492.8,-51.89 527.67,-46.65 557.49,-42.3"/>
<polygon fill="black" stroke="black" points="557.77,-45.8 567.16,-40.9 556.76,-38.87 557.77,-45.8"/>
<text text-anchor="middle" x="497.8" y="-60.8" font-family="Times,serif" font-size="14.00">possède 16%</text>
</g>
<!-- la&#45;republique&#45;du&#45;centre&#45;236 -->
<g id="node5" class="node">
<title>la&#45;republique&#45;du&#45;centre&#45;236</title>
<ellipse fill="none" stroke="black" cx="918.86" cy="-65" rx="100.18" ry="18"/>
<text text-anchor="middle" x="918.86" y="-61.3" font-family="Times,serif" font-size="14.00">La République du Centre</text>
</g>
<!-- groupe&#45;la&#45;montagne&#45;222&#45;&gt;la&#45;republique&#45;du&#45;centre&#45;236 -->
<g id="edge1" class="edge">
<title>groupe&#45;la&#45;montagne&#45;222&#45;&gt;la&#45;republique&#45;du&#45;centre&#45;236</title>
<path fill="none" stroke="black" d="M443.59,-78.19C537.68,-77.23 678.34,-75.19 800.77,-71 804.16,-70.88 807.62,-70.76 811.11,-70.62"/>
<polygon fill="black" stroke="black" points="810.97,-74.13 820.82,-70.22 810.69,-67.14 810.97,-74.13"/>
<text text-anchor="middle" x="631.03" y="-80.8" font-family="Times,serif" font-size="14.00">possède 70%</text>
</g>
<!-- groupe&#45;nrco&#45;237&#45;&gt;la&#45;republique&#45;du&#45;centre&#45;236 -->
<g id="edge3" class="edge">
<title>groupe&#45;nrco&#45;237&#45;&gt;la&#45;republique&#45;du&#45;centre&#45;236</title>
<path fill="none" stroke="black" d="M699.05,-39.74C735.7,-43.97 781.73,-49.28 822.1,-53.94"/>
<polygon fill="black" stroke="black" points="821.49,-57.4 831.82,-55.07 822.29,-50.44 821.49,-57.4"/>
<text text-anchor="middle" x="764.27" y="-55.8" font-family="Times,serif" font-size="14.00">possède 30%</text>
</g>
</g>
</svg>
