<?xml version="1.0" encoding="UTF-8" standalone="no"?>
<!DOCTYPE svg PUBLIC "-//W3C//DTD SVG 1.1//EN"
 "http://www.w3.org/Graphics/SVG/1.1/DTD/svg11.dtd">
<!-- Generated by graphviz version 7.1.0 (20230121.1956)
 -->
<!-- Pages: 1 -->
<svg width="1504pt" height="1156pt"
 viewBox="0.00 0.00 1504.41 1156.00" xmlns="http://www.w3.org/2000/svg" xmlns:xlink="http://www.w3.org/1999/xlink">
<g id="graph0" class="graph" transform="scale(1 1) rotate(0) translate(4 1152)">
<polygon fill="white" stroke="none" points="-4,4 -4,-1152 1500.41,-1152 1500.41,4 -4,4"/>
<g id="clust2" class="cluster">
<title>clusterLeaves</title>
<polygon fill="none" stroke="black" points="1189.03,-8 1189.03,-1140 1488.41,-1140 1488.41,-8 1189.03,-8"/>
</g>
<!-- credit&#45;agricole&#45;nord&#45;de&#45;france&#45;172 -->
<g id="node1" class="node">
<title>credit&#45;agricole&#45;nord&#45;de&#45;france&#45;172</title>
<polygon fill="none" stroke="black" points="427,-619 238,-619 238,-583 427,-583 427,-619"/>
<text text-anchor="middle" x="332.5" y="-597.3" font-family="Times,serif" font-size="14.00">Crédit Agricole Nord de France</text>
</g>
<!-- groupe&#45;rossel&#45;la&#45;voix&#45;184 -->
<g id="node3" class="node">
<title>groupe&#45;rossel&#45;la&#45;voix&#45;184</title>
<polygon fill="none" stroke="black" points="765.65,-579.56 650.88,-592 536.12,-579.56 536.22,-559.44 765.54,-559.44 765.65,-579.56"/>
<text text-anchor="middle" x="650.88" y="-570.3" font-family="Times,serif" font-size="14.00">Groupe Rossel La Voix</text>
</g>
<!-- credit&#45;agricole&#45;nord&#45;de&#45;france&#45;172&#45;&gt;groupe&#45;rossel&#45;la&#45;voix&#45;184 -->
<g id="edge2" class="edge">
<title>credit&#45;agricole&#45;nord&#45;de&#45;france&#45;172&#45;&gt;groupe&#45;rossel&#45;la&#45;voix&#45;184</title>
<path fill="none" stroke="black" d="M427.14,-593.01C463.88,-589.87 506.21,-586.26 544.05,-583.03"/>
<polygon fill="black" stroke="black" points="543.94,-586.55 553.61,-582.22 543.34,-579.58 543.94,-586.55"/>
<text text-anchor="middle" x="481.5" y="-593.8" font-family="Times,serif" font-size="14.00">possède 25%</text>
</g>
<!-- famille&#45;hurbain&#45;171 -->
<g id="node2" class="node">
<title>famille&#45;hurbain&#45;171</title>
<polygon fill="none" stroke="black" points="121,-565 0,-565 0,-529 121,-529 121,-565"/>
<text text-anchor="middle" x="60.5" y="-543.3" font-family="Times,serif" font-size="14.00">🧑‍💼Famille Hurbain</text>
</g>
<!-- groupe&#45;rossel&#45;183 -->
<g id="node5" class="node">
<title>groupe&#45;rossel&#45;183</title>
<polygon fill="none" stroke="black" points="410.35,-552.56 332.5,-565 254.65,-552.56 254.72,-532.44 410.28,-532.44 410.35,-552.56"/>
<text text-anchor="middle" x="332.5" y="-543.3" font-family="Times,serif" font-size="14.00">Groupe Rossel</text>
</g>
<!-- famille&#45;hurbain&#45;171&#45;&gt;groupe&#45;rossel&#45;183 -->
<g id="edge4" class="edge">
<title>famille&#45;hurbain&#45;171&#45;&gt;groupe&#45;rossel&#45;183</title>
<path fill="none" stroke="black" d="M121.42,-547C157.13,-547 203.12,-547 242.96,-547"/>
<polygon fill="black" stroke="black" points="242.77,-550.5 252.77,-547 242.77,-543.5 242.77,-550.5"/>
<text text-anchor="middle" x="179.5" y="-550.8" font-family="Times,serif" font-size="14.00">contrôle 100%</text>
</g>
<!-- la&#45;voix&#45;du&#45;nord&#45;sa&#45;185 -->
<g id="node4" class="node">
<title>la&#45;voix&#45;du&#45;nord&#45;sa&#45;185</title>
<polygon fill="none" stroke="black" points="1082.17,-579.56 978.4,-592 874.63,-579.56 874.73,-559.44 1082.07,-559.44 1082.17,-579.56"/>
<text text-anchor="middle" x="978.4" y="-570.3" font-family="Times,serif" font-size="14.00">La Voix du Nord SA</text>
</g>
<!-- groupe&#45;rossel&#45;la&#45;voix&#45;184&#45;&gt;la&#45;voix&#45;du&#45;nord&#45;sa&#45;185 -->
<g id="edge1" class="edge">
<title>groupe&#45;rossel&#45;la&#45;voix&#45;184&#45;&gt;la&#45;voix&#45;du&#45;nord&#45;sa&#45;185</title>
<path fill="none" stroke="black" d="M765.73,-574C797.17,-574 831.28,-574 862.76,-574"/>
<polygon fill="black" stroke="black" points="862.71,-577.5 872.71,-574 862.71,-570.5 862.71,-577.5"/>
<text text-anchor="middle" x="820.26" y="-577.8" font-family="Times,serif" font-size="14.00">possède 96%</text>
</g>
<!-- courrier&#45;picard&#45;189 -->
<g id="node6" class="node">
<title>courrier&#45;picard&#45;189</title>
<ellipse fill="none" stroke="black" cx="1338.72" cy="-1114" rx="64.99" ry="18"/>
<text text-anchor="middle" x="1338.72" y="-1110.3" font-family="Times,serif" font-size="14.00">Courrier picard</text>
</g>
<!-- la&#45;voix&#45;du&#45;nord&#45;sa&#45;185&#45;&gt;courrier&#45;picard&#45;189 -->
<g id="edge5" class="edge">
<title>la&#45;voix&#45;du&#45;nord&#45;sa&#45;185&#45;&gt;courrier&#45;picard&#45;189</title>
<path fill="none" stroke="black" d="M981.13,-592.01C989.3,-673.4 1026.8,-1005.72 1100.03,-1074 1144.23,-1115.21 1214.2,-1122.65 1266.8,-1121.31"/>
<polygon fill="black" stroke="black" points="1266.7,-1124.82 1276.56,-1120.95 1266.44,-1117.83 1266.7,-1124.82"/>
<text text-anchor="middle" x="1139.53" y="-1114.8" font-family="Times,serif" font-size="14.00">possède 100%</text>
</g>
<!-- l&#45;aisne&#45;nouvelle&#45;190 -->
<g id="node7" class="node">
<title>l&#45;aisne&#45;nouvelle&#45;190</title>
<ellipse fill="none" stroke="black" cx="1338.72" cy="-1060" rx="71.49" ry="18"/>
<text text-anchor="middle" x="1338.72" y="-1056.3" font-family="Times,serif" font-size="14.00">L’aisne Nouvelle</text>
</g>
<!-- la&#45;voix&#45;du&#45;nord&#45;sa&#45;185&#45;&gt;l&#45;aisne&#45;nouvelle&#45;190 -->
<g id="edge6" class="edge">
<title>la&#45;voix&#45;du&#45;nord&#45;sa&#45;185&#45;&gt;l&#45;aisne&#45;nouvelle&#45;190</title>
<path fill="none" stroke="black" d="M981.73,-591.95C991.89,-667.32 1034.74,-957.15 1100.03,-1017 1142.5,-1055.92 1207.82,-1065.46 1259.25,-1065.93"/>
<polygon fill="black" stroke="black" points="1259.16,-1069.43 1269.15,-1065.9 1259.14,-1062.43 1259.16,-1069.43"/>
<text text-anchor="middle" x="1139.53" y="-1058.8" font-family="Times,serif" font-size="14.00">possède 100%</text>
</g>
<!-- l&#45;avenir&#45;de&#45;l&#45;artois&#45;193 -->
<g id="node8" class="node">
<title>l&#45;avenir&#45;de&#45;l&#45;artois&#45;193</title>
<ellipse fill="none" stroke="black" cx="1338.72" cy="-1006" rx="83.39" ry="18"/>
<text text-anchor="middle" x="1338.72" y="-1002.3" font-family="Times,serif" font-size="14.00">L’Avenir de l’Artois</text>
</g>
<!-- la&#45;voix&#45;du&#45;nord&#45;sa&#45;185&#45;&gt;l&#45;avenir&#45;de&#45;l&#45;artois&#45;193 -->
<g id="edge7" class="edge">
<title>la&#45;voix&#45;du&#45;nord&#45;sa&#45;185&#45;&gt;l&#45;avenir&#45;de&#45;l&#45;artois&#45;193</title>
<path fill="none" stroke="black" d="M979.16,-592.18C979.41,-653.83 988.98,-856.76 1100.03,-959 1138.94,-994.81 1196.95,-1006.79 1245.92,-1009.7"/>
<polygon fill="black" stroke="black" points="1245.52,-1013.19 1255.67,-1010.15 1245.84,-1006.19 1245.52,-1013.19"/>
<text text-anchor="middle" x="1139.53" y="-1001.8" font-family="Times,serif" font-size="14.00">possède 100%</text>
</g>
<!-- l&#45;echo&#45;de&#45;la&#45;lys&#45;206 -->
<g id="node9" class="node">
<title>l&#45;echo&#45;de&#45;la&#45;lys&#45;206</title>
<ellipse fill="none" stroke="black" cx="1338.72" cy="-952" rx="71.49" ry="18"/>
<text text-anchor="middle" x="1338.72" y="-948.3" font-family="Times,serif" font-size="14.00">L’Echo de la Lys</text>
</g>
<!-- la&#45;voix&#45;du&#45;nord&#45;sa&#45;185&#45;&gt;l&#45;echo&#45;de&#45;la&#45;lys&#45;206 -->
<g id="edge8" class="edge">
<title>la&#45;voix&#45;du&#45;nord&#45;sa&#45;185&#45;&gt;l&#45;echo&#45;de&#45;la&#45;lys&#45;206</title>
<path fill="none" stroke="black" d="M980.53,-591.89C984.98,-646.61 1006,-813.25 1100.03,-900 1141.82,-938.54 1205.35,-950.93 1256.22,-954.02"/>
<polygon fill="black" stroke="black" points="1255.87,-957.5 1266.02,-954.49 1256.2,-950.51 1255.87,-957.5"/>
<text text-anchor="middle" x="1139.53" y="-943.8" font-family="Times,serif" font-size="14.00">possède 100%</text>
</g>
<!-- l&#45;essor&#45;savoyard&#45;197 -->
<g id="node10" class="node">
<title>l&#45;essor&#45;savoyard&#45;197</title>
<ellipse fill="none" stroke="black" cx="1338.72" cy="-898" rx="72.29" ry="18"/>
<text text-anchor="middle" x="1338.72" y="-894.3" font-family="Times,serif" font-size="14.00">L’Essor savoyard</text>
</g>
<!-- la&#45;voix&#45;du&#45;nord&#45;sa&#45;185&#45;&gt;l&#45;essor&#45;savoyard&#45;197 -->
<g id="edge9" class="edge">
<title>la&#45;voix&#45;du&#45;nord&#45;sa&#45;185&#45;&gt;l&#45;essor&#45;savoyard&#45;197</title>
<path fill="none" stroke="black" d="M982.39,-591.83C991.28,-639.38 1021.98,-770.33 1100.03,-841 1141.86,-878.86 1204.34,-892.77 1254.75,-897.4"/>
<polygon fill="black" stroke="black" points="1254.21,-900.86 1264.46,-898.17 1254.77,-893.89 1254.21,-900.86"/>
<text text-anchor="middle" x="1139.53" y="-884.8" font-family="Times,serif" font-size="14.00">possède 100%</text>
</g>
<!-- l&#45;est&#45;eclair&#45;liberation&#45;champagne&#45;192 -->
<g id="node11" class="node">
<title>l&#45;est&#45;eclair&#45;liberation&#45;champagne&#45;192</title>
<ellipse fill="none" stroke="black" cx="1338.72" cy="-844" rx="141.88" ry="18"/>
<text text-anchor="middle" x="1338.72" y="-840.3" font-family="Times,serif" font-size="14.00">L’Est&#45;éclair &#45; Libération Champagne</text>
</g>
<!-- la&#45;voix&#45;du&#45;nord&#45;sa&#45;185&#45;&gt;l&#45;est&#45;eclair&#45;liberation&#45;champagne&#45;192 -->
<g id="edge10" class="edge">
<title>la&#45;voix&#45;du&#45;nord&#45;sa&#45;185&#45;&gt;l&#45;est&#45;eclair&#45;liberation&#45;champagne&#45;192</title>
<path fill="none" stroke="black" d="M985.1,-591.69C998.7,-631.24 1036.72,-727.58 1100.03,-782 1129.84,-807.62 1168.99,-822.82 1206.89,-831.8"/>
<polygon fill="black" stroke="black" points="1206.07,-835.2 1216.59,-833.95 1207.58,-828.37 1206.07,-835.2"/>
<text text-anchor="middle" x="1139.53" y="-825.8" font-family="Times,serif" font-size="14.00">possède 100%</text>
</g>
<!-- l&#45;indicateur&#45;205 -->
<g id="node12" class="node">
<title>l&#45;indicateur&#45;205</title>
<ellipse fill="none" stroke="black" cx="1338.72" cy="-790" rx="53.89" ry="18"/>
<text text-anchor="middle" x="1338.72" y="-786.3" font-family="Times,serif" font-size="14.00">L’indicateur</text>
</g>
<!-- la&#45;voix&#45;du&#45;nord&#45;sa&#45;185&#45;&gt;l&#45;indicateur&#45;205 -->
<g id="edge11" class="edge">
<title>la&#45;voix&#45;du&#45;nord&#45;sa&#45;185&#45;&gt;l&#45;indicateur&#45;205</title>
<path fill="none" stroke="black" d="M989.27,-591.07C1007.58,-621.48 1049.61,-685.41 1100.03,-724 1150.62,-762.72 1222.67,-778.72 1274.16,-785.34"/>
<polygon fill="black" stroke="black" points="1273.63,-788.8 1283.97,-786.51 1274.45,-781.85 1273.63,-788.8"/>
<text text-anchor="middle" x="1139.53" y="-766.8" font-family="Times,serif" font-size="14.00">possède 100%</text>
</g>
<!-- l&#45;union&#45;l&#45;ardennais&#45;191 -->
<g id="node13" class="node">
<title>l&#45;union&#45;l&#45;ardennais&#45;191</title>
<ellipse fill="none" stroke="black" cx="1338.72" cy="-736" rx="92.08" ry="18"/>
<text text-anchor="middle" x="1338.72" y="-732.3" font-family="Times,serif" font-size="14.00">L’Union &#45; L’Ardennais</text>
</g>
<!-- la&#45;voix&#45;du&#45;nord&#45;sa&#45;185&#45;&gt;l&#45;union&#45;l&#45;ardennais&#45;191 -->
<g id="edge12" class="edge">
<title>la&#45;voix&#45;du&#45;nord&#45;sa&#45;185&#45;&gt;l&#45;union&#45;l&#45;ardennais&#45;191</title>
<path fill="none" stroke="black" d="M996.71,-590.19C1019.23,-610.65 1060.38,-646.09 1100.03,-670 1137.02,-692.3 1147.73,-696.39 1189.03,-709 1208.72,-715.01 1230.31,-719.87 1250.79,-723.73"/>
<polygon fill="black" stroke="black" points="1250.07,-727.16 1260.54,-725.5 1251.32,-720.27 1250.07,-727.16"/>
<text text-anchor="middle" x="1139.53" y="-708.8" font-family="Times,serif" font-size="14.00">possède 100%</text>
</g>
<!-- la&#45;savoie&#45;200 -->
<g id="node14" class="node">
<title>la&#45;savoie&#45;200</title>
<ellipse fill="none" stroke="black" cx="1338.72" cy="-682" rx="46.29" ry="18"/>
<text text-anchor="middle" x="1338.72" y="-678.3" font-family="Times,serif" font-size="14.00">La Savoie</text>
</g>
<!-- la&#45;voix&#45;du&#45;nord&#45;sa&#45;185&#45;&gt;la&#45;savoie&#45;200 -->
<g id="edge13" class="edge">
<title>la&#45;voix&#45;du&#45;nord&#45;sa&#45;185&#45;&gt;la&#45;savoie&#45;200</title>
<path fill="none" stroke="black" d="M1013.31,-588.2C1037.41,-598.19 1070.58,-611.73 1100.03,-623 1139.29,-638.02 1148.44,-644.1 1189.03,-655 1219.88,-663.28 1255.01,-669.79 1283.37,-674.35"/>
<polygon fill="black" stroke="black" points="1282.77,-677.79 1293.19,-675.88 1283.85,-670.88 1282.77,-677.79"/>
<text text-anchor="middle" x="1139.53" y="-654.8" font-family="Times,serif" font-size="14.00">possède 100%</text>
</g>
<!-- la&#45;semaine&#45;dans&#45;le&#45;boulonnais&#45;202 -->
<g id="node15" class="node">
<title>la&#45;semaine&#45;dans&#45;le&#45;boulonnais&#45;202</title>
<ellipse fill="none" stroke="black" cx="1338.72" cy="-628" rx="122.68" ry="18"/>
<text text-anchor="middle" x="1338.72" y="-624.3" font-family="Times,serif" font-size="14.00">La Semaine dans le Boulonnais</text>
</g>
<!-- la&#45;voix&#45;du&#45;nord&#45;sa&#45;185&#45;&gt;la&#45;semaine&#45;dans&#45;le&#45;boulonnais&#45;202 -->
<g id="edge14" class="edge">
<title>la&#45;voix&#45;du&#45;nord&#45;sa&#45;185&#45;&gt;la&#45;semaine&#45;dans&#45;le&#45;boulonnais&#45;202</title>
<path fill="none" stroke="black" d="M1045.12,-584.47C1062.93,-587.28 1082.22,-590.29 1100.03,-593 1145.46,-599.92 1195.8,-607.37 1238.42,-613.6"/>
<polygon fill="black" stroke="black" points="1237.75,-617.04 1248.15,-615.03 1238.76,-610.12 1237.75,-617.04"/>
<text text-anchor="middle" x="1139.53" y="-607.8" font-family="Times,serif" font-size="14.00">possède 100%</text>
</g>
<!-- la&#45;tribune&#45;republicaine&#45;199 -->
<g id="node16" class="node">
<title>la&#45;tribune&#45;republicaine&#45;199</title>
<ellipse fill="none" stroke="black" cx="1338.72" cy="-574" rx="95.58" ry="18"/>
<text text-anchor="middle" x="1338.72" y="-570.3" font-family="Times,serif" font-size="14.00">La Tribune républicaine</text>
</g>
<!-- la&#45;voix&#45;du&#45;nord&#45;sa&#45;185&#45;&gt;la&#45;tribune&#45;republicaine&#45;199 -->
<g id="edge15" class="edge">
<title>la&#45;voix&#45;du&#45;nord&#45;sa&#45;185&#45;&gt;la&#45;tribune&#45;republicaine&#45;199</title>
<path fill="none" stroke="black" d="M1082.56,-574C1129.16,-574 1184.19,-574 1231.19,-574"/>
<polygon fill="black" stroke="black" points="1231.13,-577.5 1241.13,-574 1231.13,-570.5 1231.13,-577.5"/>
<text text-anchor="middle" x="1139.53" y="-577.8" font-family="Times,serif" font-size="14.00">possède 100%</text>
</g>
<!-- la&#45;voix&#45;du&#45;nord&#45;186 -->
<g id="node17" class="node">
<title>la&#45;voix&#45;du&#45;nord&#45;186</title>
<ellipse fill="none" stroke="black" cx="1338.72" cy="-520" rx="70.39" ry="18"/>
<text text-anchor="middle" x="1338.72" y="-516.3" font-family="Times,serif" font-size="14.00">La Voix du Nord</text>
</g>
<!-- la&#45;voix&#45;du&#45;nord&#45;sa&#45;185&#45;&gt;la&#45;voix&#45;du&#45;nord&#45;186 -->
<g id="edge16" class="edge">
<title>la&#45;voix&#45;du&#45;nord&#45;sa&#45;185&#45;&gt;la&#45;voix&#45;du&#45;nord&#45;186</title>
<path fill="none" stroke="black" d="M1074.21,-558.98C1082.94,-557.62 1091.65,-556.28 1100.03,-555 1155.46,-546.55 1218.21,-537.33 1265.31,-530.47"/>
<polygon fill="black" stroke="black" points="1265.74,-533.94 1275.14,-529.04 1264.74,-527.02 1265.74,-533.94"/>
<text text-anchor="middle" x="1139.53" y="-558.8" font-family="Times,serif" font-size="14.00">possède 100%</text>
</g>
<!-- le&#45;journal&#45;de&#45;montreuil&#45;204 -->
<g id="node18" class="node">
<title>le&#45;journal&#45;de&#45;montreuil&#45;204</title>
<ellipse fill="none" stroke="black" cx="1338.72" cy="-466" rx="96.68" ry="18"/>
<text text-anchor="middle" x="1338.72" y="-462.3" font-family="Times,serif" font-size="14.00">Le Journal de Montreuil</text>
</g>
<!-- la&#45;voix&#45;du&#45;nord&#45;sa&#45;185&#45;&gt;le&#45;journal&#45;de&#45;montreuil&#45;204 -->
<g id="edge17" class="edge">
<title>la&#45;voix&#45;du&#45;nord&#45;sa&#45;185&#45;&gt;le&#45;journal&#45;de&#45;montreuil&#45;204</title>
<path fill="none" stroke="black" d="M1014.03,-559.02C1038.03,-548.8 1070.8,-535.14 1100.03,-524 1139.18,-509.09 1148.53,-503.66 1189.03,-493 1208.94,-487.76 1230.62,-483.19 1251.1,-479.38"/>
<polygon fill="black" stroke="black" points="1251.64,-482.84 1260.85,-477.61 1250.39,-475.96 1251.64,-482.84"/>
<text text-anchor="middle" x="1139.53" y="-527.8" font-family="Times,serif" font-size="14.00">possède 100%</text>
</g>
<!-- le&#45;journal&#45;des&#45;flandres&#45;195 -->
<g id="node19" class="node">
<title>le&#45;journal&#45;des&#45;flandres&#45;195</title>
<ellipse fill="none" stroke="black" cx="1338.72" cy="-412" rx="94.78" ry="18"/>
<text text-anchor="middle" x="1338.72" y="-408.3" font-family="Times,serif" font-size="14.00">Le Journal des Flandres</text>
</g>
<!-- la&#45;voix&#45;du&#45;nord&#45;sa&#45;185&#45;&gt;le&#45;journal&#45;des&#45;flandres&#45;195 -->
<g id="edge18" class="edge">
<title>la&#45;voix&#45;du&#45;nord&#45;sa&#45;185&#45;&gt;le&#45;journal&#45;des&#45;flandres&#45;195</title>
<path fill="none" stroke="black" d="M995.12,-558.98C1017.19,-538.47 1059.25,-501.47 1100.03,-477 1136.92,-454.87 1147.84,-451.36 1189.03,-439 1208.43,-433.18 1229.66,-428.41 1249.84,-424.59"/>
<polygon fill="black" stroke="black" points="1250.22,-428.08 1259.43,-422.84 1248.97,-421.19 1250.22,-428.08"/>
<text text-anchor="middle" x="1139.53" y="-480.8" font-family="Times,serif" font-size="14.00">possède 100%</text>
</g>
<!-- le&#45;messager&#45;196 -->
<g id="node20" class="node">
<title>le&#45;messager&#45;196</title>
<ellipse fill="none" stroke="black" cx="1338.72" cy="-358" rx="56.59" ry="18"/>
<text text-anchor="middle" x="1338.72" y="-354.3" font-family="Times,serif" font-size="14.00">Le Messager</text>
</g>
<!-- la&#45;voix&#45;du&#45;nord&#45;sa&#45;185&#45;&gt;le&#45;messager&#45;196 -->
<g id="edge19" class="edge">
<title>la&#45;voix&#45;du&#45;nord&#45;sa&#45;185&#45;&gt;le&#45;messager&#45;196</title>
<path fill="none" stroke="black" d="M987.81,-559.11C1005.22,-529.49 1047.95,-462.6 1100.03,-423 1149.9,-385.08 1220.48,-369.28 1271.77,-362.69"/>
<polygon fill="black" stroke="black" points="1272.04,-366.18 1281.55,-361.53 1271.21,-359.23 1272.04,-366.18"/>
<text text-anchor="middle" x="1139.53" y="-426.8" font-family="Times,serif" font-size="14.00">possède 100%</text>
</g>
<!-- le&#45;pays&#45;gessien&#45;198 -->
<g id="node21" class="node">
<title>le&#45;pays&#45;gessien&#45;198</title>
<ellipse fill="none" stroke="black" cx="1338.72" cy="-304" rx="67.69" ry="18"/>
<text text-anchor="middle" x="1338.72" y="-300.3" font-family="Times,serif" font-size="14.00">Le Pays gessien</text>
</g>
<!-- la&#45;voix&#45;du&#45;nord&#45;sa&#45;185&#45;&gt;le&#45;pays&#45;gessien&#45;198 -->
<g id="edge20" class="edge">
<title>la&#45;voix&#45;du&#45;nord&#45;sa&#45;185&#45;&gt;le&#45;pays&#45;gessien&#45;198</title>
<path fill="none" stroke="black" d="M984.02,-558.95C996.46,-520.85 1034.23,-419.67 1100.03,-364 1144.36,-326.5 1208.95,-311.92 1259.61,-306.5"/>
<polygon fill="black" stroke="black" points="1259.73,-310 1269.35,-305.56 1259.06,-303.03 1259.73,-310"/>
<text text-anchor="middle" x="1139.53" y="-367.8" font-family="Times,serif" font-size="14.00">possède 100%</text>
</g>
<!-- le&#45;phare&#45;dunkerquois&#45;201 -->
<g id="node22" class="node">
<title>le&#45;phare&#45;dunkerquois&#45;201</title>
<ellipse fill="none" stroke="black" cx="1338.72" cy="-250" rx="90.18" ry="18"/>
<text text-anchor="middle" x="1338.72" y="-246.3" font-family="Times,serif" font-size="14.00">Le Phare Dunkerquois</text>
</g>
<!-- la&#45;voix&#45;du&#45;nord&#45;sa&#45;185&#45;&gt;le&#45;phare&#45;dunkerquois&#45;201 -->
<g id="edge21" class="edge">
<title>la&#45;voix&#45;du&#45;nord&#45;sa&#45;185&#45;&gt;le&#45;phare&#45;dunkerquois&#45;201</title>
<path fill="none" stroke="black" d="M981.63,-559.19C989.24,-513.91 1018.39,-375.98 1100.03,-304 1137.28,-271.17 1190.31,-257.09 1236.83,-251.47"/>
<polygon fill="black" stroke="black" points="1237.12,-254.96 1246.69,-250.4 1236.37,-248 1237.12,-254.96"/>
<text text-anchor="middle" x="1139.53" y="-307.8" font-family="Times,serif" font-size="14.00">possède 100%</text>
</g>
<!-- le&#45;reveil&#45;de&#45;berck&#45;203 -->
<g id="node23" class="node">
<title>le&#45;reveil&#45;de&#45;berck&#45;203</title>
<ellipse fill="none" stroke="black" cx="1338.72" cy="-196" rx="79.09" ry="18"/>
<text text-anchor="middle" x="1338.72" y="-192.3" font-family="Times,serif" font-size="14.00">Le Réveil de Berck</text>
</g>
<!-- la&#45;voix&#45;du&#45;nord&#45;sa&#45;185&#45;&gt;le&#45;reveil&#45;de&#45;berck&#45;203 -->
<g id="edge22" class="edge">
<title>la&#45;voix&#45;du&#45;nord&#45;sa&#45;185&#45;&gt;le&#45;reveil&#45;de&#45;berck&#45;203</title>
<path fill="none" stroke="black" d="M980.12,-559.2C983.49,-507.44 1001.96,-332.92 1100.03,-245 1140.2,-208.99 1199.64,-196.75 1249.03,-193.5"/>
<polygon fill="black" stroke="black" points="1249.06,-197 1258.86,-192.98 1248.69,-190.01 1249.06,-197"/>
<text text-anchor="middle" x="1139.53" y="-248.8" font-family="Times,serif" font-size="14.00">possède 100%</text>
</g>
<!-- les&#45;echos&#45;du&#45;touquet&#45;194 -->
<g id="node24" class="node">
<title>les&#45;echos&#45;du&#45;touquet&#45;194</title>
<ellipse fill="none" stroke="black" cx="1338.72" cy="-142" rx="89.88" ry="18"/>
<text text-anchor="middle" x="1338.72" y="-138.3" font-family="Times,serif" font-size="14.00">Les Echos du Touquet</text>
</g>
<!-- la&#45;voix&#45;du&#45;nord&#45;sa&#45;185&#45;&gt;les&#45;echos&#45;du&#45;touquet&#45;194 -->
<g id="edge23" class="edge">
<title>la&#45;voix&#45;du&#45;nord&#45;sa&#45;185&#45;&gt;les&#45;echos&#45;du&#45;touquet&#45;194</title>
<path fill="none" stroke="black" d="M979.06,-558.95C978.64,-501.02 985.35,-290.48 1100.03,-187 1137.63,-153.07 1192.55,-141.12 1240.12,-137.97"/>
<polygon fill="black" stroke="black" points="1240.1,-141.48 1249.9,-137.46 1239.73,-134.49 1240.1,-141.48"/>
<text text-anchor="middle" x="1139.53" y="-190.8" font-family="Times,serif" font-size="14.00">possède 100%</text>
</g>
<!-- nord&#45;eclair&#45;187 -->
<g id="node25" class="node">
<title>nord&#45;eclair&#45;187</title>
<ellipse fill="none" stroke="black" cx="1338.72" cy="-88" rx="50.89" ry="18"/>
<text text-anchor="middle" x="1338.72" y="-84.3" font-family="Times,serif" font-size="14.00">Nord éclair</text>
</g>
<!-- la&#45;voix&#45;du&#45;nord&#45;sa&#45;185&#45;&gt;nord&#45;eclair&#45;187 -->
<g id="edge24" class="edge">
<title>la&#45;voix&#45;du&#45;nord&#45;sa&#45;185&#45;&gt;nord&#45;eclair&#45;187</title>
<path fill="none" stroke="black" d="M981.29,-559.14C990.53,-488.76 1033.29,-189.75 1100.03,-129 1148.21,-85.15 1225.62,-79.45 1278.94,-81.73"/>
<polygon fill="black" stroke="black" points="1278.58,-85.22 1288.75,-82.27 1278.96,-78.23 1278.58,-85.22"/>
<text text-anchor="middle" x="1139.53" y="-132.8" font-family="Times,serif" font-size="14.00">possède 100%</text>
</g>
<!-- nord&#45;littoral&#45;188 -->
<g id="node26" class="node">
<title>nord&#45;littoral&#45;188</title>
<ellipse fill="none" stroke="black" cx="1338.72" cy="-34" rx="57.69" ry="18"/>
<text text-anchor="middle" x="1338.72" y="-30.3" font-family="Times,serif" font-size="14.00">Nord Littoral</text>
</g>
<!-- la&#45;voix&#45;du&#45;nord&#45;sa&#45;185&#45;&gt;nord&#45;littoral&#45;188 -->
<g id="edge25" class="edge">
<title>la&#45;voix&#45;du&#45;nord&#45;sa&#45;185&#45;&gt;nord&#45;littoral&#45;188</title>
<path fill="none" stroke="black" d="M980.79,-559.05C988.19,-483.12 1025.29,-141.18 1100.03,-72 1146.32,-29.16 1220.65,-23.62 1273.86,-26.3"/>
<polygon fill="black" stroke="black" points="1273.5,-29.78 1283.7,-26.91 1273.94,-22.8 1273.5,-29.78"/>
<text text-anchor="middle" x="1139.53" y="-75.8" font-family="Times,serif" font-size="14.00">possède 100%</text>
</g>
<!-- groupe&#45;rossel&#45;183&#45;&gt;groupe&#45;rossel&#45;la&#45;voix&#45;184 -->
<g id="edge3" class="edge">
<title>groupe&#45;rossel&#45;183&#45;&gt;groupe&#45;rossel&#45;la&#45;voix&#45;184</title>
<path fill="none" stroke="black" d="M408.08,-553.36C442.82,-556.33 485.11,-559.94 524.56,-563.3"/>
<polygon fill="black" stroke="black" points="524.1,-566.78 534.36,-564.14 524.7,-559.8 524.1,-566.78"/>
<text text-anchor="middle" x="481.5" y="-565.8" font-family="Times,serif" font-size="14.00">possède 73%</text>
</g>
</g>
</svg>
