<?xml version="1.0" encoding="UTF-8" standalone="no"?>
<!DOCTYPE svg PUBLIC "-//W3C//DTD SVG 1.1//EN"
 "http://www.w3.org/Graphics/SVG/1.1/DTD/svg11.dtd">
<!-- Generated by graphviz version 8.1.0 (20230707.0739)
 -->
<!-- Pages: 1 -->
<svg width="748pt" height="76pt"
 viewBox="0.00 0.00 748.38 76.00" xmlns="http://www.w3.org/2000/svg" xmlns:xlink="http://www.w3.org/1999/xlink">
<g id="graph0" class="graph" transform="scale(1 1) rotate(0) translate(4 72)">
<polygon fill="white" stroke="none" points="-4,4 -4,-72 744.38,-72 744.38,4 -4,4"/>
<g id="clust2" class="cluster">
<title>clusterLeaves</title>
<polygon fill="none" stroke="black" points="470.37,-8 470.37,-60 732.38,-60 732.38,-8 470.37,-8"/>
</g>
<!-- credit&#45;mutuel&#45;207 -->
<g id="node1" class="node">
<title>credit&#45;mutuel&#45;207</title>
<polygon fill="none" stroke="black" points="93.25,-52 0,-52 0,-16 93.25,-16 93.25,-52"/>
<text text-anchor="middle" x="46.62" y="-28.95" font-family="Times,serif" font-size="14.00">Crédit Mutuel</text>
</g>
<!-- groupe&#45;ebra&#45;208 -->
<g id="node2" class="node">
<title>groupe&#45;ebra&#45;208</title>
<polygon fill="none" stroke="black" points="370.37,-39.56 289.19,-52 208,-39.56 208.08,-19.44 370.3,-19.44 370.37,-39.56"/>
<text text-anchor="middle" x="289.19" y="-28.95" font-family="Times,serif" font-size="14.00">Groupe EBRA</text>
</g>
<!-- credit&#45;mutuel&#45;207&#45;&gt;groupe&#45;ebra&#45;208 -->
<g id="edge2" class="edge">
<title>credit&#45;mutuel&#45;207&#45;&gt;groupe&#45;ebra&#45;208</title>
<path fill="none" stroke="black" d="M93.72,-34C122.9,-34 161.64,-34 196.85,-34"/>
<polygon fill="black" stroke="black" points="196.65,-37.5 206.65,-34 196.65,-30.5 196.65,-37.5"/>
<text text-anchor="middle" x="150.62" y="-37.2" font-family="Times,serif" font-size="14.00">possède 100%</text>
</g>
<!-- le&#45;journal&#45;de&#45;la&#45;haute&#45;marne&#45;219 -->
<g id="node3" class="node">
<title>le&#45;journal&#45;de&#45;la&#45;haute&#45;marne&#45;219</title>
<ellipse fill="none" stroke="black" cx="601.38" cy="-34" rx="123" ry="18"/>
<text text-anchor="middle" x="601.38" y="-28.95" font-family="Times,serif" font-size="14.00">Le Journal de la Haute&#45;Marne</text>
</g>
<!-- groupe&#45;ebra&#45;208&#45;&gt;le&#45;journal&#45;de&#45;la&#45;haute&#45;marne&#45;219 -->
<g id="edge1" class="edge">
<title>groupe&#45;ebra&#45;208&#45;&gt;le&#45;journal&#45;de&#45;la&#45;haute&#45;marne&#45;219</title>
<path fill="none" stroke="black" d="M370.47,-34C400.03,-34 434.36,-34 467.34,-34"/>
<polygon fill="black" stroke="black" points="466.98,-37.5 476.98,-34 466.98,-30.5 466.98,-37.5"/>
<text text-anchor="middle" x="424.37" y="-37.2" font-family="Times,serif" font-size="14.00">possède 50%</text>
</g>
</g>
</svg>
