<?xml version="1.0" encoding="UTF-8" standalone="no"?>
<!DOCTYPE svg PUBLIC "-//W3C//DTD SVG 1.1//EN"
 "http://www.w3.org/Graphics/SVG/1.1/DTD/svg11.dtd">
<!-- Generated by graphviz version 7.1.0 (20230121.1956)
 -->
<!-- Pages: 1 -->
<svg width="1633pt" height="666pt"
 viewBox="0.00 0.00 1633.31 666.00" xmlns="http://www.w3.org/2000/svg" xmlns:xlink="http://www.w3.org/1999/xlink">
<g id="graph0" class="graph" transform="scale(1 1) rotate(0) translate(4 662)">
<polygon fill="white" stroke="none" points="-4,4 -4,-662 1629.31,-662 1629.31,4 -4,4"/>
<g id="clust2" class="cluster">
<title>clusterLeaves</title>
<polygon fill="none" stroke="black" points="1389.43,-58 1389.43,-650 1617.31,-650 1617.31,-58 1389.43,-58"/>
</g>
<!-- prisa&#45;9 -->
<g id="node1" class="node">
<title>prisa&#45;9</title>
<polygon fill="none" stroke="black" points="673.67,-225 619.67,-225 619.67,-189 673.67,-189 673.67,-225"/>
<text text-anchor="middle" x="646.67" y="-203.3" font-family="Times,serif" font-size="14.00">Prisa</text>
</g>
<!-- le&#45;monde&#45;libre&#45;14 -->
<g id="node6" class="node">
<title>le&#45;monde&#45;libre&#45;14</title>
<polygon fill="none" stroke="black" points="1020.73,-131.56 938.84,-144 856.96,-131.56 857.03,-111.44 1020.66,-111.44 1020.73,-131.56"/>
<text text-anchor="middle" x="938.84" y="-122.3" font-family="Times,serif" font-size="14.00">Le Monde libre</text>
</g>
<!-- prisa&#45;9&#45;&gt;le&#45;monde&#45;libre&#45;14 -->
<g id="edge1" class="edge">
<title>prisa&#45;9&#45;&gt;le&#45;monde&#45;libre&#45;14</title>
<path fill="none" stroke="black" d="M674.17,-201.28C711.27,-193.09 780.68,-177.12 838.9,-160 856.48,-154.83 875.58,-148.45 892.26,-142.62"/>
<polygon fill="black" stroke="black" points="893.14,-146.03 901.4,-139.4 890.81,-139.42 893.14,-146.03"/>
<text text-anchor="middle" x="802.4" y="-181.8" font-family="Times,serif" font-size="14.00">possède 20%</text>
</g>
<!-- xavier&#45;niel&#45;10 -->
<g id="node2" class="node">
<title>xavier&#45;niel&#45;10</title>
<polygon fill="none" stroke="black" points="694.17,-171 599.17,-171 599.17,-135 694.17,-135 694.17,-171"/>
<text text-anchor="middle" x="646.67" y="-149.3" font-family="Times,serif" font-size="14.00">🧑‍💼Xavier Niel</text>
</g>
<!-- xavier&#45;niel&#45;10&#45;&gt;le&#45;monde&#45;libre&#45;14 -->
<g id="edge2" class="edge">
<title>xavier&#45;niel&#45;10&#45;&gt;le&#45;monde&#45;libre&#45;14</title>
<path fill="none" stroke="black" d="M694.62,-148.63C736.89,-144.7 800.1,-138.82 851.48,-134.04"/>
<polygon fill="black" stroke="black" points="851.78,-137.52 861.42,-133.11 851.13,-130.55 851.78,-137.52"/>
<text text-anchor="middle" x="802.4" y="-144.8" font-family="Times,serif" font-size="14.00">possède 26%</text>
</g>
<!-- matthieu&#45;pigasse&#45;11 -->
<g id="node3" class="node">
<title>matthieu&#45;pigasse&#45;11</title>
<polygon fill="none" stroke="black" points="125,-90 0,-90 0,-54 125,-54 125,-90"/>
<text text-anchor="middle" x="62.5" y="-68.3" font-family="Times,serif" font-size="14.00">🧑‍💼Matthieu Pigasse</text>
</g>
<!-- combat&#45;solutions&#45;12 -->
<g id="node8" class="node">
<title>combat&#45;solutions&#45;12</title>
<polygon fill="none" stroke="black" points="427.5,-77.56 335.22,-90 242.95,-77.56 243.04,-57.44 427.41,-57.44 427.5,-77.56"/>
<text text-anchor="middle" x="335.22" y="-68.3" font-family="Times,serif" font-size="14.00">Combat Solutions</text>
</g>
<!-- matthieu&#45;pigasse&#45;11&#45;&gt;combat&#45;solutions&#45;12 -->
<g id="edge5" class="edge">
<title>matthieu&#45;pigasse&#45;11&#45;&gt;combat&#45;solutions&#45;12</title>
<path fill="none" stroke="black" d="M125.27,-72C156.6,-72 195.49,-72 231.19,-72"/>
<polygon fill="black" stroke="black" points="231.15,-75.5 241.15,-72 231.15,-68.5 231.15,-75.5"/>
<text text-anchor="middle" x="179.5" y="-75.8" font-family="Times,serif" font-size="14.00">possède 78%</text>
</g>
<!-- daniel&#45;kretinsky&#45;92 -->
<g id="node4" class="node">
<title>daniel&#45;kretinsky&#45;92</title>
<polygon fill="none" stroke="black" points="124.5,-36 0.5,-36 0.5,0 124.5,0 124.5,-36"/>
<text text-anchor="middle" x="62.5" y="-14.3" font-family="Times,serif" font-size="14.00">🧑‍💼Daniel Křetínský</text>
</g>
<!-- czech&#45;media&#45;invest&#45;93 -->
<g id="node9" class="node">
<title>czech&#45;media&#45;invest&#45;93</title>
<polygon fill="none" stroke="black" points="436.68,-23.56 335.22,-36 233.77,-23.56 233.87,-3.44 436.58,-3.44 436.68,-23.56"/>
<text text-anchor="middle" x="335.22" y="-14.3" font-family="Times,serif" font-size="14.00">Czech Media Invest</text>
</g>
<!-- daniel&#45;kretinsky&#45;92&#45;&gt;czech&#45;media&#45;invest&#45;93 -->
<g id="edge7" class="edge">
<title>daniel&#45;kretinsky&#45;92&#45;&gt;czech&#45;media&#45;invest&#45;93</title>
<path fill="none" stroke="black" d="M124.93,-18C153.73,-18 188.98,-18 222.28,-18"/>
<polygon fill="black" stroke="black" points="221.97,-21.5 231.97,-18 221.97,-14.5 221.97,-21.5"/>
<text text-anchor="middle" x="179.5" y="-21.8" font-family="Times,serif" font-size="14.00">possède 50%</text>
</g>
<!-- madison&#45;cox&#45;323 -->
<g id="node5" class="node">
<title>madison&#45;cox&#45;323</title>
<polygon fill="none" stroke="black" points="699.17,-117 594.17,-117 594.17,-81 699.17,-81 699.17,-117"/>
<text text-anchor="middle" x="646.67" y="-95.3" font-family="Times,serif" font-size="14.00">🧑‍💼Madison Cox</text>
</g>
<!-- madison&#45;cox&#45;323&#45;&gt;le&#45;monde&#45;libre&#45;14 -->
<g id="edge8" class="edge">
<title>madison&#45;cox&#45;323&#45;&gt;le&#45;monde&#45;libre&#45;14</title>
<path fill="none" stroke="black" d="M699.63,-103.45C738.1,-106.78 791.78,-111.52 838.9,-116 840.97,-116.2 843.06,-116.4 845.17,-116.6"/>
<polygon fill="black" stroke="black" points="844.79,-120.08 855.08,-117.56 845.47,-113.11 844.79,-120.08"/>
<text text-anchor="middle" x="802.4" y="-119.8" font-family="Times,serif" font-size="14.00">possède 28%</text>
</g>
<!-- le&#45;monde&#45;sa&#45;15 -->
<g id="node10" class="node">
<title>le&#45;monde&#45;sa&#45;15</title>
<polygon fill="none" stroke="black" points="1282.25,-359.56 1206.11,-372 1129.97,-359.56 1130.04,-339.44 1282.18,-339.44 1282.25,-359.56"/>
<text text-anchor="middle" x="1206.11" y="-350.3" font-family="Times,serif" font-size="14.00">Le Monde SA</text>
</g>
<!-- le&#45;monde&#45;libre&#45;14&#45;&gt;le&#45;monde&#45;sa&#45;15 -->
<g id="edge10" class="edge">
<title>le&#45;monde&#45;libre&#45;14&#45;&gt;le&#45;monde&#45;sa&#45;15</title>
<path fill="none" stroke="black" d="M957.66,-141.31C1003.45,-180.67 1125.41,-285.5 1179.11,-331.65"/>
<polygon fill="black" stroke="black" points="1176.7,-334.2 1186.57,-338.06 1181.27,-328.89 1176.7,-334.2"/>
<text text-anchor="middle" x="1075.29" y="-276.8" font-family="Times,serif" font-size="14.00">possède 75%</text>
</g>
<!-- l&#45;obs&#45;16 -->
<g id="node11" class="node">
<title>l&#45;obs&#45;16</title>
<ellipse fill="none" stroke="black" cx="1503.37" cy="-84" rx="32.49" ry="18"/>
<text text-anchor="middle" x="1503.37" y="-80.3" font-family="Times,serif" font-size="14.00">L’Obs</text>
</g>
<!-- le&#45;monde&#45;libre&#45;14&#45;&gt;l&#45;obs&#45;16 -->
<g id="edge9" class="edge">
<title>le&#45;monde&#45;libre&#45;14&#45;&gt;l&#45;obs&#45;16</title>
<path fill="none" stroke="black" d="M1021.04,-119.94C1142.13,-110.9 1365.79,-94.2 1459.4,-87.21"/>
<polygon fill="black" stroke="black" points="1459.46,-90.71 1469.17,-86.48 1458.94,-83.73 1459.46,-90.71"/>
<text text-anchor="middle" x="1206.11" y="-114.8" font-family="Times,serif" font-size="14.00">possède 99%</text>
</g>
<!-- le&#45;nouveau&#45;monde&#45;13 -->
<g id="node7" class="node">
<title>le&#45;nouveau&#45;monde&#45;13</title>
<polygon fill="none" stroke="black" points="748.13,-50.56 646.67,-63 545.22,-50.56 545.32,-30.44 748.03,-30.44 748.13,-50.56"/>
<text text-anchor="middle" x="646.67" y="-41.3" font-family="Times,serif" font-size="14.00">Le Nouveau Monde</text>
</g>
<!-- le&#45;nouveau&#45;monde&#45;13&#45;&gt;le&#45;monde&#45;libre&#45;14 -->
<g id="edge3" class="edge">
<title>le&#45;nouveau&#45;monde&#45;13&#45;&gt;le&#45;monde&#45;libre&#45;14</title>
<path fill="none" stroke="black" d="M703.78,-56.38C742.13,-64.6 793.96,-76.59 838.9,-90 855.55,-94.97 873.48,-101.21 889.44,-107.1"/>
<polygon fill="black" stroke="black" points="888.13,-110.34 898.72,-110.57 890.58,-103.79 888.13,-110.34"/>
<text text-anchor="middle" x="802.4" y="-93.8" font-family="Times,serif" font-size="14.00">possède 26%</text>
</g>
<!-- combat&#45;solutions&#45;12&#45;&gt;le&#45;nouveau&#45;monde&#45;13 -->
<g id="edge4" class="edge">
<title>combat&#45;solutions&#45;12&#45;&gt;le&#45;nouveau&#45;monde&#45;13</title>
<path fill="none" stroke="black" d="M427.81,-64.01C465.37,-60.73 508.91,-56.93 547.15,-53.6"/>
<polygon fill="black" stroke="black" points="547.14,-57.11 556.8,-52.75 546.53,-50.14 547.14,-57.11"/>
<text text-anchor="middle" x="490.95" y="-64.8" font-family="Times,serif" font-size="14.00">possède 51%</text>
</g>
<!-- czech&#45;media&#45;invest&#45;93&#45;&gt;le&#45;nouveau&#45;monde&#45;13 -->
<g id="edge6" class="edge">
<title>czech&#45;media&#45;invest&#45;93&#45;&gt;le&#45;nouveau&#45;monde&#45;13</title>
<path fill="none" stroke="black" d="M423.66,-25.63C457.84,-28.61 497.45,-32.07 533.68,-35.23"/>
<polygon fill="black" stroke="black" points="533.03,-38.68 543.29,-36.07 533.63,-31.71 533.03,-38.68"/>
<text text-anchor="middle" x="490.95" y="-37.8" font-family="Times,serif" font-size="14.00">possède 49%</text>
</g>
<!-- courrier&#45;international&#45;21 -->
<g id="node12" class="node">
<title>courrier&#45;international&#45;21</title>
<ellipse fill="none" stroke="black" cx="1503.37" cy="-624" rx="87.18" ry="18"/>
<text text-anchor="middle" x="1503.37" y="-620.3" font-family="Times,serif" font-size="14.00">Courrier international</text>
</g>
<!-- le&#45;monde&#45;sa&#45;15&#45;&gt;courrier&#45;international&#45;21 -->
<g id="edge11" class="edge">
<title>le&#45;monde&#45;sa&#45;15&#45;&gt;courrier&#45;international&#45;21</title>
<path fill="none" stroke="black" d="M1210.01,-371.86C1217.5,-412.24 1241.2,-511.3 1300.43,-566 1330.12,-593.42 1371.95,-607.97 1409.84,-615.66"/>
<polygon fill="black" stroke="black" points="1408.97,-619.05 1419.44,-617.46 1410.26,-612.17 1408.97,-619.05"/>
<text text-anchor="middle" x="1339.93" y="-609.8" font-family="Times,serif" font-size="14.00">possède 100%</text>
</g>
<!-- huffpost&#45;26 -->
<g id="node13" class="node">
<title>huffpost&#45;26</title>
<ellipse fill="none" stroke="black" cx="1503.37" cy="-570" rx="42.49" ry="18"/>
<text text-anchor="middle" x="1503.37" y="-566.3" font-family="Times,serif" font-size="14.00">HuffPost</text>
</g>
<!-- le&#45;monde&#45;sa&#45;15&#45;&gt;huffpost&#45;26 -->
<g id="edge12" class="edge">
<title>le&#45;monde&#45;sa&#45;15&#45;&gt;huffpost&#45;26</title>
<path fill="none" stroke="black" d="M1213.34,-371.14C1225.47,-402.3 1255.12,-468.55 1300.43,-507 1342.84,-542.99 1405.76,-558.45 1450.07,-565.07"/>
<polygon fill="black" stroke="black" points="1449.59,-568.54 1459.97,-566.43 1450.55,-561.6 1449.59,-568.54"/>
<text text-anchor="middle" x="1339.93" y="-550.8" font-family="Times,serif" font-size="14.00">possède 34%</text>
</g>
<!-- la&#45;vie&#45;23 -->
<g id="node14" class="node">
<title>la&#45;vie&#45;23</title>
<ellipse fill="none" stroke="black" cx="1503.37" cy="-516" rx="34.39" ry="18"/>
<text text-anchor="middle" x="1503.37" y="-512.3" font-family="Times,serif" font-size="14.00">La Vie</text>
</g>
<!-- le&#45;monde&#45;sa&#45;15&#45;&gt;la&#45;vie&#45;23 -->
<g id="edge13" class="edge">
<title>le&#45;monde&#45;sa&#45;15&#45;&gt;la&#45;vie&#45;23</title>
<path fill="none" stroke="black" d="M1219.12,-370.01C1235.52,-390.97 1266.77,-427.77 1300.43,-451 1348.74,-484.35 1415.17,-501.37 1458.44,-509.46"/>
<polygon fill="black" stroke="black" points="1457.77,-512.9 1468.23,-511.21 1459,-506.01 1457.77,-512.9"/>
<text text-anchor="middle" x="1339.93" y="-491.8" font-family="Times,serif" font-size="14.00">possède 100%</text>
</g>
<!-- le&#45;monde&#45;19 -->
<g id="node15" class="node">
<title>le&#45;monde&#45;19</title>
<ellipse fill="none" stroke="black" cx="1503.37" cy="-462" rx="48.19" ry="18"/>
<text text-anchor="middle" x="1503.37" y="-458.3" font-family="Times,serif" font-size="14.00">Le Monde</text>
</g>
<!-- le&#45;monde&#45;sa&#45;15&#45;&gt;le&#45;monde&#45;19 -->
<g id="edge14" class="edge">
<title>le&#45;monde&#45;sa&#45;15&#45;&gt;le&#45;monde&#45;19</title>
<path fill="none" stroke="black" d="M1230.25,-368.55C1248.75,-379.77 1275.61,-395.16 1300.43,-406 1348.74,-427.09 1407.04,-442.25 1448.56,-451.43"/>
<polygon fill="black" stroke="black" points="1447.81,-454.85 1458.32,-453.54 1449.29,-448.01 1447.81,-454.85"/>
<text text-anchor="middle" x="1339.93" y="-435.8" font-family="Times,serif" font-size="14.00">possède 100%</text>
</g>
<!-- le&#45;monde&#45;des&#45;religions&#45;22 -->
<g id="node16" class="node">
<title>le&#45;monde&#45;des&#45;religions&#45;22</title>
<ellipse fill="none" stroke="black" cx="1503.37" cy="-408" rx="94.78" ry="18"/>
<text text-anchor="middle" x="1503.37" y="-404.3" font-family="Times,serif" font-size="14.00">Le Monde des religions</text>
</g>
<!-- le&#45;monde&#45;sa&#45;15&#45;&gt;le&#45;monde&#45;des&#45;religions&#45;22 -->
<g id="edge15" class="edge">
<title>le&#45;monde&#45;sa&#45;15&#45;&gt;le&#45;monde&#45;des&#45;religions&#45;22</title>
<path fill="none" stroke="black" d="M1255.97,-364.23C1270.28,-367.15 1285.97,-370.28 1300.43,-373 1339.56,-380.37 1383.08,-387.99 1419.66,-394.23"/>
<polygon fill="black" stroke="black" points="1418.84,-397.64 1429.29,-395.86 1420.02,-390.74 1418.84,-397.64"/>
<text text-anchor="middle" x="1339.93" y="-390.8" font-family="Times,serif" font-size="14.00">possède 100%</text>
</g>
<!-- le&#45;monde&#45;diplomatique&#45;24 -->
<g id="node17" class="node">
<title>le&#45;monde&#45;diplomatique&#45;24</title>
<ellipse fill="none" stroke="black" cx="1503.37" cy="-354" rx="96.68" ry="18"/>
<text text-anchor="middle" x="1503.37" y="-350.3" font-family="Times,serif" font-size="14.00">Le Monde diplomatique</text>
</g>
<!-- le&#45;monde&#45;sa&#45;15&#45;&gt;le&#45;monde&#45;diplomatique&#45;24 -->
<g id="edge16" class="edge">
<title>le&#45;monde&#45;sa&#45;15&#45;&gt;le&#45;monde&#45;diplomatique&#45;24</title>
<path fill="none" stroke="black" d="M1282.38,-354C1316.52,-354 1357.52,-354 1394.83,-354"/>
<polygon fill="black" stroke="black" points="1394.76,-357.5 1404.76,-354 1394.76,-350.5 1394.76,-357.5"/>
<text text-anchor="middle" x="1339.93" y="-357.8" font-family="Times,serif" font-size="14.00">possède 51%</text>
</g>
<!-- m&#45;le&#45;magazine&#45;du&#45;monde&#45;18 -->
<g id="node18" class="node">
<title>m&#45;le&#45;magazine&#45;du&#45;monde&#45;18</title>
<ellipse fill="none" stroke="black" cx="1503.37" cy="-300" rx="105.88" ry="18"/>
<text text-anchor="middle" x="1503.37" y="-296.3" font-family="Times,serif" font-size="14.00">M, le magazine du Monde</text>
</g>
<!-- le&#45;monde&#45;sa&#45;15&#45;&gt;m&#45;le&#45;magazine&#45;du&#45;monde&#45;18 -->
<g id="edge17" class="edge">
<title>le&#45;monde&#45;sa&#45;15&#45;&gt;m&#45;le&#45;magazine&#45;du&#45;monde&#45;18</title>
<path fill="none" stroke="black" d="M1279.92,-338.96C1286.85,-337.6 1293.77,-336.26 1300.43,-335 1337.82,-327.96 1379.2,-320.69 1414.73,-314.62"/>
<polygon fill="black" stroke="black" points="1415.28,-318.07 1424.55,-312.94 1414.1,-311.17 1415.28,-318.07"/>
<text text-anchor="middle" x="1339.93" y="-338.8" font-family="Times,serif" font-size="14.00">possède 100%</text>
</g>
<!-- maniere&#45;de&#45;voir&#45;25 -->
<g id="node19" class="node">
<title>maniere&#45;de&#45;voir&#45;25</title>
<ellipse fill="none" stroke="black" cx="1503.37" cy="-246" rx="67.69" ry="18"/>
<text text-anchor="middle" x="1503.37" y="-242.3" font-family="Times,serif" font-size="14.00">Manière de voir</text>
</g>
<!-- le&#45;monde&#45;sa&#45;15&#45;&gt;maniere&#45;de&#45;voir&#45;25 -->
<g id="edge18" class="edge">
<title>le&#45;monde&#45;sa&#45;15&#45;&gt;maniere&#45;de&#45;voir&#45;25</title>
<path fill="none" stroke="black" d="M1230.18,-339.07C1248.64,-327.57 1275.49,-311.86 1300.43,-301 1344.13,-281.97 1396.06,-268 1436.32,-258.91"/>
<polygon fill="black" stroke="black" points="1436.86,-262.37 1445.87,-256.8 1435.35,-255.54 1436.86,-262.37"/>
<text text-anchor="middle" x="1339.93" y="-304.8" font-family="Times,serif" font-size="14.00">possède 51%</text>
</g>
<!-- prier&#45;17 -->
<g id="node20" class="node">
<title>prier&#45;17</title>
<ellipse fill="none" stroke="black" cx="1503.37" cy="-192" rx="27.9" ry="18"/>
<text text-anchor="middle" x="1503.37" y="-188.3" font-family="Times,serif" font-size="14.00">Prier</text>
</g>
<!-- le&#45;monde&#45;sa&#45;15&#45;&gt;prier&#45;17 -->
<g id="edge19" class="edge">
<title>le&#45;monde&#45;sa&#45;15&#45;&gt;prier&#45;17</title>
<path fill="none" stroke="black" d="M1217.88,-338.99C1233.81,-317.76 1265.53,-278.86 1300.43,-255 1351,-220.43 1421.41,-204.16 1464.33,-197.02"/>
<polygon fill="black" stroke="black" points="1464.84,-200.49 1474.18,-195.48 1463.76,-193.57 1464.84,-200.49"/>
<text text-anchor="middle" x="1339.93" y="-258.8" font-family="Times,serif" font-size="14.00">possède 100%</text>
</g>
<!-- telerama&#45;20 -->
<g id="node21" class="node">
<title>telerama&#45;20</title>
<ellipse fill="none" stroke="black" cx="1503.37" cy="-138" rx="44.39" ry="18"/>
<text text-anchor="middle" x="1503.37" y="-134.3" font-family="Times,serif" font-size="14.00">Télérama</text>
</g>
<!-- le&#45;monde&#45;sa&#45;15&#45;&gt;telerama&#45;20 -->
<g id="edge20" class="edge">
<title>le&#45;monde&#45;sa&#45;15&#45;&gt;telerama&#45;20</title>
<path fill="none" stroke="black" d="M1212.07,-339.29C1223.13,-308.7 1252.61,-237.74 1300.43,-198 1342.26,-163.24 1403.64,-148.62 1447.73,-142.46"/>
<polygon fill="black" stroke="black" points="1448.14,-145.94 1457.61,-141.2 1447.25,-139 1448.14,-145.94"/>
<text text-anchor="middle" x="1339.93" y="-201.8" font-family="Times,serif" font-size="14.00">possède 100%</text>
</g>
</g>
</svg>
