<?xml version="1.0" encoding="UTF-8" standalone="no"?>
<!DOCTYPE svg PUBLIC "-//W3C//DTD SVG 1.1//EN"
 "http://www.w3.org/Graphics/SVG/1.1/DTD/svg11.dtd">
<!-- Generated by graphviz version 7.1.0 (20230121.1956)
 -->
<!-- Pages: 1 -->
<svg width="1633pt" height="562pt"
 viewBox="0.00 0.00 1633.31 562.00" xmlns="http://www.w3.org/2000/svg" xmlns:xlink="http://www.w3.org/1999/xlink">
<g id="graph0" class="graph" transform="scale(1 1) rotate(0) translate(4 558)">
<polygon fill="white" stroke="none" points="-4,4 -4,-558 1629.31,-558 1629.31,4 -4,4"/>
<g id="clust2" class="cluster">
<title>clusterLeaves</title>
<polygon fill="none" stroke="black" points="1389.43,-8 1389.43,-546 1617.31,-546 1617.31,-8 1389.43,-8"/>
</g>
<!-- prisa&#45;9 -->
<g id="node1" class="node">
<title>prisa&#45;9</title>
<polygon fill="none" stroke="black" points="673.67,-372 619.67,-372 619.67,-336 673.67,-336 673.67,-372"/>
<text text-anchor="middle" x="646.67" y="-350.3" font-family="Times,serif" font-size="14.00">Prisa</text>
</g>
<!-- le&#45;monde&#45;libre&#45;14 -->
<g id="node6" class="node">
<title>le&#45;monde&#45;libre&#45;14</title>
<polygon fill="none" stroke="black" points="1020.73,-278.56 938.84,-291 856.96,-278.56 857.03,-258.44 1020.66,-258.44 1020.73,-278.56"/>
<text text-anchor="middle" x="938.84" y="-269.3" font-family="Times,serif" font-size="14.00">Le Monde libre</text>
</g>
<!-- prisa&#45;9&#45;&gt;le&#45;monde&#45;libre&#45;14 -->
<g id="edge2" class="edge">
<title>prisa&#45;9&#45;&gt;le&#45;monde&#45;libre&#45;14</title>
<path fill="none" stroke="black" d="M674.17,-348.28C711.27,-340.09 780.68,-324.12 838.9,-307 856.48,-301.83 875.58,-295.45 892.26,-289.62"/>
<polygon fill="black" stroke="black" points="893.14,-293.03 901.4,-286.4 890.81,-286.42 893.14,-293.03"/>
<text text-anchor="middle" x="802.4" y="-328.8" font-family="Times,serif" font-size="14.00">possède 20%</text>
</g>
<!-- xavier&#45;niel&#45;10 -->
<g id="node2" class="node">
<title>xavier&#45;niel&#45;10</title>
<polygon fill="none" stroke="black" points="694.17,-318 599.17,-318 599.17,-282 694.17,-282 694.17,-318"/>
<text text-anchor="middle" x="646.67" y="-296.3" font-family="Times,serif" font-size="14.00">🧑‍💼Xavier Niel</text>
</g>
<!-- xavier&#45;niel&#45;10&#45;&gt;le&#45;monde&#45;libre&#45;14 -->
<g id="edge3" class="edge">
<title>xavier&#45;niel&#45;10&#45;&gt;le&#45;monde&#45;libre&#45;14</title>
<path fill="none" stroke="black" d="M694.62,-295.63C736.89,-291.7 800.1,-285.82 851.48,-281.04"/>
<polygon fill="black" stroke="black" points="851.78,-284.52 861.42,-280.11 851.13,-277.55 851.78,-284.52"/>
<text text-anchor="middle" x="802.4" y="-291.8" font-family="Times,serif" font-size="14.00">possède 26%</text>
</g>
<!-- matthieu&#45;pigasse&#45;11 -->
<g id="node3" class="node">
<title>matthieu&#45;pigasse&#45;11</title>
<polygon fill="none" stroke="black" points="125,-237 0,-237 0,-201 125,-201 125,-237"/>
<text text-anchor="middle" x="62.5" y="-215.3" font-family="Times,serif" font-size="14.00">🧑‍💼Matthieu Pigasse</text>
</g>
<!-- combat&#45;solutions&#45;12 -->
<g id="node9" class="node">
<title>combat&#45;solutions&#45;12</title>
<polygon fill="none" stroke="black" points="427.5,-224.56 335.22,-237 242.95,-224.56 243.04,-204.44 427.41,-204.44 427.5,-224.56"/>
<text text-anchor="middle" x="335.22" y="-215.3" font-family="Times,serif" font-size="14.00">Combat Solutions</text>
</g>
<!-- matthieu&#45;pigasse&#45;11&#45;&gt;combat&#45;solutions&#45;12 -->
<g id="edge6" class="edge">
<title>matthieu&#45;pigasse&#45;11&#45;&gt;combat&#45;solutions&#45;12</title>
<path fill="none" stroke="black" d="M125.27,-219C156.6,-219 195.49,-219 231.19,-219"/>
<polygon fill="black" stroke="black" points="231.15,-222.5 241.15,-219 231.15,-215.5 231.15,-222.5"/>
<text text-anchor="middle" x="179.5" y="-222.8" font-family="Times,serif" font-size="14.00">possède 78%</text>
</g>
<!-- daniel&#45;kretinsky&#45;92 -->
<g id="node4" class="node">
<title>daniel&#45;kretinsky&#45;92</title>
<polygon fill="none" stroke="black" points="124.5,-183 0.5,-183 0.5,-147 124.5,-147 124.5,-183"/>
<text text-anchor="middle" x="62.5" y="-161.3" font-family="Times,serif" font-size="14.00">🧑‍💼Daniel Křetínský</text>
</g>
<!-- czech&#45;media&#45;invest&#45;93 -->
<g id="node10" class="node">
<title>czech&#45;media&#45;invest&#45;93</title>
<polygon fill="none" stroke="black" points="436.68,-170.56 335.22,-183 233.77,-170.56 233.87,-150.44 436.58,-150.44 436.68,-170.56"/>
<text text-anchor="middle" x="335.22" y="-161.3" font-family="Times,serif" font-size="14.00">Czech Media Invest</text>
</g>
<!-- daniel&#45;kretinsky&#45;92&#45;&gt;czech&#45;media&#45;invest&#45;93 -->
<g id="edge8" class="edge">
<title>daniel&#45;kretinsky&#45;92&#45;&gt;czech&#45;media&#45;invest&#45;93</title>
<path fill="none" stroke="black" d="M124.93,-165C153.73,-165 188.98,-165 222.28,-165"/>
<polygon fill="black" stroke="black" points="221.97,-168.5 231.97,-165 221.97,-161.5 221.97,-168.5"/>
<text text-anchor="middle" x="179.5" y="-168.8" font-family="Times,serif" font-size="14.00">possède 50%</text>
</g>
<!-- madison&#45;cox&#45;323 -->
<g id="node5" class="node">
<title>madison&#45;cox&#45;323</title>
<polygon fill="none" stroke="black" points="699.17,-264 594.17,-264 594.17,-228 699.17,-228 699.17,-264"/>
<text text-anchor="middle" x="646.67" y="-242.3" font-family="Times,serif" font-size="14.00">🧑‍💼Madison Cox</text>
</g>
<!-- madison&#45;cox&#45;323&#45;&gt;le&#45;monde&#45;libre&#45;14 -->
<g id="edge9" class="edge">
<title>madison&#45;cox&#45;323&#45;&gt;le&#45;monde&#45;libre&#45;14</title>
<path fill="none" stroke="black" d="M699.63,-250.45C738.1,-253.78 791.78,-258.52 838.9,-263 840.97,-263.2 843.06,-263.4 845.17,-263.6"/>
<polygon fill="black" stroke="black" points="844.79,-267.08 855.08,-264.56 845.47,-260.11 844.79,-267.08"/>
<text text-anchor="middle" x="802.4" y="-266.8" font-family="Times,serif" font-size="14.00">possède 28%</text>
</g>
<!-- le&#45;monde&#45;sa&#45;15 -->
<g id="node7" class="node">
<title>le&#45;monde&#45;sa&#45;15</title>
<polygon fill="none" stroke="black" points="1282.25,-278.56 1206.11,-291 1129.97,-278.56 1130.04,-258.44 1282.18,-258.44 1282.25,-278.56"/>
<text text-anchor="middle" x="1206.11" y="-269.3" font-family="Times,serif" font-size="14.00">Le Monde SA</text>
</g>
<!-- le&#45;monde&#45;libre&#45;14&#45;&gt;le&#45;monde&#45;sa&#45;15 -->
<g id="edge1" class="edge">
<title>le&#45;monde&#45;libre&#45;14&#45;&gt;le&#45;monde&#45;sa&#45;15</title>
<path fill="none" stroke="black" d="M1020.87,-273C1051.68,-273 1086.88,-273 1118.2,-273"/>
<polygon fill="black" stroke="black" points="1118.04,-276.5 1128.04,-273 1118.04,-269.5 1118.04,-276.5"/>
<text text-anchor="middle" x="1075.29" y="-276.8" font-family="Times,serif" font-size="14.00">possède 75%</text>
</g>
<!-- courrier&#45;international&#45;21 -->
<g id="node11" class="node">
<title>courrier&#45;international&#45;21</title>
<ellipse fill="none" stroke="black" cx="1503.37" cy="-520" rx="87.18" ry="18"/>
<text text-anchor="middle" x="1503.37" y="-516.3" font-family="Times,serif" font-size="14.00">Courrier international</text>
</g>
<!-- le&#45;monde&#45;sa&#45;15&#45;&gt;courrier&#45;international&#45;21 -->
<g id="edge10" class="edge">
<title>le&#45;monde&#45;sa&#45;15&#45;&gt;courrier&#45;international&#45;21</title>
<path fill="none" stroke="black" d="M1211.28,-290.48C1220.84,-326.85 1247.65,-411.25 1300.43,-459 1331.08,-486.73 1373.96,-501.86 1412.32,-510.12"/>
<polygon fill="black" stroke="black" points="1411.55,-513.54 1422.05,-512.07 1412.93,-506.67 1411.55,-513.54"/>
<text text-anchor="middle" x="1339.93" y="-502.8" font-family="Times,serif" font-size="14.00">possède 100%</text>
</g>
<!-- huffpost&#45;26 -->
<g id="node12" class="node">
<title>huffpost&#45;26</title>
<ellipse fill="none" stroke="black" cx="1503.37" cy="-466" rx="42.49" ry="18"/>
<text text-anchor="middle" x="1503.37" y="-462.3" font-family="Times,serif" font-size="14.00">HuffPost</text>
</g>
<!-- le&#45;monde&#45;sa&#45;15&#45;&gt;huffpost&#45;26 -->
<g id="edge11" class="edge">
<title>le&#45;monde&#45;sa&#45;15&#45;&gt;huffpost&#45;26</title>
<path fill="none" stroke="black" d="M1215.54,-289.59C1229.77,-316.13 1260.91,-368.37 1300.43,-400 1344.04,-434.91 1406.74,-451.62 1450.67,-459.44"/>
<polygon fill="black" stroke="black" points="1450.04,-462.88 1460.48,-461.08 1451.19,-455.98 1450.04,-462.88"/>
<text text-anchor="middle" x="1339.93" y="-443.8" font-family="Times,serif" font-size="14.00">possède 34%</text>
</g>
<!-- la&#45;vie&#45;23 -->
<g id="node13" class="node">
<title>la&#45;vie&#45;23</title>
<ellipse fill="none" stroke="black" cx="1503.37" cy="-412" rx="34.39" ry="18"/>
<text text-anchor="middle" x="1503.37" y="-408.3" font-family="Times,serif" font-size="14.00">La Vie</text>
</g>
<!-- le&#45;monde&#45;sa&#45;15&#45;&gt;la&#45;vie&#45;23 -->
<g id="edge12" class="edge">
<title>le&#45;monde&#45;sa&#45;15&#45;&gt;la&#45;vie&#45;23</title>
<path fill="none" stroke="black" d="M1223.17,-288.63C1240.93,-305.28 1270.93,-331.56 1300.43,-349 1350.67,-378.7 1416.36,-395.81 1458.96,-404.51"/>
<polygon fill="black" stroke="black" points="1458.09,-407.9 1468.57,-406.4 1459.44,-401.03 1458.09,-407.9"/>
<text text-anchor="middle" x="1339.93" y="-384.8" font-family="Times,serif" font-size="14.00">possède 100%</text>
</g>
<!-- le&#45;monde&#45;19 -->
<g id="node14" class="node">
<title>le&#45;monde&#45;19</title>
<ellipse fill="none" stroke="black" cx="1503.37" cy="-358" rx="48.19" ry="18"/>
<text text-anchor="middle" x="1503.37" y="-354.3" font-family="Times,serif" font-size="14.00">Le Monde</text>
</g>
<!-- le&#45;monde&#45;sa&#45;15&#45;&gt;le&#45;monde&#45;19 -->
<g id="edge13" class="edge">
<title>le&#45;monde&#45;sa&#45;15&#45;&gt;le&#45;monde&#45;19</title>
<path fill="none" stroke="black" d="M1238.29,-286.16C1256.26,-293.46 1279.39,-302.37 1300.43,-309 1350.12,-324.66 1408.02,-338.24 1449.04,-347.11"/>
<polygon fill="black" stroke="black" points="1448.16,-350.5 1458.67,-349.17 1449.62,-343.66 1448.16,-350.5"/>
<text text-anchor="middle" x="1339.93" y="-333.8" font-family="Times,serif" font-size="14.00">possède 100%</text>
</g>
<!-- le&#45;monde&#45;des&#45;religions&#45;22 -->
<g id="node15" class="node">
<title>le&#45;monde&#45;des&#45;religions&#45;22</title>
<ellipse fill="none" stroke="black" cx="1503.37" cy="-304" rx="94.78" ry="18"/>
<text text-anchor="middle" x="1503.37" y="-300.3" font-family="Times,serif" font-size="14.00">Le Monde des religions</text>
</g>
<!-- le&#45;monde&#45;sa&#45;15&#45;&gt;le&#45;monde&#45;des&#45;religions&#45;22 -->
<g id="edge14" class="edge">
<title>le&#45;monde&#45;sa&#45;15&#45;&gt;le&#45;monde&#45;des&#45;religions&#45;22</title>
<path fill="none" stroke="black" d="M1275.22,-280.15C1314.62,-284.29 1364.78,-289.55 1407.94,-294.09"/>
<polygon fill="black" stroke="black" points="1407.52,-297.56 1417.83,-295.12 1408.25,-290.6 1407.52,-297.56"/>
<text text-anchor="middle" x="1339.93" y="-293.8" font-family="Times,serif" font-size="14.00">possède 100%</text>
</g>
<!-- le&#45;monde&#45;diplomatique&#45;24 -->
<g id="node16" class="node">
<title>le&#45;monde&#45;diplomatique&#45;24</title>
<ellipse fill="none" stroke="black" cx="1503.37" cy="-250" rx="96.68" ry="18"/>
<text text-anchor="middle" x="1503.37" y="-246.3" font-family="Times,serif" font-size="14.00">Le Monde diplomatique</text>
</g>
<!-- le&#45;monde&#45;sa&#45;15&#45;&gt;le&#45;monde&#45;diplomatique&#45;24 -->
<g id="edge15" class="edge">
<title>le&#45;monde&#45;sa&#45;15&#45;&gt;le&#45;monde&#45;diplomatique&#45;24</title>
<path fill="none" stroke="black" d="M1282.46,-264.65C1288.54,-264.06 1294.58,-263.5 1300.43,-263 1332.31,-260.27 1367.06,-257.83 1398.6,-255.83"/>
<polygon fill="black" stroke="black" points="1398.8,-259.33 1408.56,-255.21 1398.36,-252.34 1398.8,-259.33"/>
<text text-anchor="middle" x="1339.93" y="-266.8" font-family="Times,serif" font-size="14.00">possède 51%</text>
</g>
<!-- m&#45;le&#45;magazine&#45;du&#45;monde&#45;18 -->
<g id="node17" class="node">
<title>m&#45;le&#45;magazine&#45;du&#45;monde&#45;18</title>
<ellipse fill="none" stroke="black" cx="1503.37" cy="-196" rx="105.88" ry="18"/>
<text text-anchor="middle" x="1503.37" y="-192.3" font-family="Times,serif" font-size="14.00">M, le magazine du Monde</text>
</g>
<!-- le&#45;monde&#45;sa&#45;15&#45;&gt;m&#45;le&#45;magazine&#45;du&#45;monde&#45;18 -->
<g id="edge16" class="edge">
<title>le&#45;monde&#45;sa&#45;15&#45;&gt;m&#45;le&#45;magazine&#45;du&#45;monde&#45;18</title>
<path fill="none" stroke="black" d="M1243.01,-258.06C1260.18,-251.29 1281.15,-243.58 1300.43,-238 1337.83,-227.17 1379.9,-217.96 1415.92,-210.95"/>
<polygon fill="black" stroke="black" points="1416.24,-214.45 1425.41,-209.13 1414.93,-207.57 1416.24,-214.45"/>
<text text-anchor="middle" x="1339.93" y="-241.8" font-family="Times,serif" font-size="14.00">possède 100%</text>
</g>
<!-- maniere&#45;de&#45;voir&#45;25 -->
<g id="node18" class="node">
<title>maniere&#45;de&#45;voir&#45;25</title>
<ellipse fill="none" stroke="black" cx="1503.37" cy="-142" rx="67.69" ry="18"/>
<text text-anchor="middle" x="1503.37" y="-138.3" font-family="Times,serif" font-size="14.00">Manière de voir</text>
</g>
<!-- le&#45;monde&#45;sa&#45;15&#45;&gt;maniere&#45;de&#45;voir&#45;25 -->
<g id="edge17" class="edge">
<title>le&#45;monde&#45;sa&#45;15&#45;&gt;maniere&#45;de&#45;voir&#45;25</title>
<path fill="none" stroke="black" d="M1222.42,-258.07C1239.99,-241.64 1270.27,-215.39 1300.43,-199 1341.83,-176.5 1392.94,-162.19 1433.39,-153.53"/>
<polygon fill="black" stroke="black" points="1433.93,-156.99 1443.01,-151.54 1432.51,-150.14 1433.93,-156.99"/>
<text text-anchor="middle" x="1339.93" y="-202.8" font-family="Times,serif" font-size="14.00">possède 51%</text>
</g>
<!-- prier&#45;17 -->
<g id="node19" class="node">
<title>prier&#45;17</title>
<ellipse fill="none" stroke="black" cx="1503.37" cy="-88" rx="27.9" ry="18"/>
<text text-anchor="middle" x="1503.37" y="-84.3" font-family="Times,serif" font-size="14.00">Prier</text>
</g>
<!-- le&#45;monde&#45;sa&#45;15&#45;&gt;prier&#45;17 -->
<g id="edge18" class="edge">
<title>le&#45;monde&#45;sa&#45;15&#45;&gt;prier&#45;17</title>
<path fill="none" stroke="black" d="M1214.58,-258.26C1228.27,-232.62 1259.75,-179.63 1300.43,-149 1349.34,-112.18 1420.49,-97.43 1463.97,-91.64"/>
<polygon fill="black" stroke="black" points="1464.19,-95.14 1473.69,-90.44 1463.34,-88.19 1464.19,-95.14"/>
<text text-anchor="middle" x="1339.93" y="-152.8" font-family="Times,serif" font-size="14.00">possède 100%</text>
</g>
<!-- telerama&#45;20 -->
<g id="node20" class="node">
<title>telerama&#45;20</title>
<ellipse fill="none" stroke="black" cx="1503.37" cy="-34" rx="44.39" ry="18"/>
<text text-anchor="middle" x="1503.37" y="-30.3" font-family="Times,serif" font-size="14.00">Télérama</text>
</g>
<!-- le&#45;monde&#45;sa&#45;15&#45;&gt;telerama&#45;20 -->
<g id="edge19" class="edge">
<title>le&#45;monde&#45;sa&#45;15&#45;&gt;telerama&#45;20</title>
<path fill="none" stroke="black" d="M1210.63,-258.12C1219.53,-223.64 1246.22,-137.7 1300.43,-91 1341.47,-55.64 1402.98,-42.13 1447.32,-37.01"/>
<polygon fill="black" stroke="black" points="1447.68,-40.5 1457.26,-35.99 1446.96,-33.53 1447.68,-40.5"/>
<text text-anchor="middle" x="1339.93" y="-94.8" font-family="Times,serif" font-size="14.00">possède 100%</text>
</g>
<!-- le&#45;nouveau&#45;monde&#45;13 -->
<g id="node8" class="node">
<title>le&#45;nouveau&#45;monde&#45;13</title>
<polygon fill="none" stroke="black" points="748.13,-197.56 646.67,-210 545.22,-197.56 545.32,-177.44 748.03,-177.44 748.13,-197.56"/>
<text text-anchor="middle" x="646.67" y="-188.3" font-family="Times,serif" font-size="14.00">Le Nouveau Monde</text>
</g>
<!-- le&#45;nouveau&#45;monde&#45;13&#45;&gt;le&#45;monde&#45;libre&#45;14 -->
<g id="edge4" class="edge">
<title>le&#45;nouveau&#45;monde&#45;13&#45;&gt;le&#45;monde&#45;libre&#45;14</title>
<path fill="none" stroke="black" d="M703.78,-203.38C742.13,-211.6 793.96,-223.59 838.9,-237 855.55,-241.97 873.48,-248.21 889.44,-254.1"/>
<polygon fill="black" stroke="black" points="888.13,-257.34 898.72,-257.57 890.58,-250.79 888.13,-257.34"/>
<text text-anchor="middle" x="802.4" y="-240.8" font-family="Times,serif" font-size="14.00">possède 26%</text>
</g>
<!-- combat&#45;solutions&#45;12&#45;&gt;le&#45;nouveau&#45;monde&#45;13 -->
<g id="edge5" class="edge">
<title>combat&#45;solutions&#45;12&#45;&gt;le&#45;nouveau&#45;monde&#45;13</title>
<path fill="none" stroke="black" d="M427.81,-211.01C465.37,-207.73 508.91,-203.93 547.15,-200.6"/>
<polygon fill="black" stroke="black" points="547.14,-204.11 556.8,-199.75 546.53,-197.14 547.14,-204.11"/>
<text text-anchor="middle" x="490.95" y="-210.8" font-family="Times,serif" font-size="14.00">possède 51%</text>
</g>
<!-- czech&#45;media&#45;invest&#45;93&#45;&gt;le&#45;nouveau&#45;monde&#45;13 -->
<g id="edge7" class="edge">
<title>czech&#45;media&#45;invest&#45;93&#45;&gt;le&#45;nouveau&#45;monde&#45;13</title>
<path fill="none" stroke="black" d="M423.66,-172.63C457.84,-175.61 497.45,-179.07 533.68,-182.23"/>
<polygon fill="black" stroke="black" points="533.03,-185.68 543.29,-183.07 533.63,-178.71 533.03,-185.68"/>
<text text-anchor="middle" x="490.95" y="-183.8" font-family="Times,serif" font-size="14.00">possède 49%</text>
</g>
</g>
</svg>
