<?xml version="1.0" encoding="UTF-8" standalone="no"?>
<!DOCTYPE svg PUBLIC "-//W3C//DTD SVG 1.1//EN"
 "http://www.w3.org/Graphics/SVG/1.1/DTD/svg11.dtd">
<!-- Generated by graphviz version 8.1.0 (20230707.0739)
 -->
<!-- Pages: 1 -->
<svg width="1690pt" height="233pt"
 viewBox="0.00 0.00 1689.94 233.00" xmlns="http://www.w3.org/2000/svg" xmlns:xlink="http://www.w3.org/1999/xlink">
<g id="graph0" class="graph" transform="scale(1 1) rotate(0) translate(4 229)">
<polygon fill="white" stroke="none" points="-4,4 -4,-229 1685.94,-229 1685.94,4 -4,4"/>
<g id="clust2" class="cluster">
<title>clusterLeaves</title>
<polygon fill="none" stroke="black" points="1454.92,-46 1454.92,-98 1673.94,-98 1673.94,-46 1454.92,-46"/>
</g>
<!-- prisa&#45;9 -->
<g id="node1" class="node">
<title>prisa&#45;9</title>
<polygon fill="none" stroke="black" points="684.58,-225 630.58,-225 630.58,-189 684.58,-189 684.58,-225"/>
<text text-anchor="middle" x="657.58" y="-201.95" font-family="Times,serif" font-size="14.00">Prisa</text>
</g>
<!-- le&#45;monde&#45;libre&#45;14 -->
<g id="node9" class="node">
<title>le&#45;monde&#45;libre&#45;14</title>
<polygon fill="none" stroke="black" points="1042.67,-131.56 957.06,-144 871.44,-131.56 871.52,-111.44 1042.59,-111.44 1042.67,-131.56"/>
<text text-anchor="middle" x="957.06" y="-120.95" font-family="Times,serif" font-size="14.00">Le Monde libre</text>
</g>
<!-- prisa&#45;9&#45;&gt;le&#45;monde&#45;libre&#45;14 -->
<g id="edge3" class="edge">
<title>prisa&#45;9&#45;&gt;le&#45;monde&#45;libre&#45;14</title>
<path fill="none" stroke="black" d="M684.98,-201.87C722.66,-194.33 793.92,-179.26 853.44,-162 872.54,-156.46 893.29,-149.39 911.11,-142.98"/>
<polygon fill="black" stroke="black" points="912.02,-146.01 920.22,-139.3 909.63,-139.43 912.02,-146.01"/>
<text text-anchor="middle" x="817.44" y="-183.2" font-family="Times,serif" font-size="14.00">possède 20%</text>
</g>
<!-- xavier&#45;niel&#45;10 -->
<g id="node2" class="node">
<title>xavier&#45;niel&#45;10</title>
<polygon fill="none" stroke="black" points="704.58,-171 610.58,-171 610.58,-135 704.58,-135 704.58,-171"/>
<text text-anchor="middle" x="657.58" y="-149.07" font-family="Times,serif" font-size="14.00">🧑‍💼Xavier Niel</text>
</g>
<!-- xavier&#45;niel&#45;10&#45;&gt;le&#45;monde&#45;libre&#45;14 -->
<g id="edge4" class="edge">
<title>xavier&#45;niel&#45;10&#45;&gt;le&#45;monde&#45;libre&#45;14</title>
<path fill="none" stroke="black" d="M705.06,-148.78C748.4,-144.85 814.19,-138.88 867.54,-134.03"/>
<polygon fill="black" stroke="black" points="867.74,-137.44 877.38,-133.05 867.11,-130.47 867.74,-137.44"/>
<text text-anchor="middle" x="817.44" y="-144.2" font-family="Times,serif" font-size="14.00">possède 26%</text>
</g>
<!-- matthieu&#45;pigasse&#45;11 -->
<g id="node3" class="node">
<title>matthieu&#45;pigasse&#45;11</title>
<polygon fill="none" stroke="black" points="124,-90 0,-90 0,-54 124,-54 124,-90"/>
<text text-anchor="middle" x="62" y="-68.08" font-family="Times,serif" font-size="14.00">🧑‍💼Matthieu Pigasse</text>
</g>
<!-- combat&#45;solutions&#45;12 -->
<g id="node11" class="node">
<title>combat&#45;solutions&#45;12</title>
<polygon fill="none" stroke="black" points="434.23,-77.56 337.86,-90 241.49,-77.56 241.58,-57.44 434.14,-57.44 434.23,-77.56"/>
<text text-anchor="middle" x="337.86" y="-66.95" font-family="Times,serif" font-size="14.00">Combat Solutions</text>
</g>
<!-- matthieu&#45;pigasse&#45;11&#45;&gt;combat&#45;solutions&#45;12 -->
<g id="edge7" class="edge">
<title>matthieu&#45;pigasse&#45;11&#45;&gt;combat&#45;solutions&#45;12</title>
<path fill="none" stroke="black" d="M124.46,-72C155.75,-72 194.69,-72 230.64,-72"/>
<polygon fill="black" stroke="black" points="230.19,-75.5 240.19,-72 230.19,-68.5 230.19,-75.5"/>
<text text-anchor="middle" x="178" y="-75.2" font-family="Times,serif" font-size="14.00">possède 78%</text>
</g>
<!-- daniel&#45;kretinsky&#45;92 -->
<g id="node4" class="node">
<title>daniel&#45;kretinsky&#45;92</title>
<polygon fill="none" stroke="black" points="123.62,-36 0.38,-36 0.38,0 123.62,0 123.62,-36"/>
<text text-anchor="middle" x="62" y="-14.07" font-family="Times,serif" font-size="14.00">🧑‍💼Daniel Křetínský</text>
</g>
<!-- czech&#45;media&#45;invest&#45;93 -->
<g id="node12" class="node">
<title>czech&#45;media&#45;invest&#45;93</title>
<polygon fill="none" stroke="black" points="443.72,-23.56 337.86,-36 232,-23.56 232.1,-3.44 443.62,-3.44 443.72,-23.56"/>
<text text-anchor="middle" x="337.86" y="-12.95" font-family="Times,serif" font-size="14.00">Czech Media Invest</text>
</g>
<!-- daniel&#45;kretinsky&#45;92&#45;&gt;czech&#45;media&#45;invest&#45;93 -->
<g id="edge9" class="edge">
<title>daniel&#45;kretinsky&#45;92&#45;&gt;czech&#45;media&#45;invest&#45;93</title>
<path fill="none" stroke="black" d="M124.12,-18C152.64,-18 187.57,-18 220.81,-18"/>
<polygon fill="black" stroke="black" points="220.54,-21.5 230.54,-18 220.54,-14.5 220.54,-21.5"/>
<text text-anchor="middle" x="178" y="-21.2" font-family="Times,serif" font-size="14.00">possède 50%</text>
</g>
<!-- madison&#45;cox&#45;323 -->
<g id="node5" class="node">
<title>madison&#45;cox&#45;323</title>
<polygon fill="none" stroke="black" points="709.83,-117 605.33,-117 605.33,-81 709.83,-81 709.83,-117"/>
<text text-anchor="middle" x="657.58" y="-95.08" font-family="Times,serif" font-size="14.00">🧑‍💼Madison Cox</text>
</g>
<!-- madison&#45;cox&#45;323&#45;&gt;le&#45;monde&#45;libre&#45;14 -->
<g id="edge10" class="edge">
<title>madison&#45;cox&#45;323&#45;&gt;le&#45;monde&#45;libre&#45;14</title>
<path fill="none" stroke="black" d="M710.3,-103.13C749.58,-106.33 804.93,-110.96 853.44,-115.5 855.7,-115.71 858,-115.93 860.31,-116.15"/>
<polygon fill="black" stroke="black" points="859.94,-119.73 870.23,-117.2 860.62,-112.76 859.94,-119.73"/>
<text text-anchor="middle" x="817.44" y="-119.2" font-family="Times,serif" font-size="14.00">possède 28%</text>
</g>
<!-- les&#45;amis&#45;du&#45;monde&#45;diplomatique&#45;33 -->
<g id="node6" class="node">
<title>les&#45;amis&#45;du&#45;monde&#45;diplomatique&#45;33</title>
<polygon fill="none" stroke="black" points="1354.92,-90 1150.67,-90 1150.67,-54 1354.92,-54 1354.92,-90"/>
<text text-anchor="middle" x="1252.8" y="-66.95" font-family="Times,serif" font-size="14.00">Les Amis du Monde diplomatique</text>
</g>
<!-- le&#45;monde&#45;diplomatique&#45;24 -->
<g id="node13" class="node">
<title>le&#45;monde&#45;diplomatique&#45;24</title>
<ellipse fill="none" stroke="black" cx="1564.43" cy="-72" rx="101.51" ry="18"/>
<text text-anchor="middle" x="1564.43" y="-66.95" font-family="Times,serif" font-size="14.00">Le Monde diplomatique</text>
</g>
<!-- les&#45;amis&#45;du&#45;monde&#45;diplomatique&#45;33&#45;&gt;le&#45;monde&#45;diplomatique&#45;24 -->
<g id="edge11" class="edge">
<title>les&#45;amis&#45;du&#45;monde&#45;diplomatique&#45;33&#45;&gt;le&#45;monde&#45;diplomatique&#45;24</title>
<path fill="none" stroke="black" d="M1355.18,-72C1386.16,-72 1420.39,-72 1452,-72"/>
<polygon fill="black" stroke="black" points="1451.61,-75.5 1461.61,-72 1451.61,-68.5 1451.61,-75.5"/>
<text text-anchor="middle" x="1408.92" y="-75.2" font-family="Times,serif" font-size="14.00">possède 24%</text>
</g>
<!-- association&#45;guenter&#45;holzmann&#45;34 -->
<g id="node7" class="node">
<title>association&#45;guenter&#45;holzmann&#45;34</title>
<polygon fill="none" stroke="black" points="1344.05,-36 1161.55,-36 1161.55,0 1344.05,0 1344.05,-36"/>
<text text-anchor="middle" x="1252.8" y="-12.95" font-family="Times,serif" font-size="14.00">Association Günter&#45;Holzmann</text>
</g>
<!-- association&#45;guenter&#45;holzmann&#45;34&#45;&gt;le&#45;monde&#45;diplomatique&#45;24 -->
<g id="edge12" class="edge">
<title>association&#45;guenter&#45;holzmann&#45;34&#45;&gt;le&#45;monde&#45;diplomatique&#45;24</title>
<path fill="none" stroke="black" d="M1344.19,-33.76C1387.05,-41.24 1437.92,-50.11 1479.87,-57.43"/>
<polygon fill="black" stroke="black" points="1479.16,-61.03 1489.61,-59.3 1480.36,-54.13 1479.16,-61.03"/>
<text text-anchor="middle" x="1408.92" y="-53.2" font-family="Times,serif" font-size="14.00">possède 24%</text>
</g>
<!-- le&#45;monde&#45;sa&#45;15 -->
<g id="node8" class="node">
<title>le&#45;monde&#45;sa&#45;15</title>
<polygon fill="none" stroke="black" points="1332.09,-131.56 1252.8,-144 1173.51,-131.56 1173.58,-111.44 1332.01,-111.44 1332.09,-131.56"/>
<text text-anchor="middle" x="1252.8" y="-120.95" font-family="Times,serif" font-size="14.00">Le Monde SA</text>
</g>
<!-- le&#45;monde&#45;sa&#45;15&#45;&gt;le&#45;monde&#45;diplomatique&#45;24 -->
<g id="edge1" class="edge">
<title>le&#45;monde&#45;sa&#45;15&#45;&gt;le&#45;monde&#45;diplomatique&#45;24</title>
<path fill="none" stroke="black" d="M1332.33,-112.3C1377.36,-104.45 1433.88,-94.59 1479.75,-86.59"/>
<polygon fill="black" stroke="black" points="1480.31,-89.87 1489.56,-84.71 1479.11,-82.98 1480.31,-89.87"/>
<text text-anchor="middle" x="1408.92" y="-107.2" font-family="Times,serif" font-size="14.00">possède 51%</text>
</g>
<!-- le&#45;monde&#45;libre&#45;14&#45;&gt;le&#45;monde&#45;sa&#45;15 -->
<g id="edge2" class="edge">
<title>le&#45;monde&#45;libre&#45;14&#45;&gt;le&#45;monde&#45;sa&#45;15</title>
<path fill="none" stroke="black" d="M1043.02,-126C1080.5,-126 1124.56,-126 1162.53,-126"/>
<polygon fill="black" stroke="black" points="1162.06,-129.5 1172.06,-126 1162.06,-122.5 1162.06,-129.5"/>
<text text-anchor="middle" x="1096.67" y="-129.2" font-family="Times,serif" font-size="14.00">possède 75%</text>
</g>
<!-- le&#45;nouveau&#45;monde&#45;13 -->
<g id="node10" class="node">
<title>le&#45;nouveau&#45;monde&#45;13</title>
<polygon fill="none" stroke="black" points="763.44,-50.56 657.58,-63 551.72,-50.56 551.82,-30.44 763.34,-30.44 763.44,-50.56"/>
<text text-anchor="middle" x="657.58" y="-39.95" font-family="Times,serif" font-size="14.00">Le Nouveau Monde</text>
</g>
<!-- le&#45;nouveau&#45;monde&#45;13&#45;&gt;le&#45;monde&#45;libre&#45;14 -->
<g id="edge5" class="edge">
<title>le&#45;nouveau&#45;monde&#45;13&#45;&gt;le&#45;monde&#45;libre&#45;14</title>
<path fill="none" stroke="black" d="M717.02,-56.48C755.96,-64.58 808.13,-76.32 853.44,-89.5 871.18,-94.66 890.33,-101.2 907.23,-107.31"/>
<polygon fill="black" stroke="black" points="905.83,-110.9 916.42,-111.05 908.24,-104.32 905.83,-110.9"/>
<text text-anchor="middle" x="817.44" y="-93.2" font-family="Times,serif" font-size="14.00">possède 26%</text>
</g>
<!-- combat&#45;solutions&#45;12&#45;&gt;le&#45;nouveau&#45;monde&#45;13 -->
<g id="edge6" class="edge">
<title>combat&#45;solutions&#45;12&#45;&gt;le&#45;nouveau&#45;monde&#45;13</title>
<path fill="none" stroke="black" d="M434.62,-63.86C472.7,-60.63 516.55,-56.9 555.17,-53.62"/>
<polygon fill="black" stroke="black" points="555.25,-57.04 564.92,-52.7 554.66,-50.06 555.25,-57.04"/>
<text text-anchor="middle" x="497.72" y="-64.2" font-family="Times,serif" font-size="14.00">possède 51%</text>
</g>
<!-- czech&#45;media&#45;invest&#45;93&#45;&gt;le&#45;nouveau&#45;monde&#45;13 -->
<g id="edge8" class="edge">
<title>czech&#45;media&#45;invest&#45;93&#45;&gt;le&#45;nouveau&#45;monde&#45;13</title>
<path fill="none" stroke="black" d="M429.48,-25.7C464.12,-28.64 504.1,-32.04 540.78,-35.16"/>
<polygon fill="black" stroke="black" points="540.27,-38.71 550.53,-36.07 540.86,-31.74 540.27,-38.71"/>
<text text-anchor="middle" x="497.72" y="-37.2" font-family="Times,serif" font-size="14.00">possède 49%</text>
</g>
</g>
</svg>
