<?xml version="1.0" encoding="UTF-8" standalone="no"?>
<!DOCTYPE svg PUBLIC "-//W3C//DTD SVG 1.1//EN"
 "http://www.w3.org/Graphics/SVG/1.1/DTD/svg11.dtd">
<!-- Generated by graphviz version 7.1.0 (20230121.1956)
 -->
<!-- Pages: 1 -->
<svg width="1633pt" height="616pt"
 viewBox="0.00 0.00 1633.31 616.00" xmlns="http://www.w3.org/2000/svg" xmlns:xlink="http://www.w3.org/1999/xlink">
<g id="graph0" class="graph" transform="scale(1 1) rotate(0) translate(4 612)">
<polygon fill="white" stroke="none" points="-4,4 -4,-612 1629.31,-612 1629.31,4 -4,4"/>
<g id="clust2" class="cluster">
<title>clusterLeaves</title>
<polygon fill="none" stroke="black" points="1389.43,-8 1389.43,-600 1617.31,-600 1617.31,-8 1389.43,-8"/>
</g>
<!-- matthieu&#45;pigasse&#45;11 -->
<g id="node1" class="node">
<title>matthieu&#45;pigasse&#45;11</title>
<polygon fill="none" stroke="black" points="125,-114 0,-114 0,-78 125,-78 125,-114"/>
<text text-anchor="middle" x="62.5" y="-92.3" font-family="Times,serif" font-size="14.00">🧑‍💼Matthieu Pigasse</text>
</g>
<!-- combat&#45;solutions&#45;12 -->
<g id="node3" class="node">
<title>combat&#45;solutions&#45;12</title>
<polygon fill="none" stroke="black" points="427.5,-101.56 335.22,-114 242.95,-101.56 243.04,-81.44 427.41,-81.44 427.5,-101.56"/>
<text text-anchor="middle" x="335.22" y="-92.3" font-family="Times,serif" font-size="14.00">Combat Solutions</text>
</g>
<!-- matthieu&#45;pigasse&#45;11&#45;&gt;combat&#45;solutions&#45;12 -->
<g id="edge2" class="edge">
<title>matthieu&#45;pigasse&#45;11&#45;&gt;combat&#45;solutions&#45;12</title>
<path fill="none" stroke="black" d="M125.27,-96C156.6,-96 195.49,-96 231.19,-96"/>
<polygon fill="black" stroke="black" points="231.15,-99.5 241.15,-96 231.15,-92.5 231.15,-99.5"/>
<text text-anchor="middle" x="179.5" y="-99.8" font-family="Times,serif" font-size="14.00">possède 78%</text>
</g>
<!-- daniel&#45;kretinsky&#45;92 -->
<g id="node2" class="node">
<title>daniel&#45;kretinsky&#45;92</title>
<polygon fill="none" stroke="black" points="124.5,-60 0.5,-60 0.5,-24 124.5,-24 124.5,-60"/>
<text text-anchor="middle" x="62.5" y="-38.3" font-family="Times,serif" font-size="14.00">🧑‍💼Daniel Křetínský</text>
</g>
<!-- czech&#45;media&#45;invest&#45;93 -->
<g id="node5" class="node">
<title>czech&#45;media&#45;invest&#45;93</title>
<polygon fill="none" stroke="black" points="436.68,-47.56 335.22,-60 233.77,-47.56 233.87,-27.44 436.58,-27.44 436.68,-47.56"/>
<text text-anchor="middle" x="335.22" y="-38.3" font-family="Times,serif" font-size="14.00">Czech Media Invest</text>
</g>
<!-- daniel&#45;kretinsky&#45;92&#45;&gt;czech&#45;media&#45;invest&#45;93 -->
<g id="edge4" class="edge">
<title>daniel&#45;kretinsky&#45;92&#45;&gt;czech&#45;media&#45;invest&#45;93</title>
<path fill="none" stroke="black" d="M124.93,-42C153.73,-42 188.98,-42 222.28,-42"/>
<polygon fill="black" stroke="black" points="221.97,-45.5 231.97,-42 221.97,-38.5 221.97,-45.5"/>
<text text-anchor="middle" x="179.5" y="-45.8" font-family="Times,serif" font-size="14.00">possède 50%</text>
</g>
<!-- le&#45;nouveau&#45;monde&#45;13 -->
<g id="node4" class="node">
<title>le&#45;nouveau&#45;monde&#45;13</title>
<polygon fill="none" stroke="black" points="748.13,-74.56 646.67,-87 545.22,-74.56 545.32,-54.44 748.03,-54.44 748.13,-74.56"/>
<text text-anchor="middle" x="646.67" y="-65.3" font-family="Times,serif" font-size="14.00">Le Nouveau Monde</text>
</g>
<!-- combat&#45;solutions&#45;12&#45;&gt;le&#45;nouveau&#45;monde&#45;13 -->
<g id="edge1" class="edge">
<title>combat&#45;solutions&#45;12&#45;&gt;le&#45;nouveau&#45;monde&#45;13</title>
<path fill="none" stroke="black" d="M427.81,-88.01C465.37,-84.73 508.91,-80.93 547.15,-77.6"/>
<polygon fill="black" stroke="black" points="547.14,-81.11 556.8,-76.75 546.53,-74.14 547.14,-81.11"/>
<text text-anchor="middle" x="490.95" y="-87.8" font-family="Times,serif" font-size="14.00">possède 51%</text>
</g>
<!-- le&#45;monde&#45;libre&#45;14 -->
<g id="node6" class="node">
<title>le&#45;monde&#45;libre&#45;14</title>
<polygon fill="none" stroke="black" points="1020.73,-74.56 938.84,-87 856.96,-74.56 857.03,-54.44 1020.66,-54.44 1020.73,-74.56"/>
<text text-anchor="middle" x="938.84" y="-65.3" font-family="Times,serif" font-size="14.00">Le Monde libre</text>
</g>
<!-- le&#45;nouveau&#45;monde&#45;13&#45;&gt;le&#45;monde&#45;libre&#45;14 -->
<g id="edge5" class="edge">
<title>le&#45;nouveau&#45;monde&#45;13&#45;&gt;le&#45;monde&#45;libre&#45;14</title>
<path fill="none" stroke="black" d="M748.35,-69C779.84,-69 814.42,-69 845.32,-69"/>
<polygon fill="black" stroke="black" points="845.01,-72.5 855.01,-69 845.01,-65.5 845.01,-72.5"/>
<text text-anchor="middle" x="802.4" y="-72.8" font-family="Times,serif" font-size="14.00">possède 26%</text>
</g>
<!-- czech&#45;media&#45;invest&#45;93&#45;&gt;le&#45;nouveau&#45;monde&#45;13 -->
<g id="edge3" class="edge">
<title>czech&#45;media&#45;invest&#45;93&#45;&gt;le&#45;nouveau&#45;monde&#45;13</title>
<path fill="none" stroke="black" d="M423.66,-49.63C457.84,-52.61 497.45,-56.07 533.68,-59.23"/>
<polygon fill="black" stroke="black" points="533.03,-62.68 543.29,-60.07 533.63,-55.71 533.03,-62.68"/>
<text text-anchor="middle" x="490.95" y="-60.8" font-family="Times,serif" font-size="14.00">possède 49%</text>
</g>
<!-- le&#45;monde&#45;sa&#45;15 -->
<g id="node7" class="node">
<title>le&#45;monde&#45;sa&#45;15</title>
<polygon fill="none" stroke="black" points="1282.25,-309.56 1206.11,-322 1129.97,-309.56 1130.04,-289.44 1282.18,-289.44 1282.25,-309.56"/>
<text text-anchor="middle" x="1206.11" y="-300.3" font-family="Times,serif" font-size="14.00">Le Monde SA</text>
</g>
<!-- le&#45;monde&#45;libre&#45;14&#45;&gt;le&#45;monde&#45;sa&#45;15 -->
<g id="edge7" class="edge">
<title>le&#45;monde&#45;libre&#45;14&#45;&gt;le&#45;monde&#45;sa&#45;15</title>
<path fill="none" stroke="black" d="M957.25,-84.42C1002.9,-124.86 1126.26,-234.14 1179.77,-281.55"/>
<polygon fill="black" stroke="black" points="1177.39,-284.12 1187.19,-288.13 1182.03,-278.88 1177.39,-284.12"/>
<text text-anchor="middle" x="1075.29" y="-224.8" font-family="Times,serif" font-size="14.00">possède 75%</text>
</g>
<!-- l&#45;obs&#45;16 -->
<g id="node8" class="node">
<title>l&#45;obs&#45;16</title>
<ellipse fill="none" stroke="black" cx="1503.37" cy="-34" rx="32.49" ry="18"/>
<text text-anchor="middle" x="1503.37" y="-30.3" font-family="Times,serif" font-size="14.00">L’Obs</text>
</g>
<!-- le&#45;monde&#45;libre&#45;14&#45;&gt;l&#45;obs&#45;16 -->
<g id="edge6" class="edge">
<title>le&#45;monde&#45;libre&#45;14&#45;&gt;l&#45;obs&#45;16</title>
<path fill="none" stroke="black" d="M1021.04,-63.95C1142.13,-56.41 1365.79,-42.5 1459.4,-36.67"/>
<polygon fill="black" stroke="black" points="1459.41,-40.18 1469.17,-36.07 1458.97,-33.19 1459.41,-40.18"/>
<text text-anchor="middle" x="1206.11" y="-59.8" font-family="Times,serif" font-size="14.00">possède 99%</text>
</g>
<!-- courrier&#45;international&#45;21 -->
<g id="node9" class="node">
<title>courrier&#45;international&#45;21</title>
<ellipse fill="none" stroke="black" cx="1503.37" cy="-574" rx="87.18" ry="18"/>
<text text-anchor="middle" x="1503.37" y="-570.3" font-family="Times,serif" font-size="14.00">Courrier international</text>
</g>
<!-- le&#45;monde&#45;sa&#45;15&#45;&gt;courrier&#45;international&#45;21 -->
<g id="edge8" class="edge">
<title>le&#45;monde&#45;sa&#45;15&#45;&gt;courrier&#45;international&#45;21</title>
<path fill="none" stroke="black" d="M1210.01,-321.86C1217.5,-362.24 1241.2,-461.3 1300.43,-516 1330.12,-543.42 1371.95,-557.97 1409.84,-565.66"/>
<polygon fill="black" stroke="black" points="1408.97,-569.05 1419.44,-567.46 1410.26,-562.17 1408.97,-569.05"/>
<text text-anchor="middle" x="1339.93" y="-559.8" font-family="Times,serif" font-size="14.00">possède 100%</text>
</g>
<!-- huffpost&#45;26 -->
<g id="node10" class="node">
<title>huffpost&#45;26</title>
<ellipse fill="none" stroke="black" cx="1503.37" cy="-520" rx="42.49" ry="18"/>
<text text-anchor="middle" x="1503.37" y="-516.3" font-family="Times,serif" font-size="14.00">HuffPost</text>
</g>
<!-- le&#45;monde&#45;sa&#45;15&#45;&gt;huffpost&#45;26 -->
<g id="edge9" class="edge">
<title>le&#45;monde&#45;sa&#45;15&#45;&gt;huffpost&#45;26</title>
<path fill="none" stroke="black" d="M1213.34,-321.14C1225.47,-352.3 1255.12,-418.55 1300.43,-457 1342.84,-492.99 1405.76,-508.45 1450.07,-515.07"/>
<polygon fill="black" stroke="black" points="1449.59,-518.54 1459.97,-516.43 1450.55,-511.6 1449.59,-518.54"/>
<text text-anchor="middle" x="1339.93" y="-500.8" font-family="Times,serif" font-size="14.00">possède 34%</text>
</g>
<!-- la&#45;vie&#45;23 -->
<g id="node11" class="node">
<title>la&#45;vie&#45;23</title>
<ellipse fill="none" stroke="black" cx="1503.37" cy="-466" rx="34.39" ry="18"/>
<text text-anchor="middle" x="1503.37" y="-462.3" font-family="Times,serif" font-size="14.00">La Vie</text>
</g>
<!-- le&#45;monde&#45;sa&#45;15&#45;&gt;la&#45;vie&#45;23 -->
<g id="edge10" class="edge">
<title>le&#45;monde&#45;sa&#45;15&#45;&gt;la&#45;vie&#45;23</title>
<path fill="none" stroke="black" d="M1219.12,-320.01C1235.52,-340.97 1266.77,-377.77 1300.43,-401 1348.74,-434.35 1415.17,-451.37 1458.44,-459.46"/>
<polygon fill="black" stroke="black" points="1457.77,-462.9 1468.23,-461.21 1459,-456.01 1457.77,-462.9"/>
<text text-anchor="middle" x="1339.93" y="-441.8" font-family="Times,serif" font-size="14.00">possède 100%</text>
</g>
<!-- le&#45;monde&#45;19 -->
<g id="node12" class="node">
<title>le&#45;monde&#45;19</title>
<ellipse fill="none" stroke="black" cx="1503.37" cy="-412" rx="48.19" ry="18"/>
<text text-anchor="middle" x="1503.37" y="-408.3" font-family="Times,serif" font-size="14.00">Le Monde</text>
</g>
<!-- le&#45;monde&#45;sa&#45;15&#45;&gt;le&#45;monde&#45;19 -->
<g id="edge11" class="edge">
<title>le&#45;monde&#45;sa&#45;15&#45;&gt;le&#45;monde&#45;19</title>
<path fill="none" stroke="black" d="M1230.25,-318.55C1248.75,-329.77 1275.61,-345.16 1300.43,-356 1348.74,-377.09 1407.04,-392.25 1448.56,-401.43"/>
<polygon fill="black" stroke="black" points="1447.81,-404.85 1458.32,-403.54 1449.29,-398.01 1447.81,-404.85"/>
<text text-anchor="middle" x="1339.93" y="-385.8" font-family="Times,serif" font-size="14.00">possède 100%</text>
</g>
<!-- le&#45;monde&#45;des&#45;religions&#45;22 -->
<g id="node13" class="node">
<title>le&#45;monde&#45;des&#45;religions&#45;22</title>
<ellipse fill="none" stroke="black" cx="1503.37" cy="-358" rx="94.78" ry="18"/>
<text text-anchor="middle" x="1503.37" y="-354.3" font-family="Times,serif" font-size="14.00">Le Monde des religions</text>
</g>
<!-- le&#45;monde&#45;sa&#45;15&#45;&gt;le&#45;monde&#45;des&#45;religions&#45;22 -->
<g id="edge12" class="edge">
<title>le&#45;monde&#45;sa&#45;15&#45;&gt;le&#45;monde&#45;des&#45;religions&#45;22</title>
<path fill="none" stroke="black" d="M1255.97,-314.23C1270.28,-317.15 1285.97,-320.28 1300.43,-323 1339.56,-330.37 1383.08,-337.99 1419.66,-344.23"/>
<polygon fill="black" stroke="black" points="1418.84,-347.64 1429.29,-345.86 1420.02,-340.74 1418.84,-347.64"/>
<text text-anchor="middle" x="1339.93" y="-340.8" font-family="Times,serif" font-size="14.00">possède 100%</text>
</g>
<!-- le&#45;monde&#45;diplomatique&#45;24 -->
<g id="node14" class="node">
<title>le&#45;monde&#45;diplomatique&#45;24</title>
<ellipse fill="none" stroke="black" cx="1503.37" cy="-304" rx="96.68" ry="18"/>
<text text-anchor="middle" x="1503.37" y="-300.3" font-family="Times,serif" font-size="14.00">Le Monde diplomatique</text>
</g>
<!-- le&#45;monde&#45;sa&#45;15&#45;&gt;le&#45;monde&#45;diplomatique&#45;24 -->
<g id="edge13" class="edge">
<title>le&#45;monde&#45;sa&#45;15&#45;&gt;le&#45;monde&#45;diplomatique&#45;24</title>
<path fill="none" stroke="black" d="M1282.38,-304C1316.52,-304 1357.52,-304 1394.83,-304"/>
<polygon fill="black" stroke="black" points="1394.76,-307.5 1404.76,-304 1394.76,-300.5 1394.76,-307.5"/>
<text text-anchor="middle" x="1339.93" y="-307.8" font-family="Times,serif" font-size="14.00">possède 51%</text>
</g>
<!-- m&#45;le&#45;magazine&#45;du&#45;monde&#45;18 -->
<g id="node15" class="node">
<title>m&#45;le&#45;magazine&#45;du&#45;monde&#45;18</title>
<ellipse fill="none" stroke="black" cx="1503.37" cy="-250" rx="105.88" ry="18"/>
<text text-anchor="middle" x="1503.37" y="-246.3" font-family="Times,serif" font-size="14.00">M, le magazine du Monde</text>
</g>
<!-- le&#45;monde&#45;sa&#45;15&#45;&gt;m&#45;le&#45;magazine&#45;du&#45;monde&#45;18 -->
<g id="edge14" class="edge">
<title>le&#45;monde&#45;sa&#45;15&#45;&gt;m&#45;le&#45;magazine&#45;du&#45;monde&#45;18</title>
<path fill="none" stroke="black" d="M1279.92,-288.96C1286.85,-287.6 1293.77,-286.26 1300.43,-285 1337.82,-277.96 1379.2,-270.69 1414.73,-264.62"/>
<polygon fill="black" stroke="black" points="1415.28,-268.07 1424.55,-262.94 1414.1,-261.17 1415.28,-268.07"/>
<text text-anchor="middle" x="1339.93" y="-288.8" font-family="Times,serif" font-size="14.00">possède 100%</text>
</g>
<!-- maniere&#45;de&#45;voir&#45;25 -->
<g id="node16" class="node">
<title>maniere&#45;de&#45;voir&#45;25</title>
<ellipse fill="none" stroke="black" cx="1503.37" cy="-196" rx="67.69" ry="18"/>
<text text-anchor="middle" x="1503.37" y="-192.3" font-family="Times,serif" font-size="14.00">Manière de voir</text>
</g>
<!-- le&#45;monde&#45;sa&#45;15&#45;&gt;maniere&#45;de&#45;voir&#45;25 -->
<g id="edge15" class="edge">
<title>le&#45;monde&#45;sa&#45;15&#45;&gt;maniere&#45;de&#45;voir&#45;25</title>
<path fill="none" stroke="black" d="M1230.18,-289.07C1248.64,-277.57 1275.49,-261.86 1300.43,-251 1344.13,-231.97 1396.06,-218 1436.32,-208.91"/>
<polygon fill="black" stroke="black" points="1436.86,-212.37 1445.87,-206.8 1435.35,-205.54 1436.86,-212.37"/>
<text text-anchor="middle" x="1339.93" y="-254.8" font-family="Times,serif" font-size="14.00">possède 51%</text>
</g>
<!-- prier&#45;17 -->
<g id="node17" class="node">
<title>prier&#45;17</title>
<ellipse fill="none" stroke="black" cx="1503.37" cy="-142" rx="27.9" ry="18"/>
<text text-anchor="middle" x="1503.37" y="-138.3" font-family="Times,serif" font-size="14.00">Prier</text>
</g>
<!-- le&#45;monde&#45;sa&#45;15&#45;&gt;prier&#45;17 -->
<g id="edge16" class="edge">
<title>le&#45;monde&#45;sa&#45;15&#45;&gt;prier&#45;17</title>
<path fill="none" stroke="black" d="M1217.88,-288.99C1233.81,-267.76 1265.53,-228.86 1300.43,-205 1351,-170.43 1421.41,-154.16 1464.33,-147.02"/>
<polygon fill="black" stroke="black" points="1464.84,-150.49 1474.18,-145.48 1463.76,-143.57 1464.84,-150.49"/>
<text text-anchor="middle" x="1339.93" y="-208.8" font-family="Times,serif" font-size="14.00">possède 100%</text>
</g>
<!-- telerama&#45;20 -->
<g id="node18" class="node">
<title>telerama&#45;20</title>
<ellipse fill="none" stroke="black" cx="1503.37" cy="-88" rx="44.39" ry="18"/>
<text text-anchor="middle" x="1503.37" y="-84.3" font-family="Times,serif" font-size="14.00">Télérama</text>
</g>
<!-- le&#45;monde&#45;sa&#45;15&#45;&gt;telerama&#45;20 -->
<g id="edge17" class="edge">
<title>le&#45;monde&#45;sa&#45;15&#45;&gt;telerama&#45;20</title>
<path fill="none" stroke="black" d="M1212.07,-289.29C1223.13,-258.7 1252.61,-187.74 1300.43,-148 1342.26,-113.24 1403.64,-98.62 1447.73,-92.46"/>
<polygon fill="black" stroke="black" points="1448.14,-95.94 1457.61,-91.2 1447.25,-89 1448.14,-95.94"/>
<text text-anchor="middle" x="1339.93" y="-151.8" font-family="Times,serif" font-size="14.00">possède 100%</text>
</g>
</g>
</svg>
