<?xml version="1.0" encoding="UTF-8" standalone="no"?>
<!DOCTYPE svg PUBLIC "-//W3C//DTD SVG 1.1//EN"
 "http://www.w3.org/Graphics/SVG/1.1/DTD/svg11.dtd">
<!-- Generated by graphviz version 8.1.0 (20230707.0739)
 -->
<!-- Pages: 1 -->
<svg width="539pt" height="130pt"
 viewBox="0.00 0.00 539.27 130.00" xmlns="http://www.w3.org/2000/svg" xmlns:xlink="http://www.w3.org/1999/xlink">
<g id="graph0" class="graph" transform="scale(1 1) rotate(0) translate(4 126)">
<polygon fill="white" stroke="none" points="-4,4 -4,-126 535.27,-126 535.27,4 -4,4"/>
<g id="clust2" class="cluster">
<title>clusterLeaves</title>
<polygon fill="none" stroke="black" points="304.25,-8 304.25,-114 523.27,-114 523.27,-8 304.25,-8"/>
</g>
<!-- les&#45;amis&#45;du&#45;monde&#45;diplomatique&#45;33 -->
<g id="node1" class="node">
<title>les&#45;amis&#45;du&#45;monde&#45;diplomatique&#45;33</title>
<polygon fill="none" stroke="black" points="204.25,-79 0,-79 0,-43 204.25,-43 204.25,-79"/>
<text text-anchor="middle" x="102.13" y="-55.95" font-family="Times,serif" font-size="14.00">Les Amis du Monde diplomatique</text>
</g>
<!-- le&#45;monde&#45;diplomatique&#45;24 -->
<g id="node2" class="node">
<title>le&#45;monde&#45;diplomatique&#45;24</title>
<ellipse fill="none" stroke="black" cx="413.76" cy="-88" rx="101.51" ry="18"/>
<text text-anchor="middle" x="413.76" y="-82.95" font-family="Times,serif" font-size="14.00">Le Monde diplomatique</text>
</g>
<!-- les&#45;amis&#45;du&#45;monde&#45;diplomatique&#45;33&#45;&gt;le&#45;monde&#45;diplomatique&#45;24 -->
<g id="edge1" class="edge">
<title>les&#45;amis&#45;du&#45;monde&#45;diplomatique&#45;33&#45;&gt;le&#45;monde&#45;diplomatique&#45;24</title>
<path fill="none" stroke="black" d="M204.51,-69.84C238.65,-72.82 276.74,-76.14 310.91,-79.12"/>
<polygon fill="black" stroke="black" points="310.59,-82.69 320.86,-80.07 311.2,-75.72 310.59,-82.69"/>
<text text-anchor="middle" x="258.25" y="-79.2" font-family="Times,serif" font-size="14.00">possède 24%</text>
</g>
<!-- maniere&#45;de&#45;voir&#45;25 -->
<g id="node3" class="node">
<title>maniere&#45;de&#45;voir&#45;25</title>
<ellipse fill="none" stroke="black" cx="413.76" cy="-34" rx="70.8" ry="18"/>
<text text-anchor="middle" x="413.76" y="-28.95" font-family="Times,serif" font-size="14.00">Manière de voir</text>
</g>
<!-- les&#45;amis&#45;du&#45;monde&#45;diplomatique&#45;33&#45;&gt;maniere&#45;de&#45;voir&#45;25 -->
<g id="edge2" class="edge">
<title>les&#45;amis&#45;du&#45;monde&#45;diplomatique&#45;33&#45;&gt;maniere&#45;de&#45;voir&#45;25</title>
<path fill="none" stroke="black" d="M204.51,-52.16C247.07,-48.45 295.77,-44.2 335.37,-40.75"/>
<polygon fill="black" stroke="black" points="335.63,-44.15 345.29,-39.8 335.02,-37.18 335.63,-44.15"/>
<text text-anchor="middle" x="258.25" y="-52.2" font-family="Times,serif" font-size="14.00">possède 24%</text>
</g>
</g>
</svg>
