<?xml version="1.0" encoding="UTF-8" standalone="no"?>
<!DOCTYPE svg PUBLIC "-//W3C//DTD SVG 1.1//EN"
 "http://www.w3.org/Graphics/SVG/1.1/DTD/svg11.dtd">
<!-- Generated by graphviz version 7.1.0 (20230121.1956)
 -->
<!-- Pages: 1 -->
<svg width="856pt" height="76pt"
 viewBox="0.00 0.00 856.47 76.00" xmlns="http://www.w3.org/2000/svg" xmlns:xlink="http://www.w3.org/1999/xlink">
<g id="graph0" class="graph" transform="scale(1 1) rotate(0) translate(4 72)">
<polygon fill="white" stroke="none" points="-4,4 -4,-72 852.47,-72 852.47,4 -4,4"/>
<g id="clust2" class="cluster">
<title>clusterLeaves</title>
<polygon fill="none" stroke="black" points="729.57,-8 729.57,-60 840.47,-60 840.47,-8 729.57,-8"/>
</g>
<!-- bernard&#45;arnault&#45;42 -->
<g id="node1" class="node">
<title>bernard&#45;arnault&#45;42</title>
<polygon fill="none" stroke="black" points="119,-52 0,-52 0,-16 119,-16 119,-52"/>
<text text-anchor="middle" x="59.5" y="-30.3" font-family="Times,serif" font-size="14.00">🧑‍💼Bernard Arnault</text>
</g>
<!-- lvmh&#45;43 -->
<g id="node3" class="node">
<title>lvmh&#45;43</title>
<polygon fill="none" stroke="black" points="319.38,-39.56 273.79,-52 228.21,-39.56 228.25,-19.44 319.34,-19.44 319.38,-39.56"/>
<text text-anchor="middle" x="273.79" y="-30.3" font-family="Times,serif" font-size="14.00">LVMH</text>
</g>
<!-- bernard&#45;arnault&#45;42&#45;&gt;lvmh&#45;43 -->
<g id="edge3" class="edge">
<title>bernard&#45;arnault&#45;42&#45;&gt;lvmh&#45;43</title>
<path fill="none" stroke="black" d="M119.35,-34C149.82,-34 186.82,-34 216.85,-34"/>
<polygon fill="black" stroke="black" points="216.48,-37.5 226.48,-34 216.48,-30.5 216.48,-37.5"/>
<text text-anchor="middle" x="173.5" y="-37.8" font-family="Times,serif" font-size="14.00">possède 46%</text>
</g>
<!-- groupe&#45;les&#45;echos&#45;48 -->
<g id="node2" class="node">
<title>groupe&#45;les&#45;echos&#45;48</title>
<polygon fill="none" stroke="black" points="622.57,-39.56 528.58,-52 434.59,-39.56 434.68,-19.44 622.48,-19.44 622.57,-39.56"/>
<text text-anchor="middle" x="528.58" y="-30.3" font-family="Times,serif" font-size="14.00">Groupe Les Échos</text>
</g>
<!-- les&#45;echos&#45;49 -->
<g id="node4" class="node">
<title>les&#45;echos&#45;49</title>
<ellipse fill="none" stroke="black" cx="785.02" cy="-34" rx="47.39" ry="18"/>
<text text-anchor="middle" x="785.02" y="-30.3" font-family="Times,serif" font-size="14.00">Les Échos</text>
</g>
<!-- groupe&#45;les&#45;echos&#45;48&#45;&gt;les&#45;echos&#45;49 -->
<g id="edge1" class="edge">
<title>groupe&#45;les&#45;echos&#45;48&#45;&gt;les&#45;echos&#45;49</title>
<path fill="none" stroke="black" d="M622.88,-34C657.46,-34 695.66,-34 726.18,-34"/>
<polygon fill="black" stroke="black" points="725.96,-37.5 735.96,-34 725.96,-30.5 725.96,-37.5"/>
<text text-anchor="middle" x="680.07" y="-37.8" font-family="Times,serif" font-size="14.00">possède 100%</text>
</g>
<!-- lvmh&#45;43&#45;&gt;groupe&#45;les&#45;echos&#45;48 -->
<g id="edge2" class="edge">
<title>lvmh&#45;43&#45;&gt;groupe&#45;les&#45;echos&#45;48</title>
<path fill="none" stroke="black" d="M319.69,-34C348.43,-34 386.96,-34 423.05,-34"/>
<polygon fill="black" stroke="black" points="422.64,-37.5 432.64,-34 422.64,-30.5 422.64,-37.5"/>
<text text-anchor="middle" x="377.08" y="-37.8" font-family="Times,serif" font-size="14.00">possède 100%</text>
</g>
</g>
</svg>
