<?xml version="1.0" encoding="UTF-8" standalone="no"?>
<!DOCTYPE svg PUBLIC "-//W3C//DTD SVG 1.1//EN"
 "http://www.w3.org/Graphics/SVG/1.1/DTD/svg11.dtd">
<!-- Generated by graphviz version 8.1.0 (20230707.0739)
 -->
<!-- Pages: 1 -->
<svg width="648pt" height="184pt"
 viewBox="0.00 0.00 648.00 184.00" xmlns="http://www.w3.org/2000/svg" xmlns:xlink="http://www.w3.org/1999/xlink">
<g id="graph0" class="graph" transform="scale(1 1) rotate(0) translate(4 180)">
<polygon fill="white" stroke="none" points="-4,4 -4,-180 644,-180 644,4 -4,4"/>
<g id="clust2" class="cluster">
<title>clusterLeaves</title>
<polygon fill="none" stroke="black" points="502.04,-8 502.04,-168 632,-168 632,-8 502.04,-8"/>
</g>
<!-- les&#45;augustins&#45;de&#45;l&#45;assomption&#45;157 -->
<g id="node1" class="node">
<title>les&#45;augustins&#45;de&#45;l&#45;assomption&#45;157</title>
<polygon fill="none" stroke="black" points="187.75,-106 0,-106 0,-70 187.75,-70 187.75,-106"/>
<text text-anchor="middle" x="93.88" y="-82.95" font-family="Times,serif" font-size="14.00">Les Augustins de l’Assomption</text>
</g>
<!-- bayard&#45;158 -->
<g id="node2" class="node">
<title>bayard&#45;158</title>
<polygon fill="none" stroke="black" points="395.29,-93.56 348.89,-106 302.5,-93.56 302.54,-73.44 395.24,-73.44 395.29,-93.56"/>
<text text-anchor="middle" x="348.89" y="-82.95" font-family="Times,serif" font-size="14.00">Bayard</text>
</g>
<!-- les&#45;augustins&#45;de&#45;l&#45;assomption&#45;157&#45;&gt;bayard&#45;158 -->
<g id="edge1" class="edge">
<title>les&#45;augustins&#45;de&#45;l&#45;assomption&#45;157&#45;&gt;bayard&#45;158</title>
<path fill="none" stroke="black" d="M188.01,-88C222.65,-88 260.88,-88 291.27,-88"/>
<polygon fill="black" stroke="black" points="291.09,-91.5 301.09,-88 291.09,-84.5 291.09,-91.5"/>
<text text-anchor="middle" x="245.13" y="-91.2" font-family="Times,serif" font-size="14.00">possède 100%</text>
</g>
<!-- la&#45;croix&#45;159 -->
<g id="node3" class="node">
<title>la&#45;croix&#45;159</title>
<ellipse fill="none" stroke="black" cx="567.02" cy="-142" rx="44.19" ry="18"/>
<text text-anchor="middle" x="567.02" y="-136.95" font-family="Times,serif" font-size="14.00">La Croix</text>
</g>
<!-- bayard&#45;158&#45;&gt;la&#45;croix&#45;159 -->
<g id="edge2" class="edge">
<title>bayard&#45;158&#45;&gt;la&#45;croix&#45;159</title>
<path fill="none" stroke="black" d="M379.05,-98.38C389.74,-102 401.99,-105.92 413.29,-109 447.08,-118.22 485.65,-126.54 515.57,-132.51"/>
<polygon fill="black" stroke="black" points="514.69,-136.1 525.18,-134.61 516.05,-129.24 514.69,-136.1"/>
<text text-anchor="middle" x="452.66" y="-129.2" font-family="Times,serif" font-size="14.00">possède 100%</text>
</g>
<!-- notre&#45;temps&#45;161 -->
<g id="node4" class="node">
<title>notre&#45;temps&#45;161</title>
<ellipse fill="none" stroke="black" cx="567.02" cy="-88" rx="56.98" ry="18"/>
<text text-anchor="middle" x="567.02" y="-82.95" font-family="Times,serif" font-size="14.00">Notre temps</text>
</g>
<!-- bayard&#45;158&#45;&gt;notre&#45;temps&#45;161 -->
<g id="edge3" class="edge">
<title>bayard&#45;158&#45;&gt;notre&#45;temps&#45;161</title>
<path fill="none" stroke="black" d="M395.73,-88C425.8,-88 465.64,-88 499.21,-88"/>
<polygon fill="black" stroke="black" points="498.88,-91.5 508.88,-88 498.88,-84.5 498.88,-91.5"/>
<text text-anchor="middle" x="452.66" y="-91.2" font-family="Times,serif" font-size="14.00">possède 100%</text>
</g>
<!-- pelerin&#45;160 -->
<g id="node5" class="node">
<title>pelerin&#45;160</title>
<ellipse fill="none" stroke="black" cx="567.02" cy="-34" rx="37.02" ry="18"/>
<text text-anchor="middle" x="567.02" y="-28.95" font-family="Times,serif" font-size="14.00">Pèlerin</text>
</g>
<!-- bayard&#45;158&#45;&gt;pelerin&#45;160 -->
<g id="edge4" class="edge">
<title>bayard&#45;158&#45;&gt;pelerin&#45;160</title>
<path fill="none" stroke="black" d="M394.41,-73.01C400.72,-71.06 407.14,-69.16 413.29,-67.5 449.34,-57.74 490.76,-48.79 521.37,-42.61"/>
<polygon fill="black" stroke="black" points="522,-45.85 531.12,-40.45 520.63,-38.98 522,-45.85"/>
<text text-anchor="middle" x="452.66" y="-70.2" font-family="Times,serif" font-size="14.00">possède 100%</text>
</g>
</g>
</svg>
