<?xml version="1.0" encoding="UTF-8" standalone="no"?>
<!DOCTYPE svg PUBLIC "-//W3C//DTD SVG 1.1//EN"
 "http://www.w3.org/Graphics/SVG/1.1/DTD/svg11.dtd">
<!-- Generated by graphviz version 7.1.0 (20230121.1956)
 -->
<!-- Pages: 1 -->
<svg width="641pt" height="184pt"
 viewBox="0.00 0.00 641.17 184.00" xmlns="http://www.w3.org/2000/svg" xmlns:xlink="http://www.w3.org/1999/xlink">
<g id="graph0" class="graph" transform="scale(1 1) rotate(0) translate(4 180)">
<polygon fill="white" stroke="none" points="-4,4 -4,-180 637.17,-180 637.17,4 -4,4"/>
<g id="clust2" class="cluster">
<title>clusterLeaves</title>
<polygon fill="none" stroke="black" points="499.98,-8 499.98,-168 625.17,-168 625.17,-8 499.98,-8"/>
</g>
<!-- les&#45;augustins&#45;de&#45;l&#45;assomption&#45;157 -->
<g id="node1" class="node">
<title>les&#45;augustins&#45;de&#45;l&#45;assomption&#45;157</title>
<polygon fill="none" stroke="black" points="188,-106 0,-106 0,-70 188,-70 188,-106"/>
<text text-anchor="middle" x="94" y="-84.3" font-family="Times,serif" font-size="14.00">Les Augustins de l’Assomption</text>
</g>
<!-- bayard&#45;158 -->
<g id="node2" class="node">
<title>bayard&#45;158</title>
<polygon fill="none" stroke="black" points="392.97,-93.56 347.99,-106 303.01,-93.56 303.05,-73.44 392.92,-73.44 392.97,-93.56"/>
<text text-anchor="middle" x="347.99" y="-84.3" font-family="Times,serif" font-size="14.00">Bayard</text>
</g>
<!-- les&#45;augustins&#45;de&#45;l&#45;assomption&#45;157&#45;&gt;bayard&#45;158 -->
<g id="edge1" class="edge">
<title>les&#45;augustins&#45;de&#45;l&#45;assomption&#45;157&#45;&gt;bayard&#45;158</title>
<path fill="none" stroke="black" d="M188.47,-88C223.12,-88 261.3,-88 291.5,-88"/>
<polygon fill="black" stroke="black" points="291.15,-91.5 301.15,-88 291.15,-84.5 291.15,-91.5"/>
<text text-anchor="middle" x="245.5" y="-91.8" font-family="Times,serif" font-size="14.00">possède 100%</text>
</g>
<!-- la&#45;croix&#45;159 -->
<g id="node3" class="node">
<title>la&#45;croix&#45;159</title>
<ellipse fill="none" stroke="black" cx="562.57" cy="-142" rx="42.49" ry="18"/>
<text text-anchor="middle" x="562.57" y="-138.3" font-family="Times,serif" font-size="14.00">La Croix</text>
</g>
<!-- bayard&#45;158&#45;&gt;la&#45;croix&#45;159 -->
<g id="edge2" class="edge">
<title>bayard&#45;158&#45;&gt;la&#45;croix&#45;159</title>
<path fill="none" stroke="black" d="M379.45,-97.8C389.45,-100.89 400.65,-104.22 410.98,-107 444.88,-116.12 483.45,-125.06 513.07,-131.62"/>
<polygon fill="black" stroke="black" points="511.95,-134.96 522.47,-133.69 513.46,-128.12 511.95,-134.96"/>
<text text-anchor="middle" x="450.48" y="-129.8" font-family="Times,serif" font-size="14.00">possède 100%</text>
</g>
<!-- notre&#45;temps&#45;161 -->
<g id="node4" class="node">
<title>notre&#45;temps&#45;161</title>
<ellipse fill="none" stroke="black" cx="562.57" cy="-88" rx="54.69" ry="18"/>
<text text-anchor="middle" x="562.57" y="-84.3" font-family="Times,serif" font-size="14.00">Notre temps</text>
</g>
<!-- bayard&#45;158&#45;&gt;notre&#45;temps&#45;161 -->
<g id="edge3" class="edge">
<title>bayard&#45;158&#45;&gt;notre&#45;temps&#45;161</title>
<path fill="none" stroke="black" d="M393.29,-88C423.01,-88 462.66,-88 496.01,-88"/>
<polygon fill="black" stroke="black" points="496,-91.5 506,-88 496,-84.5 496,-91.5"/>
<text text-anchor="middle" x="450.48" y="-91.8" font-family="Times,serif" font-size="14.00">possède 100%</text>
</g>
<!-- pelerin&#45;160 -->
<g id="node5" class="node">
<title>pelerin&#45;160</title>
<ellipse fill="none" stroke="black" cx="562.57" cy="-34" rx="36" ry="18"/>
<text text-anchor="middle" x="562.57" y="-30.3" font-family="Times,serif" font-size="14.00">Pèlerin</text>
</g>
<!-- bayard&#45;158&#45;&gt;pelerin&#45;160 -->
<g id="edge4" class="edge">
<title>bayard&#45;158&#45;&gt;pelerin&#45;160</title>
<path fill="none" stroke="black" d="M393.24,-74.03C399.18,-72.27 405.22,-70.55 410.98,-69 446.72,-59.38 487.65,-49.97 517.8,-43.33"/>
<polygon fill="black" stroke="black" points="518.3,-46.81 527.32,-41.26 516.81,-39.97 518.3,-46.81"/>
<text text-anchor="middle" x="450.48" y="-72.8" font-family="Times,serif" font-size="14.00">possède 100%</text>
</g>
</g>
</svg>
