<?xml version="1.0" encoding="UTF-8" standalone="no"?>
<!DOCTYPE svg PUBLIC "-//W3C//DTD SVG 1.1//EN"
 "http://www.w3.org/Graphics/SVG/1.1/DTD/svg11.dtd">
<!-- Generated by graphviz version 7.1.0 (20230121.1956)
 -->
<!-- Pages: 1 -->
<svg width="532pt" height="130pt"
 viewBox="0.00 0.00 531.68 130.00" xmlns="http://www.w3.org/2000/svg" xmlns:xlink="http://www.w3.org/1999/xlink">
<g id="graph0" class="graph" transform="scale(1 1) rotate(0) translate(4 126)">
<polygon fill="white" stroke="none" points="-4,4 -4,-126 527.68,-126 527.68,4 -4,4"/>
<g id="clust2" class="cluster">
<title>clusterLeaves</title>
<polygon fill="none" stroke="black" points="306,-8 306,-114 515.68,-114 515.68,-8 306,-8"/>
</g>
<!-- les&#45;amis&#45;du&#45;monde&#45;diplomatique&#45;33 -->
<g id="node1" class="node">
<title>les&#45;amis&#45;du&#45;monde&#45;diplomatique&#45;33</title>
<polygon fill="none" stroke="black" points="205,-79 0,-79 0,-43 205,-43 205,-79"/>
<text text-anchor="middle" x="102.5" y="-57.3" font-family="Times,serif" font-size="14.00">Les Amis du Monde diplomatique</text>
</g>
<!-- le&#45;monde&#45;diplomatique&#45;24 -->
<g id="node2" class="node">
<title>le&#45;monde&#45;diplomatique&#45;24</title>
<ellipse fill="none" stroke="black" cx="410.84" cy="-88" rx="96.68" ry="18"/>
<text text-anchor="middle" x="410.84" y="-84.3" font-family="Times,serif" font-size="14.00">Le Monde diplomatique</text>
</g>
<!-- les&#45;amis&#45;du&#45;monde&#45;diplomatique&#45;33&#45;&gt;le&#45;monde&#45;diplomatique&#45;24 -->
<g id="edge1" class="edge">
<title>les&#45;amis&#45;du&#45;monde&#45;diplomatique&#45;33&#45;&gt;le&#45;monde&#45;diplomatique&#45;24</title>
<path fill="none" stroke="black" d="M205.08,-69.95C239.27,-72.97 277.35,-76.32 311.3,-79.31"/>
<polygon fill="black" stroke="black" points="310.87,-82.79 321.13,-80.18 311.48,-75.82 310.87,-82.79"/>
<text text-anchor="middle" x="259.5" y="-80.8" font-family="Times,serif" font-size="14.00">possède 24%</text>
</g>
<!-- maniere&#45;de&#45;voir&#45;25 -->
<g id="node3" class="node">
<title>maniere&#45;de&#45;voir&#45;25</title>
<ellipse fill="none" stroke="black" cx="410.84" cy="-34" rx="67.69" ry="18"/>
<text text-anchor="middle" x="410.84" y="-30.3" font-family="Times,serif" font-size="14.00">Manière de voir</text>
</g>
<!-- les&#45;amis&#45;du&#45;monde&#45;diplomatique&#45;33&#45;&gt;maniere&#45;de&#45;voir&#45;25 -->
<g id="edge2" class="edge">
<title>les&#45;amis&#45;du&#45;monde&#45;diplomatique&#45;33&#45;&gt;maniere&#45;de&#45;voir&#45;25</title>
<path fill="none" stroke="black" d="M205.08,-52.05C247.41,-48.32 295.68,-44.06 334.72,-40.62"/>
<polygon fill="black" stroke="black" points="334.84,-44.12 344.49,-39.76 334.22,-37.15 334.84,-44.12"/>
<text text-anchor="middle" x="259.5" y="-52.8" font-family="Times,serif" font-size="14.00">possède 24%</text>
</g>
</g>
</svg>
