<?xml version="1.0" encoding="UTF-8" standalone="no"?>
<!DOCTYPE svg PUBLIC "-//W3C//DTD SVG 1.1//EN"
 "http://www.w3.org/Graphics/SVG/1.1/DTD/svg11.dtd">
<!-- Generated by graphviz version 8.1.0 (20230707.0739)
 -->
<!-- Pages: 1 -->
<svg width="1126pt" height="103pt"
 viewBox="0.00 0.00 1126.20 102.68" xmlns="http://www.w3.org/2000/svg" xmlns:xlink="http://www.w3.org/1999/xlink">
<g id="graph0" class="graph" transform="scale(1 1) rotate(0) translate(4 98.68)">
<polygon fill="white" stroke="none" points="-4,4 -4,-98.68 1122.2,-98.68 1122.2,4 -4,4"/>
<g id="clust2" class="cluster">
<title>clusterLeaves</title>
<polygon fill="none" stroke="black" points="995.59,-25.68 995.59,-77.68 1110.2,-77.68 1110.2,-25.68 995.59,-25.68"/>
</g>
<!-- patrick&#45;drahi&#45;56 -->
<g id="node1" class="node">
<title>patrick&#45;drahi&#45;56</title>
<polygon fill="none" stroke="black" points="103,-54.68 0,-54.68 0,-18.68 103,-18.68 103,-54.68"/>
<text text-anchor="middle" x="51.5" y="-32.76" font-family="Times,serif" font-size="14.00">🧑‍💼Patrick Drahi</text>
</g>
<!-- altice&#45;57 -->
<g id="node3" class="node">
<title>altice&#45;57</title>
<polygon fill="none" stroke="black" points="293.66,-42.25 252.33,-54.68 211,-42.25 211.04,-22.12 293.63,-22.12 293.66,-42.25"/>
<text text-anchor="middle" x="252.33" y="-31.63" font-family="Times,serif" font-size="14.00">Altice</text>
</g>
<!-- patrick&#45;drahi&#45;56&#45;&gt;altice&#45;57 -->
<g id="edge3" class="edge">
<title>patrick&#45;drahi&#45;56&#45;&gt;altice&#45;57</title>
<path fill="none" stroke="black" d="M103.46,-51.6C109.33,-52.87 115.27,-53.94 121,-54.68 152.74,-58.78 161.36,-59.45 193,-54.68 200.11,-53.61 207.55,-51.84 214.65,-49.82"/>
<polygon fill="black" stroke="black" points="215.18,-53.01 223.72,-46.73 213.13,-46.32 215.18,-53.01"/>
<text text-anchor="middle" x="157" y="-60.88" font-family="Times,serif" font-size="14.00">possède 61%</text>
</g>
<!-- patrick&#45;drahi&#45;56&#45;&gt;altice&#45;57 -->
<g id="edge6" class="edge">
<title>patrick&#45;drahi&#45;56&#45;&gt;altice&#45;57</title>
<path fill="none" stroke="black" d="M103.37,-34.62C109.31,-34.44 115.29,-34.29 121,-34.18 152.99,-33.6 161.01,-33.5 193,-34.18 195.22,-34.23 197.48,-34.29 199.77,-34.35"/>
<polygon fill="black" stroke="black" points="199.43,-37.88 209.54,-34.71 199.67,-30.88 199.43,-37.88"/>
<text text-anchor="middle" x="157" y="-36.88" font-family="Times,serif" font-size="14.00">possède 61%</text>
</g>
<!-- patrick&#45;drahi&#45;56&#45;&gt;altice&#45;57 -->
<g id="edge8" class="edge">
<title>patrick&#45;drahi&#45;56&#45;&gt;altice&#45;57</title>
<path fill="none" stroke="black" d="M99.88,-18.18C106.87,-16.12 114.06,-14.34 121,-13.18 152.56,-7.92 161.58,-7.09 193,-13.18 198.76,-14.3 204.67,-15.98 210.42,-17.95"/>
<polygon fill="black" stroke="black" points="208.93,-21.5 219.52,-21.72 211.38,-14.94 208.93,-21.5"/>
<text text-anchor="middle" x="157" y="-15.88" font-family="Times,serif" font-size="14.00">possède 61%</text>
</g>
<!-- altice&#45;france&#45;58 -->
<g id="node2" class="node">
<title>altice&#45;france&#45;58</title>
<polygon fill="none" stroke="black" points="724.12,-82.25 648.63,-94.68 573.13,-82.25 573.2,-62.12 724.05,-62.12 724.12,-82.25"/>
<text text-anchor="middle" x="648.63" y="-71.63" font-family="Times,serif" font-size="14.00">Altice France</text>
</g>
<!-- liberation&#45;60 -->
<g id="node5" class="node">
<title>liberation&#45;60</title>
<ellipse fill="none" stroke="black" cx="1052.89" cy="-51.68" rx="49.3" ry="18"/>
<text text-anchor="middle" x="1052.89" y="-46.63" font-family="Times,serif" font-size="14.00">Libération</text>
</g>
<!-- altice&#45;france&#45;58&#45;&gt;liberation&#45;60 -->
<g id="edge1" class="edge">
<title>altice&#45;france&#45;58&#45;&gt;liberation&#45;60</title>
<path fill="none" stroke="black" d="M724.35,-72.04C802.04,-67.21 922.06,-59.75 993.21,-55.33"/>
<polygon fill="black" stroke="black" points="993,-58.79 1002.77,-54.67 992.57,-51.8 993,-58.79"/>
<text text-anchor="middle" x="945.46" y="-62.88" font-family="Times,serif" font-size="14.00">possède 100%</text>
</g>
<!-- altice&#45;57&#45;&gt;altice&#45;france&#45;58 -->
<g id="edge2" class="edge">
<title>altice&#45;57&#45;&gt;altice&#45;france&#45;58</title>
<path fill="none" stroke="black" d="M280.6,-46.54C290.28,-49.66 301.35,-52.78 311.66,-54.68 395.96,-70.23 493.93,-75.18 562.25,-76.58"/>
<polygon fill="black" stroke="black" points="561.89,-80.09 571.95,-76.77 562.01,-73.09 561.89,-80.09"/>
<text text-anchor="middle" x="351.79" y="-67.88" font-family="Times,serif" font-size="14.00">possède 78%</text>
</g>
<!-- fonds&#45;de&#45;dotation&#45;pour&#45;une&#45;presse&#45;independante&#45;329 -->
<g id="node4" class="node">
<title>fonds&#45;de&#45;dotation&#45;pour&#45;une&#45;presse&#45;independante&#45;329</title>
<polygon fill="none" stroke="black" points="887.34,-28.25 648.63,-40.68 409.91,-28.25 410.14,-8.12 887.12,-8.12 887.34,-28.25"/>
<text text-anchor="middle" x="648.63" y="-17.63" font-family="Times,serif" font-size="14.00">Fonds de Dotation pour une Presse Indépendante</text>
</g>
<!-- altice&#45;57&#45;&gt;fonds&#45;de&#45;dotation&#45;pour&#45;une&#45;presse&#45;independante&#45;329 -->
<g id="edge5" class="edge">
<title>altice&#45;57&#45;&gt;fonds&#45;de&#45;dotation&#45;pour&#45;une&#45;presse&#45;independante&#45;329</title>
<path fill="none" stroke="black" d="M294.04,-35.24C326.74,-34.08 375.46,-32.35 426.36,-30.54"/>
<polygon fill="black" stroke="black" points="426.38,-34.01 436.25,-30.15 426.13,-27.01 426.38,-34.01"/>
<text text-anchor="middle" x="351.79" y="-36.88" font-family="Times,serif" font-size="14.00">contrôle 100%</text>
</g>
<!-- altice&#45;57&#45;&gt;fonds&#45;de&#45;dotation&#45;pour&#45;une&#45;presse&#45;independante&#45;329 -->
<g id="edge7" class="edge">
<title>altice&#45;57&#45;&gt;fonds&#45;de&#45;dotation&#45;pour&#45;une&#45;presse&#45;independante&#45;329</title>
<path fill="none" stroke="black" d="M281.33,-21.66C290.7,-17.4 301.39,-13.33 311.66,-11.18 388.26,4.83 476.78,0.91 543.72,-6.45"/>
<polygon fill="black" stroke="black" points="542.94,-10 553.27,-7.66 543.74,-3.04 542.94,-10"/>
<text text-anchor="middle" x="351.79" y="-13.88" font-family="Times,serif" font-size="14.00">contrôle 100%</text>
</g>
<!-- fonds&#45;de&#45;dotation&#45;pour&#45;une&#45;presse&#45;independante&#45;329&#45;&gt;liberation&#45;60 -->
<g id="edge4" class="edge">
<title>fonds&#45;de&#45;dotation&#45;pour&#45;une&#45;presse&#45;independante&#45;329&#45;&gt;liberation&#45;60</title>
<path fill="none" stroke="black" d="M887.4,-25.41C920.47,-27.57 953.95,-30.71 985.59,-35.18 991.24,-35.98 997.11,-37.06 1002.92,-38.29"/>
<polygon fill="black" stroke="black" points="1001.71,-41.84 1012.24,-40.64 1003.26,-35.01 1001.71,-41.84"/>
<text text-anchor="middle" x="945.46" y="-37.88" font-family="Times,serif" font-size="14.00">contrôle 100%</text>
</g>
</g>
</svg>
