<?xml version="1.0" encoding="UTF-8" standalone="no"?>
<!DOCTYPE svg PUBLIC "-//W3C//DTD SVG 1.1//EN"
 "http://www.w3.org/Graphics/SVG/1.1/DTD/svg11.dtd">
<!-- Generated by graphviz version 7.1.0 (20230121.1956)
 -->
<!-- Pages: 1 -->
<svg width="1045pt" height="76pt"
 viewBox="0.00 0.00 1044.95 76.00" xmlns="http://www.w3.org/2000/svg" xmlns:xlink="http://www.w3.org/1999/xlink">
<g id="graph0" class="graph" transform="scale(1 1) rotate(0) translate(4 72)">
<polygon fill="white" stroke="none" points="-4,4 -4,-72 1040.95,-72 1040.95,4 -4,4"/>
<g id="clust2" class="cluster">
<title>clusterLeaves</title>
<polygon fill="none" stroke="black" points="862.16,-8 862.16,-60 1028.95,-60 1028.95,-8 862.16,-8"/>
</g>
<!-- jean&#45;louis&#45;louvel&#45;284 -->
<g id="node1" class="node">
<title>jean&#45;louis&#45;louvel&#45;284</title>
<polygon fill="none" stroke="black" points="132,-52 0,-52 0,-16 132,-16 132,-52"/>
<text text-anchor="middle" x="66" y="-30.3" font-family="Times,serif" font-size="14.00">🧑‍💼Jean&#45;Louis Louvel</text>
</g>
<!-- societe&#45;normande&#45;d&#45;information&#45;et&#45;de&#45;communication&#45;285 -->
<g id="node2" class="node">
<title>societe&#45;normande&#45;d&#45;information&#45;et&#45;de&#45;communication&#45;285</title>
<polygon fill="none" stroke="black" points="755.24,-39.56 498.08,-52 240.92,-39.56 241.16,-19.44 755,-19.44 755.24,-39.56"/>
<text text-anchor="middle" x="498.08" y="-30.3" font-family="Times,serif" font-size="14.00">Société Normande d’Information et de Communication</text>
</g>
<!-- jean&#45;louis&#45;louvel&#45;284&#45;&gt;societe&#45;normande&#45;d&#45;information&#45;et&#45;de&#45;communication&#45;285 -->
<g id="edge2" class="edge">
<title>jean&#45;louis&#45;louvel&#45;284&#45;&gt;societe&#45;normande&#45;d&#45;information&#45;et&#45;de&#45;communication&#45;285</title>
<path fill="none" stroke="black" d="M132.32,-34C159.68,-34 193.47,-34 229.34,-34"/>
<polygon fill="black" stroke="black" points="229.02,-37.5 239.02,-34 229.02,-30.5 229.02,-37.5"/>
<text text-anchor="middle" x="186.5" y="-37.8" font-family="Times,serif" font-size="14.00">possède 90%</text>
</g>
<!-- liberte&#45;dimanche&#45;289 -->
<g id="node3" class="node">
<title>liberte&#45;dimanche&#45;289</title>
<ellipse fill="none" stroke="black" cx="945.55" cy="-34" rx="75.29" ry="18"/>
<text text-anchor="middle" x="945.55" y="-30.3" font-family="Times,serif" font-size="14.00">Liberté Dimanche</text>
</g>
<!-- societe&#45;normande&#45;d&#45;information&#45;et&#45;de&#45;communication&#45;285&#45;&gt;liberte&#45;dimanche&#45;289 -->
<g id="edge1" class="edge">
<title>societe&#45;normande&#45;d&#45;information&#45;et&#45;de&#45;communication&#45;285&#45;&gt;liberte&#45;dimanche&#45;289</title>
<path fill="none" stroke="black" d="M755.63,-34C792.68,-34 828.44,-34 858.7,-34"/>
<polygon fill="black" stroke="black" points="858.51,-37.5 868.51,-34 858.51,-30.5 858.51,-37.5"/>
<text text-anchor="middle" x="812.66" y="-37.8" font-family="Times,serif" font-size="14.00">possède 100%</text>
</g>
</g>
</svg>
