<?xml version="1.0" encoding="UTF-8" standalone="no"?>
<!DOCTYPE svg PUBLIC "-//W3C//DTD SVG 1.1//EN"
 "http://www.w3.org/Graphics/SVG/1.1/DTD/svg11.dtd">
<!-- Generated by graphviz version 7.1.0 (20230121.1956)
 -->
<!-- Pages: 1 -->
<svg width="1103pt" height="100pt"
 viewBox="0.00 0.00 1102.54 100.40" xmlns="http://www.w3.org/2000/svg" xmlns:xlink="http://www.w3.org/1999/xlink">
<g id="graph0" class="graph" transform="scale(1 1) rotate(0) translate(4 96.4)">
<polygon fill="white" stroke="none" points="-4,4 -4,-96.4 1098.54,-96.4 1098.54,4 -4,4"/>
<g id="clust2" class="cluster">
<title>clusterLeaves</title>
<polygon fill="none" stroke="black" points="975.65,-23.4 975.65,-75.4 1086.54,-75.4 1086.54,-23.4 975.65,-23.4"/>
</g>
<!-- patrick&#45;drahi&#45;56 -->
<g id="node1" class="node">
<title>patrick&#45;drahi&#45;56</title>
<polygon fill="none" stroke="black" points="104,-54.4 0,-54.4 0,-18.4 104,-18.4 104,-54.4"/>
<text text-anchor="middle" x="52" y="-32.7" font-family="Times,serif" font-size="14.00">🧑‍💼Patrick Drahi</text>
</g>
<!-- altice&#45;57 -->
<g id="node3" class="node">
<title>altice&#45;57</title>
<polygon fill="none" stroke="black" points="293.51,-41.96 253.17,-54.4 212.83,-41.96 212.87,-21.84 293.47,-21.84 293.51,-41.96"/>
<text text-anchor="middle" x="253.17" y="-32.7" font-family="Times,serif" font-size="14.00">Altice</text>
</g>
<!-- patrick&#45;drahi&#45;56&#45;&gt;altice&#45;57 -->
<g id="edge3" class="edge">
<title>patrick&#45;drahi&#45;56&#45;&gt;altice&#45;57</title>
<path fill="none" stroke="black" d="M104.39,-49.67C110.3,-50.79 116.26,-51.74 122,-52.4 154.23,-56.09 162.86,-56.81 195,-52.4 201.06,-51.57 207.39,-50.26 213.53,-48.74"/>
<polygon fill="black" stroke="black" points="214.08,-52.22 222.82,-46.24 212.26,-45.46 214.08,-52.22"/>
<text text-anchor="middle" x="158.5" y="-59.2" font-family="Times,serif" font-size="14.00">possède 61%</text>
</g>
<!-- patrick&#45;drahi&#45;56&#45;&gt;altice&#45;57 -->
<g id="edge6" class="edge">
<title>patrick&#45;drahi&#45;56&#45;&gt;altice&#45;57</title>
<path fill="none" stroke="black" d="M104.24,-33.92C110.22,-33.71 116.25,-33.53 122,-33.4 154.44,-32.7 162.57,-32.55 195,-33.4 197.04,-33.45 199.11,-33.52 201.21,-33.59"/>
<polygon fill="black" stroke="black" points="200.86,-37.08 210.99,-33.99 201.14,-30.08 200.86,-37.08"/>
<text text-anchor="middle" x="158.5" y="-37.2" font-family="Times,serif" font-size="14.00">possède 61%</text>
</g>
<!-- patrick&#45;drahi&#45;56&#45;&gt;altice&#45;57 -->
<g id="edge8" class="edge">
<title>patrick&#45;drahi&#45;56&#45;&gt;altice&#45;57</title>
<path fill="none" stroke="black" d="M101.89,-17.97C108.57,-16.09 115.39,-14.47 122,-13.4 154.03,-8.2 163.15,-7.23 195,-13.4 200.18,-14.4 205.48,-15.87 210.67,-17.59"/>
<polygon fill="black" stroke="black" points="209.06,-20.73 219.65,-20.88 211.47,-14.15 209.06,-20.73"/>
<text text-anchor="middle" x="158.5" y="-17.2" font-family="Times,serif" font-size="14.00">possède 61%</text>
</g>
<!-- altice&#45;france&#45;58 -->
<g id="node2" class="node">
<title>altice&#45;france&#45;58</title>
<polygon fill="none" stroke="black" points="710.6,-79.96 638.5,-92.4 566.39,-79.96 566.45,-59.84 710.54,-59.84 710.6,-79.96"/>
<text text-anchor="middle" x="638.5" y="-70.7" font-family="Times,serif" font-size="14.00">Altice France</text>
</g>
<!-- liberation&#45;60 -->
<g id="node5" class="node">
<title>liberation&#45;60</title>
<ellipse fill="none" stroke="black" cx="1031.1" cy="-49.4" rx="47.39" ry="18"/>
<text text-anchor="middle" x="1031.1" y="-45.7" font-family="Times,serif" font-size="14.00">Libération</text>
</g>
<!-- altice&#45;france&#45;58&#45;&gt;liberation&#45;60 -->
<g id="edge1" class="edge">
<title>altice&#45;france&#45;58&#45;&gt;liberation&#45;60</title>
<path fill="none" stroke="black" d="M710.68,-69.84C785.93,-65.03 903.15,-57.53 972.71,-53.07"/>
<polygon fill="black" stroke="black" points="972.6,-56.59 982.36,-52.46 972.15,-49.6 972.6,-56.59"/>
<text text-anchor="middle" x="925.15" y="-61.2" font-family="Times,serif" font-size="14.00">possède 100%</text>
</g>
<!-- altice&#45;57&#45;&gt;altice&#45;france&#45;58 -->
<g id="edge2" class="edge">
<title>altice&#45;57&#45;&gt;altice&#45;france&#45;58</title>
<path fill="none" stroke="black" d="M282.99,-45.71C291.98,-48.28 301.99,-50.79 311.34,-52.4 393.43,-66.5 488.59,-71.66 554.85,-73.5"/>
<polygon fill="black" stroke="black" points="554.46,-76.99 564.54,-73.75 554.64,-70 554.46,-76.99"/>
<text text-anchor="middle" x="351.84" y="-66.2" font-family="Times,serif" font-size="14.00">possède 78%</text>
</g>
<!-- fonds&#45;de&#45;dotation&#45;pour&#45;une&#45;presse&#45;independante&#45;329 -->
<g id="node4" class="node">
<title>fonds&#45;de&#45;dotation&#45;pour&#45;une&#45;presse&#45;independante&#45;329</title>
<polygon fill="none" stroke="black" points="866.81,-25.96 638.5,-38.4 410.18,-25.96 410.39,-5.84 866.6,-5.84 866.81,-25.96"/>
<text text-anchor="middle" x="638.5" y="-16.7" font-family="Times,serif" font-size="14.00">Fonds de Dotation pour une Presse Indépendante</text>
</g>
<!-- altice&#45;57&#45;&gt;fonds&#45;de&#45;dotation&#45;pour&#45;une&#45;presse&#45;independante&#45;329 -->
<g id="edge5" class="edge">
<title>altice&#45;57&#45;&gt;fonds&#45;de&#45;dotation&#45;pour&#45;une&#45;presse&#45;independante&#45;329</title>
<path fill="none" stroke="black" d="M293.75,-34.75C328.13,-33.31 380.72,-31.12 434.51,-28.87"/>
<polygon fill="black" stroke="black" points="434.64,-32.37 444.49,-28.46 434.35,-25.38 434.64,-32.37"/>
<text text-anchor="middle" x="351.84" y="-37.2" font-family="Times,serif" font-size="14.00">contrôle 100%</text>
</g>
<!-- altice&#45;57&#45;&gt;fonds&#45;de&#45;dotation&#45;pour&#45;une&#45;presse&#45;independante&#45;329 -->
<g id="edge7" class="edge">
<title>altice&#45;57&#45;&gt;fonds&#45;de&#45;dotation&#45;pour&#45;une&#45;presse&#45;independante&#45;329</title>
<path fill="none" stroke="black" d="M282.19,-21.41C291.24,-17.32 301.48,-13.46 311.34,-11.4 380.38,3.04 459.43,1.3 522.41,-4.29"/>
<polygon fill="black" stroke="black" points="521.78,-7.75 532.07,-5.2 522.44,-0.78 521.78,-7.75"/>
<text text-anchor="middle" x="351.84" y="-15.2" font-family="Times,serif" font-size="14.00">contrôle 100%</text>
</g>
<!-- fonds&#45;de&#45;dotation&#45;pour&#45;une&#45;presse&#45;independante&#45;329&#45;&gt;liberation&#45;60 -->
<g id="edge4" class="edge">
<title>fonds&#45;de&#45;dotation&#45;pour&#45;une&#45;presse&#45;independante&#45;329&#45;&gt;liberation&#45;60</title>
<path fill="none" stroke="black" d="M867.2,-24.76C900.32,-26.96 933.93,-30.07 965.65,-34.4 970.52,-35.07 975.56,-35.93 980.58,-36.9"/>
<polygon fill="black" stroke="black" points="979.48,-40.25 989.98,-38.87 980.91,-33.39 979.48,-40.25"/>
<text text-anchor="middle" x="925.15" y="-38.2" font-family="Times,serif" font-size="14.00">contrôle 100%</text>
</g>
</g>
</svg>
