<?xml version="1.0" encoding="UTF-8" standalone="no"?>
<!DOCTYPE svg PUBLIC "-//W3C//DTD SVG 1.1//EN"
 "http://www.w3.org/Graphics/SVG/1.1/DTD/svg11.dtd">
<!-- Generated by graphviz version 7.1.0 (20230121.1956)
 -->
<!-- Pages: 1 -->
<svg width="949pt" height="724pt"
 viewBox="0.00 0.00 948.56 724.00" xmlns="http://www.w3.org/2000/svg" xmlns:xlink="http://www.w3.org/1999/xlink">
<g id="graph0" class="graph" transform="scale(1 1) rotate(0) translate(4 720)">
<polygon fill="white" stroke="none" points="-4,4 -4,-720 944.56,-720 944.56,4 -4,4"/>
<g id="clust2" class="cluster">
<title>clusterLeaves</title>
<polygon fill="none" stroke="black" points="734.57,-8 734.57,-708 932.56,-708 932.56,-8 734.57,-8"/>
</g>
<!-- bernard&#45;arnault&#45;42 -->
<g id="node1" class="node">
<title>bernard&#45;arnault&#45;42</title>
<polygon fill="none" stroke="black" points="119,-214 0,-214 0,-178 119,-178 119,-214"/>
<text text-anchor="middle" x="59.5" y="-192.3" font-family="Times,serif" font-size="14.00">🧑‍💼Bernard Arnault</text>
</g>
<!-- lvmh&#45;43 -->
<g id="node2" class="node">
<title>lvmh&#45;43</title>
<polygon fill="none" stroke="black" points="319.38,-201.56 273.79,-214 228.21,-201.56 228.25,-181.44 319.34,-181.44 319.38,-201.56"/>
<text text-anchor="middle" x="273.79" y="-192.3" font-family="Times,serif" font-size="14.00">LVMH</text>
</g>
<!-- bernard&#45;arnault&#45;42&#45;&gt;lvmh&#45;43 -->
<g id="edge1" class="edge">
<title>bernard&#45;arnault&#45;42&#45;&gt;lvmh&#45;43</title>
<path fill="none" stroke="black" d="M119.35,-196C149.82,-196 186.82,-196 216.85,-196"/>
<polygon fill="black" stroke="black" points="216.48,-199.5 226.48,-196 216.48,-192.5 216.48,-199.5"/>
<text text-anchor="middle" x="173.5" y="-199.8" font-family="Times,serif" font-size="14.00">possède 46%</text>
</g>
<!-- groupe&#45;perdriel&#45;3 -->
<g id="node3" class="node">
<title>groupe&#45;perdriel&#45;3</title>
<polygon fill="none" stroke="black" points="617.18,-633.56 533.58,-646 449.98,-633.56 450.06,-613.44 617.1,-613.44 617.18,-633.56"/>
<text text-anchor="middle" x="533.58" y="-624.3" font-family="Times,serif" font-size="14.00">Groupe Perdriel</text>
</g>
<!-- lvmh&#45;43&#45;&gt;groupe&#45;perdriel&#45;3 -->
<g id="edge2" class="edge">
<title>lvmh&#45;43&#45;&gt;groupe&#45;perdriel&#45;3</title>
<path fill="none" stroke="black" d="M280.34,-212.27C290.18,-240.37 312.11,-299.44 337.58,-346 393.05,-447.36 476.52,-557.16 513.63,-604.31"/>
<polygon fill="black" stroke="black" points="510.73,-606.28 519.68,-611.95 516.22,-601.94 510.73,-606.28"/>
<text text-anchor="middle" x="379.58" y="-476.8" font-family="Times,serif" font-size="14.00">possède 40%</text>
</g>
<!-- groupe&#45;les&#45;echos&#45;48 -->
<g id="node4" class="node">
<title>groupe&#45;les&#45;echos&#45;48</title>
<polygon fill="none" stroke="black" points="627.57,-436.56 533.58,-449 439.59,-436.56 439.68,-416.44 627.48,-416.44 627.57,-436.56"/>
<text text-anchor="middle" x="533.58" y="-427.3" font-family="Times,serif" font-size="14.00">Groupe Les Échos</text>
</g>
<!-- lvmh&#45;43&#45;&gt;groupe&#45;les&#45;echos&#45;48 -->
<g id="edge6" class="edge">
<title>lvmh&#45;43&#45;&gt;groupe&#45;les&#45;echos&#45;48</title>
<path fill="none" stroke="black" d="M290.15,-210C333.18,-249.23 455.25,-360.51 507.91,-408.51"/>
<polygon fill="black" stroke="black" points="505.45,-411.01 515.2,-415.16 510.17,-405.83 505.45,-411.01"/>
<text text-anchor="middle" x="379.58" y="-330.8" font-family="Times,serif" font-size="14.00">possède 100%</text>
</g>
<!-- groupe&#45;l&#45;opinion&#45;325 -->
<g id="node5" class="node">
<title>groupe&#45;l&#45;opinion&#45;325</title>
<polygon fill="none" stroke="black" points="627.57,-255.56 533.58,-268 439.59,-255.56 439.68,-235.44 627.48,-235.44 627.57,-255.56"/>
<text text-anchor="middle" x="533.58" y="-246.3" font-family="Times,serif" font-size="14.00">Groupe L’Opinion</text>
</g>
<!-- lvmh&#45;43&#45;&gt;groupe&#45;l&#45;opinion&#45;325 -->
<g id="edge12" class="edge">
<title>lvmh&#45;43&#45;&gt;groupe&#45;l&#45;opinion&#45;325</title>
<path fill="none" stroke="black" d="M311.29,-204.25C319.91,-206.16 329.07,-208.18 337.58,-210 373.41,-217.67 413.01,-225.85 447.11,-232.8"/>
<polygon fill="black" stroke="black" points="446,-236.14 456.49,-234.71 447.39,-229.28 446,-236.14"/>
<text text-anchor="middle" x="379.58" y="-229.8" font-family="Times,serif" font-size="14.00">participe 100%</text>
</g>
<!-- aujourd&#45;hui&#45;en&#45;france&#45;47 -->
<g id="node8" class="node">
<title>aujourd&#45;hui&#45;en&#45;france&#45;47</title>
<ellipse fill="none" stroke="black" cx="833.57" cy="-196" rx="90.98" ry="18"/>
<text text-anchor="middle" x="833.57" y="-192.3" font-family="Times,serif" font-size="14.00">Aujourd’hui en France</text>
</g>
<!-- lvmh&#45;43&#45;&gt;aujourd&#45;hui&#45;en&#45;france&#45;47 -->
<g id="edge5" class="edge">
<title>lvmh&#45;43&#45;&gt;aujourd&#45;hui&#45;en&#45;france&#45;47</title>
<path fill="none" stroke="black" d="M319.49,-196C408.24,-196 608.62,-196 731.05,-196"/>
<polygon fill="black" stroke="black" points="730.77,-199.5 740.77,-196 730.77,-192.5 730.77,-199.5"/>
<text text-anchor="middle" x="533.58" y="-199.8" font-family="Times,serif" font-size="14.00">possède 100%</text>
</g>
<!-- le&#45;parisien&#45;44 -->
<g id="node16" class="node">
<title>le&#45;parisien&#45;44</title>
<ellipse fill="none" stroke="black" cx="833.57" cy="-142" rx="50.89" ry="18"/>
<text text-anchor="middle" x="833.57" y="-138.3" font-family="Times,serif" font-size="14.00">Le Parisien</text>
</g>
<!-- lvmh&#45;43&#45;&gt;le&#45;parisien&#45;44 -->
<g id="edge15" class="edge">
<title>lvmh&#45;43&#45;&gt;le&#45;parisien&#45;44</title>
<path fill="none" stroke="black" d="M319.52,-190.52C352.65,-186.55 398.9,-181.16 439.58,-177 557.22,-164.98 694.91,-153.26 772.11,-146.89"/>
<polygon fill="black" stroke="black" points="772.33,-150.39 782.01,-146.08 771.75,-143.41 772.33,-150.39"/>
<text text-anchor="middle" x="533.58" y="-180.8" font-family="Times,serif" font-size="14.00">possède 100%</text>
</g>
<!-- le&#45;parisien&#45;economie&#45;46 -->
<g id="node17" class="node">
<title>le&#45;parisien&#45;economie&#45;46</title>
<ellipse fill="none" stroke="black" cx="833.57" cy="-88" rx="87.99" ry="18"/>
<text text-anchor="middle" x="833.57" y="-84.3" font-family="Times,serif" font-size="14.00">Le Parisien économie</text>
</g>
<!-- lvmh&#45;43&#45;&gt;le&#45;parisien&#45;economie&#45;46 -->
<g id="edge16" class="edge">
<title>lvmh&#45;43&#45;&gt;le&#45;parisien&#45;economie&#45;46</title>
<path fill="none" stroke="black" d="M312.14,-180.96C345.15,-168.23 394.86,-150.45 439.58,-140 540.71,-116.37 659.17,-102.53 739.38,-95.15"/>
<polygon fill="black" stroke="black" points="739.29,-98.67 748.93,-94.28 738.66,-91.7 739.29,-98.67"/>
<text text-anchor="middle" x="533.58" y="-143.8" font-family="Times,serif" font-size="14.00">possède 100%</text>
</g>
<!-- le&#45;parisien&#45;week&#45;end&#45;45 -->
<g id="node18" class="node">
<title>le&#45;parisien&#45;week&#45;end&#45;45</title>
<ellipse fill="none" stroke="black" cx="833.57" cy="-34" rx="90.18" ry="18"/>
<text text-anchor="middle" x="833.57" y="-30.3" font-family="Times,serif" font-size="14.00">Le Parisien Week&#45;End</text>
</g>
<!-- lvmh&#45;43&#45;&gt;le&#45;parisien&#45;week&#45;end&#45;45 -->
<g id="edge17" class="edge">
<title>lvmh&#45;43&#45;&gt;le&#45;parisien&#45;week&#45;end&#45;45</title>
<path fill="none" stroke="black" d="M289.41,-181.32C301.61,-169.53 319.83,-153.03 337.58,-141 379.71,-112.46 391.05,-104.29 439.58,-89 537.01,-58.3 653.41,-44.71 734.13,-38.71"/>
<polygon fill="black" stroke="black" points="734.04,-42.23 743.76,-38.02 733.54,-35.25 734.04,-42.23"/>
<text text-anchor="middle" x="533.58" y="-92.8" font-family="Times,serif" font-size="14.00">possède 100%</text>
</g>
<!-- challenges&#45;6 -->
<g id="node6" class="node">
<title>challenges&#45;6</title>
<ellipse fill="none" stroke="black" cx="833.57" cy="-682" rx="50.09" ry="18"/>
<text text-anchor="middle" x="833.57" y="-678.3" font-family="Times,serif" font-size="14.00">Challenges</text>
</g>
<!-- groupe&#45;perdriel&#45;3&#45;&gt;challenges&#45;6 -->
<g id="edge3" class="edge">
<title>groupe&#45;perdriel&#45;3&#45;&gt;challenges&#45;6</title>
<path fill="none" stroke="black" d="M589.93,-638.03C643.24,-647.69 723.46,-662.23 776.88,-671.91"/>
<polygon fill="black" stroke="black" points="776.24,-675.35 786.7,-673.69 777.49,-668.46 776.24,-675.35"/>
<text text-anchor="middle" x="685.07" y="-664.8" font-family="Times,serif" font-size="14.00">possède 100%</text>
</g>
<!-- sciences&#45;and&#45;avenir&#45;7 -->
<g id="node7" class="node">
<title>sciences&#45;and&#45;avenir&#45;7</title>
<ellipse fill="none" stroke="black" cx="833.57" cy="-628" rx="77.19" ry="18"/>
<text text-anchor="middle" x="833.57" y="-624.3" font-family="Times,serif" font-size="14.00">Sciences &amp; Avenir</text>
</g>
<!-- groupe&#45;perdriel&#45;3&#45;&gt;sciences&#45;and&#45;avenir&#45;7 -->
<g id="edge4" class="edge">
<title>groupe&#45;perdriel&#45;3&#45;&gt;sciences&#45;and&#45;avenir&#45;7</title>
<path fill="none" stroke="black" d="M617.59,-628C657.17,-628 704.54,-628 744.73,-628"/>
<polygon fill="black" stroke="black" points="744.62,-631.5 754.62,-628 744.62,-624.5 744.62,-631.5"/>
<text text-anchor="middle" x="685.07" y="-631.8" font-family="Times,serif" font-size="14.00">possède 100%</text>
</g>
<!-- investir&#45;50 -->
<g id="node9" class="node">
<title>investir&#45;50</title>
<ellipse fill="none" stroke="black" cx="833.57" cy="-574" rx="37.89" ry="18"/>
<text text-anchor="middle" x="833.57" y="-570.3" font-family="Times,serif" font-size="14.00">Investir</text>
</g>
<!-- groupe&#45;les&#45;echos&#45;48&#45;&gt;investir&#45;50 -->
<g id="edge7" class="edge">
<title>groupe&#45;les&#45;echos&#45;48&#45;&gt;investir&#45;50</title>
<path fill="none" stroke="black" d="M553.29,-446.64C574.63,-463.96 611.05,-491.94 645.57,-511 682.93,-531.62 694.16,-533.31 734.57,-547 751.99,-552.9 771.45,-558.47 788.42,-563"/>
<polygon fill="black" stroke="black" points="787.14,-566.28 797.7,-565.43 788.92,-559.51 787.14,-566.28"/>
<text text-anchor="middle" x="685.07" y="-546.8" font-family="Times,serif" font-size="14.00">possède 100%</text>
</g>
<!-- investir&#45;magazine&#45;51 -->
<g id="node10" class="node">
<title>investir&#45;magazine&#45;51</title>
<ellipse fill="none" stroke="black" cx="833.57" cy="-520" rx="75.29" ry="18"/>
<text text-anchor="middle" x="833.57" y="-516.3" font-family="Times,serif" font-size="14.00">Investir Magazine</text>
</g>
<!-- groupe&#45;les&#45;echos&#45;48&#45;&gt;investir&#45;magazine&#45;51 -->
<g id="edge8" class="edge">
<title>groupe&#45;les&#45;echos&#45;48&#45;&gt;investir&#45;magazine&#45;51</title>
<path fill="none" stroke="black" d="M569.8,-444.61C591.48,-452.75 619.95,-463.04 645.57,-471 685.95,-483.54 731.86,-495.6 768.09,-504.62"/>
<polygon fill="black" stroke="black" points="766.99,-507.95 777.54,-506.96 768.67,-501.16 766.99,-507.95"/>
<text text-anchor="middle" x="685.07" y="-495.8" font-family="Times,serif" font-size="14.00">possède 100%</text>
</g>
<!-- les&#45;echos&#45;49 -->
<g id="node11" class="node">
<title>les&#45;echos&#45;49</title>
<ellipse fill="none" stroke="black" cx="833.57" cy="-466" rx="47.39" ry="18"/>
<text text-anchor="middle" x="833.57" y="-462.3" font-family="Times,serif" font-size="14.00">Les Échos</text>
</g>
<!-- groupe&#45;les&#45;echos&#45;48&#45;&gt;les&#45;echos&#45;49 -->
<g id="edge9" class="edge">
<title>groupe&#45;les&#45;echos&#45;48&#45;&gt;les&#45;echos&#45;49</title>
<path fill="none" stroke="black" d="M607.86,-439.61C659.91,-445.72 728.77,-453.81 776.48,-459.41"/>
<polygon fill="black" stroke="black" points="775.98,-462.88 786.32,-460.57 776.8,-455.93 775.98,-462.88"/>
<text text-anchor="middle" x="685.07" y="-455.8" font-family="Times,serif" font-size="14.00">possède 100%</text>
</g>
<!-- les&#45;echos&#45;week&#45;end&#45;52 -->
<g id="node12" class="node">
<title>les&#45;echos&#45;week&#45;end&#45;52</title>
<ellipse fill="none" stroke="black" cx="833.57" cy="-412" rx="87.18" ry="18"/>
<text text-anchor="middle" x="833.57" y="-408.3" font-family="Times,serif" font-size="14.00">Les Échos Week&#45;End</text>
</g>
<!-- groupe&#45;les&#45;echos&#45;48&#45;&gt;les&#45;echos&#45;week&#45;end&#45;52 -->
<g id="edge10" class="edge">
<title>groupe&#45;les&#45;echos&#45;48&#45;&gt;les&#45;echos&#45;week&#45;end&#45;52</title>
<path fill="none" stroke="black" d="M627.82,-422.32C633.83,-421.84 639.78,-421.4 645.57,-421 674.91,-418.97 706.88,-417.25 735.94,-415.88"/>
<polygon fill="black" stroke="black" points="736.01,-419.38 745.84,-415.42 735.68,-412.39 736.01,-419.38"/>
<text text-anchor="middle" x="685.07" y="-424.8" font-family="Times,serif" font-size="14.00">possède 100%</text>
</g>
<!-- radio&#45;classique&#45;53 -->
<g id="node13" class="node">
<title>radio&#45;classique&#45;53</title>
<ellipse fill="none" stroke="black" cx="833.57" cy="-358" rx="68.49" ry="18"/>
<text text-anchor="middle" x="833.57" y="-354.3" font-family="Times,serif" font-size="14.00">Radio Classique</text>
</g>
<!-- groupe&#45;les&#45;echos&#45;48&#45;&gt;radio&#45;classique&#45;53 -->
<g id="edge11" class="edge">
<title>groupe&#45;les&#45;echos&#45;48&#45;&gt;radio&#45;classique&#45;53</title>
<path fill="none" stroke="black" d="M580.21,-415.99C600.16,-409.7 623.91,-402.57 645.57,-397 684.99,-386.88 729.59,-377.5 765.34,-370.47"/>
<polygon fill="black" stroke="black" points="765.99,-373.91 775.13,-368.57 764.65,-367.04 765.99,-373.91"/>
<text text-anchor="middle" x="685.07" y="-400.8" font-family="Times,serif" font-size="14.00">possède 100%</text>
</g>
<!-- l&#45;agefi&#45;hebdo&#45;101 -->
<g id="node14" class="node">
<title>l&#45;agefi&#45;hebdo&#45;101</title>
<ellipse fill="none" stroke="black" cx="833.57" cy="-304" rx="62.29" ry="18"/>
<text text-anchor="middle" x="833.57" y="-300.3" font-family="Times,serif" font-size="14.00">L’Agefi hebdo</text>
</g>
<!-- groupe&#45;l&#45;opinion&#45;325&#45;&gt;l&#45;agefi&#45;hebdo&#45;101 -->
<g id="edge13" class="edge">
<title>groupe&#45;l&#45;opinion&#45;325&#45;&gt;l&#45;agefi&#45;hebdo&#45;101</title>
<path fill="none" stroke="black" d="M593.1,-260.6C643.78,-269.79 716.96,-283.05 769.06,-292.49"/>
<polygon fill="black" stroke="black" points="768.21,-295.9 778.68,-294.23 769.46,-289.01 768.21,-295.9"/>
<text text-anchor="middle" x="685.07" y="-286.8" font-family="Times,serif" font-size="14.00">possède 100%</text>
</g>
<!-- l&#45;opinion&#45;8 -->
<g id="node15" class="node">
<title>l&#45;opinion&#45;8</title>
<ellipse fill="none" stroke="black" cx="833.57" cy="-250" rx="47.39" ry="18"/>
<text text-anchor="middle" x="833.57" y="-246.3" font-family="Times,serif" font-size="14.00">L’Opinion</text>
</g>
<!-- groupe&#45;l&#45;opinion&#45;325&#45;&gt;l&#45;opinion&#45;8 -->
<g id="edge14" class="edge">
<title>groupe&#45;l&#45;opinion&#45;325&#45;&gt;l&#45;opinion&#45;8</title>
<path fill="none" stroke="black" d="M627.64,-250C675.71,-250 732.88,-250 774.6,-250"/>
<polygon fill="black" stroke="black" points="774.43,-253.5 784.43,-250 774.43,-246.5 774.43,-253.5"/>
<text text-anchor="middle" x="685.07" y="-253.8" font-family="Times,serif" font-size="14.00">possède 100%</text>
</g>
</g>
</svg>
