<?xml version="1.0" encoding="UTF-8" standalone="no"?>
<!DOCTYPE svg PUBLIC "-//W3C//DTD SVG 1.1//EN"
 "http://www.w3.org/Graphics/SVG/1.1/DTD/svg11.dtd">
<!-- Generated by graphviz version 8.1.0 (20230707.0739)
 -->
<!-- Pages: 1 -->
<svg width="1011pt" height="616pt"
 viewBox="0.00 0.00 1010.50 616.00" xmlns="http://www.w3.org/2000/svg" xmlns:xlink="http://www.w3.org/1999/xlink">
<g id="graph0" class="graph" transform="scale(1 1) rotate(0) translate(4 612)">
<polygon fill="white" stroke="none" points="-4,4 -4,-612 1006.5,-612 1006.5,4 -4,4"/>
<g id="clust2" class="cluster">
<title>clusterLeaves</title>
<polygon fill="none" stroke="black" points="757.06,-8 757.06,-600 994.5,-600 994.5,-8 757.06,-8"/>
</g>
<!-- madison&#45;cox&#45;323 -->
<g id="node1" class="node">
<title>madison&#45;cox&#45;323</title>
<polygon fill="none" stroke="black" points="104.5,-86 0,-86 0,-50 104.5,-50 104.5,-86"/>
<text text-anchor="middle" x="52.25" y="-64.08" font-family="Times,serif" font-size="14.00">🧑‍💼Madison Cox</text>
</g>
<!-- le&#45;monde&#45;libre&#45;14 -->
<g id="node2" class="node">
<title>le&#45;monde&#45;libre&#45;14</title>
<polygon fill="none" stroke="black" points="383.73,-73.56 298.12,-86 212.5,-73.56 212.58,-53.44 383.65,-53.44 383.73,-73.56"/>
<text text-anchor="middle" x="298.12" y="-62.95" font-family="Times,serif" font-size="14.00">Le Monde libre</text>
</g>
<!-- madison&#45;cox&#45;323&#45;&gt;le&#45;monde&#45;libre&#45;14 -->
<g id="edge1" class="edge">
<title>madison&#45;cox&#45;323&#45;&gt;le&#45;monde&#45;libre&#45;14</title>
<path fill="none" stroke="black" d="M104.97,-68C133.1,-68 168.8,-68 201.77,-68"/>
<polygon fill="black" stroke="black" points="201.37,-71.5 211.37,-68 201.37,-64.5 201.37,-71.5"/>
<text text-anchor="middle" x="158.5" y="-71.2" font-family="Times,serif" font-size="14.00">possède 28%</text>
</g>
<!-- le&#45;monde&#45;sa&#45;15 -->
<g id="node3" class="node">
<title>le&#45;monde&#45;sa&#45;15</title>
<polygon fill="none" stroke="black" points="650.31,-309.56 571.02,-322 491.73,-309.56 491.81,-289.44 650.24,-289.44 650.31,-309.56"/>
<text text-anchor="middle" x="571.02" y="-298.95" font-family="Times,serif" font-size="14.00">Le Monde SA</text>
</g>
<!-- le&#45;monde&#45;libre&#45;14&#45;&gt;le&#45;monde&#45;sa&#45;15 -->
<g id="edge3" class="edge">
<title>le&#45;monde&#45;libre&#45;14&#45;&gt;le&#45;monde&#45;sa&#45;15</title>
<path fill="none" stroke="black" d="M316.89,-83.48C363.71,-124.27 490.53,-234.75 544.82,-282.04"/>
<polygon fill="black" stroke="black" points="542.04,-285.14 551.88,-289.07 546.64,-279.86 542.04,-285.14"/>
<text text-anchor="middle" x="437.73" y="-217.2" font-family="Times,serif" font-size="14.00">possède 75%</text>
</g>
<!-- l&#45;obs&#45;16 -->
<g id="node4" class="node">
<title>l&#45;obs&#45;16</title>
<ellipse fill="none" stroke="black" cx="875.78" cy="-34" rx="33.95" ry="18"/>
<text text-anchor="middle" x="875.78" y="-28.95" font-family="Times,serif" font-size="14.00">L’Obs</text>
</g>
<!-- le&#45;monde&#45;libre&#45;14&#45;&gt;l&#45;obs&#45;16 -->
<g id="edge2" class="edge">
<title>le&#45;monde&#45;libre&#45;14&#45;&gt;l&#45;obs&#45;16</title>
<path fill="none" stroke="black" d="M384.06,-62.98C508.33,-55.64 735.27,-42.24 830.68,-36.61"/>
<polygon fill="black" stroke="black" points="830.87,-40.04 840.64,-35.96 830.45,-33.05 830.87,-40.04"/>
<text text-anchor="middle" x="571.02" y="-60.2" font-family="Times,serif" font-size="14.00">possède 99%</text>
</g>
<!-- courrier&#45;international&#45;21 -->
<g id="node5" class="node">
<title>courrier&#45;international&#45;21</title>
<ellipse fill="none" stroke="black" cx="875.78" cy="-574" rx="91.27" ry="18"/>
<text text-anchor="middle" x="875.78" y="-568.95" font-family="Times,serif" font-size="14.00">Courrier international</text>
</g>
<!-- le&#45;monde&#45;sa&#45;15&#45;&gt;courrier&#45;international&#45;21 -->
<g id="edge4" class="edge">
<title>le&#45;monde&#45;sa&#45;15&#45;&gt;courrier&#45;international&#45;21</title>
<path fill="none" stroke="black" d="M574.82,-321.75C582.25,-362.86 606.3,-465.24 668.31,-520 698.14,-546.34 739.28,-560.08 776.99,-567.16"/>
<polygon fill="black" stroke="black" points="776.08,-570.73 786.53,-568.99 777.27,-563.83 776.08,-570.73"/>
<text text-anchor="middle" x="707.69" y="-562.2" font-family="Times,serif" font-size="14.00">possède 100%</text>
</g>
<!-- huffpost&#45;26 -->
<g id="node6" class="node">
<title>huffpost&#45;26</title>
<ellipse fill="none" stroke="black" cx="875.78" cy="-520" rx="44.19" ry="18"/>
<text text-anchor="middle" x="875.78" y="-514.95" font-family="Times,serif" font-size="14.00">HuffPost</text>
</g>
<!-- le&#45;monde&#45;sa&#45;15&#45;&gt;huffpost&#45;26 -->
<g id="edge5" class="edge">
<title>le&#45;monde&#45;sa&#45;15&#45;&gt;huffpost&#45;26</title>
<path fill="none" stroke="black" d="M578.3,-321.36C590.68,-353.23 621.18,-421.35 668.31,-460 711.91,-495.75 775.94,-510.2 821.11,-516.04"/>
<polygon fill="black" stroke="black" points="820.53,-519.62 830.88,-517.32 821.36,-512.67 820.53,-519.62"/>
<text text-anchor="middle" x="707.69" y="-502.2" font-family="Times,serif" font-size="14.00">possède 34%</text>
</g>
<!-- la&#45;vie&#45;23 -->
<g id="node7" class="node">
<title>la&#45;vie&#45;23</title>
<ellipse fill="none" stroke="black" cx="875.78" cy="-466" rx="36" ry="18"/>
<text text-anchor="middle" x="875.78" y="-460.95" font-family="Times,serif" font-size="14.00">La Vie</text>
</g>
<!-- le&#45;monde&#45;sa&#45;15&#45;&gt;la&#45;vie&#45;23 -->
<g id="edge6" class="edge">
<title>le&#45;monde&#45;sa&#45;15&#45;&gt;la&#45;vie&#45;23</title>
<path fill="none" stroke="black" d="M583.67,-320.13C600.25,-342.05 632.62,-381.23 668.31,-405 717.78,-437.95 785.46,-453.5 829.64,-460.56"/>
<polygon fill="black" stroke="black" points="828.93,-464.14 839.34,-462.17 829.98,-457.22 828.93,-464.14"/>
<text text-anchor="middle" x="707.69" y="-442.2" font-family="Times,serif" font-size="14.00">possède 100%</text>
</g>
<!-- le&#45;monde&#45;19 -->
<g id="node8" class="node">
<title>le&#45;monde&#45;19</title>
<ellipse fill="none" stroke="black" cx="875.78" cy="-412" rx="49.82" ry="18"/>
<text text-anchor="middle" x="875.78" y="-406.95" font-family="Times,serif" font-size="14.00">Le Monde</text>
</g>
<!-- le&#45;monde&#45;sa&#45;15&#45;&gt;le&#45;monde&#45;19 -->
<g id="edge7" class="edge">
<title>le&#45;monde&#45;sa&#45;15&#45;&gt;le&#45;monde&#45;19</title>
<path fill="none" stroke="black" d="M594.66,-318.54C613.73,-330.34 642.04,-346.79 668.31,-358 717.69,-379.06 777.31,-393.58 819.76,-402.22"/>
<polygon fill="black" stroke="black" points="818.95,-405.82 829.44,-404.34 820.32,-398.96 818.95,-405.82"/>
<text text-anchor="middle" x="707.69" y="-387.2" font-family="Times,serif" font-size="14.00">possède 100%</text>
</g>
<!-- le&#45;monde&#45;des&#45;religions&#45;22 -->
<g id="node9" class="node">
<title>le&#45;monde&#45;des&#45;religions&#45;22</title>
<ellipse fill="none" stroke="black" cx="875.78" cy="-358" rx="99.46" ry="18"/>
<text text-anchor="middle" x="875.78" y="-352.95" font-family="Times,serif" font-size="14.00">Le Monde des religions</text>
</g>
<!-- le&#45;monde&#45;sa&#45;15&#45;&gt;le&#45;monde&#45;des&#45;religions&#45;22 -->
<g id="edge8" class="edge">
<title>le&#45;monde&#45;sa&#45;15&#45;&gt;le&#45;monde&#45;des&#45;religions&#45;22</title>
<path fill="none" stroke="black" d="M619.42,-314.89C634.96,-318.31 652.34,-321.98 668.31,-325 706.95,-332.29 749.85,-339.32 786.49,-345.01"/>
<polygon fill="black" stroke="black" points="785.73,-348.58 796.15,-346.65 786.8,-341.67 785.73,-348.58"/>
<text text-anchor="middle" x="707.69" y="-340.2" font-family="Times,serif" font-size="14.00">possède 100%</text>
</g>
<!-- le&#45;monde&#45;diplomatique&#45;24 -->
<g id="node10" class="node">
<title>le&#45;monde&#45;diplomatique&#45;24</title>
<ellipse fill="none" stroke="black" cx="875.78" cy="-304" rx="101.51" ry="18"/>
<text text-anchor="middle" x="875.78" y="-298.95" font-family="Times,serif" font-size="14.00">Le Monde diplomatique</text>
</g>
<!-- le&#45;monde&#45;sa&#45;15&#45;&gt;le&#45;monde&#45;diplomatique&#45;24 -->
<g id="edge9" class="edge">
<title>le&#45;monde&#45;sa&#45;15&#45;&gt;le&#45;monde&#45;diplomatique&#45;24</title>
<path fill="none" stroke="black" d="M650.78,-304C684.98,-304 725.67,-304 762.93,-304"/>
<polygon fill="black" stroke="black" points="762.85,-307.5 772.85,-304 762.85,-300.5 762.85,-307.5"/>
<text text-anchor="middle" x="707.69" y="-307.2" font-family="Times,serif" font-size="14.00">possède 51%</text>
</g>
<!-- m&#45;le&#45;magazine&#45;du&#45;monde&#45;18 -->
<g id="node11" class="node">
<title>m&#45;le&#45;magazine&#45;du&#45;monde&#45;18</title>
<ellipse fill="none" stroke="black" cx="875.78" cy="-250" rx="110.72" ry="18"/>
<text text-anchor="middle" x="875.78" y="-244.95" font-family="Times,serif" font-size="14.00">M, le magazine du Monde</text>
</g>
<!-- le&#45;monde&#45;sa&#45;15&#45;&gt;m&#45;le&#45;magazine&#45;du&#45;monde&#45;18 -->
<g id="edge10" class="edge">
<title>le&#45;monde&#45;sa&#45;15&#45;&gt;m&#45;le&#45;magazine&#45;du&#45;monde&#45;18</title>
<path fill="none" stroke="black" d="M640.58,-288.97C649.89,-287.06 659.32,-285.18 668.31,-283.5 705.67,-276.5 746.99,-269.62 782.8,-263.94"/>
<polygon fill="black" stroke="black" points="782.9,-267.31 792.23,-262.29 781.81,-260.39 782.9,-267.31"/>
<text text-anchor="middle" x="707.69" y="-286.2" font-family="Times,serif" font-size="14.00">possède 100%</text>
</g>
<!-- maniere&#45;de&#45;voir&#45;25 -->
<g id="node12" class="node">
<title>maniere&#45;de&#45;voir&#45;25</title>
<ellipse fill="none" stroke="black" cx="875.78" cy="-196" rx="70.8" ry="18"/>
<text text-anchor="middle" x="875.78" y="-190.95" font-family="Times,serif" font-size="14.00">Manière de voir</text>
</g>
<!-- le&#45;monde&#45;sa&#45;15&#45;&gt;maniere&#45;de&#45;voir&#45;25 -->
<g id="edge11" class="edge">
<title>le&#45;monde&#45;sa&#45;15&#45;&gt;maniere&#45;de&#45;voir&#45;25</title>
<path fill="none" stroke="black" d="M595.01,-289.03C614.06,-277.11 642.15,-260.64 668.31,-249.5 712.56,-230.65 765.06,-217.16 806.05,-208.44"/>
<polygon fill="black" stroke="black" points="806.67,-211.68 815.75,-206.21 805.25,-204.82 806.67,-211.68"/>
<text text-anchor="middle" x="707.69" y="-252.2" font-family="Times,serif" font-size="14.00">possède 51%</text>
</g>
<!-- prier&#45;17 -->
<g id="node13" class="node">
<title>prier&#45;17</title>
<ellipse fill="none" stroke="black" cx="875.78" cy="-142" rx="28.83" ry="18"/>
<text text-anchor="middle" x="875.78" y="-136.95" font-family="Times,serif" font-size="14.00">Prier</text>
</g>
<!-- le&#45;monde&#45;sa&#45;15&#45;&gt;prier&#45;17 -->
<g id="edge12" class="edge">
<title>le&#45;monde&#45;sa&#45;15&#45;&gt;prier&#45;17</title>
<path fill="none" stroke="black" d="M582.54,-289.23C598.72,-267.49 631.69,-226.83 668.31,-202.5 720.26,-167.99 792.27,-152.76 836.08,-146.34"/>
<polygon fill="black" stroke="black" points="836.42,-149.69 845.85,-144.86 835.47,-142.76 836.42,-149.69"/>
<text text-anchor="middle" x="707.69" y="-205.2" font-family="Times,serif" font-size="14.00">possède 100%</text>
</g>
<!-- telerama&#45;20 -->
<g id="node14" class="node">
<title>telerama&#45;20</title>
<ellipse fill="none" stroke="black" cx="875.78" cy="-88" rx="46.23" ry="18"/>
<text text-anchor="middle" x="875.78" y="-82.95" font-family="Times,serif" font-size="14.00">Télérama</text>
</g>
<!-- le&#45;monde&#45;sa&#45;15&#45;&gt;telerama&#45;20 -->
<g id="edge13" class="edge">
<title>le&#45;monde&#45;sa&#45;15&#45;&gt;telerama&#45;20</title>
<path fill="none" stroke="black" d="M577.19,-289.1C588.69,-258.1 619.28,-186.28 668.31,-146.5 711.35,-111.59 774.07,-97.5 819.08,-91.82"/>
<polygon fill="black" stroke="black" points="819.3,-95.2 828.83,-90.58 818.49,-88.25 819.3,-95.2"/>
<text text-anchor="middle" x="707.69" y="-149.2" font-family="Times,serif" font-size="14.00">possède 100%</text>
</g>
</g>
</svg>
