<?xml version="1.0" encoding="UTF-8" standalone="no"?>
<!DOCTYPE svg PUBLIC "-//W3C//DTD SVG 1.1//EN"
 "http://www.w3.org/Graphics/SVG/1.1/DTD/svg11.dtd">
<!-- Generated by graphviz version 7.1.0 (20230121.1956)
 -->
<!-- Pages: 1 -->
<svg width="990pt" height="616pt"
 viewBox="0.00 0.00 990.41 616.00" xmlns="http://www.w3.org/2000/svg" xmlns:xlink="http://www.w3.org/1999/xlink">
<g id="graph0" class="graph" transform="scale(1 1) rotate(0) translate(4 612)">
<polygon fill="white" stroke="none" points="-4,4 -4,-612 986.41,-612 986.41,4 -4,4"/>
<g id="clust2" class="cluster">
<title>clusterLeaves</title>
<polygon fill="none" stroke="black" points="746.53,-8 746.53,-600 974.41,-600 974.41,-8 746.53,-8"/>
</g>
<!-- madison&#45;cox&#45;323 -->
<g id="node1" class="node">
<title>madison&#45;cox&#45;323</title>
<polygon fill="none" stroke="black" points="105,-87 0,-87 0,-51 105,-51 105,-87"/>
<text text-anchor="middle" x="52.5" y="-65.3" font-family="Times,serif" font-size="14.00">🧑‍💼Madison Cox</text>
</g>
<!-- le&#45;monde&#45;libre&#45;14 -->
<g id="node2" class="node">
<title>le&#45;monde&#45;libre&#45;14</title>
<polygon fill="none" stroke="black" points="377.83,-74.56 295.94,-87 214.06,-74.56 214.13,-54.44 377.76,-54.44 377.83,-74.56"/>
<text text-anchor="middle" x="295.94" y="-65.3" font-family="Times,serif" font-size="14.00">Le Monde libre</text>
</g>
<!-- madison&#45;cox&#45;323&#45;&gt;le&#45;monde&#45;libre&#45;14 -->
<g id="edge1" class="edge">
<title>madison&#45;cox&#45;323&#45;&gt;le&#45;monde&#45;libre&#45;14</title>
<path fill="none" stroke="black" d="M105.3,-69C133.56,-69 169.39,-69 202.29,-69"/>
<polygon fill="black" stroke="black" points="202.27,-72.5 212.27,-69 202.27,-65.5 202.27,-72.5"/>
<text text-anchor="middle" x="159.5" y="-72.8" font-family="Times,serif" font-size="14.00">possède 28%</text>
</g>
<!-- le&#45;monde&#45;sa&#45;15 -->
<g id="node3" class="node">
<title>le&#45;monde&#45;sa&#45;15</title>
<polygon fill="none" stroke="black" points="639.35,-309.56 563.21,-322 487.07,-309.56 487.14,-289.44 639.28,-289.44 639.35,-309.56"/>
<text text-anchor="middle" x="563.21" y="-300.3" font-family="Times,serif" font-size="14.00">Le Monde SA</text>
</g>
<!-- le&#45;monde&#45;libre&#45;14&#45;&gt;le&#45;monde&#45;sa&#45;15 -->
<g id="edge3" class="edge">
<title>le&#45;monde&#45;libre&#45;14&#45;&gt;le&#45;monde&#45;sa&#45;15</title>
<path fill="none" stroke="black" d="M314.35,-84.42C360,-124.86 483.36,-234.14 536.87,-281.55"/>
<polygon fill="black" stroke="black" points="534.49,-284.12 544.29,-288.13 539.13,-278.88 534.49,-284.12"/>
<text text-anchor="middle" x="432.39" y="-224.8" font-family="Times,serif" font-size="14.00">possède 75%</text>
</g>
<!-- l&#45;obs&#45;16 -->
<g id="node4" class="node">
<title>l&#45;obs&#45;16</title>
<ellipse fill="none" stroke="black" cx="860.47" cy="-34" rx="32.49" ry="18"/>
<text text-anchor="middle" x="860.47" y="-30.3" font-family="Times,serif" font-size="14.00">L’Obs</text>
</g>
<!-- le&#45;monde&#45;libre&#45;14&#45;&gt;l&#45;obs&#45;16 -->
<g id="edge2" class="edge">
<title>le&#45;monde&#45;libre&#45;14&#45;&gt;l&#45;obs&#45;16</title>
<path fill="none" stroke="black" d="M378.14,-63.95C499.23,-56.41 722.89,-42.5 816.5,-36.67"/>
<polygon fill="black" stroke="black" points="816.51,-40.18 826.27,-36.07 816.07,-33.19 816.51,-40.18"/>
<text text-anchor="middle" x="563.21" y="-60.8" font-family="Times,serif" font-size="14.00">possède 99%</text>
</g>
<!-- courrier&#45;international&#45;21 -->
<g id="node5" class="node">
<title>courrier&#45;international&#45;21</title>
<ellipse fill="none" stroke="black" cx="860.47" cy="-574" rx="87.18" ry="18"/>
<text text-anchor="middle" x="860.47" y="-570.3" font-family="Times,serif" font-size="14.00">Courrier international</text>
</g>
<!-- le&#45;monde&#45;sa&#45;15&#45;&gt;courrier&#45;international&#45;21 -->
<g id="edge4" class="edge">
<title>le&#45;monde&#45;sa&#45;15&#45;&gt;courrier&#45;international&#45;21</title>
<path fill="none" stroke="black" d="M567.11,-321.86C574.6,-362.24 598.3,-461.3 657.53,-516 687.22,-543.42 729.05,-557.97 766.94,-565.66"/>
<polygon fill="black" stroke="black" points="766.07,-569.05 776.54,-567.46 767.36,-562.17 766.07,-569.05"/>
<text text-anchor="middle" x="697.03" y="-559.8" font-family="Times,serif" font-size="14.00">possède 100%</text>
</g>
<!-- huffpost&#45;26 -->
<g id="node6" class="node">
<title>huffpost&#45;26</title>
<ellipse fill="none" stroke="black" cx="860.47" cy="-520" rx="42.49" ry="18"/>
<text text-anchor="middle" x="860.47" y="-516.3" font-family="Times,serif" font-size="14.00">HuffPost</text>
</g>
<!-- le&#45;monde&#45;sa&#45;15&#45;&gt;huffpost&#45;26 -->
<g id="edge5" class="edge">
<title>le&#45;monde&#45;sa&#45;15&#45;&gt;huffpost&#45;26</title>
<path fill="none" stroke="black" d="M570.44,-321.14C582.57,-352.3 612.22,-418.55 657.53,-457 699.94,-492.99 762.86,-508.45 807.17,-515.07"/>
<polygon fill="black" stroke="black" points="806.69,-518.54 817.07,-516.43 807.65,-511.6 806.69,-518.54"/>
<text text-anchor="middle" x="697.03" y="-500.8" font-family="Times,serif" font-size="14.00">possède 34%</text>
</g>
<!-- la&#45;vie&#45;23 -->
<g id="node7" class="node">
<title>la&#45;vie&#45;23</title>
<ellipse fill="none" stroke="black" cx="860.47" cy="-466" rx="34.39" ry="18"/>
<text text-anchor="middle" x="860.47" y="-462.3" font-family="Times,serif" font-size="14.00">La Vie</text>
</g>
<!-- le&#45;monde&#45;sa&#45;15&#45;&gt;la&#45;vie&#45;23 -->
<g id="edge6" class="edge">
<title>le&#45;monde&#45;sa&#45;15&#45;&gt;la&#45;vie&#45;23</title>
<path fill="none" stroke="black" d="M576.22,-320.01C592.62,-340.97 623.87,-377.77 657.53,-401 705.84,-434.35 772.27,-451.37 815.54,-459.46"/>
<polygon fill="black" stroke="black" points="814.87,-462.9 825.33,-461.21 816.1,-456.01 814.87,-462.9"/>
<text text-anchor="middle" x="697.03" y="-441.8" font-family="Times,serif" font-size="14.00">possède 100%</text>
</g>
<!-- le&#45;monde&#45;19 -->
<g id="node8" class="node">
<title>le&#45;monde&#45;19</title>
<ellipse fill="none" stroke="black" cx="860.47" cy="-412" rx="48.19" ry="18"/>
<text text-anchor="middle" x="860.47" y="-408.3" font-family="Times,serif" font-size="14.00">Le Monde</text>
</g>
<!-- le&#45;monde&#45;sa&#45;15&#45;&gt;le&#45;monde&#45;19 -->
<g id="edge7" class="edge">
<title>le&#45;monde&#45;sa&#45;15&#45;&gt;le&#45;monde&#45;19</title>
<path fill="none" stroke="black" d="M587.35,-318.55C605.85,-329.77 632.71,-345.16 657.53,-356 705.84,-377.09 764.14,-392.25 805.66,-401.43"/>
<polygon fill="black" stroke="black" points="804.91,-404.85 815.42,-403.54 806.39,-398.01 804.91,-404.85"/>
<text text-anchor="middle" x="697.03" y="-385.8" font-family="Times,serif" font-size="14.00">possède 100%</text>
</g>
<!-- le&#45;monde&#45;des&#45;religions&#45;22 -->
<g id="node9" class="node">
<title>le&#45;monde&#45;des&#45;religions&#45;22</title>
<ellipse fill="none" stroke="black" cx="860.47" cy="-358" rx="94.78" ry="18"/>
<text text-anchor="middle" x="860.47" y="-354.3" font-family="Times,serif" font-size="14.00">Le Monde des religions</text>
</g>
<!-- le&#45;monde&#45;sa&#45;15&#45;&gt;le&#45;monde&#45;des&#45;religions&#45;22 -->
<g id="edge8" class="edge">
<title>le&#45;monde&#45;sa&#45;15&#45;&gt;le&#45;monde&#45;des&#45;religions&#45;22</title>
<path fill="none" stroke="black" d="M613.07,-314.23C627.38,-317.15 643.07,-320.28 657.53,-323 696.66,-330.37 740.18,-337.99 776.76,-344.23"/>
<polygon fill="black" stroke="black" points="775.94,-347.64 786.39,-345.86 777.12,-340.74 775.94,-347.64"/>
<text text-anchor="middle" x="697.03" y="-340.8" font-family="Times,serif" font-size="14.00">possède 100%</text>
</g>
<!-- le&#45;monde&#45;diplomatique&#45;24 -->
<g id="node10" class="node">
<title>le&#45;monde&#45;diplomatique&#45;24</title>
<ellipse fill="none" stroke="black" cx="860.47" cy="-304" rx="96.68" ry="18"/>
<text text-anchor="middle" x="860.47" y="-300.3" font-family="Times,serif" font-size="14.00">Le Monde diplomatique</text>
</g>
<!-- le&#45;monde&#45;sa&#45;15&#45;&gt;le&#45;monde&#45;diplomatique&#45;24 -->
<g id="edge9" class="edge">
<title>le&#45;monde&#45;sa&#45;15&#45;&gt;le&#45;monde&#45;diplomatique&#45;24</title>
<path fill="none" stroke="black" d="M639.48,-304C673.62,-304 714.62,-304 751.93,-304"/>
<polygon fill="black" stroke="black" points="751.86,-307.5 761.86,-304 751.86,-300.5 751.86,-307.5"/>
<text text-anchor="middle" x="697.03" y="-307.8" font-family="Times,serif" font-size="14.00">possède 51%</text>
</g>
<!-- m&#45;le&#45;magazine&#45;du&#45;monde&#45;18 -->
<g id="node11" class="node">
<title>m&#45;le&#45;magazine&#45;du&#45;monde&#45;18</title>
<ellipse fill="none" stroke="black" cx="860.47" cy="-250" rx="105.88" ry="18"/>
<text text-anchor="middle" x="860.47" y="-246.3" font-family="Times,serif" font-size="14.00">M, le magazine du Monde</text>
</g>
<!-- le&#45;monde&#45;sa&#45;15&#45;&gt;m&#45;le&#45;magazine&#45;du&#45;monde&#45;18 -->
<g id="edge10" class="edge">
<title>le&#45;monde&#45;sa&#45;15&#45;&gt;m&#45;le&#45;magazine&#45;du&#45;monde&#45;18</title>
<path fill="none" stroke="black" d="M637.02,-288.96C643.95,-287.6 650.87,-286.26 657.53,-285 694.92,-277.96 736.3,-270.69 771.83,-264.62"/>
<polygon fill="black" stroke="black" points="772.38,-268.07 781.65,-262.94 771.2,-261.17 772.38,-268.07"/>
<text text-anchor="middle" x="697.03" y="-288.8" font-family="Times,serif" font-size="14.00">possède 100%</text>
</g>
<!-- maniere&#45;de&#45;voir&#45;25 -->
<g id="node12" class="node">
<title>maniere&#45;de&#45;voir&#45;25</title>
<ellipse fill="none" stroke="black" cx="860.47" cy="-196" rx="67.69" ry="18"/>
<text text-anchor="middle" x="860.47" y="-192.3" font-family="Times,serif" font-size="14.00">Manière de voir</text>
</g>
<!-- le&#45;monde&#45;sa&#45;15&#45;&gt;maniere&#45;de&#45;voir&#45;25 -->
<g id="edge11" class="edge">
<title>le&#45;monde&#45;sa&#45;15&#45;&gt;maniere&#45;de&#45;voir&#45;25</title>
<path fill="none" stroke="black" d="M587.28,-289.07C605.74,-277.57 632.59,-261.86 657.53,-251 701.23,-231.97 753.16,-218 793.42,-208.91"/>
<polygon fill="black" stroke="black" points="793.96,-212.37 802.97,-206.8 792.45,-205.54 793.96,-212.37"/>
<text text-anchor="middle" x="697.03" y="-254.8" font-family="Times,serif" font-size="14.00">possède 51%</text>
</g>
<!-- prier&#45;17 -->
<g id="node13" class="node">
<title>prier&#45;17</title>
<ellipse fill="none" stroke="black" cx="860.47" cy="-142" rx="27.9" ry="18"/>
<text text-anchor="middle" x="860.47" y="-138.3" font-family="Times,serif" font-size="14.00">Prier</text>
</g>
<!-- le&#45;monde&#45;sa&#45;15&#45;&gt;prier&#45;17 -->
<g id="edge12" class="edge">
<title>le&#45;monde&#45;sa&#45;15&#45;&gt;prier&#45;17</title>
<path fill="none" stroke="black" d="M574.98,-288.99C590.91,-267.76 622.63,-228.86 657.53,-205 708.1,-170.43 778.51,-154.16 821.43,-147.02"/>
<polygon fill="black" stroke="black" points="821.94,-150.49 831.28,-145.48 820.86,-143.57 821.94,-150.49"/>
<text text-anchor="middle" x="697.03" y="-208.8" font-family="Times,serif" font-size="14.00">possède 100%</text>
</g>
<!-- telerama&#45;20 -->
<g id="node14" class="node">
<title>telerama&#45;20</title>
<ellipse fill="none" stroke="black" cx="860.47" cy="-88" rx="44.39" ry="18"/>
<text text-anchor="middle" x="860.47" y="-84.3" font-family="Times,serif" font-size="14.00">Télérama</text>
</g>
<!-- le&#45;monde&#45;sa&#45;15&#45;&gt;telerama&#45;20 -->
<g id="edge13" class="edge">
<title>le&#45;monde&#45;sa&#45;15&#45;&gt;telerama&#45;20</title>
<path fill="none" stroke="black" d="M569.17,-289.29C580.23,-258.7 609.71,-187.74 657.53,-148 699.36,-113.24 760.74,-98.62 804.83,-92.46"/>
<polygon fill="black" stroke="black" points="805.24,-95.94 814.71,-91.2 804.35,-89 805.24,-95.94"/>
<text text-anchor="middle" x="697.03" y="-151.8" font-family="Times,serif" font-size="14.00">possède 100%</text>
</g>
</g>
</svg>
