<?xml version="1.0" encoding="UTF-8" standalone="no"?>
<!DOCTYPE svg PUBLIC "-//W3C//DTD SVG 1.1//EN"
 "http://www.w3.org/Graphics/SVG/1.1/DTD/svg11.dtd">
<!-- Generated by graphviz version 8.1.0 (20230707.0739)
 -->
<!-- Pages: 1 -->
<svg width="943pt" height="292pt"
 viewBox="0.00 0.00 942.99 292.00" xmlns="http://www.w3.org/2000/svg" xmlns:xlink="http://www.w3.org/1999/xlink">
<g id="graph0" class="graph" transform="scale(1 1) rotate(0) translate(4 288)">
<polygon fill="white" stroke="none" points="-4,4 -4,-288 938.99,-288 938.99,4 -4,4"/>
<g id="clust2" class="cluster">
<title>clusterLeaves</title>
<polygon fill="none" stroke="black" points="760.18,-8 760.18,-276 926.99,-276 926.99,-8 760.18,-8"/>
</g>
<!-- martin&#45;et&#45;olivier&#45;bouygues&#45;120 -->
<g id="node1" class="node">
<title>martin&#45;et&#45;olivier&#45;bouygues&#45;120</title>
<polygon fill="none" stroke="black" points="181,-160 0,-160 0,-124 181,-124 181,-160"/>
<text text-anchor="middle" x="90.5" y="-138.07" font-family="Times,serif" font-size="14.00">🧑‍💼Martin et Olivier Bouygues</text>
</g>
<!-- bouygues&#45;121 -->
<g id="node2" class="node">
<title>bouygues&#45;121</title>
<polygon fill="none" stroke="black" points="407.09,-147.56 348.05,-160 289,-147.56 289.06,-127.44 407.04,-127.44 407.09,-147.56"/>
<text text-anchor="middle" x="348.05" y="-136.95" font-family="Times,serif" font-size="14.00">Bouygues</text>
</g>
<!-- martin&#45;et&#45;olivier&#45;bouygues&#45;120&#45;&gt;bouygues&#45;121 -->
<g id="edge1" class="edge">
<title>martin&#45;et&#45;olivier&#45;bouygues&#45;120&#45;&gt;bouygues&#45;121</title>
<path fill="none" stroke="black" d="M181.24,-142C213,-142 248.22,-142 278,-142"/>
<polygon fill="black" stroke="black" points="277.7,-145.5 287.7,-142 277.7,-138.5 277.7,-145.5"/>
<text text-anchor="middle" x="235" y="-145.2" font-family="Times,serif" font-size="14.00">possède 20%</text>
</g>
<!-- groupe&#45;tf1&#45;122 -->
<g id="node3" class="node">
<title>groupe&#45;tf1&#45;122</title>
<polygon fill="none" stroke="black" points="653.43,-147.56 584.26,-160 515.09,-147.56 515.16,-127.44 653.36,-127.44 653.43,-147.56"/>
<text text-anchor="middle" x="584.26" y="-136.95" font-family="Times,serif" font-size="14.00">Groupe TF1</text>
</g>
<!-- bouygues&#45;121&#45;&gt;groupe&#45;tf1&#45;122 -->
<g id="edge2" class="edge">
<title>bouygues&#45;121&#45;&gt;groupe&#45;tf1&#45;122</title>
<path fill="none" stroke="black" d="M407.54,-142C436.63,-142 472.22,-142 503.74,-142"/>
<polygon fill="black" stroke="black" points="503.71,-145.5 513.71,-142 503.71,-138.5 503.71,-145.5"/>
<text text-anchor="middle" x="461.09" y="-145.2" font-family="Times,serif" font-size="14.00">possède 44%</text>
</g>
<!-- lci&#45;125 -->
<g id="node4" class="node">
<title>lci&#45;125</title>
<ellipse fill="none" stroke="black" cx="843.58" cy="-250" rx="27" ry="18"/>
<text text-anchor="middle" x="843.58" y="-244.95" font-family="Times,serif" font-size="14.00">LCI</text>
</g>
<!-- groupe&#45;tf1&#45;122&#45;&gt;lci&#45;125 -->
<g id="edge3" class="edge">
<title>groupe&#45;tf1&#45;122&#45;&gt;lci&#45;125</title>
<path fill="none" stroke="black" d="M604.14,-156.87C620.98,-169.53 646.72,-187.46 671.43,-199 716.23,-219.93 771.65,-234.58 807.06,-242.65"/>
<polygon fill="black" stroke="black" points="805.85,-246.18 816.37,-244.94 807.37,-239.35 805.85,-246.18"/>
<text text-anchor="middle" x="710.8" y="-230.2" font-family="Times,serif" font-size="14.00">possède 100%</text>
</g>
<!-- tf1&#45;123 -->
<g id="node5" class="node">
<title>tf1&#45;123</title>
<ellipse fill="none" stroke="black" cx="843.58" cy="-196" rx="27" ry="18"/>
<text text-anchor="middle" x="843.58" y="-190.95" font-family="Times,serif" font-size="14.00">TF1</text>
</g>
<!-- groupe&#45;tf1&#45;122&#45;&gt;tf1&#45;123 -->
<g id="edge4" class="edge">
<title>groupe&#45;tf1&#45;122&#45;&gt;tf1&#45;123</title>
<path fill="none" stroke="black" d="M627.24,-152.66C641.26,-156.11 656.98,-159.85 671.43,-163 717.85,-173.13 771.71,-183.24 806.42,-189.56"/>
<polygon fill="black" stroke="black" points="805.52,-193.13 815.99,-191.47 806.77,-186.24 805.52,-193.13"/>
<text text-anchor="middle" x="710.8" y="-181.2" font-family="Times,serif" font-size="14.00">possède 100%</text>
</g>
<!-- tf1&#45;series&#45;films&#45;126 -->
<g id="node6" class="node">
<title>tf1&#45;series&#45;films&#45;126</title>
<ellipse fill="none" stroke="black" cx="843.58" cy="-142" rx="75.41" ry="18"/>
<text text-anchor="middle" x="843.58" y="-136.95" font-family="Times,serif" font-size="14.00">TF1 Séries Films</text>
</g>
<!-- groupe&#45;tf1&#45;122&#45;&gt;tf1&#45;series&#45;films&#45;126 -->
<g id="edge5" class="edge">
<title>groupe&#45;tf1&#45;122&#45;&gt;tf1&#45;series&#45;films&#45;126</title>
<path fill="none" stroke="black" d="M653.88,-142C685.58,-142 723.56,-142 757.1,-142"/>
<polygon fill="black" stroke="black" points="756.83,-145.5 766.83,-142 756.83,-138.5 756.83,-145.5"/>
<text text-anchor="middle" x="710.8" y="-145.2" font-family="Times,serif" font-size="14.00">possède 100%</text>
</g>
<!-- tfx&#45;124 -->
<g id="node7" class="node">
<title>tfx&#45;124</title>
<ellipse fill="none" stroke="black" cx="843.58" cy="-88" rx="28.32" ry="18"/>
<text text-anchor="middle" x="843.58" y="-82.95" font-family="Times,serif" font-size="14.00">TFX</text>
</g>
<!-- groupe&#45;tf1&#45;122&#45;&gt;tfx&#45;124 -->
<g id="edge6" class="edge">
<title>groupe&#45;tf1&#45;122&#45;&gt;tfx&#45;124</title>
<path fill="none" stroke="black" d="M646.85,-127.03C655.1,-125.12 663.46,-123.23 671.43,-121.5 717.35,-111.55 770.5,-101.35 805.23,-94.86"/>
<polygon fill="black" stroke="black" points="805.64,-98.16 814.83,-92.89 804.36,-91.28 805.64,-98.16"/>
<text text-anchor="middle" x="710.8" y="-124.2" font-family="Times,serif" font-size="14.00">possède 100%</text>
</g>
<!-- tmc&#45;127 -->
<g id="node8" class="node">
<title>tmc&#45;127</title>
<ellipse fill="none" stroke="black" cx="843.58" cy="-34" rx="31.39" ry="18"/>
<text text-anchor="middle" x="843.58" y="-28.95" font-family="Times,serif" font-size="14.00">TMC</text>
</g>
<!-- groupe&#45;tf1&#45;122&#45;&gt;tmc&#45;127 -->
<g id="edge7" class="edge">
<title>groupe&#45;tf1&#45;122&#45;&gt;tmc&#45;127</title>
<path fill="none" stroke="black" d="M604.5,-127.04C621.36,-114.52 646.94,-96.92 671.43,-85.5 714.63,-65.36 767.61,-50.84 803.08,-42.46"/>
<polygon fill="black" stroke="black" points="803.54,-45.71 812.49,-40.05 801.96,-38.89 803.54,-45.71"/>
<text text-anchor="middle" x="710.8" y="-88.2" font-family="Times,serif" font-size="14.00">possède 100%</text>
</g>
</g>
</svg>
