<?xml version="1.0" encoding="UTF-8" standalone="no"?>
<!DOCTYPE svg PUBLIC "-//W3C//DTD SVG 1.1//EN"
 "http://www.w3.org/Graphics/SVG/1.1/DTD/svg11.dtd">
<!-- Generated by graphviz version 7.1.0 (20230121.1956)
 -->
<!-- Pages: 1 -->
<svg width="931pt" height="292pt"
 viewBox="0.00 0.00 930.73 292.00" xmlns="http://www.w3.org/2000/svg" xmlns:xlink="http://www.w3.org/1999/xlink">
<g id="graph0" class="graph" transform="scale(1 1) rotate(0) translate(4 288)">
<polygon fill="white" stroke="none" points="-4,4 -4,-288 926.73,-288 926.73,4 -4,4"/>
<g id="clust2" class="cluster">
<title>clusterLeaves</title>
<polygon fill="none" stroke="black" points="754.44,-8 754.44,-276 914.73,-276 914.73,-8 754.44,-8"/>
</g>
<!-- martin&#45;et&#45;olivier&#45;bouygues&#45;120 -->
<g id="node1" class="node">
<title>martin&#45;et&#45;olivier&#45;bouygues&#45;120</title>
<polygon fill="none" stroke="black" points="182,-160 0,-160 0,-124 182,-124 182,-160"/>
<text text-anchor="middle" x="91" y="-138.3" font-family="Times,serif" font-size="14.00">🧑‍💼Martin et Olivier Bouygues</text>
</g>
<!-- bouygues&#45;121 -->
<g id="node2" class="node">
<title>bouygues&#45;121</title>
<polygon fill="none" stroke="black" points="405.12,-147.56 348.04,-160 290.96,-147.56 291.01,-127.44 405.07,-127.44 405.12,-147.56"/>
<text text-anchor="middle" x="348.04" y="-138.3" font-family="Times,serif" font-size="14.00">Bouygues</text>
</g>
<!-- martin&#45;et&#45;olivier&#45;bouygues&#45;120&#45;&gt;bouygues&#45;121 -->
<g id="edge1" class="edge">
<title>martin&#45;et&#45;olivier&#45;bouygues&#45;120&#45;&gt;bouygues&#45;121</title>
<path fill="none" stroke="black" d="M182.28,-142C214.3,-142 249.75,-142 279.54,-142"/>
<polygon fill="black" stroke="black" points="279.15,-145.5 289.15,-142 279.15,-138.5 279.15,-145.5"/>
<text text-anchor="middle" x="236.5" y="-145.8" font-family="Times,serif" font-size="14.00">possède 20%</text>
</g>
<!-- groupe&#45;tf1&#45;122 -->
<g id="node3" class="node">
<title>groupe&#45;tf1&#45;122</title>
<polygon fill="none" stroke="black" points="647.62,-147.56 580.76,-160 513.9,-147.56 513.96,-127.44 647.56,-127.44 647.62,-147.56"/>
<text text-anchor="middle" x="580.76" y="-138.3" font-family="Times,serif" font-size="14.00">Groupe TF1</text>
</g>
<!-- bouygues&#45;121&#45;&gt;groupe&#45;tf1&#45;122 -->
<g id="edge2" class="edge">
<title>bouygues&#45;121&#45;&gt;groupe&#45;tf1&#45;122</title>
<path fill="none" stroke="black" d="M405.48,-142C434.59,-142 470.54,-142 502.22,-142"/>
<polygon fill="black" stroke="black" points="502.16,-145.5 512.16,-142 502.16,-138.5 502.16,-145.5"/>
<text text-anchor="middle" x="459.58" y="-145.8" font-family="Times,serif" font-size="14.00">possède 44%</text>
</g>
<!-- lci&#45;125 -->
<g id="node4" class="node">
<title>lci&#45;125</title>
<ellipse fill="none" stroke="black" cx="834.58" cy="-250" rx="27" ry="18"/>
<text text-anchor="middle" x="834.58" y="-246.3" font-family="Times,serif" font-size="14.00">LCI</text>
</g>
<!-- groupe&#45;tf1&#45;122&#45;&gt;lci&#45;125 -->
<g id="edge3" class="edge">
<title>groupe&#45;tf1&#45;122&#45;&gt;lci&#45;125</title>
<path fill="none" stroke="black" d="M601.19,-156.64C617.62,-168.5 642.15,-184.98 665.44,-196 709.14,-216.68 762.79,-232.37 797.56,-241.37"/>
<polygon fill="black" stroke="black" points="796.57,-244.73 807.12,-243.79 798.29,-237.94 796.57,-244.73"/>
<text text-anchor="middle" x="704.94" y="-228.8" font-family="Times,serif" font-size="14.00">possède 100%</text>
</g>
<!-- tf1&#45;123 -->
<g id="node5" class="node">
<title>tf1&#45;123</title>
<ellipse fill="none" stroke="black" cx="834.58" cy="-196" rx="27" ry="18"/>
<text text-anchor="middle" x="834.58" y="-192.3" font-family="Times,serif" font-size="14.00">TF1</text>
</g>
<!-- groupe&#45;tf1&#45;122&#45;&gt;tf1&#45;123 -->
<g id="edge4" class="edge">
<title>groupe&#45;tf1&#45;122&#45;&gt;tf1&#45;123</title>
<path fill="none" stroke="black" d="M625.59,-152.11C638.42,-155.03 652.48,-158.18 665.44,-161 710.66,-170.84 762.85,-181.61 796.94,-188.57"/>
<polygon fill="black" stroke="black" points="796.22,-192 806.72,-190.56 797.62,-185.14 796.22,-192"/>
<text text-anchor="middle" x="704.94" y="-180.8" font-family="Times,serif" font-size="14.00">possède 100%</text>
</g>
<!-- tf1&#45;series&#45;films&#45;126 -->
<g id="node6" class="node">
<title>tf1&#45;series&#45;films&#45;126</title>
<ellipse fill="none" stroke="black" cx="834.58" cy="-142" rx="72.29" ry="18"/>
<text text-anchor="middle" x="834.58" y="-138.3" font-family="Times,serif" font-size="14.00">TF1 Séries Films</text>
</g>
<!-- groupe&#45;tf1&#45;122&#45;&gt;tf1&#45;series&#45;films&#45;126 -->
<g id="edge5" class="edge">
<title>groupe&#45;tf1&#45;122&#45;&gt;tf1&#45;series&#45;films&#45;126</title>
<path fill="none" stroke="black" d="M647.92,-142C679.48,-142 717.54,-142 750.98,-142"/>
<polygon fill="black" stroke="black" points="750.61,-145.5 760.61,-142 750.61,-138.5 750.61,-145.5"/>
<text text-anchor="middle" x="704.94" y="-145.8" font-family="Times,serif" font-size="14.00">possède 100%</text>
</g>
<!-- tfx&#45;124 -->
<g id="node7" class="node">
<title>tfx&#45;124</title>
<ellipse fill="none" stroke="black" cx="834.58" cy="-88" rx="27.1" ry="18"/>
<text text-anchor="middle" x="834.58" y="-84.3" font-family="Times,serif" font-size="14.00">TFX</text>
</g>
<!-- groupe&#45;tf1&#45;122&#45;&gt;tfx&#45;124 -->
<g id="edge6" class="edge">
<title>groupe&#45;tf1&#45;122&#45;&gt;tfx&#45;124</title>
<path fill="none" stroke="black" d="M647.51,-126.95C653.57,-125.6 659.62,-124.27 665.44,-123 710.66,-113.16 762.85,-102.39 796.94,-95.43"/>
<polygon fill="black" stroke="black" points="797.62,-98.86 806.72,-93.44 796.22,-92 797.62,-98.86"/>
<text text-anchor="middle" x="704.94" y="-126.8" font-family="Times,serif" font-size="14.00">possède 100%</text>
</g>
<!-- tmc&#45;127 -->
<g id="node8" class="node">
<title>tmc&#45;127</title>
<ellipse fill="none" stroke="black" cx="834.58" cy="-34" rx="30.59" ry="18"/>
<text text-anchor="middle" x="834.58" y="-30.3" font-family="Times,serif" font-size="14.00">TMC</text>
</g>
<!-- groupe&#45;tf1&#45;122&#45;&gt;tmc&#45;127 -->
<g id="edge7" class="edge">
<title>groupe&#45;tf1&#45;122&#45;&gt;tmc&#45;127</title>
<path fill="none" stroke="black" d="M601.13,-127.03C617.53,-114.92 642.04,-98.11 665.44,-87 707.79,-66.89 759.66,-51.87 794.5,-43.05"/>
<polygon fill="black" stroke="black" points="795.28,-46.46 804.15,-40.66 793.6,-39.66 795.28,-46.46"/>
<text text-anchor="middle" x="704.94" y="-90.8" font-family="Times,serif" font-size="14.00">possède 100%</text>
</g>
</g>
</svg>
