<?xml version="1.0" encoding="UTF-8" standalone="no"?>
<!DOCTYPE svg PUBLIC "-//W3C//DTD SVG 1.1//EN"
 "http://www.w3.org/Graphics/SVG/1.1/DTD/svg11.dtd">
<!-- Generated by graphviz version 8.1.0 (20230707.0739)
 -->
<!-- Pages: 1 -->
<svg width="1650pt" height="724pt"
 viewBox="0.00 0.00 1650.46 724.00" xmlns="http://www.w3.org/2000/svg" xmlns:xlink="http://www.w3.org/1999/xlink">
<g id="graph0" class="graph" transform="scale(1 1) rotate(0) translate(4 720)">
<polygon fill="white" stroke="none" points="-4,4 -4,-720 1646.46,-720 1646.46,4 -4,4"/>
<g id="clust2" class="cluster">
<title>clusterLeaves</title>
<polygon fill="none" stroke="black" points="1397.02,-8 1397.02,-708 1634.46,-708 1634.46,-8 1397.02,-8"/>
</g>
<!-- matthieu&#45;pigasse&#45;11 -->
<g id="node1" class="node">
<title>matthieu&#45;pigasse&#45;11</title>
<polygon fill="none" stroke="black" points="124,-132 0,-132 0,-96 124,-96 124,-132"/>
<text text-anchor="middle" x="62" y="-110.08" font-family="Times,serif" font-size="14.00">🧑‍💼Matthieu Pigasse</text>
</g>
<!-- combat&#45;solutions&#45;12 -->
<g id="node2" class="node">
<title>combat&#45;solutions&#45;12</title>
<polygon fill="none" stroke="black" points="424.74,-119.56 328.37,-132 232,-119.56 232.09,-99.44 424.65,-99.44 424.74,-119.56"/>
<text text-anchor="middle" x="328.37" y="-108.95" font-family="Times,serif" font-size="14.00">Combat Solutions</text>
</g>
<!-- matthieu&#45;pigasse&#45;11&#45;&gt;combat&#45;solutions&#45;12 -->
<g id="edge1" class="edge">
<title>matthieu&#45;pigasse&#45;11&#45;&gt;combat&#45;solutions&#45;12</title>
<path fill="none" stroke="black" d="M124.32,-114C153.08,-114 188.21,-114 221.1,-114"/>
<polygon fill="black" stroke="black" points="220.69,-117.5 230.69,-114 220.69,-110.5 220.69,-117.5"/>
<text text-anchor="middle" x="178" y="-117.2" font-family="Times,serif" font-size="14.00">possède 78%</text>
</g>
<!-- le&#45;nouveau&#45;monde&#45;13 -->
<g id="node3" class="node">
<title>le&#45;nouveau&#45;monde&#45;13</title>
<polygon fill="none" stroke="black" points="744.46,-277.56 638.6,-290 532.74,-277.56 532.84,-257.44 744.36,-257.44 744.46,-277.56"/>
<text text-anchor="middle" x="638.6" y="-266.95" font-family="Times,serif" font-size="14.00">Le Nouveau Monde</text>
</g>
<!-- combat&#45;solutions&#45;12&#45;&gt;le&#45;nouveau&#45;monde&#45;13 -->
<g id="edge3" class="edge">
<title>combat&#45;solutions&#45;12&#45;&gt;le&#45;nouveau&#45;monde&#45;13</title>
<path fill="none" stroke="black" d="M357.82,-128.58C413.27,-157.01 535.89,-219.86 598.77,-252.09"/>
<polygon fill="black" stroke="black" points="596.83,-255.55 607.33,-256.99 600.02,-249.32 596.83,-255.55"/>
<text text-anchor="middle" x="478.74" y="-211.2" font-family="Times,serif" font-size="14.00">possède 51%</text>
</g>
<!-- huffpost&#45;26 -->
<g id="node6" class="node">
<title>huffpost&#45;26</title>
<ellipse fill="none" stroke="black" cx="1515.74" cy="-142" rx="44.19" ry="18"/>
<text text-anchor="middle" x="1515.74" y="-136.95" font-family="Times,serif" font-size="14.00">HuffPost</text>
</g>
<!-- combat&#45;solutions&#45;12&#45;&gt;huffpost&#45;26 -->
<g id="edge2" class="edge">
<title>combat&#45;solutions&#45;12&#45;&gt;huffpost&#45;26</title>
<path fill="none" stroke="black" d="M398.08,-123.48C460.45,-131.26 555.01,-141 637.6,-141 637.6,-141 637.6,-141 1211.98,-141 1298.83,-141 1399.68,-141.42 1460.29,-141.71"/>
<polygon fill="black" stroke="black" points="1460.11,-145.22 1470.12,-141.77 1460.14,-138.22 1460.11,-145.22"/>
<text text-anchor="middle" x="938.08" y="-144.2" font-family="Times,serif" font-size="14.00">possède 11%</text>
</g>
<!-- les&#45;inrockuptibles&#45;31 -->
<g id="node17" class="node">
<title>les&#45;inrockuptibles&#45;31</title>
<ellipse fill="none" stroke="black" cx="1515.74" cy="-88" rx="80.01" ry="18"/>
<text text-anchor="middle" x="1515.74" y="-82.95" font-family="Times,serif" font-size="14.00">Les Inrockuptibles</text>
</g>
<!-- combat&#45;solutions&#45;12&#45;&gt;les&#45;inrockuptibles&#45;31 -->
<g id="edge17" class="edge">
<title>combat&#45;solutions&#45;12&#45;&gt;les&#45;inrockuptibles&#45;31</title>
<path fill="none" stroke="black" d="M425,-101.76C485.77,-95.02 566.18,-88 637.6,-88 637.6,-88 637.6,-88 1211.98,-88 1283.36,-88 1364.21,-88 1424.39,-88"/>
<polygon fill="black" stroke="black" points="1424.38,-91.5 1434.38,-88 1424.38,-84.5 1424.38,-91.5"/>
<text text-anchor="middle" x="938.08" y="-91.2" font-family="Times,serif" font-size="14.00">possède 100%</text>
</g>
<!-- radio&#45;nova&#45;30 -->
<g id="node18" class="node">
<title>radio&#45;nova&#45;30</title>
<ellipse fill="none" stroke="black" cx="1515.74" cy="-34" rx="55.45" ry="18"/>
<text text-anchor="middle" x="1515.74" y="-28.95" font-family="Times,serif" font-size="14.00">Radio Nova</text>
</g>
<!-- combat&#45;solutions&#45;12&#45;&gt;radio&#45;nova&#45;30 -->
<g id="edge18" class="edge">
<title>combat&#45;solutions&#45;12&#45;&gt;radio&#45;nova&#45;30</title>
<path fill="none" stroke="black" d="M364.22,-98.95C420.57,-76.03 535.68,-35 637.6,-35 637.6,-35 637.6,-35 1211.98,-35 1293.8,-35 1388.05,-34.63 1449.37,-34.34"/>
<polygon fill="black" stroke="black" points="1449.07,-37.84 1459.05,-34.29 1449.03,-30.84 1449.07,-37.84"/>
<text text-anchor="middle" x="938.08" y="-38.2" font-family="Times,serif" font-size="14.00">possède 100%</text>
</g>
<!-- le&#45;monde&#45;libre&#45;14 -->
<g id="node4" class="node">
<title>le&#45;monde&#45;libre&#45;14</title>
<polygon fill="none" stroke="black" points="1023.69,-389.56 938.08,-402 852.46,-389.56 852.54,-369.44 1023.61,-369.44 1023.69,-389.56"/>
<text text-anchor="middle" x="938.08" y="-378.95" font-family="Times,serif" font-size="14.00">Le Monde libre</text>
</g>
<!-- le&#45;nouveau&#45;monde&#45;13&#45;&gt;le&#45;monde&#45;libre&#45;14 -->
<g id="edge4" class="edge">
<title>le&#45;nouveau&#45;monde&#45;13&#45;&gt;le&#45;monde&#45;libre&#45;14</title>
<path fill="none" stroke="black" d="M676.68,-285.96C729.72,-305.93 827.4,-342.71 886.88,-365.1"/>
<polygon fill="black" stroke="black" points="885.57,-368.72 896.16,-368.97 888.03,-362.17 885.57,-368.72"/>
<text text-anchor="middle" x="798.46" y="-348.2" font-family="Times,serif" font-size="14.00">possède 26%</text>
</g>
<!-- le&#45;monde&#45;sa&#45;15 -->
<g id="node5" class="node">
<title>le&#45;monde&#45;sa&#45;15</title>
<polygon fill="none" stroke="black" points="1290.27,-389.56 1210.98,-402 1131.69,-389.56 1131.77,-369.44 1290.2,-369.44 1290.27,-389.56"/>
<text text-anchor="middle" x="1210.98" y="-378.95" font-family="Times,serif" font-size="14.00">Le Monde SA</text>
</g>
<!-- le&#45;monde&#45;libre&#45;14&#45;&gt;le&#45;monde&#45;sa&#45;15 -->
<g id="edge6" class="edge">
<title>le&#45;monde&#45;libre&#45;14&#45;&gt;le&#45;monde&#45;sa&#45;15</title>
<path fill="none" stroke="black" d="M1024.05,-384C1054.73,-384 1089.43,-384 1120.48,-384"/>
<polygon fill="black" stroke="black" points="1120.3,-387.5 1130.3,-384 1120.3,-380.5 1120.3,-387.5"/>
<text text-anchor="middle" x="1077.69" y="-387.2" font-family="Times,serif" font-size="14.00">possède 75%</text>
</g>
<!-- l&#45;obs&#45;16 -->
<g id="node7" class="node">
<title>l&#45;obs&#45;16</title>
<ellipse fill="none" stroke="black" cx="1515.74" cy="-682" rx="33.95" ry="18"/>
<text text-anchor="middle" x="1515.74" y="-676.95" font-family="Times,serif" font-size="14.00">L’Obs</text>
</g>
<!-- le&#45;monde&#45;libre&#45;14&#45;&gt;l&#45;obs&#45;16 -->
<g id="edge5" class="edge">
<title>le&#45;monde&#45;libre&#45;14&#45;&gt;l&#45;obs&#45;16</title>
<path fill="none" stroke="black" d="M957.33,-399.63C1008.88,-442.99 1161.44,-565.98 1308.27,-632 1361.96,-656.14 1428.96,-669.61 1471.8,-676.34"/>
<polygon fill="black" stroke="black" points="1471.01,-679.91 1481.42,-677.94 1472.05,-672.99 1471.01,-679.91"/>
<text text-anchor="middle" x="1210.98" y="-626.2" font-family="Times,serif" font-size="14.00">possède 99%</text>
</g>
<!-- le&#45;monde&#45;sa&#45;15&#45;&gt;huffpost&#45;26 -->
<g id="edge8" class="edge">
<title>le&#45;monde&#45;sa&#45;15&#45;&gt;huffpost&#45;26</title>
<path fill="none" stroke="black" d="M1215.41,-369.1C1224.3,-333.74 1251.52,-244.15 1308.27,-196.5 1351.03,-160.6 1414.92,-148.08 1460.3,-143.85"/>
<polygon fill="black" stroke="black" points="1460.44,-147.27 1470.12,-142.97 1459.87,-140.29 1460.44,-147.27"/>
<text text-anchor="middle" x="1347.65" y="-200.2" font-family="Times,serif" font-size="14.00">possède 34%</text>
</g>
<!-- courrier&#45;international&#45;21 -->
<g id="node8" class="node">
<title>courrier&#45;international&#45;21</title>
<ellipse fill="none" stroke="black" cx="1515.74" cy="-466" rx="91.27" ry="18"/>
<text text-anchor="middle" x="1515.74" y="-460.95" font-family="Times,serif" font-size="14.00">Courrier international</text>
</g>
<!-- le&#45;monde&#45;sa&#45;15&#45;&gt;courrier&#45;international&#45;21 -->
<g id="edge7" class="edge">
<title>le&#45;monde&#45;sa&#45;15&#45;&gt;courrier&#45;international&#45;21</title>
<path fill="none" stroke="black" d="M1244.14,-397.3C1262.68,-404.64 1286.54,-413.55 1308.27,-420 1350.43,-432.51 1398.32,-443.38 1437.36,-451.41"/>
<polygon fill="black" stroke="black" points="1436.63,-455.04 1447.12,-453.6 1438.02,-448.18 1436.63,-455.04"/>
<text text-anchor="middle" x="1347.65" y="-443.2" font-family="Times,serif" font-size="14.00">possède 100%</text>
</g>
<!-- la&#45;vie&#45;23 -->
<g id="node9" class="node">
<title>la&#45;vie&#45;23</title>
<ellipse fill="none" stroke="black" cx="1515.74" cy="-412" rx="36" ry="18"/>
<text text-anchor="middle" x="1515.74" y="-406.95" font-family="Times,serif" font-size="14.00">La Vie</text>
</g>
<!-- le&#45;monde&#45;sa&#45;15&#45;&gt;la&#45;vie&#45;23 -->
<g id="edge9" class="edge">
<title>le&#45;monde&#45;sa&#45;15&#45;&gt;la&#45;vie&#45;23</title>
<path fill="none" stroke="black" d="M1285.27,-390.78C1342.59,-396.08 1420.46,-403.28 1469.15,-407.78"/>
<polygon fill="black" stroke="black" points="1468.69,-411.35 1478.97,-408.78 1469.34,-404.38 1468.69,-411.35"/>
<text text-anchor="middle" x="1347.65" y="-402.2" font-family="Times,serif" font-size="14.00">possède 100%</text>
</g>
<!-- le&#45;monde&#45;19 -->
<g id="node10" class="node">
<title>le&#45;monde&#45;19</title>
<ellipse fill="none" stroke="black" cx="1515.74" cy="-358" rx="49.82" ry="18"/>
<text text-anchor="middle" x="1515.74" y="-352.95" font-family="Times,serif" font-size="14.00">Le Monde</text>
</g>
<!-- le&#45;monde&#45;sa&#45;15&#45;&gt;le&#45;monde&#45;19 -->
<g id="edge10" class="edge">
<title>le&#45;monde&#45;sa&#45;15&#45;&gt;le&#45;monde&#45;19</title>
<path fill="none" stroke="black" d="M1290.47,-371.56C1296.48,-370.8 1302.47,-370.1 1308.27,-369.5 1357.51,-364.43 1413.59,-361.49 1454.87,-359.85"/>
<polygon fill="black" stroke="black" points="1454.97,-363.31 1464.83,-359.43 1454.71,-356.32 1454.97,-363.31"/>
<text text-anchor="middle" x="1347.65" y="-373.2" font-family="Times,serif" font-size="14.00">possède 100%</text>
</g>
<!-- le&#45;monde&#45;des&#45;religions&#45;22 -->
<g id="node11" class="node">
<title>le&#45;monde&#45;des&#45;religions&#45;22</title>
<ellipse fill="none" stroke="black" cx="1515.74" cy="-304" rx="99.46" ry="18"/>
<text text-anchor="middle" x="1515.74" y="-298.95" font-family="Times,serif" font-size="14.00">Le Monde des religions</text>
</g>
<!-- le&#45;monde&#45;sa&#45;15&#45;&gt;le&#45;monde&#45;des&#45;religions&#45;22 -->
<g id="edge11" class="edge">
<title>le&#45;monde&#45;sa&#45;15&#45;&gt;le&#45;monde&#45;des&#45;religions&#45;22</title>
<path fill="none" stroke="black" d="M1243.03,-368.99C1261.6,-360.5 1285.88,-350.27 1308.27,-343.5 1345.95,-332.11 1388.53,-323.31 1425.19,-316.93"/>
<polygon fill="black" stroke="black" points="1425.59,-320.24 1434.86,-315.11 1424.42,-313.34 1425.59,-320.24"/>
<text text-anchor="middle" x="1347.65" y="-347.2" font-family="Times,serif" font-size="14.00">possède 100%</text>
</g>
<!-- le&#45;monde&#45;diplomatique&#45;24 -->
<g id="node12" class="node">
<title>le&#45;monde&#45;diplomatique&#45;24</title>
<ellipse fill="none" stroke="black" cx="1515.74" cy="-250" rx="101.51" ry="18"/>
<text text-anchor="middle" x="1515.74" y="-244.95" font-family="Times,serif" font-size="14.00">Le Monde diplomatique</text>
</g>
<!-- le&#45;monde&#45;sa&#45;15&#45;&gt;le&#45;monde&#45;diplomatique&#45;24 -->
<g id="edge12" class="edge">
<title>le&#45;monde&#45;sa&#45;15&#45;&gt;le&#45;monde&#45;diplomatique&#45;24</title>
<path fill="none" stroke="black" d="M1226.3,-369.04C1244.03,-351.33 1275.85,-322.02 1308.27,-304.5 1344.5,-284.93 1388.15,-272.08 1425.97,-263.81"/>
<polygon fill="black" stroke="black" points="1426.41,-267.08 1435.47,-261.59 1424.96,-260.23 1426.41,-267.08"/>
<text text-anchor="middle" x="1347.65" y="-308.2" font-family="Times,serif" font-size="14.00">possède 51%</text>
</g>
<!-- m&#45;le&#45;magazine&#45;du&#45;monde&#45;18 -->
<g id="node13" class="node">
<title>m&#45;le&#45;magazine&#45;du&#45;monde&#45;18</title>
<ellipse fill="none" stroke="black" cx="1515.74" cy="-196" rx="110.72" ry="18"/>
<text text-anchor="middle" x="1515.74" y="-190.95" font-family="Times,serif" font-size="14.00">M, le magazine du Monde</text>
</g>
<!-- le&#45;monde&#45;sa&#45;15&#45;&gt;m&#45;le&#45;magazine&#45;du&#45;monde&#45;18 -->
<g id="edge13" class="edge">
<title>le&#45;monde&#45;sa&#45;15&#45;&gt;m&#45;le&#45;magazine&#45;du&#45;monde&#45;18</title>
<path fill="none" stroke="black" d="M1219.13,-369.34C1232.82,-342.73 1265.23,-286.3 1308.27,-254.5 1339.23,-231.63 1378.82,-217.69 1415.04,-209.2"/>
<polygon fill="black" stroke="black" points="1415.65,-212.43 1424.66,-206.84 1414.14,-205.6 1415.65,-212.43"/>
<text text-anchor="middle" x="1347.65" y="-258.2" font-family="Times,serif" font-size="14.00">possède 100%</text>
</g>
<!-- maniere&#45;de&#45;voir&#45;25 -->
<g id="node14" class="node">
<title>maniere&#45;de&#45;voir&#45;25</title>
<ellipse fill="none" stroke="black" cx="1515.74" cy="-628" rx="70.8" ry="18"/>
<text text-anchor="middle" x="1515.74" y="-622.95" font-family="Times,serif" font-size="14.00">Manière de voir</text>
</g>
<!-- le&#45;monde&#45;sa&#45;15&#45;&gt;maniere&#45;de&#45;voir&#45;25 -->
<g id="edge14" class="edge">
<title>le&#45;monde&#45;sa&#45;15&#45;&gt;maniere&#45;de&#45;voir&#45;25</title>
<path fill="none" stroke="black" d="M1216.14,-401.6C1225.79,-438.61 1253.19,-524.98 1308.27,-572 1343.48,-602.06 1393.35,-616.12 1435.26,-622.64"/>
<polygon fill="black" stroke="black" points="1434.62,-626.23 1445.01,-624.18 1435.61,-619.3 1434.62,-626.23"/>
<text text-anchor="middle" x="1347.65" y="-614.2" font-family="Times,serif" font-size="14.00">possède 51%</text>
</g>
<!-- prier&#45;17 -->
<g id="node15" class="node">
<title>prier&#45;17</title>
<ellipse fill="none" stroke="black" cx="1515.74" cy="-574" rx="28.83" ry="18"/>
<text text-anchor="middle" x="1515.74" y="-568.95" font-family="Times,serif" font-size="14.00">Prier</text>
</g>
<!-- le&#45;monde&#45;sa&#45;15&#45;&gt;prier&#45;17 -->
<g id="edge15" class="edge">
<title>le&#45;monde&#45;sa&#45;15&#45;&gt;prier&#45;17</title>
<path fill="none" stroke="black" d="M1220.35,-400.63C1234.77,-427.75 1266.82,-481.64 1308.27,-513 1358.31,-550.86 1431.52,-565.3 1475.98,-570.75"/>
<polygon fill="black" stroke="black" points="1475.58,-574.34 1485.91,-571.98 1476.36,-567.38 1475.58,-574.34"/>
<text text-anchor="middle" x="1347.65" y="-554.2" font-family="Times,serif" font-size="14.00">possède 100%</text>
</g>
<!-- telerama&#45;20 -->
<g id="node16" class="node">
<title>telerama&#45;20</title>
<ellipse fill="none" stroke="black" cx="1515.74" cy="-520" rx="46.23" ry="18"/>
<text text-anchor="middle" x="1515.74" y="-514.95" font-family="Times,serif" font-size="14.00">Télérama</text>
</g>
<!-- le&#45;monde&#45;sa&#45;15&#45;&gt;telerama&#45;20 -->
<g id="edge16" class="edge">
<title>le&#45;monde&#45;sa&#45;15&#45;&gt;telerama&#45;20</title>
<path fill="none" stroke="black" d="M1228.15,-399.73C1246.36,-416.75 1277.45,-443.75 1308.27,-461 1356.56,-488.03 1418.25,-503.55 1461.58,-511.82"/>
<polygon fill="black" stroke="black" points="1460.72,-515.4 1471.18,-513.77 1461.98,-508.52 1460.72,-515.4"/>
<text text-anchor="middle" x="1347.65" y="-495.2" font-family="Times,serif" font-size="14.00">possède 100%</text>
</g>
</g>
</svg>
