<?xml version="1.0" encoding="UTF-8" standalone="no"?>
<!DOCTYPE svg PUBLIC "-//W3C//DTD SVG 1.1//EN"
 "http://www.w3.org/Graphics/SVG/1.1/DTD/svg11.dtd">
<!-- Generated by graphviz version 7.1.0 (20230121.1956)
 -->
<!-- Pages: 1 -->
<svg width="1616pt" height="724pt"
 viewBox="0.00 0.00 1615.64 724.00" xmlns="http://www.w3.org/2000/svg" xmlns:xlink="http://www.w3.org/1999/xlink">
<g id="graph0" class="graph" transform="scale(1 1) rotate(0) translate(4 720)">
<polygon fill="white" stroke="none" points="-4,4 -4,-720 1611.64,-720 1611.64,4 -4,4"/>
<g id="clust2" class="cluster">
<title>clusterLeaves</title>
<polygon fill="none" stroke="black" points="1371.75,-8 1371.75,-708 1599.64,-708 1599.64,-8 1371.75,-8"/>
</g>
<!-- matthieu&#45;pigasse&#45;11 -->
<g id="node1" class="node">
<title>matthieu&#45;pigasse&#45;11</title>
<polygon fill="none" stroke="black" points="125,-133 0,-133 0,-97 125,-97 125,-133"/>
<text text-anchor="middle" x="62.5" y="-111.3" font-family="Times,serif" font-size="14.00">🧑‍💼Matthieu Pigasse</text>
</g>
<!-- combat&#45;solutions&#45;12 -->
<g id="node2" class="node">
<title>combat&#45;solutions&#45;12</title>
<polygon fill="none" stroke="black" points="418.66,-120.56 326.39,-133 234.11,-120.56 234.2,-100.44 418.58,-100.44 418.66,-120.56"/>
<text text-anchor="middle" x="326.39" y="-111.3" font-family="Times,serif" font-size="14.00">Combat Solutions</text>
</g>
<!-- matthieu&#45;pigasse&#45;11&#45;&gt;combat&#45;solutions&#45;12 -->
<g id="edge1" class="edge">
<title>matthieu&#45;pigasse&#45;11&#45;&gt;combat&#45;solutions&#45;12</title>
<path fill="none" stroke="black" d="M125.23,-115C154.18,-115 189.46,-115 222.29,-115"/>
<polygon fill="black" stroke="black" points="222.28,-118.5 232.28,-115 222.28,-111.5 222.28,-118.5"/>
<text text-anchor="middle" x="179.5" y="-118.8" font-family="Times,serif" font-size="14.00">possède 78%</text>
</g>
<!-- le&#45;nouveau&#45;monde&#45;13 -->
<g id="node3" class="node">
<title>le&#45;nouveau&#45;monde&#45;13</title>
<polygon fill="none" stroke="black" points="730.45,-278.56 629,-291 527.55,-278.56 527.64,-258.44 730.36,-258.44 730.45,-278.56"/>
<text text-anchor="middle" x="629" y="-269.3" font-family="Times,serif" font-size="14.00">Le Nouveau Monde</text>
</g>
<!-- combat&#45;solutions&#45;12&#45;&gt;le&#45;nouveau&#45;monde&#45;13 -->
<g id="edge3" class="edge">
<title>combat&#45;solutions&#45;12&#45;&gt;le&#45;nouveau&#45;monde&#45;13</title>
<path fill="none" stroke="black" d="M355.13,-129.58C408.99,-157.89 527.82,-220.35 589.37,-252.69"/>
<polygon fill="black" stroke="black" points="587.63,-255.73 598.11,-257.29 590.89,-249.54 587.63,-255.73"/>
<text text-anchor="middle" x="473.28" y="-212.8" font-family="Times,serif" font-size="14.00">possède 51%</text>
</g>
<!-- huffpost&#45;26 -->
<g id="node6" class="node">
<title>huffpost&#45;26</title>
<ellipse fill="none" stroke="black" cx="1485.7" cy="-142" rx="42.49" ry="18"/>
<text text-anchor="middle" x="1485.7" y="-138.3" font-family="Times,serif" font-size="14.00">HuffPost</text>
</g>
<!-- combat&#45;solutions&#45;12&#45;&gt;huffpost&#45;26 -->
<g id="edge2" class="edge">
<title>combat&#45;solutions&#45;12&#45;&gt;huffpost&#45;26</title>
<path fill="none" stroke="black" d="M395,-124.2C455.83,-131.68 547.72,-141 628,-141 628,-141 628,-141 1189.43,-141 1274.25,-141 1372.78,-141.42 1431.86,-141.71"/>
<polygon fill="black" stroke="black" points="1431.6,-145.21 1441.62,-141.76 1431.64,-138.21 1431.6,-145.21"/>
<text text-anchor="middle" x="921.17" y="-144.8" font-family="Times,serif" font-size="14.00">possède 11%</text>
</g>
<!-- les&#45;inrockuptibles&#45;31 -->
<g id="node17" class="node">
<title>les&#45;inrockuptibles&#45;31</title>
<ellipse fill="none" stroke="black" cx="1485.7" cy="-88" rx="76.89" ry="18"/>
<text text-anchor="middle" x="1485.7" y="-84.3" font-family="Times,serif" font-size="14.00">Les Inrockuptibles</text>
</g>
<!-- combat&#45;solutions&#45;12&#45;&gt;les&#45;inrockuptibles&#45;31 -->
<g id="edge17" class="edge">
<title>combat&#45;solutions&#45;12&#45;&gt;les&#45;inrockuptibles&#45;31</title>
<path fill="none" stroke="black" d="M418.99,-103.41C478.46,-96.88 557.69,-90 628,-90 628,-90 628,-90 1189.43,-90 1259.24,-90 1338.32,-89.43 1397.06,-88.9"/>
<polygon fill="black" stroke="black" points="1397.05,-92.4 1407.02,-88.81 1396.99,-85.41 1397.05,-92.4"/>
<text text-anchor="middle" x="921.17" y="-93.8" font-family="Times,serif" font-size="14.00">possède 100%</text>
</g>
<!-- radio&#45;nova&#45;30 -->
<g id="node18" class="node">
<title>radio&#45;nova&#45;30</title>
<ellipse fill="none" stroke="black" cx="1485.7" cy="-34" rx="53.09" ry="18"/>
<text text-anchor="middle" x="1485.7" y="-30.3" font-family="Times,serif" font-size="14.00">Radio Nova</text>
</g>
<!-- combat&#45;solutions&#45;12&#45;&gt;radio&#45;nova&#45;30 -->
<g id="edge18" class="edge">
<title>combat&#45;solutions&#45;12&#45;&gt;radio&#45;nova&#45;30</title>
<path fill="none" stroke="black" d="M361.81,-99.96C416.9,-77.29 528.79,-37 628,-37 628,-37 628,-37 1189.43,-37 1269.38,-37 1361.49,-35.89 1421.28,-35.02"/>
<polygon fill="black" stroke="black" points="1420.97,-38.52 1430.91,-34.87 1420.86,-31.52 1420.97,-38.52"/>
<text text-anchor="middle" x="921.17" y="-40.8" font-family="Times,serif" font-size="14.00">possède 100%</text>
</g>
<!-- le&#45;monde&#45;libre&#45;14 -->
<g id="node4" class="node">
<title>le&#45;monde&#45;libre&#45;14</title>
<polygon fill="none" stroke="black" points="1003.06,-390.56 921.17,-403 839.28,-390.56 839.36,-370.44 1002.98,-370.44 1003.06,-390.56"/>
<text text-anchor="middle" x="921.17" y="-381.3" font-family="Times,serif" font-size="14.00">Le Monde libre</text>
</g>
<!-- le&#45;nouveau&#45;monde&#45;13&#45;&gt;le&#45;monde&#45;libre&#45;14 -->
<g id="edge4" class="edge">
<title>le&#45;nouveau&#45;monde&#45;13&#45;&gt;le&#45;monde&#45;libre&#45;14</title>
<path fill="none" stroke="black" d="M665.87,-286.85C717.55,-306.79 813.09,-343.67 871.21,-366.1"/>
<polygon fill="black" stroke="black" points="869.61,-369.24 880.2,-369.57 872.13,-362.71 869.61,-369.24"/>
<text text-anchor="middle" x="784.73" y="-349.8" font-family="Times,serif" font-size="14.00">possède 26%</text>
</g>
<!-- le&#45;monde&#45;sa&#45;15 -->
<g id="node5" class="node">
<title>le&#45;monde&#45;sa&#45;15</title>
<polygon fill="none" stroke="black" points="1264.58,-390.56 1188.43,-403 1112.29,-390.56 1112.36,-370.44 1264.5,-370.44 1264.58,-390.56"/>
<text text-anchor="middle" x="1188.43" y="-381.3" font-family="Times,serif" font-size="14.00">Le Monde SA</text>
</g>
<!-- le&#45;monde&#45;libre&#45;14&#45;&gt;le&#45;monde&#45;sa&#45;15 -->
<g id="edge6" class="edge">
<title>le&#45;monde&#45;libre&#45;14&#45;&gt;le&#45;monde&#45;sa&#45;15</title>
<path fill="none" stroke="black" d="M1003.2,-385C1034,-385 1069.21,-385 1100.53,-385"/>
<polygon fill="black" stroke="black" points="1100.37,-388.5 1110.37,-385 1100.37,-381.5 1100.37,-388.5"/>
<text text-anchor="middle" x="1057.61" y="-388.8" font-family="Times,serif" font-size="14.00">possède 75%</text>
</g>
<!-- l&#45;obs&#45;16 -->
<g id="node7" class="node">
<title>l&#45;obs&#45;16</title>
<ellipse fill="none" stroke="black" cx="1485.7" cy="-682" rx="32.49" ry="18"/>
<text text-anchor="middle" x="1485.7" y="-678.3" font-family="Times,serif" font-size="14.00">L’Obs</text>
</g>
<!-- le&#45;monde&#45;libre&#45;14&#45;&gt;l&#45;obs&#45;16 -->
<g id="edge5" class="edge">
<title>le&#45;monde&#45;libre&#45;14&#45;&gt;l&#45;obs&#45;16</title>
<path fill="none" stroke="black" d="M940.96,-400.32C992.6,-441.81 1142.21,-557.75 1282.75,-626 1320.18,-644.17 1331.71,-643.71 1371.75,-655 1395.44,-661.68 1422.21,-668.13 1443.75,-673.05"/>
<polygon fill="black" stroke="black" points="1442.8,-676.42 1453.33,-675.21 1444.34,-669.59 1442.8,-676.42"/>
<text text-anchor="middle" x="1188.43" y="-617.8" font-family="Times,serif" font-size="14.00">possède 99%</text>
</g>
<!-- le&#45;monde&#45;sa&#45;15&#45;&gt;huffpost&#45;26 -->
<g id="edge8" class="edge">
<title>le&#45;monde&#45;sa&#45;15&#45;&gt;huffpost&#45;26</title>
<path fill="none" stroke="black" d="M1193.02,-370.14C1202.08,-335.72 1229.07,-249.77 1282.75,-202 1324.23,-165.1 1387.51,-150.86 1432.17,-145.39"/>
<polygon fill="black" stroke="black" points="1432.32,-148.89 1441.87,-144.31 1431.55,-141.93 1432.32,-148.89"/>
<text text-anchor="middle" x="1322.25" y="-205.8" font-family="Times,serif" font-size="14.00">possède 34%</text>
</g>
<!-- courrier&#45;international&#45;21 -->
<g id="node8" class="node">
<title>courrier&#45;international&#45;21</title>
<ellipse fill="none" stroke="black" cx="1485.7" cy="-466" rx="87.18" ry="18"/>
<text text-anchor="middle" x="1485.7" y="-462.3" font-family="Times,serif" font-size="14.00">Courrier international</text>
</g>
<!-- le&#45;monde&#45;sa&#45;15&#45;&gt;courrier&#45;international&#45;21 -->
<g id="edge7" class="edge">
<title>le&#45;monde&#45;sa&#45;15&#45;&gt;courrier&#45;international&#45;21</title>
<path fill="none" stroke="black" d="M1221.93,-397.94C1239.72,-404.74 1262.26,-412.91 1282.75,-419 1324.68,-431.47 1372.3,-442.69 1410.76,-451.04"/>
<polygon fill="black" stroke="black" points="1409.88,-454.43 1420.39,-453.1 1411.35,-447.58 1409.88,-454.43"/>
<text text-anchor="middle" x="1322.25" y="-442.8" font-family="Times,serif" font-size="14.00">possède 100%</text>
</g>
<!-- la&#45;vie&#45;23 -->
<g id="node9" class="node">
<title>la&#45;vie&#45;23</title>
<ellipse fill="none" stroke="black" cx="1485.7" cy="-412" rx="34.39" ry="18"/>
<text text-anchor="middle" x="1485.7" y="-408.3" font-family="Times,serif" font-size="14.00">La Vie</text>
</g>
<!-- le&#45;monde&#45;sa&#45;15&#45;&gt;la&#45;vie&#45;23 -->
<g id="edge9" class="edge">
<title>le&#45;monde&#45;sa&#45;15&#45;&gt;la&#45;vie&#45;23</title>
<path fill="none" stroke="black" d="M1261.29,-391.57C1317.15,-396.68 1392.88,-403.6 1440.25,-407.94"/>
<polygon fill="black" stroke="black" points="1439.87,-411.42 1450.14,-408.84 1440.5,-404.44 1439.87,-411.42"/>
<text text-anchor="middle" x="1322.25" y="-403.8" font-family="Times,serif" font-size="14.00">possède 100%</text>
</g>
<!-- le&#45;monde&#45;19 -->
<g id="node10" class="node">
<title>le&#45;monde&#45;19</title>
<ellipse fill="none" stroke="black" cx="1485.7" cy="-358" rx="48.19" ry="18"/>
<text text-anchor="middle" x="1485.7" y="-354.3" font-family="Times,serif" font-size="14.00">Le Monde</text>
</g>
<!-- le&#45;monde&#45;sa&#45;15&#45;&gt;le&#45;monde&#45;19 -->
<g id="edge10" class="edge">
<title>le&#45;monde&#45;sa&#45;15&#45;&gt;le&#45;monde&#45;19</title>
<path fill="none" stroke="black" d="M1264.79,-375.87C1270.86,-375.21 1276.91,-374.58 1282.75,-374 1331.28,-369.22 1386.47,-364.92 1426.88,-361.99"/>
<polygon fill="black" stroke="black" points="1426.9,-365.5 1436.62,-361.29 1426.39,-358.52 1426.9,-365.5"/>
<text text-anchor="middle" x="1322.25" y="-377.8" font-family="Times,serif" font-size="14.00">possède 100%</text>
</g>
<!-- le&#45;monde&#45;des&#45;religions&#45;22 -->
<g id="node11" class="node">
<title>le&#45;monde&#45;des&#45;religions&#45;22</title>
<ellipse fill="none" stroke="black" cx="1485.7" cy="-304" rx="94.78" ry="18"/>
<text text-anchor="middle" x="1485.7" y="-300.3" font-family="Times,serif" font-size="14.00">Le Monde des religions</text>
</g>
<!-- le&#45;monde&#45;sa&#45;15&#45;&gt;le&#45;monde&#45;des&#45;religions&#45;22 -->
<g id="edge11" class="edge">
<title>le&#45;monde&#45;sa&#45;15&#45;&gt;le&#45;monde&#45;des&#45;religions&#45;22</title>
<path fill="none" stroke="black" d="M1224.45,-370.07C1241.78,-363.04 1263.14,-354.93 1282.75,-349 1322.65,-336.93 1367.87,-326.56 1405.39,-318.82"/>
<polygon fill="black" stroke="black" points="1405.68,-322.34 1414.78,-316.91 1404.29,-315.48 1405.68,-322.34"/>
<text text-anchor="middle" x="1322.25" y="-352.8" font-family="Times,serif" font-size="14.00">possède 100%</text>
</g>
<!-- le&#45;monde&#45;diplomatique&#45;24 -->
<g id="node12" class="node">
<title>le&#45;monde&#45;diplomatique&#45;24</title>
<ellipse fill="none" stroke="black" cx="1485.7" cy="-250" rx="96.68" ry="18"/>
<text text-anchor="middle" x="1485.7" y="-246.3" font-family="Times,serif" font-size="14.00">Le Monde diplomatique</text>
</g>
<!-- le&#45;monde&#45;sa&#45;15&#45;&gt;le&#45;monde&#45;diplomatique&#45;24 -->
<g id="edge12" class="edge">
<title>le&#45;monde&#45;sa&#45;15&#45;&gt;le&#45;monde&#45;diplomatique&#45;24</title>
<path fill="none" stroke="black" d="M1204.8,-370.02C1222.41,-353.51 1252.74,-327.03 1282.75,-310 1319.96,-288.89 1365.32,-274.55 1403.62,-265.19"/>
<polygon fill="black" stroke="black" points="1404.34,-268.62 1413.26,-262.92 1402.73,-261.81 1404.34,-268.62"/>
<text text-anchor="middle" x="1322.25" y="-313.8" font-family="Times,serif" font-size="14.00">possède 51%</text>
</g>
<!-- m&#45;le&#45;magazine&#45;du&#45;monde&#45;18 -->
<g id="node13" class="node">
<title>m&#45;le&#45;magazine&#45;du&#45;monde&#45;18</title>
<ellipse fill="none" stroke="black" cx="1485.7" cy="-196" rx="105.88" ry="18"/>
<text text-anchor="middle" x="1485.7" y="-192.3" font-family="Times,serif" font-size="14.00">M, le magazine du Monde</text>
</g>
<!-- le&#45;monde&#45;sa&#45;15&#45;&gt;m&#45;le&#45;magazine&#45;du&#45;monde&#45;18 -->
<g id="edge13" class="edge">
<title>le&#45;monde&#45;sa&#45;15&#45;&gt;m&#45;le&#45;magazine&#45;du&#45;monde&#45;18</title>
<path fill="none" stroke="black" d="M1196.97,-370.26C1210.75,-344.6 1242.37,-291.45 1282.75,-260 1314.71,-235.11 1356.54,-219.79 1393.84,-210.42"/>
<polygon fill="black" stroke="black" points="1394.36,-213.89 1403.27,-208.16 1392.73,-207.08 1394.36,-213.89"/>
<text text-anchor="middle" x="1322.25" y="-263.8" font-family="Times,serif" font-size="14.00">possède 100%</text>
</g>
<!-- maniere&#45;de&#45;voir&#45;25 -->
<g id="node14" class="node">
<title>maniere&#45;de&#45;voir&#45;25</title>
<ellipse fill="none" stroke="black" cx="1485.7" cy="-628" rx="67.69" ry="18"/>
<text text-anchor="middle" x="1485.7" y="-624.3" font-family="Times,serif" font-size="14.00">Manière de voir</text>
</g>
<!-- le&#45;monde&#45;sa&#45;15&#45;&gt;maniere&#45;de&#45;voir&#45;25 -->
<g id="edge14" class="edge">
<title>le&#45;monde&#45;sa&#45;15&#45;&gt;maniere&#45;de&#45;voir&#45;25</title>
<path fill="none" stroke="black" d="M1193.8,-402.38C1203.62,-438.12 1230.8,-520.42 1282.75,-567 1317.47,-598.13 1367.61,-613.38 1409.24,-620.85"/>
<polygon fill="black" stroke="black" points="1408.53,-624.28 1418.97,-622.47 1409.68,-617.38 1408.53,-624.28"/>
<text text-anchor="middle" x="1322.25" y="-610.8" font-family="Times,serif" font-size="14.00">possède 51%</text>
</g>
<!-- prier&#45;17 -->
<g id="node15" class="node">
<title>prier&#45;17</title>
<ellipse fill="none" stroke="black" cx="1485.7" cy="-574" rx="27.9" ry="18"/>
<text text-anchor="middle" x="1485.7" y="-570.3" font-family="Times,serif" font-size="14.00">Prier</text>
</g>
<!-- le&#45;monde&#45;sa&#45;15&#45;&gt;prier&#45;17 -->
<g id="edge15" class="edge">
<title>le&#45;monde&#45;sa&#45;15&#45;&gt;prier&#45;17</title>
<path fill="none" stroke="black" d="M1198.17,-401.65C1212.59,-427.74 1243.73,-478.43 1282.75,-509 1331.35,-547.08 1402.89,-563.16 1446.49,-569.72"/>
<polygon fill="black" stroke="black" points="1445.85,-573.17 1456.24,-571.09 1446.82,-566.24 1445.85,-573.17"/>
<text text-anchor="middle" x="1322.25" y="-551.8" font-family="Times,serif" font-size="14.00">possède 100%</text>
</g>
<!-- telerama&#45;20 -->
<g id="node16" class="node">
<title>telerama&#45;20</title>
<ellipse fill="none" stroke="black" cx="1485.7" cy="-520" rx="44.39" ry="18"/>
<text text-anchor="middle" x="1485.7" y="-516.3" font-family="Times,serif" font-size="14.00">Télérama</text>
</g>
<!-- le&#45;monde&#45;sa&#45;15&#45;&gt;telerama&#45;20 -->
<g id="edge16" class="edge">
<title>le&#45;monde&#45;sa&#45;15&#45;&gt;telerama&#45;20</title>
<path fill="none" stroke="black" d="M1205.91,-400.32C1223.77,-416.32 1253.65,-441.36 1282.75,-458 1330.15,-485.09 1390.7,-501.64 1433.09,-510.74"/>
<polygon fill="black" stroke="black" points="1432.28,-514.15 1442.78,-512.76 1433.7,-507.3 1432.28,-514.15"/>
<text text-anchor="middle" x="1322.25" y="-493.8" font-family="Times,serif" font-size="14.00">possède 100%</text>
</g>
</g>
</svg>
