<?xml version="1.0" encoding="UTF-8" standalone="no"?>
<!DOCTYPE svg PUBLIC "-//W3C//DTD SVG 1.1//EN"
 "http://www.w3.org/Graphics/SVG/1.1/DTD/svg11.dtd">
<!-- Generated by graphviz version 7.1.0 (20230121.1956)
 -->
<!-- Pages: 1 -->
<svg width="348pt" height="76pt"
 viewBox="0.00 0.00 347.69 76.00" xmlns="http://www.w3.org/2000/svg" xmlns:xlink="http://www.w3.org/1999/xlink">
<g id="graph0" class="graph" transform="scale(1 1) rotate(0) translate(4 72)">
<polygon fill="white" stroke="none" points="-4,4 -4,-72 343.69,-72 343.69,4 -4,4"/>
<g id="clust2" class="cluster">
<title>clusterLeaves</title>
<polygon fill="none" stroke="black" points="187,-8 187,-60 331.69,-60 331.69,-8 187,-8"/>
</g>
<!-- nice&#45;matin&#45;328 -->
<g id="node1" class="node">
<title>nice&#45;matin&#45;328</title>
<polygon fill="none" stroke="black" points="80,-52 0,-52 0,-16 80,-16 80,-52"/>
<text text-anchor="middle" x="40" y="-30.3" font-family="Times,serif" font-size="14.00">Nice&#45;Matin</text>
</g>
<!-- monaco&#45;matin&#45;333 -->
<g id="node2" class="node">
<title>monaco&#45;matin&#45;333</title>
<ellipse fill="none" stroke="black" cx="259.34" cy="-34" rx="64.19" ry="18"/>
<text text-anchor="middle" x="259.34" y="-30.3" font-family="Times,serif" font-size="14.00">Monaco&#45;Matin</text>
</g>
<!-- nice&#45;matin&#45;328&#45;&gt;monaco&#45;matin&#45;333 -->
<g id="edge1" class="edge">
<title>nice&#45;matin&#45;328&#45;&gt;monaco&#45;matin&#45;333</title>
<path fill="none" stroke="black" d="M80.36,-34C109.17,-34 149.13,-34 183.9,-34"/>
<polygon fill="black" stroke="black" points="183.46,-37.5 193.46,-34 183.46,-30.5 183.46,-37.5"/>
<text text-anchor="middle" x="137.5" y="-37.8" font-family="Times,serif" font-size="14.00">possède 100%</text>
</g>
</g>
</svg>
