<?xml version="1.0" encoding="UTF-8" standalone="no"?>
<!DOCTYPE svg PUBLIC "-//W3C//DTD SVG 1.1//EN"
 "http://www.w3.org/Graphics/SVG/1.1/DTD/svg11.dtd">
<!-- Generated by graphviz version 8.1.0 (20230707.0739)
 -->
<!-- Pages: 1 -->
<svg width="352pt" height="76pt"
 viewBox="0.00 0.00 352.18 76.00" xmlns="http://www.w3.org/2000/svg" xmlns:xlink="http://www.w3.org/1999/xlink">
<g id="graph0" class="graph" transform="scale(1 1) rotate(0) translate(4 72)">
<polygon fill="white" stroke="none" points="-4,4 -4,-72 348.18,-72 348.18,4 -4,4"/>
<g id="clust2" class="cluster">
<title>clusterLeaves</title>
<polygon fill="none" stroke="black" points="185.75,-8 185.75,-60 336.18,-60 336.18,-8 185.75,-8"/>
</g>
<!-- nice&#45;matin&#45;328 -->
<g id="node1" class="node">
<title>nice&#45;matin&#45;328</title>
<polygon fill="none" stroke="black" points="79,-52 0,-52 0,-16 79,-16 79,-52"/>
<text text-anchor="middle" x="39.5" y="-28.95" font-family="Times,serif" font-size="14.00">Nice&#45;Matin</text>
</g>
<!-- monaco&#45;matin&#45;333 -->
<g id="node2" class="node">
<title>monaco&#45;matin&#45;333</title>
<ellipse fill="none" stroke="black" cx="260.97" cy="-34" rx="67.22" ry="18"/>
<text text-anchor="middle" x="260.97" y="-28.95" font-family="Times,serif" font-size="14.00">Monaco&#45;Matin</text>
</g>
<!-- nice&#45;matin&#45;328&#45;&gt;monaco&#45;matin&#45;333 -->
<g id="edge1" class="edge">
<title>nice&#45;matin&#45;328&#45;&gt;monaco&#45;matin&#45;333</title>
<path fill="none" stroke="black" d="M79.48,-34C108.06,-34 147.8,-34 182.71,-34"/>
<polygon fill="black" stroke="black" points="182.38,-37.5 192.38,-34 182.38,-30.5 182.38,-37.5"/>
<text text-anchor="middle" x="136.38" y="-37.2" font-family="Times,serif" font-size="14.00">possède 100%</text>
</g>
</g>
</svg>
