<?xml version="1.0" encoding="UTF-8" standalone="no"?>
<!DOCTYPE svg PUBLIC "-//W3C//DTD SVG 1.1//EN"
 "http://www.w3.org/Graphics/SVG/1.1/DTD/svg11.dtd">
<!-- Generated by graphviz version 7.1.0 (20230121.1956)
 -->
<!-- Pages: 1 -->
<svg width="792pt" height="76pt"
 viewBox="0.00 0.00 791.93 76.00" xmlns="http://www.w3.org/2000/svg" xmlns:xlink="http://www.w3.org/1999/xlink">
<g id="graph0" class="graph" transform="scale(1 1) rotate(0) translate(4 72)">
<polygon fill="white" stroke="none" points="-4,4 -4,-72 787.93,-72 787.93,4 -4,4"/>
<g id="clust2" class="cluster">
<title>clusterLeaves</title>
<polygon fill="none" stroke="black" points="577.94,-8 577.94,-60 775.93,-60 775.93,-8 577.94,-8"/>
</g>
<!-- republique&#45;francaise&#45;128 -->
<g id="node1" class="node">
<title>republique&#45;francaise&#45;128</title>
<polygon fill="none" stroke="black" points="131,-52 0,-52 0,-16 131,-16 131,-52"/>
<text text-anchor="middle" x="65.5" y="-30.3" font-family="Times,serif" font-size="14.00">République française</text>
</g>
<!-- france&#45;medias&#45;monde&#45;133 -->
<g id="node2" class="node">
<title>france&#45;medias&#45;monde&#45;133</title>
<polygon fill="none" stroke="black" points="470.92,-39.56 358.47,-52 246.03,-39.56 246.13,-19.44 470.81,-19.44 470.92,-39.56"/>
<text text-anchor="middle" x="358.47" y="-30.3" font-family="Times,serif" font-size="14.00">France Médias Monde</text>
</g>
<!-- republique&#45;francaise&#45;128&#45;&gt;france&#45;medias&#45;monde&#45;133 -->
<g id="edge2" class="edge">
<title>republique&#45;francaise&#45;128&#45;&gt;france&#45;medias&#45;monde&#45;133</title>
<path fill="none" stroke="black" d="M131.44,-34C161.74,-34 198.85,-34 234.17,-34"/>
<polygon fill="black" stroke="black" points="234.06,-37.5 244.06,-34 234.06,-30.5 234.06,-37.5"/>
<text text-anchor="middle" x="188.5" y="-37.8" font-family="Times,serif" font-size="14.00">possède 100%</text>
</g>
<!-- monte&#45;carlo&#45;doualiya&#45;137 -->
<g id="node3" class="node">
<title>monte&#45;carlo&#45;doualiya&#45;137</title>
<ellipse fill="none" stroke="black" cx="676.94" cy="-34" rx="90.98" ry="18"/>
<text text-anchor="middle" x="676.94" y="-30.3" font-family="Times,serif" font-size="14.00">Monte Carlo Doualiya</text>
</g>
<!-- france&#45;medias&#45;monde&#45;133&#45;&gt;monte&#45;carlo&#45;doualiya&#45;137 -->
<g id="edge1" class="edge">
<title>france&#45;medias&#45;monde&#45;133&#45;&gt;monte&#45;carlo&#45;doualiya&#45;137</title>
<path fill="none" stroke="black" d="M471.05,-34C504.63,-34 541.3,-34 574.21,-34"/>
<polygon fill="black" stroke="black" points="574.18,-37.5 584.18,-34 574.18,-30.5 574.18,-37.5"/>
<text text-anchor="middle" x="528.44" y="-37.8" font-family="Times,serif" font-size="14.00">possède 100%</text>
</g>
</g>
</svg>
