<?xml version="1.0" encoding="UTF-8" standalone="no"?>
<!DOCTYPE svg PUBLIC "-//W3C//DTD SVG 1.1//EN"
 "http://www.w3.org/Graphics/SVG/1.1/DTD/svg11.dtd">
<!-- Generated by graphviz version 8.1.0 (20230707.0739)
 -->
<!-- Pages: 1 -->
<svg width="352pt" height="184pt"
 viewBox="0.00 0.00 352.18 184.00" xmlns="http://www.w3.org/2000/svg" xmlns:xlink="http://www.w3.org/1999/xlink">
<g id="graph0" class="graph" transform="scale(1 1) rotate(0) translate(4 180)">
<polygon fill="white" stroke="none" points="-4,4 -4,-180 348.18,-180 348.18,4 -4,4"/>
<g id="clust2" class="cluster">
<title>clusterLeaves</title>
<polygon fill="none" stroke="black" points="185.75,-8 185.75,-168 336.18,-168 336.18,-8 185.75,-8"/>
</g>
<!-- nice&#45;matin&#45;328 -->
<g id="node1" class="node">
<title>nice&#45;matin&#45;328</title>
<polygon fill="none" stroke="black" points="79,-106 0,-106 0,-70 79,-70 79,-106"/>
<text text-anchor="middle" x="39.5" y="-82.95" font-family="Times,serif" font-size="14.00">Nice&#45;Matin</text>
</g>
<!-- nice&#45;matin&#45;281 -->
<g id="node2" class="node">
<title>nice&#45;matin&#45;281</title>
<ellipse fill="none" stroke="black" cx="260.97" cy="-142" rx="53.91" ry="18"/>
<text text-anchor="middle" x="260.97" y="-136.95" font-family="Times,serif" font-size="14.00">Nice&#45;Matin</text>
</g>
<!-- nice&#45;matin&#45;328&#45;&gt;nice&#45;matin&#45;281 -->
<g id="edge1" class="edge">
<title>nice&#45;matin&#45;328&#45;&gt;nice&#45;matin&#45;281</title>
<path fill="none" stroke="black" d="M79.45,-103.37C85.28,-105.42 91.26,-107.36 97,-109 131.02,-118.7 169.82,-126.68 201.02,-132.36"/>
<polygon fill="black" stroke="black" points="200.26,-135.95 210.72,-134.27 201.49,-129.06 200.26,-135.95"/>
<text text-anchor="middle" x="136.38" y="-129.2" font-family="Times,serif" font-size="14.00">possède 100%</text>
</g>
<!-- var&#45;matin&#45;332 -->
<g id="node3" class="node">
<title>var&#45;matin&#45;332</title>
<ellipse fill="none" stroke="black" cx="260.97" cy="-88" rx="49.3" ry="18"/>
<text text-anchor="middle" x="260.97" y="-82.95" font-family="Times,serif" font-size="14.00">Var&#45;Matin</text>
</g>
<!-- nice&#45;matin&#45;328&#45;&gt;var&#45;matin&#45;332 -->
<g id="edge2" class="edge">
<title>nice&#45;matin&#45;328&#45;&gt;var&#45;matin&#45;332</title>
<path fill="none" stroke="black" d="M79.48,-88C113.15,-88 162.3,-88 200.81,-88"/>
<polygon fill="black" stroke="black" points="200.37,-91.5 210.37,-88 200.37,-84.5 200.37,-91.5"/>
<text text-anchor="middle" x="136.38" y="-91.2" font-family="Times,serif" font-size="14.00">possède 100%</text>
</g>
<!-- monaco&#45;matin&#45;333 -->
<g id="node4" class="node">
<title>monaco&#45;matin&#45;333</title>
<ellipse fill="none" stroke="black" cx="260.97" cy="-34" rx="67.22" ry="18"/>
<text text-anchor="middle" x="260.97" y="-28.95" font-family="Times,serif" font-size="14.00">Monaco&#45;Matin</text>
</g>
<!-- nice&#45;matin&#45;328&#45;&gt;monaco&#45;matin&#45;333 -->
<g id="edge3" class="edge">
<title>nice&#45;matin&#45;328&#45;&gt;monaco&#45;matin&#45;333</title>
<path fill="none" stroke="black" d="M79.47,-73.03C85.3,-71.03 91.28,-69.12 97,-67.5 128.07,-58.72 163.07,-51.22 192.66,-45.56"/>
<polygon fill="black" stroke="black" points="193.11,-48.85 202.29,-43.56 191.82,-41.97 193.11,-48.85"/>
<text text-anchor="middle" x="136.38" y="-70.2" font-family="Times,serif" font-size="14.00">possède 100%</text>
</g>
</g>
</svg>
