<?xml version="1.0" encoding="UTF-8" standalone="no"?>
<!DOCTYPE svg PUBLIC "-//W3C//DTD SVG 1.1//EN"
 "http://www.w3.org/Graphics/SVG/1.1/DTD/svg11.dtd">
<!-- Generated by graphviz version 8.1.0 (20230707.0739)
 -->
<!-- Pages: 1 -->
<svg width="1312pt" height="98pt"
 viewBox="0.00 0.00 1311.72 98.00" xmlns="http://www.w3.org/2000/svg" xmlns:xlink="http://www.w3.org/1999/xlink">
<g id="graph0" class="graph" transform="scale(1 1) rotate(0) translate(4 94)">
<polygon fill="white" stroke="none" points="-4,4 -4,-94 1307.72,-94 1307.72,4 -4,4"/>
<g id="clust2" class="cluster">
<title>clusterLeaves</title>
<polygon fill="none" stroke="black" points="1171.9,-16 1171.9,-68 1295.72,-68 1295.72,-16 1171.9,-16"/>
</g>
<!-- patrick&#45;drahi&#45;56 -->
<g id="node1" class="node">
<title>patrick&#45;drahi&#45;56</title>
<polygon fill="none" stroke="black" points="103,-90 0,-90 0,-54 103,-54 103,-90"/>
<text text-anchor="middle" x="51.5" y="-68.08" font-family="Times,serif" font-size="14.00">🧑‍💼Patrick Drahi</text>
</g>
<!-- altice&#45;57 -->
<g id="node6" class="node">
<title>altice&#45;57</title>
<polygon fill="none" stroke="black" points="293.66,-77.56 252.33,-90 211,-77.56 211.04,-57.44 293.63,-57.44 293.66,-77.56"/>
<text text-anchor="middle" x="252.33" y="-66.95" font-family="Times,serif" font-size="14.00">Altice</text>
</g>
<!-- patrick&#45;drahi&#45;56&#45;&gt;altice&#45;57 -->
<g id="edge5" class="edge">
<title>patrick&#45;drahi&#45;56&#45;&gt;altice&#45;57</title>
<path fill="none" stroke="black" d="M103.45,-72C132.93,-72 169.95,-72 199.57,-72"/>
<polygon fill="black" stroke="black" points="199.53,-75.5 209.53,-72 199.53,-68.5 199.53,-75.5"/>
<text text-anchor="middle" x="157" y="-75.2" font-family="Times,serif" font-size="14.00">possède 61%</text>
</g>
<!-- nice&#45;matin&#45;328 -->
<g id="node2" class="node">
<title>nice&#45;matin&#45;328</title>
<polygon fill="none" stroke="black" points="1037.38,-36 958.38,-36 958.38,0 1037.38,0 1037.38,-36"/>
<text text-anchor="middle" x="997.88" y="-12.95" font-family="Times,serif" font-size="14.00">Nice&#45;Matin</text>
</g>
<!-- nice&#45;matin&#45;281 -->
<g id="node7" class="node">
<title>nice&#45;matin&#45;281</title>
<ellipse fill="none" stroke="black" cx="1233.81" cy="-42" rx="53.91" ry="18"/>
<text text-anchor="middle" x="1233.81" y="-36.95" font-family="Times,serif" font-size="14.00">Nice&#45;Matin</text>
</g>
<!-- nice&#45;matin&#45;328&#45;&gt;nice&#45;matin&#45;281 -->
<g id="edge6" class="edge">
<title>nice&#45;matin&#45;328&#45;&gt;nice&#45;matin&#45;281</title>
<path fill="none" stroke="black" d="M1037.58,-18.25C1070.71,-18.88 1119.63,-20.82 1161.9,-26.5 1167.38,-27.24 1173.06,-28.18 1178.72,-29.23"/>
<polygon fill="black" stroke="black" points="1178.02,-32.85 1188.51,-31.36 1179.38,-25.99 1178.02,-32.85"/>
<text text-anchor="middle" x="1122.52" y="-29.2" font-family="Times,serif" font-size="14.00">possède 100%</text>
</g>
<!-- rmc&#45;story&#45;327 -->
<g id="node3" class="node">
<title>rmc&#45;story&#45;327</title>
<polygon fill="none" stroke="black" points="1065.15,-77.56 997.88,-90 930.61,-77.56 930.67,-57.44 1065.08,-57.44 1065.15,-77.56"/>
<text text-anchor="middle" x="997.88" y="-66.95" font-family="Times,serif" font-size="14.00">RMC Story</text>
</g>
<!-- rmc&#45;story&#45;327&#45;&gt;nice&#45;matin&#45;281 -->
<g id="edge1" class="edge">
<title>rmc&#45;story&#45;327&#45;&gt;nice&#45;matin&#45;281</title>
<path fill="none" stroke="black" d="M1065.6,-63.44C1099.21,-59.13 1139.65,-53.95 1172.34,-49.75"/>
<polygon fill="black" stroke="black" points="1172.64,-53.12 1182.11,-48.37 1171.75,-46.17 1172.64,-53.12"/>
<text text-anchor="middle" x="1122.52" y="-63.2" font-family="Times,serif" font-size="14.00">possède 100%</text>
</g>
<!-- altice&#45;media&#45;61 -->
<g id="node4" class="node">
<title>altice&#45;media&#45;61</title>
<polygon fill="none" stroke="black" points="815.86,-77.56 741.63,-90 667.4,-77.56 667.47,-57.44 815.79,-57.44 815.86,-77.56"/>
<text text-anchor="middle" x="741.63" y="-66.95" font-family="Times,serif" font-size="14.00">Altice Média</text>
</g>
<!-- altice&#45;media&#45;61&#45;&gt;rmc&#45;story&#45;327 -->
<g id="edge2" class="edge">
<title>altice&#45;media&#45;61&#45;&gt;rmc&#45;story&#45;327</title>
<path fill="none" stroke="black" d="M816.17,-72C848.58,-72 886.69,-72 919.53,-72"/>
<polygon fill="black" stroke="black" points="919.45,-75.5 929.45,-72 919.45,-68.5 919.45,-75.5"/>
<text text-anchor="middle" x="873.23" y="-75.2" font-family="Times,serif" font-size="14.00">possède 100%</text>
</g>
<!-- altice&#45;france&#45;58 -->
<g id="node5" class="node">
<title>altice&#45;france&#45;58</title>
<polygon fill="none" stroke="black" points="552.65,-77.56 477.16,-90 401.66,-77.56 401.73,-57.44 552.58,-57.44 552.65,-77.56"/>
<text text-anchor="middle" x="477.16" y="-66.95" font-family="Times,serif" font-size="14.00">Altice France</text>
</g>
<!-- altice&#45;france&#45;58&#45;&gt;altice&#45;media&#45;61 -->
<g id="edge3" class="edge">
<title>altice&#45;france&#45;58&#45;&gt;altice&#45;media&#45;61</title>
<path fill="none" stroke="black" d="M553.02,-72C585.29,-72 623.17,-72 656.41,-72"/>
<polygon fill="black" stroke="black" points="656.03,-75.5 666.03,-72 656.03,-68.5 656.03,-75.5"/>
<text text-anchor="middle" x="610.03" y="-75.2" font-family="Times,serif" font-size="14.00">possède 100%</text>
</g>
<!-- altice&#45;57&#45;&gt;altice&#45;france&#45;58 -->
<g id="edge4" class="edge">
<title>altice&#45;57&#45;&gt;altice&#45;france&#45;58</title>
<path fill="none" stroke="black" d="M293.94,-72C321.01,-72 357.61,-72 390.9,-72"/>
<polygon fill="black" stroke="black" points="390.58,-75.5 400.58,-72 390.58,-68.5 390.58,-75.5"/>
<text text-anchor="middle" x="347.66" y="-75.2" font-family="Times,serif" font-size="14.00">possède 78%</text>
</g>
</g>
</svg>
