<?xml version="1.0" encoding="UTF-8" standalone="no"?>
<!DOCTYPE svg PUBLIC "-//W3C//DTD SVG 1.1//EN"
 "http://www.w3.org/Graphics/SVG/1.1/DTD/svg11.dtd">
<!-- Generated by graphviz version 7.1.0 (20230121.1956)
 -->
<!-- Pages: 1 -->
<svg width="1291pt" height="98pt"
 viewBox="0.00 0.00 1291.48 98.00" xmlns="http://www.w3.org/2000/svg" xmlns:xlink="http://www.w3.org/1999/xlink">
<g id="graph0" class="graph" transform="scale(1 1) rotate(0) translate(4 94)">
<polygon fill="white" stroke="none" points="-4,4 -4,-94 1287.48,-94 1287.48,4 -4,4"/>
<g id="clust2" class="cluster">
<title>clusterLeaves</title>
<polygon fill="none" stroke="black" points="1155.48,-15 1155.48,-67 1275.48,-67 1275.48,-15 1155.48,-15"/>
</g>
<!-- patrick&#45;drahi&#45;56 -->
<g id="node1" class="node">
<title>patrick&#45;drahi&#45;56</title>
<polygon fill="none" stroke="black" points="104,-90 0,-90 0,-54 104,-54 104,-90"/>
<text text-anchor="middle" x="52" y="-68.3" font-family="Times,serif" font-size="14.00">🧑‍💼Patrick Drahi</text>
</g>
<!-- altice&#45;57 -->
<g id="node6" class="node">
<title>altice&#45;57</title>
<polygon fill="none" stroke="black" points="293.51,-77.56 253.17,-90 212.83,-77.56 212.87,-57.44 293.47,-57.44 293.51,-77.56"/>
<text text-anchor="middle" x="253.17" y="-68.3" font-family="Times,serif" font-size="14.00">Altice</text>
</g>
<!-- patrick&#45;drahi&#45;56&#45;&gt;altice&#45;57 -->
<g id="edge5" class="edge">
<title>patrick&#45;drahi&#45;56&#45;&gt;altice&#45;57</title>
<path fill="none" stroke="black" d="M104.29,-72C134,-72 171.28,-72 200.98,-72"/>
<polygon fill="black" stroke="black" points="200.85,-75.5 210.85,-72 200.85,-68.5 200.85,-75.5"/>
<text text-anchor="middle" x="158.5" y="-75.8" font-family="Times,serif" font-size="14.00">possède 61%</text>
</g>
<!-- nice&#45;matin&#45;328 -->
<g id="node2" class="node">
<title>nice&#45;matin&#45;328</title>
<polygon fill="none" stroke="black" points="1024.21,-36 944.21,-36 944.21,0 1024.21,0 1024.21,-36"/>
<text text-anchor="middle" x="984.21" y="-14.3" font-family="Times,serif" font-size="14.00">Nice&#45;Matin</text>
</g>
<!-- nice&#45;matin&#45;281 -->
<g id="node7" class="node">
<title>nice&#45;matin&#45;281</title>
<ellipse fill="none" stroke="black" cx="1215.48" cy="-41" rx="51.99" ry="18"/>
<text text-anchor="middle" x="1215.48" y="-37.3" font-family="Times,serif" font-size="14.00">Nice&#45;Matin</text>
</g>
<!-- nice&#45;matin&#45;328&#45;&gt;nice&#45;matin&#45;281 -->
<g id="edge6" class="edge">
<title>nice&#45;matin&#45;328&#45;&gt;nice&#45;matin&#45;281</title>
<path fill="none" stroke="black" d="M1024.55,-18.63C1057.08,-19.53 1104.44,-21.71 1145.48,-27 1150.19,-27.61 1155.05,-28.35 1159.92,-29.18"/>
<polygon fill="black" stroke="black" points="1159.25,-32.61 1169.72,-30.96 1160.51,-25.73 1159.25,-32.61"/>
<text text-anchor="middle" x="1105.98" y="-30.8" font-family="Times,serif" font-size="14.00">possède 100%</text>
</g>
<!-- rmc&#45;story&#45;327 -->
<g id="node3" class="node">
<title>rmc&#45;story&#45;327</title>
<polygon fill="none" stroke="black" points="1048.26,-77.56 984.21,-90 920.17,-77.56 920.23,-57.44 1048.2,-57.44 1048.26,-77.56"/>
<text text-anchor="middle" x="984.21" y="-68.3" font-family="Times,serif" font-size="14.00">RMC Story</text>
</g>
<!-- rmc&#45;story&#45;327&#45;&gt;nice&#45;matin&#45;281 -->
<g id="edge1" class="edge">
<title>rmc&#45;story&#45;327&#45;&gt;nice&#45;matin&#45;281</title>
<path fill="none" stroke="black" d="M1048.47,-63.45C1081.9,-58.93 1122.69,-53.41 1155.47,-48.98"/>
<polygon fill="black" stroke="black" points="1155.76,-52.47 1165.2,-47.66 1154.83,-45.53 1155.76,-52.47"/>
<text text-anchor="middle" x="1105.98" y="-63.8" font-family="Times,serif" font-size="14.00">possède 100%</text>
</g>
<!-- altice&#45;media&#45;61 -->
<g id="node4" class="node">
<title>altice&#45;media&#45;61</title>
<polygon fill="none" stroke="black" points="804.94,-77.56 733.44,-90 661.94,-77.56 662.01,-57.44 804.88,-57.44 804.94,-77.56"/>
<text text-anchor="middle" x="733.44" y="-68.3" font-family="Times,serif" font-size="14.00">Altice Média</text>
</g>
<!-- altice&#45;media&#45;61&#45;&gt;rmc&#45;story&#45;327 -->
<g id="edge2" class="edge">
<title>altice&#45;media&#45;61&#45;&gt;rmc&#45;story&#45;327</title>
<path fill="none" stroke="black" d="M805.4,-72C837.64,-72 875.8,-72 908.49,-72"/>
<polygon fill="black" stroke="black" points="908.29,-75.5 918.29,-72 908.29,-68.5 908.29,-75.5"/>
<text text-anchor="middle" x="862.44" y="-75.8" font-family="Times,serif" font-size="14.00">possède 100%</text>
</g>
<!-- altice&#45;france&#45;58 -->
<g id="node5" class="node">
<title>altice&#45;france&#45;58</title>
<polygon fill="none" stroke="black" points="546.75,-77.56 474.64,-90 402.53,-77.56 402.6,-57.44 546.68,-57.44 546.75,-77.56"/>
<text text-anchor="middle" x="474.64" y="-68.3" font-family="Times,serif" font-size="14.00">Altice France</text>
</g>
<!-- altice&#45;france&#45;58&#45;&gt;altice&#45;media&#45;61 -->
<g id="edge3" class="edge">
<title>altice&#45;france&#45;58&#45;&gt;altice&#45;media&#45;61</title>
<path fill="none" stroke="black" d="M547.18,-72C579.17,-72 617.07,-72 650.23,-72"/>
<polygon fill="black" stroke="black" points="650.22,-75.5 660.22,-72 650.22,-68.5 650.22,-75.5"/>
<text text-anchor="middle" x="604.44" y="-75.8" font-family="Times,serif" font-size="14.00">possède 100%</text>
</g>
<!-- altice&#45;57&#45;&gt;altice&#45;france&#45;58 -->
<g id="edge4" class="edge">
<title>altice&#45;57&#45;&gt;altice&#45;france&#45;58</title>
<path fill="none" stroke="black" d="M293.91,-72C320.99,-72 357.83,-72 391.11,-72"/>
<polygon fill="black" stroke="black" points="390.72,-75.5 400.72,-72 390.72,-68.5 390.72,-75.5"/>
<text text-anchor="middle" x="347.84" y="-75.8" font-family="Times,serif" font-size="14.00">possède 78%</text>
</g>
</g>
</svg>
