<?xml version="1.0" encoding="UTF-8" standalone="no"?>
<!DOCTYPE svg PUBLIC "-//W3C//DTD SVG 1.1//EN"
 "http://www.w3.org/Graphics/SVG/1.1/DTD/svg11.dtd">
<!-- Generated by graphviz version 7.1.0 (20230121.1956)
 -->
<!-- Pages: 1 -->
<svg width="348pt" height="184pt"
 viewBox="0.00 0.00 347.69 184.00" xmlns="http://www.w3.org/2000/svg" xmlns:xlink="http://www.w3.org/1999/xlink">
<g id="graph0" class="graph" transform="scale(1 1) rotate(0) translate(4 180)">
<polygon fill="white" stroke="none" points="-4,4 -4,-180 343.69,-180 343.69,4 -4,4"/>
<g id="clust2" class="cluster">
<title>clusterLeaves</title>
<polygon fill="none" stroke="black" points="187,-8 187,-168 331.69,-168 331.69,-8 187,-8"/>
</g>
<!-- nice&#45;matin&#45;328 -->
<g id="node1" class="node">
<title>nice&#45;matin&#45;328</title>
<polygon fill="none" stroke="black" points="80,-106 0,-106 0,-70 80,-70 80,-106"/>
<text text-anchor="middle" x="40" y="-84.3" font-family="Times,serif" font-size="14.00">Nice&#45;Matin</text>
</g>
<!-- nice&#45;matin&#45;281 -->
<g id="node2" class="node">
<title>nice&#45;matin&#45;281</title>
<ellipse fill="none" stroke="black" cx="259.34" cy="-142" rx="51.99" ry="18"/>
<text text-anchor="middle" x="259.34" y="-138.3" font-family="Times,serif" font-size="14.00">Nice&#45;Matin</text>
</g>
<!-- nice&#45;matin&#45;328&#45;&gt;nice&#45;matin&#45;281 -->
<g id="edge1" class="edge">
<title>nice&#45;matin&#45;328&#45;&gt;nice&#45;matin&#45;281</title>
<path fill="none" stroke="black" d="M80.39,-101.74C86.26,-103.61 92.27,-105.42 98,-107 132.26,-116.42 171.18,-124.97 202.1,-131.26"/>
<polygon fill="black" stroke="black" points="201.13,-134.63 211.62,-133.17 202.51,-127.77 201.13,-134.63"/>
<text text-anchor="middle" x="137.5" y="-128.8" font-family="Times,serif" font-size="14.00">possède 100%</text>
</g>
<!-- var&#45;matin&#45;332 -->
<g id="node3" class="node">
<title>var&#45;matin&#45;332</title>
<ellipse fill="none" stroke="black" cx="259.34" cy="-88" rx="47.39" ry="18"/>
<text text-anchor="middle" x="259.34" y="-84.3" font-family="Times,serif" font-size="14.00">Var&#45;Matin</text>
</g>
<!-- nice&#45;matin&#45;328&#45;&gt;var&#45;matin&#45;332 -->
<g id="edge2" class="edge">
<title>nice&#45;matin&#45;328&#45;&gt;var&#45;matin&#45;332</title>
<path fill="none" stroke="black" d="M80.36,-88C113.84,-88 162.38,-88 200.32,-88"/>
<polygon fill="black" stroke="black" points="200.21,-91.5 210.21,-88 200.21,-84.5 200.21,-91.5"/>
<text text-anchor="middle" x="137.5" y="-91.8" font-family="Times,serif" font-size="14.00">possède 100%</text>
</g>
<!-- monaco&#45;matin&#45;333 -->
<g id="node4" class="node">
<title>monaco&#45;matin&#45;333</title>
<ellipse fill="none" stroke="black" cx="259.34" cy="-34" rx="64.19" ry="18"/>
<text text-anchor="middle" x="259.34" y="-30.3" font-family="Times,serif" font-size="14.00">Monaco&#45;Matin</text>
</g>
<!-- nice&#45;matin&#45;328&#45;&gt;monaco&#45;matin&#45;333 -->
<g id="edge3" class="edge">
<title>nice&#45;matin&#45;328&#45;&gt;monaco&#45;matin&#45;333</title>
<path fill="none" stroke="black" d="M80.39,-74.26C86.26,-72.39 92.27,-70.58 98,-69 129.43,-60.36 164.78,-52.45 194.28,-46.35"/>
<polygon fill="black" stroke="black" points="194.7,-49.84 203.8,-44.4 193.3,-42.98 194.7,-49.84"/>
<text text-anchor="middle" x="137.5" y="-72.8" font-family="Times,serif" font-size="14.00">possède 100%</text>
</g>
</g>
</svg>
