<?xml version="1.0" encoding="UTF-8" standalone="no"?>
<!DOCTYPE svg PUBLIC "-//W3C//DTD SVG 1.1//EN"
 "http://www.w3.org/Graphics/SVG/1.1/DTD/svg11.dtd">
<!-- Generated by graphviz version 8.1.0 (20230707.0739)
 -->
<!-- Pages: 1 -->
<svg width="1343pt" height="98pt"
 viewBox="0.00 0.00 1343.13 98.00" xmlns="http://www.w3.org/2000/svg" xmlns:xlink="http://www.w3.org/1999/xlink">
<g id="graph0" class="graph" transform="scale(1 1) rotate(0) translate(4 94)">
<polygon fill="white" stroke="none" points="-4,4 -4,-94 1339.13,-94 1339.13,4 -4,4"/>
<g id="clust2" class="cluster">
<title>clusterLeaves</title>
<polygon fill="none" stroke="black" points="1205.35,-19 1205.35,-71 1327.13,-71 1327.13,-19 1205.35,-19"/>
</g>
<!-- credit&#45;agricole&#45;nord&#45;de&#45;france&#45;172 -->
<g id="node1" class="node">
<title>credit&#45;agricole&#45;nord&#45;de&#45;france&#45;172</title>
<polygon fill="none" stroke="black" points="425,-90 236.5,-90 236.5,-54 425,-54 425,-90"/>
<text text-anchor="middle" x="330.75" y="-66.95" font-family="Times,serif" font-size="14.00">Crédit Agricole Nord de France</text>
</g>
<!-- groupe&#45;rossel&#45;la&#45;voix&#45;184 -->
<g id="node4" class="node">
<title>groupe&#45;rossel&#45;la&#45;voix&#45;184</title>
<polygon fill="none" stroke="black" points="773.82,-50.56 653.41,-63 533,-50.56 533.11,-30.44 773.71,-30.44 773.82,-50.56"/>
<text text-anchor="middle" x="653.41" y="-39.95" font-family="Times,serif" font-size="14.00">Groupe Rossel La Voix</text>
</g>
<!-- credit&#45;agricole&#45;nord&#45;de&#45;france&#45;172&#45;&gt;groupe&#45;rossel&#45;la&#45;voix&#45;184 -->
<g id="edge3" class="edge">
<title>credit&#45;agricole&#45;nord&#45;de&#45;france&#45;172&#45;&gt;groupe&#45;rossel&#45;la&#45;voix&#45;184</title>
<path fill="none" stroke="black" d="M425.36,-64.12C462.45,-60.99 505.34,-57.38 543.78,-54.15"/>
<polygon fill="black" stroke="black" points="543.83,-57.57 553.5,-53.24 543.24,-50.6 543.83,-57.57"/>
<text text-anchor="middle" x="479" y="-65.2" font-family="Times,serif" font-size="14.00">possède 25%</text>
</g>
<!-- famille&#45;hurbain&#45;171 -->
<g id="node2" class="node">
<title>famille&#45;hurbain&#45;171</title>
<polygon fill="none" stroke="black" points="120.25,-36 0,-36 0,0 120.25,0 120.25,-36"/>
<text text-anchor="middle" x="60.12" y="-14.07" font-family="Times,serif" font-size="14.00">🧑‍💼Famille Hurbain</text>
</g>
<!-- groupe&#45;rossel&#45;183 -->
<g id="node5" class="node">
<title>groupe&#45;rossel&#45;183</title>
<polygon fill="none" stroke="black" points="411.94,-23.56 330.75,-36 249.56,-23.56 249.64,-3.44 411.86,-3.44 411.94,-23.56"/>
<text text-anchor="middle" x="330.75" y="-12.95" font-family="Times,serif" font-size="14.00">Groupe Rossel</text>
</g>
<!-- famille&#45;hurbain&#45;171&#45;&gt;groupe&#45;rossel&#45;183 -->
<g id="edge5" class="edge">
<title>famille&#45;hurbain&#45;171&#45;&gt;groupe&#45;rossel&#45;183</title>
<path fill="none" stroke="black" d="M120.74,-18C155.29,-18 199.5,-18 238.35,-18"/>
<polygon fill="black" stroke="black" points="238.16,-21.5 248.16,-18 238.16,-14.5 238.16,-21.5"/>
<text text-anchor="middle" x="178.38" y="-21.2" font-family="Times,serif" font-size="14.00">contrôle 100%</text>
</g>
<!-- la&#45;voix&#45;du&#45;nord&#45;sa&#45;185 -->
<g id="node3" class="node">
<title>la&#45;voix&#45;du&#45;nord&#45;sa&#45;185</title>
<polygon fill="none" stroke="black" points="1098.6,-50.56 990.21,-63 881.82,-50.56 881.92,-30.44 1098.5,-30.44 1098.6,-50.56"/>
<text text-anchor="middle" x="990.21" y="-39.95" font-family="Times,serif" font-size="14.00">La Voix du Nord SA</text>
</g>
<!-- nord&#45;eclair&#45;187 -->
<g id="node6" class="node">
<title>nord&#45;eclair&#45;187</title>
<ellipse fill="none" stroke="black" cx="1266.24" cy="-45" rx="52.89" ry="18"/>
<text text-anchor="middle" x="1266.24" y="-39.95" font-family="Times,serif" font-size="14.00">Nord éclair</text>
</g>
<!-- la&#45;voix&#45;du&#45;nord&#45;sa&#45;185&#45;&gt;nord&#45;eclair&#45;187 -->
<g id="edge1" class="edge">
<title>la&#45;voix&#45;du&#45;nord&#45;sa&#45;185&#45;&gt;nord&#45;eclair&#45;187</title>
<path fill="none" stroke="black" d="M1098.73,-45C1133.72,-45 1171.4,-45 1202.05,-45"/>
<polygon fill="black" stroke="black" points="1202.01,-48.5 1212.01,-45 1202.01,-41.5 1202.01,-48.5"/>
<text text-anchor="middle" x="1155.98" y="-48.2" font-family="Times,serif" font-size="14.00">possède 100%</text>
</g>
<!-- groupe&#45;rossel&#45;la&#45;voix&#45;184&#45;&gt;la&#45;voix&#45;du&#45;nord&#45;sa&#45;185 -->
<g id="edge2" class="edge">
<title>groupe&#45;rossel&#45;la&#45;voix&#45;184&#45;&gt;la&#45;voix&#45;du&#45;nord&#45;sa&#45;185</title>
<path fill="none" stroke="black" d="M773.86,-45C805.28,-45 839.15,-45 870.52,-45"/>
<polygon fill="black" stroke="black" points="870.51,-48.5 880.51,-45 870.51,-41.5 870.51,-48.5"/>
<text text-anchor="middle" x="827.82" y="-48.2" font-family="Times,serif" font-size="14.00">possède 96%</text>
</g>
<!-- groupe&#45;rossel&#45;183&#45;&gt;groupe&#45;rossel&#45;la&#45;voix&#45;184 -->
<g id="edge4" class="edge">
<title>groupe&#45;rossel&#45;183&#45;&gt;groupe&#45;rossel&#45;la&#45;voix&#45;184</title>
<path fill="none" stroke="black" d="M408.96,-24.5C442.84,-27.35 483.56,-30.78 521.92,-34.01"/>
<polygon fill="black" stroke="black" points="521.42,-37.57 531.67,-34.92 522,-30.59 521.42,-37.57"/>
<text text-anchor="middle" x="479" y="-37.2" font-family="Times,serif" font-size="14.00">possède 73%</text>
</g>
</g>
</svg>
