<?xml version="1.0" encoding="UTF-8" standalone="no"?>
<!DOCTYPE svg PUBLIC "-//W3C//DTD SVG 1.1//EN"
 "http://www.w3.org/Graphics/SVG/1.1/DTD/svg11.dtd">
<!-- Generated by graphviz version 7.1.0 (20230121.1956)
 -->
<!-- Pages: 1 -->
<svg width="1084pt" height="98pt"
 viewBox="0.00 0.00 1084.15 98.00" xmlns="http://www.w3.org/2000/svg" xmlns:xlink="http://www.w3.org/1999/xlink">
<g id="graph0" class="graph" transform="scale(1 1) rotate(0) translate(4 94)">
<polygon fill="white" stroke="none" points="-4,4 -4,-94 1080.15,-94 1080.15,4 -4,4"/>
<g id="clust2" class="cluster">
<title>clusterLeaves</title>
<polygon fill="none" stroke="black" points="872.76,-19 872.76,-71 1068.15,-71 1068.15,-19 872.76,-19"/>
</g>
<!-- credit&#45;agricole&#45;nord&#45;de&#45;france&#45;172 -->
<g id="node1" class="node">
<title>credit&#45;agricole&#45;nord&#45;de&#45;france&#45;172</title>
<polygon fill="none" stroke="black" points="427,-90 238,-90 238,-54 427,-54 427,-90"/>
<text text-anchor="middle" x="332.5" y="-68.3" font-family="Times,serif" font-size="14.00">Crédit Agricole Nord de France</text>
</g>
<!-- groupe&#45;rossel&#45;la&#45;voix&#45;184 -->
<g id="node3" class="node">
<title>groupe&#45;rossel&#45;la&#45;voix&#45;184</title>
<polygon fill="none" stroke="black" points="765.65,-50.56 650.88,-63 536.12,-50.56 536.22,-30.44 765.54,-30.44 765.65,-50.56"/>
<text text-anchor="middle" x="650.88" y="-41.3" font-family="Times,serif" font-size="14.00">Groupe Rossel La Voix</text>
</g>
<!-- credit&#45;agricole&#45;nord&#45;de&#45;france&#45;172&#45;&gt;groupe&#45;rossel&#45;la&#45;voix&#45;184 -->
<g id="edge2" class="edge">
<title>credit&#45;agricole&#45;nord&#45;de&#45;france&#45;172&#45;&gt;groupe&#45;rossel&#45;la&#45;voix&#45;184</title>
<path fill="none" stroke="black" d="M427.14,-64.01C463.88,-60.87 506.21,-57.26 544.05,-54.03"/>
<polygon fill="black" stroke="black" points="543.94,-57.55 553.61,-53.22 543.34,-50.58 543.94,-57.55"/>
<text text-anchor="middle" x="481.5" y="-64.8" font-family="Times,serif" font-size="14.00">possède 25%</text>
</g>
<!-- famille&#45;hurbain&#45;171 -->
<g id="node2" class="node">
<title>famille&#45;hurbain&#45;171</title>
<polygon fill="none" stroke="black" points="121,-36 0,-36 0,0 121,0 121,-36"/>
<text text-anchor="middle" x="60.5" y="-14.3" font-family="Times,serif" font-size="14.00">🧑‍💼Famille Hurbain</text>
</g>
<!-- groupe&#45;rossel&#45;183 -->
<g id="node4" class="node">
<title>groupe&#45;rossel&#45;183</title>
<polygon fill="none" stroke="black" points="410.35,-23.56 332.5,-36 254.65,-23.56 254.72,-3.44 410.28,-3.44 410.35,-23.56"/>
<text text-anchor="middle" x="332.5" y="-14.3" font-family="Times,serif" font-size="14.00">Groupe Rossel</text>
</g>
<!-- famille&#45;hurbain&#45;171&#45;&gt;groupe&#45;rossel&#45;183 -->
<g id="edge4" class="edge">
<title>famille&#45;hurbain&#45;171&#45;&gt;groupe&#45;rossel&#45;183</title>
<path fill="none" stroke="black" d="M121.42,-18C157.13,-18 203.12,-18 242.96,-18"/>
<polygon fill="black" stroke="black" points="242.77,-21.5 252.77,-18 242.77,-14.5 242.77,-21.5"/>
<text text-anchor="middle" x="179.5" y="-21.8" font-family="Times,serif" font-size="14.00">contrôle 100%</text>
</g>
<!-- normandie&#45;dimanche&#45;291 -->
<g id="node5" class="node">
<title>normandie&#45;dimanche&#45;291</title>
<ellipse fill="none" stroke="black" cx="970.46" cy="-45" rx="89.88" ry="18"/>
<text text-anchor="middle" x="970.46" y="-41.3" font-family="Times,serif" font-size="14.00">Normandie Dimanche</text>
</g>
<!-- groupe&#45;rossel&#45;la&#45;voix&#45;184&#45;&gt;normandie&#45;dimanche&#45;291 -->
<g id="edge1" class="edge">
<title>groupe&#45;rossel&#45;la&#45;voix&#45;184&#45;&gt;normandie&#45;dimanche&#45;291</title>
<path fill="none" stroke="black" d="M766.09,-45C799.65,-45 836.1,-45 868.76,-45"/>
<polygon fill="black" stroke="black" points="868.63,-48.5 878.63,-45 868.63,-41.5 868.63,-48.5"/>
<text text-anchor="middle" x="823.26" y="-48.8" font-family="Times,serif" font-size="14.00">possède 100%</text>
</g>
<!-- groupe&#45;rossel&#45;183&#45;&gt;groupe&#45;rossel&#45;la&#45;voix&#45;184 -->
<g id="edge3" class="edge">
<title>groupe&#45;rossel&#45;183&#45;&gt;groupe&#45;rossel&#45;la&#45;voix&#45;184</title>
<path fill="none" stroke="black" d="M408.08,-24.36C442.82,-27.33 485.11,-30.94 524.56,-34.3"/>
<polygon fill="black" stroke="black" points="524.1,-37.78 534.36,-35.14 524.7,-30.8 524.1,-37.78"/>
<text text-anchor="middle" x="481.5" y="-37.8" font-family="Times,serif" font-size="14.00">possède 73%</text>
</g>
</g>
</svg>
