<?xml version="1.0" encoding="UTF-8" standalone="no"?>
<!DOCTYPE svg PUBLIC "-//W3C//DTD SVG 1.1//EN"
 "http://www.w3.org/Graphics/SVG/1.1/DTD/svg11.dtd">
<!-- Generated by graphviz version 8.1.0 (20230707.0739)
 -->
<!-- Pages: 1 -->
<svg width="648pt" height="76pt"
 viewBox="0.00 0.00 648.00 76.00" xmlns="http://www.w3.org/2000/svg" xmlns:xlink="http://www.w3.org/1999/xlink">
<g id="graph0" class="graph" transform="scale(1 1) rotate(0) translate(4 72)">
<polygon fill="white" stroke="none" points="-4,4 -4,-72 644,-72 644,4 -4,4"/>
<g id="clust2" class="cluster">
<title>clusterLeaves</title>
<polygon fill="none" stroke="black" points="502.04,-8 502.04,-60 632,-60 632,-8 502.04,-8"/>
</g>
<!-- les&#45;augustins&#45;de&#45;l&#45;assomption&#45;157 -->
<g id="node1" class="node">
<title>les&#45;augustins&#45;de&#45;l&#45;assomption&#45;157</title>
<polygon fill="none" stroke="black" points="187.75,-52 0,-52 0,-16 187.75,-16 187.75,-52"/>
<text text-anchor="middle" x="93.88" y="-28.95" font-family="Times,serif" font-size="14.00">Les Augustins de l’Assomption</text>
</g>
<!-- bayard&#45;158 -->
<g id="node2" class="node">
<title>bayard&#45;158</title>
<polygon fill="none" stroke="black" points="395.29,-39.56 348.89,-52 302.5,-39.56 302.54,-19.44 395.24,-19.44 395.29,-39.56"/>
<text text-anchor="middle" x="348.89" y="-28.95" font-family="Times,serif" font-size="14.00">Bayard</text>
</g>
<!-- les&#45;augustins&#45;de&#45;l&#45;assomption&#45;157&#45;&gt;bayard&#45;158 -->
<g id="edge2" class="edge">
<title>les&#45;augustins&#45;de&#45;l&#45;assomption&#45;157&#45;&gt;bayard&#45;158</title>
<path fill="none" stroke="black" d="M188.01,-34C222.65,-34 260.88,-34 291.27,-34"/>
<polygon fill="black" stroke="black" points="291.09,-37.5 301.09,-34 291.09,-30.5 291.09,-37.5"/>
<text text-anchor="middle" x="245.13" y="-37.2" font-family="Times,serif" font-size="14.00">possède 100%</text>
</g>
<!-- notre&#45;temps&#45;161 -->
<g id="node3" class="node">
<title>notre&#45;temps&#45;161</title>
<ellipse fill="none" stroke="black" cx="567.02" cy="-34" rx="56.98" ry="18"/>
<text text-anchor="middle" x="567.02" y="-28.95" font-family="Times,serif" font-size="14.00">Notre temps</text>
</g>
<!-- bayard&#45;158&#45;&gt;notre&#45;temps&#45;161 -->
<g id="edge1" class="edge">
<title>bayard&#45;158&#45;&gt;notre&#45;temps&#45;161</title>
<path fill="none" stroke="black" d="M395.73,-34C425.8,-34 465.64,-34 499.21,-34"/>
<polygon fill="black" stroke="black" points="498.88,-37.5 508.88,-34 498.88,-30.5 498.88,-37.5"/>
<text text-anchor="middle" x="452.66" y="-37.2" font-family="Times,serif" font-size="14.00">possède 100%</text>
</g>
</g>
</svg>
