<?xml version="1.0" encoding="UTF-8" standalone="no"?>
<!DOCTYPE svg PUBLIC "-//W3C//DTD SVG 1.1//EN"
 "http://www.w3.org/Graphics/SVG/1.1/DTD/svg11.dtd">
<!-- Generated by graphviz version 7.1.0 (20230121.1956)
 -->
<!-- Pages: 1 -->
<svg width="1281pt" height="76pt"
 viewBox="0.00 0.00 1281.08 76.00" xmlns="http://www.w3.org/2000/svg" xmlns:xlink="http://www.w3.org/1999/xlink">
<g id="graph0" class="graph" transform="scale(1 1) rotate(0) translate(4 72)">
<polygon fill="white" stroke="none" points="-4,4 -4,-72 1277.08,-72 1277.08,4 -4,4"/>
<g id="clust2" class="cluster">
<title>clusterLeaves</title>
<polygon fill="none" stroke="black" points="1155.48,-8 1155.48,-60 1265.08,-60 1265.08,-8 1155.48,-8"/>
</g>
<!-- patrick&#45;drahi&#45;56 -->
<g id="node1" class="node">
<title>patrick&#45;drahi&#45;56</title>
<polygon fill="none" stroke="black" points="104,-52 0,-52 0,-16 104,-16 104,-52"/>
<text text-anchor="middle" x="52" y="-30.3" font-family="Times,serif" font-size="14.00">🧑‍💼Patrick Drahi</text>
</g>
<!-- altice&#45;57 -->
<g id="node5" class="node">
<title>altice&#45;57</title>
<polygon fill="none" stroke="black" points="293.51,-39.56 253.17,-52 212.83,-39.56 212.87,-19.44 293.47,-19.44 293.51,-39.56"/>
<text text-anchor="middle" x="253.17" y="-30.3" font-family="Times,serif" font-size="14.00">Altice</text>
</g>
<!-- patrick&#45;drahi&#45;56&#45;&gt;altice&#45;57 -->
<g id="edge5" class="edge">
<title>patrick&#45;drahi&#45;56&#45;&gt;altice&#45;57</title>
<path fill="none" stroke="black" d="M104.29,-34C134,-34 171.28,-34 200.98,-34"/>
<polygon fill="black" stroke="black" points="200.85,-37.5 210.85,-34 200.85,-30.5 200.85,-37.5"/>
<text text-anchor="middle" x="158.5" y="-37.8" font-family="Times,serif" font-size="14.00">possède 61%</text>
</g>
<!-- rmc&#45;story&#45;327 -->
<g id="node2" class="node">
<title>rmc&#45;story&#45;327</title>
<polygon fill="none" stroke="black" points="1048.26,-39.56 984.21,-52 920.17,-39.56 920.23,-19.44 1048.2,-19.44 1048.26,-39.56"/>
<text text-anchor="middle" x="984.21" y="-30.3" font-family="Times,serif" font-size="14.00">RMC Story</text>
</g>
<!-- paris&#45;turf&#45;341 -->
<g id="node6" class="node">
<title>paris&#45;turf&#45;341</title>
<ellipse fill="none" stroke="black" cx="1210.28" cy="-34" rx="46.59" ry="18"/>
<text text-anchor="middle" x="1210.28" y="-30.3" font-family="Times,serif" font-size="14.00">Paris&#45;Turf</text>
</g>
<!-- rmc&#45;story&#45;327&#45;&gt;paris&#45;turf&#45;341 -->
<g id="edge1" class="edge">
<title>rmc&#45;story&#45;327&#45;&gt;paris&#45;turf&#45;341</title>
<path fill="none" stroke="black" d="M1048.52,-34C1081.03,-34 1120.32,-34 1151.93,-34"/>
<polygon fill="black" stroke="black" points="1151.69,-37.5 1161.69,-34 1151.68,-30.5 1151.69,-37.5"/>
<text text-anchor="middle" x="1105.98" y="-37.8" font-family="Times,serif" font-size="14.00">possède 100%</text>
</g>
<!-- altice&#45;media&#45;61 -->
<g id="node3" class="node">
<title>altice&#45;media&#45;61</title>
<polygon fill="none" stroke="black" points="804.94,-39.56 733.44,-52 661.94,-39.56 662.01,-19.44 804.88,-19.44 804.94,-39.56"/>
<text text-anchor="middle" x="733.44" y="-30.3" font-family="Times,serif" font-size="14.00">Altice Média</text>
</g>
<!-- altice&#45;media&#45;61&#45;&gt;rmc&#45;story&#45;327 -->
<g id="edge2" class="edge">
<title>altice&#45;media&#45;61&#45;&gt;rmc&#45;story&#45;327</title>
<path fill="none" stroke="black" d="M805.4,-34C837.64,-34 875.8,-34 908.49,-34"/>
<polygon fill="black" stroke="black" points="908.29,-37.5 918.29,-34 908.29,-30.5 908.29,-37.5"/>
<text text-anchor="middle" x="862.44" y="-37.8" font-family="Times,serif" font-size="14.00">possède 100%</text>
</g>
<!-- altice&#45;france&#45;58 -->
<g id="node4" class="node">
<title>altice&#45;france&#45;58</title>
<polygon fill="none" stroke="black" points="546.75,-39.56 474.64,-52 402.53,-39.56 402.6,-19.44 546.68,-19.44 546.75,-39.56"/>
<text text-anchor="middle" x="474.64" y="-30.3" font-family="Times,serif" font-size="14.00">Altice France</text>
</g>
<!-- altice&#45;france&#45;58&#45;&gt;altice&#45;media&#45;61 -->
<g id="edge3" class="edge">
<title>altice&#45;france&#45;58&#45;&gt;altice&#45;media&#45;61</title>
<path fill="none" stroke="black" d="M547.18,-34C579.17,-34 617.07,-34 650.23,-34"/>
<polygon fill="black" stroke="black" points="650.22,-37.5 660.22,-34 650.22,-30.5 650.22,-37.5"/>
<text text-anchor="middle" x="604.44" y="-37.8" font-family="Times,serif" font-size="14.00">possède 100%</text>
</g>
<!-- altice&#45;57&#45;&gt;altice&#45;france&#45;58 -->
<g id="edge4" class="edge">
<title>altice&#45;57&#45;&gt;altice&#45;france&#45;58</title>
<path fill="none" stroke="black" d="M293.91,-34C320.99,-34 357.83,-34 391.11,-34"/>
<polygon fill="black" stroke="black" points="390.72,-37.5 400.72,-34 390.72,-30.5 390.72,-37.5"/>
<text text-anchor="middle" x="347.84" y="-37.8" font-family="Times,serif" font-size="14.00">possède 78%</text>
</g>
</g>
</svg>
