<?xml version="1.0" encoding="UTF-8" standalone="no"?>
<!DOCTYPE svg PUBLIC "-//W3C//DTD SVG 1.1//EN"
 "http://www.w3.org/Graphics/SVG/1.1/DTD/svg11.dtd">
<!-- Generated by graphviz version 8.1.0 (20230707.0739)
 -->
<!-- Pages: 1 -->
<svg width="1704pt" height="518pt"
 viewBox="0.00 0.00 1703.67 518.00" xmlns="http://www.w3.org/2000/svg" xmlns:xlink="http://www.w3.org/1999/xlink">
<g id="graph0" class="graph" transform="scale(1 1) rotate(0) translate(4 514)">
<polygon fill="white" stroke="none" points="-4,4 -4,-514 1699.67,-514 1699.67,4 -4,4"/>
<g id="clust2" class="cluster">
<title>clusterLeaves</title>
<polygon fill="none" stroke="black" points="1517.78,-18 1517.78,-502 1687.67,-502 1687.67,-18 1517.78,-18"/>
</g>
<!-- patrick&#45;drahi&#45;56 -->
<g id="node1" class="node">
<title>patrick&#45;drahi&#45;56</title>
<polygon fill="none" stroke="black" points="103,-83 0,-83 0,-47 103,-47 103,-83"/>
<text text-anchor="middle" x="51.5" y="-61.08" font-family="Times,serif" font-size="14.00">🧑‍💼Patrick Drahi</text>
</g>
<!-- altice&#45;57 -->
<g id="node2" class="node">
<title>altice&#45;57</title>
<polygon fill="none" stroke="black" points="293.66,-70.56 252.33,-83 211,-70.56 211.04,-50.44 293.63,-50.44 293.66,-70.56"/>
<text text-anchor="middle" x="252.33" y="-59.95" font-family="Times,serif" font-size="14.00">Altice</text>
</g>
<!-- patrick&#45;drahi&#45;56&#45;&gt;altice&#45;57 -->
<g id="edge1" class="edge">
<title>patrick&#45;drahi&#45;56&#45;&gt;altice&#45;57</title>
<path fill="none" stroke="black" d="M103.45,-65C132.93,-65 169.95,-65 199.57,-65"/>
<polygon fill="black" stroke="black" points="199.53,-68.5 209.53,-65 199.53,-61.5 199.53,-68.5"/>
<text text-anchor="middle" x="157" y="-68.2" font-family="Times,serif" font-size="14.00">possède 61%</text>
</g>
<!-- altice&#45;france&#45;58 -->
<g id="node3" class="node">
<title>altice&#45;france&#45;58</title>
<polygon fill="none" stroke="black" points="552.65,-152.56 477.16,-165 401.66,-152.56 401.73,-132.44 552.58,-132.44 552.65,-152.56"/>
<text text-anchor="middle" x="477.16" y="-141.95" font-family="Times,serif" font-size="14.00">Altice France</text>
</g>
<!-- altice&#45;57&#45;&gt;altice&#45;france&#45;58 -->
<g id="edge2" class="edge">
<title>altice&#45;57&#45;&gt;altice&#45;france&#45;58</title>
<path fill="none" stroke="black" d="M271.9,-77.39C283.07,-84.44 297.77,-93.03 311.66,-99 340.02,-111.19 372.42,-121.38 400.91,-129.19"/>
<polygon fill="black" stroke="black" points="399.66,-132.75 410.22,-131.96 401.47,-125.99 399.66,-132.75"/>
<text text-anchor="middle" x="347.66" y="-126.2" font-family="Times,serif" font-size="14.00">possède 78%</text>
</g>
<!-- fonds&#45;de&#45;dotation&#45;pour&#45;une&#45;presse&#45;independante&#45;329 -->
<g id="node6" class="node">
<title>fonds&#45;de&#45;dotation&#45;pour&#45;une&#45;presse&#45;independante&#45;329</title>
<polygon fill="none" stroke="black" points="1409.53,-69.56 1170.82,-82 932.11,-69.56 932.33,-49.44 1409.31,-49.44 1409.53,-69.56"/>
<text text-anchor="middle" x="1170.82" y="-58.95" font-family="Times,serif" font-size="14.00">Fonds de Dotation pour une Presse Indépendante</text>
</g>
<!-- altice&#45;57&#45;&gt;fonds&#45;de&#45;dotation&#45;pour&#45;une&#45;presse&#45;independante&#45;329 -->
<g id="edge14" class="edge">
<title>altice&#45;57&#45;&gt;fonds&#45;de&#45;dotation&#45;pour&#45;une&#45;presse&#45;independante&#45;329</title>
<path fill="none" stroke="black" d="M293.89,-64.96C401.73,-64.84 702.2,-64.51 921.22,-64.27"/>
<polygon fill="black" stroke="black" points="920.92,-67.77 930.92,-64.26 920.91,-60.77 920.92,-67.77"/>
<text text-anchor="middle" x="610.78" y="-68.2" font-family="Times,serif" font-size="14.00">contrôle 100%</text>
</g>
<!-- altice&#45;57&#45;&gt;fonds&#45;de&#45;dotation&#45;pour&#45;une&#45;presse&#45;independante&#45;329 -->
<g id="edge16" class="edge">
<title>altice&#45;57&#45;&gt;fonds&#45;de&#45;dotation&#45;pour&#45;une&#45;presse&#45;independante&#45;329</title>
<path fill="none" stroke="black" d="M293.86,-61.53C354.16,-56.56 471.06,-47.67 570.65,-44.5 685.92,-40.83 813.66,-43.99 921.48,-48.76"/>
<polygon fill="black" stroke="black" points="921.04,-52.29 931.18,-49.24 921.35,-45.29 921.04,-52.29"/>
<text text-anchor="middle" x="610.78" y="-48.2" font-family="Times,serif" font-size="14.00">contrôle 100%</text>
</g>
<!-- i24&#45;news&#45;320 -->
<g id="node15" class="node">
<title>i24&#45;news&#45;320</title>
<ellipse fill="none" stroke="black" cx="1602.72" cy="-44" rx="46.23" ry="18"/>
<text text-anchor="middle" x="1602.72" y="-38.95" font-family="Times,serif" font-size="14.00">i24 News</text>
</g>
<!-- altice&#45;57&#45;&gt;i24&#45;news&#45;320 -->
<g id="edge13" class="edge">
<title>altice&#45;57&#45;&gt;i24&#45;news&#45;320</title>
<path fill="none" stroke="black" d="M283.87,-50.09C326.06,-30.9 405.03,0 476.16,0 476.16,0 476.16,0 1171.82,0 1308.6,0 1468.6,-22.32 1549.37,-35.16"/>
<polygon fill="black" stroke="black" points="1548.34,-38.7 1558.77,-36.83 1549.45,-31.79 1548.34,-38.7"/>
<text text-anchor="middle" x="743.13" y="-3.2" font-family="Times,serif" font-size="14.00">possède 100%</text>
</g>
<!-- altice&#45;media&#45;61 -->
<g id="node4" class="node">
<title>altice&#45;media&#45;61</title>
<polygon fill="none" stroke="black" points="817.36,-293.56 743.13,-306 668.9,-293.56 668.97,-273.44 817.29,-273.44 817.36,-293.56"/>
<text text-anchor="middle" x="743.13" y="-282.95" font-family="Times,serif" font-size="14.00">Altice Média</text>
</g>
<!-- altice&#45;france&#45;58&#45;&gt;altice&#45;media&#45;61 -->
<g id="edge5" class="edge">
<title>altice&#45;france&#45;58&#45;&gt;altice&#45;media&#45;61</title>
<path fill="none" stroke="black" d="M503.95,-160.78C550.85,-185.83 650.26,-238.93 704.65,-267.98"/>
<polygon fill="black" stroke="black" points="702.79,-271.49 713.25,-273.11 706.08,-265.31 702.79,-271.49"/>
<text text-anchor="middle" x="610.78" y="-241.2" font-family="Times,serif" font-size="14.00">possède 100%</text>
</g>
<!-- l&#45;express&#45;59 -->
<g id="node7" class="node">
<title>l&#45;express&#45;59</title>
<ellipse fill="none" stroke="black" cx="1602.72" cy="-152" rx="48.28" ry="18"/>
<text text-anchor="middle" x="1602.72" y="-146.95" font-family="Times,serif" font-size="14.00">L’Express</text>
</g>
<!-- altice&#45;france&#45;58&#45;&gt;l&#45;express&#45;59 -->
<g id="edge3" class="edge">
<title>altice&#45;france&#45;58&#45;&gt;l&#45;express&#45;59</title>
<path fill="none" stroke="black" d="M552.75,-147.33C762.51,-148.27 1354.53,-150.9 1543.19,-151.74"/>
<polygon fill="black" stroke="black" points="1542.96,-155.24 1552.98,-151.79 1542.99,-148.24 1542.96,-155.24"/>
<text text-anchor="middle" x="874.73" y="-151.2" font-family="Times,serif" font-size="14.00">possède 49%</text>
</g>
<!-- liberation&#45;60 -->
<g id="node8" class="node">
<title>liberation&#45;60</title>
<ellipse fill="none" stroke="black" cx="1602.72" cy="-98" rx="49.3" ry="18"/>
<text text-anchor="middle" x="1602.72" y="-92.95" font-family="Times,serif" font-size="14.00">Libération</text>
</g>
<!-- altice&#45;france&#45;58&#45;&gt;liberation&#45;60 -->
<g id="edge4" class="edge">
<title>altice&#45;france&#45;58&#45;&gt;liberation&#45;60</title>
<path fill="none" stroke="black" d="M553.05,-142.32C625.3,-137.95 737.78,-131.51 835.36,-127.5 1134.08,-115.24 1209.59,-130.52 1507.78,-109 1519.94,-108.12 1532.95,-106.83 1545.3,-105.43"/>
<polygon fill="black" stroke="black" points="1545.41,-108.83 1554.93,-104.19 1544.59,-101.88 1545.41,-108.83"/>
<text text-anchor="middle" x="874.73" y="-130.2" font-family="Times,serif" font-size="14.00">possède 100%</text>
</g>
<!-- rmc&#45;story&#45;327 -->
<g id="node5" class="node">
<title>rmc&#45;story&#45;327</title>
<polygon fill="none" stroke="black" points="1238.09,-427.56 1170.82,-440 1103.55,-427.56 1103.61,-407.44 1238.03,-407.44 1238.09,-427.56"/>
<text text-anchor="middle" x="1170.82" y="-416.95" font-family="Times,serif" font-size="14.00">RMC Story</text>
</g>
<!-- altice&#45;media&#45;61&#45;&gt;rmc&#45;story&#45;327 -->
<g id="edge8" class="edge">
<title>altice&#45;media&#45;61&#45;&gt;rmc&#45;story&#45;327</title>
<path fill="none" stroke="black" d="M754.52,-304.23C769.48,-326.04 799.28,-364.14 835.36,-382 916.61,-422.23 1022.12,-428.4 1092.71,-427.01"/>
<polygon fill="black" stroke="black" points="1092.39,-430.5 1102.29,-426.74 1092.21,-423.5 1092.39,-430.5"/>
<text text-anchor="middle" x="874.73" y="-412.2" font-family="Times,serif" font-size="14.00">possède 100%</text>
</g>
<!-- bfm&#45;business&#45;65 -->
<g id="node9" class="node">
<title>bfm&#45;business&#45;65</title>
<ellipse fill="none" stroke="black" cx="1602.72" cy="-368" rx="66.19" ry="18"/>
<text text-anchor="middle" x="1602.72" y="-362.95" font-family="Times,serif" font-size="14.00">BFM Business</text>
</g>
<!-- altice&#45;media&#45;61&#45;&gt;bfm&#45;business&#45;65 -->
<g id="edge6" class="edge">
<title>altice&#45;media&#45;61&#45;&gt;bfm&#45;business&#45;65</title>
<path fill="none" stroke="black" d="M786.34,-299.19C824.22,-308.76 881.48,-322.05 932.11,-329 1145.72,-358.33 1400.63,-365.64 1525.35,-367.43"/>
<polygon fill="black" stroke="black" points="1525.24,-370.94 1535.28,-367.58 1525.33,-363.94 1525.24,-370.94"/>
<text text-anchor="middle" x="1170.82" y="-367.2" font-family="Times,serif" font-size="14.00">possède 100%</text>
</g>
<!-- bfm&#45;tv&#45;62 -->
<g id="node10" class="node">
<title>bfm&#45;tv&#45;62</title>
<ellipse fill="none" stroke="black" cx="1602.72" cy="-314" rx="45.21" ry="18"/>
<text text-anchor="middle" x="1602.72" y="-308.95" font-family="Times,serif" font-size="14.00">BFM TV</text>
</g>
<!-- altice&#45;media&#45;61&#45;&gt;bfm&#45;tv&#45;62 -->
<g id="edge7" class="edge">
<title>altice&#45;media&#45;61&#45;&gt;bfm&#45;tv&#45;62</title>
<path fill="none" stroke="black" d="M817.62,-290.23C986.22,-295.34 1397.74,-307.82 1546.73,-312.33"/>
<polygon fill="black" stroke="black" points="1546.32,-315.85 1556.42,-312.66 1546.53,-308.86 1546.32,-315.85"/>
<text text-anchor="middle" x="1170.82" y="-311.2" font-family="Times,serif" font-size="14.00">possède 100%</text>
</g>
<!-- rmc&#45;64 -->
<g id="node13" class="node">
<title>rmc&#45;64</title>
<ellipse fill="none" stroke="black" cx="1602.72" cy="-260" rx="31.9" ry="18"/>
<text text-anchor="middle" x="1602.72" y="-254.95" font-family="Times,serif" font-size="14.00">RMC</text>
</g>
<!-- altice&#45;media&#45;61&#45;&gt;rmc&#45;64 -->
<g id="edge11" class="edge">
<title>altice&#45;media&#45;61&#45;&gt;rmc&#45;64</title>
<path fill="none" stroke="black" d="M817.71,-280.84C852.38,-277.75 894.33,-274.41 932.11,-272.5 1169.08,-260.53 1453.74,-259.7 1559.49,-259.86"/>
<polygon fill="black" stroke="black" points="1559.32,-263.36 1569.32,-259.88 1559.33,-256.36 1559.32,-263.36"/>
<text text-anchor="middle" x="1170.82" y="-275.2" font-family="Times,serif" font-size="14.00">possède 100%</text>
</g>
<!-- rmc&#45;decouverte&#45;63 -->
<g id="node14" class="node">
<title>rmc&#45;decouverte&#45;63</title>
<ellipse fill="none" stroke="black" cx="1602.72" cy="-206" rx="76.94" ry="18"/>
<text text-anchor="middle" x="1602.72" y="-200.95" font-family="Times,serif" font-size="14.00">RMC Découverte</text>
</g>
<!-- altice&#45;media&#45;61&#45;&gt;rmc&#45;decouverte&#45;63 -->
<g id="edge12" class="edge">
<title>altice&#45;media&#45;61&#45;&gt;rmc&#45;decouverte&#45;63</title>
<path fill="none" stroke="black" d="M791.48,-272.94C829.16,-261.65 883.46,-246.91 932.11,-239.5 1139.38,-207.91 1386.48,-204.19 1514.75,-204.76"/>
<polygon fill="black" stroke="black" points="1514.64,-208.26 1524.66,-204.82 1514.68,-201.26 1514.64,-208.26"/>
<text text-anchor="middle" x="1170.82" y="-242.2" font-family="Times,serif" font-size="14.00">possède 100%</text>
</g>
<!-- nice&#45;matin&#45;281 -->
<g id="node11" class="node">
<title>nice&#45;matin&#45;281</title>
<ellipse fill="none" stroke="black" cx="1602.72" cy="-476" rx="53.91" ry="18"/>
<text text-anchor="middle" x="1602.72" y="-470.95" font-family="Times,serif" font-size="14.00">Nice&#45;Matin</text>
</g>
<!-- rmc&#45;story&#45;327&#45;&gt;nice&#45;matin&#45;281 -->
<g id="edge9" class="edge">
<title>rmc&#45;story&#45;327&#45;&gt;nice&#45;matin&#45;281</title>
<path fill="none" stroke="black" d="M1230.7,-429.4C1312.12,-439.62 1458.39,-458 1540.86,-468.35"/>
<polygon fill="black" stroke="black" points="1540.21,-471.93 1550.57,-469.7 1541.09,-464.98 1540.21,-471.93"/>
<text text-anchor="middle" x="1467.66" y="-465.2" font-family="Times,serif" font-size="14.00">possède 100%</text>
</g>
<!-- paris&#45;turf&#45;341 -->
<g id="node12" class="node">
<title>paris&#45;turf&#45;341</title>
<ellipse fill="none" stroke="black" cx="1602.72" cy="-422" rx="48.79" ry="18"/>
<text text-anchor="middle" x="1602.72" y="-416.95" font-family="Times,serif" font-size="14.00">Paris&#45;Turf</text>
</g>
<!-- rmc&#45;story&#45;327&#45;&gt;paris&#45;turf&#45;341 -->
<g id="edge10" class="edge">
<title>rmc&#45;story&#45;327&#45;&gt;paris&#45;turf&#45;341</title>
<path fill="none" stroke="black" d="M1238.52,-422C1321.86,-422 1463.18,-422 1542.74,-422"/>
<polygon fill="black" stroke="black" points="1542.55,-425.5 1552.55,-422 1542.55,-418.5 1542.55,-425.5"/>
<text text-anchor="middle" x="1467.66" y="-425.2" font-family="Times,serif" font-size="14.00">possède 100%</text>
</g>
<!-- fonds&#45;de&#45;dotation&#45;pour&#45;une&#45;presse&#45;independante&#45;329&#45;&gt;liberation&#45;60 -->
<g id="edge15" class="edge">
<title>fonds&#45;de&#45;dotation&#45;pour&#45;une&#45;presse&#45;independante&#45;329&#45;&gt;liberation&#45;60</title>
<path fill="none" stroke="black" d="M1312.29,-75.11C1390.81,-81.32 1484.46,-88.73 1543.52,-93.4"/>
<polygon fill="black" stroke="black" points="1542.89,-96.94 1553.13,-94.24 1543.44,-89.96 1542.89,-96.94"/>
<text text-anchor="middle" x="1467.66" y="-92.2" font-family="Times,serif" font-size="14.00">contrôle 100%</text>
</g>
<!-- fonds&#45;de&#45;dotation&#45;pour&#45;une&#45;presse&#45;independante&#45;329&#45;&gt;liberation&#45;60 -->
<g id="edge17" class="edge">
<title>fonds&#45;de&#45;dotation&#45;pour&#45;une&#45;presse&#45;independante&#45;329&#45;&gt;liberation&#45;60</title>
<path fill="none" stroke="black" d="M1278.09,-48.96C1345.32,-43.13 1433.28,-42.36 1507.78,-64.5 1512.86,-66.01 1513,-68.72 1517.78,-71 1528.47,-76.08 1540.37,-80.56 1551.76,-84.33"/>
<polygon fill="black" stroke="black" points="1550.44,-87.9 1561.03,-87.59 1552.56,-81.23 1550.44,-87.9"/>
<text text-anchor="middle" x="1467.66" y="-68.2" font-family="Times,serif" font-size="14.00">contrôle 100%</text>
</g>
</g>
</svg>
