<?xml version="1.0" encoding="UTF-8" standalone="no"?>
<!DOCTYPE svg PUBLIC "-//W3C//DTD SVG 1.1//EN"
 "http://www.w3.org/Graphics/SVG/1.1/DTD/svg11.dtd">
<!-- Generated by graphviz version 7.1.0 (20230121.1956)
 -->
<!-- Pages: 1 -->
<svg width="1666pt" height="509pt"
 viewBox="0.00 0.00 1666.15 509.00" xmlns="http://www.w3.org/2000/svg" xmlns:xlink="http://www.w3.org/1999/xlink">
<g id="graph0" class="graph" transform="scale(1 1) rotate(0) translate(4 505)">
<polygon fill="white" stroke="none" points="-4,4 -4,-505 1662.15,-505 1662.15,4 -4,4"/>
<g id="clust2" class="cluster">
<title>clusterLeaves</title>
<polygon fill="none" stroke="black" points="1487.26,-9 1487.26,-493 1650.15,-493 1650.15,-9 1487.26,-9"/>
</g>
<!-- patrick&#45;drahi&#45;56 -->
<g id="node1" class="node">
<title>patrick&#45;drahi&#45;56</title>
<polygon fill="none" stroke="black" points="104,-80 0,-80 0,-44 104,-44 104,-80"/>
<text text-anchor="middle" x="52" y="-58.3" font-family="Times,serif" font-size="14.00">🧑‍💼Patrick Drahi</text>
</g>
<!-- altice&#45;57 -->
<g id="node2" class="node">
<title>altice&#45;57</title>
<polygon fill="none" stroke="black" points="293.51,-67.56 253.17,-80 212.83,-67.56 212.87,-47.44 293.47,-47.44 293.51,-67.56"/>
<text text-anchor="middle" x="253.17" y="-58.3" font-family="Times,serif" font-size="14.00">Altice</text>
</g>
<!-- patrick&#45;drahi&#45;56&#45;&gt;altice&#45;57 -->
<g id="edge1" class="edge">
<title>patrick&#45;drahi&#45;56&#45;&gt;altice&#45;57</title>
<path fill="none" stroke="black" d="M104.29,-62C134,-62 171.28,-62 200.98,-62"/>
<polygon fill="black" stroke="black" points="200.85,-65.5 210.85,-62 200.85,-58.5 200.85,-65.5"/>
<text text-anchor="middle" x="158.5" y="-65.8" font-family="Times,serif" font-size="14.00">possède 61%</text>
</g>
<!-- altice&#45;france&#45;58 -->
<g id="node3" class="node">
<title>altice&#45;france&#45;58</title>
<polygon fill="none" stroke="black" points="546.75,-147.56 474.64,-160 402.53,-147.56 402.6,-127.44 546.68,-127.44 546.75,-147.56"/>
<text text-anchor="middle" x="474.64" y="-138.3" font-family="Times,serif" font-size="14.00">Altice France</text>
</g>
<!-- altice&#45;57&#45;&gt;altice&#45;france&#45;58 -->
<g id="edge2" class="edge">
<title>altice&#45;57&#45;&gt;altice&#45;france&#45;58</title>
<path fill="none" stroke="black" d="M272.89,-74.35C283.77,-81.13 297.95,-89.3 311.34,-95 338.74,-106.67 369.93,-116.48 397.6,-124.06"/>
<polygon fill="black" stroke="black" points="396.39,-127.36 406.95,-126.57 398.2,-120.6 396.39,-127.36"/>
<text text-anchor="middle" x="347.84" y="-122.8" font-family="Times,serif" font-size="14.00">possède 78%</text>
</g>
<!-- fonds&#45;de&#45;dotation&#45;pour&#45;une&#45;presse&#45;independante&#45;329 -->
<g id="node6" class="node">
<title>fonds&#45;de&#45;dotation&#45;pour&#45;une&#45;presse&#45;independante&#45;329</title>
<polygon fill="none" stroke="black" points="1378.42,-67.56 1150.1,-80 921.79,-67.56 922,-47.44 1378.21,-47.44 1378.42,-67.56"/>
<text text-anchor="middle" x="1150.1" y="-58.3" font-family="Times,serif" font-size="14.00">Fonds de Dotation pour une Presse Indépendante</text>
</g>
<!-- altice&#45;57&#45;&gt;fonds&#45;de&#45;dotation&#45;pour&#45;une&#45;presse&#45;independante&#45;329 -->
<g id="edge14" class="edge">
<title>altice&#45;57&#45;&gt;fonds&#45;de&#45;dotation&#45;pour&#45;une&#45;presse&#45;independante&#45;329</title>
<path fill="none" stroke="black" d="M293.78,-62C399.67,-62 695.78,-62 909.95,-62"/>
<polygon fill="black" stroke="black" points="909.85,-65.5 919.85,-62 909.85,-58.5 909.85,-65.5"/>
<text text-anchor="middle" x="605.44" y="-65.8" font-family="Times,serif" font-size="14.00">contrôle 100%</text>
</g>
<!-- altice&#45;57&#45;&gt;fonds&#45;de&#45;dotation&#45;pour&#45;une&#45;presse&#45;independante&#45;329 -->
<g id="edge16" class="edge">
<title>altice&#45;57&#45;&gt;fonds&#45;de&#45;dotation&#45;pour&#45;une&#45;presse&#45;independante&#45;329</title>
<path fill="none" stroke="black" d="M293.87,-58.77C352.92,-54.15 467.42,-45.88 564.94,-43 678.46,-39.65 804.38,-42.86 910.15,-47.53"/>
<polygon fill="black" stroke="black" points="909.97,-51.03 920.12,-47.98 910.29,-44.03 909.97,-51.03"/>
<text text-anchor="middle" x="605.44" y="-46.8" font-family="Times,serif" font-size="14.00">contrôle 100%</text>
</g>
<!-- i24&#45;news&#45;320 -->
<g id="node15" class="node">
<title>i24&#45;news&#45;320</title>
<ellipse fill="none" stroke="black" cx="1568.7" cy="-35" rx="44.39" ry="18"/>
<text text-anchor="middle" x="1568.7" y="-31.3" font-family="Times,serif" font-size="14.00">i24 News</text>
</g>
<!-- altice&#45;57&#45;&gt;i24&#45;news&#45;320 -->
<g id="edge13" class="edge">
<title>altice&#45;57&#45;&gt;i24&#45;news&#45;320</title>
<path fill="none" stroke="black" d="M286.09,-46.99C328.12,-28.64 404.75,0 473.64,0 473.64,0 473.64,0 1151.1,0 1282.37,0 1436.09,-17.47 1515.02,-27.72"/>
<polygon fill="black" stroke="black" points="1514.24,-31.15 1524.61,-28.98 1515.15,-24.21 1514.24,-31.15"/>
<text text-anchor="middle" x="735.44" y="-3.8" font-family="Times,serif" font-size="14.00">possède 100%</text>
</g>
<!-- altice&#45;media&#45;61 -->
<g id="node4" class="node">
<title>altice&#45;media&#45;61</title>
<polygon fill="none" stroke="black" points="806.94,-284.56 735.44,-297 663.94,-284.56 664.01,-264.44 806.88,-264.44 806.94,-284.56"/>
<text text-anchor="middle" x="735.44" y="-275.3" font-family="Times,serif" font-size="14.00">Altice Média</text>
</g>
<!-- altice&#45;france&#45;58&#45;&gt;altice&#45;media&#45;61 -->
<g id="edge5" class="edge">
<title>altice&#45;france&#45;58&#45;&gt;altice&#45;media&#45;61</title>
<path fill="none" stroke="black" d="M501.4,-155.64C547.07,-179.81 642.44,-230.3 695.94,-258.62"/>
<polygon fill="black" stroke="black" points="694.24,-261.68 704.71,-263.26 697.51,-255.49 694.24,-261.68"/>
<text text-anchor="middle" x="605.44" y="-233.8" font-family="Times,serif" font-size="14.00">possède 100%</text>
</g>
<!-- l&#45;express&#45;59 -->
<g id="node7" class="node">
<title>l&#45;express&#45;59</title>
<ellipse fill="none" stroke="black" cx="1568.7" cy="-143" rx="46.29" ry="18"/>
<text text-anchor="middle" x="1568.7" y="-139.3" font-family="Times,serif" font-size="14.00">L’Express</text>
</g>
<!-- altice&#45;france&#45;58&#45;&gt;l&#45;express&#45;59 -->
<g id="edge3" class="edge">
<title>altice&#45;france&#45;58&#45;&gt;l&#45;express&#45;59</title>
<path fill="none" stroke="black" d="M546.87,-142.07C749.6,-142.25 1326.92,-142.78 1510.75,-142.95"/>
<polygon fill="black" stroke="black" points="1510.51,-146.45 1520.51,-142.96 1510.51,-139.45 1510.51,-146.45"/>
<text text-anchor="middle" x="864.44" y="-145.8" font-family="Times,serif" font-size="14.00">possède 49%</text>
</g>
<!-- liberation&#45;60 -->
<g id="node8" class="node">
<title>liberation&#45;60</title>
<ellipse fill="none" stroke="black" cx="1568.7" cy="-89" rx="47.39" ry="18"/>
<text text-anchor="middle" x="1568.7" y="-85.3" font-family="Times,serif" font-size="14.00">Libération</text>
</g>
<!-- altice&#45;france&#45;58&#45;&gt;liberation&#45;60 -->
<g id="edge4" class="edge">
<title>altice&#45;france&#45;58&#45;&gt;liberation&#45;60</title>
<path fill="none" stroke="black" d="M547.2,-137.67C617.79,-133.51 728.78,-127.24 824.94,-123 1114.75,-110.23 1188.17,-124.99 1477.26,-101 1488.86,-100.04 1501.26,-98.64 1513.04,-97.13"/>
<polygon fill="black" stroke="black" points="1513.14,-100.65 1522.59,-95.87 1512.22,-93.71 1513.14,-100.65"/>
<text text-anchor="middle" x="864.44" y="-126.8" font-family="Times,serif" font-size="14.00">possède 100%</text>
</g>
<!-- rmc&#45;story&#45;327 -->
<g id="node5" class="node">
<title>rmc&#45;story&#45;327</title>
<polygon fill="none" stroke="black" points="1214.14,-418.56 1150.1,-431 1086.06,-418.56 1086.12,-398.44 1214.08,-398.44 1214.14,-418.56"/>
<text text-anchor="middle" x="1150.1" y="-409.3" font-family="Times,serif" font-size="14.00">RMC Story</text>
</g>
<!-- altice&#45;media&#45;61&#45;&gt;rmc&#45;story&#45;327 -->
<g id="edge8" class="edge">
<title>altice&#45;media&#45;61&#45;&gt;rmc&#45;story&#45;327</title>
<path fill="none" stroke="black" d="M746.71,-295.39C761.23,-316.98 789.94,-354.3 824.94,-372 903.59,-411.75 1006.16,-418.36 1074.65,-417.41"/>
<polygon fill="black" stroke="black" points="1074.33,-420.91 1084.25,-417.21 1074.18,-413.91 1074.33,-420.91"/>
<text text-anchor="middle" x="864.44" y="-402.8" font-family="Times,serif" font-size="14.00">possède 100%</text>
</g>
<!-- bfm&#45;business&#45;65 -->
<g id="node9" class="node">
<title>bfm&#45;business&#45;65</title>
<ellipse fill="none" stroke="black" cx="1568.7" cy="-359" rx="63.89" ry="18"/>
<text text-anchor="middle" x="1568.7" y="-355.3" font-family="Times,serif" font-size="14.00">BFM Business</text>
</g>
<!-- altice&#45;media&#45;61&#45;&gt;bfm&#45;business&#45;65 -->
<g id="edge6" class="edge">
<title>altice&#45;media&#45;61&#45;&gt;bfm&#45;business&#45;65</title>
<path fill="none" stroke="black" d="M779.24,-289.83C816.65,-298.85 872.54,-311.27 921.94,-318 1127.63,-346 1372.84,-354.94 1493.35,-357.75"/>
<polygon fill="black" stroke="black" points="1493.03,-361.24 1503.1,-357.97 1493.18,-354.24 1493.03,-361.24"/>
<text text-anchor="middle" x="1150.1" y="-357.8" font-family="Times,serif" font-size="14.00">possède 100%</text>
</g>
<!-- bfm&#45;tv&#45;62 -->
<g id="node10" class="node">
<title>bfm&#45;tv&#45;62</title>
<ellipse fill="none" stroke="black" cx="1568.7" cy="-305" rx="43.59" ry="18"/>
<text text-anchor="middle" x="1568.7" y="-301.3" font-family="Times,serif" font-size="14.00">BFM TV</text>
</g>
<!-- altice&#45;media&#45;61&#45;&gt;bfm&#45;tv&#45;62 -->
<g id="edge7" class="edge">
<title>altice&#45;media&#45;61&#45;&gt;bfm&#45;tv&#45;62</title>
<path fill="none" stroke="black" d="M807.32,-281.22C970.35,-286.32 1369.11,-298.79 1513.98,-303.32"/>
<polygon fill="black" stroke="black" points="1513.56,-306.81 1523.67,-303.62 1513.78,-299.81 1513.56,-306.81"/>
<text text-anchor="middle" x="1150.1" y="-302.8" font-family="Times,serif" font-size="14.00">possède 100%</text>
</g>
<!-- rmc&#45;64 -->
<g id="node13" class="node">
<title>rmc&#45;64</title>
<ellipse fill="none" stroke="black" cx="1568.7" cy="-251" rx="30.59" ry="18"/>
<text text-anchor="middle" x="1568.7" y="-247.3" font-family="Times,serif" font-size="14.00">RMC</text>
</g>
<!-- altice&#45;media&#45;61&#45;&gt;rmc&#45;64 -->
<g id="edge11" class="edge">
<title>altice&#45;media&#45;61&#45;&gt;rmc&#45;64</title>
<path fill="none" stroke="black" d="M807.3,-272.76C841.85,-269.94 884.04,-266.84 921.94,-265 1150.08,-253.93 1423.99,-251.61 1526.41,-251.13"/>
<polygon fill="black" stroke="black" points="1526.25,-254.63 1536.24,-251.08 1526.22,-247.63 1526.25,-254.63"/>
<text text-anchor="middle" x="1150.1" y="-268.8" font-family="Times,serif" font-size="14.00">possède 100%</text>
</g>
<!-- rmc&#45;decouverte&#45;63 -->
<g id="node14" class="node">
<title>rmc&#45;decouverte&#45;63</title>
<ellipse fill="none" stroke="black" cx="1568.7" cy="-197" rx="73.39" ry="18"/>
<text text-anchor="middle" x="1568.7" y="-193.3" font-family="Times,serif" font-size="14.00">RMC Découverte</text>
</g>
<!-- altice&#45;media&#45;61&#45;&gt;rmc&#45;decouverte&#45;63 -->
<g id="edge12" class="edge">
<title>altice&#45;media&#45;61&#45;&gt;rmc&#45;decouverte&#45;63</title>
<path fill="none" stroke="black" d="M785.93,-264.04C823.01,-253.49 875.19,-240.04 921.94,-233 1121.95,-202.9 1360.2,-197.33 1483.86,-196.68"/>
<polygon fill="black" stroke="black" points="1483.6,-200.18 1493.59,-196.64 1483.57,-193.18 1483.6,-200.18"/>
<text text-anchor="middle" x="1150.1" y="-236.8" font-family="Times,serif" font-size="14.00">possède 100%</text>
</g>
<!-- nice&#45;matin&#45;281 -->
<g id="node11" class="node">
<title>nice&#45;matin&#45;281</title>
<ellipse fill="none" stroke="black" cx="1568.7" cy="-467" rx="51.99" ry="18"/>
<text text-anchor="middle" x="1568.7" y="-463.3" font-family="Times,serif" font-size="14.00">Nice&#45;Matin</text>
</g>
<!-- rmc&#45;story&#45;327&#45;&gt;nice&#45;matin&#45;281 -->
<g id="edge9" class="edge">
<title>rmc&#45;story&#45;327&#45;&gt;nice&#45;matin&#45;281</title>
<path fill="none" stroke="black" d="M1207.29,-420.28C1285.82,-430.46 1427.79,-448.86 1508.12,-459.28"/>
<polygon fill="black" stroke="black" points="1507.64,-462.74 1518,-460.56 1508.54,-455.8 1507.64,-462.74"/>
<text text-anchor="middle" x="1436.76" y="-456.8" font-family="Times,serif" font-size="14.00">possède 100%</text>
</g>
<!-- paris&#45;turf&#45;341 -->
<g id="node12" class="node">
<title>paris&#45;turf&#45;341</title>
<ellipse fill="none" stroke="black" cx="1568.7" cy="-413" rx="46.59" ry="18"/>
<text text-anchor="middle" x="1568.7" y="-409.3" font-family="Times,serif" font-size="14.00">Paris&#45;Turf</text>
</g>
<!-- rmc&#45;story&#45;327&#45;&gt;paris&#45;turf&#45;341 -->
<g id="edge10" class="edge">
<title>rmc&#45;story&#45;327&#45;&gt;paris&#45;turf&#45;341</title>
<path fill="none" stroke="black" d="M1214.38,-413C1294.92,-413 1432.89,-413 1510.44,-413"/>
<polygon fill="black" stroke="black" points="1510.38,-416.5 1520.38,-413 1510.38,-409.5 1510.38,-416.5"/>
<text text-anchor="middle" x="1436.76" y="-416.8" font-family="Times,serif" font-size="14.00">possède 100%</text>
</g>
<!-- fonds&#45;de&#45;dotation&#45;pour&#45;une&#45;presse&#45;independante&#45;329&#45;&gt;liberation&#45;60 -->
<g id="edge15" class="edge">
<title>fonds&#45;de&#45;dotation&#45;pour&#45;une&#45;presse&#45;independante&#45;329&#45;&gt;liberation&#45;60</title>
<path fill="none" stroke="black" d="M1305.64,-72.02C1377.11,-76.65 1457.65,-81.87 1510.35,-85.28"/>
<polygon fill="black" stroke="black" points="1510.1,-88.77 1520.3,-85.93 1510.55,-81.79 1510.1,-88.77"/>
<text text-anchor="middle" x="1436.76" y="-85.8" font-family="Times,serif" font-size="14.00">contrôle 100%</text>
</g>
<!-- fonds&#45;de&#45;dotation&#45;pour&#45;une&#45;presse&#45;independante&#45;329&#45;&gt;liberation&#45;60 -->
<g id="edge17" class="edge">
<title>fonds&#45;de&#45;dotation&#45;pour&#45;une&#45;presse&#45;independante&#45;329&#45;&gt;liberation&#45;60</title>
<path fill="none" stroke="black" d="M1378.49,-47.44C1411.81,-48.71 1445.56,-51.9 1477.26,-58 1481.96,-58.91 1482.77,-60.35 1487.26,-62 1498.15,-66 1509.95,-70.1 1521.07,-73.85"/>
<polygon fill="black" stroke="black" points="1519.88,-77.14 1530.48,-76.99 1522.1,-70.5 1519.88,-77.14"/>
<text text-anchor="middle" x="1436.76" y="-61.8" font-family="Times,serif" font-size="14.00">contrôle 100%</text>
</g>
</g>
</svg>
