<?xml version="1.0" encoding="UTF-8" standalone="no"?>
<!DOCTYPE svg PUBLIC "-//W3C//DTD SVG 1.1//EN"
 "http://www.w3.org/Graphics/SVG/1.1/DTD/svg11.dtd">
<!-- Generated by graphviz version 7.1.0 (20230121.1956)
 -->
<!-- Pages: 1 -->
<svg width="1169pt" height="400pt"
 viewBox="0.00 0.00 1168.73 400.00" xmlns="http://www.w3.org/2000/svg" xmlns:xlink="http://www.w3.org/1999/xlink">
<g id="graph0" class="graph" transform="scale(1 1) rotate(0) translate(4 396)">
<polygon fill="white" stroke="none" points="-4,4 -4,-396 1164.73,-396 1164.73,4 -4,4"/>
<g id="clust2" class="cluster">
<title>clusterLeaves</title>
<polygon fill="none" stroke="black" points="876.75,-8 876.75,-384 1152.73,-384 1152.73,-8 876.75,-8"/>
</g>
<!-- philippe&#45;hersant&#45;292 -->
<g id="node1" class="node">
<title>philippe&#45;hersant&#45;292</title>
<polygon fill="none" stroke="black" points="122,-79 0,-79 0,-43 122,-43 122,-79"/>
<text text-anchor="middle" x="61" y="-57.3" font-family="Times,serif" font-size="14.00">🧑‍💼Philippe Hersant</text>
</g>
<!-- editions&#45;suisses&#45;holding&#45;293 -->
<g id="node2" class="node">
<title>editions&#45;suisses&#45;holding&#45;293</title>
<polygon fill="none" stroke="black" points="482.75,-147.56 359.92,-160 237.08,-147.56 237.2,-127.44 482.63,-127.44 482.75,-147.56"/>
<text text-anchor="middle" x="359.92" y="-138.3" font-family="Times,serif" font-size="14.00">Éditions Suisses Holding</text>
</g>
<!-- philippe&#45;hersant&#45;292&#45;&gt;editions&#45;suisses&#45;holding&#45;293 -->
<g id="edge1" class="edge">
<title>philippe&#45;hersant&#45;292&#45;&gt;editions&#45;suisses&#45;holding&#45;293</title>
<path fill="none" stroke="black" d="M122.44,-77.49C172.05,-91.02 242.16,-110.15 293.16,-124.06"/>
<polygon fill="black" stroke="black" points="292.03,-127.38 302.6,-126.64 293.87,-120.63 292.03,-127.38"/>
<text text-anchor="middle" x="179.5" y="-104.8" font-family="Times,serif" font-size="14.00">possède 100%</text>
</g>
<!-- groupe&#45;hersant&#45;media&#45;294 -->
<g id="node11" class="node">
<title>groupe&#45;hersant&#45;media&#45;294</title>
<ellipse fill="none" stroke="black" cx="1014.74" cy="-34" rx="92.08" ry="18"/>
<text text-anchor="middle" x="1014.74" y="-30.3" font-family="Times,serif" font-size="14.00">Groupe Hersant Média</text>
</g>
<!-- philippe&#45;hersant&#45;292&#45;&gt;groupe&#45;hersant&#45;media&#45;294 -->
<g id="edge10" class="edge">
<title>philippe&#45;hersant&#45;292&#45;&gt;groupe&#45;hersant&#45;media&#45;294</title>
<path fill="none" stroke="black" d="M122.26,-59.29C281.29,-54.78 713.67,-42.51 911.93,-36.89"/>
<polygon fill="black" stroke="black" points="911.8,-40.39 921.7,-36.61 911.6,-33.4 911.8,-40.39"/>
<text text-anchor="middle" x="540.33" y="-52.8" font-family="Times,serif" font-size="14.00">possède 100%</text>
</g>
<!-- groupe&#45;filanosa&#45;295 -->
<g id="node3" class="node">
<title>groupe&#45;filanosa&#45;295</title>
<polygon fill="none" stroke="black" points="769.71,-282.56 683.79,-295 597.87,-282.56 597.95,-262.44 769.63,-262.44 769.71,-282.56"/>
<text text-anchor="middle" x="683.79" y="-273.3" font-family="Times,serif" font-size="14.00">Groupe Filanosa</text>
</g>
<!-- editions&#45;suisses&#45;holding&#45;293&#45;&gt;groupe&#45;filanosa&#45;295 -->
<g id="edge2" class="edge">
<title>editions&#45;suisses&#45;holding&#45;293&#45;&gt;groupe&#45;filanosa&#45;295</title>
<path fill="none" stroke="black" d="M395.98,-156.7C454.47,-181.24 571.96,-230.51 636.94,-257.77"/>
<polygon fill="black" stroke="black" points="635.32,-260.88 645.89,-261.52 638.02,-254.43 635.32,-260.88"/>
<text text-anchor="middle" x="540.33" y="-236.8" font-family="Times,serif" font-size="14.00">possède 50%</text>
</g>
<!-- rhone&#45;media&#45;296 -->
<g id="node4" class="node">
<title>rhone&#45;media&#45;296</title>
<polygon fill="none" stroke="black" points="757.01,-147.56 683.79,-160 610.58,-147.56 610.65,-127.44 756.94,-127.44 757.01,-147.56"/>
<text text-anchor="middle" x="683.79" y="-138.3" font-family="Times,serif" font-size="14.00">Rhône Média</text>
</g>
<!-- editions&#45;suisses&#45;holding&#45;293&#45;&gt;rhone&#45;media&#45;296 -->
<g id="edge6" class="edge">
<title>editions&#45;suisses&#45;holding&#45;293&#45;&gt;rhone&#45;media&#45;296</title>
<path fill="none" stroke="black" d="M483.06,-142C521.74,-142 563.59,-142 598.95,-142"/>
<polygon fill="black" stroke="black" points="598.67,-145.5 608.67,-142 598.67,-138.5 598.67,-145.5"/>
<text text-anchor="middle" x="540.33" y="-145.8" font-family="Times,serif" font-size="14.00">possède 50%</text>
</g>
<!-- l&#45;express&#45;neuchatel&#45;298 -->
<g id="node5" class="node">
<title>l&#45;express&#45;neuchatel&#45;298</title>
<ellipse fill="none" stroke="black" cx="1014.74" cy="-358" rx="90.18" ry="18"/>
<text text-anchor="middle" x="1014.74" y="-354.3" font-family="Times,serif" font-size="14.00">L’Express (Neuchâtel)</text>
</g>
<!-- groupe&#45;filanosa&#45;295&#45;&gt;l&#45;express&#45;neuchatel&#45;298 -->
<g id="edge3" class="edge">
<title>groupe&#45;filanosa&#45;295&#45;&gt;l&#45;express&#45;neuchatel&#45;298</title>
<path fill="none" stroke="black" d="M722.23,-289.78C741.67,-296.22 765.87,-303.92 787.75,-310 836.28,-323.48 891.57,-335.28 935.32,-343.81"/>
<polygon fill="black" stroke="black" points="934.5,-347.22 944.98,-345.68 935.83,-340.35 934.5,-347.22"/>
<text text-anchor="middle" x="827.25" y="-331.8" font-family="Times,serif" font-size="14.00">possède 100%</text>
</g>
<!-- l&#45;impartial&#45;la&#45;chaux&#45;de&#45;fonds&#45;299 -->
<g id="node6" class="node">
<title>l&#45;impartial&#45;la&#45;chaux&#45;de&#45;fonds&#45;299</title>
<ellipse fill="none" stroke="black" cx="1014.74" cy="-304" rx="129.98" ry="18"/>
<text text-anchor="middle" x="1014.74" y="-300.3" font-family="Times,serif" font-size="14.00">L’Impartial (La Chaux&#45;de&#45;Fonds)</text>
</g>
<!-- groupe&#45;filanosa&#45;295&#45;&gt;l&#45;impartial&#45;la&#45;chaux&#45;de&#45;fonds&#45;299 -->
<g id="edge4" class="edge">
<title>groupe&#45;filanosa&#45;295&#45;&gt;l&#45;impartial&#45;la&#45;chaux&#45;de&#45;fonds&#45;299</title>
<path fill="none" stroke="black" d="M765.68,-283.64C803.24,-286.72 848.71,-290.45 890.4,-293.88"/>
<polygon fill="black" stroke="black" points="890.01,-297.36 900.26,-294.69 890.58,-290.38 890.01,-297.36"/>
<text text-anchor="middle" x="827.25" y="-294.8" font-family="Times,serif" font-size="14.00">possède 100%</text>
</g>
<!-- la&#45;cote&#45;nyon&#45;297 -->
<g id="node7" class="node">
<title>la&#45;cote&#45;nyon&#45;297</title>
<ellipse fill="none" stroke="black" cx="1014.74" cy="-250" rx="66.89" ry="18"/>
<text text-anchor="middle" x="1014.74" y="-246.3" font-family="Times,serif" font-size="14.00">La Côte (Nyon)</text>
</g>
<!-- groupe&#45;filanosa&#45;295&#45;&gt;la&#45;cote&#45;nyon&#45;297 -->
<g id="edge5" class="edge">
<title>groupe&#45;filanosa&#45;295&#45;&gt;la&#45;cote&#45;nyon&#45;297</title>
<path fill="none" stroke="black" d="M769.89,-267.67C775.93,-267.08 781.93,-266.52 787.75,-266 837.74,-261.56 894.04,-257.57 937.94,-254.69"/>
<polygon fill="black" stroke="black" points="938.14,-258.18 947.89,-254.04 937.69,-251.2 938.14,-258.18"/>
<text text-anchor="middle" x="827.25" y="-269.8" font-family="Times,serif" font-size="14.00">possède 100%</text>
</g>
<!-- la&#45;gazette&#45;de&#45;martigny&#45;301 -->
<g id="node8" class="node">
<title>la&#45;gazette&#45;de&#45;martigny&#45;301</title>
<ellipse fill="none" stroke="black" cx="1014.74" cy="-196" rx="95.58" ry="18"/>
<text text-anchor="middle" x="1014.74" y="-192.3" font-family="Times,serif" font-size="14.00">La Gazette de Martigny</text>
</g>
<!-- rhone&#45;media&#45;296&#45;&gt;la&#45;gazette&#45;de&#45;martigny&#45;301 -->
<g id="edge7" class="edge">
<title>rhone&#45;media&#45;296&#45;&gt;la&#45;gazette&#45;de&#45;martigny&#45;301</title>
<path fill="none" stroke="black" d="M735.54,-151.66C752.16,-154.75 770.73,-158.11 787.75,-161 833.65,-168.79 884.91,-176.78 926.99,-183.16"/>
<polygon fill="black" stroke="black" points="926.42,-186.62 936.83,-184.65 927.46,-179.69 926.42,-186.62"/>
<text text-anchor="middle" x="827.25" y="-176.8" font-family="Times,serif" font-size="14.00">possède 100%</text>
</g>
<!-- le&#45;journal&#45;de&#45;sierre&#45;302 -->
<g id="node9" class="node">
<title>le&#45;journal&#45;de&#45;sierre&#45;302</title>
<ellipse fill="none" stroke="black" cx="1014.74" cy="-142" rx="82.59" ry="18"/>
<text text-anchor="middle" x="1014.74" y="-138.3" font-family="Times,serif" font-size="14.00">Le Journal de Sierre</text>
</g>
<!-- rhone&#45;media&#45;296&#45;&gt;le&#45;journal&#45;de&#45;sierre&#45;302 -->
<g id="edge8" class="edge">
<title>rhone&#45;media&#45;296&#45;&gt;le&#45;journal&#45;de&#45;sierre&#45;302</title>
<path fill="none" stroke="black" d="M757.39,-142C805.42,-142 868.85,-142 920.59,-142"/>
<polygon fill="black" stroke="black" points="920.27,-145.5 930.27,-142 920.27,-138.5 920.27,-145.5"/>
<text text-anchor="middle" x="827.25" y="-145.8" font-family="Times,serif" font-size="14.00">possède 100%</text>
</g>
<!-- le&#45;nouvelliste&#45;300 -->
<g id="node10" class="node">
<title>le&#45;nouvelliste&#45;300</title>
<ellipse fill="none" stroke="black" cx="1014.74" cy="-88" rx="63.09" ry="18"/>
<text text-anchor="middle" x="1014.74" y="-84.3" font-family="Times,serif" font-size="14.00">Le Nouvelliste</text>
</g>
<!-- rhone&#45;media&#45;296&#45;&gt;le&#45;nouvelliste&#45;300 -->
<g id="edge9" class="edge">
<title>rhone&#45;media&#45;296&#45;&gt;le&#45;nouvelliste&#45;300</title>
<path fill="none" stroke="black" d="M757.31,-128.35C767.52,-126.5 777.9,-124.67 787.75,-123 841.05,-113.96 901.57,-104.63 946.57,-97.89"/>
<polygon fill="black" stroke="black" points="947.08,-101.35 956.45,-96.41 946.04,-94.42 947.08,-101.35"/>
<text text-anchor="middle" x="827.25" y="-126.8" font-family="Times,serif" font-size="14.00">possède 100%</text>
</g>
</g>
</svg>
