<?xml version="1.0" encoding="UTF-8" standalone="no"?>
<!DOCTYPE svg PUBLIC "-//W3C//DTD SVG 1.1//EN"
 "http://www.w3.org/Graphics/SVG/1.1/DTD/svg11.dtd">
<!-- Generated by graphviz version 8.1.0 (20230707.0739)
 -->
<!-- Pages: 1 -->
<svg width="1197pt" height="400pt"
 viewBox="0.00 0.00 1196.94 400.00" xmlns="http://www.w3.org/2000/svg" xmlns:xlink="http://www.w3.org/1999/xlink">
<g id="graph0" class="graph" transform="scale(1 1) rotate(0) translate(4 396)">
<polygon fill="white" stroke="none" points="-4,4 -4,-396 1192.94,-396 1192.94,4 -4,4"/>
<g id="clust2" class="cluster">
<title>clusterLeaves</title>
<polygon fill="none" stroke="black" points="893.34,-8 893.34,-384 1180.94,-384 1180.94,-8 893.34,-8"/>
</g>
<!-- philippe&#45;hersant&#45;292 -->
<g id="node1" class="node">
<title>philippe&#45;hersant&#45;292</title>
<polygon fill="none" stroke="black" points="121,-79 0,-79 0,-43 121,-43 121,-79"/>
<text text-anchor="middle" x="60.5" y="-57.08" font-family="Times,serif" font-size="14.00">🧑‍💼Philippe Hersant</text>
</g>
<!-- editions&#45;suisses&#45;holding&#45;293 -->
<g id="node2" class="node">
<title>editions&#45;suisses&#45;holding&#45;293</title>
<polygon fill="none" stroke="black" points="493.02,-147.56 364.38,-160 235.75,-147.56 235.87,-127.44 492.9,-127.44 493.02,-147.56"/>
<text text-anchor="middle" x="364.38" y="-136.95" font-family="Times,serif" font-size="14.00">Éditions Suisses Holding</text>
</g>
<!-- philippe&#45;hersant&#45;292&#45;&gt;editions&#45;suisses&#45;holding&#45;293 -->
<g id="edge1" class="edge">
<title>philippe&#45;hersant&#45;292&#45;&gt;editions&#45;suisses&#45;holding&#45;293</title>
<path fill="none" stroke="black" d="M121.14,-77C171.78,-90.59 244.38,-110.07 296.88,-124.16"/>
<polygon fill="black" stroke="black" points="295.87,-127.78 306.43,-126.99 297.68,-121.02 295.87,-127.78"/>
<text text-anchor="middle" x="178.38" y="-104.2" font-family="Times,serif" font-size="14.00">possède 100%</text>
</g>
<!-- groupe&#45;hersant&#45;media&#45;294 -->
<g id="node11" class="node">
<title>groupe&#45;hersant&#45;media&#45;294</title>
<ellipse fill="none" stroke="black" cx="1037.14" cy="-34" rx="96.39" ry="18"/>
<text text-anchor="middle" x="1037.14" y="-28.95" font-family="Times,serif" font-size="14.00">Groupe Hersant Média</text>
</g>
<!-- philippe&#45;hersant&#45;292&#45;&gt;groupe&#45;hersant&#45;media&#45;294 -->
<g id="edge10" class="edge">
<title>philippe&#45;hersant&#45;292&#45;&gt;groupe&#45;hersant&#45;media&#45;294</title>
<path fill="none" stroke="black" d="M121.37,-59.34C282.39,-54.88 726.35,-42.58 930.69,-36.92"/>
<polygon fill="black" stroke="black" points="930.53,-40.4 940.43,-36.62 930.34,-33.4 930.53,-40.4"/>
<text text-anchor="middle" x="550.39" y="-52.2" font-family="Times,serif" font-size="14.00">possède 100%</text>
</g>
<!-- groupe&#45;filanosa&#45;295 -->
<g id="node3" class="node">
<title>groupe&#45;filanosa&#45;295</title>
<polygon fill="none" stroke="black" points="786.59,-281.56 697.18,-294 607.77,-281.56 607.85,-261.44 786.51,-261.44 786.59,-281.56"/>
<text text-anchor="middle" x="697.18" y="-270.95" font-family="Times,serif" font-size="14.00">Groupe Filanosa</text>
</g>
<!-- editions&#45;suisses&#45;holding&#45;293&#45;&gt;groupe&#45;filanosa&#45;295 -->
<g id="edge2" class="edge">
<title>editions&#45;suisses&#45;holding&#45;293&#45;&gt;groupe&#45;filanosa&#45;295</title>
<path fill="none" stroke="black" d="M402.05,-156.85C462.45,-181.32 582.79,-230.07 649.3,-257.01"/>
<polygon fill="black" stroke="black" points="647.52,-260.47 658.1,-260.98 650.14,-253.98 647.52,-260.47"/>
<text text-anchor="middle" x="550.39" y="-235.2" font-family="Times,serif" font-size="14.00">possède 50%</text>
</g>
<!-- rhone&#45;media&#45;296 -->
<g id="node4" class="node">
<title>rhone&#45;media&#45;296</title>
<polygon fill="none" stroke="black" points="773.31,-147.56 697.18,-160 621.05,-147.56 621.13,-127.44 773.24,-127.44 773.31,-147.56"/>
<text text-anchor="middle" x="697.18" y="-136.95" font-family="Times,serif" font-size="14.00">Rhône Média</text>
</g>
<!-- editions&#45;suisses&#45;holding&#45;293&#45;&gt;rhone&#45;media&#45;296 -->
<g id="edge6" class="edge">
<title>editions&#45;suisses&#45;holding&#45;293&#45;&gt;rhone&#45;media&#45;296</title>
<path fill="none" stroke="black" d="M493.28,-142C532.33,-142 574.32,-142 609.92,-142"/>
<polygon fill="black" stroke="black" points="609.75,-145.5 619.75,-142 609.75,-138.5 609.75,-145.5"/>
<text text-anchor="middle" x="550.39" y="-145.2" font-family="Times,serif" font-size="14.00">possède 50%</text>
</g>
<!-- l&#45;express&#45;neuchatel&#45;298 -->
<g id="node5" class="node">
<title>l&#45;express&#45;neuchatel&#45;298</title>
<ellipse fill="none" stroke="black" cx="1037.14" cy="-358" rx="94.34" ry="18"/>
<text text-anchor="middle" x="1037.14" y="-352.95" font-family="Times,serif" font-size="14.00">L’Express (Neuchâtel)</text>
</g>
<!-- groupe&#45;filanosa&#45;295&#45;&gt;l&#45;express&#45;neuchatel&#45;298 -->
<g id="edge3" class="edge">
<title>groupe&#45;filanosa&#45;295&#45;&gt;l&#45;express&#45;neuchatel&#45;298</title>
<path fill="none" stroke="black" d="M735.34,-289.19C755.66,-296.16 781.35,-304.57 804.59,-311 853.54,-324.53 909.29,-335.97 953.82,-344.17"/>
<polygon fill="black" stroke="black" points="953.13,-347.78 963.6,-346.13 954.39,-340.89 953.13,-347.78"/>
<text text-anchor="middle" x="843.97" y="-332.2" font-family="Times,serif" font-size="14.00">possède 100%</text>
</g>
<!-- l&#45;impartial&#45;la&#45;chaux&#45;de&#45;fonds&#45;299 -->
<g id="node6" class="node">
<title>l&#45;impartial&#45;la&#45;chaux&#45;de&#45;fonds&#45;299</title>
<ellipse fill="none" stroke="black" cx="1037.14" cy="-304" rx="135.8" ry="18"/>
<text text-anchor="middle" x="1037.14" y="-298.95" font-family="Times,serif" font-size="14.00">L’Impartial (La Chaux&#45;de&#45;Fonds)</text>
</g>
<!-- groupe&#45;filanosa&#45;295&#45;&gt;l&#45;impartial&#45;la&#45;chaux&#45;de&#45;fonds&#45;299 -->
<g id="edge4" class="edge">
<title>groupe&#45;filanosa&#45;295&#45;&gt;l&#45;impartial&#45;la&#45;chaux&#45;de&#45;fonds&#45;299</title>
<path fill="none" stroke="black" d="M780.86,-282.85C819.68,-286.07 866.81,-289.97 909.95,-293.55"/>
<polygon fill="black" stroke="black" points="909.57,-297.11 919.83,-294.45 910.15,-290.13 909.57,-297.11"/>
<text text-anchor="middle" x="843.97" y="-293.2" font-family="Times,serif" font-size="14.00">possède 100%</text>
</g>
<!-- la&#45;cote&#45;nyon&#45;297 -->
<g id="node7" class="node">
<title>la&#45;cote&#45;nyon&#45;297</title>
<ellipse fill="none" stroke="black" cx="1037.14" cy="-250" rx="69.78" ry="18"/>
<text text-anchor="middle" x="1037.14" y="-244.95" font-family="Times,serif" font-size="14.00">La Côte (Nyon)</text>
</g>
<!-- groupe&#45;filanosa&#45;295&#45;&gt;la&#45;cote&#45;nyon&#45;297 -->
<g id="edge5" class="edge">
<title>groupe&#45;filanosa&#45;295&#45;&gt;la&#45;cote&#45;nyon&#45;297</title>
<path fill="none" stroke="black" d="M786.95,-263.32C792.92,-262.65 798.84,-262.03 804.59,-261.5 855.04,-256.82 911.86,-253.96 956.58,-252.26"/>
<polygon fill="black" stroke="black" points="956.52,-255.73 966.39,-251.87 956.27,-248.74 956.52,-255.73"/>
<text text-anchor="middle" x="843.97" y="-264.2" font-family="Times,serif" font-size="14.00">possède 100%</text>
</g>
<!-- la&#45;gazette&#45;de&#45;martigny&#45;301 -->
<g id="node8" class="node">
<title>la&#45;gazette&#45;de&#45;martigny&#45;301</title>
<ellipse fill="none" stroke="black" cx="1037.14" cy="-196" rx="99.97" ry="18"/>
<text text-anchor="middle" x="1037.14" y="-190.95" font-family="Times,serif" font-size="14.00">La Gazette de Martigny</text>
</g>
<!-- rhone&#45;media&#45;296&#45;&gt;la&#45;gazette&#45;de&#45;martigny&#45;301 -->
<g id="edge7" class="edge">
<title>rhone&#45;media&#45;296&#45;&gt;la&#45;gazette&#45;de&#45;martigny&#45;301</title>
<path fill="none" stroke="black" d="M747.35,-152.27C765.32,-155.88 785.84,-159.82 804.59,-163 850.35,-170.77 901.41,-178.18 943.91,-184"/>
<polygon fill="black" stroke="black" points="943.42,-187.61 953.8,-185.49 944.37,-180.67 943.42,-187.61"/>
<text text-anchor="middle" x="843.97" y="-178.2" font-family="Times,serif" font-size="14.00">possède 100%</text>
</g>
<!-- le&#45;journal&#45;de&#45;sierre&#45;302 -->
<g id="node9" class="node">
<title>le&#45;journal&#45;de&#45;sierre&#45;302</title>
<ellipse fill="none" stroke="black" cx="1037.14" cy="-142" rx="86.15" ry="18"/>
<text text-anchor="middle" x="1037.14" y="-136.95" font-family="Times,serif" font-size="14.00">Le Journal de Sierre</text>
</g>
<!-- rhone&#45;media&#45;296&#45;&gt;le&#45;journal&#45;de&#45;sierre&#45;302 -->
<g id="edge8" class="edge">
<title>rhone&#45;media&#45;296&#45;&gt;le&#45;journal&#45;de&#45;sierre&#45;302</title>
<path fill="none" stroke="black" d="M773.61,-142C822.66,-142 887.06,-142 939.81,-142"/>
<polygon fill="black" stroke="black" points="939.53,-145.5 949.53,-142 939.53,-138.5 939.53,-145.5"/>
<text text-anchor="middle" x="843.97" y="-145.2" font-family="Times,serif" font-size="14.00">possède 100%</text>
</g>
<!-- le&#45;nouvelliste&#45;300 -->
<g id="node10" class="node">
<title>le&#45;nouvelliste&#45;300</title>
<ellipse fill="none" stroke="black" cx="1037.14" cy="-88" rx="65.68" ry="18"/>
<text text-anchor="middle" x="1037.14" y="-82.95" font-family="Times,serif" font-size="14.00">Le Nouvelliste</text>
</g>
<!-- rhone&#45;media&#45;296&#45;&gt;le&#45;nouvelliste&#45;300 -->
<g id="edge9" class="edge">
<title>rhone&#45;media&#45;296&#45;&gt;le&#45;nouvelliste&#45;300</title>
<path fill="none" stroke="black" d="M773.67,-127.01C784.05,-125.08 794.57,-123.19 804.59,-121.5 858.92,-112.34 920.67,-103.49 966.73,-97.18"/>
<polygon fill="black" stroke="black" points="967.06,-100.53 976.5,-95.71 966.12,-93.6 967.06,-100.53"/>
<text text-anchor="middle" x="843.97" y="-124.2" font-family="Times,serif" font-size="14.00">possède 100%</text>
</g>
</g>
</svg>
