<?xml version="1.0" encoding="UTF-8" standalone="no"?>
<!DOCTYPE svg PUBLIC "-//W3C//DTD SVG 1.1//EN"
 "http://www.w3.org/Graphics/SVG/1.1/DTD/svg11.dtd">
<!-- Generated by graphviz version 7.1.0 (20230121.1956)
 -->
<!-- Pages: 1 -->
<svg width="939pt" height="616pt"
 viewBox="0.00 0.00 939.41 616.00" xmlns="http://www.w3.org/2000/svg" xmlns:xlink="http://www.w3.org/1999/xlink">
<g id="graph0" class="graph" transform="scale(1 1) rotate(0) translate(4 612)">
<polygon fill="white" stroke="none" points="-4,4 -4,-612 935.41,-612 935.41,4 -4,4"/>
<g id="clust2" class="cluster">
<title>clusterLeaves</title>
<polygon fill="none" stroke="black" points="695.53,-8 695.53,-600 923.41,-600 923.41,-8 695.53,-8"/>
</g>
<!-- prisa&#45;9 -->
<g id="node1" class="node">
<title>prisa&#45;9</title>
<polygon fill="none" stroke="black" points="54,-87 0,-87 0,-51 54,-51 54,-87"/>
<text text-anchor="middle" x="27" y="-65.3" font-family="Times,serif" font-size="14.00">Prisa</text>
</g>
<!-- le&#45;monde&#45;libre&#45;14 -->
<g id="node2" class="node">
<title>le&#45;monde&#45;libre&#45;14</title>
<polygon fill="none" stroke="black" points="326.83,-74.56 244.94,-87 163.06,-74.56 163.13,-54.44 326.76,-54.44 326.83,-74.56"/>
<text text-anchor="middle" x="244.94" y="-65.3" font-family="Times,serif" font-size="14.00">Le Monde libre</text>
</g>
<!-- prisa&#45;9&#45;&gt;le&#45;monde&#45;libre&#45;14 -->
<g id="edge1" class="edge">
<title>prisa&#45;9&#45;&gt;le&#45;monde&#45;libre&#45;14</title>
<path fill="none" stroke="black" d="M54.48,-69C78.77,-69 116.21,-69 151.41,-69"/>
<polygon fill="black" stroke="black" points="151.23,-72.5 161.23,-69 151.23,-65.5 151.23,-72.5"/>
<text text-anchor="middle" x="108.5" y="-72.8" font-family="Times,serif" font-size="14.00">possède 20%</text>
</g>
<!-- le&#45;monde&#45;sa&#45;15 -->
<g id="node3" class="node">
<title>le&#45;monde&#45;sa&#45;15</title>
<polygon fill="none" stroke="black" points="588.35,-309.56 512.21,-322 436.07,-309.56 436.14,-289.44 588.28,-289.44 588.35,-309.56"/>
<text text-anchor="middle" x="512.21" y="-300.3" font-family="Times,serif" font-size="14.00">Le Monde SA</text>
</g>
<!-- le&#45;monde&#45;libre&#45;14&#45;&gt;le&#45;monde&#45;sa&#45;15 -->
<g id="edge3" class="edge">
<title>le&#45;monde&#45;libre&#45;14&#45;&gt;le&#45;monde&#45;sa&#45;15</title>
<path fill="none" stroke="black" d="M263.35,-84.42C309,-124.86 432.36,-234.14 485.87,-281.55"/>
<polygon fill="black" stroke="black" points="483.49,-284.12 493.29,-288.13 488.13,-278.88 483.49,-284.12"/>
<text text-anchor="middle" x="381.39" y="-224.8" font-family="Times,serif" font-size="14.00">possède 75%</text>
</g>
<!-- l&#45;obs&#45;16 -->
<g id="node4" class="node">
<title>l&#45;obs&#45;16</title>
<ellipse fill="none" stroke="black" cx="809.47" cy="-34" rx="32.49" ry="18"/>
<text text-anchor="middle" x="809.47" y="-30.3" font-family="Times,serif" font-size="14.00">L’Obs</text>
</g>
<!-- le&#45;monde&#45;libre&#45;14&#45;&gt;l&#45;obs&#45;16 -->
<g id="edge2" class="edge">
<title>le&#45;monde&#45;libre&#45;14&#45;&gt;l&#45;obs&#45;16</title>
<path fill="none" stroke="black" d="M327.14,-63.95C448.23,-56.41 671.89,-42.5 765.5,-36.67"/>
<polygon fill="black" stroke="black" points="765.51,-40.18 775.27,-36.07 765.07,-33.19 765.51,-40.18"/>
<text text-anchor="middle" x="512.21" y="-60.8" font-family="Times,serif" font-size="14.00">possède 99%</text>
</g>
<!-- courrier&#45;international&#45;21 -->
<g id="node5" class="node">
<title>courrier&#45;international&#45;21</title>
<ellipse fill="none" stroke="black" cx="809.47" cy="-574" rx="87.18" ry="18"/>
<text text-anchor="middle" x="809.47" y="-570.3" font-family="Times,serif" font-size="14.00">Courrier international</text>
</g>
<!-- le&#45;monde&#45;sa&#45;15&#45;&gt;courrier&#45;international&#45;21 -->
<g id="edge4" class="edge">
<title>le&#45;monde&#45;sa&#45;15&#45;&gt;courrier&#45;international&#45;21</title>
<path fill="none" stroke="black" d="M516.11,-321.86C523.6,-362.24 547.3,-461.3 606.53,-516 636.22,-543.42 678.05,-557.97 715.94,-565.66"/>
<polygon fill="black" stroke="black" points="715.07,-569.05 725.54,-567.46 716.36,-562.17 715.07,-569.05"/>
<text text-anchor="middle" x="646.03" y="-559.8" font-family="Times,serif" font-size="14.00">possède 100%</text>
</g>
<!-- huffpost&#45;26 -->
<g id="node6" class="node">
<title>huffpost&#45;26</title>
<ellipse fill="none" stroke="black" cx="809.47" cy="-520" rx="42.49" ry="18"/>
<text text-anchor="middle" x="809.47" y="-516.3" font-family="Times,serif" font-size="14.00">HuffPost</text>
</g>
<!-- le&#45;monde&#45;sa&#45;15&#45;&gt;huffpost&#45;26 -->
<g id="edge5" class="edge">
<title>le&#45;monde&#45;sa&#45;15&#45;&gt;huffpost&#45;26</title>
<path fill="none" stroke="black" d="M519.44,-321.14C531.57,-352.3 561.22,-418.55 606.53,-457 648.94,-492.99 711.86,-508.45 756.17,-515.07"/>
<polygon fill="black" stroke="black" points="755.69,-518.54 766.07,-516.43 756.65,-511.6 755.69,-518.54"/>
<text text-anchor="middle" x="646.03" y="-500.8" font-family="Times,serif" font-size="14.00">possède 34%</text>
</g>
<!-- la&#45;vie&#45;23 -->
<g id="node7" class="node">
<title>la&#45;vie&#45;23</title>
<ellipse fill="none" stroke="black" cx="809.47" cy="-466" rx="34.39" ry="18"/>
<text text-anchor="middle" x="809.47" y="-462.3" font-family="Times,serif" font-size="14.00">La Vie</text>
</g>
<!-- le&#45;monde&#45;sa&#45;15&#45;&gt;la&#45;vie&#45;23 -->
<g id="edge6" class="edge">
<title>le&#45;monde&#45;sa&#45;15&#45;&gt;la&#45;vie&#45;23</title>
<path fill="none" stroke="black" d="M525.22,-320.01C541.62,-340.97 572.87,-377.77 606.53,-401 654.84,-434.35 721.27,-451.37 764.54,-459.46"/>
<polygon fill="black" stroke="black" points="763.87,-462.9 774.33,-461.21 765.1,-456.01 763.87,-462.9"/>
<text text-anchor="middle" x="646.03" y="-441.8" font-family="Times,serif" font-size="14.00">possède 100%</text>
</g>
<!-- le&#45;monde&#45;19 -->
<g id="node8" class="node">
<title>le&#45;monde&#45;19</title>
<ellipse fill="none" stroke="black" cx="809.47" cy="-412" rx="48.19" ry="18"/>
<text text-anchor="middle" x="809.47" y="-408.3" font-family="Times,serif" font-size="14.00">Le Monde</text>
</g>
<!-- le&#45;monde&#45;sa&#45;15&#45;&gt;le&#45;monde&#45;19 -->
<g id="edge7" class="edge">
<title>le&#45;monde&#45;sa&#45;15&#45;&gt;le&#45;monde&#45;19</title>
<path fill="none" stroke="black" d="M536.35,-318.55C554.85,-329.77 581.71,-345.16 606.53,-356 654.84,-377.09 713.14,-392.25 754.66,-401.43"/>
<polygon fill="black" stroke="black" points="753.91,-404.85 764.42,-403.54 755.39,-398.01 753.91,-404.85"/>
<text text-anchor="middle" x="646.03" y="-385.8" font-family="Times,serif" font-size="14.00">possède 100%</text>
</g>
<!-- le&#45;monde&#45;des&#45;religions&#45;22 -->
<g id="node9" class="node">
<title>le&#45;monde&#45;des&#45;religions&#45;22</title>
<ellipse fill="none" stroke="black" cx="809.47" cy="-358" rx="94.78" ry="18"/>
<text text-anchor="middle" x="809.47" y="-354.3" font-family="Times,serif" font-size="14.00">Le Monde des religions</text>
</g>
<!-- le&#45;monde&#45;sa&#45;15&#45;&gt;le&#45;monde&#45;des&#45;religions&#45;22 -->
<g id="edge8" class="edge">
<title>le&#45;monde&#45;sa&#45;15&#45;&gt;le&#45;monde&#45;des&#45;religions&#45;22</title>
<path fill="none" stroke="black" d="M562.07,-314.23C576.38,-317.15 592.07,-320.28 606.53,-323 645.66,-330.37 689.18,-337.99 725.76,-344.23"/>
<polygon fill="black" stroke="black" points="724.94,-347.64 735.39,-345.86 726.12,-340.74 724.94,-347.64"/>
<text text-anchor="middle" x="646.03" y="-340.8" font-family="Times,serif" font-size="14.00">possède 100%</text>
</g>
<!-- le&#45;monde&#45;diplomatique&#45;24 -->
<g id="node10" class="node">
<title>le&#45;monde&#45;diplomatique&#45;24</title>
<ellipse fill="none" stroke="black" cx="809.47" cy="-304" rx="96.68" ry="18"/>
<text text-anchor="middle" x="809.47" y="-300.3" font-family="Times,serif" font-size="14.00">Le Monde diplomatique</text>
</g>
<!-- le&#45;monde&#45;sa&#45;15&#45;&gt;le&#45;monde&#45;diplomatique&#45;24 -->
<g id="edge9" class="edge">
<title>le&#45;monde&#45;sa&#45;15&#45;&gt;le&#45;monde&#45;diplomatique&#45;24</title>
<path fill="none" stroke="black" d="M588.48,-304C622.62,-304 663.62,-304 700.93,-304"/>
<polygon fill="black" stroke="black" points="700.86,-307.5 710.86,-304 700.86,-300.5 700.86,-307.5"/>
<text text-anchor="middle" x="646.03" y="-307.8" font-family="Times,serif" font-size="14.00">possède 51%</text>
</g>
<!-- m&#45;le&#45;magazine&#45;du&#45;monde&#45;18 -->
<g id="node11" class="node">
<title>m&#45;le&#45;magazine&#45;du&#45;monde&#45;18</title>
<ellipse fill="none" stroke="black" cx="809.47" cy="-250" rx="105.88" ry="18"/>
<text text-anchor="middle" x="809.47" y="-246.3" font-family="Times,serif" font-size="14.00">M, le magazine du Monde</text>
</g>
<!-- le&#45;monde&#45;sa&#45;15&#45;&gt;m&#45;le&#45;magazine&#45;du&#45;monde&#45;18 -->
<g id="edge10" class="edge">
<title>le&#45;monde&#45;sa&#45;15&#45;&gt;m&#45;le&#45;magazine&#45;du&#45;monde&#45;18</title>
<path fill="none" stroke="black" d="M586.02,-288.96C592.95,-287.6 599.87,-286.26 606.53,-285 643.92,-277.96 685.3,-270.69 720.83,-264.62"/>
<polygon fill="black" stroke="black" points="721.38,-268.07 730.65,-262.94 720.2,-261.17 721.38,-268.07"/>
<text text-anchor="middle" x="646.03" y="-288.8" font-family="Times,serif" font-size="14.00">possède 100%</text>
</g>
<!-- maniere&#45;de&#45;voir&#45;25 -->
<g id="node12" class="node">
<title>maniere&#45;de&#45;voir&#45;25</title>
<ellipse fill="none" stroke="black" cx="809.47" cy="-196" rx="67.69" ry="18"/>
<text text-anchor="middle" x="809.47" y="-192.3" font-family="Times,serif" font-size="14.00">Manière de voir</text>
</g>
<!-- le&#45;monde&#45;sa&#45;15&#45;&gt;maniere&#45;de&#45;voir&#45;25 -->
<g id="edge11" class="edge">
<title>le&#45;monde&#45;sa&#45;15&#45;&gt;maniere&#45;de&#45;voir&#45;25</title>
<path fill="none" stroke="black" d="M536.28,-289.07C554.74,-277.57 581.59,-261.86 606.53,-251 650.23,-231.97 702.16,-218 742.42,-208.91"/>
<polygon fill="black" stroke="black" points="742.96,-212.37 751.97,-206.8 741.45,-205.54 742.96,-212.37"/>
<text text-anchor="middle" x="646.03" y="-254.8" font-family="Times,serif" font-size="14.00">possède 51%</text>
</g>
<!-- prier&#45;17 -->
<g id="node13" class="node">
<title>prier&#45;17</title>
<ellipse fill="none" stroke="black" cx="809.47" cy="-142" rx="27.9" ry="18"/>
<text text-anchor="middle" x="809.47" y="-138.3" font-family="Times,serif" font-size="14.00">Prier</text>
</g>
<!-- le&#45;monde&#45;sa&#45;15&#45;&gt;prier&#45;17 -->
<g id="edge12" class="edge">
<title>le&#45;monde&#45;sa&#45;15&#45;&gt;prier&#45;17</title>
<path fill="none" stroke="black" d="M523.98,-288.99C539.91,-267.76 571.63,-228.86 606.53,-205 657.1,-170.43 727.51,-154.16 770.43,-147.02"/>
<polygon fill="black" stroke="black" points="770.94,-150.49 780.28,-145.48 769.86,-143.57 770.94,-150.49"/>
<text text-anchor="middle" x="646.03" y="-208.8" font-family="Times,serif" font-size="14.00">possède 100%</text>
</g>
<!-- telerama&#45;20 -->
<g id="node14" class="node">
<title>telerama&#45;20</title>
<ellipse fill="none" stroke="black" cx="809.47" cy="-88" rx="44.39" ry="18"/>
<text text-anchor="middle" x="809.47" y="-84.3" font-family="Times,serif" font-size="14.00">Télérama</text>
</g>
<!-- le&#45;monde&#45;sa&#45;15&#45;&gt;telerama&#45;20 -->
<g id="edge13" class="edge">
<title>le&#45;monde&#45;sa&#45;15&#45;&gt;telerama&#45;20</title>
<path fill="none" stroke="black" d="M518.17,-289.29C529.23,-258.7 558.71,-187.74 606.53,-148 648.36,-113.24 709.74,-98.62 753.83,-92.46"/>
<polygon fill="black" stroke="black" points="754.24,-95.94 763.71,-91.2 753.35,-89 754.24,-95.94"/>
<text text-anchor="middle" x="646.03" y="-151.8" font-family="Times,serif" font-size="14.00">possède 100%</text>
</g>
</g>
</svg>
