<?xml version="1.0" encoding="UTF-8" standalone="no"?>
<!DOCTYPE svg PUBLIC "-//W3C//DTD SVG 1.1//EN"
 "http://www.w3.org/Graphics/SVG/1.1/DTD/svg11.dtd">
<!-- Generated by graphviz version 8.1.0 (20230707.0739)
 -->
<!-- Pages: 1 -->
<svg width="960pt" height="616pt"
 viewBox="0.00 0.00 960.00 616.00" xmlns="http://www.w3.org/2000/svg" xmlns:xlink="http://www.w3.org/1999/xlink">
<g id="graph0" class="graph" transform="scale(1 1) rotate(0) translate(4 612)">
<polygon fill="white" stroke="none" points="-4,4 -4,-612 956,-612 956,4 -4,4"/>
<g id="clust2" class="cluster">
<title>clusterLeaves</title>
<polygon fill="none" stroke="black" points="706.56,-8 706.56,-600 944,-600 944,-8 706.56,-8"/>
</g>
<!-- prisa&#45;9 -->
<g id="node1" class="node">
<title>prisa&#45;9</title>
<polygon fill="none" stroke="black" points="54,-86 0,-86 0,-50 54,-50 54,-86"/>
<text text-anchor="middle" x="27" y="-62.95" font-family="Times,serif" font-size="14.00">Prisa</text>
</g>
<!-- le&#45;monde&#45;libre&#45;14 -->
<g id="node2" class="node">
<title>le&#45;monde&#45;libre&#45;14</title>
<polygon fill="none" stroke="black" points="333.23,-73.56 247.62,-86 162,-73.56 162.08,-53.44 333.15,-53.44 333.23,-73.56"/>
<text text-anchor="middle" x="247.62" y="-62.95" font-family="Times,serif" font-size="14.00">Le Monde libre</text>
</g>
<!-- prisa&#45;9&#45;&gt;le&#45;monde&#45;libre&#45;14 -->
<g id="edge1" class="edge">
<title>prisa&#45;9&#45;&gt;le&#45;monde&#45;libre&#45;14</title>
<path fill="none" stroke="black" d="M54.37,-68C78.45,-68 115.57,-68 150.78,-68"/>
<polygon fill="black" stroke="black" points="150.64,-71.5 160.64,-68 150.64,-64.5 150.64,-71.5"/>
<text text-anchor="middle" x="108" y="-71.2" font-family="Times,serif" font-size="14.00">possède 20%</text>
</g>
<!-- le&#45;monde&#45;sa&#45;15 -->
<g id="node3" class="node">
<title>le&#45;monde&#45;sa&#45;15</title>
<polygon fill="none" stroke="black" points="599.81,-309.56 520.52,-322 441.23,-309.56 441.31,-289.44 599.74,-289.44 599.81,-309.56"/>
<text text-anchor="middle" x="520.52" y="-298.95" font-family="Times,serif" font-size="14.00">Le Monde SA</text>
</g>
<!-- le&#45;monde&#45;libre&#45;14&#45;&gt;le&#45;monde&#45;sa&#45;15 -->
<g id="edge3" class="edge">
<title>le&#45;monde&#45;libre&#45;14&#45;&gt;le&#45;monde&#45;sa&#45;15</title>
<path fill="none" stroke="black" d="M266.39,-83.48C313.21,-124.27 440.03,-234.75 494.32,-282.04"/>
<polygon fill="black" stroke="black" points="491.54,-285.14 501.38,-289.07 496.14,-279.86 491.54,-285.14"/>
<text text-anchor="middle" x="387.23" y="-217.2" font-family="Times,serif" font-size="14.00">possède 75%</text>
</g>
<!-- l&#45;obs&#45;16 -->
<g id="node4" class="node">
<title>l&#45;obs&#45;16</title>
<ellipse fill="none" stroke="black" cx="825.28" cy="-34" rx="33.95" ry="18"/>
<text text-anchor="middle" x="825.28" y="-28.95" font-family="Times,serif" font-size="14.00">L’Obs</text>
</g>
<!-- le&#45;monde&#45;libre&#45;14&#45;&gt;l&#45;obs&#45;16 -->
<g id="edge2" class="edge">
<title>le&#45;monde&#45;libre&#45;14&#45;&gt;l&#45;obs&#45;16</title>
<path fill="none" stroke="black" d="M333.56,-62.98C457.83,-55.64 684.77,-42.24 780.18,-36.61"/>
<polygon fill="black" stroke="black" points="780.37,-40.04 790.14,-35.96 779.95,-33.05 780.37,-40.04"/>
<text text-anchor="middle" x="520.52" y="-60.2" font-family="Times,serif" font-size="14.00">possède 99%</text>
</g>
<!-- courrier&#45;international&#45;21 -->
<g id="node5" class="node">
<title>courrier&#45;international&#45;21</title>
<ellipse fill="none" stroke="black" cx="825.28" cy="-574" rx="91.27" ry="18"/>
<text text-anchor="middle" x="825.28" y="-568.95" font-family="Times,serif" font-size="14.00">Courrier international</text>
</g>
<!-- le&#45;monde&#45;sa&#45;15&#45;&gt;courrier&#45;international&#45;21 -->
<g id="edge4" class="edge">
<title>le&#45;monde&#45;sa&#45;15&#45;&gt;courrier&#45;international&#45;21</title>
<path fill="none" stroke="black" d="M524.32,-321.75C531.75,-362.86 555.8,-465.24 617.81,-520 647.64,-546.34 688.78,-560.08 726.49,-567.16"/>
<polygon fill="black" stroke="black" points="725.58,-570.73 736.03,-568.99 726.77,-563.83 725.58,-570.73"/>
<text text-anchor="middle" x="657.19" y="-562.2" font-family="Times,serif" font-size="14.00">possède 100%</text>
</g>
<!-- huffpost&#45;26 -->
<g id="node6" class="node">
<title>huffpost&#45;26</title>
<ellipse fill="none" stroke="black" cx="825.28" cy="-520" rx="44.19" ry="18"/>
<text text-anchor="middle" x="825.28" y="-514.95" font-family="Times,serif" font-size="14.00">HuffPost</text>
</g>
<!-- le&#45;monde&#45;sa&#45;15&#45;&gt;huffpost&#45;26 -->
<g id="edge5" class="edge">
<title>le&#45;monde&#45;sa&#45;15&#45;&gt;huffpost&#45;26</title>
<path fill="none" stroke="black" d="M527.8,-321.36C540.18,-353.23 570.68,-421.35 617.81,-460 661.41,-495.75 725.44,-510.2 770.61,-516.04"/>
<polygon fill="black" stroke="black" points="770.03,-519.62 780.38,-517.32 770.86,-512.67 770.03,-519.62"/>
<text text-anchor="middle" x="657.19" y="-502.2" font-family="Times,serif" font-size="14.00">possède 34%</text>
</g>
<!-- la&#45;vie&#45;23 -->
<g id="node7" class="node">
<title>la&#45;vie&#45;23</title>
<ellipse fill="none" stroke="black" cx="825.28" cy="-466" rx="36" ry="18"/>
<text text-anchor="middle" x="825.28" y="-460.95" font-family="Times,serif" font-size="14.00">La Vie</text>
</g>
<!-- le&#45;monde&#45;sa&#45;15&#45;&gt;la&#45;vie&#45;23 -->
<g id="edge6" class="edge">
<title>le&#45;monde&#45;sa&#45;15&#45;&gt;la&#45;vie&#45;23</title>
<path fill="none" stroke="black" d="M533.17,-320.13C549.75,-342.05 582.12,-381.23 617.81,-405 667.28,-437.95 734.96,-453.5 779.14,-460.56"/>
<polygon fill="black" stroke="black" points="778.43,-464.14 788.84,-462.17 779.48,-457.22 778.43,-464.14"/>
<text text-anchor="middle" x="657.19" y="-442.2" font-family="Times,serif" font-size="14.00">possède 100%</text>
</g>
<!-- le&#45;monde&#45;19 -->
<g id="node8" class="node">
<title>le&#45;monde&#45;19</title>
<ellipse fill="none" stroke="black" cx="825.28" cy="-412" rx="49.82" ry="18"/>
<text text-anchor="middle" x="825.28" y="-406.95" font-family="Times,serif" font-size="14.00">Le Monde</text>
</g>
<!-- le&#45;monde&#45;sa&#45;15&#45;&gt;le&#45;monde&#45;19 -->
<g id="edge7" class="edge">
<title>le&#45;monde&#45;sa&#45;15&#45;&gt;le&#45;monde&#45;19</title>
<path fill="none" stroke="black" d="M544.16,-318.54C563.23,-330.34 591.54,-346.79 617.81,-358 667.19,-379.06 726.81,-393.58 769.26,-402.22"/>
<polygon fill="black" stroke="black" points="768.45,-405.82 778.94,-404.34 769.82,-398.96 768.45,-405.82"/>
<text text-anchor="middle" x="657.19" y="-387.2" font-family="Times,serif" font-size="14.00">possède 100%</text>
</g>
<!-- le&#45;monde&#45;des&#45;religions&#45;22 -->
<g id="node9" class="node">
<title>le&#45;monde&#45;des&#45;religions&#45;22</title>
<ellipse fill="none" stroke="black" cx="825.28" cy="-358" rx="99.46" ry="18"/>
<text text-anchor="middle" x="825.28" y="-352.95" font-family="Times,serif" font-size="14.00">Le Monde des religions</text>
</g>
<!-- le&#45;monde&#45;sa&#45;15&#45;&gt;le&#45;monde&#45;des&#45;religions&#45;22 -->
<g id="edge8" class="edge">
<title>le&#45;monde&#45;sa&#45;15&#45;&gt;le&#45;monde&#45;des&#45;religions&#45;22</title>
<path fill="none" stroke="black" d="M568.92,-314.89C584.46,-318.31 601.84,-321.98 617.81,-325 656.45,-332.29 699.35,-339.32 735.99,-345.01"/>
<polygon fill="black" stroke="black" points="735.23,-348.58 745.65,-346.65 736.3,-341.67 735.23,-348.58"/>
<text text-anchor="middle" x="657.19" y="-340.2" font-family="Times,serif" font-size="14.00">possède 100%</text>
</g>
<!-- le&#45;monde&#45;diplomatique&#45;24 -->
<g id="node10" class="node">
<title>le&#45;monde&#45;diplomatique&#45;24</title>
<ellipse fill="none" stroke="black" cx="825.28" cy="-304" rx="101.51" ry="18"/>
<text text-anchor="middle" x="825.28" y="-298.95" font-family="Times,serif" font-size="14.00">Le Monde diplomatique</text>
</g>
<!-- le&#45;monde&#45;sa&#45;15&#45;&gt;le&#45;monde&#45;diplomatique&#45;24 -->
<g id="edge9" class="edge">
<title>le&#45;monde&#45;sa&#45;15&#45;&gt;le&#45;monde&#45;diplomatique&#45;24</title>
<path fill="none" stroke="black" d="M600.28,-304C634.48,-304 675.17,-304 712.43,-304"/>
<polygon fill="black" stroke="black" points="712.35,-307.5 722.35,-304 712.35,-300.5 712.35,-307.5"/>
<text text-anchor="middle" x="657.19" y="-307.2" font-family="Times,serif" font-size="14.00">possède 51%</text>
</g>
<!-- m&#45;le&#45;magazine&#45;du&#45;monde&#45;18 -->
<g id="node11" class="node">
<title>m&#45;le&#45;magazine&#45;du&#45;monde&#45;18</title>
<ellipse fill="none" stroke="black" cx="825.28" cy="-250" rx="110.72" ry="18"/>
<text text-anchor="middle" x="825.28" y="-244.95" font-family="Times,serif" font-size="14.00">M, le magazine du Monde</text>
</g>
<!-- le&#45;monde&#45;sa&#45;15&#45;&gt;m&#45;le&#45;magazine&#45;du&#45;monde&#45;18 -->
<g id="edge10" class="edge">
<title>le&#45;monde&#45;sa&#45;15&#45;&gt;m&#45;le&#45;magazine&#45;du&#45;monde&#45;18</title>
<path fill="none" stroke="black" d="M590.08,-288.97C599.39,-287.06 608.82,-285.18 617.81,-283.5 655.17,-276.5 696.49,-269.62 732.3,-263.94"/>
<polygon fill="black" stroke="black" points="732.4,-267.31 741.73,-262.29 731.31,-260.39 732.4,-267.31"/>
<text text-anchor="middle" x="657.19" y="-286.2" font-family="Times,serif" font-size="14.00">possède 100%</text>
</g>
<!-- maniere&#45;de&#45;voir&#45;25 -->
<g id="node12" class="node">
<title>maniere&#45;de&#45;voir&#45;25</title>
<ellipse fill="none" stroke="black" cx="825.28" cy="-196" rx="70.8" ry="18"/>
<text text-anchor="middle" x="825.28" y="-190.95" font-family="Times,serif" font-size="14.00">Manière de voir</text>
</g>
<!-- le&#45;monde&#45;sa&#45;15&#45;&gt;maniere&#45;de&#45;voir&#45;25 -->
<g id="edge11" class="edge">
<title>le&#45;monde&#45;sa&#45;15&#45;&gt;maniere&#45;de&#45;voir&#45;25</title>
<path fill="none" stroke="black" d="M544.51,-289.03C563.56,-277.11 591.65,-260.64 617.81,-249.5 662.06,-230.65 714.56,-217.16 755.55,-208.44"/>
<polygon fill="black" stroke="black" points="756.17,-211.68 765.25,-206.21 754.75,-204.82 756.17,-211.68"/>
<text text-anchor="middle" x="657.19" y="-252.2" font-family="Times,serif" font-size="14.00">possède 51%</text>
</g>
<!-- prier&#45;17 -->
<g id="node13" class="node">
<title>prier&#45;17</title>
<ellipse fill="none" stroke="black" cx="825.28" cy="-142" rx="28.83" ry="18"/>
<text text-anchor="middle" x="825.28" y="-136.95" font-family="Times,serif" font-size="14.00">Prier</text>
</g>
<!-- le&#45;monde&#45;sa&#45;15&#45;&gt;prier&#45;17 -->
<g id="edge12" class="edge">
<title>le&#45;monde&#45;sa&#45;15&#45;&gt;prier&#45;17</title>
<path fill="none" stroke="black" d="M532.04,-289.23C548.22,-267.49 581.19,-226.83 617.81,-202.5 669.76,-167.99 741.77,-152.76 785.58,-146.34"/>
<polygon fill="black" stroke="black" points="785.92,-149.69 795.35,-144.86 784.97,-142.76 785.92,-149.69"/>
<text text-anchor="middle" x="657.19" y="-205.2" font-family="Times,serif" font-size="14.00">possède 100%</text>
</g>
<!-- telerama&#45;20 -->
<g id="node14" class="node">
<title>telerama&#45;20</title>
<ellipse fill="none" stroke="black" cx="825.28" cy="-88" rx="46.23" ry="18"/>
<text text-anchor="middle" x="825.28" y="-82.95" font-family="Times,serif" font-size="14.00">Télérama</text>
</g>
<!-- le&#45;monde&#45;sa&#45;15&#45;&gt;telerama&#45;20 -->
<g id="edge13" class="edge">
<title>le&#45;monde&#45;sa&#45;15&#45;&gt;telerama&#45;20</title>
<path fill="none" stroke="black" d="M526.69,-289.1C538.19,-258.1 568.78,-186.28 617.81,-146.5 660.85,-111.59 723.57,-97.5 768.58,-91.82"/>
<polygon fill="black" stroke="black" points="768.8,-95.2 778.33,-90.58 767.99,-88.25 768.8,-95.2"/>
<text text-anchor="middle" x="657.19" y="-149.2" font-family="Times,serif" font-size="14.00">possède 100%</text>
</g>
</g>
</svg>
