<?xml version="1.0" encoding="UTF-8" standalone="no"?>
<!DOCTYPE svg PUBLIC "-//W3C//DTD SVG 1.1//EN"
 "http://www.w3.org/Graphics/SVG/1.1/DTD/svg11.dtd">
<!-- Generated by graphviz version 7.1.0 (20230121.1956)
 -->
<!-- Pages: 1 -->
<svg width="1449pt" height="562pt"
 viewBox="0.00 0.00 1449.07 562.00" xmlns="http://www.w3.org/2000/svg" xmlns:xlink="http://www.w3.org/1999/xlink">
<g id="graph0" class="graph" transform="scale(1 1) rotate(0) translate(4 558)">
<polygon fill="white" stroke="none" points="-4,4 -4,-558 1445.07,-558 1445.07,4 -4,4"/>
<g id="clust2" class="cluster">
<title>clusterLeaves</title>
<polygon fill="none" stroke="black" points="1211.69,-8 1211.69,-546 1433.07,-546 1433.07,-8 1211.69,-8"/>
</g>
<!-- vincent&#45;bollore&#45;77 -->
<g id="node1" class="node">
<title>vincent&#45;bollore&#45;77</title>
<polygon fill="none" stroke="black" points="118,-291 0,-291 0,-255 118,-255 118,-291"/>
<text text-anchor="middle" x="59" y="-269.3" font-family="Times,serif" font-size="14.00">🧑‍💼Vincent Bolloré</text>
</g>
<!-- financiere&#45;de&#45;l&#45;odet&#45;78 -->
<g id="node5" class="node">
<title>financiere&#45;de&#45;l&#45;odet&#45;78</title>
<polygon fill="none" stroke="black" points="432.5,-278.56 329.83,-291 227.17,-278.56 227.26,-258.44 432.4,-258.44 432.5,-278.56"/>
<text text-anchor="middle" x="329.83" y="-269.3" font-family="Times,serif" font-size="14.00">Financière de l’Odet</text>
</g>
<!-- vincent&#45;bollore&#45;77&#45;&gt;financiere&#45;de&#45;l&#45;odet&#45;78 -->
<g id="edge4" class="edge">
<title>vincent&#45;bollore&#45;77&#45;&gt;financiere&#45;de&#45;l&#45;odet&#45;78</title>
<path fill="none" stroke="black" d="M118.33,-273C146.84,-273 182.16,-273 215.68,-273"/>
<polygon fill="black" stroke="black" points="215.45,-276.5 225.45,-273 215.45,-269.5 215.45,-276.5"/>
<text text-anchor="middle" x="172.5" y="-276.8" font-family="Times,serif" font-size="14.00">possède 49%</text>
</g>
<!-- vivendi&#45;81 -->
<g id="node2" class="node">
<title>vivendi&#45;81</title>
<polygon fill="none" stroke="black" points="838.86,-278.56 790.45,-291 742.04,-278.56 742.09,-258.44 838.81,-258.44 838.86,-278.56"/>
<text text-anchor="middle" x="790.45" y="-269.3" font-family="Times,serif" font-size="14.00">Vivendi</text>
</g>
<!-- prisma&#45;media&#45;106 -->
<g id="node3" class="node">
<title>prisma&#45;media&#45;106</title>
<polygon fill="none" stroke="black" points="1104.7,-278.56 1029.17,-291 953.64,-278.56 953.71,-258.44 1104.63,-258.44 1104.7,-278.56"/>
<text text-anchor="middle" x="1029.17" y="-269.3" font-family="Times,serif" font-size="14.00">Prisma Media</text>
</g>
<!-- vivendi&#45;81&#45;&gt;prisma&#45;media&#45;106 -->
<g id="edge1" class="edge">
<title>vivendi&#45;81&#45;&gt;prisma&#45;media&#45;106</title>
<path fill="none" stroke="black" d="M839.07,-273C868.67,-273 907.6,-273 942.44,-273"/>
<polygon fill="black" stroke="black" points="942.08,-276.5 952.08,-273 942.08,-269.5 942.08,-276.5"/>
<text text-anchor="middle" x="896.15" y="-276.8" font-family="Times,serif" font-size="14.00">possède 100%</text>
</g>
<!-- capital&#45;107 -->
<g id="node6" class="node">
<title>capital&#45;107</title>
<ellipse fill="none" stroke="black" cx="1322.38" cy="-520" rx="36.29" ry="18"/>
<text text-anchor="middle" x="1322.38" y="-516.3" font-family="Times,serif" font-size="14.00">Capital</text>
</g>
<!-- prisma&#45;media&#45;106&#45;&gt;capital&#45;107 -->
<g id="edge5" class="edge">
<title>prisma&#45;media&#45;106&#45;&gt;capital&#45;107</title>
<path fill="none" stroke="black" d="M1034.2,-290.61C1043.46,-327.25 1069.67,-412.24 1122.69,-460 1164.96,-498.08 1230.67,-512.01 1274.82,-517.09"/>
<polygon fill="black" stroke="black" points="1274.3,-520.56 1284.61,-518.1 1275.02,-513.6 1274.3,-520.56"/>
<text text-anchor="middle" x="1162.19" y="-504.8" font-family="Times,serif" font-size="14.00">possède 100%</text>
</g>
<!-- harvard&#45;business&#45;review&#45;109 -->
<g id="node7" class="node">
<title>harvard&#45;business&#45;review&#45;109</title>
<ellipse fill="none" stroke="black" cx="1322.38" cy="-466" rx="102.88" ry="18"/>
<text text-anchor="middle" x="1322.38" y="-462.3" font-family="Times,serif" font-size="14.00">Harvard Business Review</text>
</g>
<!-- prisma&#45;media&#45;106&#45;&gt;harvard&#45;business&#45;review&#45;109 -->
<g id="edge6" class="edge">
<title>prisma&#45;media&#45;106&#45;&gt;harvard&#45;business&#45;review&#45;109</title>
<path fill="none" stroke="black" d="M1038.36,-289.95C1052.23,-317.04 1082.76,-370.29 1122.69,-402 1154.07,-426.93 1195.41,-442.26 1232.26,-451.64"/>
<polygon fill="black" stroke="black" points="1231.01,-454.94 1241.55,-453.89 1232.66,-448.13 1231.01,-454.94"/>
<text text-anchor="middle" x="1162.19" y="-444.8" font-family="Times,serif" font-size="14.00">possède 100%</text>
</g>
<!-- management&#45;108 -->
<g id="node8" class="node">
<title>management&#45;108</title>
<ellipse fill="none" stroke="black" cx="1322.38" cy="-412" rx="57.69" ry="18"/>
<text text-anchor="middle" x="1322.38" y="-408.3" font-family="Times,serif" font-size="14.00">Management</text>
</g>
<!-- prisma&#45;media&#45;106&#45;&gt;management&#45;108 -->
<g id="edge7" class="edge">
<title>prisma&#45;media&#45;106&#45;&gt;management&#45;108</title>
<path fill="none" stroke="black" d="M1046.07,-288.65C1063.65,-305.3 1093.38,-331.59 1122.69,-349 1165.49,-374.43 1219.66,-390.72 1260.63,-400.35"/>
<polygon fill="black" stroke="black" points="1259.81,-403.75 1270.34,-402.56 1261.36,-396.93 1259.81,-403.75"/>
<text text-anchor="middle" x="1162.19" y="-386.8" font-family="Times,serif" font-size="14.00">possède 100%</text>
</g>
<!-- tele&#45;loisirs&#45;335 -->
<g id="node9" class="node">
<title>tele&#45;loisirs&#45;335</title>
<ellipse fill="none" stroke="black" cx="1322.38" cy="-358" rx="53.89" ry="18"/>
<text text-anchor="middle" x="1322.38" y="-354.3" font-family="Times,serif" font-size="14.00">Télé&#45;Loisirs</text>
</g>
<!-- prisma&#45;media&#45;106&#45;&gt;tele&#45;loisirs&#45;335 -->
<g id="edge8" class="edge">
<title>prisma&#45;media&#45;106&#45;&gt;tele&#45;loisirs&#45;335</title>
<path fill="none" stroke="black" d="M1061.07,-286.18C1078.89,-293.48 1101.82,-302.39 1122.69,-309 1169.95,-323.97 1224.73,-337.18 1264.79,-346.1"/>
<polygon fill="black" stroke="black" points="1263.94,-349.5 1274.46,-348.23 1265.44,-342.66 1263.94,-349.5"/>
<text text-anchor="middle" x="1162.19" y="-333.8" font-family="Times,serif" font-size="14.00">possède 100%</text>
</g>
<!-- gala&#45;336 -->
<g id="node10" class="node">
<title>gala&#45;336</title>
<ellipse fill="none" stroke="black" cx="1322.38" cy="-304" rx="27.1" ry="18"/>
<text text-anchor="middle" x="1322.38" y="-300.3" font-family="Times,serif" font-size="14.00">Gala</text>
</g>
<!-- prisma&#45;media&#45;106&#45;&gt;gala&#45;336 -->
<g id="edge9" class="edge">
<title>prisma&#45;media&#45;106&#45;&gt;gala&#45;336</title>
<path fill="none" stroke="black" d="M1097.71,-280.19C1155.67,-286.36 1237.07,-295.02 1284,-300.02"/>
<polygon fill="black" stroke="black" points="1283.62,-303.5 1293.93,-301.08 1284.36,-296.54 1283.62,-303.5"/>
<text text-anchor="middle" x="1162.19" y="-293.8" font-family="Times,serif" font-size="14.00">possède 100%</text>
</g>
<!-- voici&#45;337 -->
<g id="node11" class="node">
<title>voici&#45;337</title>
<ellipse fill="none" stroke="black" cx="1322.38" cy="-250" rx="29.5" ry="18"/>
<text text-anchor="middle" x="1322.38" y="-246.3" font-family="Times,serif" font-size="14.00">Voici</text>
</g>
<!-- prisma&#45;media&#45;106&#45;&gt;voici&#45;337 -->
<g id="edge10" class="edge">
<title>prisma&#45;media&#45;106&#45;&gt;voici&#45;337</title>
<path fill="none" stroke="black" d="M1105.13,-264.63C1111.06,-264.05 1116.97,-263.5 1122.69,-263 1177.58,-258.24 1241.14,-254.37 1281.3,-252.12"/>
<polygon fill="black" stroke="black" points="1281.42,-255.62 1291.21,-251.58 1281.03,-248.63 1281.42,-255.62"/>
<text text-anchor="middle" x="1162.19" y="-266.8" font-family="Times,serif" font-size="14.00">possède 100%</text>
</g>
<!-- femme&#45;actuelle&#45;338 -->
<g id="node12" class="node">
<title>femme&#45;actuelle&#45;338</title>
<ellipse fill="none" stroke="black" cx="1322.38" cy="-196" rx="69.59" ry="18"/>
<text text-anchor="middle" x="1322.38" y="-192.3" font-family="Times,serif" font-size="14.00">Femme Actuelle</text>
</g>
<!-- prisma&#45;media&#45;106&#45;&gt;femme&#45;actuelle&#45;338 -->
<g id="edge11" class="edge">
<title>prisma&#45;media&#45;106&#45;&gt;femme&#45;actuelle&#45;338</title>
<path fill="none" stroke="black" d="M1065.76,-258.07C1082.78,-251.31 1103.57,-243.6 1122.69,-238 1165.18,-225.55 1213.81,-215.21 1252.32,-207.9"/>
<polygon fill="black" stroke="black" points="1252.74,-211.38 1261.92,-206.1 1251.45,-204.5 1252.74,-211.38"/>
<text text-anchor="middle" x="1162.19" y="-241.8" font-family="Times,serif" font-size="14.00">possède 100%</text>
</g>
<!-- national&#45;geographic&#45;339 -->
<g id="node13" class="node">
<title>national&#45;geographic&#45;339</title>
<ellipse fill="none" stroke="black" cx="1322.38" cy="-142" rx="84.49" ry="18"/>
<text text-anchor="middle" x="1322.38" y="-138.3" font-family="Times,serif" font-size="14.00">National Geographic</text>
</g>
<!-- prisma&#45;media&#45;106&#45;&gt;national&#45;geographic&#45;339 -->
<g id="edge12" class="edge">
<title>prisma&#45;media&#45;106&#45;&gt;national&#45;geographic&#45;339</title>
<path fill="none" stroke="black" d="M1045.32,-258.06C1062.72,-241.62 1092.72,-215.37 1122.69,-199 1160.38,-178.41 1206.26,-164.62 1244.43,-155.76"/>
<polygon fill="black" stroke="black" points="1245.02,-159.22 1254.02,-153.61 1243.49,-152.38 1245.02,-159.22"/>
<text text-anchor="middle" x="1162.19" y="-202.8" font-family="Times,serif" font-size="14.00">possède 100%</text>
</g>
<!-- geo&#45;340 -->
<g id="node14" class="node">
<title>geo&#45;340</title>
<ellipse fill="none" stroke="black" cx="1322.38" cy="-88" rx="27" ry="18"/>
<text text-anchor="middle" x="1322.38" y="-84.3" font-family="Times,serif" font-size="14.00">Geo</text>
</g>
<!-- prisma&#45;media&#45;106&#45;&gt;geo&#45;340 -->
<g id="edge13" class="edge">
<title>prisma&#45;media&#45;106&#45;&gt;geo&#45;340</title>
<path fill="none" stroke="black" d="M1037.48,-258.09C1050.91,-232.18 1081.89,-178.65 1122.69,-148 1171.01,-111.7 1241.3,-97.21 1284.04,-91.53"/>
<polygon fill="black" stroke="black" points="1284.31,-95.02 1293.81,-90.34 1283.46,-88.08 1284.31,-95.02"/>
<text text-anchor="middle" x="1162.19" y="-151.8" font-family="Times,serif" font-size="14.00">possède 100%</text>
</g>
<!-- neon&#45;347 -->
<g id="node15" class="node">
<title>neon&#45;347</title>
<ellipse fill="none" stroke="black" cx="1322.38" cy="-34" rx="29.8" ry="18"/>
<text text-anchor="middle" x="1322.38" y="-30.3" font-family="Times,serif" font-size="14.00">Néon</text>
</g>
<!-- prisma&#45;media&#45;106&#45;&gt;neon&#45;347 -->
<g id="edge14" class="edge">
<title>prisma&#45;media&#45;106&#45;&gt;neon&#45;347</title>
<path fill="none" stroke="black" d="M1033.62,-258.12C1042.36,-223.64 1068.65,-137.71 1122.69,-91 1167.45,-52.3 1236.98,-39.81 1280.8,-35.82"/>
<polygon fill="black" stroke="black" points="1280.96,-39.31 1290.65,-35.04 1280.41,-32.34 1280.96,-39.31"/>
<text text-anchor="middle" x="1162.19" y="-94.8" font-family="Times,serif" font-size="14.00">possède 100%</text>
</g>
<!-- bollore&#45;79 -->
<g id="node4" class="node">
<title>bollore&#45;79</title>
<polygon fill="none" stroke="black" points="633.04,-278.56 587.46,-291 541.87,-278.56 541.91,-258.44 633,-258.44 633.04,-278.56"/>
<text text-anchor="middle" x="587.46" y="-269.3" font-family="Times,serif" font-size="14.00">Bolloré</text>
</g>
<!-- bollore&#45;79&#45;&gt;vivendi&#45;81 -->
<g id="edge2" class="edge">
<title>bollore&#45;79&#45;&gt;vivendi&#45;81</title>
<path fill="none" stroke="black" d="M633.31,-273C661.96,-273 699.41,-273 730.46,-273"/>
<polygon fill="black" stroke="black" points="730.06,-276.5 740.06,-273 730.06,-269.5 730.06,-276.5"/>
<text text-anchor="middle" x="687.75" y="-276.8" font-family="Times,serif" font-size="14.00">possède 27%</text>
</g>
<!-- financiere&#45;de&#45;l&#45;odet&#45;78&#45;&gt;bollore&#45;79 -->
<g id="edge3" class="edge">
<title>financiere&#45;de&#45;l&#45;odet&#45;78&#45;&gt;bollore&#45;79</title>
<path fill="none" stroke="black" d="M432.96,-273C466.09,-273 501.61,-273 530.13,-273"/>
<polygon fill="black" stroke="black" points="529.98,-276.5 539.98,-273 529.98,-269.5 529.98,-276.5"/>
<text text-anchor="middle" x="487.16" y="-276.8" font-family="Times,serif" font-size="14.00">possède 64%</text>
</g>
</g>
</svg>
