<?xml version="1.0" encoding="UTF-8" standalone="no"?>
<!DOCTYPE svg PUBLIC "-//W3C//DTD SVG 1.1//EN"
 "http://www.w3.org/Graphics/SVG/1.1/DTD/svg11.dtd">
<!-- Generated by graphviz version 7.1.0 (20230121.1956)
 -->
<!-- Pages: 1 -->
<svg width="532pt" height="76pt"
 viewBox="0.00 0.00 531.90 76.00" xmlns="http://www.w3.org/2000/svg" xmlns:xlink="http://www.w3.org/1999/xlink">
<g id="graph0" class="graph" transform="scale(1 1) rotate(0) translate(4 72)">
<polygon fill="white" stroke="none" points="-4,4 -4,-72 527.9,-72 527.9,4 -4,4"/>
<g id="clust2" class="cluster">
<title>clusterLeaves</title>
<polygon fill="none" stroke="black" points="428.4,-8 428.4,-60 515.9,-60 515.9,-8 428.4,-8"/>
</g>
<!-- province&#45;de&#45;liege&#45;279 -->
<g id="node1" class="node">
<title>province&#45;de&#45;liege&#45;279</title>
<polygon fill="none" stroke="black" points="116,-52 0,-52 0,-16 116,-16 116,-52"/>
<text text-anchor="middle" x="58" y="-30.3" font-family="Times,serif" font-size="14.00">Province de Liège</text>
</g>
<!-- publifin&#45;278 -->
<g id="node2" class="node">
<title>publifin&#45;278</title>
<polygon fill="none" stroke="black" points="321.61,-39.56 273.2,-52 224.8,-39.56 224.84,-19.44 321.56,-19.44 321.61,-39.56"/>
<text text-anchor="middle" x="273.2" y="-30.3" font-family="Times,serif" font-size="14.00">Publifin</text>
</g>
<!-- province&#45;de&#45;liege&#45;279&#45;&gt;publifin&#45;278 -->
<g id="edge1" class="edge">
<title>province&#45;de&#45;liege&#45;279&#45;&gt;publifin&#45;278</title>
<path fill="none" stroke="black" d="M116.41,-34C146.38,-34 182.99,-34 213.18,-34"/>
<polygon fill="black" stroke="black" points="212.9,-37.5 222.9,-34 212.9,-30.5 212.9,-37.5"/>
<text text-anchor="middle" x="170.5" y="-37.8" font-family="Times,serif" font-size="14.00">possède 54%</text>
</g>
<!-- nethys&#45;277 -->
<g id="node3" class="node">
<title>nethys&#45;277</title>
<ellipse fill="none" stroke="black" cx="472.15" cy="-34" rx="36" ry="18"/>
<text text-anchor="middle" x="472.15" y="-30.3" font-family="Times,serif" font-size="14.00">Nethys</text>
</g>
<!-- publifin&#45;278&#45;&gt;nethys&#45;277 -->
<g id="edge2" class="edge">
<title>publifin&#45;278&#45;&gt;nethys&#45;277</title>
<path fill="none" stroke="black" d="M321.88,-34C353.07,-34 393.63,-34 424.59,-34"/>
<polygon fill="black" stroke="black" points="424.44,-37.5 434.44,-34 424.44,-30.5 424.44,-37.5"/>
<text text-anchor="middle" x="378.9" y="-37.8" font-family="Times,serif" font-size="14.00">possède 100%</text>
</g>
</g>
</svg>
