<?xml version="1.0" encoding="UTF-8" standalone="no"?>
<!DOCTYPE svg PUBLIC "-//W3C//DTD SVG 1.1//EN"
 "http://www.w3.org/Graphics/SVG/1.1/DTD/svg11.dtd">
<!-- Generated by graphviz version 7.1.0 (20230121.1956)
 -->
<!-- Pages: 1 -->
<svg width="380pt" height="76pt"
 viewBox="0.00 0.00 380.49 76.00" xmlns="http://www.w3.org/2000/svg" xmlns:xlink="http://www.w3.org/1999/xlink">
<g id="graph0" class="graph" transform="scale(1 1) rotate(0) translate(4 72)">
<polygon fill="white" stroke="none" points="-4,4 -4,-72 376.49,-72 376.49,4 -4,4"/>
<g id="clust2" class="cluster">
<title>clusterLeaves</title>
<polygon fill="none" stroke="black" points="238,-8 238,-60 364.49,-60 364.49,-8 238,-8"/>
</g>
<!-- republique&#45;francaise&#45;128 -->
<g id="node1" class="node">
<title>republique&#45;francaise&#45;128</title>
<polygon fill="none" stroke="black" points="131,-52 0,-52 0,-16 131,-16 131,-52"/>
<text text-anchor="middle" x="65.5" y="-30.3" font-family="Times,serif" font-size="14.00">République française</text>
</g>
<!-- public&#45;senat&#45;132 -->
<g id="node2" class="node">
<title>public&#45;senat&#45;132</title>
<ellipse fill="none" stroke="black" cx="301.25" cy="-34" rx="55.49" ry="18"/>
<text text-anchor="middle" x="301.25" y="-30.3" font-family="Times,serif" font-size="14.00">Public Sénat</text>
</g>
<!-- republique&#45;francaise&#45;128&#45;&gt;public&#45;senat&#45;132 -->
<g id="edge1" class="edge">
<title>republique&#45;francaise&#45;128&#45;&gt;public&#45;senat&#45;132</title>
<path fill="none" stroke="black" d="M131.3,-34C163.45,-34 202.21,-34 234.48,-34"/>
<polygon fill="black" stroke="black" points="234.1,-37.5 244.1,-34 234.1,-30.5 234.1,-37.5"/>
<text text-anchor="middle" x="188.5" y="-37.8" font-family="Times,serif" font-size="14.00">possède 100%</text>
</g>
</g>
</svg>
