<?xml version="1.0" encoding="UTF-8" standalone="no"?>
<!DOCTYPE svg PUBLIC "-//W3C//DTD SVG 1.1//EN"
 "http://www.w3.org/Graphics/SVG/1.1/DTD/svg11.dtd">
<!-- Generated by graphviz version 8.1.0 (20230707.0739)
 -->
<!-- Pages: 1 -->
<svg width="384pt" height="76pt"
 viewBox="0.00 0.00 384.49 76.00" xmlns="http://www.w3.org/2000/svg" xmlns:xlink="http://www.w3.org/1999/xlink">
<g id="graph0" class="graph" transform="scale(1 1) rotate(0) translate(4 72)">
<polygon fill="white" stroke="none" points="-4,4 -4,-72 380.49,-72 380.49,4 -4,4"/>
<g id="clust2" class="cluster">
<title>clusterLeaves</title>
<polygon fill="none" stroke="black" points="237.5,-8 237.5,-60 368.49,-60 368.49,-8 237.5,-8"/>
</g>
<!-- republique&#45;francaise&#45;128 -->
<g id="node1" class="node">
<title>republique&#45;francaise&#45;128</title>
<polygon fill="none" stroke="black" points="130.75,-52 0,-52 0,-16 130.75,-16 130.75,-52"/>
<text text-anchor="middle" x="65.38" y="-28.95" font-family="Times,serif" font-size="14.00">République française</text>
</g>
<!-- public&#45;senat&#45;132 -->
<g id="node2" class="node">
<title>public&#45;senat&#45;132</title>
<ellipse fill="none" stroke="black" cx="302.99" cy="-34" rx="57.49" ry="18"/>
<text text-anchor="middle" x="302.99" y="-28.95" font-family="Times,serif" font-size="14.00">Public Sénat</text>
</g>
<!-- republique&#45;francaise&#45;128&#45;&gt;public&#45;senat&#45;132 -->
<g id="edge1" class="edge">
<title>republique&#45;francaise&#45;128&#45;&gt;public&#45;senat&#45;132</title>
<path fill="none" stroke="black" d="M131.07,-34C163.14,-34 201.85,-34 234.31,-34"/>
<polygon fill="black" stroke="black" points="234.07,-37.5 244.07,-34 234.07,-30.5 234.07,-37.5"/>
<text text-anchor="middle" x="188.12" y="-37.2" font-family="Times,serif" font-size="14.00">possède 100%</text>
</g>
</g>
</svg>
