<?xml version="1.0" encoding="UTF-8" standalone="no"?>
<!DOCTYPE svg PUBLIC "-//W3C//DTD SVG 1.1//EN"
 "http://www.w3.org/Graphics/SVG/1.1/DTD/svg11.dtd">
<!-- Generated by graphviz version 8.1.0 (20230707.0739)
 -->
<!-- Pages: 1 -->
<svg width="1062pt" height="292pt"
 viewBox="0.00 0.00 1061.84 292.00" xmlns="http://www.w3.org/2000/svg" xmlns:xlink="http://www.w3.org/1999/xlink">
<g id="graph0" class="graph" transform="scale(1 1) rotate(0) translate(4 288)">
<polygon fill="white" stroke="none" points="-4,4 -4,-288 1057.84,-288 1057.84,4 -4,4"/>
<g id="clust2" class="cluster">
<title>clusterLeaves</title>
<polygon fill="none" stroke="black" points="827.84,-8 827.84,-276 1045.84,-276 1045.84,-8 827.84,-8"/>
</g>
<!-- qatar&#45;investment&#45;authority&#45;68 -->
<g id="node1" class="node">
<title>qatar&#45;investment&#45;authority&#45;68</title>
<polygon fill="none" stroke="black" points="166,-160 0,-160 0,-124 166,-124 166,-160"/>
<text text-anchor="middle" x="83" y="-136.95" font-family="Times,serif" font-size="14.00">Qatar Investment Authority</text>
</g>
<!-- lagardere&#45;sa&#45;69 -->
<g id="node2" class="node">
<title>lagardere&#45;sa&#45;69</title>
<polygon fill="none" stroke="black" points="428.78,-147.56 351.39,-160 274,-147.56 274.07,-127.44 428.71,-127.44 428.78,-147.56"/>
<text text-anchor="middle" x="351.39" y="-136.95" font-family="Times,serif" font-size="14.00">Lagardère SA</text>
</g>
<!-- qatar&#45;investment&#45;authority&#45;68&#45;&gt;lagardere&#45;sa&#45;69 -->
<g id="edge1" class="edge">
<title>qatar&#45;investment&#45;authority&#45;68&#45;&gt;lagardere&#45;sa&#45;69</title>
<path fill="none" stroke="black" d="M166.46,-142C197.08,-142 231.91,-142 262.95,-142"/>
<polygon fill="black" stroke="black" points="262.76,-145.5 272.76,-142 262.76,-138.5 262.76,-145.5"/>
<text text-anchor="middle" x="220" y="-145.2" font-family="Times,serif" font-size="14.00">possède 11%</text>
</g>
<!-- lagardere&#45;news&#45;70 -->
<g id="node3" class="node">
<title>lagardere&#45;news&#45;70</title>
<polygon fill="none" stroke="black" points="721.09,-147.56 632.31,-160 543.53,-147.56 543.62,-127.44 721.01,-127.44 721.09,-147.56"/>
<text text-anchor="middle" x="632.31" y="-136.95" font-family="Times,serif" font-size="14.00">Lagardère News</text>
</g>
<!-- lagardere&#45;sa&#45;69&#45;&gt;lagardere&#45;news&#45;70 -->
<g id="edge2" class="edge">
<title>lagardere&#45;sa&#45;69&#45;&gt;lagardere&#45;news&#45;70</title>
<path fill="none" stroke="black" d="M428.98,-142C460.85,-142 498.26,-142 532.18,-142"/>
<polygon fill="black" stroke="black" points="532.06,-145.5 542.06,-142 532.06,-138.5 532.06,-145.5"/>
<text text-anchor="middle" x="486.16" y="-145.2" font-family="Times,serif" font-size="14.00">possède 100%</text>
</g>
<!-- europe&#45;1&#45;74 -->
<g id="node4" class="node">
<title>europe&#45;1&#45;74</title>
<ellipse fill="none" stroke="black" cx="936.84" cy="-250" rx="44.7" ry="18"/>
<text text-anchor="middle" x="936.84" y="-244.95" font-family="Times,serif" font-size="14.00">Europe 1</text>
</g>
<!-- lagardere&#45;news&#45;70&#45;&gt;europe&#45;1&#45;74 -->
<g id="edge3" class="edge">
<title>lagardere&#45;news&#45;70&#45;&gt;europe&#45;1&#45;74</title>
<path fill="none" stroke="black" d="M658.31,-156.76C679.34,-168.75 710.48,-185.5 739.09,-197 777.23,-212.33 788.17,-212.24 827.84,-223 847.18,-228.25 868.56,-233.67 887.16,-238.27"/>
<polygon fill="black" stroke="black" points="886.21,-241.89 896.76,-240.87 887.88,-235.09 886.21,-241.89"/>
<text text-anchor="middle" x="778.47" y="-223.2" font-family="Times,serif" font-size="14.00">possède 100%</text>
</g>
<!-- le&#45;journal&#45;du&#45;dimanche&#45;71 -->
<g id="node5" class="node">
<title>le&#45;journal&#45;du&#45;dimanche&#45;71</title>
<ellipse fill="none" stroke="black" cx="936.84" cy="-196" rx="101" ry="18"/>
<text text-anchor="middle" x="936.84" y="-190.95" font-family="Times,serif" font-size="14.00">Le Journal du dimanche</text>
</g>
<!-- lagardere&#45;news&#45;70&#45;&gt;le&#45;journal&#45;du&#45;dimanche&#45;71 -->
<g id="edge4" class="edge">
<title>lagardere&#45;news&#45;70&#45;&gt;le&#45;journal&#45;du&#45;dimanche&#45;71</title>
<path fill="none" stroke="black" d="M686.52,-152.89C703.32,-156.24 721.96,-159.86 739.09,-163 775.37,-169.64 815.51,-176.47 850.02,-182.18"/>
<polygon fill="black" stroke="black" points="849.1,-185.74 859.54,-183.91 850.24,-178.83 849.1,-185.74"/>
<text text-anchor="middle" x="778.47" y="-179.2" font-family="Times,serif" font-size="14.00">possède 100%</text>
</g>
<!-- paris&#45;match&#45;72 -->
<g id="node6" class="node">
<title>paris&#45;match&#45;72</title>
<ellipse fill="none" stroke="black" cx="936.84" cy="-142" rx="55.96" ry="18"/>
<text text-anchor="middle" x="936.84" y="-136.95" font-family="Times,serif" font-size="14.00">Paris Match</text>
</g>
<!-- lagardere&#45;news&#45;70&#45;&gt;paris&#45;match&#45;72 -->
<g id="edge5" class="edge">
<title>lagardere&#45;news&#45;70&#45;&gt;paris&#45;match&#45;72</title>
<path fill="none" stroke="black" d="M721.22,-142C768.67,-142 826.26,-142 869.83,-142"/>
<polygon fill="black" stroke="black" points="869.6,-145.5 879.6,-142 869.6,-138.5 869.6,-145.5"/>
<text text-anchor="middle" x="778.47" y="-145.2" font-family="Times,serif" font-size="14.00">possède 100%</text>
</g>
<!-- rfm&#45;75 -->
<g id="node7" class="node">
<title>rfm&#45;75</title>
<ellipse fill="none" stroke="black" cx="936.84" cy="-88" rx="30.88" ry="18"/>
<text text-anchor="middle" x="936.84" y="-82.95" font-family="Times,serif" font-size="14.00">RFM</text>
</g>
<!-- lagardere&#45;news&#45;70&#45;&gt;rfm&#45;75 -->
<g id="edge6" class="edge">
<title>lagardere&#45;news&#45;70&#45;&gt;rfm&#45;75</title>
<path fill="none" stroke="black" d="M709.83,-126.96C719.67,-125.09 729.61,-123.23 739.09,-121.5 793.35,-111.62 856.19,-101.08 895.97,-94.51"/>
<polygon fill="black" stroke="black" points="896.5,-97.81 905.8,-92.73 895.36,-90.9 896.5,-97.81"/>
<text text-anchor="middle" x="778.47" y="-124.2" font-family="Times,serif" font-size="14.00">possède 100%</text>
</g>
<!-- virgin&#45;radio&#45;76 -->
<g id="node8" class="node">
<title>virgin&#45;radio&#45;76</title>
<ellipse fill="none" stroke="black" cx="936.84" cy="-34" rx="59.54" ry="18"/>
<text text-anchor="middle" x="936.84" y="-28.95" font-family="Times,serif" font-size="14.00">Virgin Radio</text>
</g>
<!-- lagardere&#45;news&#45;70&#45;&gt;virgin&#45;radio&#45;76 -->
<g id="edge7" class="edge">
<title>lagardere&#45;news&#45;70&#45;&gt;virgin&#45;radio&#45;76</title>
<path fill="none" stroke="black" d="M659.19,-126.94C680.23,-115.13 710.92,-98.85 739.09,-87.5 777.27,-72.12 788.14,-71.88 827.84,-61 844.28,-56.49 862.21,-51.89 878.65,-47.79"/>
<polygon fill="black" stroke="black" points="879.34,-50.97 888.2,-45.17 877.66,-44.18 879.34,-50.97"/>
<text text-anchor="middle" x="778.47" y="-90.2" font-family="Times,serif" font-size="14.00">possède 100%</text>
</g>
</g>
</svg>
