<?xml version="1.0" encoding="UTF-8" standalone="no"?>
<!DOCTYPE svg PUBLIC "-//W3C//DTD SVG 1.1//EN"
 "http://www.w3.org/Graphics/SVG/1.1/DTD/svg11.dtd">
<!-- Generated by graphviz version 7.1.0 (20230121.1956)
 -->
<!-- Pages: 1 -->
<svg width="1042pt" height="292pt"
 viewBox="0.00 0.00 1041.82 292.00" xmlns="http://www.w3.org/2000/svg" xmlns:xlink="http://www.w3.org/1999/xlink">
<g id="graph0" class="graph" transform="scale(1 1) rotate(0) translate(4 288)">
<polygon fill="white" stroke="none" points="-4,4 -4,-288 1037.82,-288 1037.82,4 -4,4"/>
<g id="clust2" class="cluster">
<title>clusterLeaves</title>
<polygon fill="none" stroke="black" points="816.14,-8 816.14,-276 1025.82,-276 1025.82,-8 816.14,-8"/>
</g>
<!-- qatar&#45;investment&#45;authority&#45;68 -->
<g id="node1" class="node">
<title>qatar&#45;investment&#45;authority&#45;68</title>
<polygon fill="none" stroke="black" points="167,-160 0,-160 0,-124 167,-124 167,-160"/>
<text text-anchor="middle" x="83.5" y="-138.3" font-family="Times,serif" font-size="14.00">Qatar Investment Authority</text>
</g>
<!-- lagardere&#45;sa&#45;69 -->
<g id="node2" class="node">
<title>lagardere&#45;sa&#45;69</title>
<polygon fill="none" stroke="black" points="423.73,-147.56 349.91,-160 276.09,-147.56 276.16,-127.44 423.66,-127.44 423.73,-147.56"/>
<text text-anchor="middle" x="349.91" y="-138.3" font-family="Times,serif" font-size="14.00">Lagardère SA</text>
</g>
<!-- qatar&#45;investment&#45;authority&#45;68&#45;&gt;lagardere&#45;sa&#45;69 -->
<g id="edge1" class="edge">
<title>qatar&#45;investment&#45;authority&#45;68&#45;&gt;lagardere&#45;sa&#45;69</title>
<path fill="none" stroke="black" d="M167.44,-142C198.32,-142 233.4,-142 264.43,-142"/>
<polygon fill="black" stroke="black" points="264.15,-145.5 274.15,-142 264.15,-138.5 264.15,-145.5"/>
<text text-anchor="middle" x="221.5" y="-145.8" font-family="Times,serif" font-size="14.00">possède 12%</text>
</g>
<!-- lagardere&#45;news&#45;70 -->
<g id="node3" class="node">
<title>lagardere&#45;news&#45;70</title>
<polygon fill="none" stroke="black" points="709.29,-147.56 623.98,-160 538.66,-147.56 538.74,-127.44 709.21,-127.44 709.29,-147.56"/>
<text text-anchor="middle" x="623.98" y="-138.3" font-family="Times,serif" font-size="14.00">Lagardère News</text>
</g>
<!-- lagardere&#45;sa&#45;69&#45;&gt;lagardere&#45;news&#45;70 -->
<g id="edge2" class="edge">
<title>lagardere&#45;sa&#45;69&#45;&gt;lagardere&#45;news&#45;70</title>
<path fill="none" stroke="black" d="M424.18,-142C455.85,-142 493.34,-142 527.18,-142"/>
<polygon fill="black" stroke="black" points="526.99,-145.5 536.99,-142 526.99,-138.5 526.99,-145.5"/>
<text text-anchor="middle" x="481.32" y="-145.8" font-family="Times,serif" font-size="14.00">possède 100%</text>
</g>
<!-- europe&#45;1&#45;74 -->
<g id="node4" class="node">
<title>europe&#45;1&#45;74</title>
<ellipse fill="none" stroke="black" cx="920.98" cy="-250" rx="42.79" ry="18"/>
<text text-anchor="middle" x="920.98" y="-246.3" font-family="Times,serif" font-size="14.00">Europe 1</text>
</g>
<!-- lagardere&#45;news&#45;70&#45;&gt;europe&#45;1&#45;74 -->
<g id="edge3" class="edge">
<title>lagardere&#45;news&#45;70&#45;&gt;europe&#45;1&#45;74</title>
<path fill="none" stroke="black" d="M651.39,-156.45C671.75,-167.27 700.78,-182.04 727.14,-193 765.68,-209.03 776.13,-211.07 816.14,-223 834.38,-228.44 854.61,-233.84 872.33,-238.36"/>
<polygon fill="black" stroke="black" points="871.26,-241.7 881.81,-240.76 872.97,-234.92 871.26,-241.7"/>
<text text-anchor="middle" x="766.64" y="-222.8" font-family="Times,serif" font-size="14.00">possède 100%</text>
</g>
<!-- le&#45;journal&#45;du&#45;dimanche&#45;71 -->
<g id="node5" class="node">
<title>le&#45;journal&#45;du&#45;dimanche&#45;71</title>
<ellipse fill="none" stroke="black" cx="920.98" cy="-196" rx="96.68" ry="18"/>
<text text-anchor="middle" x="920.98" y="-192.3" font-family="Times,serif" font-size="14.00">Le Journal du dimanche</text>
</g>
<!-- lagardere&#45;news&#45;70&#45;&gt;le&#45;journal&#45;du&#45;dimanche&#45;71 -->
<g id="edge4" class="edge">
<title>lagardere&#45;news&#45;70&#45;&gt;le&#45;journal&#45;du&#45;dimanche&#45;71</title>
<path fill="none" stroke="black" d="M680.11,-152.3C695.34,-155.13 711.88,-158.2 727.14,-161 763.98,-167.77 804.79,-175.19 839.35,-181.45"/>
<polygon fill="black" stroke="black" points="838.39,-184.83 848.85,-183.17 839.64,-177.94 838.39,-184.83"/>
<text text-anchor="middle" x="766.64" y="-177.8" font-family="Times,serif" font-size="14.00">possède 100%</text>
</g>
<!-- paris&#45;match&#45;72 -->
<g id="node6" class="node">
<title>paris&#45;match&#45;72</title>
<ellipse fill="none" stroke="black" cx="920.98" cy="-142" rx="53.89" ry="18"/>
<text text-anchor="middle" x="920.98" y="-138.3" font-family="Times,serif" font-size="14.00">Paris Match</text>
</g>
<!-- lagardere&#45;news&#45;70&#45;&gt;paris&#45;match&#45;72 -->
<g id="edge5" class="edge">
<title>lagardere&#45;news&#45;70&#45;&gt;paris&#45;match&#45;72</title>
<path fill="none" stroke="black" d="M709.51,-142C755.99,-142 812.73,-142 855.58,-142"/>
<polygon fill="black" stroke="black" points="855.49,-145.5 865.49,-142 855.49,-138.5 855.49,-145.5"/>
<text text-anchor="middle" x="766.64" y="-145.8" font-family="Times,serif" font-size="14.00">possède 100%</text>
</g>
<!-- rfm&#45;75 -->
<g id="node7" class="node">
<title>rfm&#45;75</title>
<ellipse fill="none" stroke="black" cx="920.98" cy="-88" rx="29.8" ry="18"/>
<text text-anchor="middle" x="920.98" y="-84.3" font-family="Times,serif" font-size="14.00">RFM</text>
</g>
<!-- lagardere&#45;news&#45;70&#45;&gt;rfm&#45;75 -->
<g id="edge6" class="edge">
<title>lagardere&#45;news&#45;70&#45;&gt;rfm&#45;75</title>
<path fill="none" stroke="black" d="M705.55,-126.98C712.85,-125.63 720.13,-124.29 727.14,-123 780.33,-113.23 841.8,-102.1 880.77,-95.06"/>
<polygon fill="black" stroke="black" points="881.16,-98.55 890.38,-93.33 879.91,-91.66 881.16,-98.55"/>
<text text-anchor="middle" x="766.64" y="-126.8" font-family="Times,serif" font-size="14.00">possède 100%</text>
</g>
<!-- virgin&#45;radio&#45;76 -->
<g id="node8" class="node">
<title>virgin&#45;radio&#45;76</title>
<ellipse fill="none" stroke="black" cx="920.98" cy="-34" rx="57.39" ry="18"/>
<text text-anchor="middle" x="920.98" y="-30.3" font-family="Times,serif" font-size="14.00">Virgin Radio</text>
</g>
<!-- lagardere&#45;news&#45;70&#45;&gt;virgin&#45;radio&#45;76 -->
<g id="edge7" class="edge">
<title>lagardere&#45;news&#45;70&#45;&gt;virgin&#45;radio&#45;76</title>
<path fill="none" stroke="black" d="M651.33,-127.15C671.65,-116.05 700.66,-100.97 727.14,-90 765.57,-74.07 776.21,-72.68 816.14,-61 831.53,-56.5 848.31,-51.97 863.81,-47.94"/>
<polygon fill="black" stroke="black" points="864.56,-51.36 873.37,-45.48 862.81,-44.58 864.56,-51.36"/>
<text text-anchor="middle" x="766.64" y="-93.8" font-family="Times,serif" font-size="14.00">possède 100%</text>
</g>
</g>
</svg>
