<?xml version="1.0" encoding="UTF-8" standalone="no"?>
<!DOCTYPE svg PUBLIC "-//W3C//DTD SVG 1.1//EN"
 "http://www.w3.org/Graphics/SVG/1.1/DTD/svg11.dtd">
<!-- Generated by graphviz version 7.1.0 (20230121.1956)
 -->
<!-- Pages: 1 -->
<svg width="898pt" height="76pt"
 viewBox="0.00 0.00 898.06 76.00" xmlns="http://www.w3.org/2000/svg" xmlns:xlink="http://www.w3.org/1999/xlink">
<g id="graph0" class="graph" transform="scale(1 1) rotate(0) translate(4 72)">
<polygon fill="white" stroke="none" points="-4,4 -4,-72 894.06,-72 894.06,4 -4,4"/>
<g id="clust2" class="cluster">
<title>clusterLeaves</title>
<polygon fill="none" stroke="black" points="729.57,-8 729.57,-60 882.06,-60 882.06,-8 729.57,-8"/>
</g>
<!-- bernard&#45;arnault&#45;42 -->
<g id="node1" class="node">
<title>bernard&#45;arnault&#45;42</title>
<polygon fill="none" stroke="black" points="119,-52 0,-52 0,-16 119,-16 119,-52"/>
<text text-anchor="middle" x="59.5" y="-30.3" font-family="Times,serif" font-size="14.00">🧑‍💼Bernard Arnault</text>
</g>
<!-- lvmh&#45;43 -->
<g id="node3" class="node">
<title>lvmh&#45;43</title>
<polygon fill="none" stroke="black" points="319.38,-39.56 273.79,-52 228.21,-39.56 228.25,-19.44 319.34,-19.44 319.38,-39.56"/>
<text text-anchor="middle" x="273.79" y="-30.3" font-family="Times,serif" font-size="14.00">LVMH</text>
</g>
<!-- bernard&#45;arnault&#45;42&#45;&gt;lvmh&#45;43 -->
<g id="edge3" class="edge">
<title>bernard&#45;arnault&#45;42&#45;&gt;lvmh&#45;43</title>
<path fill="none" stroke="black" d="M119.35,-34C149.82,-34 186.82,-34 216.85,-34"/>
<polygon fill="black" stroke="black" points="216.48,-37.5 226.48,-34 216.48,-30.5 216.48,-37.5"/>
<text text-anchor="middle" x="173.5" y="-37.8" font-family="Times,serif" font-size="14.00">possède 46%</text>
</g>
<!-- groupe&#45;les&#45;echos&#45;48 -->
<g id="node2" class="node">
<title>groupe&#45;les&#45;echos&#45;48</title>
<polygon fill="none" stroke="black" points="622.57,-39.56 528.58,-52 434.59,-39.56 434.68,-19.44 622.48,-19.44 622.57,-39.56"/>
<text text-anchor="middle" x="528.58" y="-30.3" font-family="Times,serif" font-size="14.00">Groupe Les Échos</text>
</g>
<!-- radio&#45;classique&#45;53 -->
<g id="node4" class="node">
<title>radio&#45;classique&#45;53</title>
<ellipse fill="none" stroke="black" cx="805.82" cy="-34" rx="68.49" ry="18"/>
<text text-anchor="middle" x="805.82" y="-30.3" font-family="Times,serif" font-size="14.00">Radio Classique</text>
</g>
<!-- groupe&#45;les&#45;echos&#45;48&#45;&gt;radio&#45;classique&#45;53 -->
<g id="edge1" class="edge">
<title>groupe&#45;les&#45;echos&#45;48&#45;&gt;radio&#45;classique&#45;53</title>
<path fill="none" stroke="black" d="M622.76,-34C656.24,-34 693.66,-34 725.82,-34"/>
<polygon fill="black" stroke="black" points="725.44,-37.5 735.44,-34 725.44,-30.5 725.44,-37.5"/>
<text text-anchor="middle" x="680.07" y="-37.8" font-family="Times,serif" font-size="14.00">possède 100%</text>
</g>
<!-- lvmh&#45;43&#45;&gt;groupe&#45;les&#45;echos&#45;48 -->
<g id="edge2" class="edge">
<title>lvmh&#45;43&#45;&gt;groupe&#45;les&#45;echos&#45;48</title>
<path fill="none" stroke="black" d="M319.69,-34C348.43,-34 386.96,-34 423.05,-34"/>
<polygon fill="black" stroke="black" points="422.64,-37.5 432.64,-34 422.64,-30.5 422.64,-37.5"/>
<text text-anchor="middle" x="377.08" y="-37.8" font-family="Times,serif" font-size="14.00">possède 100%</text>
</g>
</g>
</svg>
