<?xml version="1.0" encoding="UTF-8" standalone="no"?>
<!DOCTYPE svg PUBLIC "-//W3C//DTD SVG 1.1//EN"
 "http://www.w3.org/Graphics/SVG/1.1/DTD/svg11.dtd">
<!-- Generated by graphviz version 7.1.0 (20230121.1956)
 -->
<!-- Pages: 1 -->
<svg width="821pt" height="76pt"
 viewBox="0.00 0.00 820.53 76.00" xmlns="http://www.w3.org/2000/svg" xmlns:xlink="http://www.w3.org/1999/xlink">
<g id="graph0" class="graph" transform="scale(1 1) rotate(0) translate(4 72)">
<polygon fill="white" stroke="none" points="-4,4 -4,-72 816.53,-72 816.53,4 -4,4"/>
<g id="clust2" class="cluster">
<title>clusterLeaves</title>
<polygon fill="none" stroke="black" points="577.94,-8 577.94,-60 804.53,-60 804.53,-8 577.94,-8"/>
</g>
<!-- republique&#45;francaise&#45;128 -->
<g id="node1" class="node">
<title>republique&#45;francaise&#45;128</title>
<polygon fill="none" stroke="black" points="131,-52 0,-52 0,-16 131,-16 131,-52"/>
<text text-anchor="middle" x="65.5" y="-30.3" font-family="Times,serif" font-size="14.00">République française</text>
</g>
<!-- france&#45;medias&#45;monde&#45;133 -->
<g id="node2" class="node">
<title>france&#45;medias&#45;monde&#45;133</title>
<polygon fill="none" stroke="black" points="470.92,-39.56 358.47,-52 246.03,-39.56 246.13,-19.44 470.81,-19.44 470.92,-39.56"/>
<text text-anchor="middle" x="358.47" y="-30.3" font-family="Times,serif" font-size="14.00">France Médias Monde</text>
</g>
<!-- republique&#45;francaise&#45;128&#45;&gt;france&#45;medias&#45;monde&#45;133 -->
<g id="edge2" class="edge">
<title>republique&#45;francaise&#45;128&#45;&gt;france&#45;medias&#45;monde&#45;133</title>
<path fill="none" stroke="black" d="M131.44,-34C161.74,-34 198.85,-34 234.17,-34"/>
<polygon fill="black" stroke="black" points="234.06,-37.5 244.06,-34 234.06,-30.5 234.06,-37.5"/>
<text text-anchor="middle" x="188.5" y="-37.8" font-family="Times,serif" font-size="14.00">possède 100%</text>
</g>
<!-- radio&#45;france&#45;international&#45;138 -->
<g id="node3" class="node">
<title>radio&#45;france&#45;international&#45;138</title>
<ellipse fill="none" stroke="black" cx="691.24" cy="-34" rx="105.08" ry="18"/>
<text text-anchor="middle" x="691.24" y="-30.3" font-family="Times,serif" font-size="14.00">Radio France International</text>
</g>
<!-- france&#45;medias&#45;monde&#45;133&#45;&gt;radio&#45;france&#45;international&#45;138 -->
<g id="edge1" class="edge">
<title>france&#45;medias&#45;monde&#45;133&#45;&gt;radio&#45;france&#45;international&#45;138</title>
<path fill="none" stroke="black" d="M470.99,-34C504.36,-34 541,-34 574.62,-34"/>
<polygon fill="black" stroke="black" points="574.38,-37.5 584.38,-34 574.38,-30.5 574.38,-37.5"/>
<text text-anchor="middle" x="528.44" y="-37.8" font-family="Times,serif" font-size="14.00">possède 100%</text>
</g>
</g>
</svg>
