<?xml version="1.0" encoding="UTF-8" standalone="no"?>
<!DOCTYPE svg PUBLIC "-//W3C//DTD SVG 1.1//EN"
 "http://www.w3.org/Graphics/SVG/1.1/DTD/svg11.dtd">
<!-- Generated by graphviz version 8.1.0 (20230707.0739)
 -->
<!-- Pages: 1 -->
<svg width="840pt" height="76pt"
 viewBox="0.00 0.00 840.43 76.00" xmlns="http://www.w3.org/2000/svg" xmlns:xlink="http://www.w3.org/1999/xlink">
<g id="graph0" class="graph" transform="scale(1 1) rotate(0) translate(4 72)">
<polygon fill="white" stroke="none" points="-4,4 -4,-72 836.43,-72 836.43,4 -4,4"/>
<g id="clust2" class="cluster">
<title>clusterLeaves</title>
<polygon fill="none" stroke="black" points="588.01,-8 588.01,-60 824.43,-60 824.43,-8 588.01,-8"/>
</g>
<!-- republique&#45;francaise&#45;128 -->
<g id="node1" class="node">
<title>republique&#45;francaise&#45;128</title>
<polygon fill="none" stroke="black" points="130.75,-52 0,-52 0,-16 130.75,-16 130.75,-52"/>
<text text-anchor="middle" x="65.38" y="-28.95" font-family="Times,serif" font-size="14.00">République française</text>
</g>
<!-- france&#45;medias&#45;monde&#45;133 -->
<g id="node2" class="node">
<title>france&#45;medias&#45;monde&#45;133</title>
<polygon fill="none" stroke="black" points="481.26,-39.56 363.38,-52 245.5,-39.56 245.61,-19.44 481.15,-19.44 481.26,-39.56"/>
<text text-anchor="middle" x="363.38" y="-28.95" font-family="Times,serif" font-size="14.00">France Médias Monde</text>
</g>
<!-- republique&#45;francaise&#45;128&#45;&gt;france&#45;medias&#45;monde&#45;133 -->
<g id="edge2" class="edge">
<title>republique&#45;francaise&#45;128&#45;&gt;france&#45;medias&#45;monde&#45;133</title>
<path fill="none" stroke="black" d="M130.97,-34C161.39,-34 198.8,-34 234.59,-34"/>
<polygon fill="black" stroke="black" points="234.14,-37.5 244.14,-34 234.14,-30.5 234.14,-37.5"/>
<text text-anchor="middle" x="188.12" y="-37.2" font-family="Times,serif" font-size="14.00">possède 100%</text>
</g>
<!-- radio&#45;france&#45;international&#45;138 -->
<g id="node3" class="node">
<title>radio&#45;france&#45;international&#45;138</title>
<ellipse fill="none" stroke="black" cx="706.22" cy="-34" rx="110.21" ry="18"/>
<text text-anchor="middle" x="706.22" y="-28.95" font-family="Times,serif" font-size="14.00">Radio France International</text>
</g>
<!-- france&#45;medias&#45;monde&#45;133&#45;&gt;radio&#45;france&#45;international&#45;138 -->
<g id="edge1" class="edge">
<title>france&#45;medias&#45;monde&#45;133&#45;&gt;radio&#45;france&#45;international&#45;138</title>
<path fill="none" stroke="black" d="M481.68,-34C515.04,-34 551.42,-34 584.95,-34"/>
<polygon fill="black" stroke="black" points="584.73,-37.5 594.73,-34 584.73,-30.5 584.73,-37.5"/>
<text text-anchor="middle" x="538.63" y="-37.2" font-family="Times,serif" font-size="14.00">possède 100%</text>
</g>
</g>
</svg>
