<?xml version="1.0" encoding="UTF-8" standalone="no"?>
<!DOCTYPE svg PUBLIC "-//W3C//DTD SVG 1.1//EN"
 "http://www.w3.org/Graphics/SVG/1.1/DTD/svg11.dtd">
<!-- Generated by graphviz version 7.1.0 (20230121.1956)
 -->
<!-- Pages: 1 -->
<svg width="666pt" height="400pt"
 viewBox="0.00 0.00 666.49 400.00" xmlns="http://www.w3.org/2000/svg" xmlns:xlink="http://www.w3.org/1999/xlink">
<g id="graph0" class="graph" transform="scale(1 1) rotate(0) translate(4 396)">
<polygon fill="white" stroke="none" points="-4,4 -4,-396 662.49,-396 662.49,4 -4,4"/>
<g id="clust2" class="cluster">
<title>clusterLeaves</title>
<polygon fill="none" stroke="black" points="498,-8 498,-384 650.49,-384 650.49,-8 498,-8"/>
</g>
<!-- republique&#45;francaise&#45;128 -->
<g id="node1" class="node">
<title>republique&#45;francaise&#45;128</title>
<polygon fill="none" stroke="black" points="131,-214 0,-214 0,-178 131,-178 131,-214"/>
<text text-anchor="middle" x="65.5" y="-192.3" font-family="Times,serif" font-size="14.00">République française</text>
</g>
<!-- radio&#45;france&#45;135 -->
<g id="node2" class="node">
<title>radio&#45;france&#45;135</title>
<polygon fill="none" stroke="black" points="389,-201.56 317.5,-214 246,-201.56 246.07,-181.44 388.93,-181.44 389,-201.56"/>
<text text-anchor="middle" x="317.5" y="-192.3" font-family="Times,serif" font-size="14.00">Radio France</text>
</g>
<!-- republique&#45;francaise&#45;128&#45;&gt;radio&#45;france&#45;135 -->
<g id="edge1" class="edge">
<title>republique&#45;francaise&#45;128&#45;&gt;radio&#45;france&#45;135</title>
<path fill="none" stroke="black" d="M131.21,-196C162.79,-196 201.13,-196 234.72,-196"/>
<polygon fill="black" stroke="black" points="234.4,-199.5 244.4,-196 234.4,-192.5 234.4,-199.5"/>
<text text-anchor="middle" x="188.5" y="-199.8" font-family="Times,serif" font-size="14.00">possède 100%</text>
</g>
<!-- fip&#45;150 -->
<g id="node3" class="node">
<title>fip&#45;150</title>
<ellipse fill="none" stroke="black" cx="574.24" cy="-358" rx="27" ry="18"/>
<text text-anchor="middle" x="574.24" y="-354.3" font-family="Times,serif" font-size="14.00">FIP</text>
</g>
<!-- radio&#45;france&#45;135&#45;&gt;fip&#45;150 -->
<g id="edge2" class="edge">
<title>radio&#45;france&#45;135&#45;&gt;fip&#45;150</title>
<path fill="none" stroke="black" d="M328.5,-212.25C343.12,-234.74 372.39,-275.27 407,-299 447.11,-326.5 501.44,-342.59 536.9,-350.84"/>
<polygon fill="black" stroke="black" points="535.71,-354.16 546.23,-352.92 537.23,-347.33 535.71,-354.16"/>
<text text-anchor="middle" x="447.5" y="-339.8" font-family="Times,serif" font-size="14.00">possède 100%</text>
</g>
<!-- france&#45;bleu&#45;151 -->
<g id="node4" class="node">
<title>france&#45;bleu&#45;151</title>
<ellipse fill="none" stroke="black" cx="574.24" cy="-304" rx="53.89" ry="18"/>
<text text-anchor="middle" x="574.24" y="-300.3" font-family="Times,serif" font-size="14.00">France Bleu</text>
</g>
<!-- radio&#45;france&#45;135&#45;&gt;france&#45;bleu&#45;151 -->
<g id="edge3" class="edge">
<title>radio&#45;france&#45;135&#45;&gt;france&#45;bleu&#45;151</title>
<path fill="none" stroke="black" d="M339.19,-210.54C356.65,-222.34 382.63,-238.8 407,-250 443.41,-266.74 486.5,-280.58 519.69,-290.06"/>
<polygon fill="black" stroke="black" points="518.51,-293.36 529.08,-292.69 520.4,-286.62 518.51,-293.36"/>
<text text-anchor="middle" x="447.5" y="-283.8" font-family="Times,serif" font-size="14.00">possède 100%</text>
</g>
<!-- france&#45;culture&#45;149 -->
<g id="node5" class="node">
<title>france&#45;culture&#45;149</title>
<ellipse fill="none" stroke="black" cx="574.24" cy="-250" rx="63.89" ry="18"/>
<text text-anchor="middle" x="574.24" y="-246.3" font-family="Times,serif" font-size="14.00">France Culture</text>
</g>
<!-- radio&#45;france&#45;135&#45;&gt;france&#45;culture&#45;149 -->
<g id="edge4" class="edge">
<title>radio&#45;france&#45;135&#45;&gt;france&#45;culture&#45;149</title>
<path fill="none" stroke="black" d="M365.34,-206.09C378.79,-208.98 393.47,-212.12 407,-215 441.3,-222.29 479.6,-230.36 510.79,-236.91"/>
<polygon fill="black" stroke="black" points="509.95,-240.31 520.45,-238.94 511.38,-233.46 509.95,-240.31"/>
<text text-anchor="middle" x="447.5" y="-234.8" font-family="Times,serif" font-size="14.00">possède 100%</text>
</g>
<!-- france&#45;info&#45;152 -->
<g id="node6" class="node">
<title>france&#45;info&#45;152</title>
<ellipse fill="none" stroke="black" cx="574.24" cy="-196" rx="51.99" ry="18"/>
<text text-anchor="middle" x="574.24" y="-192.3" font-family="Times,serif" font-size="14.00">France Info</text>
</g>
<!-- radio&#45;france&#45;135&#45;&gt;france&#45;info&#45;152 -->
<g id="edge5" class="edge">
<title>radio&#45;france&#45;135&#45;&gt;france&#45;info&#45;152</title>
<path fill="none" stroke="black" d="M389.46,-196C427.62,-196 474.24,-196 510.98,-196"/>
<polygon fill="black" stroke="black" points="510.53,-199.5 520.53,-196 510.53,-192.5 510.53,-199.5"/>
<text text-anchor="middle" x="447.5" y="-199.8" font-family="Times,serif" font-size="14.00">contrôle 100%</text>
</g>
<!-- radio&#45;france&#45;135&#45;&gt;france&#45;info&#45;152 -->
<g id="edge6" class="edge">
<title>radio&#45;france&#45;135&#45;&gt;france&#45;info&#45;152</title>
<path fill="none" stroke="black" d="M380.61,-180.94C389.42,-179.31 398.41,-177.91 407,-177 442.8,-173.2 452.22,-173.06 488,-177 498.85,-178.19 510.34,-180.22 521.25,-182.51"/>
<polygon fill="black" stroke="black" points="520.36,-185.9 530.88,-184.65 521.88,-179.07 520.36,-185.9"/>
<text text-anchor="middle" x="447.5" y="-180.8" font-family="Times,serif" font-size="14.00">possède 100%</text>
</g>
<!-- france&#45;inter&#45;147 -->
<g id="node7" class="node">
<title>france&#45;inter&#45;147</title>
<ellipse fill="none" stroke="black" cx="574.24" cy="-142" rx="53.89" ry="18"/>
<text text-anchor="middle" x="574.24" y="-138.3" font-family="Times,serif" font-size="14.00">France Inter</text>
</g>
<!-- radio&#45;france&#45;135&#45;&gt;france&#45;inter&#45;147 -->
<g id="edge7" class="edge">
<title>radio&#45;france&#45;135&#45;&gt;france&#45;inter&#45;147</title>
<path fill="none" stroke="black" d="M344.3,-181.06C361.48,-171.87 384.89,-160.79 407,-155 439.93,-146.38 477.67,-142.94 508.86,-141.73"/>
<polygon fill="black" stroke="black" points="508.64,-145.24 518.53,-141.43 508.42,-138.25 508.64,-145.24"/>
<text text-anchor="middle" x="447.5" y="-158.8" font-family="Times,serif" font-size="14.00">possède 100%</text>
</g>
<!-- france&#45;musique&#45;148 -->
<g id="node8" class="node">
<title>france&#45;musique&#45;148</title>
<ellipse fill="none" stroke="black" cx="574.24" cy="-88" rx="68.49" ry="18"/>
<text text-anchor="middle" x="574.24" y="-84.3" font-family="Times,serif" font-size="14.00">France Musique</text>
</g>
<!-- radio&#45;france&#45;135&#45;&gt;france&#45;musique&#45;148 -->
<g id="edge8" class="edge">
<title>radio&#45;france&#45;135&#45;&gt;france&#45;musique&#45;148</title>
<path fill="none" stroke="black" d="M332,-181.2C348.16,-164.42 376.85,-137.51 407,-123 435.28,-109.39 468.77,-101.05 498.26,-95.94"/>
<polygon fill="black" stroke="black" points="498.54,-99.44 507.85,-94.38 497.42,-92.53 498.54,-99.44"/>
<text text-anchor="middle" x="447.5" y="-126.8" font-family="Times,serif" font-size="14.00">possède 100%</text>
</g>
<!-- mouv&#45;153 -->
<g id="node9" class="node">
<title>mouv&#45;153</title>
<ellipse fill="none" stroke="black" cx="574.24" cy="-34" rx="35.19" ry="18"/>
<text text-anchor="middle" x="574.24" y="-30.3" font-family="Times,serif" font-size="14.00">Mouv’</text>
</g>
<!-- radio&#45;france&#45;135&#45;&gt;mouv&#45;153 -->
<g id="edge9" class="edge">
<title>radio&#45;france&#45;135&#45;&gt;mouv&#45;153</title>
<path fill="none" stroke="black" d="M325.52,-181.29C338.19,-156.33 367.31,-105.79 407,-79 443.34,-54.47 492.59,-43.28 528.04,-38.19"/>
<polygon fill="black" stroke="black" points="528.07,-41.72 537.53,-36.94 527.16,-34.78 528.07,-41.72"/>
<text text-anchor="middle" x="447.5" y="-82.8" font-family="Times,serif" font-size="14.00">possède 100%</text>
</g>
</g>
</svg>
