<?xml version="1.0" encoding="UTF-8" standalone="no"?>
<!DOCTYPE svg PUBLIC "-//W3C//DTD SVG 1.1//EN"
 "http://www.w3.org/Graphics/SVG/1.1/DTD/svg11.dtd">
<!-- Generated by graphviz version 8.1.0 (20230707.0739)
 -->
<!-- Pages: 1 -->
<svg width="752pt" height="76pt"
 viewBox="0.00 0.00 752.46 76.00" xmlns="http://www.w3.org/2000/svg" xmlns:xlink="http://www.w3.org/1999/xlink">
<g id="graph0" class="graph" transform="scale(1 1) rotate(0) translate(4 72)">
<polygon fill="white" stroke="none" points="-4,4 -4,-72 748.46,-72 748.46,4 -4,4"/>
<g id="clust2" class="cluster">
<title>clusterLeaves</title>
<polygon fill="none" stroke="black" points="558.39,-8 558.39,-60 736.46,-60 736.46,-8 558.39,-8"/>
</g>
<!-- fondation&#45;varenne&#45;220 -->
<g id="node1" class="node">
<title>fondation&#45;varenne&#45;220</title>
<polygon fill="none" stroke="black" points="118,-52 0,-52 0,-16 118,-16 118,-52"/>
<text text-anchor="middle" x="59" y="-28.95" font-family="Times,serif" font-size="14.00">Fondation Varenne</text>
</g>
<!-- groupe&#45;la&#45;montagne&#45;222 -->
<g id="node2" class="node">
<title>groupe&#45;la&#45;montagne&#45;222</title>
<polygon fill="none" stroke="black" points="451.64,-39.56 338.82,-52 226,-39.56 226.11,-19.44 451.53,-19.44 451.64,-39.56"/>
<text text-anchor="middle" x="338.82" y="-28.95" font-family="Times,serif" font-size="14.00">Groupe La Montagne</text>
</g>
<!-- fondation&#45;varenne&#45;220&#45;&gt;groupe&#45;la&#45;montagne&#45;222 -->
<g id="edge2" class="edge">
<title>fondation&#45;varenne&#45;220&#45;&gt;groupe&#45;la&#45;montagne&#45;222</title>
<path fill="none" stroke="black" d="M118.24,-34C146.38,-34 181.28,-34 214.91,-34"/>
<polygon fill="black" stroke="black" points="214.78,-37.5 224.78,-34 214.78,-30.5 214.78,-37.5"/>
<text text-anchor="middle" x="172" y="-37.2" font-family="Times,serif" font-size="14.00">possède 50%</text>
</g>
<!-- regional&#45;de&#45;cosne&#45;231 -->
<g id="node3" class="node">
<title>regional&#45;de&#45;cosne&#45;231</title>
<ellipse fill="none" stroke="black" cx="647.42" cy="-34" rx="81.04" ry="18"/>
<text text-anchor="middle" x="647.42" y="-28.95" font-family="Times,serif" font-size="14.00">Régional de Cosne</text>
</g>
<!-- groupe&#45;la&#45;montagne&#45;222&#45;&gt;regional&#45;de&#45;cosne&#45;231 -->
<g id="edge1" class="edge">
<title>groupe&#45;la&#45;montagne&#45;222&#45;&gt;regional&#45;de&#45;cosne&#45;231</title>
<path fill="none" stroke="black" d="M451.81,-34C485.78,-34 522.67,-34 555.11,-34"/>
<polygon fill="black" stroke="black" points="554.92,-37.5 564.92,-34 554.92,-30.5 554.92,-37.5"/>
<text text-anchor="middle" x="509.01" y="-37.2" font-family="Times,serif" font-size="14.00">possède 100%</text>
</g>
</g>
</svg>
