<?xml version="1.0" encoding="UTF-8" standalone="no"?>
<!DOCTYPE svg PUBLIC "-//W3C//DTD SVG 1.1//EN"
 "http://www.w3.org/Graphics/SVG/1.1/DTD/svg11.dtd">
<!-- Generated by graphviz version 7.1.0 (20230121.1956)
 -->
<!-- Pages: 1 -->
<svg width="823pt" height="1048pt"
 viewBox="0.00 0.00 822.53 1048.00" xmlns="http://www.w3.org/2000/svg" xmlns:xlink="http://www.w3.org/1999/xlink">
<g id="graph0" class="graph" transform="scale(1 1) rotate(0) translate(4 1044)">
<polygon fill="white" stroke="none" points="-4,4 -4,-1044 818.53,-1044 818.53,4 -4,4"/>
<g id="clust2" class="cluster">
<title>clusterLeaves</title>
<polygon fill="none" stroke="black" points="579.94,-8 579.94,-1032 806.53,-1032 806.53,-8 579.94,-8"/>
</g>
<!-- republique&#45;francaise&#45;128 -->
<g id="node1" class="node">
<title>republique&#45;francaise&#45;128</title>
<polygon fill="none" stroke="black" points="131,-436 0,-436 0,-400 131,-400 131,-436"/>
<text text-anchor="middle" x="65.5" y="-414.3" font-family="Times,serif" font-size="14.00">République française</text>
</g>
<!-- arte&#45;france&#45;136 -->
<g id="node2" class="node">
<title>arte&#45;france&#45;136</title>
<polygon fill="none" stroke="black" points="423.62,-950.56 358.47,-963 293.33,-950.56 293.39,-930.44 423.56,-930.44 423.62,-950.56"/>
<text text-anchor="middle" x="358.47" y="-941.3" font-family="Times,serif" font-size="14.00">Arte France</text>
</g>
<!-- republique&#45;francaise&#45;128&#45;&gt;arte&#45;france&#45;136 -->
<g id="edge1" class="edge">
<title>republique&#45;francaise&#45;128&#45;&gt;arte&#45;france&#45;136</title>
<path fill="none" stroke="black" d="M69.32,-436.18C80.37,-502.03 126.12,-731.42 246,-871 265.25,-893.41 292.88,-911.82 315.82,-924.67"/>
<polygon fill="black" stroke="black" points="313.87,-927.59 324.32,-929.28 317.2,-921.44 313.87,-927.59"/>
<text text-anchor="middle" x="188.5" y="-843.8" font-family="Times,serif" font-size="14.00">possède 100%</text>
</g>
<!-- france&#45;medias&#45;monde&#45;133 -->
<g id="node3" class="node">
<title>france&#45;medias&#45;monde&#45;133</title>
<polygon fill="none" stroke="black" points="470.92,-849.56 358.47,-862 246.03,-849.56 246.13,-829.44 470.81,-829.44 470.92,-849.56"/>
<text text-anchor="middle" x="358.47" y="-840.3" font-family="Times,serif" font-size="14.00">France Médias Monde</text>
</g>
<!-- republique&#45;francaise&#45;128&#45;&gt;france&#45;medias&#45;monde&#45;133 -->
<g id="edge3" class="edge">
<title>republique&#45;francaise&#45;128&#45;&gt;france&#45;medias&#45;monde&#45;133</title>
<path fill="none" stroke="black" d="M79,-436.3C125.43,-504.28 287.98,-742.26 340.78,-819.55"/>
<polygon fill="black" stroke="black" points="337.82,-821.43 346.35,-827.71 343.6,-817.48 337.82,-821.43"/>
<text text-anchor="middle" x="188.5" y="-646.8" font-family="Times,serif" font-size="14.00">possède 100%</text>
</g>
<!-- france&#45;television&#45;134 -->
<g id="node4" class="node">
<title>france&#45;television&#45;134</title>
<polygon fill="none" stroke="black" points="449.04,-608.56 358.47,-621 267.91,-608.56 267.99,-588.44 448.95,-588.44 449.04,-608.56"/>
<text text-anchor="middle" x="358.47" y="-599.3" font-family="Times,serif" font-size="14.00">France Télévision</text>
</g>
<!-- republique&#45;francaise&#45;128&#45;&gt;france&#45;television&#45;134 -->
<g id="edge8" class="edge">
<title>republique&#45;francaise&#45;128&#45;&gt;france&#45;television&#45;134</title>
<path fill="none" stroke="black" d="M95.46,-436.41C149.84,-470.99 266.89,-545.41 324.32,-581.92"/>
<polygon fill="black" stroke="black" points="322.4,-584.85 332.72,-587.26 326.16,-578.94 322.4,-584.85"/>
<text text-anchor="middle" x="188.5" y="-519.8" font-family="Times,serif" font-size="14.00">possède 100%</text>
</g>
<!-- radio&#45;france&#45;135 -->
<g id="node5" class="node">
<title>radio&#45;france&#45;135</title>
<polygon fill="none" stroke="black" points="429.97,-357.56 358.47,-370 286.97,-357.56 287.04,-337.44 429.91,-337.44 429.97,-357.56"/>
<text text-anchor="middle" x="358.47" y="-348.3" font-family="Times,serif" font-size="14.00">Radio France</text>
</g>
<!-- republique&#45;francaise&#45;128&#45;&gt;radio&#45;france&#45;135 -->
<g id="edge18" class="edge">
<title>republique&#45;francaise&#45;128&#45;&gt;radio&#45;france&#45;135</title>
<path fill="none" stroke="black" d="M131.44,-403.27C182.41,-391.71 252.63,-375.78 301.22,-364.76"/>
<polygon fill="black" stroke="black" points="301.71,-368.24 310.69,-362.61 300.16,-361.41 301.71,-368.24"/>
<text text-anchor="middle" x="188.5" y="-401.8" font-family="Times,serif" font-size="14.00">possède 100%</text>
</g>
<!-- la&#45;chaine&#45;parlementaire&#45;131 -->
<g id="node17" class="node">
<title>la&#45;chaine&#45;parlementaire&#45;131</title>
<ellipse fill="none" stroke="black" cx="693.24" cy="-88" rx="98.58" ry="18"/>
<text text-anchor="middle" x="693.24" y="-84.3" font-family="Times,serif" font-size="14.00">La Chaîne parlementaire</text>
</g>
<!-- republique&#45;francaise&#45;128&#45;&gt;la&#45;chaine&#45;parlementaire&#45;131 -->
<g id="edge16" class="edge">
<title>republique&#45;francaise&#45;128&#45;&gt;la&#45;chaine&#45;parlementaire&#45;131</title>
<path fill="none" stroke="black" d="M90.61,-399.68C161.47,-346.77 376.9,-192.58 579.94,-115 590.66,-110.91 602.2,-107.29 613.65,-104.15"/>
<polygon fill="black" stroke="black" points="614.33,-107.59 623.11,-101.67 612.55,-100.82 614.33,-107.59"/>
<text text-anchor="middle" x="358.47" y="-292.8" font-family="Times,serif" font-size="14.00">possède 100%</text>
</g>
<!-- public&#45;senat&#45;132 -->
<g id="node18" class="node">
<title>public&#45;senat&#45;132</title>
<ellipse fill="none" stroke="black" cx="693.24" cy="-34" rx="55.49" ry="18"/>
<text text-anchor="middle" x="693.24" y="-30.3" font-family="Times,serif" font-size="14.00">Public Sénat</text>
</g>
<!-- republique&#45;francaise&#45;128&#45;&gt;public&#45;senat&#45;132 -->
<g id="edge17" class="edge">
<title>republique&#45;francaise&#45;128&#45;&gt;public&#45;senat&#45;132</title>
<path fill="none" stroke="black" d="M73.12,-399.82C91.93,-350.78 150.62,-214.94 246,-147 362.22,-64.22 533.4,-41.94 626.34,-36.04"/>
<polygon fill="black" stroke="black" points="626.26,-39.55 636.03,-35.47 625.85,-32.56 626.26,-39.55"/>
<text text-anchor="middle" x="358.47" y="-150.8" font-family="Times,serif" font-size="14.00">possède 100%</text>
</g>
<!-- arte&#45;154 -->
<g id="node6" class="node">
<title>arte&#45;154</title>
<ellipse fill="none" stroke="black" cx="693.24" cy="-1006" rx="27" ry="18"/>
<text text-anchor="middle" x="693.24" y="-1002.3" font-family="Times,serif" font-size="14.00">Arte</text>
</g>
<!-- arte&#45;france&#45;136&#45;&gt;arte&#45;154 -->
<g id="edge2" class="edge">
<title>arte&#45;france&#45;136&#45;&gt;arte&#45;154</title>
<path fill="none" stroke="black" d="M408.22,-953.94C475.57,-966.28 595.6,-988.28 655.75,-999.31"/>
<polygon fill="black" stroke="black" points="654.99,-1002.73 665.46,-1001.09 656.26,-995.85 654.99,-1002.73"/>
<text text-anchor="middle" x="529.44" y="-985.8" font-family="Times,serif" font-size="14.00">possède 50%</text>
</g>
<!-- france&#45;24&#45;139 -->
<g id="node7" class="node">
<title>france&#45;24&#45;139</title>
<ellipse fill="none" stroke="black" cx="693.24" cy="-952" rx="46.29" ry="18"/>
<text text-anchor="middle" x="693.24" y="-948.3" font-family="Times,serif" font-size="14.00">France 24</text>
</g>
<!-- france&#45;medias&#45;monde&#45;133&#45;&gt;france&#45;24&#45;139 -->
<g id="edge4" class="edge">
<title>france&#45;medias&#45;monde&#45;133&#45;&gt;france&#45;24&#45;139</title>
<path fill="none" stroke="black" d="M393.56,-858.49C419.51,-869.32 456.24,-884.24 488.94,-896 528.89,-910.36 539.06,-913.59 579.94,-925 599.88,-930.57 622,-936.03 641.3,-940.58"/>
<polygon fill="black" stroke="black" points="640.29,-943.94 650.82,-942.8 641.88,-937.12 640.29,-943.94"/>
<text text-anchor="middle" x="529.44" y="-924.8" font-family="Times,serif" font-size="14.00">possède 100%</text>
</g>
<!-- monte&#45;carlo&#45;doualiya&#45;137 -->
<g id="node8" class="node">
<title>monte&#45;carlo&#45;doualiya&#45;137</title>
<ellipse fill="none" stroke="black" cx="693.24" cy="-898" rx="90.98" ry="18"/>
<text text-anchor="middle" x="693.24" y="-894.3" font-family="Times,serif" font-size="14.00">Monte Carlo Doualiya</text>
</g>
<!-- france&#45;medias&#45;monde&#45;133&#45;&gt;monte&#45;carlo&#45;doualiya&#45;137 -->
<g id="edge5" class="edge">
<title>france&#45;medias&#45;monde&#45;133&#45;&gt;monte&#45;carlo&#45;doualiya&#45;137</title>
<path fill="none" stroke="black" d="M426.81,-854.93C479.87,-863.54 554.05,-875.58 610.51,-884.74"/>
<polygon fill="black" stroke="black" points="609.62,-888.14 620.06,-886.29 610.75,-881.23 609.62,-888.14"/>
<text text-anchor="middle" x="529.44" y="-880.8" font-family="Times,serif" font-size="14.00">possède 100%</text>
</g>
<!-- radio&#45;france&#45;international&#45;138 -->
<g id="node9" class="node">
<title>radio&#45;france&#45;international&#45;138</title>
<ellipse fill="none" stroke="black" cx="693.24" cy="-844" rx="105.08" ry="18"/>
<text text-anchor="middle" x="693.24" y="-840.3" font-family="Times,serif" font-size="14.00">Radio France International</text>
</g>
<!-- france&#45;medias&#45;monde&#45;133&#45;&gt;radio&#45;france&#45;international&#45;138 -->
<g id="edge6" class="edge">
<title>france&#45;medias&#45;monde&#45;133&#45;&gt;radio&#45;france&#45;international&#45;138</title>
<path fill="none" stroke="black" d="M471.2,-844C505.05,-844 542.28,-844 576.39,-844"/>
<polygon fill="black" stroke="black" points="576.31,-847.5 586.31,-844 576.31,-840.5 576.31,-847.5"/>
<text text-anchor="middle" x="529.44" y="-847.8" font-family="Times,serif" font-size="14.00">possède 100%</text>
</g>
<!-- tv5&#45;monde&#45;140 -->
<g id="node10" class="node">
<title>tv5&#45;monde&#45;140</title>
<ellipse fill="none" stroke="black" cx="693.24" cy="-790" rx="54.69" ry="18"/>
<text text-anchor="middle" x="693.24" y="-786.3" font-family="Times,serif" font-size="14.00">TV5 Monde</text>
</g>
<!-- france&#45;medias&#45;monde&#45;133&#45;&gt;tv5&#45;monde&#45;140 -->
<g id="edge7" class="edge">
<title>france&#45;medias&#45;monde&#45;133&#45;&gt;tv5&#45;monde&#45;140</title>
<path fill="none" stroke="black" d="M452.17,-828.96C509.79,-819.61 582.2,-807.86 632.34,-799.72"/>
<polygon fill="black" stroke="black" points="632.84,-803.19 642.15,-798.13 631.71,-796.28 632.84,-803.19"/>
<text text-anchor="middle" x="529.44" y="-824.8" font-family="Times,serif" font-size="14.00">possède 13%</text>
</g>
<!-- france&#45;television&#45;134&#45;&gt;tv5&#45;monde&#45;140 -->
<g id="edge15" class="edge">
<title>france&#45;television&#45;134&#45;&gt;tv5&#45;monde&#45;140</title>
<path fill="none" stroke="black" d="M373.55,-619.4C395.89,-644.62 441.8,-693.23 488.94,-724 525.79,-748.05 538.18,-749.14 579.94,-763 597.51,-768.83 617.01,-773.97 634.76,-778.15"/>
<polygon fill="black" stroke="black" points="633.84,-781.53 644.37,-780.36 635.41,-774.71 633.84,-781.53"/>
<text text-anchor="middle" x="529.44" y="-762.8" font-family="Times,serif" font-size="14.00">possède 49%</text>
</g>
<!-- france&#45;2&#45;141 -->
<g id="node11" class="node">
<title>france&#45;2&#45;141</title>
<ellipse fill="none" stroke="black" cx="693.24" cy="-736" rx="41.69" ry="18"/>
<text text-anchor="middle" x="693.24" y="-732.3" font-family="Times,serif" font-size="14.00">France 2</text>
</g>
<!-- france&#45;television&#45;134&#45;&gt;france&#45;2&#45;141 -->
<g id="edge9" class="edge">
<title>france&#45;television&#45;134&#45;&gt;france&#45;2&#45;141</title>
<path fill="none" stroke="black" d="M384.26,-617.9C409.95,-633.03 451.5,-656.63 488.94,-674 528.25,-692.24 538.57,-696.13 579.94,-709 600.69,-715.45 623.98,-721.28 643.96,-725.85"/>
<polygon fill="black" stroke="black" points="642.98,-729.22 653.51,-728 644.52,-722.39 642.98,-729.22"/>
<text text-anchor="middle" x="529.44" y="-708.8" font-family="Times,serif" font-size="14.00">possède 100%</text>
</g>
<!-- la&#45;premiere&#45;344 -->
<g id="node12" class="node">
<title>la&#45;premiere&#45;344</title>
<ellipse fill="none" stroke="black" cx="693.24" cy="-682" rx="54.69" ry="18"/>
<text text-anchor="middle" x="693.24" y="-678.3" font-family="Times,serif" font-size="14.00">La Première</text>
</g>
<!-- france&#45;television&#45;134&#45;&gt;la&#45;premiere&#45;344 -->
<g id="edge10" class="edge">
<title>france&#45;television&#45;134&#45;&gt;la&#45;premiere&#45;344</title>
<path fill="none" stroke="black" d="M404,-615.15C428.93,-621.84 460.6,-630.14 488.94,-637 538.24,-648.92 594.57,-661.3 635.41,-670.04"/>
<polygon fill="black" stroke="black" points="634.51,-673.43 645.02,-672.09 635.97,-666.58 634.51,-673.43"/>
<text text-anchor="middle" x="529.44" y="-658.8" font-family="Times,serif" font-size="14.00">possède 100%</text>
</g>
<!-- france&#45;3&#45;142 -->
<g id="node13" class="node">
<title>france&#45;3&#45;142</title>
<ellipse fill="none" stroke="black" cx="693.24" cy="-628" rx="41.69" ry="18"/>
<text text-anchor="middle" x="693.24" y="-624.3" font-family="Times,serif" font-size="14.00">France 3</text>
</g>
<!-- france&#45;television&#45;134&#45;&gt;france&#45;3&#45;142 -->
<g id="edge11" class="edge">
<title>france&#45;television&#45;134&#45;&gt;france&#45;3&#45;142</title>
<path fill="none" stroke="black" d="M445.6,-609.47C507.37,-614.11 588.53,-620.21 640.56,-624.12"/>
<polygon fill="black" stroke="black" points="640.1,-627.59 650.33,-624.85 640.62,-620.61 640.1,-627.59"/>
<text text-anchor="middle" x="529.44" y="-621.8" font-family="Times,serif" font-size="14.00">possède 100%</text>
</g>
<!-- france&#45;4&#45;144 -->
<g id="node14" class="node">
<title>france&#45;4&#45;144</title>
<ellipse fill="none" stroke="black" cx="693.24" cy="-574" rx="41.69" ry="18"/>
<text text-anchor="middle" x="693.24" y="-570.3" font-family="Times,serif" font-size="14.00">France 4</text>
</g>
<!-- france&#45;television&#45;134&#45;&gt;france&#45;4&#45;144 -->
<g id="edge12" class="edge">
<title>france&#45;television&#45;134&#45;&gt;france&#45;4&#45;144</title>
<path fill="none" stroke="black" d="M449.08,-595.19C510.34,-589.85 589.38,-582.96 640.43,-578.51"/>
<polygon fill="black" stroke="black" points="640.66,-582.01 650.32,-577.65 640.06,-575.03 640.66,-582.01"/>
<text text-anchor="middle" x="529.44" y="-594.8" font-family="Times,serif" font-size="14.00">possède 100%</text>
</g>
<!-- france&#45;5&#45;143 -->
<g id="node15" class="node">
<title>france&#45;5&#45;143</title>
<ellipse fill="none" stroke="black" cx="693.24" cy="-520" rx="41.69" ry="18"/>
<text text-anchor="middle" x="693.24" y="-516.3" font-family="Times,serif" font-size="14.00">France 5</text>
</g>
<!-- france&#45;television&#45;134&#45;&gt;france&#45;5&#45;143 -->
<g id="edge13" class="edge">
<title>france&#45;television&#45;134&#45;&gt;france&#45;5&#45;143</title>
<path fill="none" stroke="black" d="M409.4,-588.03C433.38,-581.02 462.56,-572.75 488.94,-566 541.66,-552.52 602.58,-539 643.88,-530.15"/>
<polygon fill="black" stroke="black" points="644.46,-533.6 653.51,-528.09 643,-526.76 644.46,-533.6"/>
<text text-anchor="middle" x="529.44" y="-569.8" font-family="Times,serif" font-size="14.00">possède 100%</text>
</g>
<!-- france&#45;info&#45;152 -->
<g id="node16" class="node">
<title>france&#45;info&#45;152</title>
<ellipse fill="none" stroke="black" cx="693.24" cy="-466" rx="51.99" ry="18"/>
<text text-anchor="middle" x="693.24" y="-462.3" font-family="Times,serif" font-size="14.00">France Info</text>
</g>
<!-- france&#45;television&#45;134&#45;&gt;france&#45;info&#45;152 -->
<g id="edge14" class="edge">
<title>france&#45;television&#45;134&#45;&gt;france&#45;info&#45;152</title>
<path fill="none" stroke="black" d="M382.73,-588.02C408.19,-571.99 450.51,-546.38 488.94,-528 528.04,-509.3 538.57,-505.87 579.94,-493 598.26,-487.3 618.56,-482.09 636.81,-477.8"/>
<polygon fill="black" stroke="black" points="637.44,-481.25 646.4,-475.6 635.87,-474.43 637.44,-481.25"/>
<text text-anchor="middle" x="529.44" y="-531.8" font-family="Times,serif" font-size="14.00">contrôle 100%</text>
</g>
<!-- radio&#45;france&#45;135&#45;&gt;france&#45;info&#45;152 -->
<g id="edge22" class="edge">
<title>radio&#45;france&#45;135&#45;&gt;france&#45;info&#45;152</title>
<path fill="none" stroke="black" d="M375.04,-367.21C397.88,-388.48 442.8,-426.48 488.94,-444 534.15,-461.16 588.79,-466.29 630.04,-467.33"/>
<polygon fill="black" stroke="black" points="629.73,-470.82 639.78,-467.49 629.84,-463.82 629.73,-470.82"/>
<text text-anchor="middle" x="529.44" y="-465.8" font-family="Times,serif" font-size="14.00">contrôle 100%</text>
</g>
<!-- radio&#45;france&#45;135&#45;&gt;france&#45;info&#45;152 -->
<g id="edge23" class="edge">
<title>radio&#45;france&#45;135&#45;&gt;france&#45;info&#45;152</title>
<path fill="none" stroke="black" d="M387.76,-365.39C413.65,-377.26 453.26,-394.46 488.94,-406 524.13,-417.38 539.23,-404.41 569.94,-425 576.3,-429.26 573.6,-434.73 579.94,-439 595.09,-449.21 613.67,-455.57 631.32,-459.53"/>
<polygon fill="black" stroke="black" points="630.47,-462.93 640.97,-461.46 631.84,-456.07 630.47,-462.93"/>
<text text-anchor="middle" x="529.44" y="-428.8" font-family="Times,serif" font-size="14.00">possède 100%</text>
</g>
<!-- fip&#45;150 -->
<g id="node19" class="node">
<title>fip&#45;150</title>
<ellipse fill="none" stroke="black" cx="693.24" cy="-412" rx="27" ry="18"/>
<text text-anchor="middle" x="693.24" y="-408.3" font-family="Times,serif" font-size="14.00">FIP</text>
</g>
<!-- radio&#45;france&#45;135&#45;&gt;fip&#45;150 -->
<g id="edge19" class="edge">
<title>radio&#45;france&#45;135&#45;&gt;fip&#45;150</title>
<path fill="none" stroke="black" d="M411.1,-361.31C478.87,-373.53 596.17,-394.68 655.54,-405.38"/>
<polygon fill="black" stroke="black" points="654.66,-408.78 665.12,-407.11 655.9,-401.89 654.66,-408.78"/>
<text text-anchor="middle" x="529.44" y="-392.8" font-family="Times,serif" font-size="14.00">possède 100%</text>
</g>
<!-- france&#45;bleu&#45;151 -->
<g id="node20" class="node">
<title>france&#45;bleu&#45;151</title>
<ellipse fill="none" stroke="black" cx="693.24" cy="-358" rx="53.89" ry="18"/>
<text text-anchor="middle" x="693.24" y="-354.3" font-family="Times,serif" font-size="14.00">France Bleu</text>
</g>
<!-- radio&#45;france&#45;135&#45;&gt;france&#45;bleu&#45;151 -->
<g id="edge20" class="edge">
<title>radio&#45;france&#45;135&#45;&gt;france&#45;bleu&#45;151</title>
<path fill="none" stroke="black" d="M430.12,-351.7C470.98,-351.69 523.37,-351.94 569.94,-353 588.86,-353.43 609.4,-354.17 628.16,-354.94"/>
<polygon fill="black" stroke="black" points="627.93,-358.44 638.07,-355.37 628.22,-351.44 627.93,-358.44"/>
<text text-anchor="middle" x="529.44" y="-356.8" font-family="Times,serif" font-size="14.00">possède 100%</text>
</g>
<!-- france&#45;culture&#45;149 -->
<g id="node21" class="node">
<title>france&#45;culture&#45;149</title>
<ellipse fill="none" stroke="black" cx="693.24" cy="-304" rx="63.89" ry="18"/>
<text text-anchor="middle" x="693.24" y="-300.3" font-family="Times,serif" font-size="14.00">France Culture</text>
</g>
<!-- radio&#45;france&#45;135&#45;&gt;france&#45;culture&#45;149 -->
<g id="edge21" class="edge">
<title>radio&#45;france&#45;135&#45;&gt;france&#45;culture&#45;149</title>
<path fill="none" stroke="black" d="M430.33,-340.84C449.36,-337.9 469.93,-334.78 488.94,-332 533.7,-325.46 584.07,-318.52 623.47,-313.19"/>
<polygon fill="black" stroke="black" points="623.86,-316.66 633.3,-311.86 622.93,-309.73 623.86,-316.66"/>
<text text-anchor="middle" x="529.44" y="-335.8" font-family="Times,serif" font-size="14.00">possède 100%</text>
</g>
<!-- france&#45;inter&#45;147 -->
<g id="node22" class="node">
<title>france&#45;inter&#45;147</title>
<ellipse fill="none" stroke="black" cx="693.24" cy="-250" rx="53.89" ry="18"/>
<text text-anchor="middle" x="693.24" y="-246.3" font-family="Times,serif" font-size="14.00">France Inter</text>
</g>
<!-- radio&#45;france&#45;135&#45;&gt;france&#45;inter&#45;147 -->
<g id="edge24" class="edge">
<title>radio&#45;france&#45;135&#45;&gt;france&#45;inter&#45;147</title>
<path fill="none" stroke="black" d="M394.24,-337.02C420.07,-326.2 456.34,-311.68 488.94,-301 528.69,-287.98 539.39,-287.22 579.94,-277 598.54,-272.31 618.92,-267.36 637.15,-262.99"/>
<polygon fill="black" stroke="black" points="637.8,-266.43 646.71,-260.71 636.17,-259.63 637.8,-266.43"/>
<text text-anchor="middle" x="529.44" y="-304.8" font-family="Times,serif" font-size="14.00">possède 100%</text>
</g>
<!-- france&#45;musique&#45;148 -->
<g id="node23" class="node">
<title>france&#45;musique&#45;148</title>
<ellipse fill="none" stroke="black" cx="693.24" cy="-196" rx="68.49" ry="18"/>
<text text-anchor="middle" x="693.24" y="-192.3" font-family="Times,serif" font-size="14.00">France Musique</text>
</g>
<!-- radio&#45;france&#45;135&#45;&gt;france&#45;musique&#45;148 -->
<g id="edge25" class="edge">
<title>radio&#45;france&#45;135&#45;&gt;france&#45;musique&#45;148</title>
<path fill="none" stroke="black" d="M377.45,-337.17C401.67,-317.68 446.64,-283.22 488.94,-260 527.22,-238.99 538.38,-236.36 579.94,-223 595.3,-218.06 612.09,-213.56 627.9,-209.71"/>
<polygon fill="black" stroke="black" points="628.27,-213.22 637.19,-207.5 626.65,-206.41 628.27,-213.22"/>
<text text-anchor="middle" x="529.44" y="-263.8" font-family="Times,serif" font-size="14.00">possède 100%</text>
</g>
<!-- mouv&#45;153 -->
<g id="node24" class="node">
<title>mouv&#45;153</title>
<ellipse fill="none" stroke="black" cx="693.24" cy="-142" rx="35.19" ry="18"/>
<text text-anchor="middle" x="693.24" y="-138.3" font-family="Times,serif" font-size="14.00">Mouv’</text>
</g>
<!-- radio&#45;france&#45;135&#45;&gt;mouv&#45;153 -->
<g id="edge26" class="edge">
<title>radio&#45;france&#45;135&#45;&gt;mouv&#45;153</title>
<path fill="none" stroke="black" d="M369.19,-337.29C388.76,-308.66 435.61,-244.97 488.94,-207 537.02,-172.77 603.96,-155.97 647.69,-148.17"/>
<polygon fill="black" stroke="black" points="648.05,-151.65 657.33,-146.54 646.89,-144.75 648.05,-151.65"/>
<text text-anchor="middle" x="529.44" y="-210.8" font-family="Times,serif" font-size="14.00">possède 100%</text>
</g>
</g>
</svg>
