<?xml version="1.0" encoding="UTF-8" standalone="no"?>
<!DOCTYPE svg PUBLIC "-//W3C//DTD SVG 1.1//EN"
 "http://www.w3.org/Graphics/SVG/1.1/DTD/svg11.dtd">
<!-- Generated by graphviz version 7.1.0 (20230121.1956)
 -->
<!-- Pages: 1 -->
<svg width="1030pt" height="76pt"
 viewBox="0.00 0.00 1029.72 76.00" xmlns="http://www.w3.org/2000/svg" xmlns:xlink="http://www.w3.org/1999/xlink">
<g id="graph0" class="graph" transform="scale(1 1) rotate(0) translate(4 72)">
<polygon fill="white" stroke="none" points="-4,4 -4,-72 1025.72,-72 1025.72,4 -4,4"/>
<g id="clust2" class="cluster">
<title>clusterLeaves</title>
<polygon fill="none" stroke="black" points="943.72,-8 943.72,-60 1013.72,-60 1013.72,-8 943.72,-8"/>
</g>
<!-- republique&#45;federale&#45;d&#45;allemagne&#45;129 -->
<g id="node1" class="node">
<title>republique&#45;federale&#45;d&#45;allemagne&#45;129</title>
<polygon fill="none" stroke="black" points="201,-52 0,-52 0,-16 201,-16 201,-52"/>
<text text-anchor="middle" x="100.5" y="-30.3" font-family="Times,serif" font-size="14.00">République fédérale d’Allemagne</text>
</g>
<!-- ard&#45;zdf&#45;155 -->
<g id="node2" class="node">
<title>ard&#45;zdf&#45;155</title>
<polygon fill="none" stroke="black" points="449.63,-39.56 383.88,-52 318.12,-39.56 318.18,-19.44 449.57,-19.44 449.63,-39.56"/>
<text text-anchor="middle" x="383.88" y="-30.3" font-family="Times,serif" font-size="14.00">ARD / ZDF</text>
</g>
<!-- republique&#45;federale&#45;d&#45;allemagne&#45;129&#45;&gt;ard&#45;zdf&#45;155 -->
<g id="edge1" class="edge">
<title>republique&#45;federale&#45;d&#45;allemagne&#45;129&#45;&gt;ard&#45;zdf&#45;155</title>
<path fill="none" stroke="black" d="M201.5,-34C236.11,-34 274.33,-34 306.72,-34"/>
<polygon fill="black" stroke="black" points="306.4,-37.5 316.4,-34 306.4,-30.5 306.4,-37.5"/>
<text text-anchor="middle" x="259.5" y="-37.8" font-family="Times,serif" font-size="14.00">contrôle 100%</text>
</g>
<!-- arte&#45;deutschland&#45;tv&#45;gmbh&#45;156 -->
<g id="node3" class="node">
<title>arte&#45;deutschland&#45;tv&#45;gmbh&#45;156</title>
<polygon fill="none" stroke="black" points="842.7,-39.56 703.74,-52 564.77,-39.56 564.9,-19.44 842.57,-19.44 842.7,-39.56"/>
<text text-anchor="middle" x="703.74" y="-30.3" font-family="Times,serif" font-size="14.00">Arte Deutschland TV GmbH</text>
</g>
<!-- ard&#45;zdf&#45;155&#45;&gt;arte&#45;deutschland&#45;tv&#45;gmbh&#45;156 -->
<g id="edge2" class="edge">
<title>ard&#45;zdf&#45;155&#45;&gt;arte&#45;deutschland&#45;tv&#45;gmbh&#45;156</title>
<path fill="none" stroke="black" d="M449.97,-34C480.01,-34 517.02,-34 553.36,-34"/>
<polygon fill="black" stroke="black" points="553.09,-37.5 563.09,-34 553.09,-30.5 553.09,-37.5"/>
<text text-anchor="middle" x="507.25" y="-37.8" font-family="Times,serif" font-size="14.00">possède 100%</text>
</g>
<!-- arte&#45;154 -->
<g id="node4" class="node">
<title>arte&#45;154</title>
<ellipse fill="none" stroke="black" cx="978.72" cy="-34" rx="27" ry="18"/>
<text text-anchor="middle" x="978.72" y="-30.3" font-family="Times,serif" font-size="14.00">Arte</text>
</g>
<!-- arte&#45;deutschland&#45;tv&#45;gmbh&#45;156&#45;&gt;arte&#45;154 -->
<g id="edge3" class="edge">
<title>arte&#45;deutschland&#45;tv&#45;gmbh&#45;156&#45;&gt;arte&#45;154</title>
<path fill="none" stroke="black" d="M842.83,-34C878.68,-34 914.38,-34 940.04,-34"/>
<polygon fill="black" stroke="black" points="939.92,-37.5 949.92,-34 939.92,-30.5 939.92,-37.5"/>
<text text-anchor="middle" x="897.22" y="-37.8" font-family="Times,serif" font-size="14.00">possède 50%</text>
</g>
</g>
</svg>
