<?xml version="1.0" encoding="UTF-8" standalone="no"?>
<!DOCTYPE svg PUBLIC "-//W3C//DTD SVG 1.1//EN"
 "http://www.w3.org/Graphics/SVG/1.1/DTD/svg11.dtd">
<!-- Generated by graphviz version 8.1.0 (20230707.0739)
 -->
<!-- Pages: 1 -->
<svg width="1018pt" height="76pt"
 viewBox="0.00 0.00 1018.41 76.00" xmlns="http://www.w3.org/2000/svg" xmlns:xlink="http://www.w3.org/1999/xlink">
<g id="graph0" class="graph" transform="scale(1 1) rotate(0) translate(4 72)">
<polygon fill="white" stroke="none" points="-4,4 -4,-72 1014.41,-72 1014.41,4 -4,4"/>
<g id="clust2" class="cluster">
<title>clusterLeaves</title>
<polygon fill="none" stroke="black" points="922.61,-8 922.61,-60 1002.41,-60 1002.41,-8 922.61,-8"/>
</g>
<!-- patrick&#45;drahi&#45;56 -->
<g id="node1" class="node">
<title>patrick&#45;drahi&#45;56</title>
<polygon fill="none" stroke="black" points="103,-52 0,-52 0,-16 103,-16 103,-52"/>
<text text-anchor="middle" x="51.5" y="-30.07" font-family="Times,serif" font-size="14.00">🧑‍💼Patrick Drahi</text>
</g>
<!-- altice&#45;57 -->
<g id="node4" class="node">
<title>altice&#45;57</title>
<polygon fill="none" stroke="black" points="293.66,-39.56 252.33,-52 211,-39.56 211.04,-19.44 293.63,-19.44 293.66,-39.56"/>
<text text-anchor="middle" x="252.33" y="-28.95" font-family="Times,serif" font-size="14.00">Altice</text>
</g>
<!-- patrick&#45;drahi&#45;56&#45;&gt;altice&#45;57 -->
<g id="edge4" class="edge">
<title>patrick&#45;drahi&#45;56&#45;&gt;altice&#45;57</title>
<path fill="none" stroke="black" d="M103.45,-34C132.93,-34 169.95,-34 199.57,-34"/>
<polygon fill="black" stroke="black" points="199.53,-37.5 209.53,-34 199.53,-30.5 199.53,-37.5"/>
<text text-anchor="middle" x="157" y="-37.2" font-family="Times,serif" font-size="14.00">possède 61%</text>
</g>
<!-- altice&#45;media&#45;61 -->
<g id="node2" class="node">
<title>altice&#45;media&#45;61</title>
<polygon fill="none" stroke="black" points="815.86,-39.56 741.63,-52 667.4,-39.56 667.47,-19.44 815.79,-19.44 815.86,-39.56"/>
<text text-anchor="middle" x="741.63" y="-28.95" font-family="Times,serif" font-size="14.00">Altice Média</text>
</g>
<!-- rmc&#45;64 -->
<g id="node5" class="node">
<title>rmc&#45;64</title>
<ellipse fill="none" stroke="black" cx="962.51" cy="-34" rx="31.9" ry="18"/>
<text text-anchor="middle" x="962.51" y="-28.95" font-family="Times,serif" font-size="14.00">RMC</text>
</g>
<!-- altice&#45;media&#45;61&#45;&gt;rmc&#45;64 -->
<g id="edge1" class="edge">
<title>altice&#45;media&#45;61&#45;&gt;rmc&#45;64</title>
<path fill="none" stroke="black" d="M816.12,-34C850.59,-34 890.41,-34 919.66,-34"/>
<polygon fill="black" stroke="black" points="919.31,-37.5 929.31,-34 919.31,-30.5 919.31,-37.5"/>
<text text-anchor="middle" x="873.23" y="-37.2" font-family="Times,serif" font-size="14.00">possède 100%</text>
</g>
<!-- altice&#45;france&#45;58 -->
<g id="node3" class="node">
<title>altice&#45;france&#45;58</title>
<polygon fill="none" stroke="black" points="552.65,-39.56 477.16,-52 401.66,-39.56 401.73,-19.44 552.58,-19.44 552.65,-39.56"/>
<text text-anchor="middle" x="477.16" y="-28.95" font-family="Times,serif" font-size="14.00">Altice France</text>
</g>
<!-- altice&#45;france&#45;58&#45;&gt;altice&#45;media&#45;61 -->
<g id="edge2" class="edge">
<title>altice&#45;france&#45;58&#45;&gt;altice&#45;media&#45;61</title>
<path fill="none" stroke="black" d="M553.02,-34C585.29,-34 623.17,-34 656.41,-34"/>
<polygon fill="black" stroke="black" points="656.03,-37.5 666.03,-34 656.03,-30.5 656.03,-37.5"/>
<text text-anchor="middle" x="610.03" y="-37.2" font-family="Times,serif" font-size="14.00">possède 100%</text>
</g>
<!-- altice&#45;57&#45;&gt;altice&#45;france&#45;58 -->
<g id="edge3" class="edge">
<title>altice&#45;57&#45;&gt;altice&#45;france&#45;58</title>
<path fill="none" stroke="black" d="M293.94,-34C321.01,-34 357.61,-34 390.9,-34"/>
<polygon fill="black" stroke="black" points="390.58,-37.5 400.58,-34 390.58,-30.5 390.58,-37.5"/>
<text text-anchor="middle" x="347.66" y="-37.2" font-family="Times,serif" font-size="14.00">possède 78%</text>
</g>
</g>
</svg>
