<?xml version="1.0" encoding="UTF-8" standalone="no"?>
<!DOCTYPE svg PUBLIC "-//W3C//DTD SVG 1.1//EN"
 "http://www.w3.org/Graphics/SVG/1.1/DTD/svg11.dtd">
<!-- Generated by graphviz version 7.1.0 (20230121.1956)
 -->
<!-- Pages: 1 -->
<svg width="1291pt" height="130pt"
 viewBox="0.00 0.00 1291.48 130.00" xmlns="http://www.w3.org/2000/svg" xmlns:xlink="http://www.w3.org/1999/xlink">
<g id="graph0" class="graph" transform="scale(1 1) rotate(0) translate(4 126)">
<polygon fill="white" stroke="none" points="-4,4 -4,-126 1287.48,-126 1287.48,4 -4,4"/>
<g id="clust2" class="cluster">
<title>clusterLeaves</title>
<polygon fill="none" stroke="black" points="1155.48,-8 1155.48,-114 1275.48,-114 1275.48,-8 1155.48,-8"/>
</g>
<!-- patrick&#45;drahi&#45;56 -->
<g id="node1" class="node">
<title>patrick&#45;drahi&#45;56</title>
<polygon fill="none" stroke="black" points="104,-79 0,-79 0,-43 104,-43 104,-79"/>
<text text-anchor="middle" x="52" y="-57.3" font-family="Times,serif" font-size="14.00">🧑‍💼Patrick Drahi</text>
</g>
<!-- altice&#45;57 -->
<g id="node5" class="node">
<title>altice&#45;57</title>
<polygon fill="none" stroke="black" points="293.51,-66.56 253.17,-79 212.83,-66.56 212.87,-46.44 293.47,-46.44 293.51,-66.56"/>
<text text-anchor="middle" x="253.17" y="-57.3" font-family="Times,serif" font-size="14.00">Altice</text>
</g>
<!-- patrick&#45;drahi&#45;56&#45;&gt;altice&#45;57 -->
<g id="edge4" class="edge">
<title>patrick&#45;drahi&#45;56&#45;&gt;altice&#45;57</title>
<path fill="none" stroke="black" d="M104.29,-61C134,-61 171.28,-61 200.98,-61"/>
<polygon fill="black" stroke="black" points="200.85,-64.5 210.85,-61 200.85,-57.5 200.85,-64.5"/>
<text text-anchor="middle" x="158.5" y="-64.8" font-family="Times,serif" font-size="14.00">possède 61%</text>
</g>
<!-- altice&#45;media&#45;61 -->
<g id="node2" class="node">
<title>altice&#45;media&#45;61</title>
<polygon fill="none" stroke="black" points="804.94,-66.56 733.44,-79 661.94,-66.56 662.01,-46.44 804.88,-46.44 804.94,-66.56"/>
<text text-anchor="middle" x="733.44" y="-57.3" font-family="Times,serif" font-size="14.00">Altice Média</text>
</g>
<!-- rmc&#45;story&#45;327 -->
<g id="node3" class="node">
<title>rmc&#45;story&#45;327</title>
<polygon fill="none" stroke="black" points="1048.26,-66.56 984.21,-79 920.17,-66.56 920.23,-46.44 1048.2,-46.44 1048.26,-66.56"/>
<text text-anchor="middle" x="984.21" y="-57.3" font-family="Times,serif" font-size="14.00">RMC Story</text>
</g>
<!-- altice&#45;media&#45;61&#45;&gt;rmc&#45;story&#45;327 -->
<g id="edge1" class="edge">
<title>altice&#45;media&#45;61&#45;&gt;rmc&#45;story&#45;327</title>
<path fill="none" stroke="black" d="M805.4,-61C837.64,-61 875.8,-61 908.49,-61"/>
<polygon fill="black" stroke="black" points="908.29,-64.5 918.29,-61 908.29,-57.5 908.29,-64.5"/>
<text text-anchor="middle" x="862.44" y="-64.8" font-family="Times,serif" font-size="14.00">possède 100%</text>
</g>
<!-- nice&#45;matin&#45;281 -->
<g id="node6" class="node">
<title>nice&#45;matin&#45;281</title>
<ellipse fill="none" stroke="black" cx="1215.48" cy="-88" rx="51.99" ry="18"/>
<text text-anchor="middle" x="1215.48" y="-84.3" font-family="Times,serif" font-size="14.00">Nice&#45;Matin</text>
</g>
<!-- rmc&#45;story&#45;327&#45;&gt;nice&#45;matin&#45;281 -->
<g id="edge5" class="edge">
<title>rmc&#45;story&#45;327&#45;&gt;nice&#45;matin&#45;281</title>
<path fill="none" stroke="black" d="M1043.66,-67.88C1077.63,-71.88 1120.35,-76.91 1154.56,-80.94"/>
<polygon fill="black" stroke="black" points="1153.97,-84.4 1164.31,-82.09 1154.79,-77.45 1153.97,-84.4"/>
<text text-anchor="middle" x="1105.98" y="-82.8" font-family="Times,serif" font-size="14.00">possède 100%</text>
</g>
<!-- paris&#45;turf&#45;341 -->
<g id="node7" class="node">
<title>paris&#45;turf&#45;341</title>
<ellipse fill="none" stroke="black" cx="1215.48" cy="-34" rx="46.59" ry="18"/>
<text text-anchor="middle" x="1215.48" y="-30.3" font-family="Times,serif" font-size="14.00">Paris&#45;Turf</text>
</g>
<!-- rmc&#45;story&#45;327&#45;&gt;paris&#45;turf&#45;341 -->
<g id="edge6" class="edge">
<title>rmc&#45;story&#45;327&#45;&gt;paris&#45;turf&#45;341</title>
<path fill="none" stroke="black" d="M1048.47,-53.55C1083.09,-49.47 1125.59,-44.47 1158.93,-40.54"/>
<polygon fill="black" stroke="black" points="1159.28,-44.03 1168.8,-39.38 1158.46,-37.07 1159.28,-44.03"/>
<text text-anchor="middle" x="1105.98" y="-53.8" font-family="Times,serif" font-size="14.00">possède 100%</text>
</g>
<!-- altice&#45;france&#45;58 -->
<g id="node4" class="node">
<title>altice&#45;france&#45;58</title>
<polygon fill="none" stroke="black" points="546.75,-66.56 474.64,-79 402.53,-66.56 402.6,-46.44 546.68,-46.44 546.75,-66.56"/>
<text text-anchor="middle" x="474.64" y="-57.3" font-family="Times,serif" font-size="14.00">Altice France</text>
</g>
<!-- altice&#45;france&#45;58&#45;&gt;altice&#45;media&#45;61 -->
<g id="edge2" class="edge">
<title>altice&#45;france&#45;58&#45;&gt;altice&#45;media&#45;61</title>
<path fill="none" stroke="black" d="M547.18,-61C579.17,-61 617.07,-61 650.23,-61"/>
<polygon fill="black" stroke="black" points="650.22,-64.5 660.22,-61 650.22,-57.5 650.22,-64.5"/>
<text text-anchor="middle" x="604.44" y="-64.8" font-family="Times,serif" font-size="14.00">possède 100%</text>
</g>
<!-- altice&#45;57&#45;&gt;altice&#45;france&#45;58 -->
<g id="edge3" class="edge">
<title>altice&#45;57&#45;&gt;altice&#45;france&#45;58</title>
<path fill="none" stroke="black" d="M293.91,-61C320.99,-61 357.83,-61 391.11,-61"/>
<polygon fill="black" stroke="black" points="390.72,-64.5 400.72,-61 390.72,-57.5 390.72,-64.5"/>
<text text-anchor="middle" x="347.84" y="-64.8" font-family="Times,serif" font-size="14.00">possède 78%</text>
</g>
</g>
</svg>
