<?xml version="1.0" encoding="UTF-8" standalone="no"?>
<!DOCTYPE svg PUBLIC "-//W3C//DTD SVG 1.1//EN"
 "http://www.w3.org/Graphics/SVG/1.1/DTD/svg11.dtd">
<!-- Generated by graphviz version 7.1.0 (20230121.1956)
 -->
<!-- Pages: 1 -->
<svg width="1075pt" height="400pt"
 viewBox="0.00 0.00 1075.45 400.00" xmlns="http://www.w3.org/2000/svg" xmlns:xlink="http://www.w3.org/1999/xlink">
<g id="graph0" class="graph" transform="scale(1 1) rotate(0) translate(4 396)">
<polygon fill="white" stroke="none" points="-4,4 -4,-396 1071.45,-396 1071.45,4 -4,4"/>
<g id="clust2" class="cluster">
<title>clusterLeaves</title>
<polygon fill="none" stroke="black" points="947.26,-8 947.26,-384 1059.45,-384 1059.45,-8 947.26,-8"/>
</g>
<!-- famille&#45;mohn&#45;102 -->
<g id="node1" class="node">
<title>famille&#45;mohn&#45;102</title>
<polygon fill="none" stroke="black" points="110,-214 0,-214 0,-178 110,-178 110,-214"/>
<text text-anchor="middle" x="55" y="-192.3" font-family="Times,serif" font-size="14.00">🧑‍💼Famille Mohn</text>
</g>
<!-- bertelsmann&#45;103 -->
<g id="node2" class="node">
<title>bertelsmann&#45;103</title>
<polygon fill="none" stroke="black" points="365.27,-201.56 296.09,-214 226.91,-201.56 226.97,-181.44 365.21,-181.44 365.27,-201.56"/>
<text text-anchor="middle" x="296.09" y="-192.3" font-family="Times,serif" font-size="14.00">Bertelsmann</text>
</g>
<!-- famille&#45;mohn&#45;102&#45;&gt;bertelsmann&#45;103 -->
<g id="edge2" class="edge">
<title>famille&#45;mohn&#45;102&#45;&gt;bertelsmann&#45;103</title>
<path fill="none" stroke="black" d="M110.25,-196C141.2,-196 180.57,-196 215.01,-196"/>
<polygon fill="black" stroke="black" points="214.97,-199.5 224.97,-196 214.97,-192.5 214.97,-199.5"/>
<text text-anchor="middle" x="168.5" y="-199.8" font-family="Times,serif" font-size="14.00">contrôle 100%</text>
</g>
<!-- rtl&#45;group&#45;105 -->
<g id="node3" class="node">
<title>rtl&#45;group&#45;105</title>
<polygon fill="none" stroke="black" points="602.49,-201.56 538.45,-214 474.41,-201.56 474.47,-181.44 602.43,-181.44 602.49,-201.56"/>
<text text-anchor="middle" x="538.45" y="-192.3" font-family="Times,serif" font-size="14.00">RTL Group</text>
</g>
<!-- bertelsmann&#45;103&#45;&gt;rtl&#45;group&#45;105 -->
<g id="edge1" class="edge">
<title>bertelsmann&#45;103&#45;&gt;rtl&#45;group&#45;105</title>
<path fill="none" stroke="black" d="M365.65,-196C396.05,-196 431.89,-196 462.95,-196"/>
<polygon fill="black" stroke="black" points="462.64,-199.5 472.64,-196 462.64,-192.5 462.64,-199.5"/>
<text text-anchor="middle" x="419.68" y="-199.8" font-family="Times,serif" font-size="14.00">possède 75%</text>
</g>
<!-- groupe&#45;m6&#45;110 -->
<g id="node4" class="node">
<title>groupe&#45;m6&#45;110</title>
<polygon fill="none" stroke="black" points="840.03,-201.56 775.99,-214 711.95,-201.56 712.01,-181.44 839.97,-181.44 840.03,-201.56"/>
<text text-anchor="middle" x="775.99" y="-192.3" font-family="Times,serif" font-size="14.00">Groupe M6</text>
</g>
<!-- rtl&#45;group&#45;105&#45;&gt;groupe&#45;m6&#45;110 -->
<g id="edge3" class="edge">
<title>rtl&#45;group&#45;105&#45;&gt;groupe&#45;m6&#45;110</title>
<path fill="none" stroke="black" d="M602.88,-196C632.98,-196 669.14,-196 700.53,-196"/>
<polygon fill="black" stroke="black" points="700.34,-199.5 710.34,-196 700.34,-192.5 700.34,-199.5"/>
<text text-anchor="middle" x="657.22" y="-199.8" font-family="Times,serif" font-size="14.00">possède 48%</text>
</g>
<!-- 6ter&#45;113 -->
<g id="node5" class="node">
<title>6ter&#45;113</title>
<ellipse fill="none" stroke="black" cx="1003.36" cy="-358" rx="27" ry="18"/>
<text text-anchor="middle" x="1003.36" y="-354.3" font-family="Times,serif" font-size="14.00">6ter</text>
</g>
<!-- groupe&#45;m6&#45;110&#45;&gt;6ter&#45;113 -->
<g id="edge4" class="edge">
<title>groupe&#45;m6&#45;110&#45;&gt;6ter&#45;113</title>
<path fill="none" stroke="black" d="M785.55,-212.42C798.42,-235.63 824.84,-277.97 858.26,-303 890.66,-327.27 935.05,-342.06 965.96,-350.1"/>
<polygon fill="black" stroke="black" points="965.08,-353.48 975.63,-352.49 966.76,-346.69 965.08,-353.48"/>
<text text-anchor="middle" x="897.76" y="-344.8" font-family="Times,serif" font-size="14.00">possède 100%</text>
</g>
<!-- fun&#45;radio&#45;116 -->
<g id="node6" class="node">
<title>fun&#45;radio&#45;116</title>
<ellipse fill="none" stroke="black" cx="1003.36" cy="-304" rx="48.19" ry="18"/>
<text text-anchor="middle" x="1003.36" y="-300.3" font-family="Times,serif" font-size="14.00">Fun Radio</text>
</g>
<!-- groupe&#45;m6&#45;110&#45;&gt;fun&#45;radio&#45;116 -->
<g id="edge5" class="edge">
<title>groupe&#45;m6&#45;110&#45;&gt;fun&#45;radio&#45;116</title>
<path fill="none" stroke="black" d="M794.8,-210.64C810.69,-223.15 834.98,-241 858.26,-253 888.35,-268.51 924.23,-281.23 952.66,-290.08"/>
<polygon fill="black" stroke="black" points="951.53,-293.39 962.11,-292.96 953.57,-286.7 951.53,-293.39"/>
<text text-anchor="middle" x="897.76" y="-287.8" font-family="Times,serif" font-size="14.00">possède 100%</text>
</g>
<!-- gulli&#45;73 -->
<g id="node7" class="node">
<title>gulli&#45;73</title>
<ellipse fill="none" stroke="black" cx="1003.36" cy="-250" rx="28.7" ry="18"/>
<text text-anchor="middle" x="1003.36" y="-246.3" font-family="Times,serif" font-size="14.00">Gulli</text>
</g>
<!-- groupe&#45;m6&#45;110&#45;&gt;gulli&#45;73 -->
<g id="edge6" class="edge">
<title>groupe&#45;m6&#45;110&#45;&gt;gulli&#45;73</title>
<path fill="none" stroke="black" d="M819.11,-206.09C860.97,-216.12 924.57,-231.36 964.77,-240.99"/>
<polygon fill="black" stroke="black" points="963.93,-244.39 974.47,-243.32 965.56,-237.58 963.93,-244.39"/>
<text text-anchor="middle" x="897.76" y="-237.8" font-family="Times,serif" font-size="14.00">possède 100%</text>
</g>
<!-- m6&#45;111 -->
<g id="node8" class="node">
<title>m6&#45;111</title>
<ellipse fill="none" stroke="black" cx="1003.36" cy="-196" rx="27" ry="18"/>
<text text-anchor="middle" x="1003.36" y="-192.3" font-family="Times,serif" font-size="14.00">M6</text>
</g>
<!-- groupe&#45;m6&#45;110&#45;&gt;m6&#45;111 -->
<g id="edge7" class="edge">
<title>groupe&#45;m6&#45;110&#45;&gt;m6&#45;111</title>
<path fill="none" stroke="black" d="M840.37,-196C880.43,-196 930.85,-196 964.7,-196"/>
<polygon fill="black" stroke="black" points="964.43,-199.5 974.43,-196 964.43,-192.5 964.43,-199.5"/>
<text text-anchor="middle" x="897.76" y="-199.8" font-family="Times,serif" font-size="14.00">possède 100%</text>
</g>
<!-- rtl&#45;114 -->
<g id="node9" class="node">
<title>rtl&#45;114</title>
<ellipse fill="none" stroke="black" cx="1003.36" cy="-142" rx="27.1" ry="18"/>
<text text-anchor="middle" x="1003.36" y="-138.3" font-family="Times,serif" font-size="14.00">RTL</text>
</g>
<!-- groupe&#45;m6&#45;110&#45;&gt;rtl&#45;114 -->
<g id="edge8" class="edge">
<title>groupe&#45;m6&#45;110&#45;&gt;rtl&#45;114</title>
<path fill="none" stroke="black" d="M839.77,-180.96C880.72,-171.14 932.7,-158.69 966.71,-150.54"/>
<polygon fill="black" stroke="black" points="967.13,-154.04 976.04,-148.3 965.5,-147.23 967.13,-154.04"/>
<text text-anchor="middle" x="897.76" y="-178.8" font-family="Times,serif" font-size="14.00">possède 100%</text>
</g>
<!-- rtl2&#45;115 -->
<g id="node10" class="node">
<title>rtl2&#45;115</title>
<ellipse fill="none" stroke="black" cx="1003.36" cy="-88" rx="31.7" ry="18"/>
<text text-anchor="middle" x="1003.36" y="-84.3" font-family="Times,serif" font-size="14.00">RTL2</text>
</g>
<!-- groupe&#45;m6&#45;110&#45;&gt;rtl2&#45;115 -->
<g id="edge9" class="edge">
<title>groupe&#45;m6&#45;110&#45;&gt;rtl2&#45;115</title>
<path fill="none" stroke="black" d="M794.74,-181.05C810.59,-168.27 834.85,-150.09 858.26,-138 892.16,-120.49 933.55,-106.85 963.26,-98.27"/>
<polygon fill="black" stroke="black" points="963.9,-101.73 972.57,-95.64 962,-94.99 963.9,-101.73"/>
<text text-anchor="middle" x="897.76" y="-141.8" font-family="Times,serif" font-size="14.00">possède 100%</text>
</g>
<!-- w9&#45;112 -->
<g id="node11" class="node">
<title>w9&#45;112</title>
<ellipse fill="none" stroke="black" cx="1003.36" cy="-34" rx="27" ry="18"/>
<text text-anchor="middle" x="1003.36" y="-30.3" font-family="Times,serif" font-size="14.00">W9</text>
</g>
<!-- groupe&#45;m6&#45;110&#45;&gt;w9&#45;112 -->
<g id="edge10" class="edge">
<title>groupe&#45;m6&#45;110&#45;&gt;w9&#45;112</title>
<path fill="none" stroke="black" d="M784.4,-181.15C796.7,-157.92 823.46,-112.98 858.26,-87 890.46,-62.96 934.7,-48.86 965.64,-41.32"/>
<polygon fill="black" stroke="black" points="966.36,-44.75 975.31,-39.09 964.78,-37.93 966.36,-44.75"/>
<text text-anchor="middle" x="897.76" y="-90.8" font-family="Times,serif" font-size="14.00">possède 100%</text>
</g>
</g>
</svg>
