<?xml version="1.0" encoding="UTF-8" standalone="no"?>
<!DOCTYPE svg PUBLIC "-//W3C//DTD SVG 1.1//EN"
 "http://www.w3.org/Graphics/SVG/1.1/DTD/svg11.dtd">
<!-- Generated by graphviz version 7.1.0 (20230121.1956)
 -->
<!-- Pages: 1 -->
<svg width="1640pt" height="76pt"
 viewBox="0.00 0.00 1639.70 76.00" xmlns="http://www.w3.org/2000/svg" xmlns:xlink="http://www.w3.org/1999/xlink">
<g id="graph0" class="graph" transform="scale(1 1) rotate(0) translate(4 72)">
<polygon fill="white" stroke="none" points="-4,4 -4,-72 1635.7,-72 1635.7,4 -4,4"/>
<g id="clust2" class="cluster">
<title>clusterLeaves</title>
<polygon fill="none" stroke="black" points="1505.01,-8 1505.01,-60 1623.7,-60 1623.7,-8 1505.01,-8"/>
</g>
<!-- famille&#45;hutin&#45;170 -->
<g id="node1" class="node">
<title>famille&#45;hutin&#45;170</title>
<polygon fill="none" stroke="black" points="107,-52 0,-52 0,-16 107,-16 107,-52"/>
<text text-anchor="middle" x="53.5" y="-30.3" font-family="Times,serif" font-size="14.00">🧑‍💼Famille Hutin</text>
</g>
<!-- association&#45;pour&#45;le&#45;soutien&#45;des&#45;principes&#45;de&#45;la&#45;democratie&#45;humaniste&#45;173 -->
<g id="node4" class="node">
<title>association&#45;pour&#45;le&#45;soutien&#45;des&#45;principes&#45;de&#45;la&#45;democratie&#45;humaniste&#45;173</title>
<polygon fill="none" stroke="black" points="858.5,-39.56 541.33,-52 224.17,-39.56 224.46,-19.44 858.2,-19.44 858.5,-39.56"/>
<text text-anchor="middle" x="541.33" y="-30.3" font-family="Times,serif" font-size="14.00">Association pour le soutien des principes de la démocratie humaniste</text>
</g>
<!-- famille&#45;hutin&#45;170&#45;&gt;association&#45;pour&#45;le&#45;soutien&#45;des&#45;principes&#45;de&#45;la&#45;democratie&#45;humaniste&#45;173 -->
<g id="edge3" class="edge">
<title>famille&#45;hutin&#45;170&#45;&gt;association&#45;pour&#45;le&#45;soutien&#45;des&#45;principes&#45;de&#45;la&#45;democratie&#45;humaniste&#45;173</title>
<path fill="none" stroke="black" d="M107.42,-34C135.29,-34 172.04,-34 212.37,-34"/>
<polygon fill="black" stroke="black" points="212.32,-37.5 222.32,-34 212.32,-30.5 212.32,-37.5"/>
<text text-anchor="middle" x="165.5" y="-37.8" font-family="Times,serif" font-size="14.00">contrôle 100%</text>
</g>
<!-- groupe&#45;sipa&#45;ouest&#45;174 -->
<g id="node2" class="node">
<title>groupe&#45;sipa&#45;ouest&#45;174</title>
<polygon fill="none" stroke="black" points="1185.8,-39.56 1079.71,-52 973.62,-39.56 973.72,-19.44 1185.7,-19.44 1185.8,-39.56"/>
<text text-anchor="middle" x="1079.71" y="-30.3" font-family="Times,serif" font-size="14.00">Groupe SIPA &#45; Ouest</text>
</g>
<!-- sofiouest&#45;181 -->
<g id="node3" class="node">
<title>sofiouest&#45;181</title>
<polygon fill="none" stroke="black" points="1404.14,-39.56 1349.38,-52 1294.63,-39.56 1294.68,-19.44 1404.09,-19.44 1404.14,-39.56"/>
<text text-anchor="middle" x="1349.38" y="-30.3" font-family="Times,serif" font-size="14.00">Sofiouest</text>
</g>
<!-- groupe&#45;sipa&#45;ouest&#45;174&#45;&gt;sofiouest&#45;181 -->
<g id="edge1" class="edge">
<title>groupe&#45;sipa&#45;ouest&#45;174&#45;&gt;sofiouest&#45;181</title>
<path fill="none" stroke="black" d="M1186.12,-34C1218.79,-34 1253.84,-34 1282.97,-34"/>
<polygon fill="black" stroke="black" points="1282.73,-37.5 1292.73,-34 1282.73,-30.5 1282.73,-37.5"/>
<text text-anchor="middle" x="1240.26" y="-37.8" font-family="Times,serif" font-size="14.00">possède 40%</text>
</g>
<!-- 20&#45;minutes&#45;182 -->
<g id="node5" class="node">
<title>20&#45;minutes&#45;182</title>
<ellipse fill="none" stroke="black" cx="1564.36" cy="-34" rx="51.19" ry="18"/>
<text text-anchor="middle" x="1564.36" y="-30.3" font-family="Times,serif" font-size="14.00">20 Minutes</text>
</g>
<!-- sofiouest&#45;181&#45;&gt;20&#45;minutes&#45;182 -->
<g id="edge4" class="edge">
<title>sofiouest&#45;181&#45;&gt;20&#45;minutes&#45;182</title>
<path fill="none" stroke="black" d="M1404.4,-34C1433.91,-34 1470.57,-34 1501.26,-34"/>
<polygon fill="black" stroke="black" points="1501.18,-37.5 1511.18,-34 1501.18,-30.5 1501.18,-37.5"/>
<text text-anchor="middle" x="1458.51" y="-37.8" font-family="Times,serif" font-size="14.00">possède 50%</text>
</g>
<!-- association&#45;pour&#45;le&#45;soutien&#45;des&#45;principes&#45;de&#45;la&#45;democratie&#45;humaniste&#45;173&#45;&gt;groupe&#45;sipa&#45;ouest&#45;174 -->
<g id="edge2" class="edge">
<title>association&#45;pour&#45;le&#45;soutien&#45;des&#45;principes&#45;de&#45;la&#45;democratie&#45;humaniste&#45;173&#45;&gt;groupe&#45;sipa&#45;ouest&#45;174</title>
<path fill="none" stroke="black" d="M858.61,-34C895.22,-34 930.6,-34 961.89,-34"/>
<polygon fill="black" stroke="black" points="961.71,-37.5 971.71,-34 961.71,-30.5 961.71,-37.5"/>
<text text-anchor="middle" x="916.16" y="-37.8" font-family="Times,serif" font-size="14.00">possède 100%</text>
</g>
</g>
</svg>
