<?xml version="1.0" encoding="UTF-8" standalone="no"?>
<!DOCTYPE svg PUBLIC "-//W3C//DTD SVG 1.1//EN"
 "http://www.w3.org/Graphics/SVG/1.1/DTD/svg11.dtd">
<!-- Generated by graphviz version 8.1.0 (20230707.0739)
 -->
<!-- Pages: 1 -->
<svg width="356pt" height="130pt"
 viewBox="0.00 0.00 356.24 130.00" xmlns="http://www.w3.org/2000/svg" xmlns:xlink="http://www.w3.org/1999/xlink">
<g id="graph0" class="graph" transform="scale(1 1) rotate(0) translate(4 126)">
<polygon fill="white" stroke="none" points="-4,4 -4,-126 352.24,-126 352.24,4 -4,4"/>
<g id="clust2" class="cluster">
<title>clusterLeaves</title>
<polygon fill="none" stroke="black" points="230.75,-8 230.75,-114 340.24,-114 340.24,-8 230.75,-8"/>
</g>
<!-- sophia&#45;publications&#45;2 -->
<g id="node1" class="node">
<title>sophia&#45;publications&#45;2</title>
<polygon fill="none" stroke="black" points="124,-79 0,-79 0,-43 124,-43 124,-79"/>
<text text-anchor="middle" x="62" y="-55.95" font-family="Times,serif" font-size="14.00">Sophia Publications</text>
</g>
<!-- historia&#45;5 -->
<g id="node2" class="node">
<title>historia&#45;5</title>
<ellipse fill="none" stroke="black" cx="285.5" cy="-88" rx="40.6" ry="18"/>
<text text-anchor="middle" x="285.5" y="-82.95" font-family="Times,serif" font-size="14.00">Historia</text>
</g>
<!-- sophia&#45;publications&#45;2&#45;&gt;historia&#45;5 -->
<g id="edge1" class="edge">
<title>sophia&#45;publications&#45;2&#45;&gt;historia&#45;5</title>
<path fill="none" stroke="black" d="M124.4,-68.49C159.37,-72.75 202.59,-78.02 235.3,-82"/>
<polygon fill="black" stroke="black" points="234.62,-85.57 244.97,-83.3 235.47,-78.62 234.62,-85.57"/>
<text text-anchor="middle" x="181.38" y="-83.2" font-family="Times,serif" font-size="14.00">possède 100%</text>
</g>
<!-- l&#45;histoire&#45;4 -->
<g id="node3" class="node">
<title>l&#45;histoire&#45;4</title>
<ellipse fill="none" stroke="black" cx="285.5" cy="-34" rx="46.75" ry="18"/>
<text text-anchor="middle" x="285.5" y="-28.95" font-family="Times,serif" font-size="14.00">L’histoire</text>
</g>
<!-- sophia&#45;publications&#45;2&#45;&gt;l&#45;histoire&#45;4 -->
<g id="edge2" class="edge">
<title>sophia&#45;publications&#45;2&#45;&gt;l&#45;histoire&#45;4</title>
<path fill="none" stroke="black" d="M124.23,-52.76C130.23,-51.98 136.23,-51.22 142,-50.5 170.89,-46.91 203.11,-43.16 229.59,-40.14"/>
<polygon fill="black" stroke="black" points="229.64,-43.54 239.18,-38.94 228.85,-36.59 229.64,-43.54"/>
<text text-anchor="middle" x="181.38" y="-53.2" font-family="Times,serif" font-size="14.00">possède 100%</text>
</g>
</g>
</svg>
