<?xml version="1.0" encoding="UTF-8" standalone="no"?>
<!DOCTYPE svg PUBLIC "-//W3C//DTD SVG 1.1//EN"
 "http://www.w3.org/Graphics/SVG/1.1/DTD/svg11.dtd">
<!-- Generated by graphviz version 7.1.0 (20230121.1956)
 -->
<!-- Pages: 1 -->
<svg width="354pt" height="130pt"
 viewBox="0.00 0.00 353.69 130.00" xmlns="http://www.w3.org/2000/svg" xmlns:xlink="http://www.w3.org/1999/xlink">
<g id="graph0" class="graph" transform="scale(1 1) rotate(0) translate(4 126)">
<polygon fill="white" stroke="none" points="-4,4 -4,-126 349.69,-126 349.69,4 -4,4"/>
<g id="clust2" class="cluster">
<title>clusterLeaves</title>
<polygon fill="none" stroke="black" points="232,-8 232,-114 337.69,-114 337.69,-8 232,-8"/>
</g>
<!-- sophia&#45;publications&#45;2 -->
<g id="node1" class="node">
<title>sophia&#45;publications&#45;2</title>
<polygon fill="none" stroke="black" points="125,-79 0,-79 0,-43 125,-43 125,-79"/>
<text text-anchor="middle" x="62.5" y="-57.3" font-family="Times,serif" font-size="14.00">Sophia Publications</text>
</g>
<!-- historia&#45;5 -->
<g id="node2" class="node">
<title>historia&#45;5</title>
<ellipse fill="none" stroke="black" cx="284.85" cy="-88" rx="38.99" ry="18"/>
<text text-anchor="middle" x="284.85" y="-84.3" font-family="Times,serif" font-size="14.00">Historia</text>
</g>
<!-- sophia&#45;publications&#45;2&#45;&gt;historia&#45;5 -->
<g id="edge1" class="edge">
<title>sophia&#45;publications&#45;2&#45;&gt;historia&#45;5</title>
<path fill="none" stroke="black" d="M125.47,-68.59C160.27,-72.86 203.07,-78.1 235.4,-82.06"/>
<polygon fill="black" stroke="black" points="234.95,-85.53 245.3,-83.28 235.8,-78.59 234.95,-85.53"/>
<text text-anchor="middle" x="182.5" y="-83.8" font-family="Times,serif" font-size="14.00">possède 100%</text>
</g>
<!-- l&#45;histoire&#45;4 -->
<g id="node3" class="node">
<title>l&#45;histoire&#45;4</title>
<ellipse fill="none" stroke="black" cx="284.85" cy="-34" rx="44.69" ry="18"/>
<text text-anchor="middle" x="284.85" y="-30.3" font-family="Times,serif" font-size="14.00">L’histoire</text>
</g>
<!-- sophia&#45;publications&#45;2&#45;&gt;l&#45;histoire&#45;4 -->
<g id="edge2" class="edge">
<title>sophia&#45;publications&#45;2&#45;&gt;l&#45;histoire&#45;4</title>
<path fill="none" stroke="black" d="M125.47,-53.41C158.46,-49.36 198.63,-44.44 230.26,-40.57"/>
<polygon fill="black" stroke="black" points="230.5,-44.06 240,-39.37 229.64,-37.12 230.5,-44.06"/>
<text text-anchor="middle" x="182.5" y="-53.8" font-family="Times,serif" font-size="14.00">possède 100%</text>
</g>
</g>
</svg>
