<?xml version="1.0" encoding="UTF-8" standalone="no"?>
<!DOCTYPE svg PUBLIC "-//W3C//DTD SVG 1.1//EN"
 "http://www.w3.org/Graphics/SVG/1.1/DTD/svg11.dtd">
<!-- Generated by graphviz version 7.1.0 (20230121.1956)
 -->
<!-- Pages: 1 -->
<svg width="932pt" height="98pt"
 viewBox="0.00 0.00 932.46 98.00" xmlns="http://www.w3.org/2000/svg" xmlns:xlink="http://www.w3.org/1999/xlink">
<g id="graph0" class="graph" transform="scale(1 1) rotate(0) translate(4 94)">
<polygon fill="white" stroke="none" points="-4,4 -4,-94 928.46,-94 928.46,4 -4,4"/>
<g id="clust2" class="cluster">
<title>clusterLeaves</title>
<polygon fill="none" stroke="black" points="810.77,-19 810.77,-71 916.46,-71 916.46,-19 810.77,-19"/>
</g>
<!-- famille&#45;saint&#45;cricq&#45;221 -->
<g id="node1" class="node">
<title>famille&#45;saint&#45;cricq&#45;221</title>
<polygon fill="none" stroke="black" points="405.15,-90 266.15,-90 266.15,-54 405.15,-54 405.15,-90"/>
<text text-anchor="middle" x="335.65" y="-68.3" font-family="Times,serif" font-size="14.00">🧑‍💼Famille Saint&#45;Cricq</text>
</g>
<!-- groupe&#45;nrco&#45;237 -->
<g id="node3" class="node">
<title>groupe&#45;nrco&#45;237</title>
<polygon fill="none" stroke="black" points="710,-50.56 631.03,-63 552.07,-50.56 552.15,-30.44 709.92,-30.44 710,-50.56"/>
<text text-anchor="middle" x="631.03" y="-41.3" font-family="Times,serif" font-size="14.00">Groupe NRCO</text>
</g>
<!-- famille&#45;saint&#45;cricq&#45;221&#45;&gt;groupe&#45;nrco&#45;237 -->
<g id="edge2" class="edge">
<title>famille&#45;saint&#45;cricq&#45;221&#45;&gt;groupe&#45;nrco&#45;237</title>
<path fill="none" stroke="black" d="M405.44,-65.67C447.19,-61.83 500.81,-56.89 545.19,-52.81"/>
<polygon fill="black" stroke="black" points="545.41,-56.3 555.04,-51.9 544.77,-49.33 545.41,-56.3"/>
<text text-anchor="middle" x="497.8" y="-63.8" font-family="Times,serif" font-size="14.00">possède 15%</text>
</g>
<!-- fondation&#45;varenne&#45;220 -->
<g id="node2" class="node">
<title>fondation&#45;varenne&#45;220</title>
<polygon fill="none" stroke="black" points="119,-36 0,-36 0,0 119,0 119,-36"/>
<text text-anchor="middle" x="59.5" y="-14.3" font-family="Times,serif" font-size="14.00">Fondation Varenne</text>
</g>
<!-- groupe&#45;la&#45;montagne&#45;222 -->
<g id="node4" class="node">
<title>groupe&#45;la&#45;montagne&#45;222</title>
<polygon fill="none" stroke="black" points="443.46,-23.56 335.65,-36 227.85,-23.56 227.95,-3.44 443.36,-3.44 443.46,-23.56"/>
<text text-anchor="middle" x="335.65" y="-14.3" font-family="Times,serif" font-size="14.00">Groupe La Montagne</text>
</g>
<!-- fondation&#45;varenne&#45;220&#45;&gt;groupe&#45;la&#45;montagne&#45;222 -->
<g id="edge4" class="edge">
<title>fondation&#45;varenne&#45;220&#45;&gt;groupe&#45;la&#45;montagne&#45;222</title>
<path fill="none" stroke="black" d="M119.31,-18C147.65,-18 182.71,-18 216.24,-18"/>
<polygon fill="black" stroke="black" points="216.03,-21.5 226.03,-18 216.03,-14.5 216.03,-21.5"/>
<text text-anchor="middle" x="173.5" y="-21.8" font-family="Times,serif" font-size="14.00">possède 50%</text>
</g>
<!-- tv&#45;tours&#45;240 -->
<g id="node5" class="node">
<title>tv&#45;tours&#45;240</title>
<ellipse fill="none" stroke="black" cx="863.61" cy="-45" rx="44.69" ry="18"/>
<text text-anchor="middle" x="863.61" y="-41.3" font-family="Times,serif" font-size="14.00">TV Tours</text>
</g>
<!-- groupe&#45;nrco&#45;237&#45;&gt;tv&#45;tours&#45;240 -->
<g id="edge1" class="edge">
<title>groupe&#45;nrco&#45;237&#45;&gt;tv&#45;tours&#45;240</title>
<path fill="none" stroke="black" d="M710.42,-45C742.34,-45 778.49,-45 807.54,-45"/>
<polygon fill="black" stroke="black" points="807.2,-48.5 817.2,-45 807.2,-41.5 807.2,-48.5"/>
<text text-anchor="middle" x="764.27" y="-48.8" font-family="Times,serif" font-size="14.00">possède 40%</text>
</g>
<!-- groupe&#45;la&#45;montagne&#45;222&#45;&gt;groupe&#45;nrco&#45;237 -->
<g id="edge3" class="edge">
<title>groupe&#45;la&#45;montagne&#45;222&#45;&gt;groupe&#45;nrco&#45;237</title>
<path fill="none" stroke="black" d="M429.69,-25.65C462.73,-28.46 500.19,-31.75 534.3,-35 536.34,-35.19 538.39,-35.39 540.47,-35.59"/>
<polygon fill="black" stroke="black" points="539.88,-39.05 550.17,-36.55 540.57,-32.09 539.88,-39.05"/>
<text text-anchor="middle" x="497.8" y="-38.8" font-family="Times,serif" font-size="14.00">possède 16%</text>
</g>
</g>
</svg>
