<?xml version="1.0" encoding="UTF-8" standalone="no"?>
<!DOCTYPE svg PUBLIC "-//W3C//DTD SVG 1.1//EN"
 "http://www.w3.org/Graphics/SVG/1.1/DTD/svg11.dtd">
<!-- Generated by graphviz version 8.1.0 (20230707.0739)
 -->
<!-- Pages: 1 -->
<svg width="950pt" height="98pt"
 viewBox="0.00 0.00 950.03 98.00" xmlns="http://www.w3.org/2000/svg" xmlns:xlink="http://www.w3.org/1999/xlink">
<g id="graph0" class="graph" transform="scale(1 1) rotate(0) translate(4 94)">
<polygon fill="white" stroke="none" points="-4,4 -4,-94 946.03,-94 946.03,4 -4,4"/>
<g id="clust2" class="cluster">
<title>clusterLeaves</title>
<polygon fill="none" stroke="black" points="824.54,-19 824.54,-71 934.03,-71 934.03,-19 824.54,-19"/>
</g>
<!-- famille&#45;saint&#45;cricq&#45;221 -->
<g id="node1" class="node">
<title>famille&#45;saint&#45;cricq&#45;221</title>
<polygon fill="none" stroke="black" points="407.94,-90 269.69,-90 269.69,-54 407.94,-54 407.94,-90"/>
<text text-anchor="middle" x="338.82" y="-68.08" font-family="Times,serif" font-size="14.00">🧑‍💼Famille Saint&#45;Cricq</text>
</g>
<!-- groupe&#45;nrco&#45;237 -->
<g id="node3" class="node">
<title>groupe&#45;nrco&#45;237</title>
<polygon fill="none" stroke="black" points="724.54,-50.56 642.09,-63 559.64,-50.56 559.71,-30.44 724.47,-30.44 724.54,-50.56"/>
<text text-anchor="middle" x="642.09" y="-39.95" font-family="Times,serif" font-size="14.00">Groupe NRCO</text>
</g>
<!-- famille&#45;saint&#45;cricq&#45;221&#45;&gt;groupe&#45;nrco&#45;237 -->
<g id="edge2" class="edge">
<title>famille&#45;saint&#45;cricq&#45;221&#45;&gt;groupe&#45;nrco&#45;237</title>
<path fill="none" stroke="black" d="M408.18,-65.87C451.34,-62.01 507.49,-56.97 553.84,-52.82"/>
<polygon fill="black" stroke="black" points="554.14,-56.22 563.79,-51.84 553.52,-49.24 554.14,-56.22"/>
<text text-anchor="middle" x="505.64" y="-63.2" font-family="Times,serif" font-size="14.00">possède 15%</text>
</g>
<!-- fondation&#45;varenne&#45;220 -->
<g id="node2" class="node">
<title>fondation&#45;varenne&#45;220</title>
<polygon fill="none" stroke="black" points="118,-36 0,-36 0,0 118,0 118,-36"/>
<text text-anchor="middle" x="59" y="-12.95" font-family="Times,serif" font-size="14.00">Fondation Varenne</text>
</g>
<!-- groupe&#45;la&#45;montagne&#45;222 -->
<g id="node4" class="node">
<title>groupe&#45;la&#45;montagne&#45;222</title>
<polygon fill="none" stroke="black" points="451.64,-23.56 338.82,-36 226,-23.56 226.11,-3.44 451.53,-3.44 451.64,-23.56"/>
<text text-anchor="middle" x="338.82" y="-12.95" font-family="Times,serif" font-size="14.00">Groupe La Montagne</text>
</g>
<!-- fondation&#45;varenne&#45;220&#45;&gt;groupe&#45;la&#45;montagne&#45;222 -->
<g id="edge4" class="edge">
<title>fondation&#45;varenne&#45;220&#45;&gt;groupe&#45;la&#45;montagne&#45;222</title>
<path fill="none" stroke="black" d="M118.24,-18C146.38,-18 181.28,-18 214.91,-18"/>
<polygon fill="black" stroke="black" points="214.78,-21.5 224.78,-18 214.78,-14.5 214.78,-21.5"/>
<text text-anchor="middle" x="172" y="-21.2" font-family="Times,serif" font-size="14.00">possède 50%</text>
</g>
<!-- tv&#45;tours&#45;240 -->
<g id="node5" class="node">
<title>tv&#45;tours&#45;240</title>
<ellipse fill="none" stroke="black" cx="879.29" cy="-45" rx="46.75" ry="18"/>
<text text-anchor="middle" x="879.29" y="-39.95" font-family="Times,serif" font-size="14.00">TV Tours</text>
</g>
<!-- groupe&#45;nrco&#45;237&#45;&gt;tv&#45;tours&#45;240 -->
<g id="edge1" class="edge">
<title>groupe&#45;nrco&#45;237&#45;&gt;tv&#45;tours&#45;240</title>
<path fill="none" stroke="black" d="M725.02,-45C756.88,-45 792.59,-45 821.53,-45"/>
<polygon fill="black" stroke="black" points="821.26,-48.5 831.26,-45 821.26,-41.5 821.26,-48.5"/>
<text text-anchor="middle" x="778.54" y="-48.2" font-family="Times,serif" font-size="14.00">possède 40%</text>
</g>
<!-- groupe&#45;la&#45;montagne&#45;222&#45;&gt;groupe&#45;nrco&#45;237 -->
<g id="edge3" class="edge">
<title>groupe&#45;la&#45;montagne&#45;222&#45;&gt;groupe&#45;nrco&#45;237</title>
<path fill="none" stroke="black" d="M442.04,-25.08C473.96,-27.5 509.28,-30.39 541.64,-33.5 543.9,-33.72 546.19,-33.94 548.51,-34.18"/>
<polygon fill="black" stroke="black" points="548.13,-37.76 558.44,-35.3 548.85,-30.79 548.13,-37.76"/>
<text text-anchor="middle" x="505.64" y="-37.2" font-family="Times,serif" font-size="14.00">possède 16%</text>
</g>
</g>
</svg>
