<?xml version="1.0" encoding="UTF-8" standalone="no"?>
<!DOCTYPE svg PUBLIC "-//W3C//DTD SVG 1.1//EN"
 "http://www.w3.org/Graphics/SVG/1.1/DTD/svg11.dtd">
<!-- Generated by graphviz version 7.1.0 (20230121.1956)
 -->
<!-- Pages: 1 -->
<svg width="713pt" height="98pt"
 viewBox="0.00 0.00 713.13 98.00" xmlns="http://www.w3.org/2000/svg" xmlns:xlink="http://www.w3.org/1999/xlink">
<g id="graph0" class="graph" transform="scale(1 1) rotate(0) translate(4 94)">
<polygon fill="white" stroke="none" points="-4,4 -4,-94 709.13,-94 709.13,4 -4,4"/>
<g id="clust2" class="cluster">
<title>clusterLeaves</title>
<polygon fill="none" stroke="black" points="571.94,-21 571.94,-73 697.13,-73 697.13,-21 571.94,-21"/>
</g>
<!-- republique&#45;francaise&#45;128 -->
<g id="node1" class="node">
<title>republique&#45;francaise&#45;128</title>
<polygon fill="none" stroke="black" points="131,-63 0,-63 0,-27 131,-27 131,-63"/>
<text text-anchor="middle" x="65.5" y="-41.3" font-family="Times,serif" font-size="14.00">République française</text>
</g>
<!-- france&#45;medias&#45;monde&#45;133 -->
<g id="node2" class="node">
<title>france&#45;medias&#45;monde&#45;133</title>
<polygon fill="none" stroke="black" points="470.92,-77.56 358.47,-90 246.03,-77.56 246.13,-57.44 470.81,-57.44 470.92,-77.56"/>
<text text-anchor="middle" x="358.47" y="-68.3" font-family="Times,serif" font-size="14.00">France Médias Monde</text>
</g>
<!-- republique&#45;francaise&#45;128&#45;&gt;france&#45;medias&#45;monde&#45;133 -->
<g id="edge2" class="edge">
<title>republique&#45;francaise&#45;128&#45;&gt;france&#45;medias&#45;monde&#45;133</title>
<path fill="none" stroke="black" d="M131.44,-51.03C161.82,-53.84 199.04,-57.3 234.44,-60.58"/>
<polygon fill="black" stroke="black" points="234.07,-64.06 244.35,-61.5 234.72,-57.09 234.07,-64.06"/>
<text text-anchor="middle" x="188.5" y="-62.8" font-family="Times,serif" font-size="14.00">possède 100%</text>
</g>
<!-- france&#45;television&#45;134 -->
<g id="node3" class="node">
<title>france&#45;television&#45;134</title>
<polygon fill="none" stroke="black" points="449.04,-23.56 358.47,-36 267.91,-23.56 267.99,-3.44 448.95,-3.44 449.04,-23.56"/>
<text text-anchor="middle" x="358.47" y="-14.3" font-family="Times,serif" font-size="14.00">France Télévision</text>
</g>
<!-- republique&#45;francaise&#45;128&#45;&gt;france&#45;television&#45;134 -->
<g id="edge4" class="edge">
<title>republique&#45;francaise&#45;128&#45;&gt;france&#45;television&#45;134</title>
<path fill="none" stroke="black" d="M131.29,-35.12C137.27,-34.35 143.24,-33.62 149,-33 183.84,-29.22 222.07,-26.15 256.16,-23.81"/>
<polygon fill="black" stroke="black" points="256.31,-27.3 266.05,-23.14 255.83,-20.32 256.31,-27.3"/>
<text text-anchor="middle" x="188.5" y="-36.8" font-family="Times,serif" font-size="14.00">possède 100%</text>
</g>
<!-- tv5&#45;monde&#45;140 -->
<g id="node4" class="node">
<title>tv5&#45;monde&#45;140</title>
<ellipse fill="none" stroke="black" cx="634.54" cy="-47" rx="54.69" ry="18"/>
<text text-anchor="middle" x="634.54" y="-43.3" font-family="Times,serif" font-size="14.00">TV5 Monde</text>
</g>
<!-- france&#45;medias&#45;monde&#45;133&#45;&gt;tv5&#45;monde&#45;140 -->
<g id="edge1" class="edge">
<title>france&#45;medias&#45;monde&#45;133&#45;&gt;tv5&#45;monde&#45;140</title>
<path fill="none" stroke="black" d="M470.95,-61.83C504.7,-58.75 540.6,-55.48 570.06,-52.79"/>
<polygon fill="black" stroke="black" points="570.28,-56.29 579.92,-51.89 569.64,-49.31 570.28,-56.29"/>
<text text-anchor="middle" x="525.44" y="-62.8" font-family="Times,serif" font-size="14.00">possède 13%</text>
</g>
<!-- france&#45;television&#45;134&#45;&gt;tv5&#45;monde&#45;140 -->
<g id="edge3" class="edge">
<title>france&#45;television&#45;134&#45;&gt;tv5&#45;monde&#45;140</title>
<path fill="none" stroke="black" d="M449.38,-23.15C484.57,-25.68 525.23,-29.23 561.94,-34 566.52,-34.6 571.26,-35.29 576,-36.03"/>
<polygon fill="black" stroke="black" points="575.12,-39.43 585.55,-37.61 576.26,-32.53 575.12,-39.43"/>
<text text-anchor="middle" x="525.44" y="-37.8" font-family="Times,serif" font-size="14.00">possède 49%</text>
</g>
</g>
</svg>
