<?xml version="1.0" encoding="UTF-8" standalone="no"?>
<!DOCTYPE svg PUBLIC "-//W3C//DTD SVG 1.1//EN"
 "http://www.w3.org/Graphics/SVG/1.1/DTD/svg11.dtd">
<!-- Generated by graphviz version 8.1.0 (20230707.0739)
 -->
<!-- Pages: 1 -->
<svg width="727pt" height="98pt"
 viewBox="0.00 0.00 727.22 98.00" xmlns="http://www.w3.org/2000/svg" xmlns:xlink="http://www.w3.org/1999/xlink">
<g id="graph0" class="graph" transform="scale(1 1) rotate(0) translate(4 94)">
<polygon fill="white" stroke="none" points="-4,4 -4,-94 723.22,-94 723.22,4 -4,4"/>
<g id="clust2" class="cluster">
<title>clusterLeaves</title>
<polygon fill="none" stroke="black" points="581.26,-21 581.26,-73 711.22,-73 711.22,-21 581.26,-21"/>
</g>
<!-- republique&#45;francaise&#45;128 -->
<g id="node1" class="node">
<title>republique&#45;francaise&#45;128</title>
<polygon fill="none" stroke="black" points="130.75,-63 0,-63 0,-27 130.75,-27 130.75,-63"/>
<text text-anchor="middle" x="65.38" y="-39.95" font-family="Times,serif" font-size="14.00">République française</text>
</g>
<!-- france&#45;medias&#45;monde&#45;133 -->
<g id="node2" class="node">
<title>france&#45;medias&#45;monde&#45;133</title>
<polygon fill="none" stroke="black" points="481.26,-77.56 363.38,-90 245.5,-77.56 245.61,-57.44 481.15,-57.44 481.26,-77.56"/>
<text text-anchor="middle" x="363.38" y="-66.95" font-family="Times,serif" font-size="14.00">France Médias Monde</text>
</g>
<!-- republique&#45;francaise&#45;128&#45;&gt;france&#45;medias&#45;monde&#45;133 -->
<g id="edge2" class="edge">
<title>republique&#45;francaise&#45;128&#45;&gt;france&#45;medias&#45;monde&#45;133</title>
<path fill="none" stroke="black" d="M130.97,-50.89C161.39,-53.67 198.8,-57.08 234.59,-60.34"/>
<polygon fill="black" stroke="black" points="233.86,-63.88 244.14,-61.31 234.5,-56.91 233.86,-63.88"/>
<text text-anchor="middle" x="188.12" y="-62.2" font-family="Times,serif" font-size="14.00">possède 100%</text>
</g>
<!-- france&#45;television&#45;134 -->
<g id="node3" class="node">
<title>france&#45;television&#45;134</title>
<polygon fill="none" stroke="black" points="458.49,-23.56 363.38,-36 268.27,-23.56 268.36,-3.44 458.4,-3.44 458.49,-23.56"/>
<text text-anchor="middle" x="363.38" y="-12.95" font-family="Times,serif" font-size="14.00">France Télévision</text>
</g>
<!-- republique&#45;francaise&#45;128&#45;&gt;france&#45;television&#45;134 -->
<g id="edge4" class="edge">
<title>republique&#45;francaise&#45;128&#45;&gt;france&#45;television&#45;134</title>
<path fill="none" stroke="black" d="M131.04,-33.78C137.02,-32.93 142.99,-32.15 148.75,-31.5 183.97,-27.51 222.6,-24.62 257.21,-22.56"/>
<polygon fill="black" stroke="black" points="257.04,-26.02 266.82,-21.95 256.63,-19.03 257.04,-26.02"/>
<text text-anchor="middle" x="188.12" y="-34.2" font-family="Times,serif" font-size="14.00">possède 100%</text>
</g>
<!-- tv5&#45;monde&#45;140 -->
<g id="node4" class="node">
<title>tv5&#45;monde&#45;140</title>
<ellipse fill="none" stroke="black" cx="646.24" cy="-47" rx="56.98" ry="18"/>
<text text-anchor="middle" x="646.24" y="-41.95" font-family="Times,serif" font-size="14.00">TV5 Monde</text>
</g>
<!-- france&#45;medias&#45;monde&#45;133&#45;&gt;tv5&#45;monde&#45;140 -->
<g id="edge1" class="edge">
<title>france&#45;medias&#45;monde&#45;133&#45;&gt;tv5&#45;monde&#45;140</title>
<path fill="none" stroke="black" d="M481.46,-61.58C515.09,-58.58 550.56,-55.43 579.86,-52.82"/>
<polygon fill="black" stroke="black" points="580.12,-56.22 589.77,-51.85 579.5,-49.25 580.12,-56.22"/>
<text text-anchor="middle" x="535.26" y="-62.2" font-family="Times,serif" font-size="14.00">possède 13%</text>
</g>
<!-- france&#45;television&#45;134&#45;&gt;tv5&#45;monde&#45;140 -->
<g id="edge3" class="edge">
<title>france&#45;television&#45;134&#45;&gt;tv5&#45;monde&#45;140</title>
<path fill="none" stroke="black" d="M458.86,-22.16C494.22,-24.36 534.67,-27.65 571.26,-32.5 576.64,-33.21 582.21,-34.07 587.78,-35.02"/>
<polygon fill="black" stroke="black" points="586.96,-38.61 597.42,-36.92 588.19,-31.72 586.96,-38.61"/>
<text text-anchor="middle" x="535.26" y="-35.2" font-family="Times,serif" font-size="14.00">possède 49%</text>
</g>
</g>
</svg>
