<?xml version="1.0" encoding="UTF-8" standalone="no"?>
<!DOCTYPE svg PUBLIC "-//W3C//DTD SVG 1.1//EN"
 "http://www.w3.org/Graphics/SVG/1.1/DTD/svg11.dtd">
<!-- Generated by graphviz version 7.1.0 (20230121.1956)
 -->
<!-- Pages: 1 -->
<svg width="314pt" height="76pt"
 viewBox="0.00 0.00 313.89 76.00" xmlns="http://www.w3.org/2000/svg" xmlns:xlink="http://www.w3.org/1999/xlink">
<g id="graph0" class="graph" transform="scale(1 1) rotate(0) translate(4 72)">
<polygon fill="white" stroke="none" points="-4,4 -4,-72 309.89,-72 309.89,4 -4,4"/>
<g id="clust2" class="cluster">
<title>clusterLeaves</title>
<polygon fill="none" stroke="black" points="187,-8 187,-60 297.89,-60 297.89,-8 187,-8"/>
</g>
<!-- nice&#45;matin&#45;328 -->
<g id="node1" class="node">
<title>nice&#45;matin&#45;328</title>
<polygon fill="none" stroke="black" points="80,-52 0,-52 0,-16 80,-16 80,-52"/>
<text text-anchor="middle" x="40" y="-30.3" font-family="Times,serif" font-size="14.00">Nice&#45;Matin</text>
</g>
<!-- var&#45;matin&#45;332 -->
<g id="node2" class="node">
<title>var&#45;matin&#45;332</title>
<ellipse fill="none" stroke="black" cx="242.45" cy="-34" rx="47.39" ry="18"/>
<text text-anchor="middle" x="242.45" y="-30.3" font-family="Times,serif" font-size="14.00">Var&#45;Matin</text>
</g>
<!-- nice&#45;matin&#45;328&#45;&gt;var&#45;matin&#45;332 -->
<g id="edge1" class="edge">
<title>nice&#45;matin&#45;328&#45;&gt;var&#45;matin&#45;332</title>
<path fill="none" stroke="black" d="M80.12,-34C109.48,-34 150.13,-34 183.29,-34"/>
<polygon fill="black" stroke="black" points="183.16,-37.5 193.16,-34 183.16,-30.5 183.16,-37.5"/>
<text text-anchor="middle" x="137.5" y="-37.8" font-family="Times,serif" font-size="14.00">possède 100%</text>
</g>
</g>
</svg>
