<?xml version="1.0" encoding="UTF-8" standalone="no"?>
<!DOCTYPE svg PUBLIC "-//W3C//DTD SVG 1.1//EN"
 "http://www.w3.org/Graphics/SVG/1.1/DTD/svg11.dtd">
<!-- Generated by graphviz version 8.1.0 (20230707.0739)
 -->
<!-- Pages: 1 -->
<svg width="316pt" height="76pt"
 viewBox="0.00 0.00 316.36 76.00" xmlns="http://www.w3.org/2000/svg" xmlns:xlink="http://www.w3.org/1999/xlink">
<g id="graph0" class="graph" transform="scale(1 1) rotate(0) translate(4 72)">
<polygon fill="white" stroke="none" points="-4,4 -4,-72 312.36,-72 312.36,4 -4,4"/>
<g id="clust2" class="cluster">
<title>clusterLeaves</title>
<polygon fill="none" stroke="black" points="185.75,-8 185.75,-60 300.36,-60 300.36,-8 185.75,-8"/>
</g>
<!-- nice&#45;matin&#45;328 -->
<g id="node1" class="node">
<title>nice&#45;matin&#45;328</title>
<polygon fill="none" stroke="black" points="79,-52 0,-52 0,-16 79,-16 79,-52"/>
<text text-anchor="middle" x="39.5" y="-28.95" font-family="Times,serif" font-size="14.00">Nice&#45;Matin</text>
</g>
<!-- var&#45;matin&#45;332 -->
<g id="node2" class="node">
<title>var&#45;matin&#45;332</title>
<ellipse fill="none" stroke="black" cx="243.05" cy="-34" rx="49.3" ry="18"/>
<text text-anchor="middle" x="243.05" y="-28.95" font-family="Times,serif" font-size="14.00">Var&#45;Matin</text>
</g>
<!-- nice&#45;matin&#45;328&#45;&gt;var&#45;matin&#45;332 -->
<g id="edge1" class="edge">
<title>nice&#45;matin&#45;328&#45;&gt;var&#45;matin&#45;332</title>
<path fill="none" stroke="black" d="M79.36,-34C108.55,-34 149.05,-34 182.34,-34"/>
<polygon fill="black" stroke="black" points="182.33,-37.5 192.33,-34 182.33,-30.5 182.33,-37.5"/>
<text text-anchor="middle" x="136.38" y="-37.2" font-family="Times,serif" font-size="14.00">possède 100%</text>
</g>
</g>
</svg>
