<?xml version="1.0" encoding="UTF-8" standalone="no"?>
<!DOCTYPE svg PUBLIC "-//W3C//DTD SVG 1.1//EN"
 "http://www.w3.org/Graphics/SVG/1.1/DTD/svg11.dtd">
<!-- Generated by graphviz version 7.1.0 (20230121.1956)
 -->
<!-- Pages: 1 -->
<svg width="636pt" height="76pt"
 viewBox="0.00 0.00 636.44 76.00" xmlns="http://www.w3.org/2000/svg" xmlns:xlink="http://www.w3.org/1999/xlink">
<g id="graph0" class="graph" transform="scale(1 1) rotate(0) translate(4 72)">
<polygon fill="white" stroke="none" points="-4,4 -4,-72 632.44,-72 632.44,4 -4,4"/>
<g id="clust2" class="cluster">
<title>clusterLeaves</title>
<polygon fill="none" stroke="black" points="471.85,-8 471.85,-60 620.44,-60 620.44,-8 471.85,-8"/>
</g>
<!-- credit&#45;mutuel&#45;207 -->
<g id="node1" class="node">
<title>credit&#45;mutuel&#45;207</title>
<polygon fill="none" stroke="black" points="94,-52 0,-52 0,-16 94,-16 94,-52"/>
<text text-anchor="middle" x="47" y="-30.3" font-family="Times,serif" font-size="14.00">Crédit Mutuel</text>
</g>
<!-- groupe&#45;ebra&#45;208 -->
<g id="node2" class="node">
<title>groupe&#45;ebra&#45;208</title>
<polygon fill="none" stroke="black" points="364.78,-39.56 286.93,-52 209.07,-39.56 209.15,-19.44 364.71,-19.44 364.78,-39.56"/>
<text text-anchor="middle" x="286.93" y="-30.3" font-family="Times,serif" font-size="14.00">Groupe EBRA</text>
</g>
<!-- credit&#45;mutuel&#45;207&#45;&gt;groupe&#45;ebra&#45;208 -->
<g id="edge2" class="edge">
<title>credit&#45;mutuel&#45;207&#45;&gt;groupe&#45;ebra&#45;208</title>
<path fill="none" stroke="black" d="M94.44,-34C123.73,-34 162.5,-34 197.49,-34"/>
<polygon fill="black" stroke="black" points="197.19,-37.5 207.19,-34 197.19,-30.5 197.19,-37.5"/>
<text text-anchor="middle" x="151.5" y="-37.8" font-family="Times,serif" font-size="14.00">possède 100%</text>
</g>
<!-- vaucluse&#45;matin&#45;218 -->
<g id="node3" class="node">
<title>vaucluse&#45;matin&#45;218</title>
<ellipse fill="none" stroke="black" cx="546.15" cy="-34" rx="66.09" ry="18"/>
<text text-anchor="middle" x="546.15" y="-30.3" font-family="Times,serif" font-size="14.00">Vaucluse Matin</text>
</g>
<!-- groupe&#45;ebra&#45;208&#45;&gt;vaucluse&#45;matin&#45;218 -->
<g id="edge1" class="edge">
<title>groupe&#45;ebra&#45;208&#45;&gt;vaucluse&#45;matin&#45;218</title>
<path fill="none" stroke="black" d="M365.1,-34C397.8,-34 435.8,-34 468.45,-34"/>
<polygon fill="black" stroke="black" points="468.24,-37.5 478.24,-34 468.24,-30.5 468.24,-37.5"/>
<text text-anchor="middle" x="422.35" y="-37.8" font-family="Times,serif" font-size="14.00">possède 100%</text>
</g>
</g>
</svg>
