<?xml version="1.0" encoding="UTF-8" standalone="no"?>
<!DOCTYPE svg PUBLIC "-//W3C//DTD SVG 1.1//EN"
 "http://www.w3.org/Graphics/SVG/1.1/DTD/svg11.dtd">
<!-- Generated by graphviz version 7.1.0 (20230121.1956)
 -->
<!-- Pages: 1 -->
<svg width="1725pt" height="1102pt"
 viewBox="0.00 0.00 1725.17 1102.00" xmlns="http://www.w3.org/2000/svg" xmlns:xlink="http://www.w3.org/1999/xlink">
<g id="graph0" class="graph" transform="scale(1 1) rotate(0) translate(4 1098)">
<polygon fill="white" stroke="none" points="-4,4 -4,-1098 1721.17,-1098 1721.17,4 -4,4"/>
<g id="clust2" class="cluster">
<title>clusterLeaves</title>
<polygon fill="none" stroke="black" points="1487.79,-8 1487.79,-1086 1709.17,-1086 1709.17,-8 1487.79,-8"/>
</g>
<!-- vincent&#45;bollore&#45;77 -->
<g id="node1" class="node">
<title>vincent&#45;bollore&#45;77</title>
<polygon fill="none" stroke="black" points="118,-75 0,-75 0,-39 118,-39 118,-75"/>
<text text-anchor="middle" x="59" y="-53.3" font-family="Times,serif" font-size="14.00">🧑‍💼Vincent Bolloré</text>
</g>
<!-- financiere&#45;de&#45;l&#45;odet&#45;78 -->
<g id="node2" class="node">
<title>financiere&#45;de&#45;l&#45;odet&#45;78</title>
<polygon fill="none" stroke="black" points="432.5,-62.56 329.83,-75 227.17,-62.56 227.26,-42.44 432.4,-42.44 432.5,-62.56"/>
<text text-anchor="middle" x="329.83" y="-53.3" font-family="Times,serif" font-size="14.00">Financière de l’Odet</text>
</g>
<!-- vincent&#45;bollore&#45;77&#45;&gt;financiere&#45;de&#45;l&#45;odet&#45;78 -->
<g id="edge1" class="edge">
<title>vincent&#45;bollore&#45;77&#45;&gt;financiere&#45;de&#45;l&#45;odet&#45;78</title>
<path fill="none" stroke="black" d="M118.33,-57C146.84,-57 182.16,-57 215.68,-57"/>
<polygon fill="black" stroke="black" points="215.45,-60.5 225.45,-57 215.45,-53.5 215.45,-60.5"/>
<text text-anchor="middle" x="172.5" y="-60.8" font-family="Times,serif" font-size="14.00">possède 49%</text>
</g>
<!-- bollore&#45;79 -->
<g id="node3" class="node">
<title>bollore&#45;79</title>
<polygon fill="none" stroke="black" points="633.04,-62.56 587.46,-75 541.87,-62.56 541.91,-42.44 633,-42.44 633.04,-62.56"/>
<text text-anchor="middle" x="587.46" y="-53.3" font-family="Times,serif" font-size="14.00">Bolloré</text>
</g>
<!-- financiere&#45;de&#45;l&#45;odet&#45;78&#45;&gt;bollore&#45;79 -->
<g id="edge2" class="edge">
<title>financiere&#45;de&#45;l&#45;odet&#45;78&#45;&gt;bollore&#45;79</title>
<path fill="none" stroke="black" d="M432.96,-57C466.09,-57 501.61,-57 530.13,-57"/>
<polygon fill="black" stroke="black" points="529.98,-60.5 539.98,-57 529.98,-53.5 529.98,-60.5"/>
<text text-anchor="middle" x="487.16" y="-60.8" font-family="Times,serif" font-size="14.00">possède 64%</text>
</g>
<!-- vivendi&#45;81 -->
<g id="node4" class="node">
<title>vivendi&#45;81</title>
<polygon fill="none" stroke="black" points="838.86,-201.56 790.45,-214 742.04,-201.56 742.09,-181.44 838.81,-181.44 838.86,-201.56"/>
<text text-anchor="middle" x="790.45" y="-192.3" font-family="Times,serif" font-size="14.00">Vivendi</text>
</g>
<!-- bollore&#45;79&#45;&gt;vivendi&#45;81 -->
<g id="edge3" class="edge">
<title>bollore&#45;79&#45;&gt;vivendi&#45;81</title>
<path fill="none" stroke="black" d="M607.36,-70.08C642.09,-94.09 716.31,-145.42 758.49,-174.59"/>
<polygon fill="black" stroke="black" points="756.27,-177.31 766.48,-180.12 760.25,-171.55 756.27,-177.31"/>
<text text-anchor="middle" x="687.75" y="-151.8" font-family="Times,serif" font-size="14.00">possède 27%</text>
</g>
<!-- france&#45;catholique&#45;345 -->
<g id="node27" class="node">
<title>france&#45;catholique&#45;345</title>
<ellipse fill="none" stroke="black" cx="1598.48" cy="-34" rx="75.29" ry="18"/>
<text text-anchor="middle" x="1598.48" y="-30.3" font-family="Times,serif" font-size="14.00">France Catholique</text>
</g>
<!-- bollore&#45;79&#45;&gt;france&#45;catholique&#45;345 -->
<g id="edge26" class="edge">
<title>bollore&#45;79&#45;&gt;france&#45;catholique&#45;345</title>
<path fill="none" stroke="black" d="M633.48,-51.36C674.16,-46.75 735.72,-41 789.45,-41 789.45,-41 789.45,-41 1296.63,-41 1369.39,-41 1452.03,-38.93 1512.26,-37.04"/>
<polygon fill="black" stroke="black" points="1512.22,-40.54 1522.1,-36.72 1512,-33.55 1512.22,-40.54"/>
<text text-anchor="middle" x="1021.56" y="-44.8" font-family="Times,serif" font-size="14.00">possède 100%</text>
</g>
<!-- lagardere&#45;sa&#45;69 -->
<g id="node5" class="node">
<title>lagardere&#45;sa&#45;69</title>
<polygon fill="none" stroke="black" points="1095.38,-675.56 1021.56,-688 947.74,-675.56 947.81,-655.44 1095.31,-655.44 1095.38,-675.56"/>
<text text-anchor="middle" x="1021.56" y="-666.3" font-family="Times,serif" font-size="14.00">Lagardère SA</text>
</g>
<!-- vivendi&#45;81&#45;&gt;lagardere&#45;sa&#45;69 -->
<g id="edge4" class="edge">
<title>vivendi&#45;81&#45;&gt;lagardere&#45;sa&#45;69</title>
<path fill="none" stroke="black" d="M794.89,-213.27C802.76,-250.91 823.96,-342.73 856.65,-414 898.49,-505.2 968.59,-602.13 1001.9,-645.98"/>
<polygon fill="black" stroke="black" points="999.02,-647.98 1007.87,-653.8 1004.58,-643.73 999.02,-647.98"/>
<text text-anchor="middle" x="893.15" y="-540.8" font-family="Times,serif" font-size="14.00">possède 27%</text>
</g>
<!-- prisma&#45;media&#45;106 -->
<g id="node7" class="node">
<title>prisma&#45;media&#45;106</title>
<polygon fill="none" stroke="black" points="1371.16,-525.56 1295.63,-538 1220.1,-525.56 1220.17,-505.44 1371.09,-505.44 1371.16,-525.56"/>
<text text-anchor="middle" x="1295.63" y="-516.3" font-family="Times,serif" font-size="14.00">Prisma Media</text>
</g>
<!-- vivendi&#45;81&#45;&gt;prisma&#45;media&#45;106 -->
<g id="edge15" class="edge">
<title>vivendi&#45;81&#45;&gt;prisma&#45;media&#45;106</title>
<path fill="none" stroke="black" d="M805.23,-210.22C817.95,-222.97 837.7,-241.79 856.65,-256 995.19,-359.83 1176.79,-458.65 1255.47,-499.86"/>
<polygon fill="black" stroke="black" points="1253.61,-502.83 1264.09,-504.35 1256.84,-496.63 1253.61,-502.83"/>
<text text-anchor="middle" x="1021.56" y="-410.8" font-family="Times,serif" font-size="14.00">possède 100%</text>
</g>
<!-- c8&#45;83 -->
<g id="node13" class="node">
<title>c8&#45;83</title>
<ellipse fill="none" stroke="black" cx="1598.48" cy="-250" rx="27" ry="18"/>
<text text-anchor="middle" x="1598.48" y="-246.3" font-family="Times,serif" font-size="14.00">C8</text>
</g>
<!-- vivendi&#45;81&#45;&gt;c8&#45;83 -->
<g id="edge11" class="edge">
<title>vivendi&#45;81&#45;&gt;c8&#45;83</title>
<path fill="none" stroke="black" d="M827.83,-204.87C837.17,-206.86 847.24,-208.74 856.65,-210 1124.3,-245.73 1450.4,-249.77 1559.73,-250.06"/>
<polygon fill="black" stroke="black" points="1559.57,-253.55 1569.58,-250.07 1559.59,-246.55 1559.57,-253.55"/>
<text text-anchor="middle" x="1152.97" y="-242.8" font-family="Times,serif" font-size="14.00">possède 100%</text>
</g>
<!-- canal&#45;82 -->
<g id="node14" class="node">
<title>canal&#45;82</title>
<ellipse fill="none" stroke="black" cx="1598.48" cy="-196" rx="38.99" ry="18"/>
<text text-anchor="middle" x="1598.48" y="-192.3" font-family="Times,serif" font-size="14.00">Canal +</text>
</g>
<!-- vivendi&#45;81&#45;&gt;canal&#45;82 -->
<g id="edge12" class="edge">
<title>vivendi&#45;81&#45;&gt;canal&#45;82</title>
<path fill="none" stroke="black" d="M839.16,-196C981.73,-196 1403.65,-196 1548.22,-196"/>
<polygon fill="black" stroke="black" points="1547.83,-199.5 1557.83,-196 1547.83,-192.5 1547.83,-199.5"/>
<text text-anchor="middle" x="1152.97" y="-199.8" font-family="Times,serif" font-size="14.00">possède 100%</text>
</g>
<!-- cnews&#45;80 -->
<g id="node15" class="node">
<title>cnews&#45;80</title>
<ellipse fill="none" stroke="black" cx="1598.48" cy="-142" rx="36.29" ry="18"/>
<text text-anchor="middle" x="1598.48" y="-138.3" font-family="Times,serif" font-size="14.00">CNews</text>
</g>
<!-- vivendi&#45;81&#45;&gt;cnews&#45;80 -->
<g id="edge13" class="edge">
<title>vivendi&#45;81&#45;&gt;cnews&#45;80</title>
<path fill="none" stroke="black" d="M839.16,-192.8C982.58,-183.2 1408.66,-154.65 1550.76,-145.13"/>
<polygon fill="black" stroke="black" points="1550.81,-148.63 1560.55,-144.47 1550.34,-141.65 1550.81,-148.63"/>
<text text-anchor="middle" x="1152.97" y="-176.8" font-family="Times,serif" font-size="14.00">possède 100%</text>
</g>
<!-- cstar&#45;85 -->
<g id="node16" class="node">
<title>cstar&#45;85</title>
<ellipse fill="none" stroke="black" cx="1598.48" cy="-88" rx="30.59" ry="18"/>
<text text-anchor="middle" x="1598.48" y="-84.3" font-family="Times,serif" font-size="14.00">CStar</text>
</g>
<!-- vivendi&#45;81&#45;&gt;cstar&#45;85 -->
<g id="edge14" class="edge">
<title>vivendi&#45;81&#45;&gt;cstar&#45;85</title>
<path fill="none" stroke="black" d="M839.08,-185.28C844.98,-184.1 850.95,-182.97 856.65,-182 1122.08,-136.75 1444.42,-103.05 1556.64,-91.95"/>
<polygon fill="black" stroke="black" points="1556.94,-95.43 1566.55,-90.97 1556.25,-88.47 1556.94,-95.43"/>
<text text-anchor="middle" x="1152.97" y="-147.8" font-family="Times,serif" font-size="14.00">possède 100%</text>
</g>
<!-- lagardere&#45;news&#45;70 -->
<g id="node6" class="node">
<title>lagardere&#45;news&#45;70</title>
<polygon fill="none" stroke="black" points="1380.95,-930.56 1295.63,-943 1210.32,-930.56 1210.4,-910.44 1380.87,-910.44 1380.95,-930.56"/>
<text text-anchor="middle" x="1295.63" y="-921.3" font-family="Times,serif" font-size="14.00">Lagardère News</text>
</g>
<!-- lagardere&#45;sa&#45;69&#45;&gt;lagardere&#45;news&#45;70 -->
<g id="edge5" class="edge">
<title>lagardere&#45;sa&#45;69&#45;&gt;lagardere&#45;news&#45;70</title>
<path fill="none" stroke="black" d="M1038.77,-685.19C1084.71,-728.25 1216.02,-851.33 1270.5,-902.38"/>
<polygon fill="black" stroke="black" points="1268.06,-904.89 1277.75,-909.18 1272.85,-899.78 1268.06,-904.89"/>
<text text-anchor="middle" x="1152.97" y="-830.8" font-family="Times,serif" font-size="14.00">possède 100%</text>
</g>
<!-- europe&#45;1&#45;74 -->
<g id="node8" class="node">
<title>europe&#45;1&#45;74</title>
<ellipse fill="none" stroke="black" cx="1598.48" cy="-1060" rx="42.79" ry="18"/>
<text text-anchor="middle" x="1598.48" y="-1056.3" font-family="Times,serif" font-size="14.00">Europe 1</text>
</g>
<!-- lagardere&#45;news&#45;70&#45;&gt;europe&#45;1&#45;74 -->
<g id="edge6" class="edge">
<title>lagardere&#45;news&#45;70&#45;&gt;europe&#45;1&#45;74</title>
<path fill="none" stroke="black" d="M1315.72,-940.48C1335.62,-956.11 1368.12,-980.28 1398.79,-997 1436.25,-1017.42 1447.19,-1019.87 1487.79,-1033 1507.35,-1039.33 1529.29,-1045 1548.37,-1049.49"/>
<polygon fill="black" stroke="black" points="1547.53,-1052.89 1558.06,-1051.73 1549.1,-1046.07 1547.53,-1052.89"/>
<text text-anchor="middle" x="1438.29" y="-1032.8" font-family="Times,serif" font-size="14.00">possède 100%</text>
</g>
<!-- le&#45;journal&#45;du&#45;dimanche&#45;71 -->
<g id="node9" class="node">
<title>le&#45;journal&#45;du&#45;dimanche&#45;71</title>
<ellipse fill="none" stroke="black" cx="1598.48" cy="-1006" rx="96.68" ry="18"/>
<text text-anchor="middle" x="1598.48" y="-1002.3" font-family="Times,serif" font-size="14.00">Le Journal du dimanche</text>
</g>
<!-- lagardere&#45;news&#45;70&#45;&gt;le&#45;journal&#45;du&#45;dimanche&#45;71 -->
<g id="edge7" class="edge">
<title>lagardere&#45;news&#45;70&#45;&gt;le&#45;journal&#45;du&#45;dimanche&#45;71</title>
<path fill="none" stroke="black" d="M1332.79,-937.91C1352.23,-944.62 1376.67,-952.72 1398.79,-959 1439.44,-970.55 1485.33,-981.54 1522.75,-989.98"/>
<polygon fill="black" stroke="black" points="1521.57,-993.3 1532.1,-992.07 1523.1,-986.47 1521.57,-993.3"/>
<text text-anchor="middle" x="1438.29" y="-981.8" font-family="Times,serif" font-size="14.00">possède 100%</text>
</g>
<!-- paris&#45;match&#45;72 -->
<g id="node10" class="node">
<title>paris&#45;match&#45;72</title>
<ellipse fill="none" stroke="black" cx="1598.48" cy="-952" rx="53.89" ry="18"/>
<text text-anchor="middle" x="1598.48" y="-948.3" font-family="Times,serif" font-size="14.00">Paris Match</text>
</g>
<!-- lagardere&#45;news&#45;70&#45;&gt;paris&#45;match&#45;72 -->
<g id="edge8" class="edge">
<title>lagardere&#45;news&#45;70&#45;&gt;paris&#45;match&#45;72</title>
<path fill="none" stroke="black" d="M1374.5,-931.99C1424.25,-936.45 1487.93,-942.17 1534.5,-946.35"/>
<polygon fill="black" stroke="black" points="1534.16,-949.83 1544.44,-947.24 1534.79,-942.86 1534.16,-949.83"/>
<text text-anchor="middle" x="1438.29" y="-943.8" font-family="Times,serif" font-size="14.00">possède 100%</text>
</g>
<!-- rfm&#45;75 -->
<g id="node11" class="node">
<title>rfm&#45;75</title>
<ellipse fill="none" stroke="black" cx="1598.48" cy="-898" rx="29.8" ry="18"/>
<text text-anchor="middle" x="1598.48" y="-894.3" font-family="Times,serif" font-size="14.00">RFM</text>
</g>
<!-- lagardere&#45;news&#45;70&#45;&gt;rfm&#45;75 -->
<g id="edge9" class="edge">
<title>lagardere&#45;news&#45;70&#45;&gt;rfm&#45;75</title>
<path fill="none" stroke="black" d="M1381.36,-916.63C1387.25,-916.07 1393.11,-915.52 1398.79,-915 1453.58,-909.97 1516.92,-904.64 1557.08,-901.31"/>
<polygon fill="black" stroke="black" points="1557.33,-904.8 1567,-900.49 1556.75,-897.83 1557.33,-904.8"/>
<text text-anchor="middle" x="1438.29" y="-918.8" font-family="Times,serif" font-size="14.00">possède 100%</text>
</g>
<!-- virgin&#45;radio&#45;76 -->
<g id="node12" class="node">
<title>virgin&#45;radio&#45;76</title>
<ellipse fill="none" stroke="black" cx="1598.48" cy="-844" rx="57.39" ry="18"/>
<text text-anchor="middle" x="1598.48" y="-840.3" font-family="Times,serif" font-size="14.00">Virgin Radio</text>
</g>
<!-- lagardere&#45;news&#45;70&#45;&gt;virgin&#45;radio&#45;76 -->
<g id="edge10" class="edge">
<title>lagardere&#45;news&#45;70&#45;&gt;virgin&#45;radio&#45;76</title>
<path fill="none" stroke="black" d="M1335.58,-910.08C1354.49,-903.14 1377.65,-895.1 1398.79,-889 1444.97,-875.68 1498.12,-863.82 1537.82,-855.62"/>
<polygon fill="black" stroke="black" points="1538.32,-859.09 1547.42,-853.66 1536.92,-852.24 1538.32,-859.09"/>
<text text-anchor="middle" x="1438.29" y="-892.8" font-family="Times,serif" font-size="14.00">possède 100%</text>
</g>
<!-- capital&#45;107 -->
<g id="node17" class="node">
<title>capital&#45;107</title>
<ellipse fill="none" stroke="black" cx="1598.48" cy="-790" rx="36.29" ry="18"/>
<text text-anchor="middle" x="1598.48" y="-786.3" font-family="Times,serif" font-size="14.00">Capital</text>
</g>
<!-- prisma&#45;media&#45;106&#45;&gt;capital&#45;107 -->
<g id="edge16" class="edge">
<title>prisma&#45;media&#45;106&#45;&gt;capital&#45;107</title>
<path fill="none" stroke="black" d="M1300.46,-537.63C1310.01,-577.51 1338.57,-675.39 1398.79,-730 1440.93,-768.22 1506.67,-782.12 1550.87,-787.16"/>
<polygon fill="black" stroke="black" points="1550.36,-790.62 1560.66,-788.15 1551.07,-783.66 1550.36,-790.62"/>
<text text-anchor="middle" x="1438.29" y="-775.8" font-family="Times,serif" font-size="14.00">possède 100%</text>
</g>
<!-- harvard&#45;business&#45;review&#45;109 -->
<g id="node18" class="node">
<title>harvard&#45;business&#45;review&#45;109</title>
<ellipse fill="none" stroke="black" cx="1598.48" cy="-736" rx="102.88" ry="18"/>
<text text-anchor="middle" x="1598.48" y="-732.3" font-family="Times,serif" font-size="14.00">Harvard Business Review</text>
</g>
<!-- prisma&#45;media&#45;106&#45;&gt;harvard&#45;business&#45;review&#45;109 -->
<g id="edge17" class="edge">
<title>prisma&#45;media&#45;106&#45;&gt;harvard&#45;business&#45;review&#45;109</title>
<path fill="none" stroke="black" d="M1304.03,-536.82C1318.24,-567.41 1352.15,-632.53 1398.79,-671 1429.75,-696.54 1471.04,-712.14 1507.95,-721.63"/>
<polygon fill="black" stroke="black" points="1506.73,-724.93 1517.27,-723.91 1508.39,-718.13 1506.73,-724.93"/>
<text text-anchor="middle" x="1438.29" y="-714.8" font-family="Times,serif" font-size="14.00">possède 100%</text>
</g>
<!-- management&#45;108 -->
<g id="node19" class="node">
<title>management&#45;108</title>
<ellipse fill="none" stroke="black" cx="1598.48" cy="-682" rx="57.69" ry="18"/>
<text text-anchor="middle" x="1598.48" y="-678.3" font-family="Times,serif" font-size="14.00">Management</text>
</g>
<!-- prisma&#45;media&#45;106&#45;&gt;management&#45;108 -->
<g id="edge18" class="edge">
<title>prisma&#45;media&#45;106&#45;&gt;management&#45;108</title>
<path fill="none" stroke="black" d="M1310.48,-536.06C1328.96,-556.7 1363.45,-592.66 1398.79,-616 1440.74,-643.71 1495.36,-660.74 1536.72,-670.55"/>
<polygon fill="black" stroke="black" points="1535.73,-673.91 1546.26,-672.73 1537.29,-667.09 1535.73,-673.91"/>
<text text-anchor="middle" x="1438.29" y="-655.8" font-family="Times,serif" font-size="14.00">possède 100%</text>
</g>
<!-- tele&#45;loisirs&#45;335 -->
<g id="node20" class="node">
<title>tele&#45;loisirs&#45;335</title>
<ellipse fill="none" stroke="black" cx="1598.48" cy="-628" rx="53.89" ry="18"/>
<text text-anchor="middle" x="1598.48" y="-624.3" font-family="Times,serif" font-size="14.00">Télé&#45;Loisirs</text>
</g>
<!-- prisma&#45;media&#45;106&#45;&gt;tele&#45;loisirs&#45;335 -->
<g id="edge19" class="edge">
<title>prisma&#45;media&#45;106&#45;&gt;tele&#45;loisirs&#45;335</title>
<path fill="none" stroke="black" d="M1322.2,-534C1342.6,-544.86 1372.07,-559.89 1398.79,-571 1445.58,-590.46 1501.21,-605.79 1541.69,-615.63"/>
<polygon fill="black" stroke="black" points="1540.68,-618.99 1551.22,-617.91 1542.3,-612.18 1540.68,-618.99"/>
<text text-anchor="middle" x="1438.29" y="-600.8" font-family="Times,serif" font-size="14.00">possède 100%</text>
</g>
<!-- gala&#45;336 -->
<g id="node21" class="node">
<title>gala&#45;336</title>
<ellipse fill="none" stroke="black" cx="1598.48" cy="-574" rx="27.1" ry="18"/>
<text text-anchor="middle" x="1598.48" y="-570.3" font-family="Times,serif" font-size="14.00">Gala</text>
</g>
<!-- prisma&#45;media&#45;106&#45;&gt;gala&#45;336 -->
<g id="edge20" class="edge">
<title>prisma&#45;media&#45;106&#45;&gt;gala&#45;336</title>
<path fill="none" stroke="black" d="M1348.58,-529.76C1364.67,-532.76 1382.46,-536.04 1398.79,-539 1455.13,-549.2 1520.54,-560.65 1560.46,-567.59"/>
<polygon fill="black" stroke="black" points="1559.8,-571.03 1570.25,-569.29 1561,-564.13 1559.8,-571.03"/>
<text text-anchor="middle" x="1438.29" y="-555.8" font-family="Times,serif" font-size="14.00">possède 100%</text>
</g>
<!-- voici&#45;337 -->
<g id="node22" class="node">
<title>voici&#45;337</title>
<ellipse fill="none" stroke="black" cx="1598.48" cy="-520" rx="29.5" ry="18"/>
<text text-anchor="middle" x="1598.48" y="-516.3" font-family="Times,serif" font-size="14.00">Voici</text>
</g>
<!-- prisma&#45;media&#45;106&#45;&gt;voici&#45;337 -->
<g id="edge21" class="edge">
<title>prisma&#45;media&#45;106&#45;&gt;voici&#45;337</title>
<path fill="none" stroke="black" d="M1371.38,-520C1430.26,-520 1510.05,-520 1557.41,-520"/>
<polygon fill="black" stroke="black" points="1557.2,-523.5 1567.2,-520 1557.2,-516.5 1557.2,-523.5"/>
<text text-anchor="middle" x="1438.29" y="-523.8" font-family="Times,serif" font-size="14.00">possède 100%</text>
</g>
<!-- femme&#45;actuelle&#45;338 -->
<g id="node23" class="node">
<title>femme&#45;actuelle&#45;338</title>
<ellipse fill="none" stroke="black" cx="1598.48" cy="-466" rx="69.59" ry="18"/>
<text text-anchor="middle" x="1598.48" y="-462.3" font-family="Times,serif" font-size="14.00">Femme Actuelle</text>
</g>
<!-- prisma&#45;media&#45;106&#45;&gt;femme&#45;actuelle&#45;338 -->
<g id="edge22" class="edge">
<title>prisma&#45;media&#45;106&#45;&gt;femme&#45;actuelle&#45;338</title>
<path fill="none" stroke="black" d="M1371.38,-506.01C1380.61,-504.31 1389.91,-502.61 1398.79,-501 1441.92,-493.19 1490.37,-484.65 1528.62,-477.96"/>
<polygon fill="black" stroke="black" points="1528.9,-481.47 1538.15,-476.3 1527.69,-474.57 1528.9,-481.47"/>
<text text-anchor="middle" x="1438.29" y="-504.8" font-family="Times,serif" font-size="14.00">possède 100%</text>
</g>
<!-- national&#45;geographic&#45;339 -->
<g id="node24" class="node">
<title>national&#45;geographic&#45;339</title>
<ellipse fill="none" stroke="black" cx="1598.48" cy="-412" rx="84.49" ry="18"/>
<text text-anchor="middle" x="1598.48" y="-408.3" font-family="Times,serif" font-size="14.00">National Geographic</text>
</g>
<!-- prisma&#45;media&#45;106&#45;&gt;national&#45;geographic&#45;339 -->
<g id="edge23" class="edge">
<title>prisma&#45;media&#45;106&#45;&gt;national&#45;geographic&#45;339</title>
<path fill="none" stroke="black" d="M1322.98,-505.15C1343.3,-494.05 1372.31,-478.97 1398.79,-468 1440.07,-450.89 1488.28,-437.16 1526.87,-427.58"/>
<polygon fill="black" stroke="black" points="1527.64,-430.99 1536.53,-425.22 1525.98,-424.19 1527.64,-430.99"/>
<text text-anchor="middle" x="1438.29" y="-471.8" font-family="Times,serif" font-size="14.00">possède 100%</text>
</g>
<!-- geo&#45;340 -->
<g id="node25" class="node">
<title>geo&#45;340</title>
<ellipse fill="none" stroke="black" cx="1598.48" cy="-358" rx="27" ry="18"/>
<text text-anchor="middle" x="1598.48" y="-354.3" font-family="Times,serif" font-size="14.00">Geo</text>
</g>
<!-- prisma&#45;media&#45;106&#45;&gt;geo&#45;340 -->
<g id="edge24" class="edge">
<title>prisma&#45;media&#45;106&#45;&gt;geo&#45;340</title>
<path fill="none" stroke="black" d="M1308.81,-505.27C1326.7,-484.4 1361.97,-446.08 1398.79,-422 1449.41,-388.88 1518.49,-371.74 1560.43,-363.83"/>
<polygon fill="black" stroke="black" points="1561.05,-367.27 1570.27,-362.06 1559.81,-360.38 1561.05,-367.27"/>
<text text-anchor="middle" x="1438.29" y="-425.8" font-family="Times,serif" font-size="14.00">possède 100%</text>
</g>
<!-- neon&#45;347 -->
<g id="node26" class="node">
<title>neon&#45;347</title>
<ellipse fill="none" stroke="black" cx="1598.48" cy="-304" rx="29.8" ry="18"/>
<text text-anchor="middle" x="1598.48" y="-300.3" font-family="Times,serif" font-size="14.00">Néon</text>
</g>
<!-- prisma&#45;media&#45;106&#45;&gt;neon&#45;347 -->
<g id="edge25" class="edge">
<title>prisma&#45;media&#45;106&#45;&gt;neon&#45;347</title>
<path fill="none" stroke="black" d="M1302.78,-505.1C1315.98,-474.8 1349.89,-405.54 1398.79,-366 1445.12,-328.54 1514.19,-313.62 1557.49,-307.74"/>
<polygon fill="black" stroke="black" points="1557.72,-311.23 1567.21,-306.52 1556.86,-304.29 1557.72,-311.23"/>
<text text-anchor="middle" x="1438.29" y="-369.8" font-family="Times,serif" font-size="14.00">possède 100%</text>
</g>
</g>
</svg>
