<?xml version="1.0" encoding="UTF-8" standalone="no"?>
<!DOCTYPE svg PUBLIC "-//W3C//DTD SVG 1.1//EN"
 "http://www.w3.org/Graphics/SVG/1.1/DTD/svg11.dtd">
<!-- Generated by graphviz version 8.1.0 (20230707.0739)
 -->
<!-- Pages: 1 -->
<svg width="1761pt" height="1102pt"
 viewBox="0.00 0.00 1760.58 1102.00" xmlns="http://www.w3.org/2000/svg" xmlns:xlink="http://www.w3.org/1999/xlink">
<g id="graph0" class="graph" transform="scale(1 1) rotate(0) translate(4 1098)">
<polygon fill="white" stroke="none" points="-4,4 -4,-1098 1756.58,-1098 1756.58,4 -4,4"/>
<g id="clust2" class="cluster">
<title>clusterLeaves</title>
<polygon fill="none" stroke="black" points="1514.3,-8 1514.3,-1086 1744.58,-1086 1744.58,-8 1514.3,-8"/>
</g>
<!-- vincent&#45;bollore&#45;77 -->
<g id="node1" class="node">
<title>vincent&#45;bollore&#45;77</title>
<polygon fill="none" stroke="black" points="117.25,-76 0,-76 0,-40 117.25,-40 117.25,-76"/>
<text text-anchor="middle" x="58.62" y="-54.08" font-family="Times,serif" font-size="14.00">🧑‍💼Vincent Bolloré</text>
</g>
<!-- financiere&#45;de&#45;l&#45;odet&#45;78 -->
<g id="node2" class="node">
<title>financiere&#45;de&#45;l&#45;odet&#45;78</title>
<polygon fill="none" stroke="black" points="440.77,-63.56 333.01,-76 225.25,-63.56 225.35,-43.44 440.67,-43.44 440.77,-63.56"/>
<text text-anchor="middle" x="333.01" y="-52.95" font-family="Times,serif" font-size="14.00">Financière de l’Odet</text>
</g>
<!-- vincent&#45;bollore&#45;77&#45;&gt;financiere&#45;de&#45;l&#45;odet&#45;78 -->
<g id="edge1" class="edge">
<title>vincent&#45;bollore&#45;77&#45;&gt;financiere&#45;de&#45;l&#45;odet&#45;78</title>
<path fill="none" stroke="black" d="M117.72,-58C145.85,-58 180.69,-58 214.04,-58"/>
<polygon fill="black" stroke="black" points="213.81,-61.5 223.81,-58 213.81,-54.5 213.81,-61.5"/>
<text text-anchor="middle" x="171.25" y="-61.2" font-family="Times,serif" font-size="14.00">possède 49%</text>
</g>
<!-- bollore&#45;79 -->
<g id="node3" class="node">
<title>bollore&#45;79</title>
<polygon fill="none" stroke="black" points="644.08,-63.56 596.42,-76 548.77,-63.56 548.81,-43.44 644.04,-43.44 644.08,-63.56"/>
<text text-anchor="middle" x="596.42" y="-52.95" font-family="Times,serif" font-size="14.00">Bolloré</text>
</g>
<!-- financiere&#45;de&#45;l&#45;odet&#45;78&#45;&gt;bollore&#45;79 -->
<g id="edge2" class="edge">
<title>financiere&#45;de&#45;l&#45;odet&#45;78&#45;&gt;bollore&#45;79</title>
<path fill="none" stroke="black" d="M441.09,-58C474.08,-58 509.14,-58 537.5,-58"/>
<polygon fill="black" stroke="black" points="537.41,-61.5 547.41,-58 537.41,-54.5 537.41,-61.5"/>
<text text-anchor="middle" x="494.77" y="-61.2" font-family="Times,serif" font-size="14.00">possède 64%</text>
</g>
<!-- vivendi&#45;81 -->
<g id="node4" class="node">
<title>vivendi&#45;81</title>
<polygon fill="none" stroke="black" points="852.46,-201.56 802.27,-214 752.08,-201.56 752.13,-181.44 852.41,-181.44 852.46,-201.56"/>
<text text-anchor="middle" x="802.27" y="-190.95" font-family="Times,serif" font-size="14.00">Vivendi</text>
</g>
<!-- bollore&#45;79&#45;&gt;vivendi&#45;81 -->
<g id="edge3" class="edge">
<title>bollore&#45;79&#45;&gt;vivendi&#45;81</title>
<path fill="none" stroke="black" d="M616.6,-70.98C651.89,-94.87 727.41,-146 770.14,-174.92"/>
<polygon fill="black" stroke="black" points="768,-178.38 778.24,-181.08 771.92,-172.58 768,-178.38"/>
<text text-anchor="middle" x="698.08" y="-151.2" font-family="Times,serif" font-size="14.00">possède 27%</text>
</g>
<!-- france&#45;catholique&#45;345 -->
<g id="node27" class="node">
<title>france&#45;catholique&#45;345</title>
<ellipse fill="none" stroke="black" cx="1629.44" cy="-34" rx="78.99" ry="18"/>
<text text-anchor="middle" x="1629.44" y="-28.95" font-family="Times,serif" font-size="14.00">France Catholique</text>
</g>
<!-- bollore&#45;79&#45;&gt;france&#45;catholique&#45;345 -->
<g id="edge26" class="edge">
<title>bollore&#45;79&#45;&gt;france&#45;catholique&#45;345</title>
<path fill="none" stroke="black" d="M644.3,-52.22C685.57,-47.64 747.31,-42 801.27,-42 801.27,-42 801.27,-42 1319.77,-42 1394.24,-42 1478.77,-39.64 1540.52,-37.49"/>
<polygon fill="black" stroke="black" points="1540.52,-40.96 1550.39,-37.1 1540.27,-33.96 1540.52,-40.96"/>
<text text-anchor="middle" x="1037.85" y="-45.2" font-family="Times,serif" font-size="14.00">possède 100%</text>
</g>
<!-- lagardere&#45;sa&#45;69 -->
<g id="node5" class="node">
<title>lagardere&#45;sa&#45;69</title>
<polygon fill="none" stroke="black" points="1115.24,-682.56 1037.85,-695 960.46,-682.56 960.53,-662.44 1115.17,-662.44 1115.24,-682.56"/>
<text text-anchor="middle" x="1037.85" y="-671.95" font-family="Times,serif" font-size="14.00">Lagardère SA</text>
</g>
<!-- vivendi&#45;81&#45;&gt;lagardere&#45;sa&#45;69 -->
<g id="edge4" class="edge">
<title>vivendi&#45;81&#45;&gt;lagardere&#45;sa&#45;69</title>
<path fill="none" stroke="black" d="M806.79,-213.3C814.9,-251.45 836.87,-345.24 870.46,-418 913.33,-510.87 985.1,-609.64 1018.6,-653.58"/>
<polygon fill="black" stroke="black" points="1016.27,-655.3 1025.14,-661.1 1021.82,-651.04 1016.27,-655.3"/>
<text text-anchor="middle" x="906.46" y="-545.2" font-family="Times,serif" font-size="14.00">possède 57%</text>
</g>
<!-- prisma&#45;media&#45;106 -->
<g id="node7" class="node">
<title>prisma&#45;media&#45;106</title>
<polygon fill="none" stroke="black" points="1397.43,-525.56 1318.77,-538 1240.11,-525.56 1240.19,-505.44 1397.36,-505.44 1397.43,-525.56"/>
<text text-anchor="middle" x="1318.77" y="-514.95" font-family="Times,serif" font-size="14.00">Prisma Media</text>
</g>
<!-- vivendi&#45;81&#45;&gt;prisma&#45;media&#45;106 -->
<g id="edge15" class="edge">
<title>vivendi&#45;81&#45;&gt;prisma&#45;media&#45;106</title>
<path fill="none" stroke="black" d="M817.46,-210.49C830.57,-223.47 850.92,-242.62 870.46,-257 1012.07,-361.19 1197.72,-459.37 1277.97,-500.15"/>
<polygon fill="black" stroke="black" points="1276.18,-503.67 1286.68,-505.06 1279.34,-497.42 1276.18,-503.67"/>
<text text-anchor="middle" x="1037.85" y="-415.2" font-family="Times,serif" font-size="14.00">possède 100%</text>
</g>
<!-- c8&#45;83 -->
<g id="node13" class="node">
<title>c8&#45;83</title>
<ellipse fill="none" stroke="black" cx="1629.44" cy="-250" rx="27" ry="18"/>
<text text-anchor="middle" x="1629.44" y="-244.95" font-family="Times,serif" font-size="14.00">C8</text>
</g>
<!-- vivendi&#45;81&#45;&gt;c8&#45;83 -->
<g id="edge11" class="edge">
<title>vivendi&#45;81&#45;&gt;c8&#45;83</title>
<path fill="none" stroke="black" d="M840.77,-204.87C850.39,-206.85 860.77,-208.74 870.46,-210 1145.61,-245.71 1480.88,-249.74 1591.26,-250.04"/>
<polygon fill="black" stroke="black" points="1591.12,-253.54 1601.13,-250.06 1591.13,-246.54 1591.12,-253.54"/>
<text text-anchor="middle" x="1172.62" y="-242.2" font-family="Times,serif" font-size="14.00">possède 100%</text>
</g>
<!-- canal&#45;82 -->
<g id="node14" class="node">
<title>canal&#45;82</title>
<ellipse fill="none" stroke="black" cx="1629.44" cy="-196" rx="40.6" ry="18"/>
<text text-anchor="middle" x="1629.44" y="-190.95" font-family="Times,serif" font-size="14.00">Canal +</text>
</g>
<!-- vivendi&#45;81&#45;&gt;canal&#45;82 -->
<g id="edge12" class="edge">
<title>vivendi&#45;81&#45;&gt;canal&#45;82</title>
<path fill="none" stroke="black" d="M852.72,-196C999.26,-196 1430.16,-196 1577.99,-196"/>
<polygon fill="black" stroke="black" points="1577.54,-199.5 1587.54,-196 1577.54,-192.5 1577.54,-199.5"/>
<text text-anchor="middle" x="1172.62" y="-199.2" font-family="Times,serif" font-size="14.00">possède 100%</text>
</g>
<!-- cnews&#45;84 -->
<g id="node15" class="node">
<title>cnews&#45;84</title>
<ellipse fill="none" stroke="black" cx="1629.44" cy="-142" rx="38.04" ry="18"/>
<text text-anchor="middle" x="1629.44" y="-136.95" font-family="Times,serif" font-size="14.00">CNews</text>
</g>
<!-- vivendi&#45;81&#45;&gt;cnews&#45;84 -->
<g id="edge13" class="edge">
<title>vivendi&#45;81&#45;&gt;cnews&#45;84</title>
<path fill="none" stroke="black" d="M852.72,-192.76C1000.13,-183.12 1435.29,-154.64 1580.59,-145.13"/>
<polygon fill="black" stroke="black" points="1580.59,-148.57 1590.35,-144.43 1580.14,-141.59 1580.59,-148.57"/>
<text text-anchor="middle" x="1172.62" y="-176.2" font-family="Times,serif" font-size="14.00">possède 100%</text>
</g>
<!-- cstar&#45;85 -->
<g id="node16" class="node">
<title>cstar&#45;85</title>
<ellipse fill="none" stroke="black" cx="1629.44" cy="-88" rx="31.9" ry="18"/>
<text text-anchor="middle" x="1629.44" y="-82.95" font-family="Times,serif" font-size="14.00">CStar</text>
</g>
<!-- vivendi&#45;81&#45;&gt;cstar&#45;85 -->
<g id="edge14" class="edge">
<title>vivendi&#45;81&#45;&gt;cstar&#45;85</title>
<path fill="none" stroke="black" d="M852.75,-186.09C858.71,-184.99 864.71,-183.94 870.46,-183 910.29,-176.5 920.45,-176.27 960.46,-171 1037.24,-160.88 1056.41,-158.2 1133.24,-148.5 1301.42,-127.28 1501.88,-103.14 1586.97,-92.95"/>
<polygon fill="black" stroke="black" points="1587.2,-96.33 1596.72,-91.67 1586.37,-89.38 1587.2,-96.33"/>
<text text-anchor="middle" x="1172.62" y="-152.2" font-family="Times,serif" font-size="14.00">possède 100%</text>
</g>
<!-- lagardere&#45;news&#45;70 -->
<g id="node6" class="node">
<title>lagardere&#45;news&#45;70</title>
<polygon fill="none" stroke="black" points="1407.55,-929.56 1318.77,-942 1229.99,-929.56 1230.08,-909.44 1407.47,-909.44 1407.55,-929.56"/>
<text text-anchor="middle" x="1318.77" y="-918.95" font-family="Times,serif" font-size="14.00">Lagardère News</text>
</g>
<!-- lagardere&#45;sa&#45;69&#45;&gt;lagardere&#45;news&#45;70 -->
<g id="edge5" class="edge">
<title>lagardere&#45;sa&#45;69&#45;&gt;lagardere&#45;news&#45;70</title>
<path fill="none" stroke="black" d="M1056.3,-692.45C1104.17,-734.84 1237.69,-853.08 1293.14,-902.19"/>
<polygon fill="black" stroke="black" points="1290.23,-904.17 1300.04,-908.18 1294.87,-898.93 1290.23,-904.17"/>
<text text-anchor="middle" x="1172.62" y="-832.2" font-family="Times,serif" font-size="14.00">possède 100%</text>
</g>
<!-- europe&#45;1&#45;74 -->
<g id="node8" class="node">
<title>europe&#45;1&#45;74</title>
<ellipse fill="none" stroke="black" cx="1629.44" cy="-1060" rx="44.7" ry="18"/>
<text text-anchor="middle" x="1629.44" y="-1054.95" font-family="Times,serif" font-size="14.00">Europe 1</text>
</g>
<!-- lagardere&#45;news&#45;70&#45;&gt;europe&#45;1&#45;74 -->
<g id="edge6" class="edge">
<title>lagardere&#45;news&#45;70&#45;&gt;europe&#45;1&#45;74</title>
<path fill="none" stroke="black" d="M1337.82,-939.61C1358.07,-956.53 1392.44,-983.44 1425.55,-1001 1473.85,-1026.61 1534.67,-1042.4 1577.07,-1051.12"/>
<polygon fill="black" stroke="black" points="1576.21,-1054.72 1586.7,-1053.24 1577.58,-1047.85 1576.21,-1054.72"/>
<text text-anchor="middle" x="1464.93" y="-1034.2" font-family="Times,serif" font-size="14.00">possède 100%</text>
</g>
<!-- le&#45;journal&#45;du&#45;dimanche&#45;71 -->
<g id="node9" class="node">
<title>le&#45;journal&#45;du&#45;dimanche&#45;71</title>
<ellipse fill="none" stroke="black" cx="1629.44" cy="-1006" rx="101" ry="18"/>
<text text-anchor="middle" x="1629.44" y="-1000.95" font-family="Times,serif" font-size="14.00">Le Journal du dimanche</text>
</g>
<!-- lagardere&#45;news&#45;70&#45;&gt;le&#45;journal&#45;du&#45;dimanche&#45;71 -->
<g id="edge7" class="edge">
<title>lagardere&#45;news&#45;70&#45;&gt;le&#45;journal&#45;du&#45;dimanche&#45;71</title>
<path fill="none" stroke="black" d="M1354.7,-937.39C1375.15,-944.93 1401.6,-954.18 1425.55,-961 1465.67,-972.42 1510.94,-982.71 1548.52,-990.55"/>
<polygon fill="black" stroke="black" points="1547.41,-994.1 1557.91,-992.7 1548.83,-987.25 1547.41,-994.1"/>
<text text-anchor="middle" x="1464.93" y="-983.2" font-family="Times,serif" font-size="14.00">possède 100%</text>
</g>
<!-- paris&#45;match&#45;72 -->
<g id="node10" class="node">
<title>paris&#45;match&#45;72</title>
<ellipse fill="none" stroke="black" cx="1629.44" cy="-952" rx="55.96" ry="18"/>
<text text-anchor="middle" x="1629.44" y="-946.95" font-family="Times,serif" font-size="14.00">Paris Match</text>
</g>
<!-- lagardere&#45;news&#45;70&#45;&gt;paris&#45;match&#45;72 -->
<g id="edge8" class="edge">
<title>lagardere&#45;news&#45;70&#45;&gt;paris&#45;match&#45;72</title>
<path fill="none" stroke="black" d="M1399.26,-931.21C1450.63,-935.87 1516.6,-941.86 1564.56,-946.21"/>
<polygon fill="black" stroke="black" points="1564.15,-949.77 1574.43,-947.19 1564.78,-942.8 1564.15,-949.77"/>
<text text-anchor="middle" x="1464.93" y="-943.2" font-family="Times,serif" font-size="14.00">possède 100%</text>
</g>
<!-- rfm&#45;75 -->
<g id="node11" class="node">
<title>rfm&#45;75</title>
<ellipse fill="none" stroke="black" cx="1629.44" cy="-898" rx="30.88" ry="18"/>
<text text-anchor="middle" x="1629.44" y="-892.95" font-family="Times,serif" font-size="14.00">RFM</text>
</g>
<!-- lagardere&#45;news&#45;70&#45;&gt;rfm&#45;75 -->
<g id="edge9" class="edge">
<title>lagardere&#45;news&#45;70&#45;&gt;rfm&#45;75</title>
<path fill="none" stroke="black" d="M1407.73,-911.4C1413.76,-910.71 1419.74,-910.06 1425.55,-909.5 1481.4,-904.1 1546.17,-900.97 1587.21,-899.37"/>
<polygon fill="black" stroke="black" points="1587.27,-902.84 1597.13,-898.96 1587.01,-895.84 1587.27,-902.84"/>
<text text-anchor="middle" x="1464.93" y="-912.2" font-family="Times,serif" font-size="14.00">possède 100%</text>
</g>
<!-- virgin&#45;radio&#45;76 -->
<g id="node12" class="node">
<title>virgin&#45;radio&#45;76</title>
<ellipse fill="none" stroke="black" cx="1629.44" cy="-844" rx="59.54" ry="18"/>
<text text-anchor="middle" x="1629.44" y="-838.95" font-family="Times,serif" font-size="14.00">Virgin Radio</text>
</g>
<!-- lagardere&#45;news&#45;70&#45;&gt;virgin&#45;radio&#45;76 -->
<g id="edge10" class="edge">
<title>lagardere&#45;news&#45;70&#45;&gt;virgin&#45;radio&#45;76</title>
<path fill="none" stroke="black" d="M1353.04,-909.1C1373.6,-900.36 1400.72,-889.66 1425.55,-882.5 1471.15,-869.35 1523.83,-859.51 1564.09,-853.07"/>
<polygon fill="black" stroke="black" points="1564.49,-856.39 1573.83,-851.38 1563.41,-849.47 1564.49,-856.39"/>
<text text-anchor="middle" x="1464.93" y="-885.2" font-family="Times,serif" font-size="14.00">possède 100%</text>
</g>
<!-- capital&#45;107 -->
<g id="node17" class="node">
<title>capital&#45;107</title>
<ellipse fill="none" stroke="black" cx="1629.44" cy="-790" rx="37.53" ry="18"/>
<text text-anchor="middle" x="1629.44" y="-784.95" font-family="Times,serif" font-size="14.00">Capital</text>
</g>
<!-- prisma&#45;media&#45;106&#45;&gt;capital&#45;107 -->
<g id="edge16" class="edge">
<title>prisma&#45;media&#45;106&#45;&gt;capital&#45;107</title>
<path fill="none" stroke="black" d="M1323.53,-537.53C1333.14,-578.14 1362.43,-679.33 1425.55,-734 1469.09,-771.71 1535.94,-784.21 1580.89,-788.25"/>
<polygon fill="black" stroke="black" points="1580.57,-791.82 1590.81,-789.11 1581.12,-784.84 1580.57,-791.82"/>
<text text-anchor="middle" x="1464.93" y="-776.2" font-family="Times,serif" font-size="14.00">possède 100%</text>
</g>
<!-- harvard&#45;business&#45;review&#45;109 -->
<g id="node18" class="node">
<title>harvard&#45;business&#45;review&#45;109</title>
<ellipse fill="none" stroke="black" cx="1629.44" cy="-736" rx="107.14" ry="18"/>
<text text-anchor="middle" x="1629.44" y="-730.95" font-family="Times,serif" font-size="14.00">Harvard Business Review</text>
</g>
<!-- prisma&#45;media&#45;106&#45;&gt;harvard&#45;business&#45;review&#45;109 -->
<g id="edge17" class="edge">
<title>prisma&#45;media&#45;106&#45;&gt;harvard&#45;business&#45;review&#45;109</title>
<path fill="none" stroke="black" d="M1327.1,-536.95C1341.51,-568.42 1376.48,-636.21 1425.55,-675 1456.08,-699.13 1496.03,-713.74 1532.4,-722.57"/>
<polygon fill="black" stroke="black" points="1531.52,-726.19 1542.05,-725.02 1533.09,-719.37 1531.52,-726.19"/>
<text text-anchor="middle" x="1464.93" y="-716.2" font-family="Times,serif" font-size="14.00">possède 100%</text>
</g>
<!-- management&#45;108 -->
<g id="node19" class="node">
<title>management&#45;108</title>
<ellipse fill="none" stroke="black" cx="1629.44" cy="-682" rx="60.05" ry="18"/>
<text text-anchor="middle" x="1629.44" y="-676.95" font-family="Times,serif" font-size="14.00">Management</text>
</g>
<!-- prisma&#45;media&#45;106&#45;&gt;management&#45;108 -->
<g id="edge18" class="edge">
<title>prisma&#45;media&#45;106&#45;&gt;management&#45;108</title>
<path fill="none" stroke="black" d="M1332.92,-536.05C1351.54,-557.89 1387.57,-596.97 1425.55,-621 1467.87,-647.77 1522.56,-663.32 1564.5,-672.01"/>
<polygon fill="black" stroke="black" points="1563.65,-675.61 1574.14,-674.13 1565.01,-668.75 1563.65,-675.61"/>
<text text-anchor="middle" x="1464.93" y="-657.2" font-family="Times,serif" font-size="14.00">possède 100%</text>
</g>
<!-- tele&#45;loisirs&#45;335 -->
<g id="node20" class="node">
<title>tele&#45;loisirs&#45;335</title>
<ellipse fill="none" stroke="black" cx="1629.44" cy="-628" rx="55.96" ry="18"/>
<text text-anchor="middle" x="1629.44" y="-622.95" font-family="Times,serif" font-size="14.00">Télé&#45;Loisirs</text>
</g>
<!-- prisma&#45;media&#45;106&#45;&gt;tele&#45;loisirs&#45;335 -->
<g id="edge19" class="edge">
<title>prisma&#45;media&#45;106&#45;&gt;tele&#45;loisirs&#45;335</title>
<path fill="none" stroke="black" d="M1343.92,-534.28C1364.96,-546.3 1396.55,-563.34 1425.55,-575 1472.53,-593.88 1528.34,-607.89 1569.53,-616.75"/>
<polygon fill="black" stroke="black" points="1568.69,-620.36 1579.2,-619 1570.14,-613.51 1568.69,-620.36"/>
<text text-anchor="middle" x="1464.93" y="-603.2" font-family="Times,serif" font-size="14.00">possède 100%</text>
</g>
<!-- gala&#45;336 -->
<g id="node21" class="node">
<title>gala&#45;336</title>
<ellipse fill="none" stroke="black" cx="1629.44" cy="-574" rx="28.32" ry="18"/>
<text text-anchor="middle" x="1629.44" y="-568.95" font-family="Times,serif" font-size="14.00">Gala</text>
</g>
<!-- prisma&#45;media&#45;106&#45;&gt;gala&#45;336 -->
<g id="edge20" class="edge">
<title>prisma&#45;media&#45;106&#45;&gt;gala&#45;336</title>
<path fill="none" stroke="black" d="M1370.01,-530.35C1387.56,-533.86 1407.4,-537.72 1425.55,-541 1483.01,-551.37 1549.9,-561.97 1590.69,-568.26"/>
<polygon fill="black" stroke="black" points="1590.06,-571.86 1600.48,-569.92 1591.12,-564.94 1590.06,-571.86"/>
<text text-anchor="middle" x="1464.93" y="-557.2" font-family="Times,serif" font-size="14.00">possède 100%</text>
</g>
<!-- voici&#45;337 -->
<g id="node22" class="node">
<title>voici&#45;337</title>
<ellipse fill="none" stroke="black" cx="1629.44" cy="-520" rx="30.37" ry="18"/>
<text text-anchor="middle" x="1629.44" y="-514.95" font-family="Times,serif" font-size="14.00">Voici</text>
</g>
<!-- prisma&#45;media&#45;106&#45;&gt;voici&#45;337 -->
<g id="edge21" class="edge">
<title>prisma&#45;media&#45;106&#45;&gt;voici&#45;337</title>
<path fill="none" stroke="black" d="M1397.66,-520C1458.18,-520 1539.67,-520 1587.87,-520"/>
<polygon fill="black" stroke="black" points="1587.79,-523.5 1597.79,-520 1587.79,-516.5 1587.79,-523.5"/>
<text text-anchor="middle" x="1464.93" y="-523.2" font-family="Times,serif" font-size="14.00">possède 100%</text>
</g>
<!-- femme&#45;actuelle&#45;338 -->
<g id="node23" class="node">
<title>femme&#45;actuelle&#45;338</title>
<ellipse fill="none" stroke="black" cx="1629.44" cy="-466" rx="72.85" ry="18"/>
<text text-anchor="middle" x="1629.44" y="-460.95" font-family="Times,serif" font-size="14.00">Femme Actuelle</text>
</g>
<!-- prisma&#45;media&#45;106&#45;&gt;femme&#45;actuelle&#45;338 -->
<g id="edge22" class="edge">
<title>prisma&#45;media&#45;106&#45;&gt;femme&#45;actuelle&#45;338</title>
<path fill="none" stroke="black" d="M1395.99,-504.97C1405.93,-503.08 1415.98,-501.22 1425.55,-499.5 1468.91,-491.72 1517.61,-483.66 1556.43,-477.39"/>
<polygon fill="black" stroke="black" points="1556.79,-480.72 1566.1,-475.67 1555.67,-473.81 1556.79,-480.72"/>
<text text-anchor="middle" x="1464.93" y="-502.2" font-family="Times,serif" font-size="14.00">possède 100%</text>
</g>
<!-- national&#45;geographic&#45;339 -->
<g id="node24" class="node">
<title>national&#45;geographic&#45;339</title>
<ellipse fill="none" stroke="black" cx="1629.44" cy="-412" rx="88.2" ry="18"/>
<text text-anchor="middle" x="1629.44" y="-406.95" font-family="Times,serif" font-size="14.00">National Geographic</text>
</g>
<!-- prisma&#45;media&#45;106&#45;&gt;national&#45;geographic&#45;339 -->
<g id="edge23" class="edge">
<title>prisma&#45;media&#45;106&#45;&gt;national&#45;geographic&#45;339</title>
<path fill="none" stroke="black" d="M1345.65,-504.94C1366.69,-493.13 1397.38,-476.85 1425.55,-465.5 1466.96,-448.82 1515.22,-435.85 1554.28,-426.86"/>
<polygon fill="black" stroke="black" points="1554.53,-430.16 1563.52,-424.54 1552.99,-423.34 1554.53,-430.16"/>
<text text-anchor="middle" x="1464.93" y="-468.2" font-family="Times,serif" font-size="14.00">possède 100%</text>
</g>
<!-- geo&#45;340 -->
<g id="node25" class="node">
<title>geo&#45;340</title>
<ellipse fill="none" stroke="black" cx="1629.44" cy="-358" rx="27" ry="18"/>
<text text-anchor="middle" x="1629.44" y="-352.95" font-family="Times,serif" font-size="14.00">Geo</text>
</g>
<!-- prisma&#45;media&#45;106&#45;&gt;geo&#45;340 -->
<g id="edge24" class="edge">
<title>prisma&#45;media&#45;106&#45;&gt;geo&#45;340</title>
<path fill="none" stroke="black" d="M1332.02,-505.14C1350.39,-483.69 1387.05,-443.92 1425.55,-419.5 1477.91,-386.29 1549.2,-370.16 1591.85,-363.01"/>
<polygon fill="black" stroke="black" points="1592.24,-366.33 1601.56,-361.3 1591.14,-359.42 1592.24,-366.33"/>
<text text-anchor="middle" x="1464.93" y="-422.2" font-family="Times,serif" font-size="14.00">possède 100%</text>
</g>
<!-- neon&#45;347 -->
<g id="node26" class="node">
<title>neon&#45;347</title>
<ellipse fill="none" stroke="black" cx="1629.44" cy="-304" rx="30.88" ry="18"/>
<text text-anchor="middle" x="1629.44" y="-298.95" font-family="Times,serif" font-size="14.00">Néon</text>
</g>
<!-- prisma&#45;media&#45;106&#45;&gt;neon&#45;347 -->
<g id="edge25" class="edge">
<title>prisma&#45;media&#45;106&#45;&gt;neon&#45;347</title>
<path fill="none" stroke="black" d="M1325.99,-505.37C1339.62,-474.93 1375.02,-404.3 1425.55,-364.5 1473.1,-327.05 1543.42,-312.75 1587.55,-307.31"/>
<polygon fill="black" stroke="black" points="1587.9,-310.68 1597.44,-306.08 1587.11,-303.72 1587.9,-310.68"/>
<text text-anchor="middle" x="1464.93" y="-367.2" font-family="Times,serif" font-size="14.00">possède 100%</text>
</g>
</g>
</svg>
