<?xml version="1.0" encoding="UTF-8" standalone="no"?>
<!DOCTYPE svg PUBLIC "-//W3C//DTD SVG 1.1//EN"
 "http://www.w3.org/Graphics/SVG/1.1/DTD/svg11.dtd">
<!-- Generated by graphviz version 7.1.0 (20230121.1956)
 -->
<!-- Pages: 1 -->
<svg width="1725pt" height="1048pt"
 viewBox="0.00 0.00 1725.17 1048.00" xmlns="http://www.w3.org/2000/svg" xmlns:xlink="http://www.w3.org/1999/xlink">
<g id="graph0" class="graph" transform="scale(1 1) rotate(0) translate(4 1044)">
<polygon fill="white" stroke="none" points="-4,4 -4,-1044 1721.17,-1044 1721.17,4 -4,4"/>
<g id="clust2" class="cluster">
<title>clusterLeaves</title>
<polygon fill="none" stroke="black" points="1487.79,-8 1487.79,-1032 1709.17,-1032 1709.17,-8 1487.79,-8"/>
</g>
<!-- vincent&#45;bollore&#45;77 -->
<g id="node1" class="node">
<title>vincent&#45;bollore&#45;77</title>
<polygon fill="none" stroke="black" points="118,-186 0,-186 0,-150 118,-150 118,-186"/>
<text text-anchor="middle" x="59" y="-164.3" font-family="Times,serif" font-size="14.00">🧑‍💼Vincent Bolloré</text>
</g>
<!-- financiere&#45;de&#45;l&#45;odet&#45;78 -->
<g id="node4" class="node">
<title>financiere&#45;de&#45;l&#45;odet&#45;78</title>
<polygon fill="none" stroke="black" points="432.5,-173.56 329.83,-186 227.17,-173.56 227.26,-153.44 432.4,-153.44 432.5,-173.56"/>
<text text-anchor="middle" x="329.83" y="-164.3" font-family="Times,serif" font-size="14.00">Financière de l’Odet</text>
</g>
<!-- vincent&#45;bollore&#45;77&#45;&gt;financiere&#45;de&#45;l&#45;odet&#45;78 -->
<g id="edge3" class="edge">
<title>vincent&#45;bollore&#45;77&#45;&gt;financiere&#45;de&#45;l&#45;odet&#45;78</title>
<path fill="none" stroke="black" d="M118.33,-168C146.84,-168 182.16,-168 215.68,-168"/>
<polygon fill="black" stroke="black" points="215.45,-171.5 225.45,-168 215.45,-164.5 215.45,-171.5"/>
<text text-anchor="middle" x="172.5" y="-171.8" font-family="Times,serif" font-size="14.00">possède 49%</text>
</g>
<!-- bollore&#45;79 -->
<g id="node2" class="node">
<title>bollore&#45;79</title>
<polygon fill="none" stroke="black" points="633.04,-173.56 587.46,-186 541.87,-173.56 541.91,-153.44 633,-153.44 633.04,-173.56"/>
<text text-anchor="middle" x="587.46" y="-164.3" font-family="Times,serif" font-size="14.00">Bolloré</text>
</g>
<!-- vivendi&#45;81 -->
<g id="node3" class="node">
<title>vivendi&#45;81</title>
<polygon fill="none" stroke="black" points="838.86,-173.56 790.45,-186 742.04,-173.56 742.09,-153.44 838.81,-153.44 838.86,-173.56"/>
<text text-anchor="middle" x="790.45" y="-164.3" font-family="Times,serif" font-size="14.00">Vivendi</text>
</g>
<!-- bollore&#45;79&#45;&gt;vivendi&#45;81 -->
<g id="edge1" class="edge">
<title>bollore&#45;79&#45;&gt;vivendi&#45;81</title>
<path fill="none" stroke="black" d="M633.31,-168C661.96,-168 699.41,-168 730.46,-168"/>
<polygon fill="black" stroke="black" points="730.06,-171.5 740.06,-168 730.06,-164.5 730.06,-171.5"/>
<text text-anchor="middle" x="687.75" y="-171.8" font-family="Times,serif" font-size="14.00">possède 27%</text>
</g>
<!-- lagardere&#45;sa&#45;69 -->
<g id="node5" class="node">
<title>lagardere&#45;sa&#45;69</title>
<polygon fill="none" stroke="black" points="1095.38,-626.56 1021.56,-639 947.74,-626.56 947.81,-606.44 1095.31,-606.44 1095.38,-626.56"/>
<text text-anchor="middle" x="1021.56" y="-617.3" font-family="Times,serif" font-size="14.00">Lagardère SA</text>
</g>
<!-- vivendi&#45;81&#45;&gt;lagardere&#45;sa&#45;69 -->
<g id="edge4" class="edge">
<title>vivendi&#45;81&#45;&gt;lagardere&#45;sa&#45;69</title>
<path fill="none" stroke="black" d="M795.58,-185.15C804.31,-220.06 826.36,-301.42 856.65,-365 899.91,-455.8 969.61,-553.29 1002.4,-597.18"/>
<polygon fill="black" stroke="black" points="999.46,-599.1 1008.27,-604.99 1005.05,-594.89 999.46,-599.1"/>
<text text-anchor="middle" x="893.15" y="-490.8" font-family="Times,serif" font-size="14.00">possède 27%</text>
</g>
<!-- prisma&#45;media&#45;106 -->
<g id="node7" class="node">
<title>prisma&#45;media&#45;106</title>
<polygon fill="none" stroke="black" points="1371.16,-471.56 1295.63,-484 1220.1,-471.56 1220.17,-451.44 1371.09,-451.44 1371.16,-471.56"/>
<text text-anchor="middle" x="1295.63" y="-462.3" font-family="Times,serif" font-size="14.00">Prisma Media</text>
</g>
<!-- vivendi&#45;81&#45;&gt;prisma&#45;media&#45;106 -->
<g id="edge15" class="edge">
<title>vivendi&#45;81&#45;&gt;prisma&#45;media&#45;106</title>
<path fill="none" stroke="black" d="M812.58,-180.67C825.33,-188.31 841.91,-198.23 856.65,-207 1006.39,-296.06 1185.36,-401.62 1259.65,-445.39"/>
<polygon fill="black" stroke="black" points="1257.73,-448.32 1268.12,-450.38 1261.28,-442.29 1257.73,-448.32"/>
<text text-anchor="middle" x="1021.56" y="-351.8" font-family="Times,serif" font-size="14.00">possède 100%</text>
</g>
<!-- c8&#45;83 -->
<g id="node13" class="node">
<title>c8&#45;83</title>
<ellipse fill="none" stroke="black" cx="1598.48" cy="-196" rx="27" ry="18"/>
<text text-anchor="middle" x="1598.48" y="-192.3" font-family="Times,serif" font-size="14.00">C8</text>
</g>
<!-- vivendi&#45;81&#45;&gt;c8&#45;83 -->
<g id="edge11" class="edge">
<title>vivendi&#45;81&#45;&gt;c8&#45;83</title>
<path fill="none" stroke="black" d="M835.92,-174.81C842.85,-175.68 849.93,-176.45 856.65,-177 1125.48,-198.93 1450.83,-197.68 1559.84,-196.51"/>
<polygon fill="black" stroke="black" points="1559.7,-200.02 1569.66,-196.4 1559.62,-193.02 1559.7,-200.02"/>
<text text-anchor="middle" x="1152.97" y="-196.8" font-family="Times,serif" font-size="14.00">possède 100%</text>
</g>
<!-- canal&#45;82 -->
<g id="node14" class="node">
<title>canal&#45;82</title>
<ellipse fill="none" stroke="black" cx="1598.48" cy="-142" rx="38.99" ry="18"/>
<text text-anchor="middle" x="1598.48" y="-138.3" font-family="Times,serif" font-size="14.00">Canal +</text>
</g>
<!-- vivendi&#45;81&#45;&gt;canal&#45;82 -->
<g id="edge12" class="edge">
<title>vivendi&#45;81&#45;&gt;canal&#45;82</title>
<path fill="none" stroke="black" d="M839.19,-166.1C902.05,-163.62 1016.04,-159.22 1113.47,-156 1272.12,-150.75 1460.05,-145.63 1547.76,-143.3"/>
<polygon fill="black" stroke="black" points="1547.79,-146.8 1557.69,-143.04 1547.6,-139.8 1547.79,-146.8"/>
<text text-anchor="middle" x="1152.97" y="-159.8" font-family="Times,serif" font-size="14.00">possède 100%</text>
</g>
<!-- cnews&#45;80 -->
<g id="node15" class="node">
<title>cnews&#45;80</title>
<ellipse fill="none" stroke="black" cx="1598.48" cy="-88" rx="36.29" ry="18"/>
<text text-anchor="middle" x="1598.48" y="-84.3" font-family="Times,serif" font-size="14.00">CNews</text>
</g>
<!-- vivendi&#45;81&#45;&gt;cnews&#45;80 -->
<g id="edge13" class="edge">
<title>vivendi&#45;81&#45;&gt;cnews&#45;80</title>
<path fill="none" stroke="black" d="M839.12,-160.36C845.02,-159.51 850.97,-158.7 856.65,-158 1118.5,-125.58 1434.07,-100.33 1550.98,-91.45"/>
<polygon fill="black" stroke="black" points="1551.09,-94.95 1560.8,-90.71 1550.57,-87.97 1551.09,-94.95"/>
<text text-anchor="middle" x="1152.97" y="-133.8" font-family="Times,serif" font-size="14.00">possède 100%</text>
</g>
<!-- cstar&#45;85 -->
<g id="node16" class="node">
<title>cstar&#45;85</title>
<ellipse fill="none" stroke="black" cx="1598.48" cy="-34" rx="30.59" ry="18"/>
<text text-anchor="middle" x="1598.48" y="-30.3" font-family="Times,serif" font-size="14.00">CStar</text>
</g>
<!-- vivendi&#45;81&#45;&gt;cstar&#45;85 -->
<g id="edge14" class="edge">
<title>vivendi&#45;81&#45;&gt;cstar&#45;85</title>
<path fill="none" stroke="black" d="M830.8,-153.02C839.25,-150.11 848.19,-147.27 856.65,-145 896.39,-134.35 907.06,-134.73 947.65,-128 1177.52,-89.91 1454.6,-52.72 1556.95,-39.27"/>
<polygon fill="black" stroke="black" points="1557.31,-42.76 1566.77,-37.99 1556.4,-35.82 1557.31,-42.76"/>
<text text-anchor="middle" x="1152.97" y="-104.8" font-family="Times,serif" font-size="14.00">possède 100%</text>
</g>
<!-- financiere&#45;de&#45;l&#45;odet&#45;78&#45;&gt;bollore&#45;79 -->
<g id="edge2" class="edge">
<title>financiere&#45;de&#45;l&#45;odet&#45;78&#45;&gt;bollore&#45;79</title>
<path fill="none" stroke="black" d="M432.96,-168C466.09,-168 501.61,-168 530.13,-168"/>
<polygon fill="black" stroke="black" points="529.98,-171.5 539.98,-168 529.98,-164.5 529.98,-171.5"/>
<text text-anchor="middle" x="487.16" y="-171.8" font-family="Times,serif" font-size="14.00">possède 64%</text>
</g>
<!-- lagardere&#45;news&#45;70 -->
<g id="node6" class="node">
<title>lagardere&#45;news&#45;70</title>
<polygon fill="none" stroke="black" points="1380.95,-876.56 1295.63,-889 1210.32,-876.56 1210.4,-856.44 1380.87,-856.44 1380.95,-876.56"/>
<text text-anchor="middle" x="1295.63" y="-867.3" font-family="Times,serif" font-size="14.00">Lagardère News</text>
</g>
<!-- lagardere&#45;sa&#45;69&#45;&gt;lagardere&#45;news&#45;70 -->
<g id="edge5" class="edge">
<title>lagardere&#45;sa&#45;69&#45;&gt;lagardere&#45;news&#45;70</title>
<path fill="none" stroke="black" d="M1039.17,-636.26C1085.4,-678.74 1215.73,-798.5 1270.21,-848.56"/>
<polygon fill="black" stroke="black" points="1267.74,-851.04 1277.47,-855.23 1272.47,-845.88 1267.74,-851.04"/>
<text text-anchor="middle" x="1152.97" y="-778.8" font-family="Times,serif" font-size="14.00">possède 100%</text>
</g>
<!-- europe&#45;1&#45;74 -->
<g id="node8" class="node">
<title>europe&#45;1&#45;74</title>
<ellipse fill="none" stroke="black" cx="1598.48" cy="-1006" rx="42.79" ry="18"/>
<text text-anchor="middle" x="1598.48" y="-1002.3" font-family="Times,serif" font-size="14.00">Europe 1</text>
</g>
<!-- lagardere&#45;news&#45;70&#45;&gt;europe&#45;1&#45;74 -->
<g id="edge6" class="edge">
<title>lagardere&#45;news&#45;70&#45;&gt;europe&#45;1&#45;74</title>
<path fill="none" stroke="black" d="M1315.72,-886.48C1335.62,-902.11 1368.12,-926.28 1398.79,-943 1436.25,-963.42 1447.19,-965.87 1487.79,-979 1507.35,-985.33 1529.29,-991 1548.37,-995.49"/>
<polygon fill="black" stroke="black" points="1547.53,-998.89 1558.06,-997.73 1549.1,-992.07 1547.53,-998.89"/>
<text text-anchor="middle" x="1438.29" y="-978.8" font-family="Times,serif" font-size="14.00">possède 100%</text>
</g>
<!-- le&#45;journal&#45;du&#45;dimanche&#45;71 -->
<g id="node9" class="node">
<title>le&#45;journal&#45;du&#45;dimanche&#45;71</title>
<ellipse fill="none" stroke="black" cx="1598.48" cy="-952" rx="96.68" ry="18"/>
<text text-anchor="middle" x="1598.48" y="-948.3" font-family="Times,serif" font-size="14.00">Le Journal du dimanche</text>
</g>
<!-- lagardere&#45;news&#45;70&#45;&gt;le&#45;journal&#45;du&#45;dimanche&#45;71 -->
<g id="edge7" class="edge">
<title>lagardere&#45;news&#45;70&#45;&gt;le&#45;journal&#45;du&#45;dimanche&#45;71</title>
<path fill="none" stroke="black" d="M1332.79,-883.91C1352.23,-890.62 1376.67,-898.72 1398.79,-905 1439.44,-916.55 1485.33,-927.54 1522.75,-935.98"/>
<polygon fill="black" stroke="black" points="1521.57,-939.3 1532.1,-938.07 1523.1,-932.47 1521.57,-939.3"/>
<text text-anchor="middle" x="1438.29" y="-927.8" font-family="Times,serif" font-size="14.00">possède 100%</text>
</g>
<!-- paris&#45;match&#45;72 -->
<g id="node10" class="node">
<title>paris&#45;match&#45;72</title>
<ellipse fill="none" stroke="black" cx="1598.48" cy="-898" rx="53.89" ry="18"/>
<text text-anchor="middle" x="1598.48" y="-894.3" font-family="Times,serif" font-size="14.00">Paris Match</text>
</g>
<!-- lagardere&#45;news&#45;70&#45;&gt;paris&#45;match&#45;72 -->
<g id="edge8" class="edge">
<title>lagardere&#45;news&#45;70&#45;&gt;paris&#45;match&#45;72</title>
<path fill="none" stroke="black" d="M1374.5,-877.99C1424.25,-882.45 1487.93,-888.17 1534.5,-892.35"/>
<polygon fill="black" stroke="black" points="1534.16,-895.83 1544.44,-893.24 1534.79,-888.86 1534.16,-895.83"/>
<text text-anchor="middle" x="1438.29" y="-889.8" font-family="Times,serif" font-size="14.00">possède 100%</text>
</g>
<!-- rfm&#45;75 -->
<g id="node11" class="node">
<title>rfm&#45;75</title>
<ellipse fill="none" stroke="black" cx="1598.48" cy="-844" rx="29.8" ry="18"/>
<text text-anchor="middle" x="1598.48" y="-840.3" font-family="Times,serif" font-size="14.00">RFM</text>
</g>
<!-- lagardere&#45;news&#45;70&#45;&gt;rfm&#45;75 -->
<g id="edge9" class="edge">
<title>lagardere&#45;news&#45;70&#45;&gt;rfm&#45;75</title>
<path fill="none" stroke="black" d="M1381.36,-862.63C1387.25,-862.07 1393.11,-861.52 1398.79,-861 1453.58,-855.97 1516.92,-850.64 1557.08,-847.31"/>
<polygon fill="black" stroke="black" points="1557.33,-850.8 1567,-846.49 1556.75,-843.83 1557.33,-850.8"/>
<text text-anchor="middle" x="1438.29" y="-864.8" font-family="Times,serif" font-size="14.00">possède 100%</text>
</g>
<!-- virgin&#45;radio&#45;76 -->
<g id="node12" class="node">
<title>virgin&#45;radio&#45;76</title>
<ellipse fill="none" stroke="black" cx="1598.48" cy="-790" rx="57.39" ry="18"/>
<text text-anchor="middle" x="1598.48" y="-786.3" font-family="Times,serif" font-size="14.00">Virgin Radio</text>
</g>
<!-- lagardere&#45;news&#45;70&#45;&gt;virgin&#45;radio&#45;76 -->
<g id="edge10" class="edge">
<title>lagardere&#45;news&#45;70&#45;&gt;virgin&#45;radio&#45;76</title>
<path fill="none" stroke="black" d="M1335.58,-856.08C1354.49,-849.14 1377.65,-841.1 1398.79,-835 1444.97,-821.68 1498.12,-809.82 1537.82,-801.62"/>
<polygon fill="black" stroke="black" points="1538.32,-805.09 1547.42,-799.66 1536.92,-798.24 1538.32,-805.09"/>
<text text-anchor="middle" x="1438.29" y="-838.8" font-family="Times,serif" font-size="14.00">possède 100%</text>
</g>
<!-- capital&#45;107 -->
<g id="node17" class="node">
<title>capital&#45;107</title>
<ellipse fill="none" stroke="black" cx="1598.48" cy="-736" rx="36.29" ry="18"/>
<text text-anchor="middle" x="1598.48" y="-732.3" font-family="Times,serif" font-size="14.00">Capital</text>
</g>
<!-- prisma&#45;media&#45;106&#45;&gt;capital&#45;107 -->
<g id="edge16" class="edge">
<title>prisma&#45;media&#45;106&#45;&gt;capital&#45;107</title>
<path fill="none" stroke="black" d="M1300.46,-483.63C1310.01,-523.51 1338.57,-621.39 1398.79,-676 1440.93,-714.22 1506.67,-728.12 1550.87,-733.16"/>
<polygon fill="black" stroke="black" points="1550.36,-736.62 1560.66,-734.15 1551.07,-729.66 1550.36,-736.62"/>
<text text-anchor="middle" x="1438.29" y="-721.8" font-family="Times,serif" font-size="14.00">possède 100%</text>
</g>
<!-- harvard&#45;business&#45;review&#45;109 -->
<g id="node18" class="node">
<title>harvard&#45;business&#45;review&#45;109</title>
<ellipse fill="none" stroke="black" cx="1598.48" cy="-682" rx="102.88" ry="18"/>
<text text-anchor="middle" x="1598.48" y="-678.3" font-family="Times,serif" font-size="14.00">Harvard Business Review</text>
</g>
<!-- prisma&#45;media&#45;106&#45;&gt;harvard&#45;business&#45;review&#45;109 -->
<g id="edge17" class="edge">
<title>prisma&#45;media&#45;106&#45;&gt;harvard&#45;business&#45;review&#45;109</title>
<path fill="none" stroke="black" d="M1304.03,-482.82C1318.24,-513.41 1352.15,-578.53 1398.79,-617 1429.75,-642.54 1471.04,-658.14 1507.95,-667.63"/>
<polygon fill="black" stroke="black" points="1506.73,-670.93 1517.27,-669.91 1508.39,-664.13 1506.73,-670.93"/>
<text text-anchor="middle" x="1438.29" y="-660.8" font-family="Times,serif" font-size="14.00">possède 100%</text>
</g>
<!-- management&#45;108 -->
<g id="node19" class="node">
<title>management&#45;108</title>
<ellipse fill="none" stroke="black" cx="1598.48" cy="-628" rx="57.69" ry="18"/>
<text text-anchor="middle" x="1598.48" y="-624.3" font-family="Times,serif" font-size="14.00">Management</text>
</g>
<!-- prisma&#45;media&#45;106&#45;&gt;management&#45;108 -->
<g id="edge18" class="edge">
<title>prisma&#45;media&#45;106&#45;&gt;management&#45;108</title>
<path fill="none" stroke="black" d="M1310.48,-482.06C1328.96,-502.7 1363.45,-538.66 1398.79,-562 1440.74,-589.71 1495.36,-606.74 1536.72,-616.55"/>
<polygon fill="black" stroke="black" points="1535.73,-619.91 1546.26,-618.73 1537.29,-613.09 1535.73,-619.91"/>
<text text-anchor="middle" x="1438.29" y="-601.8" font-family="Times,serif" font-size="14.00">possède 100%</text>
</g>
<!-- tele&#45;loisirs&#45;335 -->
<g id="node20" class="node">
<title>tele&#45;loisirs&#45;335</title>
<ellipse fill="none" stroke="black" cx="1598.48" cy="-574" rx="53.89" ry="18"/>
<text text-anchor="middle" x="1598.48" y="-570.3" font-family="Times,serif" font-size="14.00">Télé&#45;Loisirs</text>
</g>
<!-- prisma&#45;media&#45;106&#45;&gt;tele&#45;loisirs&#45;335 -->
<g id="edge19" class="edge">
<title>prisma&#45;media&#45;106&#45;&gt;tele&#45;loisirs&#45;335</title>
<path fill="none" stroke="black" d="M1322.2,-480C1342.6,-490.86 1372.07,-505.89 1398.79,-517 1445.58,-536.46 1501.21,-551.79 1541.69,-561.63"/>
<polygon fill="black" stroke="black" points="1540.68,-564.99 1551.22,-563.91 1542.3,-558.18 1540.68,-564.99"/>
<text text-anchor="middle" x="1438.29" y="-546.8" font-family="Times,serif" font-size="14.00">possède 100%</text>
</g>
<!-- gala&#45;336 -->
<g id="node21" class="node">
<title>gala&#45;336</title>
<ellipse fill="none" stroke="black" cx="1598.48" cy="-520" rx="27.1" ry="18"/>
<text text-anchor="middle" x="1598.48" y="-516.3" font-family="Times,serif" font-size="14.00">Gala</text>
</g>
<!-- prisma&#45;media&#45;106&#45;&gt;gala&#45;336 -->
<g id="edge20" class="edge">
<title>prisma&#45;media&#45;106&#45;&gt;gala&#45;336</title>
<path fill="none" stroke="black" d="M1348.58,-475.76C1364.67,-478.76 1382.46,-482.04 1398.79,-485 1455.13,-495.2 1520.54,-506.65 1560.46,-513.59"/>
<polygon fill="black" stroke="black" points="1559.8,-517.03 1570.25,-515.29 1561,-510.13 1559.8,-517.03"/>
<text text-anchor="middle" x="1438.29" y="-501.8" font-family="Times,serif" font-size="14.00">possède 100%</text>
</g>
<!-- voici&#45;337 -->
<g id="node22" class="node">
<title>voici&#45;337</title>
<ellipse fill="none" stroke="black" cx="1598.48" cy="-466" rx="29.5" ry="18"/>
<text text-anchor="middle" x="1598.48" y="-462.3" font-family="Times,serif" font-size="14.00">Voici</text>
</g>
<!-- prisma&#45;media&#45;106&#45;&gt;voici&#45;337 -->
<g id="edge21" class="edge">
<title>prisma&#45;media&#45;106&#45;&gt;voici&#45;337</title>
<path fill="none" stroke="black" d="M1371.38,-466C1430.26,-466 1510.05,-466 1557.41,-466"/>
<polygon fill="black" stroke="black" points="1557.2,-469.5 1567.2,-466 1557.2,-462.5 1557.2,-469.5"/>
<text text-anchor="middle" x="1438.29" y="-469.8" font-family="Times,serif" font-size="14.00">possède 100%</text>
</g>
<!-- femme&#45;actuelle&#45;338 -->
<g id="node23" class="node">
<title>femme&#45;actuelle&#45;338</title>
<ellipse fill="none" stroke="black" cx="1598.48" cy="-412" rx="69.59" ry="18"/>
<text text-anchor="middle" x="1598.48" y="-408.3" font-family="Times,serif" font-size="14.00">Femme Actuelle</text>
</g>
<!-- prisma&#45;media&#45;106&#45;&gt;femme&#45;actuelle&#45;338 -->
<g id="edge22" class="edge">
<title>prisma&#45;media&#45;106&#45;&gt;femme&#45;actuelle&#45;338</title>
<path fill="none" stroke="black" d="M1371.38,-452.01C1380.61,-450.31 1389.91,-448.61 1398.79,-447 1441.92,-439.19 1490.37,-430.65 1528.62,-423.96"/>
<polygon fill="black" stroke="black" points="1528.9,-427.47 1538.15,-422.3 1527.69,-420.57 1528.9,-427.47"/>
<text text-anchor="middle" x="1438.29" y="-450.8" font-family="Times,serif" font-size="14.00">possède 100%</text>
</g>
<!-- national&#45;geographic&#45;339 -->
<g id="node24" class="node">
<title>national&#45;geographic&#45;339</title>
<ellipse fill="none" stroke="black" cx="1598.48" cy="-358" rx="84.49" ry="18"/>
<text text-anchor="middle" x="1598.48" y="-354.3" font-family="Times,serif" font-size="14.00">National Geographic</text>
</g>
<!-- prisma&#45;media&#45;106&#45;&gt;national&#45;geographic&#45;339 -->
<g id="edge23" class="edge">
<title>prisma&#45;media&#45;106&#45;&gt;national&#45;geographic&#45;339</title>
<path fill="none" stroke="black" d="M1322.98,-451.15C1343.3,-440.05 1372.31,-424.97 1398.79,-414 1440.07,-396.89 1488.28,-383.16 1526.87,-373.58"/>
<polygon fill="black" stroke="black" points="1527.64,-376.99 1536.53,-371.22 1525.98,-370.19 1527.64,-376.99"/>
<text text-anchor="middle" x="1438.29" y="-417.8" font-family="Times,serif" font-size="14.00">possède 100%</text>
</g>
<!-- geo&#45;340 -->
<g id="node25" class="node">
<title>geo&#45;340</title>
<ellipse fill="none" stroke="black" cx="1598.48" cy="-304" rx="27" ry="18"/>
<text text-anchor="middle" x="1598.48" y="-300.3" font-family="Times,serif" font-size="14.00">Geo</text>
</g>
<!-- prisma&#45;media&#45;106&#45;&gt;geo&#45;340 -->
<g id="edge24" class="edge">
<title>prisma&#45;media&#45;106&#45;&gt;geo&#45;340</title>
<path fill="none" stroke="black" d="M1308.81,-451.27C1326.7,-430.4 1361.97,-392.08 1398.79,-368 1449.41,-334.88 1518.49,-317.74 1560.43,-309.83"/>
<polygon fill="black" stroke="black" points="1561.05,-313.27 1570.27,-308.06 1559.81,-306.38 1561.05,-313.27"/>
<text text-anchor="middle" x="1438.29" y="-371.8" font-family="Times,serif" font-size="14.00">possède 100%</text>
</g>
<!-- neon&#45;347 -->
<g id="node26" class="node">
<title>neon&#45;347</title>
<ellipse fill="none" stroke="black" cx="1598.48" cy="-250" rx="29.8" ry="18"/>
<text text-anchor="middle" x="1598.48" y="-246.3" font-family="Times,serif" font-size="14.00">Néon</text>
</g>
<!-- prisma&#45;media&#45;106&#45;&gt;neon&#45;347 -->
<g id="edge25" class="edge">
<title>prisma&#45;media&#45;106&#45;&gt;neon&#45;347</title>
<path fill="none" stroke="black" d="M1302.78,-451.1C1315.98,-420.8 1349.89,-351.54 1398.79,-312 1445.12,-274.54 1514.19,-259.62 1557.49,-253.74"/>
<polygon fill="black" stroke="black" points="1557.72,-257.23 1567.21,-252.52 1556.86,-250.29 1557.72,-257.23"/>
<text text-anchor="middle" x="1438.29" y="-315.8" font-family="Times,serif" font-size="14.00">possède 100%</text>
</g>
</g>
</svg>
