<?xml version="1.0" encoding="UTF-8" standalone="no"?>
<!DOCTYPE svg PUBLIC "-//W3C//DTD SVG 1.1//EN"
 "http://www.w3.org/Graphics/SVG/1.1/DTD/svg11.dtd">
<!-- Generated by graphviz version 8.1.0 (20230707.0739)
 -->
<!-- Pages: 1 -->
<svg width="585pt" height="76pt"
 viewBox="0.00 0.00 585.02 76.00" xmlns="http://www.w3.org/2000/svg" xmlns:xlink="http://www.w3.org/1999/xlink">
<g id="graph0" class="graph" transform="scale(1 1) rotate(0) translate(4 72)">
<polygon fill="white" stroke="none" points="-4,4 -4,-72 581.02,-72 581.02,4 -4,4"/>
<g id="clust2" class="cluster">
<title>clusterLeaves</title>
<polygon fill="none" stroke="black" points="494.33,-8 494.33,-60 569.02,-60 569.02,-8 494.33,-8"/>
</g>
<!-- georges&#45;ghosn&#45;117 -->
<g id="node1" class="node">
<title>georges&#45;ghosn&#45;117</title>
<polygon fill="none" stroke="black" points="114.25,-52 0,-52 0,-16 114.25,-16 114.25,-52"/>
<text text-anchor="middle" x="57.12" y="-30.07" font-family="Times,serif" font-size="14.00">🧑‍💼Georges Ghosn</text>
</g>
<!-- ghosn&#45;capital&#45;118 -->
<g id="node2" class="node">
<title>ghosn&#45;capital&#45;118</title>
<polygon fill="none" stroke="black" points="387.58,-39.56 308.29,-52 229,-39.56 229.07,-19.44 387.51,-19.44 387.58,-39.56"/>
<text text-anchor="middle" x="308.29" y="-28.95" font-family="Times,serif" font-size="14.00">Ghosn Capital</text>
</g>
<!-- georges&#45;ghosn&#45;117&#45;&gt;ghosn&#45;capital&#45;118 -->
<g id="edge2" class="edge">
<title>georges&#45;ghosn&#45;117&#45;&gt;ghosn&#45;capital&#45;118</title>
<path fill="none" stroke="black" d="M114.66,-34C145.24,-34 183.71,-34 218.21,-34"/>
<polygon fill="black" stroke="black" points="217.78,-37.5 227.78,-34 217.78,-30.5 217.78,-37.5"/>
<text text-anchor="middle" x="171.62" y="-37.2" font-family="Times,serif" font-size="14.00">possède 100%</text>
</g>
<!-- vsd&#45;119 -->
<g id="node3" class="node">
<title>vsd&#45;119</title>
<ellipse fill="none" stroke="black" cx="531.67" cy="-34" rx="29.34" ry="18"/>
<text text-anchor="middle" x="531.67" y="-28.95" font-family="Times,serif" font-size="14.00">VSD</text>
</g>
<!-- ghosn&#45;capital&#45;118&#45;&gt;vsd&#45;119 -->
<g id="edge1" class="edge">
<title>ghosn&#45;capital&#45;118&#45;&gt;vsd&#45;119</title>
<path fill="none" stroke="black" d="M387.96,-34C422.96,-34 462.64,-34 491.25,-34"/>
<polygon fill="black" stroke="black" points="491.03,-37.5 501.03,-34 491.03,-30.5 491.03,-37.5"/>
<text text-anchor="middle" x="444.95" y="-37.2" font-family="Times,serif" font-size="14.00">possède 100%</text>
</g>
</g>
</svg>
