<?xml version="1.0" encoding="UTF-8" standalone="no"?>
<!DOCTYPE svg PUBLIC "-//W3C//DTD SVG 1.1//EN"
 "http://www.w3.org/Graphics/SVG/1.1/DTD/svg11.dtd">
<!-- Generated by graphviz version 7.1.0 (20230121.1956)
 -->
<!-- Pages: 1 -->
<svg width="579pt" height="76pt"
 viewBox="0.00 0.00 578.84 76.00" xmlns="http://www.w3.org/2000/svg" xmlns:xlink="http://www.w3.org/1999/xlink">
<g id="graph0" class="graph" transform="scale(1 1) rotate(0) translate(4 72)">
<polygon fill="white" stroke="none" points="-4,4 -4,-72 574.84,-72 574.84,4 -4,4"/>
<g id="clust2" class="cluster">
<title>clusterLeaves</title>
<polygon fill="none" stroke="black" points="489.64,-8 489.64,-60 562.84,-60 562.84,-8 489.64,-8"/>
</g>
<!-- georges&#45;ghosn&#45;117 -->
<g id="node1" class="node">
<title>georges&#45;ghosn&#45;117</title>
<polygon fill="none" stroke="black" points="115,-52 0,-52 0,-16 115,-16 115,-52"/>
<text text-anchor="middle" x="57.5" y="-30.3" font-family="Times,serif" font-size="14.00">🧑‍💼Georges Ghosn</text>
</g>
<!-- ghosn&#45;capital&#45;118 -->
<g id="node2" class="node">
<title>ghosn&#45;capital&#45;118</title>
<polygon fill="none" stroke="black" points="382.46,-39.56 306.32,-52 230.18,-39.56 230.25,-19.44 382.39,-19.44 382.46,-39.56"/>
<text text-anchor="middle" x="306.32" y="-30.3" font-family="Times,serif" font-size="14.00">Ghosn Capital</text>
</g>
<!-- georges&#45;ghosn&#45;117&#45;&gt;ghosn&#45;capital&#45;118 -->
<g id="edge2" class="edge">
<title>georges&#45;ghosn&#45;117&#45;&gt;ghosn&#45;capital&#45;118</title>
<path fill="none" stroke="black" d="M115.44,-34C146.01,-34 184.33,-34 218.53,-34"/>
<polygon fill="black" stroke="black" points="218.44,-37.5 228.44,-34 218.44,-30.5 218.44,-37.5"/>
<text text-anchor="middle" x="172.5" y="-37.8" font-family="Times,serif" font-size="14.00">possède 100%</text>
</g>
<!-- vsd&#45;119 -->
<g id="node3" class="node">
<title>vsd&#45;119</title>
<ellipse fill="none" stroke="black" cx="526.24" cy="-34" rx="28.7" ry="18"/>
<text text-anchor="middle" x="526.24" y="-30.3" font-family="Times,serif" font-size="14.00">VSD</text>
</g>
<!-- ghosn&#45;capital&#45;118&#45;&gt;vsd&#45;119 -->
<g id="edge1" class="edge">
<title>ghosn&#45;capital&#45;118&#45;&gt;vsd&#45;119</title>
<path fill="none" stroke="black" d="M382.93,-34C417.61,-34 457.28,-34 485.91,-34"/>
<polygon fill="black" stroke="black" points="485.56,-37.5 495.56,-34 485.56,-30.5 485.56,-37.5"/>
<text text-anchor="middle" x="440.14" y="-37.8" font-family="Times,serif" font-size="14.00">possède 100%</text>
</g>
</g>
</svg>
