<?xml version="1.0" encoding="UTF-8" standalone="no"?>
<!DOCTYPE svg PUBLIC "-//W3C//DTD SVG 1.1//EN"
 "http://www.w3.org/Graphics/SVG/1.1/DTD/svg11.dtd">
<!-- Generated by graphviz version 8.1.0 (20230707.0739)
 -->
<!-- Pages: 1 -->
<svg width="1331pt" height="832pt"
 viewBox="0.00 0.00 1330.67 832.00" xmlns="http://www.w3.org/2000/svg" xmlns:xlink="http://www.w3.org/1999/xlink">
<g id="graph0" class="graph" transform="scale(1 1) rotate(0) translate(4 828)">
<polygon fill="white" stroke="none" points="-4,4 -4,-828 1326.67,-828 1326.67,4 -4,4"/>
<g id="clust2" class="cluster">
<title>clusterLeaves</title>
<polygon fill="none" stroke="black" points="1039.36,-8 1039.36,-816 1314.67,-816 1314.67,-8 1039.36,-8"/>
</g>
<!-- xavier&#45;niel&#45;10 -->
<g id="node1" class="node">
<title>xavier&#45;niel&#45;10</title>
<polygon fill="none" stroke="black" points="94,-136 0,-136 0,-100 94,-100 94,-136"/>
<text text-anchor="middle" x="47" y="-114.08" font-family="Times,serif" font-size="14.00">🧑‍💼Xavier Niel</text>
</g>
<!-- groupe&#45;la&#45;provence&#45;280 -->
<g id="node2" class="node">
<title>groupe&#45;la&#45;provence&#45;280</title>
<polygon fill="none" stroke="black" points="932.61,-741.56 824.22,-754 715.83,-741.56 715.93,-721.44 932.51,-721.44 932.61,-741.56"/>
<text text-anchor="middle" x="824.22" y="-730.95" font-family="Times,serif" font-size="14.00">Groupe La Provence</text>
</g>
<!-- xavier&#45;niel&#45;10&#45;&gt;groupe&#45;la&#45;provence&#45;280 -->
<g id="edge1" class="edge">
<title>xavier&#45;niel&#45;10&#45;&gt;groupe&#45;la&#45;provence&#45;280</title>
<path fill="none" stroke="black" d="M71.2,-136.5C184.01,-226.43 674.73,-617.62 796.03,-714.32"/>
<polygon fill="black" stroke="black" points="793.43,-717.52 803.43,-721.02 797.79,-712.05 793.43,-717.52"/>
<text text-anchor="middle" x="403.41" y="-550.2" font-family="Times,serif" font-size="14.00">possède 11%</text>
</g>
<!-- le&#45;monde&#45;libre&#45;14 -->
<g id="node3" class="node">
<title>le&#45;monde&#45;libre&#45;14</title>
<polygon fill="none" stroke="black" points="489.03,-147.56 403.41,-160 317.8,-147.56 317.88,-127.44 488.95,-127.44 489.03,-147.56"/>
<text text-anchor="middle" x="403.41" y="-136.95" font-family="Times,serif" font-size="14.00">Le Monde libre</text>
</g>
<!-- xavier&#45;niel&#45;10&#45;&gt;le&#45;monde&#45;libre&#45;14 -->
<g id="edge4" class="edge">
<title>xavier&#45;niel&#45;10&#45;&gt;le&#45;monde&#45;libre&#45;14</title>
<path fill="none" stroke="black" d="M94.33,-121.14C147.94,-124.77 237.66,-130.84 306.49,-135.5"/>
<polygon fill="black" stroke="black" points="306.13,-139.06 316.35,-136.24 306.61,-132.07 306.13,-139.06"/>
<text text-anchor="middle" x="152.12" y="-130.2" font-family="Times,serif" font-size="14.00">possède 26%</text>
</g>
<!-- fonds&#45;pour&#45;l&#45;independance&#45;de&#45;la&#45;presse&#45;342 -->
<g id="node5" class="node">
<title>fonds&#45;pour&#45;l&#45;independance&#45;de&#45;la&#45;presse&#45;342</title>
<polygon fill="none" stroke="black" points="596.58,-93.56 403.41,-106 210.25,-93.56 210.43,-73.44 596.4,-73.44 596.58,-93.56"/>
<text text-anchor="middle" x="403.41" y="-82.95" font-family="Times,serif" font-size="14.00">Fonds pour l&#39;indépendance de la presse</text>
</g>
<!-- xavier&#45;niel&#45;10&#45;&gt;fonds&#45;pour&#45;l&#45;independance&#45;de&#45;la&#45;presse&#45;342 -->
<g id="edge18" class="edge">
<title>xavier&#45;niel&#45;10&#45;&gt;fonds&#45;pour&#45;l&#45;independance&#45;de&#45;la&#45;presse&#45;342</title>
<path fill="none" stroke="black" d="M94.26,-104.88C100.19,-103.55 106.21,-102.37 112,-101.5 140.12,-97.27 169.92,-94.25 199.31,-92.1"/>
<polygon fill="black" stroke="black" points="199.38,-95.54 209.11,-91.35 198.89,-88.55 199.38,-95.54"/>
<text text-anchor="middle" x="152.12" y="-104.2" font-family="Times,serif" font-size="14.00">contrôle 100%</text>
</g>
<!-- le&#45;nouveau&#45;magazine&#45;litteraire&#45;322 -->
<g id="node19" class="node">
<title>le&#45;nouveau&#45;magazine&#45;litteraire&#45;322</title>
<ellipse fill="none" stroke="black" cx="1177.01" cy="-34" rx="129.66" ry="18"/>
<text text-anchor="middle" x="1177.01" y="-28.95" font-family="Times,serif" font-size="14.00">Le Nouveau Magazine littéraire</text>
</g>
<!-- xavier&#45;niel&#45;10&#45;&gt;le&#45;nouveau&#45;magazine&#45;litteraire&#45;322 -->
<g id="edge17" class="edge">
<title>xavier&#45;niel&#45;10&#45;&gt;le&#45;nouveau&#45;magazine&#45;litteraire&#45;322</title>
<path fill="none" stroke="black" d="M84.43,-99.62C93.33,-95.49 102.9,-91.35 112,-88 154.49,-72.33 165.46,-67.68 210.25,-61 505.07,-17.02 855.96,-21.09 1043.01,-27.69"/>
<polygon fill="black" stroke="black" points="1042.87,-31.23 1052.99,-28.09 1043.12,-24.23 1042.87,-31.23"/>
<text text-anchor="middle" x="656.2" y="-30.2" font-family="Times,serif" font-size="14.00">participe 100%</text>
</g>
<!-- corse&#45;matin&#45;282 -->
<g id="node6" class="node">
<title>corse&#45;matin&#45;282</title>
<ellipse fill="none" stroke="black" cx="1177.01" cy="-790" rx="57.49" ry="18"/>
<text text-anchor="middle" x="1177.01" y="-784.95" font-family="Times,serif" font-size="14.00">Corse Matin</text>
</g>
<!-- groupe&#45;la&#45;provence&#45;280&#45;&gt;corse&#45;matin&#45;282 -->
<g id="edge2" class="edge">
<title>groupe&#45;la&#45;provence&#45;280&#45;&gt;corse&#45;matin&#45;282</title>
<path fill="none" stroke="black" d="M889.29,-746.99C908.95,-750.29 930.65,-753.87 950.61,-757 1005.47,-765.61 1067.97,-774.7 1113.22,-781.16"/>
<polygon fill="black" stroke="black" points="1112.65,-784.76 1123.04,-782.7 1113.64,-777.83 1112.65,-784.76"/>
<text text-anchor="middle" x="989.98" y="-771.2" font-family="Times,serif" font-size="14.00">possède 65%</text>
</g>
<!-- la&#45;provence&#45;283 -->
<g id="node7" class="node">
<title>la&#45;provence&#45;283</title>
<ellipse fill="none" stroke="black" cx="1177.01" cy="-736" rx="57.49" ry="18"/>
<text text-anchor="middle" x="1177.01" y="-730.95" font-family="Times,serif" font-size="14.00">La Provence</text>
</g>
<!-- groupe&#45;la&#45;provence&#45;280&#45;&gt;la&#45;provence&#45;283 -->
<g id="edge3" class="edge">
<title>groupe&#45;la&#45;provence&#45;280&#45;&gt;la&#45;provence&#45;283</title>
<path fill="none" stroke="black" d="M932.85,-736C989.96,-736 1058.4,-736 1108.09,-736"/>
<polygon fill="black" stroke="black" points="1108.04,-739.5 1118.04,-736 1108.04,-732.5 1108.04,-739.5"/>
<text text-anchor="middle" x="989.98" y="-739.2" font-family="Times,serif" font-size="14.00">possède 100%</text>
</g>
<!-- le&#45;monde&#45;sa&#45;15 -->
<g id="node4" class="node">
<title>le&#45;monde&#45;sa&#45;15</title>
<polygon fill="none" stroke="black" points="903.51,-417.56 824.22,-430 744.93,-417.56 745,-397.44 903.43,-397.44 903.51,-417.56"/>
<text text-anchor="middle" x="824.22" y="-406.95" font-family="Times,serif" font-size="14.00">Le Monde SA</text>
</g>
<!-- le&#45;monde&#45;libre&#45;14&#45;&gt;le&#45;monde&#45;sa&#45;15 -->
<g id="edge6" class="edge">
<title>le&#45;monde&#45;libre&#45;14&#45;&gt;le&#45;monde&#45;sa&#45;15</title>
<path fill="none" stroke="black" d="M427.53,-156.9C497.95,-202.3 709.97,-338.99 791.13,-391.32"/>
<polygon fill="black" stroke="black" points="788.62,-394.5 798.92,-396.98 792.41,-388.62 788.62,-394.5"/>
<text text-anchor="middle" x="656.2" y="-327.2" font-family="Times,serif" font-size="14.00">possède 75%</text>
</g>
<!-- l&#45;obs&#45;16 -->
<g id="node8" class="node">
<title>l&#45;obs&#45;16</title>
<ellipse fill="none" stroke="black" cx="1177.01" cy="-142" rx="33.95" ry="18"/>
<text text-anchor="middle" x="1177.01" y="-136.95" font-family="Times,serif" font-size="14.00">L’Obs</text>
</g>
<!-- le&#45;monde&#45;libre&#45;14&#45;&gt;l&#45;obs&#45;16 -->
<g id="edge5" class="edge">
<title>le&#45;monde&#45;libre&#45;14&#45;&gt;l&#45;obs&#45;16</title>
<path fill="none" stroke="black" d="M489.2,-142C653.01,-142 1007.8,-142 1132,-142"/>
<polygon fill="black" stroke="black" points="1131.95,-145.5 1141.95,-142 1131.95,-138.5 1131.95,-145.5"/>
<text text-anchor="middle" x="824.22" y="-145.2" font-family="Times,serif" font-size="14.00">possède 99%</text>
</g>
<!-- courrier&#45;international&#45;21 -->
<g id="node9" class="node">
<title>courrier&#45;international&#45;21</title>
<ellipse fill="none" stroke="black" cx="1177.01" cy="-682" rx="91.27" ry="18"/>
<text text-anchor="middle" x="1177.01" y="-676.95" font-family="Times,serif" font-size="14.00">Courrier international</text>
</g>
<!-- le&#45;monde&#45;sa&#45;15&#45;&gt;courrier&#45;international&#45;21 -->
<g id="edge7" class="edge">
<title>le&#45;monde&#45;sa&#45;15&#45;&gt;courrier&#45;international&#45;21</title>
<path fill="none" stroke="black" d="M831.01,-429.35C845.12,-469.08 885.01,-567.39 950.61,-622 986.47,-651.86 1035.73,-667 1079.05,-674.61"/>
<polygon fill="black" stroke="black" points="1078.2,-678.18 1088.64,-676.35 1079.33,-671.27 1078.2,-678.18"/>
<text text-anchor="middle" x="989.98" y="-665.2" font-family="Times,serif" font-size="14.00">possède 100%</text>
</g>
<!-- huffpost&#45;26 -->
<g id="node10" class="node">
<title>huffpost&#45;26</title>
<ellipse fill="none" stroke="black" cx="1177.01" cy="-628" rx="44.19" ry="18"/>
<text text-anchor="middle" x="1177.01" y="-622.95" font-family="Times,serif" font-size="14.00">HuffPost</text>
</g>
<!-- le&#45;monde&#45;sa&#45;15&#45;&gt;huffpost&#45;26 -->
<g id="edge8" class="edge">
<title>le&#45;monde&#45;sa&#45;15&#45;&gt;huffpost&#45;26</title>
<path fill="none" stroke="black" d="M834.92,-428.41C853.69,-458.94 897.85,-524.88 950.61,-564 1001.34,-601.62 1073.45,-617.15 1122.34,-623.54"/>
<polygon fill="black" stroke="black" points="1121.66,-627.11 1132.01,-624.84 1122.51,-620.16 1121.66,-627.11"/>
<text text-anchor="middle" x="989.98" y="-604.2" font-family="Times,serif" font-size="14.00">possède 34%</text>
</g>
<!-- la&#45;vie&#45;23 -->
<g id="node11" class="node">
<title>la&#45;vie&#45;23</title>
<ellipse fill="none" stroke="black" cx="1177.01" cy="-574" rx="36" ry="18"/>
<text text-anchor="middle" x="1177.01" y="-568.95" font-family="Times,serif" font-size="14.00">La Vie</text>
</g>
<!-- le&#45;monde&#45;sa&#45;15&#45;&gt;la&#45;vie&#45;23 -->
<g id="edge9" class="edge">
<title>le&#45;monde&#45;sa&#45;15&#45;&gt;la&#45;vie&#45;23</title>
<path fill="none" stroke="black" d="M841.55,-427.41C864.47,-448.44 908.17,-486.32 950.61,-511 987.4,-532.4 998.57,-534.82 1039.36,-547 1069.5,-556 1104.29,-562.83 1131.23,-567.36"/>
<polygon fill="black" stroke="black" points="1130.45,-570.95 1140.88,-569.11 1131.58,-564.04 1130.45,-570.95"/>
<text text-anchor="middle" x="989.98" y="-546.2" font-family="Times,serif" font-size="14.00">possède 100%</text>
</g>
<!-- le&#45;monde&#45;19 -->
<g id="node12" class="node">
<title>le&#45;monde&#45;19</title>
<ellipse fill="none" stroke="black" cx="1177.01" cy="-520" rx="49.82" ry="18"/>
<text text-anchor="middle" x="1177.01" y="-514.95" font-family="Times,serif" font-size="14.00">Le Monde</text>
</g>
<!-- le&#45;monde&#45;sa&#45;15&#45;&gt;le&#45;monde&#45;19 -->
<g id="edge10" class="edge">
<title>le&#45;monde&#45;sa&#45;15&#45;&gt;le&#45;monde&#45;19</title>
<path fill="none" stroke="black" d="M855.05,-425.55C880.26,-436.77 917.45,-452.79 950.61,-465 989.42,-479.29 999.29,-482.75 1039.36,-493 1065.89,-499.78 1095.69,-505.85 1120.67,-510.5"/>
<polygon fill="black" stroke="black" points="1119.96,-514.11 1130.42,-512.48 1121.22,-507.23 1119.96,-514.11"/>
<text text-anchor="middle" x="989.98" y="-493.2" font-family="Times,serif" font-size="14.00">possède 100%</text>
</g>
<!-- le&#45;monde&#45;des&#45;religions&#45;22 -->
<g id="node13" class="node">
<title>le&#45;monde&#45;des&#45;religions&#45;22</title>
<ellipse fill="none" stroke="black" cx="1177.01" cy="-466" rx="99.46" ry="18"/>
<text text-anchor="middle" x="1177.01" y="-460.95" font-family="Times,serif" font-size="14.00">Le Monde des religions</text>
</g>
<!-- le&#45;monde&#45;sa&#45;15&#45;&gt;le&#45;monde&#45;des&#45;religions&#45;22 -->
<g id="edge11" class="edge">
<title>le&#45;monde&#45;sa&#45;15&#45;&gt;le&#45;monde&#45;des&#45;religions&#45;22</title>
<path fill="none" stroke="black" d="M880.73,-421.55C902.5,-425.23 927.71,-429.41 950.61,-433 995.26,-440.01 1044.97,-447.34 1086.32,-453.3"/>
<polygon fill="black" stroke="black" points="1085.8,-456.91 1096.2,-454.87 1086.8,-449.98 1085.8,-456.91"/>
<text text-anchor="middle" x="989.98" y="-447.2" font-family="Times,serif" font-size="14.00">possède 100%</text>
</g>
<!-- le&#45;monde&#45;diplomatique&#45;24 -->
<g id="node14" class="node">
<title>le&#45;monde&#45;diplomatique&#45;24</title>
<ellipse fill="none" stroke="black" cx="1177.01" cy="-412" rx="101.51" ry="18"/>
<text text-anchor="middle" x="1177.01" y="-406.95" font-family="Times,serif" font-size="14.00">Le Monde diplomatique</text>
</g>
<!-- le&#45;monde&#45;sa&#45;15&#45;&gt;le&#45;monde&#45;diplomatique&#45;24 -->
<g id="edge12" class="edge">
<title>le&#45;monde&#45;sa&#45;15&#45;&gt;le&#45;monde&#45;diplomatique&#45;24</title>
<path fill="none" stroke="black" d="M903.94,-412C951.18,-412 1012.03,-412 1064.2,-412"/>
<polygon fill="black" stroke="black" points="1064.2,-415.5 1074.2,-412 1064.2,-408.5 1064.2,-415.5"/>
<text text-anchor="middle" x="989.98" y="-415.2" font-family="Times,serif" font-size="14.00">possède 51%</text>
</g>
<!-- m&#45;le&#45;magazine&#45;du&#45;monde&#45;18 -->
<g id="node15" class="node">
<title>m&#45;le&#45;magazine&#45;du&#45;monde&#45;18</title>
<ellipse fill="none" stroke="black" cx="1177.01" cy="-358" rx="110.72" ry="18"/>
<text text-anchor="middle" x="1177.01" y="-352.95" font-family="Times,serif" font-size="14.00">M, le magazine du Monde</text>
</g>
<!-- le&#45;monde&#45;sa&#45;15&#45;&gt;m&#45;le&#45;magazine&#45;du&#45;monde&#45;18 -->
<g id="edge13" class="edge">
<title>le&#45;monde&#45;sa&#45;15&#45;&gt;m&#45;le&#45;magazine&#45;du&#45;monde&#45;18</title>
<path fill="none" stroke="black" d="M903.78,-398.98C919.3,-396.45 935.46,-393.86 950.61,-391.5 993.85,-384.75 1041.8,-377.58 1082.33,-371.61"/>
<polygon fill="black" stroke="black" points="1082.62,-374.96 1092.01,-370.04 1081.6,-368.04 1082.62,-374.96"/>
<text text-anchor="middle" x="989.98" y="-394.2" font-family="Times,serif" font-size="14.00">possède 100%</text>
</g>
<!-- maniere&#45;de&#45;voir&#45;25 -->
<g id="node16" class="node">
<title>maniere&#45;de&#45;voir&#45;25</title>
<ellipse fill="none" stroke="black" cx="1177.01" cy="-304" rx="70.8" ry="18"/>
<text text-anchor="middle" x="1177.01" y="-298.95" font-family="Times,serif" font-size="14.00">Manière de voir</text>
</g>
<!-- le&#45;monde&#45;sa&#45;15&#45;&gt;maniere&#45;de&#45;voir&#45;25 -->
<g id="edge14" class="edge">
<title>le&#45;monde&#45;sa&#45;15&#45;&gt;maniere&#45;de&#45;voir&#45;25</title>
<path fill="none" stroke="black" d="M858.96,-396.94C884.03,-385.99 919.17,-371.11 950.61,-359.5 989.47,-345.15 999.25,-341.37 1039.36,-331 1061.09,-325.38 1085.03,-320.29 1106.72,-316.08"/>
<polygon fill="black" stroke="black" points="1107.33,-319.34 1116.49,-314.02 1106.02,-312.46 1107.33,-319.34"/>
<text text-anchor="middle" x="989.98" y="-362.2" font-family="Times,serif" font-size="14.00">possède 51%</text>
</g>
<!-- prier&#45;17 -->
<g id="node17" class="node">
<title>prier&#45;17</title>
<ellipse fill="none" stroke="black" cx="1177.01" cy="-250" rx="28.83" ry="18"/>
<text text-anchor="middle" x="1177.01" y="-244.95" font-family="Times,serif" font-size="14.00">Prier</text>
</g>
<!-- le&#45;monde&#45;sa&#45;15&#45;&gt;prier&#45;17 -->
<g id="edge15" class="edge">
<title>le&#45;monde&#45;sa&#45;15&#45;&gt;prier&#45;17</title>
<path fill="none" stroke="black" d="M840.75,-397.18C863.42,-376.16 907.58,-337.46 950.61,-312.5 987.35,-291.18 998.62,-289.06 1039.36,-277 1071.97,-267.35 1109.99,-260.15 1137.63,-255.63"/>
<polygon fill="black" stroke="black" points="1138.1,-258.94 1147.43,-253.91 1137,-252.02 1138.1,-258.94"/>
<text text-anchor="middle" x="989.98" y="-315.2" font-family="Times,serif" font-size="14.00">possède 100%</text>
</g>
<!-- telerama&#45;20 -->
<g id="node18" class="node">
<title>telerama&#45;20</title>
<ellipse fill="none" stroke="black" cx="1177.01" cy="-196" rx="46.23" ry="18"/>
<text text-anchor="middle" x="1177.01" y="-190.95" font-family="Times,serif" font-size="14.00">Télérama</text>
</g>
<!-- le&#45;monde&#45;sa&#45;15&#45;&gt;telerama&#45;20 -->
<g id="edge16" class="edge">
<title>le&#45;monde&#45;sa&#45;15&#45;&gt;telerama&#45;20</title>
<path fill="none" stroke="black" d="M833.75,-397.38C851.78,-367.61 896.58,-299.43 950.61,-259.5 1000.76,-222.43 1071.75,-206.99 1120.59,-200.56"/>
<polygon fill="black" stroke="black" points="1120.77,-203.94 1130.27,-199.25 1119.92,-197 1120.77,-203.94"/>
<text text-anchor="middle" x="989.98" y="-262.2" font-family="Times,serif" font-size="14.00">possède 100%</text>
</g>
<!-- njj&#45;334 -->
<g id="node20" class="node">
<title>njj&#45;334</title>
<ellipse fill="none" stroke="black" cx="1177.01" cy="-88" rx="27" ry="18"/>
<text text-anchor="middle" x="1177.01" y="-82.95" font-family="Times,serif" font-size="14.00">NJJ</text>
</g>
<!-- fonds&#45;pour&#45;l&#45;independance&#45;de&#45;la&#45;presse&#45;342&#45;&gt;njj&#45;334 -->
<g id="edge19" class="edge">
<title>fonds&#45;pour&#45;l&#45;independance&#45;de&#45;la&#45;presse&#45;342&#45;&gt;njj&#45;334</title>
<path fill="none" stroke="black" d="M596.63,-88C780.21,-88 1042.71,-88 1138.89,-88"/>
<polygon fill="black" stroke="black" points="1138.77,-91.5 1148.77,-88 1138.77,-84.5 1138.77,-91.5"/>
<text text-anchor="middle" x="824.22" y="-91.2" font-family="Times,serif" font-size="14.00">possède 100%</text>
</g>
</g>
</svg>
