<?xml version="1.0" encoding="UTF-8" standalone="no"?>
<!DOCTYPE svg PUBLIC "-//W3C//DTD SVG 1.1//EN"
 "http://www.w3.org/Graphics/SVG/1.1/DTD/svg11.dtd">
<!-- Generated by graphviz version 7.1.0 (20230121.1956)
 -->
<!-- Pages: 1 -->
<svg width="1296pt" height="832pt"
 viewBox="0.00 0.00 1296.10 832.00" xmlns="http://www.w3.org/2000/svg" xmlns:xlink="http://www.w3.org/1999/xlink">
<g id="graph0" class="graph" transform="scale(1 1) rotate(0) translate(4 828)">
<polygon fill="white" stroke="none" points="-4,4 -4,-828 1292.1,-828 1292.1,4 -4,4"/>
<g id="clust2" class="cluster">
<title>clusterLeaves</title>
<polygon fill="none" stroke="black" points="1015.82,-8 1015.82,-816 1280.1,-816 1280.1,-8 1015.82,-8"/>
</g>
<!-- xavier&#45;niel&#45;10 -->
<g id="node1" class="node">
<title>xavier&#45;niel&#45;10</title>
<polygon fill="none" stroke="black" points="95,-137 0,-137 0,-101 95,-101 95,-137"/>
<text text-anchor="middle" x="47.5" y="-115.3" font-family="Times,serif" font-size="14.00">🧑‍💼Xavier Niel</text>
</g>
<!-- groupe&#45;la&#45;provence&#45;280 -->
<g id="node2" class="node">
<title>groupe&#45;la&#45;provence&#45;280</title>
<polygon fill="none" stroke="black" points="908.96,-741.56 805.19,-754 701.42,-741.56 701.51,-721.44 908.86,-721.44 908.96,-741.56"/>
<text text-anchor="middle" x="805.19" y="-732.3" font-family="Times,serif" font-size="14.00">Groupe La Provence</text>
</g>
<!-- xavier&#45;niel&#45;10&#45;&gt;groupe&#45;la&#45;provence&#45;280 -->
<g id="edge1" class="edge">
<title>xavier&#45;niel&#45;10&#45;&gt;groupe&#45;la&#45;provence&#45;280</title>
<path fill="none" stroke="black" d="M71.12,-137.47C180.87,-227.07 657.52,-616.25 776.97,-713.78"/>
<polygon fill="black" stroke="black" points="774.74,-716.48 784.7,-720.09 779.17,-711.05 774.74,-716.48"/>
<text text-anchor="middle" x="396.78" y="-550.8" font-family="Times,serif" font-size="14.00">possède 11%</text>
</g>
<!-- le&#45;monde&#45;libre&#45;14 -->
<g id="node3" class="node">
<title>le&#45;monde&#45;libre&#45;14</title>
<polygon fill="none" stroke="black" points="478.66,-147.56 396.78,-160 314.89,-147.56 314.96,-127.44 478.59,-127.44 478.66,-147.56"/>
<text text-anchor="middle" x="396.78" y="-138.3" font-family="Times,serif" font-size="14.00">Le Monde libre</text>
</g>
<!-- xavier&#45;niel&#45;10&#45;&gt;le&#45;monde&#45;libre&#45;14 -->
<g id="edge4" class="edge">
<title>xavier&#45;niel&#45;10&#45;&gt;le&#45;monde&#45;libre&#45;14</title>
<path fill="none" stroke="black" d="M95.34,-122.1C148.36,-125.61 236.09,-131.42 303.09,-135.86"/>
<polygon fill="black" stroke="black" points="302.78,-139.35 312.99,-136.52 303.25,-132.36 302.78,-139.35"/>
<text text-anchor="middle" x="153.5" y="-131.8" font-family="Times,serif" font-size="14.00">possède 26%</text>
</g>
<!-- fonds&#45;pour&#45;l&#45;independance&#45;de&#45;la&#45;presse&#45;342 -->
<g id="node5" class="node">
<title>fonds&#45;pour&#45;l&#45;independance&#45;de&#45;la&#45;presse&#45;342</title>
<polygon fill="none" stroke="black" points="581.33,-93.56 396.78,-106 212.22,-93.56 212.4,-73.44 581.16,-73.44 581.33,-93.56"/>
<text text-anchor="middle" x="396.78" y="-84.3" font-family="Times,serif" font-size="14.00">Fonds pour l&#39;indépendance de la presse</text>
</g>
<!-- xavier&#45;niel&#45;10&#45;&gt;fonds&#45;pour&#45;l&#45;independance&#45;de&#45;la&#45;presse&#45;342 -->
<g id="edge18" class="edge">
<title>xavier&#45;niel&#45;10&#45;&gt;fonds&#45;pour&#45;l&#45;independance&#45;de&#45;la&#45;presse&#45;342</title>
<path fill="none" stroke="black" d="M95.18,-107.15C101.14,-105.93 107.2,-104.83 113,-104 141.27,-99.94 171.27,-96.9 200.75,-94.63"/>
<polygon fill="black" stroke="black" points="200.8,-98.14 210.51,-93.91 200.28,-91.15 200.8,-98.14"/>
<text text-anchor="middle" x="153.5" y="-107.8" font-family="Times,serif" font-size="14.00">contrôle 100%</text>
</g>
<!-- le&#45;nouveau&#45;magazine&#45;litteraire&#45;322 -->
<g id="node19" class="node">
<title>le&#45;nouveau&#45;magazine&#45;litteraire&#45;322</title>
<ellipse fill="none" stroke="black" cx="1147.96" cy="-34" rx="124.28" ry="18"/>
<text text-anchor="middle" x="1147.96" y="-30.3" font-family="Times,serif" font-size="14.00">Le Nouveau Magazine littéraire</text>
</g>
<!-- xavier&#45;niel&#45;10&#45;&gt;le&#45;nouveau&#45;magazine&#45;litteraire&#45;322 -->
<g id="edge17" class="edge">
<title>xavier&#45;niel&#45;10&#45;&gt;le&#45;nouveau&#45;magazine&#45;litteraire&#45;322</title>
<path fill="none" stroke="black" d="M87.76,-100.57C120.23,-86.43 168.01,-68.17 212,-61 497.77,-14.43 839.01,-19.63 1019.83,-27.08"/>
<polygon fill="black" stroke="black" points="1019.59,-30.57 1029.73,-27.5 1019.89,-23.58 1019.59,-30.57"/>
<text text-anchor="middle" x="641.55" y="-29.8" font-family="Times,serif" font-size="14.00">participe 100%</text>
</g>
<!-- corse&#45;matin&#45;282 -->
<g id="node6" class="node">
<title>corse&#45;matin&#45;282</title>
<ellipse fill="none" stroke="black" cx="1147.96" cy="-790" rx="55.49" ry="18"/>
<text text-anchor="middle" x="1147.96" y="-786.3" font-family="Times,serif" font-size="14.00">Corse Matin</text>
</g>
<!-- groupe&#45;la&#45;provence&#45;280&#45;&gt;corse&#45;matin&#45;282 -->
<g id="edge2" class="edge">
<title>groupe&#45;la&#45;provence&#45;280&#45;&gt;corse&#45;matin&#45;282</title>
<path fill="none" stroke="black" d="M871.89,-746.41C933.85,-756.23 1025.96,-770.83 1086.24,-780.38"/>
<polygon fill="black" stroke="black" points="1085.56,-783.81 1095.98,-781.92 1086.65,-776.9 1085.56,-783.81"/>
<text text-anchor="middle" x="966.32" y="-769.8" font-family="Times,serif" font-size="14.00">possède 65%</text>
</g>
<!-- la&#45;provence&#45;283 -->
<g id="node7" class="node">
<title>la&#45;provence&#45;283</title>
<ellipse fill="none" stroke="black" cx="1147.96" cy="-736" rx="55.49" ry="18"/>
<text text-anchor="middle" x="1147.96" y="-732.3" font-family="Times,serif" font-size="14.00">La Provence</text>
</g>
<!-- groupe&#45;la&#45;provence&#45;280&#45;&gt;la&#45;provence&#45;283 -->
<g id="edge3" class="edge">
<title>groupe&#45;la&#45;provence&#45;280&#45;&gt;la&#45;provence&#45;283</title>
<path fill="none" stroke="black" d="M909.35,-736C965.03,-736 1032.11,-736 1080.78,-736"/>
<polygon fill="black" stroke="black" points="1080.6,-739.5 1090.6,-736 1080.6,-732.5 1080.6,-739.5"/>
<text text-anchor="middle" x="966.32" y="-739.8" font-family="Times,serif" font-size="14.00">possède 100%</text>
</g>
<!-- le&#45;monde&#45;sa&#45;15 -->
<g id="node4" class="node">
<title>le&#45;monde&#45;sa&#45;15</title>
<polygon fill="none" stroke="black" points="881.33,-417.56 805.19,-430 729.05,-417.56 729.12,-397.44 881.26,-397.44 881.33,-417.56"/>
<text text-anchor="middle" x="805.19" y="-408.3" font-family="Times,serif" font-size="14.00">Le Monde SA</text>
</g>
<!-- le&#45;monde&#45;libre&#45;14&#45;&gt;le&#45;monde&#45;sa&#45;15 -->
<g id="edge6" class="edge">
<title>le&#45;monde&#45;libre&#45;14&#45;&gt;le&#45;monde&#45;sa&#45;15</title>
<path fill="none" stroke="black" d="M420.21,-156.9C488.27,-202.12 692.62,-337.88 772.09,-390.67"/>
<polygon fill="black" stroke="black" points="770.05,-393.52 780.32,-396.14 773.92,-387.69 770.05,-393.52"/>
<text text-anchor="middle" x="641.55" y="-327.8" font-family="Times,serif" font-size="14.00">possède 75%</text>
</g>
<!-- l&#45;obs&#45;16 -->
<g id="node8" class="node">
<title>l&#45;obs&#45;16</title>
<ellipse fill="none" stroke="black" cx="1147.96" cy="-142" rx="32.49" ry="18"/>
<text text-anchor="middle" x="1147.96" y="-138.3" font-family="Times,serif" font-size="14.00">L’Obs</text>
</g>
<!-- le&#45;monde&#45;libre&#45;14&#45;&gt;l&#45;obs&#45;16 -->
<g id="edge5" class="edge">
<title>le&#45;monde&#45;libre&#45;14&#45;&gt;l&#45;obs&#45;16</title>
<path fill="none" stroke="black" d="M479.02,-142C637.39,-142 982.48,-142 1103.76,-142"/>
<polygon fill="black" stroke="black" points="1103.61,-145.5 1113.61,-142 1103.61,-138.5 1103.61,-145.5"/>
<text text-anchor="middle" x="805.19" y="-145.8" font-family="Times,serif" font-size="14.00">possède 99%</text>
</g>
<!-- courrier&#45;international&#45;21 -->
<g id="node9" class="node">
<title>courrier&#45;international&#45;21</title>
<ellipse fill="none" stroke="black" cx="1147.96" cy="-682" rx="87.18" ry="18"/>
<text text-anchor="middle" x="1147.96" y="-678.3" font-family="Times,serif" font-size="14.00">Courrier international</text>
</g>
<!-- le&#45;monde&#45;sa&#45;15&#45;&gt;courrier&#45;international&#45;21 -->
<g id="edge7" class="edge">
<title>le&#45;monde&#45;sa&#45;15&#45;&gt;courrier&#45;international&#45;21</title>
<path fill="none" stroke="black" d="M811.79,-429.4C825.3,-468.76 863.35,-565.45 926.82,-620 962.13,-650.35 1011.29,-665.9 1054.19,-673.85"/>
<polygon fill="black" stroke="black" points="1053.59,-677.3 1064.04,-675.55 1054.78,-670.4 1053.59,-677.3"/>
<text text-anchor="middle" x="966.32" y="-663.8" font-family="Times,serif" font-size="14.00">possède 100%</text>
</g>
<!-- huffpost&#45;26 -->
<g id="node10" class="node">
<title>huffpost&#45;26</title>
<ellipse fill="none" stroke="black" cx="1147.96" cy="-628" rx="42.49" ry="18"/>
<text text-anchor="middle" x="1147.96" y="-624.3" font-family="Times,serif" font-size="14.00">HuffPost</text>
</g>
<!-- le&#45;monde&#45;sa&#45;15&#45;&gt;huffpost&#45;26 -->
<g id="edge8" class="edge">
<title>le&#45;monde&#45;sa&#45;15&#45;&gt;huffpost&#45;26</title>
<path fill="none" stroke="black" d="M815.77,-428.6C833.93,-458.8 876.13,-523.21 926.82,-562 976.14,-599.75 1046.88,-615.99 1094.75,-622.93"/>
<polygon fill="black" stroke="black" points="1094.22,-626.39 1104.6,-624.26 1095.16,-619.45 1094.22,-626.39"/>
<text text-anchor="middle" x="966.32" y="-604.8" font-family="Times,serif" font-size="14.00">possède 34%</text>
</g>
<!-- la&#45;vie&#45;23 -->
<g id="node11" class="node">
<title>la&#45;vie&#45;23</title>
<ellipse fill="none" stroke="black" cx="1147.96" cy="-574" rx="34.39" ry="18"/>
<text text-anchor="middle" x="1147.96" y="-570.3" font-family="Times,serif" font-size="14.00">La Vie</text>
</g>
<!-- le&#45;monde&#45;sa&#45;15&#45;&gt;la&#45;vie&#45;23 -->
<g id="edge9" class="edge">
<title>le&#45;monde&#45;sa&#45;15&#45;&gt;la&#45;vie&#45;23</title>
<path fill="none" stroke="black" d="M822.73,-427.49C845.06,-447.83 886.71,-483.81 926.82,-508 963.81,-530.3 974.67,-533.91 1015.82,-547 1044.35,-556.08 1077.36,-562.85 1103.12,-567.35"/>
<polygon fill="black" stroke="black" points="1102.47,-570.79 1112.92,-569 1103.64,-563.88 1102.47,-570.79"/>
<text text-anchor="middle" x="966.32" y="-546.8" font-family="Times,serif" font-size="14.00">possède 100%</text>
</g>
<!-- le&#45;monde&#45;19 -->
<g id="node12" class="node">
<title>le&#45;monde&#45;19</title>
<ellipse fill="none" stroke="black" cx="1147.96" cy="-520" rx="48.19" ry="18"/>
<text text-anchor="middle" x="1147.96" y="-516.3" font-family="Times,serif" font-size="14.00">Le Monde</text>
</g>
<!-- le&#45;monde&#45;sa&#45;15&#45;&gt;le&#45;monde&#45;19 -->
<g id="edge10" class="edge">
<title>le&#45;monde&#45;sa&#45;15&#45;&gt;le&#45;monde&#45;19</title>
<path fill="none" stroke="black" d="M835.78,-425.49C875.84,-443.28 949.9,-474.46 1015.82,-493 1040.63,-499.98 1068.54,-505.97 1092.22,-510.53"/>
<polygon fill="black" stroke="black" points="1091.51,-513.96 1101.98,-512.37 1092.81,-507.08 1091.51,-513.96"/>
<text text-anchor="middle" x="966.32" y="-492.8" font-family="Times,serif" font-size="14.00">possède 100%</text>
</g>
<!-- le&#45;monde&#45;des&#45;religions&#45;22 -->
<g id="node13" class="node">
<title>le&#45;monde&#45;des&#45;religions&#45;22</title>
<ellipse fill="none" stroke="black" cx="1147.96" cy="-466" rx="94.78" ry="18"/>
<text text-anchor="middle" x="1147.96" y="-462.3" font-family="Times,serif" font-size="14.00">Le Monde des religions</text>
</g>
<!-- le&#45;monde&#45;sa&#45;15&#45;&gt;le&#45;monde&#45;des&#45;religions&#45;22 -->
<g id="edge11" class="edge">
<title>le&#45;monde&#45;sa&#45;15&#45;&gt;le&#45;monde&#45;des&#45;religions&#45;22</title>
<path fill="none" stroke="black" d="M862.84,-420.98C917.27,-429.6 1000.2,-442.74 1062.44,-452.61"/>
<polygon fill="black" stroke="black" points="1061.89,-456.06 1072.31,-454.17 1062.98,-449.15 1061.89,-456.06"/>
<text text-anchor="middle" x="966.32" y="-445.8" font-family="Times,serif" font-size="14.00">possède 100%</text>
</g>
<!-- le&#45;monde&#45;diplomatique&#45;24 -->
<g id="node14" class="node">
<title>le&#45;monde&#45;diplomatique&#45;24</title>
<ellipse fill="none" stroke="black" cx="1147.96" cy="-412" rx="96.68" ry="18"/>
<text text-anchor="middle" x="1147.96" y="-408.3" font-family="Times,serif" font-size="14.00">Le Monde diplomatique</text>
</g>
<!-- le&#45;monde&#45;sa&#45;15&#45;&gt;le&#45;monde&#45;diplomatique&#45;24 -->
<g id="edge12" class="edge">
<title>le&#45;monde&#45;sa&#45;15&#45;&gt;le&#45;monde&#45;diplomatique&#45;24</title>
<path fill="none" stroke="black" d="M881.39,-412C927.77,-412 988,-412 1039.37,-412"/>
<polygon fill="black" stroke="black" points="1039.35,-415.5 1049.35,-412 1039.35,-408.5 1039.35,-415.5"/>
<text text-anchor="middle" x="966.32" y="-415.8" font-family="Times,serif" font-size="14.00">possède 51%</text>
</g>
<!-- m&#45;le&#45;magazine&#45;du&#45;monde&#45;18 -->
<g id="node15" class="node">
<title>m&#45;le&#45;magazine&#45;du&#45;monde&#45;18</title>
<ellipse fill="none" stroke="black" cx="1147.96" cy="-358" rx="105.88" ry="18"/>
<text text-anchor="middle" x="1147.96" y="-354.3" font-family="Times,serif" font-size="14.00">M, le magazine du Monde</text>
</g>
<!-- le&#45;monde&#45;sa&#45;15&#45;&gt;m&#45;le&#45;magazine&#45;du&#45;monde&#45;18 -->
<g id="edge13" class="edge">
<title>le&#45;monde&#45;sa&#45;15&#45;&gt;m&#45;le&#45;magazine&#45;du&#45;monde&#45;18</title>
<path fill="none" stroke="black" d="M881.39,-400.08C933.47,-391.83 1003.01,-380.81 1057.87,-372.12"/>
<polygon fill="black" stroke="black" points="1058.17,-375.61 1067.5,-370.59 1057.07,-368.7 1058.17,-375.61"/>
<text text-anchor="middle" x="966.32" y="-394.8" font-family="Times,serif" font-size="14.00">possède 100%</text>
</g>
<!-- maniere&#45;de&#45;voir&#45;25 -->
<g id="node16" class="node">
<title>maniere&#45;de&#45;voir&#45;25</title>
<ellipse fill="none" stroke="black" cx="1147.96" cy="-304" rx="67.69" ry="18"/>
<text text-anchor="middle" x="1147.96" y="-300.3" font-family="Times,serif" font-size="14.00">Manière de voir</text>
</g>
<!-- le&#45;monde&#45;sa&#45;15&#45;&gt;maniere&#45;de&#45;voir&#45;25 -->
<g id="edge14" class="edge">
<title>le&#45;monde&#45;sa&#45;15&#45;&gt;maniere&#45;de&#45;voir&#45;25</title>
<path fill="none" stroke="black" d="M838.9,-397.01C879.58,-378.92 951.5,-348.74 1015.82,-331 1036.34,-325.34 1058.95,-320.28 1079.53,-316.11"/>
<polygon fill="black" stroke="black" points="1080.13,-319.56 1089.25,-314.18 1078.76,-312.69 1080.13,-319.56"/>
<text text-anchor="middle" x="966.32" y="-363.8" font-family="Times,serif" font-size="14.00">possède 51%</text>
</g>
<!-- prier&#45;17 -->
<g id="node17" class="node">
<title>prier&#45;17</title>
<ellipse fill="none" stroke="black" cx="1147.96" cy="-250" rx="27.9" ry="18"/>
<text text-anchor="middle" x="1147.96" y="-246.3" font-family="Times,serif" font-size="14.00">Prier</text>
</g>
<!-- le&#45;monde&#45;sa&#45;15&#45;&gt;prier&#45;17 -->
<g id="edge15" class="edge">
<title>le&#45;monde&#45;sa&#45;15&#45;&gt;prier&#45;17</title>
<path fill="none" stroke="black" d="M821.91,-396.98C843.98,-376.47 886.03,-339.47 926.82,-315 963.7,-292.87 974.77,-289.85 1015.82,-277 1046.74,-267.32 1082.86,-260.18 1109.36,-255.68"/>
<polygon fill="black" stroke="black" points="1109.65,-259.18 1118.95,-254.1 1108.51,-252.27 1109.65,-259.18"/>
<text text-anchor="middle" x="966.32" y="-318.8" font-family="Times,serif" font-size="14.00">possède 100%</text>
</g>
<!-- telerama&#45;20 -->
<g id="node18" class="node">
<title>telerama&#45;20</title>
<ellipse fill="none" stroke="black" cx="1147.96" cy="-196" rx="44.39" ry="18"/>
<text text-anchor="middle" x="1147.96" y="-192.3" font-family="Times,serif" font-size="14.00">Télérama</text>
</g>
<!-- le&#45;monde&#45;sa&#45;15&#45;&gt;telerama&#45;20 -->
<g id="edge16" class="edge">
<title>le&#45;monde&#45;sa&#45;15&#45;&gt;telerama&#45;20</title>
<path fill="none" stroke="black" d="M814.6,-397.11C832.01,-367.49 874.74,-300.6 926.82,-261 975.47,-224.01 1044.83,-208.01 1092.63,-201.13"/>
<polygon fill="black" stroke="black" points="1093.04,-204.61 1102.49,-199.81 1092.11,-197.67 1093.04,-204.61"/>
<text text-anchor="middle" x="966.32" y="-264.8" font-family="Times,serif" font-size="14.00">possède 100%</text>
</g>
<!-- njj&#45;334 -->
<g id="node20" class="node">
<title>njj&#45;334</title>
<ellipse fill="none" stroke="black" cx="1147.96" cy="-88" rx="27" ry="18"/>
<text text-anchor="middle" x="1147.96" y="-84.3" font-family="Times,serif" font-size="14.00">NJJ</text>
</g>
<!-- fonds&#45;pour&#45;l&#45;independance&#45;de&#45;la&#45;presse&#45;342&#45;&gt;njj&#45;334 -->
<g id="edge19" class="edge">
<title>fonds&#45;pour&#45;l&#45;independance&#45;de&#45;la&#45;presse&#45;342&#45;&gt;njj&#45;334</title>
<path fill="none" stroke="black" d="M581.53,-88C758.93,-88 1014.24,-88 1109.37,-88"/>
<polygon fill="black" stroke="black" points="1109.16,-91.5 1119.16,-88 1109.16,-84.5 1109.16,-91.5"/>
<text text-anchor="middle" x="805.19" y="-91.8" font-family="Times,serif" font-size="14.00">possède 100%</text>
</g>
</g>
</svg>
